M48
INCH,TZ
T1C0.0079
T2C0.0118
T3C0.0256
T4C0.0748
T5C0.1220
%
G90
G05
T1
X46142Y-8661
X46142Y-9055
X46142Y-9449
X46535Y-8661
X46535Y-9055
X46535Y-9449
X46929Y-8661
X46929Y-9055
X46929Y-9449
T2
X41102Y-10276
X43071Y-7283
X43278Y-9173
X43278Y-9724
X43278Y-10276
X43278Y-10787
X43278Y-11339
X43346Y-8622
X43858Y-22205
X43858Y-25669
X43937Y-29291
X43937Y-32717
X43937Y-36299
X44094Y-21850
X44094Y-25433
X44094Y-28976
X44094Y-32441
X44094Y-35984
X44884Y-10179
X44921Y-10728
X44957Y-8930
X44961Y-8583
X44961Y-9252
X44961Y-9567
X44980Y-22441
X44980Y-25984
X44980Y-29528
X44980Y-33071
X44980Y-36614
X45106Y-37594
X45315Y-6220
X45354Y-31693
X45354Y-35236
X45394Y-21102
X45394Y-24606
X45394Y-28150
X45807Y-12047
X45984Y-10650
X46319Y-12047
X46339Y-8858
X46339Y-9252
X46417Y-6939
X46417Y-10650
X46503Y-7598
X46732Y-8858
X46732Y-9252
X46813Y-10665
X46870Y-12047
X47185Y-10630
X47402Y-12047
X47465Y-37594
X47717Y-27362
X47717Y-30906
X47717Y-34488
X47746Y-20276
X47756Y-23858
X47953Y-8913
X47976Y-9508
X48130Y-18898
X48130Y-22441
X48130Y-25984
X48130Y-29528
X48130Y-33071
X48258Y-7785
X48756Y-8906
X49016Y-19488
X49016Y-23110
X49016Y-26614
X49016Y-30118
X49016Y-33701
X49035Y-11929
X49173Y-22756
X49213Y-19213
X49213Y-26260
X49213Y-33425
X49252Y-29803
X49370Y-14878
X49937Y-7551
X50122Y-14701
X52047Y-7520
X52055Y-8295
X53354Y-13335
X54547Y-8862
X54606Y-10071
X54902Y-6768
X56122Y-8563
X56831Y-7067
X58937Y-7087
X59626Y-8524
T3
X47106Y-6685
X47106Y-7185
X47606Y-6685
X47606Y-7185
X48106Y-6685
X48106Y-7185
X48606Y-6685
X48606Y-7185
X49106Y-6685
X49106Y-7185
T4
X55018Y-26969
X55018Y-28937
X57778Y-26969
X57778Y-28937
X59348Y-16634
X59348Y-18602
X62108Y-16634
X62108Y-18602
X40254Y-26772
X40254Y-28740
X43014Y-26772
X43014Y-28740
X40254Y-19685
X40254Y-21654
X43014Y-19685
X43014Y-21654
X59348Y-23524
X59348Y-25492
X62108Y-23524
X62108Y-25492
X55018Y-16634
X55018Y-18602
X57778Y-16634
X57778Y-18602
X59348Y-30413
X59348Y-32382
X62108Y-30413
X62108Y-32382
X59348Y-33858
X59348Y-35827
X62108Y-33858
X62108Y-35827
X55018Y-33858
X55018Y-35827
X57778Y-33858
X57778Y-35827
X50096Y-33858
X50096Y-35827
X52856Y-33858
X52856Y-35827
X40254Y-33858
X40254Y-35827
X43014Y-33858
X43014Y-35827
X50096Y-16142
X50096Y-18110
X52856Y-16142
X52856Y-18110
X55018Y-13189
X55018Y-15157
X57778Y-13189
X57778Y-15157
X55018Y-23524
X55018Y-25492
X57778Y-23524
X57778Y-25492
X40254Y-30315
X40254Y-32283
X43014Y-30315
X43014Y-32283
X50096Y-26772
X50096Y-28740
X52856Y-26772
X52856Y-28740
X50096Y-19685
X50096Y-21654
X52856Y-19685
X52856Y-21654
X59348Y-20079
X59348Y-22047
X62108Y-20079
X62108Y-22047
X59348Y-26969
X59348Y-28937
X62108Y-26969
X62108Y-28937
X40254Y-16142
X40254Y-18110
X43014Y-16142
X43014Y-18110
X40254Y-23228
X40254Y-25197
X43014Y-23228
X43014Y-25197
X55018Y-20079
X55018Y-22047
X57778Y-20079
X57778Y-22047
X55018Y-30413
X55018Y-32382
X57778Y-30413
X57778Y-32382
X50096Y-23228
X50096Y-25197
X52856Y-23228
X52856Y-25197
X50096Y-30315
X50096Y-32283
X52856Y-30315
X52856Y-32283
X59348Y-13189
X59348Y-15157
X62108Y-13189
X62108Y-15157
X40254Y-12598
X40254Y-14567
X43014Y-12598
X43014Y-14567
T5
X40748Y-7283
X40748Y-37992
X61614Y-7283
X61614Y-37992
T0
M30
