G04 #@! TF.GenerationSoftware,KiCad,Pcbnew,(5.0.0)*
G04 #@! TF.CreationDate,2018-11-03T20:55:02-02:30*
G04 #@! TF.ProjectId,Power Distribution Board,506F7765722044697374726962757469,rev?*
G04 #@! TF.SameCoordinates,Original*
G04 #@! TF.FileFunction,Soldermask,Bot*
G04 #@! TF.FilePolarity,Negative*
%FSLAX46Y46*%
G04 Gerber Fmt 4.6, Leading zero omitted, Abs format (unit mm)*
G04 Created by KiCad (PCBNEW (5.0.0)) date 11/03/18 20:55:02*
%MOMM*%
%LPD*%
G01*
G04 APERTURE LIST*
%ADD10R,1.400000X1.400000*%
%ADD11O,1.400000X1.400000*%
%ADD12C,6.400000*%
%ADD13R,1.200000X1.150000*%
%ADD14C,3.600000*%
%ADD15R,0.900000X1.300000*%
%ADD16C,0.400000*%
G04 APERTURE END LIST*
D10*
G04 #@! TO.C,J29*
X119650000Y-18250000D03*
D11*
X119650000Y-16980000D03*
X120920000Y-18250000D03*
X120920000Y-16980000D03*
X122190000Y-18250000D03*
X122190000Y-16980000D03*
X123460000Y-18250000D03*
X123460000Y-16980000D03*
X124730000Y-18250000D03*
X124730000Y-16980000D03*
G04 #@! TD*
D12*
G04 #@! TO.C,REF\002A\002A*
X103500000Y-96500000D03*
G04 #@! TD*
G04 #@! TO.C,REF\002A\002A*
X156500000Y-96500000D03*
G04 #@! TD*
G04 #@! TO.C,REF\002A\002A*
X156500000Y-18500000D03*
G04 #@! TD*
D13*
G04 #@! TO.C,C2*
X123750000Y-48000000D03*
X122250000Y-48000000D03*
G04 #@! TD*
G04 #@! TO.C,C3*
X114250000Y-57000000D03*
X112750000Y-57000000D03*
G04 #@! TD*
G04 #@! TO.C,C8*
X123750000Y-66000000D03*
X122250000Y-66000000D03*
G04 #@! TD*
G04 #@! TO.C,C9*
X112750000Y-66000000D03*
X114250000Y-66000000D03*
G04 #@! TD*
G04 #@! TO.C,C10*
X123750000Y-57000000D03*
X122250000Y-57000000D03*
G04 #@! TD*
G04 #@! TO.C,C11*
X114250000Y-75000000D03*
X112750000Y-75000000D03*
G04 #@! TD*
G04 #@! TO.C,C17*
X114250000Y-84000000D03*
X112750000Y-84000000D03*
G04 #@! TD*
G04 #@! TO.C,C18*
X122250000Y-75000000D03*
X123750000Y-75000000D03*
G04 #@! TD*
G04 #@! TO.C,C19*
X112750000Y-93000000D03*
X114250000Y-93000000D03*
G04 #@! TD*
G04 #@! TO.C,C20*
X123750000Y-84000000D03*
X122250000Y-84000000D03*
G04 #@! TD*
D14*
G04 #@! TO.C,J1*
X109255000Y-41000000D03*
X102245000Y-41000000D03*
X102245000Y-46000000D03*
X109255000Y-46000000D03*
G04 #@! TD*
G04 #@! TO.C,J2*
X102245000Y-37000000D03*
X109255000Y-37000000D03*
X109255000Y-32000000D03*
X102245000Y-32000000D03*
G04 #@! TD*
G04 #@! TO.C,J3*
X127245000Y-41000000D03*
X134255000Y-41000000D03*
X134255000Y-46000000D03*
X127245000Y-46000000D03*
G04 #@! TD*
G04 #@! TO.C,J4*
X150745000Y-64750000D03*
X157755000Y-64750000D03*
X157755000Y-59750000D03*
X150745000Y-59750000D03*
G04 #@! TD*
G04 #@! TO.C,J5*
X139745000Y-68500000D03*
X146755000Y-68500000D03*
X146755000Y-73500000D03*
X139745000Y-73500000D03*
G04 #@! TD*
G04 #@! TO.C,J6*
X139745000Y-64750000D03*
X146755000Y-64750000D03*
X146755000Y-59750000D03*
X139745000Y-59750000D03*
G04 #@! TD*
G04 #@! TO.C,J7*
X150745000Y-42250000D03*
X157755000Y-42250000D03*
X157755000Y-47250000D03*
X150745000Y-47250000D03*
G04 #@! TD*
G04 #@! TO.C,J8*
X150745000Y-38500000D03*
X157755000Y-38500000D03*
X157755000Y-33500000D03*
X150745000Y-33500000D03*
G04 #@! TD*
G04 #@! TO.C,J9*
X139745000Y-77250000D03*
X146755000Y-77250000D03*
X146755000Y-82250000D03*
X139745000Y-82250000D03*
G04 #@! TD*
G04 #@! TO.C,J10*
X139745000Y-56000000D03*
X146755000Y-56000000D03*
X146755000Y-51000000D03*
X139745000Y-51000000D03*
G04 #@! TD*
G04 #@! TO.C,J11*
X150745000Y-51000000D03*
X157755000Y-51000000D03*
X157755000Y-56000000D03*
X150745000Y-56000000D03*
G04 #@! TD*
G04 #@! TO.C,J12*
X139745000Y-38500000D03*
X146755000Y-38500000D03*
X146755000Y-33500000D03*
X139745000Y-33500000D03*
G04 #@! TD*
G04 #@! TO.C,J13*
X150745000Y-77250000D03*
X157755000Y-77250000D03*
X157755000Y-82250000D03*
X150745000Y-82250000D03*
G04 #@! TD*
G04 #@! TO.C,J14*
X150745000Y-73500000D03*
X157755000Y-73500000D03*
X157755000Y-68500000D03*
X150745000Y-68500000D03*
G04 #@! TD*
G04 #@! TO.C,J15*
X139745000Y-86000000D03*
X146755000Y-86000000D03*
X146755000Y-91000000D03*
X139745000Y-91000000D03*
G04 #@! TD*
G04 #@! TO.C,J16*
X139745000Y-47250000D03*
X146755000Y-47250000D03*
X146755000Y-42250000D03*
X139745000Y-42250000D03*
G04 #@! TD*
G04 #@! TO.C,J17*
X150745000Y-86000000D03*
X157755000Y-86000000D03*
X157755000Y-91000000D03*
X150745000Y-91000000D03*
G04 #@! TD*
G04 #@! TO.C,J18*
X102245000Y-55000000D03*
X109255000Y-55000000D03*
X109255000Y-50000000D03*
X102245000Y-50000000D03*
G04 #@! TD*
G04 #@! TO.C,J19*
X127245000Y-50000000D03*
X134255000Y-50000000D03*
X134255000Y-55000000D03*
X127245000Y-55000000D03*
G04 #@! TD*
G04 #@! TO.C,J20*
X102245000Y-64000000D03*
X109255000Y-64000000D03*
X109255000Y-59000000D03*
X102245000Y-59000000D03*
G04 #@! TD*
G04 #@! TO.C,J21*
X127245000Y-59000000D03*
X134255000Y-59000000D03*
X134255000Y-64000000D03*
X127245000Y-64000000D03*
G04 #@! TD*
G04 #@! TO.C,J22*
X102245000Y-73000000D03*
X109255000Y-73000000D03*
X109255000Y-68000000D03*
X102245000Y-68000000D03*
G04 #@! TD*
G04 #@! TO.C,J23*
X127245000Y-68000000D03*
X134255000Y-68000000D03*
X134255000Y-73000000D03*
X127245000Y-73000000D03*
G04 #@! TD*
G04 #@! TO.C,J24*
X102245000Y-82000000D03*
X109255000Y-82000000D03*
X109255000Y-77000000D03*
X102245000Y-77000000D03*
G04 #@! TD*
G04 #@! TO.C,J25*
X134255000Y-77000000D03*
X127245000Y-77000000D03*
X127245000Y-82000000D03*
X134255000Y-82000000D03*
G04 #@! TD*
G04 #@! TO.C,J26*
X102245000Y-86000000D03*
X109255000Y-86000000D03*
X109255000Y-91000000D03*
X102245000Y-91000000D03*
G04 #@! TD*
G04 #@! TO.C,J27*
X127245000Y-86000000D03*
X134255000Y-86000000D03*
X134255000Y-91000000D03*
X127245000Y-91000000D03*
G04 #@! TD*
D15*
G04 #@! TO.C,R2*
X112750000Y-55750000D03*
X114250000Y-55750000D03*
G04 #@! TD*
G04 #@! TO.C,R3*
X122250000Y-49250000D03*
X123750000Y-49250000D03*
G04 #@! TD*
G04 #@! TO.C,R4*
X114250000Y-64750000D03*
X112750000Y-64750000D03*
G04 #@! TD*
G04 #@! TO.C,R5*
X122250000Y-58250000D03*
X123750000Y-58250000D03*
G04 #@! TD*
G04 #@! TO.C,R6*
X112750000Y-73750000D03*
X114250000Y-73750000D03*
G04 #@! TD*
G04 #@! TO.C,R7*
X123750000Y-67250000D03*
X122250000Y-67250000D03*
G04 #@! TD*
G04 #@! TO.C,R8*
X114250000Y-82750000D03*
X112750000Y-82750000D03*
G04 #@! TD*
G04 #@! TO.C,R9*
X123750000Y-76250000D03*
X122250000Y-76250000D03*
G04 #@! TD*
G04 #@! TO.C,R10*
X112750000Y-91750000D03*
X114250000Y-91750000D03*
G04 #@! TD*
G04 #@! TO.C,R11*
X123750000Y-85250000D03*
X122250000Y-85250000D03*
G04 #@! TD*
D16*
G04 #@! TO.C,U12*
X117200000Y-24000001D03*
X117200000Y-23000001D03*
X117200000Y-22000001D03*
X118200000Y-24000001D03*
X118200000Y-23000000D03*
X118200000Y-22000001D03*
X119200000Y-24000001D03*
X119200000Y-23000001D03*
X119200000Y-22000001D03*
G04 #@! TD*
D12*
G04 #@! TO.C,REF\002A\002A*
X103500000Y-18500000D03*
G04 #@! TD*
M02*
