G04 #@! TF.GenerationSoftware,KiCad,Pcbnew,(5.0.0)*
G04 #@! TF.CreationDate,2018-11-03T20:55:02-02:30*
G04 #@! TF.ProjectId,Power Distribution Board,506F7765722044697374726962757469,rev?*
G04 #@! TF.SameCoordinates,Original*
G04 #@! TF.FileFunction,Soldermask,Top*
G04 #@! TF.FilePolarity,Negative*
%FSLAX46Y46*%
G04 Gerber Fmt 4.6, Leading zero omitted, Abs format (unit mm)*
G04 Created by KiCad (PCBNEW (5.0.0)) date 11/03/18 20:55:02*
%MOMM*%
%LPD*%
G01*
G04 APERTURE LIST*
%ADD10R,1.650000X1.400000*%
%ADD11R,1.200000X1.150000*%
%ADD12R,1.400000X1.400000*%
%ADD13O,1.400000X1.400000*%
%ADD14C,1.400000*%
%ADD15C,0.100000*%
%ADD16R,1.540000X2.430000*%
%ADD17C,6.400000*%
%ADD18R,1.150000X1.200000*%
%ADD19C,1.150000*%
%ADD20R,1.600000X1.600000*%
%ADD21C,3.600000*%
%ADD22R,2.203200X2.703200*%
%ADD23R,2.203200X3.503200*%
%ADD24R,0.703200X3.303200*%
%ADD25R,1.100000X1.700000*%
%ADD26R,0.900000X1.300000*%
%ADD27R,1.300000X0.900000*%
%ADD28R,2.400000X2.000000*%
%ADD29R,1.250000X0.700000*%
%ADD30R,0.700000X1.250000*%
%ADD31C,1.200000*%
%ADD32R,1.460000X1.050000*%
%ADD33R,0.420000X0.990000*%
%ADD34R,0.990000X0.420000*%
%ADD35C,0.400000*%
%ADD36R,3.850000X3.850000*%
G04 APERTURE END LIST*
D10*
G04 #@! TO.C,C26*
X146100000Y-30950000D03*
X146100000Y-28950000D03*
G04 #@! TD*
D11*
G04 #@! TO.C,C31*
X112850000Y-24700000D03*
X111350000Y-24700000D03*
G04 #@! TD*
D12*
G04 #@! TO.C,J29*
X119650000Y-18250000D03*
D13*
X119650000Y-16980000D03*
X120920000Y-18250000D03*
X120920000Y-16980000D03*
X122190000Y-18250000D03*
X122190000Y-16980000D03*
X123460000Y-18250000D03*
X123460000Y-16980000D03*
X124730000Y-18250000D03*
X124730000Y-16980000D03*
G04 #@! TD*
D14*
G04 #@! TO.C,Y1*
X112916117Y-19483883D03*
D15*
G36*
X113198960Y-20756675D02*
X111643325Y-19201040D01*
X112633274Y-18211091D01*
X114188909Y-19766726D01*
X113198960Y-20756675D01*
X113198960Y-20756675D01*
G37*
D14*
X114683883Y-17716117D03*
D15*
G36*
X114966726Y-18988909D02*
X113411091Y-17433274D01*
X114401040Y-16443325D01*
X115956675Y-17998960D01*
X114966726Y-18988909D01*
X114966726Y-18988909D01*
G37*
G04 #@! TD*
D16*
G04 #@! TO.C,F1*
X150550000Y-27050000D03*
X152950000Y-27050000D03*
G04 #@! TD*
D17*
G04 #@! TO.C,REF\002A\002A*
X103500000Y-96500000D03*
G04 #@! TD*
G04 #@! TO.C,REF\002A\002A*
X156500000Y-96500000D03*
G04 #@! TD*
G04 #@! TO.C,REF\002A\002A*
X156500000Y-18500000D03*
G04 #@! TD*
D11*
G04 #@! TO.C,C1*
X112750000Y-57000000D03*
X114250000Y-57000000D03*
G04 #@! TD*
G04 #@! TO.C,C4*
X122250000Y-48000000D03*
X123750000Y-48000000D03*
G04 #@! TD*
G04 #@! TO.C,C5*
X112750000Y-66000000D03*
X114250000Y-66000000D03*
G04 #@! TD*
G04 #@! TO.C,C6*
X122250000Y-57000000D03*
X123750000Y-57000000D03*
G04 #@! TD*
G04 #@! TO.C,C7*
X112750000Y-75000000D03*
X114250000Y-75000000D03*
G04 #@! TD*
G04 #@! TO.C,C12*
X123750000Y-66000000D03*
X122250000Y-66000000D03*
G04 #@! TD*
G04 #@! TO.C,C13*
X114250000Y-84000000D03*
X112750000Y-84000000D03*
G04 #@! TD*
G04 #@! TO.C,C14*
X123750000Y-75000000D03*
X122250000Y-75000000D03*
G04 #@! TD*
G04 #@! TO.C,C15*
X114250000Y-93000000D03*
X112750000Y-93000000D03*
G04 #@! TD*
G04 #@! TO.C,C16*
X122250000Y-84000000D03*
X123750000Y-84000000D03*
G04 #@! TD*
D18*
G04 #@! TO.C,C21*
X148000000Y-31350000D03*
X148000000Y-29850000D03*
G04 #@! TD*
D11*
G04 #@! TO.C,C22*
X111350000Y-21900000D03*
X112850000Y-21900000D03*
G04 #@! TD*
D18*
G04 #@! TO.C,C23*
X120350000Y-29550000D03*
X120350000Y-28050000D03*
G04 #@! TD*
D10*
G04 #@! TO.C,C24*
X135520000Y-30620000D03*
X135520000Y-32620000D03*
G04 #@! TD*
D11*
G04 #@! TO.C,C25*
X112850000Y-23300000D03*
X111350000Y-23300000D03*
G04 #@! TD*
D18*
G04 #@! TO.C,C27*
X137350000Y-32100000D03*
X137350000Y-30600000D03*
G04 #@! TD*
G04 #@! TO.C,C28*
X119000000Y-28050000D03*
X119000000Y-29550000D03*
G04 #@! TD*
G04 #@! TO.C,C29*
X149500000Y-29850000D03*
X149500000Y-31350000D03*
G04 #@! TD*
G04 #@! TO.C,C30*
X138700000Y-28150000D03*
X138700000Y-26650000D03*
G04 #@! TD*
D10*
G04 #@! TO.C,C32*
X125400000Y-36450000D03*
X125400000Y-34450000D03*
G04 #@! TD*
D18*
G04 #@! TO.C,C33*
X117700000Y-28050000D03*
X117700000Y-29550000D03*
G04 #@! TD*
G04 #@! TO.C,C34*
X127300000Y-35950000D03*
X127300000Y-34450000D03*
G04 #@! TD*
D11*
G04 #@! TO.C,C35*
X112850000Y-26100000D03*
X111350000Y-26100000D03*
G04 #@! TD*
D18*
G04 #@! TO.C,C36*
X116350000Y-29550000D03*
X116350000Y-28050000D03*
G04 #@! TD*
D19*
G04 #@! TO.C,C37*
X113530330Y-15969670D03*
D15*
G36*
X113512652Y-16800520D02*
X112699480Y-15987348D01*
X113548008Y-15138820D01*
X114361180Y-15951992D01*
X113512652Y-16800520D01*
X113512652Y-16800520D01*
G37*
D19*
X112469670Y-17030330D03*
D15*
G36*
X112451992Y-17861180D02*
X111638820Y-17048008D01*
X112487348Y-16199480D01*
X113300520Y-17012652D01*
X112451992Y-17861180D01*
X112451992Y-17861180D01*
G37*
G04 #@! TD*
D19*
G04 #@! TO.C,C38*
X111200000Y-18200000D03*
D15*
G36*
X111217678Y-17369150D02*
X112030850Y-18182322D01*
X111182322Y-19030850D01*
X110369150Y-18217678D01*
X111217678Y-17369150D01*
X111217678Y-17369150D01*
G37*
D19*
X110139340Y-19260660D03*
D15*
G36*
X110157018Y-18429810D02*
X110970190Y-19242982D01*
X110121662Y-20091510D01*
X109308490Y-19278338D01*
X110157018Y-18429810D01*
X110157018Y-18429810D01*
G37*
G04 #@! TD*
D11*
G04 #@! TO.C,C39*
X112900000Y-27400000D03*
X111400000Y-27400000D03*
G04 #@! TD*
G04 #@! TO.C,C40*
X111450000Y-28800000D03*
X112950000Y-28800000D03*
G04 #@! TD*
D18*
G04 #@! TO.C,C41*
X122750000Y-22650000D03*
X122750000Y-24150000D03*
G04 #@! TD*
D20*
G04 #@! TO.C,D1*
X106000000Y-26150000D03*
X106000000Y-28350000D03*
G04 #@! TD*
G04 #@! TO.C,D2*
X157650000Y-27800000D03*
X157650000Y-30000000D03*
G04 #@! TD*
G04 #@! TO.C,D3*
X137110000Y-24790000D03*
X137110000Y-22590000D03*
G04 #@! TD*
G04 #@! TO.C,D4*
X122600000Y-25900000D03*
X124800000Y-25900000D03*
G04 #@! TD*
D21*
G04 #@! TO.C,J1*
X109255000Y-41000000D03*
X102245000Y-41000000D03*
X102245000Y-46000000D03*
X109255000Y-46000000D03*
G04 #@! TD*
G04 #@! TO.C,J2*
X102245000Y-37000000D03*
X109255000Y-37000000D03*
X109255000Y-32000000D03*
X102245000Y-32000000D03*
G04 #@! TD*
G04 #@! TO.C,J3*
X127245000Y-41000000D03*
X134255000Y-41000000D03*
X134255000Y-46000000D03*
X127245000Y-46000000D03*
G04 #@! TD*
G04 #@! TO.C,J4*
X150745000Y-64750000D03*
X157755000Y-64750000D03*
X157755000Y-59750000D03*
X150745000Y-59750000D03*
G04 #@! TD*
G04 #@! TO.C,J5*
X139745000Y-68500000D03*
X146755000Y-68500000D03*
X146755000Y-73500000D03*
X139745000Y-73500000D03*
G04 #@! TD*
G04 #@! TO.C,J6*
X139745000Y-64750000D03*
X146755000Y-64750000D03*
X146755000Y-59750000D03*
X139745000Y-59750000D03*
G04 #@! TD*
G04 #@! TO.C,J7*
X150745000Y-42250000D03*
X157755000Y-42250000D03*
X157755000Y-47250000D03*
X150745000Y-47250000D03*
G04 #@! TD*
G04 #@! TO.C,J8*
X150745000Y-38500000D03*
X157755000Y-38500000D03*
X157755000Y-33500000D03*
X150745000Y-33500000D03*
G04 #@! TD*
G04 #@! TO.C,J9*
X139745000Y-77250000D03*
X146755000Y-77250000D03*
X146755000Y-82250000D03*
X139745000Y-82250000D03*
G04 #@! TD*
G04 #@! TO.C,J10*
X139745000Y-56000000D03*
X146755000Y-56000000D03*
X146755000Y-51000000D03*
X139745000Y-51000000D03*
G04 #@! TD*
G04 #@! TO.C,J11*
X150745000Y-51000000D03*
X157755000Y-51000000D03*
X157755000Y-56000000D03*
X150745000Y-56000000D03*
G04 #@! TD*
G04 #@! TO.C,J12*
X139745000Y-38500000D03*
X146755000Y-38500000D03*
X146755000Y-33500000D03*
X139745000Y-33500000D03*
G04 #@! TD*
G04 #@! TO.C,J13*
X150745000Y-77250000D03*
X157755000Y-77250000D03*
X157755000Y-82250000D03*
X150745000Y-82250000D03*
G04 #@! TD*
G04 #@! TO.C,J14*
X150745000Y-73500000D03*
X157755000Y-73500000D03*
X157755000Y-68500000D03*
X150745000Y-68500000D03*
G04 #@! TD*
G04 #@! TO.C,J15*
X139745000Y-86000000D03*
X146755000Y-86000000D03*
X146755000Y-91000000D03*
X139745000Y-91000000D03*
G04 #@! TD*
G04 #@! TO.C,J16*
X139745000Y-47250000D03*
X146755000Y-47250000D03*
X146755000Y-42250000D03*
X139745000Y-42250000D03*
G04 #@! TD*
G04 #@! TO.C,J17*
X150745000Y-86000000D03*
X157755000Y-86000000D03*
X157755000Y-91000000D03*
X150745000Y-91000000D03*
G04 #@! TD*
G04 #@! TO.C,J18*
X102245000Y-55000000D03*
X109255000Y-55000000D03*
X109255000Y-50000000D03*
X102245000Y-50000000D03*
G04 #@! TD*
G04 #@! TO.C,J19*
X127245000Y-50000000D03*
X134255000Y-50000000D03*
X134255000Y-55000000D03*
X127245000Y-55000000D03*
G04 #@! TD*
G04 #@! TO.C,J20*
X102245000Y-64000000D03*
X109255000Y-64000000D03*
X109255000Y-59000000D03*
X102245000Y-59000000D03*
G04 #@! TD*
G04 #@! TO.C,J21*
X127245000Y-59000000D03*
X134255000Y-59000000D03*
X134255000Y-64000000D03*
X127245000Y-64000000D03*
G04 #@! TD*
G04 #@! TO.C,J22*
X102245000Y-73000000D03*
X109255000Y-73000000D03*
X109255000Y-68000000D03*
X102245000Y-68000000D03*
G04 #@! TD*
G04 #@! TO.C,J23*
X127245000Y-68000000D03*
X134255000Y-68000000D03*
X134255000Y-73000000D03*
X127245000Y-73000000D03*
G04 #@! TD*
G04 #@! TO.C,J24*
X102245000Y-82000000D03*
X109255000Y-82000000D03*
X109255000Y-77000000D03*
X102245000Y-77000000D03*
G04 #@! TD*
G04 #@! TO.C,J25*
X134255000Y-77000000D03*
X127245000Y-77000000D03*
X127245000Y-82000000D03*
X134255000Y-82000000D03*
G04 #@! TD*
G04 #@! TO.C,J26*
X102245000Y-86000000D03*
X109255000Y-86000000D03*
X109255000Y-91000000D03*
X102245000Y-91000000D03*
G04 #@! TD*
G04 #@! TO.C,J27*
X127245000Y-86000000D03*
X134255000Y-86000000D03*
X134255000Y-91000000D03*
X127245000Y-91000000D03*
G04 #@! TD*
D22*
G04 #@! TO.C,J28*
X142550000Y-18000000D03*
X151450000Y-18000000D03*
D23*
X142550000Y-23900000D03*
X151450000Y-23900000D03*
D24*
X148600000Y-24000000D03*
X147800000Y-24000000D03*
X147000000Y-24000000D03*
X146200000Y-24000000D03*
X145400000Y-24000000D03*
G04 #@! TD*
D25*
G04 #@! TO.C,L1*
X150800000Y-29300000D03*
X152700000Y-29300000D03*
G04 #@! TD*
G04 #@! TO.C,L2*
X129200000Y-32450000D03*
X127300000Y-32450000D03*
G04 #@! TD*
D26*
G04 #@! TO.C,R1*
X104250000Y-28500000D03*
X102750000Y-28500000D03*
G04 #@! TD*
D27*
G04 #@! TO.C,R12*
X155300000Y-29200000D03*
X155300000Y-27700000D03*
G04 #@! TD*
G04 #@! TO.C,R13*
X137150000Y-28250000D03*
X137150000Y-26750000D03*
G04 #@! TD*
G04 #@! TO.C,R14*
X124750000Y-22650000D03*
X124750000Y-24150000D03*
G04 #@! TD*
G04 #@! TO.C,R15*
X132220000Y-23440000D03*
X132220000Y-21940000D03*
G04 #@! TD*
D28*
G04 #@! TO.C,SW1*
X137550000Y-17650000D03*
X132150000Y-17650000D03*
G04 #@! TD*
D29*
G04 #@! TO.C,U1*
X115000000Y-54250000D03*
X115000000Y-54750000D03*
D30*
X113750000Y-55500000D03*
X113250000Y-55500000D03*
X114250000Y-55500000D03*
X112750000Y-55500000D03*
D29*
X112000000Y-54750000D03*
X112000000Y-54250000D03*
D15*
G36*
X114437643Y-51815867D02*
X114455116Y-51818459D01*
X114472251Y-51822751D01*
X114488883Y-51828702D01*
X114504851Y-51836254D01*
X114520003Y-51845335D01*
X114534191Y-51855858D01*
X114547279Y-51867721D01*
X114559142Y-51880809D01*
X114569665Y-51894997D01*
X114578746Y-51910149D01*
X114586298Y-51926117D01*
X114592249Y-51942749D01*
X114596541Y-51959884D01*
X114599133Y-51977357D01*
X114600000Y-51995000D01*
X114600000Y-53305000D01*
X114599133Y-53322643D01*
X114596541Y-53340116D01*
X114592249Y-53357251D01*
X114586298Y-53373883D01*
X114578746Y-53389851D01*
X114569665Y-53405003D01*
X114559142Y-53419191D01*
X114547279Y-53432279D01*
X114534191Y-53444142D01*
X114520003Y-53454665D01*
X114504851Y-53463746D01*
X114488883Y-53471298D01*
X114472251Y-53477249D01*
X114455116Y-53481541D01*
X114437643Y-53484133D01*
X114420000Y-53485000D01*
X113580000Y-53485000D01*
X113562357Y-53484133D01*
X113544884Y-53481541D01*
X113527749Y-53477249D01*
X113511117Y-53471298D01*
X113495149Y-53463746D01*
X113479997Y-53454665D01*
X113465809Y-53444142D01*
X113452721Y-53432279D01*
X113440858Y-53419191D01*
X113430335Y-53405003D01*
X113421254Y-53389851D01*
X113413702Y-53373883D01*
X113407751Y-53357251D01*
X113403459Y-53340116D01*
X113400867Y-53322643D01*
X113400000Y-53305000D01*
X113400000Y-51995000D01*
X113400867Y-51977357D01*
X113403459Y-51959884D01*
X113407751Y-51942749D01*
X113413702Y-51926117D01*
X113421254Y-51910149D01*
X113430335Y-51894997D01*
X113440858Y-51880809D01*
X113452721Y-51867721D01*
X113465809Y-51855858D01*
X113479997Y-51845335D01*
X113495149Y-51836254D01*
X113511117Y-51828702D01*
X113527749Y-51822751D01*
X113544884Y-51818459D01*
X113562357Y-51815867D01*
X113580000Y-51815000D01*
X114420000Y-51815000D01*
X114437643Y-51815867D01*
X114437643Y-51815867D01*
G37*
D31*
X114000000Y-52650000D03*
D15*
G36*
X113437643Y-51815867D02*
X113455116Y-51818459D01*
X113472251Y-51822751D01*
X113488883Y-51828702D01*
X113504851Y-51836254D01*
X113520003Y-51845335D01*
X113534191Y-51855858D01*
X113547279Y-51867721D01*
X113559142Y-51880809D01*
X113569665Y-51894997D01*
X113578746Y-51910149D01*
X113586298Y-51926117D01*
X113592249Y-51942749D01*
X113596541Y-51959884D01*
X113599133Y-51977357D01*
X113600000Y-51995000D01*
X113600000Y-53305000D01*
X113599133Y-53322643D01*
X113596541Y-53340116D01*
X113592249Y-53357251D01*
X113586298Y-53373883D01*
X113578746Y-53389851D01*
X113569665Y-53405003D01*
X113559142Y-53419191D01*
X113547279Y-53432279D01*
X113534191Y-53444142D01*
X113520003Y-53454665D01*
X113504851Y-53463746D01*
X113488883Y-53471298D01*
X113472251Y-53477249D01*
X113455116Y-53481541D01*
X113437643Y-53484133D01*
X113420000Y-53485000D01*
X112580000Y-53485000D01*
X112562357Y-53484133D01*
X112544884Y-53481541D01*
X112527749Y-53477249D01*
X112511117Y-53471298D01*
X112495149Y-53463746D01*
X112479997Y-53454665D01*
X112465809Y-53444142D01*
X112452721Y-53432279D01*
X112440858Y-53419191D01*
X112430335Y-53405003D01*
X112421254Y-53389851D01*
X112413702Y-53373883D01*
X112407751Y-53357251D01*
X112403459Y-53340116D01*
X112400867Y-53322643D01*
X112400000Y-53305000D01*
X112400000Y-51995000D01*
X112400867Y-51977357D01*
X112403459Y-51959884D01*
X112407751Y-51942749D01*
X112413702Y-51926117D01*
X112421254Y-51910149D01*
X112430335Y-51894997D01*
X112440858Y-51880809D01*
X112452721Y-51867721D01*
X112465809Y-51855858D01*
X112479997Y-51845335D01*
X112495149Y-51836254D01*
X112511117Y-51828702D01*
X112527749Y-51822751D01*
X112544884Y-51818459D01*
X112562357Y-51815867D01*
X112580000Y-51815000D01*
X113420000Y-51815000D01*
X113437643Y-51815867D01*
X113437643Y-51815867D01*
G37*
D31*
X113000000Y-52650000D03*
G04 #@! TD*
D15*
G04 #@! TO.C,U2*
G36*
X123937643Y-51515867D02*
X123955116Y-51518459D01*
X123972251Y-51522751D01*
X123988883Y-51528702D01*
X124004851Y-51536254D01*
X124020003Y-51545335D01*
X124034191Y-51555858D01*
X124047279Y-51567721D01*
X124059142Y-51580809D01*
X124069665Y-51594997D01*
X124078746Y-51610149D01*
X124086298Y-51626117D01*
X124092249Y-51642749D01*
X124096541Y-51659884D01*
X124099133Y-51677357D01*
X124100000Y-51695000D01*
X124100000Y-53005000D01*
X124099133Y-53022643D01*
X124096541Y-53040116D01*
X124092249Y-53057251D01*
X124086298Y-53073883D01*
X124078746Y-53089851D01*
X124069665Y-53105003D01*
X124059142Y-53119191D01*
X124047279Y-53132279D01*
X124034191Y-53144142D01*
X124020003Y-53154665D01*
X124004851Y-53163746D01*
X123988883Y-53171298D01*
X123972251Y-53177249D01*
X123955116Y-53181541D01*
X123937643Y-53184133D01*
X123920000Y-53185000D01*
X123080000Y-53185000D01*
X123062357Y-53184133D01*
X123044884Y-53181541D01*
X123027749Y-53177249D01*
X123011117Y-53171298D01*
X122995149Y-53163746D01*
X122979997Y-53154665D01*
X122965809Y-53144142D01*
X122952721Y-53132279D01*
X122940858Y-53119191D01*
X122930335Y-53105003D01*
X122921254Y-53089851D01*
X122913702Y-53073883D01*
X122907751Y-53057251D01*
X122903459Y-53040116D01*
X122900867Y-53022643D01*
X122900000Y-53005000D01*
X122900000Y-51695000D01*
X122900867Y-51677357D01*
X122903459Y-51659884D01*
X122907751Y-51642749D01*
X122913702Y-51626117D01*
X122921254Y-51610149D01*
X122930335Y-51594997D01*
X122940858Y-51580809D01*
X122952721Y-51567721D01*
X122965809Y-51555858D01*
X122979997Y-51545335D01*
X122995149Y-51536254D01*
X123011117Y-51528702D01*
X123027749Y-51522751D01*
X123044884Y-51518459D01*
X123062357Y-51515867D01*
X123080000Y-51515000D01*
X123920000Y-51515000D01*
X123937643Y-51515867D01*
X123937643Y-51515867D01*
G37*
D31*
X123500000Y-52350000D03*
D15*
G36*
X122937643Y-51515867D02*
X122955116Y-51518459D01*
X122972251Y-51522751D01*
X122988883Y-51528702D01*
X123004851Y-51536254D01*
X123020003Y-51545335D01*
X123034191Y-51555858D01*
X123047279Y-51567721D01*
X123059142Y-51580809D01*
X123069665Y-51594997D01*
X123078746Y-51610149D01*
X123086298Y-51626117D01*
X123092249Y-51642749D01*
X123096541Y-51659884D01*
X123099133Y-51677357D01*
X123100000Y-51695000D01*
X123100000Y-53005000D01*
X123099133Y-53022643D01*
X123096541Y-53040116D01*
X123092249Y-53057251D01*
X123086298Y-53073883D01*
X123078746Y-53089851D01*
X123069665Y-53105003D01*
X123059142Y-53119191D01*
X123047279Y-53132279D01*
X123034191Y-53144142D01*
X123020003Y-53154665D01*
X123004851Y-53163746D01*
X122988883Y-53171298D01*
X122972251Y-53177249D01*
X122955116Y-53181541D01*
X122937643Y-53184133D01*
X122920000Y-53185000D01*
X122080000Y-53185000D01*
X122062357Y-53184133D01*
X122044884Y-53181541D01*
X122027749Y-53177249D01*
X122011117Y-53171298D01*
X121995149Y-53163746D01*
X121979997Y-53154665D01*
X121965809Y-53144142D01*
X121952721Y-53132279D01*
X121940858Y-53119191D01*
X121930335Y-53105003D01*
X121921254Y-53089851D01*
X121913702Y-53073883D01*
X121907751Y-53057251D01*
X121903459Y-53040116D01*
X121900867Y-53022643D01*
X121900000Y-53005000D01*
X121900000Y-51695000D01*
X121900867Y-51677357D01*
X121903459Y-51659884D01*
X121907751Y-51642749D01*
X121913702Y-51626117D01*
X121921254Y-51610149D01*
X121930335Y-51594997D01*
X121940858Y-51580809D01*
X121952721Y-51567721D01*
X121965809Y-51555858D01*
X121979997Y-51545335D01*
X121995149Y-51536254D01*
X122011117Y-51528702D01*
X122027749Y-51522751D01*
X122044884Y-51518459D01*
X122062357Y-51515867D01*
X122080000Y-51515000D01*
X122920000Y-51515000D01*
X122937643Y-51515867D01*
X122937643Y-51515867D01*
G37*
D31*
X122500000Y-52350000D03*
D29*
X124500000Y-50750000D03*
X124500000Y-50250000D03*
D30*
X123750000Y-49500000D03*
X122250000Y-49500000D03*
X123250000Y-49500000D03*
X122750000Y-49500000D03*
D29*
X121500000Y-50250000D03*
X121500000Y-50750000D03*
G04 #@! TD*
D15*
G04 #@! TO.C,U3*
G36*
X113437643Y-60815867D02*
X113455116Y-60818459D01*
X113472251Y-60822751D01*
X113488883Y-60828702D01*
X113504851Y-60836254D01*
X113520003Y-60845335D01*
X113534191Y-60855858D01*
X113547279Y-60867721D01*
X113559142Y-60880809D01*
X113569665Y-60894997D01*
X113578746Y-60910149D01*
X113586298Y-60926117D01*
X113592249Y-60942749D01*
X113596541Y-60959884D01*
X113599133Y-60977357D01*
X113600000Y-60995000D01*
X113600000Y-62305000D01*
X113599133Y-62322643D01*
X113596541Y-62340116D01*
X113592249Y-62357251D01*
X113586298Y-62373883D01*
X113578746Y-62389851D01*
X113569665Y-62405003D01*
X113559142Y-62419191D01*
X113547279Y-62432279D01*
X113534191Y-62444142D01*
X113520003Y-62454665D01*
X113504851Y-62463746D01*
X113488883Y-62471298D01*
X113472251Y-62477249D01*
X113455116Y-62481541D01*
X113437643Y-62484133D01*
X113420000Y-62485000D01*
X112580000Y-62485000D01*
X112562357Y-62484133D01*
X112544884Y-62481541D01*
X112527749Y-62477249D01*
X112511117Y-62471298D01*
X112495149Y-62463746D01*
X112479997Y-62454665D01*
X112465809Y-62444142D01*
X112452721Y-62432279D01*
X112440858Y-62419191D01*
X112430335Y-62405003D01*
X112421254Y-62389851D01*
X112413702Y-62373883D01*
X112407751Y-62357251D01*
X112403459Y-62340116D01*
X112400867Y-62322643D01*
X112400000Y-62305000D01*
X112400000Y-60995000D01*
X112400867Y-60977357D01*
X112403459Y-60959884D01*
X112407751Y-60942749D01*
X112413702Y-60926117D01*
X112421254Y-60910149D01*
X112430335Y-60894997D01*
X112440858Y-60880809D01*
X112452721Y-60867721D01*
X112465809Y-60855858D01*
X112479997Y-60845335D01*
X112495149Y-60836254D01*
X112511117Y-60828702D01*
X112527749Y-60822751D01*
X112544884Y-60818459D01*
X112562357Y-60815867D01*
X112580000Y-60815000D01*
X113420000Y-60815000D01*
X113437643Y-60815867D01*
X113437643Y-60815867D01*
G37*
D31*
X113000000Y-61650000D03*
D15*
G36*
X114437643Y-60815867D02*
X114455116Y-60818459D01*
X114472251Y-60822751D01*
X114488883Y-60828702D01*
X114504851Y-60836254D01*
X114520003Y-60845335D01*
X114534191Y-60855858D01*
X114547279Y-60867721D01*
X114559142Y-60880809D01*
X114569665Y-60894997D01*
X114578746Y-60910149D01*
X114586298Y-60926117D01*
X114592249Y-60942749D01*
X114596541Y-60959884D01*
X114599133Y-60977357D01*
X114600000Y-60995000D01*
X114600000Y-62305000D01*
X114599133Y-62322643D01*
X114596541Y-62340116D01*
X114592249Y-62357251D01*
X114586298Y-62373883D01*
X114578746Y-62389851D01*
X114569665Y-62405003D01*
X114559142Y-62419191D01*
X114547279Y-62432279D01*
X114534191Y-62444142D01*
X114520003Y-62454665D01*
X114504851Y-62463746D01*
X114488883Y-62471298D01*
X114472251Y-62477249D01*
X114455116Y-62481541D01*
X114437643Y-62484133D01*
X114420000Y-62485000D01*
X113580000Y-62485000D01*
X113562357Y-62484133D01*
X113544884Y-62481541D01*
X113527749Y-62477249D01*
X113511117Y-62471298D01*
X113495149Y-62463746D01*
X113479997Y-62454665D01*
X113465809Y-62444142D01*
X113452721Y-62432279D01*
X113440858Y-62419191D01*
X113430335Y-62405003D01*
X113421254Y-62389851D01*
X113413702Y-62373883D01*
X113407751Y-62357251D01*
X113403459Y-62340116D01*
X113400867Y-62322643D01*
X113400000Y-62305000D01*
X113400000Y-60995000D01*
X113400867Y-60977357D01*
X113403459Y-60959884D01*
X113407751Y-60942749D01*
X113413702Y-60926117D01*
X113421254Y-60910149D01*
X113430335Y-60894997D01*
X113440858Y-60880809D01*
X113452721Y-60867721D01*
X113465809Y-60855858D01*
X113479997Y-60845335D01*
X113495149Y-60836254D01*
X113511117Y-60828702D01*
X113527749Y-60822751D01*
X113544884Y-60818459D01*
X113562357Y-60815867D01*
X113580000Y-60815000D01*
X114420000Y-60815000D01*
X114437643Y-60815867D01*
X114437643Y-60815867D01*
G37*
D31*
X114000000Y-61650000D03*
D29*
X112000000Y-63250000D03*
X112000000Y-63750000D03*
D30*
X112750000Y-64500000D03*
X114250000Y-64500000D03*
X113250000Y-64500000D03*
X113750000Y-64500000D03*
D29*
X115000000Y-63750000D03*
X115000000Y-63250000D03*
G04 #@! TD*
G04 #@! TO.C,U4*
X121500000Y-59750000D03*
X121500000Y-59250000D03*
D30*
X122750000Y-58500000D03*
X123250000Y-58500000D03*
X122250000Y-58500000D03*
X123750000Y-58500000D03*
D29*
X124500000Y-59250000D03*
X124500000Y-59750000D03*
D15*
G36*
X122937643Y-60515867D02*
X122955116Y-60518459D01*
X122972251Y-60522751D01*
X122988883Y-60528702D01*
X123004851Y-60536254D01*
X123020003Y-60545335D01*
X123034191Y-60555858D01*
X123047279Y-60567721D01*
X123059142Y-60580809D01*
X123069665Y-60594997D01*
X123078746Y-60610149D01*
X123086298Y-60626117D01*
X123092249Y-60642749D01*
X123096541Y-60659884D01*
X123099133Y-60677357D01*
X123100000Y-60695000D01*
X123100000Y-62005000D01*
X123099133Y-62022643D01*
X123096541Y-62040116D01*
X123092249Y-62057251D01*
X123086298Y-62073883D01*
X123078746Y-62089851D01*
X123069665Y-62105003D01*
X123059142Y-62119191D01*
X123047279Y-62132279D01*
X123034191Y-62144142D01*
X123020003Y-62154665D01*
X123004851Y-62163746D01*
X122988883Y-62171298D01*
X122972251Y-62177249D01*
X122955116Y-62181541D01*
X122937643Y-62184133D01*
X122920000Y-62185000D01*
X122080000Y-62185000D01*
X122062357Y-62184133D01*
X122044884Y-62181541D01*
X122027749Y-62177249D01*
X122011117Y-62171298D01*
X121995149Y-62163746D01*
X121979997Y-62154665D01*
X121965809Y-62144142D01*
X121952721Y-62132279D01*
X121940858Y-62119191D01*
X121930335Y-62105003D01*
X121921254Y-62089851D01*
X121913702Y-62073883D01*
X121907751Y-62057251D01*
X121903459Y-62040116D01*
X121900867Y-62022643D01*
X121900000Y-62005000D01*
X121900000Y-60695000D01*
X121900867Y-60677357D01*
X121903459Y-60659884D01*
X121907751Y-60642749D01*
X121913702Y-60626117D01*
X121921254Y-60610149D01*
X121930335Y-60594997D01*
X121940858Y-60580809D01*
X121952721Y-60567721D01*
X121965809Y-60555858D01*
X121979997Y-60545335D01*
X121995149Y-60536254D01*
X122011117Y-60528702D01*
X122027749Y-60522751D01*
X122044884Y-60518459D01*
X122062357Y-60515867D01*
X122080000Y-60515000D01*
X122920000Y-60515000D01*
X122937643Y-60515867D01*
X122937643Y-60515867D01*
G37*
D31*
X122500000Y-61350000D03*
D15*
G36*
X123937643Y-60515867D02*
X123955116Y-60518459D01*
X123972251Y-60522751D01*
X123988883Y-60528702D01*
X124004851Y-60536254D01*
X124020003Y-60545335D01*
X124034191Y-60555858D01*
X124047279Y-60567721D01*
X124059142Y-60580809D01*
X124069665Y-60594997D01*
X124078746Y-60610149D01*
X124086298Y-60626117D01*
X124092249Y-60642749D01*
X124096541Y-60659884D01*
X124099133Y-60677357D01*
X124100000Y-60695000D01*
X124100000Y-62005000D01*
X124099133Y-62022643D01*
X124096541Y-62040116D01*
X124092249Y-62057251D01*
X124086298Y-62073883D01*
X124078746Y-62089851D01*
X124069665Y-62105003D01*
X124059142Y-62119191D01*
X124047279Y-62132279D01*
X124034191Y-62144142D01*
X124020003Y-62154665D01*
X124004851Y-62163746D01*
X123988883Y-62171298D01*
X123972251Y-62177249D01*
X123955116Y-62181541D01*
X123937643Y-62184133D01*
X123920000Y-62185000D01*
X123080000Y-62185000D01*
X123062357Y-62184133D01*
X123044884Y-62181541D01*
X123027749Y-62177249D01*
X123011117Y-62171298D01*
X122995149Y-62163746D01*
X122979997Y-62154665D01*
X122965809Y-62144142D01*
X122952721Y-62132279D01*
X122940858Y-62119191D01*
X122930335Y-62105003D01*
X122921254Y-62089851D01*
X122913702Y-62073883D01*
X122907751Y-62057251D01*
X122903459Y-62040116D01*
X122900867Y-62022643D01*
X122900000Y-62005000D01*
X122900000Y-60695000D01*
X122900867Y-60677357D01*
X122903459Y-60659884D01*
X122907751Y-60642749D01*
X122913702Y-60626117D01*
X122921254Y-60610149D01*
X122930335Y-60594997D01*
X122940858Y-60580809D01*
X122952721Y-60567721D01*
X122965809Y-60555858D01*
X122979997Y-60545335D01*
X122995149Y-60536254D01*
X123011117Y-60528702D01*
X123027749Y-60522751D01*
X123044884Y-60518459D01*
X123062357Y-60515867D01*
X123080000Y-60515000D01*
X123920000Y-60515000D01*
X123937643Y-60515867D01*
X123937643Y-60515867D01*
G37*
D31*
X123500000Y-61350000D03*
G04 #@! TD*
D15*
G04 #@! TO.C,U5*
G36*
X113437643Y-69815867D02*
X113455116Y-69818459D01*
X113472251Y-69822751D01*
X113488883Y-69828702D01*
X113504851Y-69836254D01*
X113520003Y-69845335D01*
X113534191Y-69855858D01*
X113547279Y-69867721D01*
X113559142Y-69880809D01*
X113569665Y-69894997D01*
X113578746Y-69910149D01*
X113586298Y-69926117D01*
X113592249Y-69942749D01*
X113596541Y-69959884D01*
X113599133Y-69977357D01*
X113600000Y-69995000D01*
X113600000Y-71305000D01*
X113599133Y-71322643D01*
X113596541Y-71340116D01*
X113592249Y-71357251D01*
X113586298Y-71373883D01*
X113578746Y-71389851D01*
X113569665Y-71405003D01*
X113559142Y-71419191D01*
X113547279Y-71432279D01*
X113534191Y-71444142D01*
X113520003Y-71454665D01*
X113504851Y-71463746D01*
X113488883Y-71471298D01*
X113472251Y-71477249D01*
X113455116Y-71481541D01*
X113437643Y-71484133D01*
X113420000Y-71485000D01*
X112580000Y-71485000D01*
X112562357Y-71484133D01*
X112544884Y-71481541D01*
X112527749Y-71477249D01*
X112511117Y-71471298D01*
X112495149Y-71463746D01*
X112479997Y-71454665D01*
X112465809Y-71444142D01*
X112452721Y-71432279D01*
X112440858Y-71419191D01*
X112430335Y-71405003D01*
X112421254Y-71389851D01*
X112413702Y-71373883D01*
X112407751Y-71357251D01*
X112403459Y-71340116D01*
X112400867Y-71322643D01*
X112400000Y-71305000D01*
X112400000Y-69995000D01*
X112400867Y-69977357D01*
X112403459Y-69959884D01*
X112407751Y-69942749D01*
X112413702Y-69926117D01*
X112421254Y-69910149D01*
X112430335Y-69894997D01*
X112440858Y-69880809D01*
X112452721Y-69867721D01*
X112465809Y-69855858D01*
X112479997Y-69845335D01*
X112495149Y-69836254D01*
X112511117Y-69828702D01*
X112527749Y-69822751D01*
X112544884Y-69818459D01*
X112562357Y-69815867D01*
X112580000Y-69815000D01*
X113420000Y-69815000D01*
X113437643Y-69815867D01*
X113437643Y-69815867D01*
G37*
D31*
X113000000Y-70650000D03*
D15*
G36*
X114437643Y-69815867D02*
X114455116Y-69818459D01*
X114472251Y-69822751D01*
X114488883Y-69828702D01*
X114504851Y-69836254D01*
X114520003Y-69845335D01*
X114534191Y-69855858D01*
X114547279Y-69867721D01*
X114559142Y-69880809D01*
X114569665Y-69894997D01*
X114578746Y-69910149D01*
X114586298Y-69926117D01*
X114592249Y-69942749D01*
X114596541Y-69959884D01*
X114599133Y-69977357D01*
X114600000Y-69995000D01*
X114600000Y-71305000D01*
X114599133Y-71322643D01*
X114596541Y-71340116D01*
X114592249Y-71357251D01*
X114586298Y-71373883D01*
X114578746Y-71389851D01*
X114569665Y-71405003D01*
X114559142Y-71419191D01*
X114547279Y-71432279D01*
X114534191Y-71444142D01*
X114520003Y-71454665D01*
X114504851Y-71463746D01*
X114488883Y-71471298D01*
X114472251Y-71477249D01*
X114455116Y-71481541D01*
X114437643Y-71484133D01*
X114420000Y-71485000D01*
X113580000Y-71485000D01*
X113562357Y-71484133D01*
X113544884Y-71481541D01*
X113527749Y-71477249D01*
X113511117Y-71471298D01*
X113495149Y-71463746D01*
X113479997Y-71454665D01*
X113465809Y-71444142D01*
X113452721Y-71432279D01*
X113440858Y-71419191D01*
X113430335Y-71405003D01*
X113421254Y-71389851D01*
X113413702Y-71373883D01*
X113407751Y-71357251D01*
X113403459Y-71340116D01*
X113400867Y-71322643D01*
X113400000Y-71305000D01*
X113400000Y-69995000D01*
X113400867Y-69977357D01*
X113403459Y-69959884D01*
X113407751Y-69942749D01*
X113413702Y-69926117D01*
X113421254Y-69910149D01*
X113430335Y-69894997D01*
X113440858Y-69880809D01*
X113452721Y-69867721D01*
X113465809Y-69855858D01*
X113479997Y-69845335D01*
X113495149Y-69836254D01*
X113511117Y-69828702D01*
X113527749Y-69822751D01*
X113544884Y-69818459D01*
X113562357Y-69815867D01*
X113580000Y-69815000D01*
X114420000Y-69815000D01*
X114437643Y-69815867D01*
X114437643Y-69815867D01*
G37*
D31*
X114000000Y-70650000D03*
D29*
X112000000Y-72250000D03*
X112000000Y-72750000D03*
D30*
X112750000Y-73500000D03*
X114250000Y-73500000D03*
X113250000Y-73500000D03*
X113750000Y-73500000D03*
D29*
X115000000Y-72750000D03*
X115000000Y-72250000D03*
G04 #@! TD*
G04 #@! TO.C,U6*
X121500000Y-68750000D03*
X121500000Y-68250000D03*
D30*
X122750000Y-67500000D03*
X123250000Y-67500000D03*
X122250000Y-67500000D03*
X123750000Y-67500000D03*
D29*
X124500000Y-68250000D03*
X124500000Y-68750000D03*
D15*
G36*
X122937643Y-69515867D02*
X122955116Y-69518459D01*
X122972251Y-69522751D01*
X122988883Y-69528702D01*
X123004851Y-69536254D01*
X123020003Y-69545335D01*
X123034191Y-69555858D01*
X123047279Y-69567721D01*
X123059142Y-69580809D01*
X123069665Y-69594997D01*
X123078746Y-69610149D01*
X123086298Y-69626117D01*
X123092249Y-69642749D01*
X123096541Y-69659884D01*
X123099133Y-69677357D01*
X123100000Y-69695000D01*
X123100000Y-71005000D01*
X123099133Y-71022643D01*
X123096541Y-71040116D01*
X123092249Y-71057251D01*
X123086298Y-71073883D01*
X123078746Y-71089851D01*
X123069665Y-71105003D01*
X123059142Y-71119191D01*
X123047279Y-71132279D01*
X123034191Y-71144142D01*
X123020003Y-71154665D01*
X123004851Y-71163746D01*
X122988883Y-71171298D01*
X122972251Y-71177249D01*
X122955116Y-71181541D01*
X122937643Y-71184133D01*
X122920000Y-71185000D01*
X122080000Y-71185000D01*
X122062357Y-71184133D01*
X122044884Y-71181541D01*
X122027749Y-71177249D01*
X122011117Y-71171298D01*
X121995149Y-71163746D01*
X121979997Y-71154665D01*
X121965809Y-71144142D01*
X121952721Y-71132279D01*
X121940858Y-71119191D01*
X121930335Y-71105003D01*
X121921254Y-71089851D01*
X121913702Y-71073883D01*
X121907751Y-71057251D01*
X121903459Y-71040116D01*
X121900867Y-71022643D01*
X121900000Y-71005000D01*
X121900000Y-69695000D01*
X121900867Y-69677357D01*
X121903459Y-69659884D01*
X121907751Y-69642749D01*
X121913702Y-69626117D01*
X121921254Y-69610149D01*
X121930335Y-69594997D01*
X121940858Y-69580809D01*
X121952721Y-69567721D01*
X121965809Y-69555858D01*
X121979997Y-69545335D01*
X121995149Y-69536254D01*
X122011117Y-69528702D01*
X122027749Y-69522751D01*
X122044884Y-69518459D01*
X122062357Y-69515867D01*
X122080000Y-69515000D01*
X122920000Y-69515000D01*
X122937643Y-69515867D01*
X122937643Y-69515867D01*
G37*
D31*
X122500000Y-70350000D03*
D15*
G36*
X123937643Y-69515867D02*
X123955116Y-69518459D01*
X123972251Y-69522751D01*
X123988883Y-69528702D01*
X124004851Y-69536254D01*
X124020003Y-69545335D01*
X124034191Y-69555858D01*
X124047279Y-69567721D01*
X124059142Y-69580809D01*
X124069665Y-69594997D01*
X124078746Y-69610149D01*
X124086298Y-69626117D01*
X124092249Y-69642749D01*
X124096541Y-69659884D01*
X124099133Y-69677357D01*
X124100000Y-69695000D01*
X124100000Y-71005000D01*
X124099133Y-71022643D01*
X124096541Y-71040116D01*
X124092249Y-71057251D01*
X124086298Y-71073883D01*
X124078746Y-71089851D01*
X124069665Y-71105003D01*
X124059142Y-71119191D01*
X124047279Y-71132279D01*
X124034191Y-71144142D01*
X124020003Y-71154665D01*
X124004851Y-71163746D01*
X123988883Y-71171298D01*
X123972251Y-71177249D01*
X123955116Y-71181541D01*
X123937643Y-71184133D01*
X123920000Y-71185000D01*
X123080000Y-71185000D01*
X123062357Y-71184133D01*
X123044884Y-71181541D01*
X123027749Y-71177249D01*
X123011117Y-71171298D01*
X122995149Y-71163746D01*
X122979997Y-71154665D01*
X122965809Y-71144142D01*
X122952721Y-71132279D01*
X122940858Y-71119191D01*
X122930335Y-71105003D01*
X122921254Y-71089851D01*
X122913702Y-71073883D01*
X122907751Y-71057251D01*
X122903459Y-71040116D01*
X122900867Y-71022643D01*
X122900000Y-71005000D01*
X122900000Y-69695000D01*
X122900867Y-69677357D01*
X122903459Y-69659884D01*
X122907751Y-69642749D01*
X122913702Y-69626117D01*
X122921254Y-69610149D01*
X122930335Y-69594997D01*
X122940858Y-69580809D01*
X122952721Y-69567721D01*
X122965809Y-69555858D01*
X122979997Y-69545335D01*
X122995149Y-69536254D01*
X123011117Y-69528702D01*
X123027749Y-69522751D01*
X123044884Y-69518459D01*
X123062357Y-69515867D01*
X123080000Y-69515000D01*
X123920000Y-69515000D01*
X123937643Y-69515867D01*
X123937643Y-69515867D01*
G37*
D31*
X123500000Y-70350000D03*
G04 #@! TD*
D29*
G04 #@! TO.C,U7*
X115000000Y-81250000D03*
X115000000Y-81750000D03*
D30*
X113750000Y-82500000D03*
X113250000Y-82500000D03*
X114250000Y-82500000D03*
X112750000Y-82500000D03*
D29*
X112000000Y-81750000D03*
X112000000Y-81250000D03*
D15*
G36*
X114437643Y-78815867D02*
X114455116Y-78818459D01*
X114472251Y-78822751D01*
X114488883Y-78828702D01*
X114504851Y-78836254D01*
X114520003Y-78845335D01*
X114534191Y-78855858D01*
X114547279Y-78867721D01*
X114559142Y-78880809D01*
X114569665Y-78894997D01*
X114578746Y-78910149D01*
X114586298Y-78926117D01*
X114592249Y-78942749D01*
X114596541Y-78959884D01*
X114599133Y-78977357D01*
X114600000Y-78995000D01*
X114600000Y-80305000D01*
X114599133Y-80322643D01*
X114596541Y-80340116D01*
X114592249Y-80357251D01*
X114586298Y-80373883D01*
X114578746Y-80389851D01*
X114569665Y-80405003D01*
X114559142Y-80419191D01*
X114547279Y-80432279D01*
X114534191Y-80444142D01*
X114520003Y-80454665D01*
X114504851Y-80463746D01*
X114488883Y-80471298D01*
X114472251Y-80477249D01*
X114455116Y-80481541D01*
X114437643Y-80484133D01*
X114420000Y-80485000D01*
X113580000Y-80485000D01*
X113562357Y-80484133D01*
X113544884Y-80481541D01*
X113527749Y-80477249D01*
X113511117Y-80471298D01*
X113495149Y-80463746D01*
X113479997Y-80454665D01*
X113465809Y-80444142D01*
X113452721Y-80432279D01*
X113440858Y-80419191D01*
X113430335Y-80405003D01*
X113421254Y-80389851D01*
X113413702Y-80373883D01*
X113407751Y-80357251D01*
X113403459Y-80340116D01*
X113400867Y-80322643D01*
X113400000Y-80305000D01*
X113400000Y-78995000D01*
X113400867Y-78977357D01*
X113403459Y-78959884D01*
X113407751Y-78942749D01*
X113413702Y-78926117D01*
X113421254Y-78910149D01*
X113430335Y-78894997D01*
X113440858Y-78880809D01*
X113452721Y-78867721D01*
X113465809Y-78855858D01*
X113479997Y-78845335D01*
X113495149Y-78836254D01*
X113511117Y-78828702D01*
X113527749Y-78822751D01*
X113544884Y-78818459D01*
X113562357Y-78815867D01*
X113580000Y-78815000D01*
X114420000Y-78815000D01*
X114437643Y-78815867D01*
X114437643Y-78815867D01*
G37*
D31*
X114000000Y-79650000D03*
D15*
G36*
X113437643Y-78815867D02*
X113455116Y-78818459D01*
X113472251Y-78822751D01*
X113488883Y-78828702D01*
X113504851Y-78836254D01*
X113520003Y-78845335D01*
X113534191Y-78855858D01*
X113547279Y-78867721D01*
X113559142Y-78880809D01*
X113569665Y-78894997D01*
X113578746Y-78910149D01*
X113586298Y-78926117D01*
X113592249Y-78942749D01*
X113596541Y-78959884D01*
X113599133Y-78977357D01*
X113600000Y-78995000D01*
X113600000Y-80305000D01*
X113599133Y-80322643D01*
X113596541Y-80340116D01*
X113592249Y-80357251D01*
X113586298Y-80373883D01*
X113578746Y-80389851D01*
X113569665Y-80405003D01*
X113559142Y-80419191D01*
X113547279Y-80432279D01*
X113534191Y-80444142D01*
X113520003Y-80454665D01*
X113504851Y-80463746D01*
X113488883Y-80471298D01*
X113472251Y-80477249D01*
X113455116Y-80481541D01*
X113437643Y-80484133D01*
X113420000Y-80485000D01*
X112580000Y-80485000D01*
X112562357Y-80484133D01*
X112544884Y-80481541D01*
X112527749Y-80477249D01*
X112511117Y-80471298D01*
X112495149Y-80463746D01*
X112479997Y-80454665D01*
X112465809Y-80444142D01*
X112452721Y-80432279D01*
X112440858Y-80419191D01*
X112430335Y-80405003D01*
X112421254Y-80389851D01*
X112413702Y-80373883D01*
X112407751Y-80357251D01*
X112403459Y-80340116D01*
X112400867Y-80322643D01*
X112400000Y-80305000D01*
X112400000Y-78995000D01*
X112400867Y-78977357D01*
X112403459Y-78959884D01*
X112407751Y-78942749D01*
X112413702Y-78926117D01*
X112421254Y-78910149D01*
X112430335Y-78894997D01*
X112440858Y-78880809D01*
X112452721Y-78867721D01*
X112465809Y-78855858D01*
X112479997Y-78845335D01*
X112495149Y-78836254D01*
X112511117Y-78828702D01*
X112527749Y-78822751D01*
X112544884Y-78818459D01*
X112562357Y-78815867D01*
X112580000Y-78815000D01*
X113420000Y-78815000D01*
X113437643Y-78815867D01*
X113437643Y-78815867D01*
G37*
D31*
X113000000Y-79650000D03*
G04 #@! TD*
D29*
G04 #@! TO.C,U8*
X121500000Y-77750000D03*
X121500000Y-77250000D03*
D30*
X122750000Y-76500000D03*
X123250000Y-76500000D03*
X122250000Y-76500000D03*
X123750000Y-76500000D03*
D29*
X124500000Y-77250000D03*
X124500000Y-77750000D03*
D15*
G36*
X122937643Y-78515867D02*
X122955116Y-78518459D01*
X122972251Y-78522751D01*
X122988883Y-78528702D01*
X123004851Y-78536254D01*
X123020003Y-78545335D01*
X123034191Y-78555858D01*
X123047279Y-78567721D01*
X123059142Y-78580809D01*
X123069665Y-78594997D01*
X123078746Y-78610149D01*
X123086298Y-78626117D01*
X123092249Y-78642749D01*
X123096541Y-78659884D01*
X123099133Y-78677357D01*
X123100000Y-78695000D01*
X123100000Y-80005000D01*
X123099133Y-80022643D01*
X123096541Y-80040116D01*
X123092249Y-80057251D01*
X123086298Y-80073883D01*
X123078746Y-80089851D01*
X123069665Y-80105003D01*
X123059142Y-80119191D01*
X123047279Y-80132279D01*
X123034191Y-80144142D01*
X123020003Y-80154665D01*
X123004851Y-80163746D01*
X122988883Y-80171298D01*
X122972251Y-80177249D01*
X122955116Y-80181541D01*
X122937643Y-80184133D01*
X122920000Y-80185000D01*
X122080000Y-80185000D01*
X122062357Y-80184133D01*
X122044884Y-80181541D01*
X122027749Y-80177249D01*
X122011117Y-80171298D01*
X121995149Y-80163746D01*
X121979997Y-80154665D01*
X121965809Y-80144142D01*
X121952721Y-80132279D01*
X121940858Y-80119191D01*
X121930335Y-80105003D01*
X121921254Y-80089851D01*
X121913702Y-80073883D01*
X121907751Y-80057251D01*
X121903459Y-80040116D01*
X121900867Y-80022643D01*
X121900000Y-80005000D01*
X121900000Y-78695000D01*
X121900867Y-78677357D01*
X121903459Y-78659884D01*
X121907751Y-78642749D01*
X121913702Y-78626117D01*
X121921254Y-78610149D01*
X121930335Y-78594997D01*
X121940858Y-78580809D01*
X121952721Y-78567721D01*
X121965809Y-78555858D01*
X121979997Y-78545335D01*
X121995149Y-78536254D01*
X122011117Y-78528702D01*
X122027749Y-78522751D01*
X122044884Y-78518459D01*
X122062357Y-78515867D01*
X122080000Y-78515000D01*
X122920000Y-78515000D01*
X122937643Y-78515867D01*
X122937643Y-78515867D01*
G37*
D31*
X122500000Y-79350000D03*
D15*
G36*
X123937643Y-78515867D02*
X123955116Y-78518459D01*
X123972251Y-78522751D01*
X123988883Y-78528702D01*
X124004851Y-78536254D01*
X124020003Y-78545335D01*
X124034191Y-78555858D01*
X124047279Y-78567721D01*
X124059142Y-78580809D01*
X124069665Y-78594997D01*
X124078746Y-78610149D01*
X124086298Y-78626117D01*
X124092249Y-78642749D01*
X124096541Y-78659884D01*
X124099133Y-78677357D01*
X124100000Y-78695000D01*
X124100000Y-80005000D01*
X124099133Y-80022643D01*
X124096541Y-80040116D01*
X124092249Y-80057251D01*
X124086298Y-80073883D01*
X124078746Y-80089851D01*
X124069665Y-80105003D01*
X124059142Y-80119191D01*
X124047279Y-80132279D01*
X124034191Y-80144142D01*
X124020003Y-80154665D01*
X124004851Y-80163746D01*
X123988883Y-80171298D01*
X123972251Y-80177249D01*
X123955116Y-80181541D01*
X123937643Y-80184133D01*
X123920000Y-80185000D01*
X123080000Y-80185000D01*
X123062357Y-80184133D01*
X123044884Y-80181541D01*
X123027749Y-80177249D01*
X123011117Y-80171298D01*
X122995149Y-80163746D01*
X122979997Y-80154665D01*
X122965809Y-80144142D01*
X122952721Y-80132279D01*
X122940858Y-80119191D01*
X122930335Y-80105003D01*
X122921254Y-80089851D01*
X122913702Y-80073883D01*
X122907751Y-80057251D01*
X122903459Y-80040116D01*
X122900867Y-80022643D01*
X122900000Y-80005000D01*
X122900000Y-78695000D01*
X122900867Y-78677357D01*
X122903459Y-78659884D01*
X122907751Y-78642749D01*
X122913702Y-78626117D01*
X122921254Y-78610149D01*
X122930335Y-78594997D01*
X122940858Y-78580809D01*
X122952721Y-78567721D01*
X122965809Y-78555858D01*
X122979997Y-78545335D01*
X122995149Y-78536254D01*
X123011117Y-78528702D01*
X123027749Y-78522751D01*
X123044884Y-78518459D01*
X123062357Y-78515867D01*
X123080000Y-78515000D01*
X123920000Y-78515000D01*
X123937643Y-78515867D01*
X123937643Y-78515867D01*
G37*
D31*
X123500000Y-79350000D03*
G04 #@! TD*
D15*
G04 #@! TO.C,U9*
G36*
X113437643Y-87815867D02*
X113455116Y-87818459D01*
X113472251Y-87822751D01*
X113488883Y-87828702D01*
X113504851Y-87836254D01*
X113520003Y-87845335D01*
X113534191Y-87855858D01*
X113547279Y-87867721D01*
X113559142Y-87880809D01*
X113569665Y-87894997D01*
X113578746Y-87910149D01*
X113586298Y-87926117D01*
X113592249Y-87942749D01*
X113596541Y-87959884D01*
X113599133Y-87977357D01*
X113600000Y-87995000D01*
X113600000Y-89305000D01*
X113599133Y-89322643D01*
X113596541Y-89340116D01*
X113592249Y-89357251D01*
X113586298Y-89373883D01*
X113578746Y-89389851D01*
X113569665Y-89405003D01*
X113559142Y-89419191D01*
X113547279Y-89432279D01*
X113534191Y-89444142D01*
X113520003Y-89454665D01*
X113504851Y-89463746D01*
X113488883Y-89471298D01*
X113472251Y-89477249D01*
X113455116Y-89481541D01*
X113437643Y-89484133D01*
X113420000Y-89485000D01*
X112580000Y-89485000D01*
X112562357Y-89484133D01*
X112544884Y-89481541D01*
X112527749Y-89477249D01*
X112511117Y-89471298D01*
X112495149Y-89463746D01*
X112479997Y-89454665D01*
X112465809Y-89444142D01*
X112452721Y-89432279D01*
X112440858Y-89419191D01*
X112430335Y-89405003D01*
X112421254Y-89389851D01*
X112413702Y-89373883D01*
X112407751Y-89357251D01*
X112403459Y-89340116D01*
X112400867Y-89322643D01*
X112400000Y-89305000D01*
X112400000Y-87995000D01*
X112400867Y-87977357D01*
X112403459Y-87959884D01*
X112407751Y-87942749D01*
X112413702Y-87926117D01*
X112421254Y-87910149D01*
X112430335Y-87894997D01*
X112440858Y-87880809D01*
X112452721Y-87867721D01*
X112465809Y-87855858D01*
X112479997Y-87845335D01*
X112495149Y-87836254D01*
X112511117Y-87828702D01*
X112527749Y-87822751D01*
X112544884Y-87818459D01*
X112562357Y-87815867D01*
X112580000Y-87815000D01*
X113420000Y-87815000D01*
X113437643Y-87815867D01*
X113437643Y-87815867D01*
G37*
D31*
X113000000Y-88650000D03*
D15*
G36*
X114437643Y-87815867D02*
X114455116Y-87818459D01*
X114472251Y-87822751D01*
X114488883Y-87828702D01*
X114504851Y-87836254D01*
X114520003Y-87845335D01*
X114534191Y-87855858D01*
X114547279Y-87867721D01*
X114559142Y-87880809D01*
X114569665Y-87894997D01*
X114578746Y-87910149D01*
X114586298Y-87926117D01*
X114592249Y-87942749D01*
X114596541Y-87959884D01*
X114599133Y-87977357D01*
X114600000Y-87995000D01*
X114600000Y-89305000D01*
X114599133Y-89322643D01*
X114596541Y-89340116D01*
X114592249Y-89357251D01*
X114586298Y-89373883D01*
X114578746Y-89389851D01*
X114569665Y-89405003D01*
X114559142Y-89419191D01*
X114547279Y-89432279D01*
X114534191Y-89444142D01*
X114520003Y-89454665D01*
X114504851Y-89463746D01*
X114488883Y-89471298D01*
X114472251Y-89477249D01*
X114455116Y-89481541D01*
X114437643Y-89484133D01*
X114420000Y-89485000D01*
X113580000Y-89485000D01*
X113562357Y-89484133D01*
X113544884Y-89481541D01*
X113527749Y-89477249D01*
X113511117Y-89471298D01*
X113495149Y-89463746D01*
X113479997Y-89454665D01*
X113465809Y-89444142D01*
X113452721Y-89432279D01*
X113440858Y-89419191D01*
X113430335Y-89405003D01*
X113421254Y-89389851D01*
X113413702Y-89373883D01*
X113407751Y-89357251D01*
X113403459Y-89340116D01*
X113400867Y-89322643D01*
X113400000Y-89305000D01*
X113400000Y-87995000D01*
X113400867Y-87977357D01*
X113403459Y-87959884D01*
X113407751Y-87942749D01*
X113413702Y-87926117D01*
X113421254Y-87910149D01*
X113430335Y-87894997D01*
X113440858Y-87880809D01*
X113452721Y-87867721D01*
X113465809Y-87855858D01*
X113479997Y-87845335D01*
X113495149Y-87836254D01*
X113511117Y-87828702D01*
X113527749Y-87822751D01*
X113544884Y-87818459D01*
X113562357Y-87815867D01*
X113580000Y-87815000D01*
X114420000Y-87815000D01*
X114437643Y-87815867D01*
X114437643Y-87815867D01*
G37*
D31*
X114000000Y-88650000D03*
D29*
X112000000Y-90250000D03*
X112000000Y-90750000D03*
D30*
X112750000Y-91500000D03*
X114250000Y-91500000D03*
X113250000Y-91500000D03*
X113750000Y-91500000D03*
D29*
X115000000Y-90750000D03*
X115000000Y-90250000D03*
G04 #@! TD*
D15*
G04 #@! TO.C,U10*
G36*
X123937643Y-87515867D02*
X123955116Y-87518459D01*
X123972251Y-87522751D01*
X123988883Y-87528702D01*
X124004851Y-87536254D01*
X124020003Y-87545335D01*
X124034191Y-87555858D01*
X124047279Y-87567721D01*
X124059142Y-87580809D01*
X124069665Y-87594997D01*
X124078746Y-87610149D01*
X124086298Y-87626117D01*
X124092249Y-87642749D01*
X124096541Y-87659884D01*
X124099133Y-87677357D01*
X124100000Y-87695000D01*
X124100000Y-89005000D01*
X124099133Y-89022643D01*
X124096541Y-89040116D01*
X124092249Y-89057251D01*
X124086298Y-89073883D01*
X124078746Y-89089851D01*
X124069665Y-89105003D01*
X124059142Y-89119191D01*
X124047279Y-89132279D01*
X124034191Y-89144142D01*
X124020003Y-89154665D01*
X124004851Y-89163746D01*
X123988883Y-89171298D01*
X123972251Y-89177249D01*
X123955116Y-89181541D01*
X123937643Y-89184133D01*
X123920000Y-89185000D01*
X123080000Y-89185000D01*
X123062357Y-89184133D01*
X123044884Y-89181541D01*
X123027749Y-89177249D01*
X123011117Y-89171298D01*
X122995149Y-89163746D01*
X122979997Y-89154665D01*
X122965809Y-89144142D01*
X122952721Y-89132279D01*
X122940858Y-89119191D01*
X122930335Y-89105003D01*
X122921254Y-89089851D01*
X122913702Y-89073883D01*
X122907751Y-89057251D01*
X122903459Y-89040116D01*
X122900867Y-89022643D01*
X122900000Y-89005000D01*
X122900000Y-87695000D01*
X122900867Y-87677357D01*
X122903459Y-87659884D01*
X122907751Y-87642749D01*
X122913702Y-87626117D01*
X122921254Y-87610149D01*
X122930335Y-87594997D01*
X122940858Y-87580809D01*
X122952721Y-87567721D01*
X122965809Y-87555858D01*
X122979997Y-87545335D01*
X122995149Y-87536254D01*
X123011117Y-87528702D01*
X123027749Y-87522751D01*
X123044884Y-87518459D01*
X123062357Y-87515867D01*
X123080000Y-87515000D01*
X123920000Y-87515000D01*
X123937643Y-87515867D01*
X123937643Y-87515867D01*
G37*
D31*
X123500000Y-88350000D03*
D15*
G36*
X122937643Y-87515867D02*
X122955116Y-87518459D01*
X122972251Y-87522751D01*
X122988883Y-87528702D01*
X123004851Y-87536254D01*
X123020003Y-87545335D01*
X123034191Y-87555858D01*
X123047279Y-87567721D01*
X123059142Y-87580809D01*
X123069665Y-87594997D01*
X123078746Y-87610149D01*
X123086298Y-87626117D01*
X123092249Y-87642749D01*
X123096541Y-87659884D01*
X123099133Y-87677357D01*
X123100000Y-87695000D01*
X123100000Y-89005000D01*
X123099133Y-89022643D01*
X123096541Y-89040116D01*
X123092249Y-89057251D01*
X123086298Y-89073883D01*
X123078746Y-89089851D01*
X123069665Y-89105003D01*
X123059142Y-89119191D01*
X123047279Y-89132279D01*
X123034191Y-89144142D01*
X123020003Y-89154665D01*
X123004851Y-89163746D01*
X122988883Y-89171298D01*
X122972251Y-89177249D01*
X122955116Y-89181541D01*
X122937643Y-89184133D01*
X122920000Y-89185000D01*
X122080000Y-89185000D01*
X122062357Y-89184133D01*
X122044884Y-89181541D01*
X122027749Y-89177249D01*
X122011117Y-89171298D01*
X121995149Y-89163746D01*
X121979997Y-89154665D01*
X121965809Y-89144142D01*
X121952721Y-89132279D01*
X121940858Y-89119191D01*
X121930335Y-89105003D01*
X121921254Y-89089851D01*
X121913702Y-89073883D01*
X121907751Y-89057251D01*
X121903459Y-89040116D01*
X121900867Y-89022643D01*
X121900000Y-89005000D01*
X121900000Y-87695000D01*
X121900867Y-87677357D01*
X121903459Y-87659884D01*
X121907751Y-87642749D01*
X121913702Y-87626117D01*
X121921254Y-87610149D01*
X121930335Y-87594997D01*
X121940858Y-87580809D01*
X121952721Y-87567721D01*
X121965809Y-87555858D01*
X121979997Y-87545335D01*
X121995149Y-87536254D01*
X122011117Y-87528702D01*
X122027749Y-87522751D01*
X122044884Y-87518459D01*
X122062357Y-87515867D01*
X122080000Y-87515000D01*
X122920000Y-87515000D01*
X122937643Y-87515867D01*
X122937643Y-87515867D01*
G37*
D31*
X122500000Y-88350000D03*
D29*
X124500000Y-86750000D03*
X124500000Y-86250000D03*
D30*
X123750000Y-85500000D03*
X122250000Y-85500000D03*
X123250000Y-85500000D03*
X122750000Y-85500000D03*
D29*
X121500000Y-86250000D03*
X121500000Y-86750000D03*
G04 #@! TD*
D32*
G04 #@! TO.C,U11*
X140400000Y-30200000D03*
X140400000Y-28300000D03*
X142600000Y-28300000D03*
X142600000Y-29250000D03*
X142600000Y-30200000D03*
G04 #@! TD*
D33*
G04 #@! TO.C,U12*
X116450000Y-20525001D03*
X116950000Y-20525001D03*
X117450000Y-20525001D03*
X117950000Y-20525001D03*
X118450000Y-20525001D03*
X118950000Y-20525001D03*
X119450000Y-20525001D03*
D34*
X120675000Y-21250001D03*
X120675000Y-21750001D03*
X120675000Y-22250001D03*
X120675000Y-22750001D03*
X120675000Y-23250001D03*
X120675000Y-23750001D03*
X120675000Y-24250001D03*
D33*
X119950000Y-25475001D03*
X119450000Y-25475001D03*
X118950000Y-25475001D03*
X118450000Y-25475001D03*
X117950000Y-25475001D03*
X117450000Y-25475001D03*
X116950000Y-25475001D03*
D34*
X115725000Y-24750001D03*
X115725000Y-24250001D03*
X115725000Y-23750001D03*
X115725000Y-23250001D03*
X115725000Y-22750001D03*
X115725000Y-22250001D03*
X115725000Y-21750001D03*
X115725000Y-21250001D03*
D35*
X117200000Y-24000001D03*
X117200000Y-23000001D03*
X117200000Y-22000001D03*
X118200000Y-24000001D03*
X118200000Y-23000000D03*
X118200000Y-22000001D03*
X119200000Y-24000001D03*
X119200000Y-23000001D03*
X119200000Y-22000001D03*
D36*
X118200000Y-23000000D03*
D33*
X116450000Y-25475001D03*
D34*
X120675000Y-24750001D03*
D33*
X119950000Y-20525001D03*
G04 #@! TD*
D17*
G04 #@! TO.C,REF\002A\002A*
X103500000Y-18500000D03*
G04 #@! TD*
M02*
