G04 #@! TF.GenerationSoftware,KiCad,Pcbnew,(5.0.0)*
G04 #@! TF.CreationDate,2018-11-03T21:02:49-02:30*
G04 #@! TF.ProjectId,DC-DC Board Micro,44432D444320426F617264204D696372,rev?*
G04 #@! TF.SameCoordinates,Original*
G04 #@! TF.FileFunction,Copper,L1,Top,Mixed*
G04 #@! TF.FilePolarity,Positive*
%FSLAX46Y46*%
G04 Gerber Fmt 4.6, Leading zero omitted, Abs format (unit mm)*
G04 Created by KiCad (PCBNEW (5.0.0)) date 11/03/18 21:02:49*
%MOMM*%
%LPD*%
G01*
G04 APERTURE LIST*
G04 #@! TA.AperFunction,SMDPad,CuDef*
%ADD10R,1.200000X1.200000*%
G04 #@! TD*
G04 #@! TA.AperFunction,SMDPad,CuDef*
%ADD11R,0.500000X3.100000*%
G04 #@! TD*
G04 #@! TA.AperFunction,SMDPad,CuDef*
%ADD12R,2.000000X3.300000*%
G04 #@! TD*
G04 #@! TA.AperFunction,SMDPad,CuDef*
%ADD13R,2.000000X2.500000*%
G04 #@! TD*
G04 #@! TA.AperFunction,ComponentPad*
%ADD14R,1.600000X1.600000*%
G04 #@! TD*
G04 #@! TA.AperFunction,ComponentPad*
%ADD15C,1.600000*%
G04 #@! TD*
G04 #@! TA.AperFunction,ComponentPad*
%ADD16O,1.638300X3.276600*%
G04 #@! TD*
G04 #@! TA.AperFunction,SMDPad,CuDef*
%ADD17R,1.250000X1.000000*%
G04 #@! TD*
G04 #@! TA.AperFunction,ComponentPad*
%ADD18C,3.200000*%
G04 #@! TD*
G04 #@! TA.AperFunction,SMDPad,CuDef*
%ADD19R,1.300000X0.700000*%
G04 #@! TD*
G04 #@! TA.AperFunction,SMDPad,CuDef*
%ADD20R,0.700000X1.300000*%
G04 #@! TD*
G04 #@! TA.AperFunction,SMDPad,CuDef*
%ADD21R,3.050000X2.750000*%
G04 #@! TD*
G04 #@! TA.AperFunction,SMDPad,CuDef*
%ADD22R,6.400000X5.800000*%
G04 #@! TD*
G04 #@! TA.AperFunction,SMDPad,CuDef*
%ADD23R,2.200000X1.200000*%
G04 #@! TD*
G04 #@! TA.AperFunction,SMDPad,CuDef*
%ADD24R,1.000000X1.250000*%
G04 #@! TD*
G04 #@! TA.AperFunction,SMDPad,CuDef*
%ADD25R,0.800000X0.750000*%
G04 #@! TD*
G04 #@! TA.AperFunction,ComponentPad*
%ADD26R,1.000000X1.000000*%
G04 #@! TD*
G04 #@! TA.AperFunction,ComponentPad*
%ADD27O,1.000000X1.000000*%
G04 #@! TD*
G04 #@! TA.AperFunction,SMDPad,CuDef*
%ADD28R,0.900000X0.500000*%
G04 #@! TD*
G04 #@! TA.AperFunction,SMDPad,CuDef*
%ADD29R,0.850000X0.300000*%
G04 #@! TD*
G04 #@! TA.AperFunction,SMDPad,CuDef*
%ADD30R,0.300000X0.850000*%
G04 #@! TD*
G04 #@! TA.AperFunction,Conductor*
%ADD31C,0.100000*%
G04 #@! TD*
G04 #@! TA.AperFunction,SMDPad,CuDef*
%ADD32C,0.800000*%
G04 #@! TD*
G04 #@! TA.AperFunction,ComponentPad*
%ADD33C,1.500000*%
G04 #@! TD*
G04 #@! TA.AperFunction,ComponentPad*
%ADD34C,1.700000*%
G04 #@! TD*
G04 #@! TA.AperFunction,ComponentPad*
%ADD35C,3.500000*%
G04 #@! TD*
G04 #@! TA.AperFunction,ComponentPad*
%ADD36C,2.500000*%
G04 #@! TD*
G04 #@! TA.AperFunction,SMDPad,CuDef*
%ADD37R,1.060000X0.650000*%
G04 #@! TD*
G04 #@! TA.AperFunction,SMDPad,CuDef*
%ADD38R,0.750000X0.800000*%
G04 #@! TD*
G04 #@! TA.AperFunction,SMDPad,CuDef*
%ADD39R,0.500000X0.900000*%
G04 #@! TD*
G04 #@! TA.AperFunction,SMDPad,CuDef*
%ADD40R,1.140000X2.030000*%
G04 #@! TD*
G04 #@! TA.AperFunction,SMDPad,CuDef*
%ADD41R,2.000000X1.600000*%
G04 #@! TD*
G04 #@! TA.AperFunction,SMDPad,CuDef*
%ADD42R,0.280000X0.850000*%
G04 #@! TD*
G04 #@! TA.AperFunction,SMDPad,CuDef*
%ADD43R,0.850000X0.280000*%
G04 #@! TD*
G04 #@! TA.AperFunction,ComponentPad*
%ADD44C,0.200000*%
G04 #@! TD*
G04 #@! TA.AperFunction,SMDPad,CuDef*
%ADD45R,3.450000X3.450000*%
G04 #@! TD*
G04 #@! TA.AperFunction,SMDPad,CuDef*
%ADD46R,1.800000X1.000000*%
G04 #@! TD*
G04 #@! TA.AperFunction,ViaPad*
%ADD47C,0.600000*%
G04 #@! TD*
G04 #@! TA.AperFunction,ViaPad*
%ADD48C,0.800000*%
G04 #@! TD*
G04 #@! TA.AperFunction,Conductor*
%ADD49C,0.250000*%
G04 #@! TD*
G04 #@! TA.AperFunction,Conductor*
%ADD50C,0.500000*%
G04 #@! TD*
G04 #@! TA.AperFunction,Conductor*
%ADD51C,0.200000*%
G04 #@! TD*
G04 #@! TA.AperFunction,Conductor*
%ADD52C,0.254000*%
G04 #@! TD*
G04 APERTURE END LIST*
D10*
G04 #@! TO.P,D1,2*
G04 #@! TO.N,Net-(D1-Pad2)*
X74000000Y-54650000D03*
G04 #@! TO.P,D1,1*
G04 #@! TO.N,Net-(D1-Pad1)*
X76200000Y-54650000D03*
G04 #@! TD*
D11*
G04 #@! TO.P,J7,5*
G04 #@! TO.N,GND*
X99492000Y-40500000D03*
G04 #@! TO.P,J7,4*
G04 #@! TO.N,Net-(J7-Pad4)*
X100292000Y-40500000D03*
G04 #@! TO.P,J7,3*
G04 #@! TO.N,USB+*
X101092000Y-40500000D03*
G04 #@! TO.P,J7,2*
G04 #@! TO.N,USB-*
X101892000Y-40500000D03*
G04 #@! TO.P,J7,1*
G04 #@! TO.N,Net-(F1-Pad1)*
X102692000Y-40500000D03*
D12*
G04 #@! TO.P,J7,6*
G04 #@! TO.N,GND*
X105542000Y-40400000D03*
X96642000Y-40400000D03*
D13*
X105542000Y-34500000D03*
X96642000Y-34500000D03*
G04 #@! TD*
D14*
G04 #@! TO.P,C7,1*
G04 #@! TO.N,+12V*
X109000000Y-50000000D03*
D15*
G04 #@! TO.P,C7,2*
G04 #@! TO.N,GND*
X111500000Y-50000000D03*
G04 #@! TD*
D16*
G04 #@! TO.P,J4,2*
G04 #@! TO.N,VIOUT3*
X91440000Y-51562000D03*
G04 #@! TO.P,J4,1*
G04 #@! TO.N,VIOUT2*
X93980000Y-51562000D03*
G04 #@! TO.P,J4,3*
G04 #@! TO.N,GND*
X88900000Y-51562000D03*
G04 #@! TD*
D17*
G04 #@! TO.P,C4,1*
G04 #@! TO.N,Net-(C4-Pad1)*
X121666000Y-45958000D03*
G04 #@! TO.P,C4,2*
G04 #@! TO.N,GND*
X121666000Y-43958000D03*
G04 #@! TD*
D18*
G04 #@! TO.P,J1,1*
G04 #@! TO.N,/+48V*
X76495000Y-61000000D03*
X83505000Y-61000000D03*
X83505000Y-66000000D03*
X76495000Y-66000000D03*
G04 #@! TD*
G04 #@! TO.P,J2,1*
G04 #@! TO.N,Net-(J2-Pad1)*
X76495000Y-34000000D03*
X83505000Y-34000000D03*
X83505000Y-39000000D03*
X76495000Y-39000000D03*
G04 #@! TD*
D17*
G04 #@! TO.P,C1,1*
G04 #@! TO.N,VIOUT1*
X84800000Y-50000000D03*
G04 #@! TO.P,C1,2*
G04 #@! TO.N,GND*
X84800000Y-52000000D03*
G04 #@! TD*
G04 #@! TO.P,C2,1*
G04 #@! TO.N,VIOUT1*
X83312000Y-50000000D03*
G04 #@! TO.P,C2,2*
G04 #@! TO.N,GND*
X83312000Y-52000000D03*
G04 #@! TD*
G04 #@! TO.P,C3,1*
G04 #@! TO.N,Net-(C3-Pad1)*
X115316000Y-45958000D03*
G04 #@! TO.P,C3,2*
G04 #@! TO.N,GND*
X115316000Y-43958000D03*
G04 #@! TD*
D14*
G04 #@! TO.P,C6,1*
G04 #@! TO.N,+12V*
X109000000Y-58000000D03*
D15*
G04 #@! TO.P,C6,2*
G04 #@! TO.N,GND*
X111500000Y-58000000D03*
G04 #@! TD*
D14*
G04 #@! TO.P,C8,1*
G04 #@! TO.N,+12V*
X109000000Y-42000000D03*
D15*
G04 #@! TO.P,C8,2*
G04 #@! TO.N,GND*
X111500000Y-42000000D03*
G04 #@! TD*
D10*
G04 #@! TO.P,D3,2*
G04 #@! TO.N,Net-(D3-Pad2)*
X100800000Y-48500000D03*
G04 #@! TO.P,D3,1*
G04 #@! TO.N,GND*
X98600000Y-48500000D03*
G04 #@! TD*
D19*
G04 #@! TO.P,R4,1*
G04 #@! TO.N,+3V3*
X78486000Y-52004000D03*
G04 #@! TO.P,R4,2*
G04 #@! TO.N,Net-(R4-Pad2)*
X78486000Y-50104000D03*
G04 #@! TD*
G04 #@! TO.P,R6,1*
G04 #@! TO.N,Net-(C3-Pad1)*
X117348000Y-45908000D03*
G04 #@! TO.P,R6,2*
G04 #@! TO.N,GND*
X117348000Y-44008000D03*
G04 #@! TD*
D20*
G04 #@! TO.P,R8,1*
G04 #@! TO.N,Net-(D2-Pad1)*
X119954000Y-50038000D03*
G04 #@! TO.P,R8,2*
G04 #@! TO.N,GND*
X121854000Y-50038000D03*
G04 #@! TD*
D21*
G04 #@! TO.P,Q1,2*
G04 #@! TO.N,Net-(J2-Pad1)*
X82025000Y-45925000D03*
X85375000Y-42875000D03*
X82025000Y-42875000D03*
X85375000Y-45925000D03*
D22*
X83700000Y-44400000D03*
D23*
G04 #@! TO.P,Q1,3*
G04 #@! TO.N,Earth*
X77400000Y-46680000D03*
G04 #@! TO.P,Q1,1*
G04 #@! TO.N,Net-(Q1-Pad1)*
X77400000Y-42120000D03*
G04 #@! TD*
D24*
G04 #@! TO.P,C5,2*
G04 #@! TO.N,GND*
X105900000Y-48500000D03*
G04 #@! TO.P,C5,1*
G04 #@! TO.N,+5V*
X103900000Y-48500000D03*
G04 #@! TD*
D25*
G04 #@! TO.P,C18,2*
G04 #@! TO.N,GND*
X86000000Y-35600000D03*
G04 #@! TO.P,C18,1*
G04 #@! TO.N,Net-(C18-Pad1)*
X87500000Y-35600000D03*
G04 #@! TD*
G04 #@! TO.P,C19,1*
G04 #@! TO.N,Net-(C19-Pad1)*
X87550000Y-40400000D03*
G04 #@! TO.P,C19,2*
G04 #@! TO.N,GND*
X86050000Y-40400000D03*
G04 #@! TD*
D10*
G04 #@! TO.P,D2,2*
G04 #@! TO.N,+12V*
X120142000Y-55964000D03*
G04 #@! TO.P,D2,1*
G04 #@! TO.N,Net-(D2-Pad1)*
X120142000Y-53764000D03*
G04 #@! TD*
G04 #@! TO.P,D4,1*
G04 #@! TO.N,Net-(D4-Pad1)*
X94700000Y-48500000D03*
G04 #@! TO.P,D4,2*
G04 #@! TO.N,+3V3*
X96900000Y-48500000D03*
G04 #@! TD*
D16*
G04 #@! TO.P,J3,2*
G04 #@! TO.N,SCL*
X101092000Y-51562000D03*
G04 #@! TO.P,J3,1*
G04 #@! TO.N,SDA*
X103632000Y-51562000D03*
G04 #@! TD*
D18*
G04 #@! TO.P,J5,1*
G04 #@! TO.N,+12V*
X122505000Y-66000000D03*
X115495000Y-66000000D03*
X115495000Y-61000000D03*
X122505000Y-61000000D03*
G04 #@! TD*
G04 #@! TO.P,J6,1*
G04 #@! TO.N,GND*
X122505000Y-34000000D03*
X115495000Y-34000000D03*
X115495000Y-39000000D03*
X122505000Y-39000000D03*
G04 #@! TD*
D26*
G04 #@! TO.P,J8,1*
G04 #@! TO.N,+3V3*
X109220000Y-32512000D03*
D27*
G04 #@! TO.P,J8,2*
G04 #@! TO.N,SWDIO*
X110490000Y-32512000D03*
G04 #@! TO.P,J8,3*
G04 #@! TO.N,GND*
X109220000Y-33782000D03*
G04 #@! TO.P,J8,4*
G04 #@! TO.N,SWCLK*
X110490000Y-33782000D03*
G04 #@! TO.P,J8,5*
G04 #@! TO.N,GND*
X109220000Y-35052000D03*
G04 #@! TO.P,J8,6*
G04 #@! TO.N,Net-(J8-Pad6)*
X110490000Y-35052000D03*
G04 #@! TO.P,J8,7*
G04 #@! TO.N,Net-(J8-Pad7)*
X109220000Y-36322000D03*
G04 #@! TO.P,J8,8*
G04 #@! TO.N,Net-(J8-Pad8)*
X110490000Y-36322000D03*
G04 #@! TO.P,J8,9*
G04 #@! TO.N,Net-(J8-Pad9)*
X109220000Y-37592000D03*
G04 #@! TO.P,J8,10*
G04 #@! TO.N,~RESET~*
X110490000Y-37592000D03*
G04 #@! TD*
D20*
G04 #@! TO.P,L1,1*
G04 #@! TO.N,3V3_FILT*
X94950000Y-45700000D03*
G04 #@! TO.P,L1,2*
G04 #@! TO.N,+3V3*
X96850000Y-45700000D03*
G04 #@! TD*
G04 #@! TO.P,L2,2*
G04 #@! TO.N,Net-(F1-Pad2)*
X105950000Y-45500000D03*
G04 #@! TO.P,L2,1*
G04 #@! TO.N,+5V*
X104050000Y-45500000D03*
G04 #@! TD*
G04 #@! TO.P,R1,2*
G04 #@! TO.N,Earth*
X74488000Y-52578000D03*
G04 #@! TO.P,R1,1*
G04 #@! TO.N,Net-(D1-Pad1)*
X76388000Y-52578000D03*
G04 #@! TD*
D28*
G04 #@! TO.P,R2,2*
G04 #@! TO.N,Net-(Q1-Pad1)*
X72136000Y-53352000D03*
G04 #@! TO.P,R2,1*
G04 #@! TO.N,Net-(D1-Pad2)*
X72136000Y-54852000D03*
G04 #@! TD*
G04 #@! TO.P,R3,1*
G04 #@! TO.N,Net-(Q1-Pad1)*
X72390000Y-48490000D03*
G04 #@! TO.P,R3,2*
G04 #@! TO.N,Earth*
X72390000Y-46990000D03*
G04 #@! TD*
G04 #@! TO.P,R5,1*
G04 #@! TO.N,Net-(R5-Pad1)*
X75692000Y-48248000D03*
G04 #@! TO.P,R5,2*
G04 #@! TO.N,Earth*
X75692000Y-46748000D03*
G04 #@! TD*
D19*
G04 #@! TO.P,R7,2*
G04 #@! TO.N,GND*
X119634000Y-44008000D03*
G04 #@! TO.P,R7,1*
G04 #@! TO.N,Net-(C4-Pad1)*
X119634000Y-45908000D03*
G04 #@! TD*
D20*
G04 #@! TO.P,R10,2*
G04 #@! TO.N,~RESET~*
X92050000Y-36100000D03*
G04 #@! TO.P,R10,1*
G04 #@! TO.N,+3V3*
X90150000Y-36100000D03*
G04 #@! TD*
D29*
G04 #@! TO.P,U1,12*
G04 #@! TO.N,+3V3*
X78840000Y-55040000D03*
G04 #@! TO.P,U1,11*
G04 #@! TO.N,VIOUT1*
X78840000Y-54540000D03*
D30*
G04 #@! TO.P,U1,7*
G04 #@! TO.N,GND*
X80090000Y-53790000D03*
X80590000Y-53790000D03*
X79590000Y-53790000D03*
X81090000Y-53790000D03*
D29*
G04 #@! TO.P,U1,6*
G04 #@! TO.N,Net-(R4-Pad2)*
X81840000Y-54540000D03*
G04 #@! TO.P,U1,5*
G04 #@! TO.N,GND*
X81840000Y-55040000D03*
D31*
G04 #@! TD*
G04 #@! TO.N,Net-(D1-Pad2)*
G04 #@! TO.C,U1*
G36*
X80131762Y-56005578D02*
X80143411Y-56007306D01*
X80154834Y-56010167D01*
X80165922Y-56014134D01*
X80176568Y-56019169D01*
X80186668Y-56025224D01*
X80196127Y-56032239D01*
X80204853Y-56040147D01*
X80212761Y-56048873D01*
X80219776Y-56058332D01*
X80225831Y-56068432D01*
X80230866Y-56079078D01*
X80234833Y-56090166D01*
X80237694Y-56101589D01*
X80239422Y-56113238D01*
X80240000Y-56125000D01*
X80240000Y-57155000D01*
X80239422Y-57166762D01*
X80237694Y-57178411D01*
X80234833Y-57189834D01*
X80230866Y-57200922D01*
X80225831Y-57211568D01*
X80219776Y-57221668D01*
X80212761Y-57231127D01*
X80204853Y-57239853D01*
X80196127Y-57247761D01*
X80186668Y-57254776D01*
X80176568Y-57260831D01*
X80165922Y-57265866D01*
X80154834Y-57269833D01*
X80143411Y-57272694D01*
X80131762Y-57274422D01*
X80120000Y-57275000D01*
X79560000Y-57275000D01*
X79548238Y-57274422D01*
X79536589Y-57272694D01*
X79525166Y-57269833D01*
X79514078Y-57265866D01*
X79503432Y-57260831D01*
X79493332Y-57254776D01*
X79483873Y-57247761D01*
X79475147Y-57239853D01*
X79467239Y-57231127D01*
X79460224Y-57221668D01*
X79454169Y-57211568D01*
X79449134Y-57200922D01*
X79445167Y-57189834D01*
X79442306Y-57178411D01*
X79440578Y-57166762D01*
X79440000Y-57155000D01*
X79440000Y-56125000D01*
X79440578Y-56113238D01*
X79442306Y-56101589D01*
X79445167Y-56090166D01*
X79449134Y-56079078D01*
X79454169Y-56068432D01*
X79460224Y-56058332D01*
X79467239Y-56048873D01*
X79475147Y-56040147D01*
X79483873Y-56032239D01*
X79493332Y-56025224D01*
X79503432Y-56019169D01*
X79514078Y-56014134D01*
X79525166Y-56010167D01*
X79536589Y-56007306D01*
X79548238Y-56005578D01*
X79560000Y-56005000D01*
X80120000Y-56005000D01*
X80131762Y-56005578D01*
X80131762Y-56005578D01*
G37*
D32*
G04 #@! TO.P,U1,1*
G04 #@! TO.N,Net-(D1-Pad2)*
X79840000Y-56640000D03*
D31*
G04 #@! TD*
G04 #@! TO.N,/+48V*
G04 #@! TO.C,U1*
G36*
X81131762Y-56005578D02*
X81143411Y-56007306D01*
X81154834Y-56010167D01*
X81165922Y-56014134D01*
X81176568Y-56019169D01*
X81186668Y-56025224D01*
X81196127Y-56032239D01*
X81204853Y-56040147D01*
X81212761Y-56048873D01*
X81219776Y-56058332D01*
X81225831Y-56068432D01*
X81230866Y-56079078D01*
X81234833Y-56090166D01*
X81237694Y-56101589D01*
X81239422Y-56113238D01*
X81240000Y-56125000D01*
X81240000Y-57155000D01*
X81239422Y-57166762D01*
X81237694Y-57178411D01*
X81234833Y-57189834D01*
X81230866Y-57200922D01*
X81225831Y-57211568D01*
X81219776Y-57221668D01*
X81212761Y-57231127D01*
X81204853Y-57239853D01*
X81196127Y-57247761D01*
X81186668Y-57254776D01*
X81176568Y-57260831D01*
X81165922Y-57265866D01*
X81154834Y-57269833D01*
X81143411Y-57272694D01*
X81131762Y-57274422D01*
X81120000Y-57275000D01*
X80560000Y-57275000D01*
X80548238Y-57274422D01*
X80536589Y-57272694D01*
X80525166Y-57269833D01*
X80514078Y-57265866D01*
X80503432Y-57260831D01*
X80493332Y-57254776D01*
X80483873Y-57247761D01*
X80475147Y-57239853D01*
X80467239Y-57231127D01*
X80460224Y-57221668D01*
X80454169Y-57211568D01*
X80449134Y-57200922D01*
X80445167Y-57189834D01*
X80442306Y-57178411D01*
X80440578Y-57166762D01*
X80440000Y-57155000D01*
X80440000Y-56125000D01*
X80440578Y-56113238D01*
X80442306Y-56101589D01*
X80445167Y-56090166D01*
X80449134Y-56079078D01*
X80454169Y-56068432D01*
X80460224Y-56058332D01*
X80467239Y-56048873D01*
X80475147Y-56040147D01*
X80483873Y-56032239D01*
X80493332Y-56025224D01*
X80503432Y-56019169D01*
X80514078Y-56014134D01*
X80525166Y-56010167D01*
X80536589Y-56007306D01*
X80548238Y-56005578D01*
X80560000Y-56005000D01*
X81120000Y-56005000D01*
X81131762Y-56005578D01*
X81131762Y-56005578D01*
G37*
D32*
G04 #@! TO.P,U1,3*
G04 #@! TO.N,/+48V*
X80840000Y-56640000D03*
G04 #@! TD*
D33*
G04 #@! TO.P,U2,15*
G04 #@! TO.N,GND*
X126400000Y-54000000D03*
D34*
G04 #@! TO.P,U2,14*
G04 #@! TO.N,Net-(U2-Pad14)*
X124400000Y-54000000D03*
G04 #@! TO.P,U2,12*
G04 #@! TO.N,Net-(U2-Pad12)*
X124400000Y-52000000D03*
G04 #@! TO.P,U2,13*
G04 #@! TO.N,GND*
X126400000Y-52000000D03*
G04 #@! TO.P,U2,10*
G04 #@! TO.N,SCL*
X124400000Y-50000000D03*
G04 #@! TO.P,U2,11*
G04 #@! TO.N,SDA*
X126400000Y-50000000D03*
G04 #@! TO.P,U2,9*
G04 #@! TO.N,Net-(C3-Pad1)*
X126400000Y-48000000D03*
G04 #@! TO.P,U2,8*
G04 #@! TO.N,Net-(C4-Pad1)*
X124400000Y-48000000D03*
G04 #@! TO.P,U2,7*
G04 #@! TO.N,GND*
X126400000Y-46000000D03*
G04 #@! TO.P,U2,6*
G04 #@! TO.N,+12V*
X124400000Y-46000000D03*
D35*
G04 #@! TO.P,U2,16*
X125400000Y-57620000D03*
G04 #@! TO.P,U2,5*
G04 #@! TO.N,GND*
X125400000Y-42380000D03*
D36*
G04 #@! TO.P,U2,1*
G04 #@! TO.N,Net-(D1-Pad2)*
X74600000Y-57620000D03*
G04 #@! TO.P,U2,2*
G04 #@! TO.N,Net-(R5-Pad1)*
X74600000Y-50000000D03*
G04 #@! TO.P,U2,4*
G04 #@! TO.N,Earth*
X74600000Y-42380000D03*
G04 #@! TD*
D37*
G04 #@! TO.P,U3,5*
G04 #@! TO.N,+3V3*
X98500000Y-46650000D03*
G04 #@! TO.P,U3,4*
G04 #@! TO.N,Net-(U3-Pad4)*
X98500000Y-44750000D03*
G04 #@! TO.P,U3,3*
G04 #@! TO.N,+5V*
X100700000Y-44750000D03*
G04 #@! TO.P,U3,2*
G04 #@! TO.N,GND*
X100700000Y-45700000D03*
G04 #@! TO.P,U3,1*
G04 #@! TO.N,+5V*
X100700000Y-46650000D03*
G04 #@! TD*
D38*
G04 #@! TO.P,C9,2*
G04 #@! TO.N,GND*
X97500000Y-51350000D03*
G04 #@! TO.P,C9,1*
G04 #@! TO.N,+3V3*
X97500000Y-49850000D03*
G04 #@! TD*
D25*
G04 #@! TO.P,C10,1*
G04 #@! TO.N,+3V3*
X95850000Y-43900000D03*
G04 #@! TO.P,C10,2*
G04 #@! TO.N,GND*
X94350000Y-43900000D03*
G04 #@! TD*
G04 #@! TO.P,C11,2*
G04 #@! TO.N,GND*
X98550000Y-43600000D03*
G04 #@! TO.P,C11,1*
G04 #@! TO.N,+3V3*
X97050000Y-43600000D03*
G04 #@! TD*
G04 #@! TO.P,C12,1*
G04 #@! TO.N,3V3_FILT*
X93350000Y-46400000D03*
G04 #@! TO.P,C12,2*
G04 #@! TO.N,GND*
X91850000Y-46400000D03*
G04 #@! TD*
G04 #@! TO.P,C13,2*
G04 #@! TO.N,GND*
X91850000Y-45400000D03*
G04 #@! TO.P,C13,1*
G04 #@! TO.N,3V3_FILT*
X93350000Y-45400000D03*
G04 #@! TD*
G04 #@! TO.P,C14,1*
G04 #@! TO.N,+5V*
X104350000Y-47000000D03*
G04 #@! TO.P,C14,2*
G04 #@! TO.N,GND*
X105850000Y-47000000D03*
G04 #@! TD*
D38*
G04 #@! TO.P,C15,2*
G04 #@! TO.N,GND*
X102200000Y-44150000D03*
G04 #@! TO.P,C15,1*
G04 #@! TO.N,+5V*
X102200000Y-45650000D03*
G04 #@! TD*
G04 #@! TO.P,C16,1*
G04 #@! TO.N,VIOUT1*
X86200000Y-50250000D03*
G04 #@! TO.P,C16,2*
G04 #@! TO.N,GND*
X86200000Y-51750000D03*
G04 #@! TD*
G04 #@! TO.P,C17,2*
G04 #@! TO.N,GND*
X97500000Y-52350000D03*
G04 #@! TO.P,C17,1*
G04 #@! TO.N,VIOUT2*
X97500000Y-53850000D03*
G04 #@! TD*
G04 #@! TO.P,C20,1*
G04 #@! TO.N,VIOUT3*
X88700000Y-47750000D03*
G04 #@! TO.P,C20,2*
G04 #@! TO.N,GND*
X88700000Y-49250000D03*
G04 #@! TD*
D25*
G04 #@! TO.P,C21,2*
G04 #@! TO.N,GND*
X94950000Y-36400000D03*
G04 #@! TO.P,C21,1*
G04 #@! TO.N,Net-(C21-Pad1)*
X93450000Y-36400000D03*
G04 #@! TD*
D28*
G04 #@! TO.P,R9,2*
G04 #@! TO.N,Net-(D3-Pad2)*
X102300000Y-48750000D03*
G04 #@! TO.P,R9,1*
G04 #@! TO.N,+5V*
X102300000Y-47250000D03*
G04 #@! TD*
D39*
G04 #@! TO.P,R11,1*
G04 #@! TO.N,Net-(R11-Pad1)*
X92050000Y-48500000D03*
G04 #@! TO.P,R11,2*
G04 #@! TO.N,Net-(D4-Pad1)*
X93550000Y-48500000D03*
G04 #@! TD*
D40*
G04 #@! TO.P,F1,1*
G04 #@! TO.N,Net-(F1-Pad1)*
X103600000Y-43500000D03*
G04 #@! TO.P,F1,2*
G04 #@! TO.N,Net-(F1-Pad2)*
X106000000Y-43500000D03*
G04 #@! TD*
D41*
G04 #@! TO.P,SW1,1*
G04 #@! TO.N,GND*
X87700000Y-33500000D03*
G04 #@! TO.P,SW1,2*
G04 #@! TO.N,~RESET~*
X93100000Y-33500000D03*
G04 #@! TD*
D42*
G04 #@! TO.P,U4,32*
G04 #@! TO.N,SWDIO*
X89630000Y-38375000D03*
G04 #@! TO.P,U4,31*
G04 #@! TO.N,SWCLK*
X90130000Y-38375000D03*
G04 #@! TO.P,U4,30*
G04 #@! TO.N,+3V3*
X90630000Y-38375000D03*
G04 #@! TO.P,U4,29*
G04 #@! TO.N,Net-(C21-Pad1)*
X91130000Y-38375000D03*
G04 #@! TO.P,U4,28*
G04 #@! TO.N,GND*
X91630000Y-38375000D03*
G04 #@! TO.P,U4,27*
G04 #@! TO.N,Net-(U4-Pad27)*
X92130000Y-38375000D03*
G04 #@! TO.P,U4,26*
G04 #@! TO.N,~RESET~*
X92630000Y-38375000D03*
D43*
G04 #@! TO.P,U4,24*
G04 #@! TO.N,USB+*
X93855000Y-39100000D03*
G04 #@! TO.P,U4,23*
G04 #@! TO.N,USB-*
X93855000Y-39600000D03*
G04 #@! TO.P,U4,22*
G04 #@! TO.N,SCL*
X93855000Y-40100000D03*
G04 #@! TO.P,U4,21*
G04 #@! TO.N,SDA*
X93855000Y-40600000D03*
G04 #@! TO.P,U4,20*
G04 #@! TO.N,Net-(U4-Pad20)*
X93855000Y-41100000D03*
G04 #@! TO.P,U4,19*
G04 #@! TO.N,Net-(U4-Pad19)*
X93855000Y-41600000D03*
G04 #@! TO.P,U4,18*
G04 #@! TO.N,Net-(U4-Pad18)*
X93855000Y-42100000D03*
D42*
G04 #@! TO.P,U4,16*
G04 #@! TO.N,Net-(U4-Pad16)*
X93130000Y-43325000D03*
G04 #@! TO.P,U4,15*
G04 #@! TO.N,Net-(U4-Pad15)*
X92630000Y-43325000D03*
G04 #@! TO.P,U4,14*
G04 #@! TO.N,Net-(R11-Pad1)*
X92130000Y-43325000D03*
G04 #@! TO.P,U4,13*
G04 #@! TO.N,Net-(U4-Pad13)*
X91630000Y-43325000D03*
G04 #@! TO.P,U4,12*
G04 #@! TO.N,Net-(U4-Pad12)*
X91130000Y-43325000D03*
G04 #@! TO.P,U4,11*
G04 #@! TO.N,Net-(U4-Pad11)*
X90630000Y-43325000D03*
G04 #@! TO.P,U4,10*
G04 #@! TO.N,GND*
X90130000Y-43325000D03*
D43*
G04 #@! TO.P,U4,8*
G04 #@! TO.N,VIOUT3*
X88905000Y-42600000D03*
G04 #@! TO.P,U4,7*
G04 #@! TO.N,VIOUT2*
X88905000Y-42100000D03*
G04 #@! TO.P,U4,6*
G04 #@! TO.N,VIOUT1*
X88905000Y-41600000D03*
G04 #@! TO.P,U4,5*
G04 #@! TO.N,Net-(U4-Pad5)*
X88905000Y-41100000D03*
G04 #@! TO.P,U4,4*
G04 #@! TO.N,Net-(U4-Pad4)*
X88905000Y-40600000D03*
G04 #@! TO.P,U4,3*
G04 #@! TO.N,Net-(U4-Pad3)*
X88905000Y-40100000D03*
G04 #@! TO.P,U4,2*
G04 #@! TO.N,Net-(C19-Pad1)*
X88905000Y-39600000D03*
G04 #@! TO.P,U4,1*
G04 #@! TO.N,Net-(C18-Pad1)*
X88905000Y-39100000D03*
D44*
G04 #@! TO.P,U4,33*
G04 #@! TO.N,N/C*
X90380000Y-41850000D03*
X90380000Y-40850000D03*
X90380000Y-39850000D03*
X91380000Y-41850000D03*
X91380000Y-40849999D03*
X91380000Y-39850000D03*
X92380000Y-41850000D03*
X92380000Y-40850000D03*
X92380000Y-39850000D03*
D45*
X91380000Y-40849999D03*
D42*
G04 #@! TO.P,U4,9*
G04 #@! TO.N,3V3_FILT*
X89630000Y-43325000D03*
D43*
G04 #@! TO.P,U4,17*
G04 #@! TO.N,Net-(U4-Pad17)*
X93855000Y-42600000D03*
D42*
G04 #@! TO.P,U4,25*
G04 #@! TO.N,Net-(U4-Pad25)*
X93130000Y-38375000D03*
G04 #@! TD*
D46*
G04 #@! TO.P,Y1,1*
G04 #@! TO.N,Net-(C18-Pad1)*
X87200000Y-36750000D03*
G04 #@! TO.P,Y1,2*
G04 #@! TO.N,Net-(C19-Pad1)*
X87200000Y-39250000D03*
G04 #@! TD*
D47*
G04 #@! TO.N,/+48V*
X81100000Y-58200000D03*
X82700000Y-57300000D03*
X82800000Y-58700000D03*
X81000000Y-59700000D03*
D48*
X79140000Y-61010000D03*
X80820000Y-62480000D03*
X79200000Y-65400000D03*
X80670000Y-66760000D03*
X84380000Y-63520000D03*
X75250000Y-63510000D03*
X73740000Y-67210000D03*
X72340000Y-65560000D03*
X73970000Y-64630000D03*
X72390000Y-62510000D03*
X73720000Y-60550000D03*
X81800000Y-64000000D03*
X77700000Y-63500000D03*
G04 #@! TO.N,+12V*
X127650000Y-66820000D03*
X125260000Y-65370000D03*
X127360000Y-62240000D03*
X125480000Y-61060000D03*
X127850000Y-59710000D03*
X124140000Y-63400000D03*
X120980000Y-63370000D03*
X117300000Y-63450000D03*
X113600000Y-63440000D03*
X118390000Y-67130000D03*
X119400000Y-64940000D03*
X119020000Y-62120000D03*
X120030000Y-60270000D03*
X117860000Y-59040000D03*
X122380000Y-58200000D03*
X116320000Y-56360000D03*
X114520000Y-58240000D03*
X112700000Y-62000000D03*
X110900000Y-63600000D03*
X108500000Y-62200000D03*
X108180000Y-64330000D03*
X111590000Y-65410000D03*
X109190000Y-66650000D03*
X112740000Y-67100000D03*
X119970000Y-57660000D03*
X122500000Y-56340000D03*
X127490000Y-64520000D03*
X122816514Y-47584413D03*
G04 #@! TO.N,GND*
X80512653Y-52612653D03*
X83290000Y-55010000D03*
X115210000Y-42710000D03*
X117348000Y-41480000D03*
X119634000Y-42672000D03*
X122670000Y-41650000D03*
X119000000Y-39770000D03*
X120040000Y-37890000D03*
X117190000Y-36500000D03*
X114200000Y-36540000D03*
X118410000Y-34480000D03*
X117650000Y-32830000D03*
X119880000Y-32830000D03*
X119900000Y-36000000D03*
X122174000Y-36420000D03*
X125220000Y-38550000D03*
X127840000Y-40640000D03*
X127600000Y-37800000D03*
X125984000Y-35052000D03*
X127762000Y-33528000D03*
X125580000Y-33240000D03*
X121200000Y-47574990D03*
X98800000Y-38800000D03*
X105100000Y-49500000D03*
X99600000Y-44000000D03*
X103900000Y-34500000D03*
X103900000Y-40400000D03*
X90100000Y-44600000D03*
X95000000Y-42800000D03*
X94800000Y-35500000D03*
D47*
X91855000Y-37365384D03*
D48*
X100000000Y-33600000D03*
D47*
X89758051Y-33258051D03*
D48*
X104800000Y-38000000D03*
X98600000Y-50400000D03*
G04 #@! TO.N,Earth*
X72750000Y-51450000D03*
X77740000Y-44000000D03*
X77760000Y-45200000D03*
X76120000Y-44820000D03*
X74440000Y-45740000D03*
X73630000Y-44330000D03*
X72350001Y-45590000D03*
X71860000Y-43390000D03*
X72500000Y-41420000D03*
G04 #@! TO.N,+3V3*
X77800000Y-53900000D03*
X83100000Y-53500000D03*
X107900000Y-32500000D03*
X103200000Y-33600000D03*
D47*
X90262653Y-34662653D03*
X93700000Y-37400000D03*
D48*
G04 #@! TO.N,SDA*
X127600000Y-55200000D03*
D47*
X95000000Y-41400000D03*
D48*
G04 #@! TO.N,SCL*
X105900000Y-50200000D03*
D47*
X95000000Y-40300000D03*
X100000010Y-49600000D03*
G04 #@! TO.N,Net-(D1-Pad2)*
X76900000Y-58500000D03*
X76600000Y-56700000D03*
X77800000Y-57300000D03*
X78600000Y-58500000D03*
G04 #@! TO.N,Net-(Q1-Pad1)*
X79850000Y-42800000D03*
X73430000Y-48060000D03*
D48*
G04 #@! TO.N,VIOUT3*
X88825000Y-43300000D03*
D47*
X88800006Y-46700000D03*
D48*
G04 #@! TO.N,VIOUT2*
X96500000Y-54900000D03*
D47*
G04 #@! TO.N,Net-(C21-Pad1)*
X93400000Y-35000000D03*
X91100000Y-35000000D03*
D48*
G04 #@! TO.N,Net-(J2-Pad1)*
X74220000Y-32600000D03*
X79810000Y-32810000D03*
X80720000Y-34140000D03*
X73520000Y-34510000D03*
X74910000Y-37090000D03*
X73490000Y-39310000D03*
X72050000Y-38320000D03*
X77290000Y-36590000D03*
X78870000Y-35590000D03*
X81110000Y-37320000D03*
X82500000Y-36410000D03*
X79550000Y-39880000D03*
X81550000Y-46070000D03*
X83990000Y-46110000D03*
X86370000Y-46100000D03*
X86350000Y-44120000D03*
X83990000Y-44090000D03*
X81520000Y-44170000D03*
X86340000Y-42370000D03*
X84050000Y-42340000D03*
X81510000Y-42370000D03*
X72000000Y-33100000D03*
D47*
G04 #@! TO.N,USB-*
X95000000Y-39500000D03*
X101900000Y-43200000D03*
G04 #@! TO.N,USB+*
X94700000Y-38700000D03*
X101100000Y-42500000D03*
G04 #@! TO.N,SWCLK*
X94663783Y-32852319D03*
G04 #@! TO.N,SWDIO*
X88712653Y-37287347D03*
D48*
G04 #@! TO.N,Net-(R4-Pad2)*
X81800000Y-52500000D03*
X80350000Y-49750000D03*
G04 #@! TO.N,Net-(R11-Pad1)*
X92600000Y-44500000D03*
D47*
X92100000Y-47600000D03*
G04 #@! TD*
D49*
G04 #@! TO.N,+12V*
X123100000Y-55320000D02*
X123300000Y-55520000D01*
X123300000Y-55520000D02*
X125400000Y-57620000D01*
X123300000Y-55520000D02*
X122816514Y-55036514D01*
X122816514Y-55036514D02*
X122816514Y-48150098D01*
X122816514Y-48150098D02*
X122816514Y-47584413D01*
G04 #@! TO.N,GND*
X124870000Y-42380000D02*
X125400000Y-42380000D01*
X79650000Y-53700000D02*
X80150000Y-53700000D01*
X80150000Y-53700000D02*
X80650000Y-53700000D01*
X81150000Y-53700000D02*
X80650000Y-53700000D01*
X80650000Y-53700000D02*
X80650000Y-52750000D01*
X80650000Y-52750000D02*
X80512653Y-52612653D01*
X121975000Y-49775000D02*
X121975000Y-49725000D01*
X83260000Y-55040000D02*
X83290000Y-55010000D01*
X81840000Y-55040000D02*
X83260000Y-55040000D01*
D50*
X121950000Y-49725000D02*
X121950000Y-48324990D01*
X121950000Y-48324990D02*
X121599999Y-47974989D01*
X121599999Y-47974989D02*
X121200000Y-47574990D01*
D49*
X99492000Y-40500000D02*
X99492000Y-39492000D01*
X99492000Y-39492000D02*
X98800000Y-38800000D01*
X105900000Y-48500000D02*
X105900000Y-48700000D01*
X105900000Y-48700000D02*
X105100000Y-49500000D01*
X100700000Y-45700000D02*
X99900000Y-45700000D01*
X99900000Y-45700000D02*
X99600000Y-45400000D01*
X99600000Y-45400000D02*
X99600000Y-44000000D01*
X98950000Y-44000000D02*
X98550000Y-43600000D01*
X99600000Y-44000000D02*
X98950000Y-44000000D01*
X102050000Y-44000000D02*
X102200000Y-44150000D01*
X99600000Y-44000000D02*
X102050000Y-44000000D01*
X105542000Y-34500000D02*
X103900000Y-34500000D01*
X105542000Y-40400000D02*
X103900000Y-40400000D01*
X96642000Y-40400000D02*
X96642000Y-41692000D01*
X96642000Y-40400000D02*
X96642000Y-40058000D01*
X90130000Y-43325000D02*
X90130000Y-44570000D01*
X90130000Y-44570000D02*
X90100000Y-44600000D01*
X91850000Y-46400000D02*
X91850000Y-45400000D01*
X91050000Y-44600000D02*
X90100000Y-44600000D01*
X91850000Y-45400000D02*
X91050000Y-44600000D01*
X94250000Y-43550000D02*
X95000000Y-42800000D01*
X83312000Y-52000000D02*
X84800000Y-52000000D01*
X85950000Y-52000000D02*
X86200000Y-51750000D01*
X84800000Y-52000000D02*
X85950000Y-52000000D01*
X88712000Y-51750000D02*
X88900000Y-51562000D01*
X86200000Y-51750000D02*
X88712000Y-51750000D01*
X98600000Y-48500000D02*
X98600000Y-48900000D01*
X94950000Y-36400000D02*
X94950000Y-35650000D01*
X94950000Y-35650000D02*
X94800000Y-35500000D01*
X91630000Y-38375000D02*
X91630000Y-37590384D01*
X91630000Y-37590384D02*
X91855000Y-37365384D01*
X99100000Y-34500000D02*
X99600001Y-33999999D01*
X99600001Y-33999999D02*
X100000000Y-33600000D01*
X96642000Y-34500000D02*
X99100000Y-34500000D01*
X95800000Y-34500000D02*
X94800000Y-35500000D01*
X96642000Y-34500000D02*
X95800000Y-34500000D01*
X96642000Y-41158000D02*
X96642000Y-40400000D01*
X95000000Y-42800000D02*
X96642000Y-41158000D01*
X88900000Y-50875000D02*
X88900000Y-51562000D01*
X89500000Y-33300000D02*
X89800000Y-33300000D01*
X87700000Y-33500000D02*
X87900000Y-33300000D01*
X87900000Y-33300000D02*
X89500000Y-33300000D01*
X86025000Y-40700000D02*
X85900000Y-40575000D01*
X86050000Y-40700000D02*
X86025000Y-40700000D01*
X85900000Y-40275000D02*
X85900000Y-35639998D01*
X86000000Y-35700000D02*
X86025000Y-35700000D01*
X105542000Y-34500000D02*
X105542000Y-37258000D01*
X105542000Y-37258000D02*
X104800000Y-38000000D01*
X87700000Y-33700000D02*
X87700000Y-33500000D01*
X87700000Y-34139998D02*
X87700000Y-33700000D01*
X86025000Y-35775000D02*
X86064998Y-35775000D01*
X86064998Y-35775000D02*
X87700000Y-34139998D01*
X98600000Y-48500000D02*
X98600000Y-50400000D01*
X97500000Y-52350000D02*
X97500000Y-51350000D01*
X97650000Y-51350000D02*
X98600000Y-50400000D01*
X97500000Y-51350000D02*
X97650000Y-51350000D01*
X88900000Y-49673700D02*
X88476300Y-49250000D01*
X88900000Y-51562000D02*
X88900000Y-49673700D01*
X105900000Y-47450000D02*
X105900000Y-48500000D01*
X105900000Y-47000000D02*
X105900000Y-47450000D01*
G04 #@! TO.N,Earth*
X74350000Y-52600000D02*
X73900000Y-52600000D01*
X73900000Y-52600000D02*
X72750000Y-51450000D01*
G04 #@! TO.N,Net-(C3-Pad1)*
X117350000Y-46000000D02*
X117400000Y-45950000D01*
X115250000Y-46000000D02*
X117350000Y-46000000D01*
X117400000Y-45700000D02*
X117400000Y-45950000D01*
X127700000Y-46700000D02*
X127700000Y-45404000D01*
X126400000Y-48000000D02*
X127700000Y-46700000D01*
X127700000Y-45404000D02*
X126896000Y-44600000D01*
X118100000Y-45000000D02*
X117400000Y-45700000D01*
X126896000Y-44600000D02*
X123400000Y-44600000D01*
X123400000Y-44600000D02*
X123000000Y-45000000D01*
X123000000Y-45000000D02*
X118100000Y-45000000D01*
G04 #@! TO.N,Net-(C4-Pad1)*
X122350000Y-45950000D02*
X121600000Y-45950000D01*
X124400000Y-48000000D02*
X122350000Y-45950000D01*
X121600000Y-45950000D02*
X119500000Y-45950000D01*
G04 #@! TO.N,+3V3*
X77800000Y-54525000D02*
X77800000Y-53900000D01*
X77800000Y-52550000D02*
X78400000Y-51950000D01*
X77800000Y-53900000D02*
X77800000Y-52550000D01*
X77800000Y-54675000D02*
X77800000Y-54525000D01*
X78165000Y-55040000D02*
X77800000Y-54675000D01*
X78840000Y-55040000D02*
X78165000Y-55040000D01*
X83499999Y-53899999D02*
X95100001Y-53899999D01*
X83100000Y-53500000D02*
X83499999Y-53899999D01*
X95100001Y-53899999D02*
X95900000Y-53100000D01*
X97100000Y-49175000D02*
X97100000Y-49150000D01*
X95900000Y-50375000D02*
X97100000Y-49175000D01*
X95900000Y-53100000D02*
X95900000Y-50375000D01*
X90630000Y-36580000D02*
X90150000Y-36100000D01*
X90630000Y-38375000D02*
X90630000Y-36580000D01*
X109220000Y-32512000D02*
X107912000Y-32512000D01*
X107912000Y-32512000D02*
X107900000Y-32500000D01*
X102634315Y-33600000D02*
X103200000Y-33600000D01*
X101300000Y-33600000D02*
X102634315Y-33600000D01*
X98074999Y-36825001D02*
X101300000Y-33600000D01*
X90150000Y-36100000D02*
X90150000Y-34775306D01*
X90150000Y-34775306D02*
X90262653Y-34662653D01*
X97900000Y-37000000D02*
X98074999Y-36825001D01*
X97400000Y-37000000D02*
X97900000Y-37000000D01*
X93700000Y-37400000D02*
X97000000Y-37400000D01*
X97000000Y-37400000D02*
X97400000Y-37000000D01*
X97967001Y-37067001D02*
X97900000Y-37000000D01*
X97967001Y-42310001D02*
X97967001Y-37067001D01*
X97400000Y-42877002D02*
X97967001Y-42310001D01*
X97400000Y-43275000D02*
X97400000Y-42877002D01*
X97050000Y-43600000D02*
X97075000Y-43600000D01*
X97075000Y-43600000D02*
X97400000Y-43275000D01*
X97500000Y-49100000D02*
X96900000Y-48500000D01*
X97500000Y-49850000D02*
X97500000Y-49100000D01*
G04 #@! TO.N,Net-(D1-Pad1)*
X76350000Y-52850000D02*
X76400000Y-52800000D01*
X76350000Y-54100000D02*
X76350000Y-52850000D01*
X75750000Y-54450000D02*
X76000000Y-54450000D01*
X76000000Y-54450000D02*
X76350000Y-54100000D01*
G04 #@! TO.N,SDA*
X128000000Y-54800000D02*
X127600000Y-55200000D01*
X128000000Y-50900000D02*
X128000000Y-54800000D01*
X126400000Y-50000000D02*
X127100000Y-50000000D01*
X127100000Y-50000000D02*
X128000000Y-50900000D01*
D51*
X95000000Y-41188002D02*
X95000000Y-41400000D01*
X93855000Y-40600000D02*
X94411998Y-40600000D01*
X94411998Y-40600000D02*
X95000000Y-41188002D01*
D49*
G04 #@! TO.N,SCL*
X105900000Y-50765685D02*
X105900000Y-50200000D01*
X105900000Y-53165685D02*
X105900000Y-50765685D01*
X104365685Y-54700000D02*
X105900000Y-53165685D01*
X102100000Y-54700000D02*
X104365685Y-54700000D01*
X101092000Y-51562000D02*
X101092000Y-53692000D01*
X101092000Y-53692000D02*
X102100000Y-54700000D01*
D51*
X93855000Y-40100000D02*
X94800000Y-40100000D01*
X94800000Y-40100000D02*
X95000000Y-40300000D01*
X101092000Y-50742850D02*
X100000010Y-49650860D01*
X100000010Y-49650860D02*
X100000010Y-49600000D01*
X101092000Y-51562000D02*
X101092000Y-50742850D01*
D49*
G04 #@! TO.N,Net-(D1-Pad2)*
X74600000Y-57620000D02*
X74600000Y-57400000D01*
X74600000Y-57400000D02*
X73550000Y-56350000D01*
X73800000Y-54850000D02*
X74000000Y-54650000D01*
X72200000Y-54850000D02*
X73800000Y-54850000D01*
X74350000Y-57370000D02*
X74600000Y-57620000D01*
X74350000Y-54650000D02*
X74350000Y-57370000D01*
G04 #@! TO.N,Net-(Q1-Pad1)*
X71700000Y-48950000D02*
X72250000Y-48400000D01*
X71700000Y-52350000D02*
X71700000Y-48950000D01*
X72200000Y-53350000D02*
X72200000Y-52850000D01*
X72200000Y-52850000D02*
X71700000Y-52350000D01*
X77750000Y-42120000D02*
X79170000Y-42120000D01*
X79170000Y-42120000D02*
X79850000Y-42800000D01*
X73090000Y-48400000D02*
X73130001Y-48359999D01*
X73130001Y-48359999D02*
X73430000Y-48060000D01*
X72250000Y-48400000D02*
X73090000Y-48400000D01*
G04 #@! TO.N,VIOUT1*
X82050000Y-50000000D02*
X83312000Y-50000000D01*
X78900000Y-54450000D02*
X78900000Y-53150000D01*
X78900000Y-53150000D02*
X82050000Y-50000000D01*
X83312000Y-50000000D02*
X85000000Y-50000000D01*
X85950000Y-50000000D02*
X86200000Y-50250000D01*
X84800000Y-50000000D02*
X85950000Y-50000000D01*
X88230000Y-41600000D02*
X88905000Y-41600000D01*
X88093590Y-41600000D02*
X88230000Y-41600000D01*
X87575001Y-42118589D02*
X88093590Y-41600000D01*
X87575001Y-48124999D02*
X87575001Y-42118589D01*
X86200000Y-50250000D02*
X86200000Y-49500000D01*
X86200000Y-49500000D02*
X87575001Y-48124999D01*
G04 #@! TO.N,VIOUT3*
X88905000Y-42600000D02*
X88905000Y-43220000D01*
X88905000Y-43220000D02*
X88825000Y-43300000D01*
X88447150Y-47750000D02*
X88700000Y-47750000D01*
X91440000Y-51562000D02*
X91440000Y-50742850D01*
X91440000Y-50742850D02*
X88447150Y-47750000D01*
X88800000Y-46825320D02*
X88800000Y-46700006D01*
X88700000Y-46800006D02*
X88800006Y-46700000D01*
X88700000Y-47750000D02*
X88700000Y-46800006D01*
X88800000Y-46700006D02*
X88800006Y-46700000D01*
G04 #@! TO.N,VIOUT2*
X97300000Y-54100000D02*
X96500000Y-54900000D01*
X88230000Y-42100000D02*
X88905000Y-42100000D01*
X88100000Y-42230000D02*
X88230000Y-42100000D01*
X88100000Y-44974996D02*
X88100000Y-42230000D01*
X92637150Y-49400000D02*
X91400000Y-49400000D01*
X91400000Y-49400000D02*
X89900000Y-47900000D01*
X93980000Y-51562000D02*
X93980000Y-50742850D01*
X89900000Y-47900000D02*
X89900000Y-46774996D01*
X93980000Y-50742850D02*
X92637150Y-49400000D01*
X89900000Y-46774996D02*
X88100000Y-44974996D01*
G04 #@! TO.N,3V3_FILT*
X94950000Y-45700000D02*
X94950000Y-45650000D01*
X94950000Y-45650000D02*
X94600000Y-45300000D01*
X94500000Y-45400000D02*
X93350000Y-45400000D01*
X94600000Y-45300000D02*
X94500000Y-45400000D01*
X93100000Y-46650000D02*
X93350000Y-46400000D01*
X89630000Y-43610000D02*
X89300000Y-43940000D01*
X89630000Y-43325000D02*
X89630000Y-43610000D01*
X89300000Y-43940000D02*
X89300000Y-45210002D01*
X89300000Y-45210002D02*
X91189998Y-47100000D01*
X91189998Y-47100000D02*
X92700000Y-47100000D01*
X92700000Y-47100000D02*
X93100000Y-46650000D01*
G04 #@! TO.N,Net-(C18-Pad1)*
X86950000Y-37100000D02*
X86900000Y-37050000D01*
X87500000Y-37100000D02*
X86950000Y-37100000D01*
X88905000Y-39100000D02*
X88905000Y-38505000D01*
X88905000Y-38505000D02*
X87500000Y-37100000D01*
X87500000Y-36750000D02*
X87200000Y-37050000D01*
X87500000Y-36450000D02*
X87200000Y-36750000D01*
X87500000Y-35600000D02*
X87500000Y-36450000D01*
G04 #@! TO.N,Net-(C19-Pad1)*
X86950000Y-39600000D02*
X88905000Y-39600000D01*
X86900000Y-39550000D02*
X86950000Y-39600000D01*
X87550000Y-39900000D02*
X87200000Y-39550000D01*
X87550000Y-40700000D02*
X87550000Y-39900000D01*
G04 #@! TO.N,Net-(C21-Pad1)*
X93501484Y-36451484D02*
X93450000Y-36400000D01*
X93450000Y-35050000D02*
X93400000Y-35000000D01*
X93450000Y-36400000D02*
X93450000Y-35050000D01*
X91130000Y-38375000D02*
X91130000Y-35470000D01*
X91130000Y-35470000D02*
X91130000Y-35030000D01*
X91130000Y-35030000D02*
X91100000Y-35000000D01*
G04 #@! TO.N,Net-(D2-Pad1)*
X120050000Y-53225000D02*
X120475000Y-53650000D01*
D50*
X120050000Y-50000000D02*
X120050000Y-53225000D01*
D49*
G04 #@! TO.N,Net-(D3-Pad2)*
X101050000Y-48750000D02*
X100800000Y-48500000D01*
X102300000Y-48750000D02*
X101050000Y-48750000D01*
G04 #@! TO.N,Net-(D4-Pad1)*
X93550000Y-48500000D02*
X94700000Y-48500000D01*
G04 #@! TO.N,Net-(F1-Pad2)*
X106000000Y-45350000D02*
X105850000Y-45500000D01*
D50*
X106000000Y-43500000D02*
X106000000Y-45350000D01*
D49*
G04 #@! TO.N,Net-(F1-Pad1)*
X103600000Y-43500000D02*
X103500000Y-43500000D01*
D50*
X102692000Y-42692000D02*
X102692000Y-40500000D01*
X103500000Y-43500000D02*
X102692000Y-42692000D01*
D51*
G04 #@! TO.N,USB-*
X94900000Y-39600000D02*
X95000000Y-39500000D01*
X93855000Y-39600000D02*
X94900000Y-39600000D01*
X101900000Y-40508000D02*
X101892000Y-40500000D01*
X101900000Y-43200000D02*
X101900000Y-40508000D01*
G04 #@! TO.N,USB+*
X93855000Y-39100000D02*
X94300000Y-39100000D01*
X94300000Y-39100000D02*
X94700000Y-38700000D01*
X101100000Y-40508000D02*
X101092000Y-40500000D01*
X101100000Y-42500000D02*
X101100000Y-40508000D01*
D49*
G04 #@! TO.N,~RESET~*
X92630000Y-36680000D02*
X92050000Y-36100000D01*
X92630000Y-38375000D02*
X92630000Y-36680000D01*
X92050000Y-36100000D02*
X92050000Y-35800000D01*
X92050000Y-34550000D02*
X93100000Y-33500000D01*
X92050000Y-36100000D02*
X92050000Y-34550000D01*
X94350000Y-33500000D02*
X93100000Y-33500000D01*
X94375001Y-33525001D02*
X94350000Y-33500000D01*
X94874999Y-33525001D02*
X94375001Y-33525001D01*
X95283001Y-33116999D02*
X94874999Y-33525001D01*
X95316999Y-33116999D02*
X95283001Y-33116999D01*
X95600000Y-32800000D02*
X95300000Y-33100000D01*
X106677002Y-32800000D02*
X95600000Y-32800000D01*
X107700000Y-33822998D02*
X106677002Y-32800000D01*
X108617001Y-38417001D02*
X107700000Y-37500000D01*
X109664999Y-38417001D02*
X108617001Y-38417001D01*
X110490000Y-37592000D02*
X109664999Y-38417001D01*
X95300000Y-33100000D02*
X95316999Y-33116999D01*
X107700000Y-37500000D02*
X107700000Y-33822998D01*
G04 #@! TO.N,SWCLK*
X94652319Y-32852319D02*
X94663783Y-32852319D01*
X90130000Y-37631692D02*
X89425001Y-36926693D01*
X90130000Y-38375000D02*
X90130000Y-37631692D01*
X89425001Y-36926693D02*
X89425001Y-34474999D01*
X89425001Y-34474999D02*
X91525001Y-32374999D01*
X94663783Y-32852319D02*
X94663783Y-32763783D01*
X94274999Y-32374999D02*
X91525001Y-32374999D01*
X94663783Y-32763783D02*
X94274999Y-32374999D01*
G04 #@! TO.N,SWDIO*
X89630000Y-38375000D02*
X89630000Y-38204694D01*
X89630000Y-38204694D02*
X88712653Y-37287347D01*
G04 #@! TO.N,Net-(R4-Pad2)*
X81800000Y-54350000D02*
X81900000Y-54450000D01*
X81800000Y-52500000D02*
X81800000Y-54350000D01*
X80300000Y-49700000D02*
X80350000Y-49750000D01*
X78400000Y-50050000D02*
X78750000Y-49700000D01*
X78750000Y-49700000D02*
X80300000Y-49700000D01*
G04 #@! TO.N,Net-(R5-Pad1)*
X74600000Y-50000000D02*
X74890000Y-50000000D01*
X75710000Y-49180000D02*
X75710000Y-48130000D01*
X74890000Y-50000000D02*
X75710000Y-49180000D01*
G04 #@! TO.N,Net-(R11-Pad1)*
X92130000Y-43325000D02*
X92130000Y-44000000D01*
X92130000Y-44000000D02*
X92130000Y-44030000D01*
X92130000Y-44030000D02*
X92600000Y-44500000D01*
X92150000Y-47650000D02*
X92100000Y-47600000D01*
X92150000Y-48500000D02*
X92150000Y-47650000D01*
G04 #@! TD*
D52*
G04 #@! TO.N,GND*
G36*
X127633178Y-32103647D02*
X128031533Y-32284769D01*
X128363041Y-32570415D01*
X128601054Y-32937623D01*
X128681512Y-33206656D01*
X128748000Y-42046257D01*
X128748000Y-43221118D01*
X128663118Y-43590629D01*
X128406436Y-43900089D01*
X128023956Y-44067105D01*
X127219201Y-44212207D01*
X127091870Y-44127127D01*
X126945439Y-44098000D01*
X126945434Y-44098000D01*
X126896000Y-44088167D01*
X126846566Y-44098000D01*
X123449433Y-44098000D01*
X123399999Y-44088167D01*
X123350565Y-44098000D01*
X123350561Y-44098000D01*
X123204130Y-44127127D01*
X123204129Y-44127128D01*
X123204128Y-44127128D01*
X123120510Y-44183000D01*
X123038079Y-44238079D01*
X123010074Y-44279991D01*
X122792066Y-44498000D01*
X122618000Y-44498000D01*
X122618000Y-44289750D01*
X122536250Y-44208000D01*
X121978500Y-44208000D01*
X121978500Y-44351000D01*
X121353500Y-44351000D01*
X121353500Y-44208000D01*
X120795750Y-44208000D01*
X120714000Y-44289750D01*
X120714000Y-44498000D01*
X120579952Y-44498000D01*
X120611000Y-44423044D01*
X120611000Y-44264750D01*
X120529250Y-44183000D01*
X119959000Y-44183000D01*
X119959000Y-44358000D01*
X119309000Y-44358000D01*
X119309000Y-44183000D01*
X118738750Y-44183000D01*
X118657000Y-44264750D01*
X118657000Y-44423044D01*
X118688048Y-44498000D01*
X118293952Y-44498000D01*
X118325000Y-44423044D01*
X118325000Y-44264750D01*
X118243250Y-44183000D01*
X117673000Y-44183000D01*
X117673000Y-44603250D01*
X117725963Y-44656213D01*
X117710075Y-44679991D01*
X117454825Y-44935241D01*
X114198132Y-44887591D01*
X113856869Y-44815223D01*
X113578915Y-44626029D01*
X113393387Y-44345614D01*
X113382306Y-44289750D01*
X114364000Y-44289750D01*
X114364000Y-44523044D01*
X114413783Y-44643230D01*
X114505769Y-44735217D01*
X114625955Y-44785000D01*
X114921750Y-44785000D01*
X115003500Y-44703250D01*
X115003500Y-44208000D01*
X115628500Y-44208000D01*
X115628500Y-44703250D01*
X115710250Y-44785000D01*
X116006045Y-44785000D01*
X116126231Y-44735217D01*
X116218217Y-44643230D01*
X116268000Y-44523044D01*
X116268000Y-44289750D01*
X116243000Y-44264750D01*
X116371000Y-44264750D01*
X116371000Y-44423044D01*
X116420783Y-44543230D01*
X116512769Y-44635217D01*
X116632955Y-44685000D01*
X116941250Y-44685000D01*
X117023000Y-44603250D01*
X117023000Y-44183000D01*
X116452750Y-44183000D01*
X116371000Y-44264750D01*
X116243000Y-44264750D01*
X116186250Y-44208000D01*
X115628500Y-44208000D01*
X115003500Y-44208000D01*
X114445750Y-44208000D01*
X114364000Y-44289750D01*
X113382306Y-44289750D01*
X113325507Y-44003430D01*
X113324593Y-43392956D01*
X114364000Y-43392956D01*
X114364000Y-43626250D01*
X114445750Y-43708000D01*
X115003500Y-43708000D01*
X115003500Y-43212750D01*
X115628500Y-43212750D01*
X115628500Y-43708000D01*
X116186250Y-43708000D01*
X116268000Y-43626250D01*
X116268000Y-43592956D01*
X116371000Y-43592956D01*
X116371000Y-43751250D01*
X116452750Y-43833000D01*
X117023000Y-43833000D01*
X117023000Y-43412750D01*
X117673000Y-43412750D01*
X117673000Y-43833000D01*
X118243250Y-43833000D01*
X118325000Y-43751250D01*
X118325000Y-43592956D01*
X118657000Y-43592956D01*
X118657000Y-43751250D01*
X118738750Y-43833000D01*
X119309000Y-43833000D01*
X119309000Y-43412750D01*
X119959000Y-43412750D01*
X119959000Y-43833000D01*
X120529250Y-43833000D01*
X120611000Y-43751250D01*
X120611000Y-43592956D01*
X120561217Y-43472770D01*
X120481404Y-43392956D01*
X120714000Y-43392956D01*
X120714000Y-43626250D01*
X120795750Y-43708000D01*
X121353500Y-43708000D01*
X121353500Y-43212750D01*
X121978500Y-43212750D01*
X121978500Y-43708000D01*
X122536250Y-43708000D01*
X122618000Y-43626250D01*
X122618000Y-43392956D01*
X122568217Y-43272770D01*
X122476231Y-43180783D01*
X122356045Y-43131000D01*
X122060250Y-43131000D01*
X121978500Y-43212750D01*
X121353500Y-43212750D01*
X121271750Y-43131000D01*
X120975955Y-43131000D01*
X120855769Y-43180783D01*
X120763783Y-43272770D01*
X120714000Y-43392956D01*
X120481404Y-43392956D01*
X120469231Y-43380783D01*
X120349045Y-43331000D01*
X120040750Y-43331000D01*
X119959000Y-43412750D01*
X119309000Y-43412750D01*
X119227250Y-43331000D01*
X118918955Y-43331000D01*
X118798769Y-43380783D01*
X118706783Y-43472770D01*
X118657000Y-43592956D01*
X118325000Y-43592956D01*
X118275217Y-43472770D01*
X118183231Y-43380783D01*
X118063045Y-43331000D01*
X117754750Y-43331000D01*
X117673000Y-43412750D01*
X117023000Y-43412750D01*
X116941250Y-43331000D01*
X116632955Y-43331000D01*
X116512769Y-43380783D01*
X116420783Y-43472770D01*
X116371000Y-43592956D01*
X116268000Y-43592956D01*
X116268000Y-43392956D01*
X116218217Y-43272770D01*
X116126231Y-43180783D01*
X116006045Y-43131000D01*
X115710250Y-43131000D01*
X115628500Y-43212750D01*
X115003500Y-43212750D01*
X114921750Y-43131000D01*
X114625955Y-43131000D01*
X114505769Y-43180783D01*
X114413783Y-43272770D01*
X114364000Y-43392956D01*
X113324593Y-43392956D01*
X113320363Y-40568850D01*
X114453652Y-40568850D01*
X114662914Y-40779854D01*
X115407373Y-40962796D01*
X116165173Y-40846920D01*
X116327086Y-40779854D01*
X116536348Y-40568850D01*
X121463652Y-40568850D01*
X121672914Y-40779854D01*
X122417373Y-40962796D01*
X123175173Y-40846920D01*
X123337086Y-40779854D01*
X123546348Y-40568850D01*
X122505000Y-39527502D01*
X121463652Y-40568850D01*
X116536348Y-40568850D01*
X115495000Y-39527502D01*
X114453652Y-40568850D01*
X113320363Y-40568850D01*
X113317881Y-38912373D01*
X113532204Y-38912373D01*
X113648080Y-39670173D01*
X113715146Y-39832086D01*
X113926150Y-40041348D01*
X114967498Y-39000000D01*
X116022502Y-39000000D01*
X117063850Y-40041348D01*
X117274854Y-39832086D01*
X117457796Y-39087627D01*
X117430998Y-38912373D01*
X120542204Y-38912373D01*
X120658080Y-39670173D01*
X120725146Y-39832086D01*
X120936150Y-40041348D01*
X121977498Y-39000000D01*
X123032502Y-39000000D01*
X124073850Y-40041348D01*
X124284854Y-39832086D01*
X124467796Y-39087627D01*
X124351920Y-38329827D01*
X124284854Y-38167914D01*
X124073850Y-37958652D01*
X123032502Y-39000000D01*
X121977498Y-39000000D01*
X120936150Y-37958652D01*
X120725146Y-38167914D01*
X120542204Y-38912373D01*
X117430998Y-38912373D01*
X117341920Y-38329827D01*
X117274854Y-38167914D01*
X117063850Y-37958652D01*
X116022502Y-39000000D01*
X114967498Y-39000000D01*
X113926150Y-37958652D01*
X113715146Y-38167914D01*
X113532204Y-38912373D01*
X113317881Y-38912373D01*
X113315662Y-37431150D01*
X114453652Y-37431150D01*
X115495000Y-38472498D01*
X116536348Y-37431150D01*
X121463652Y-37431150D01*
X122505000Y-38472498D01*
X123546348Y-37431150D01*
X123337086Y-37220146D01*
X122592627Y-37037204D01*
X121834827Y-37153080D01*
X121672914Y-37220146D01*
X121463652Y-37431150D01*
X116536348Y-37431150D01*
X116327086Y-37220146D01*
X115582627Y-37037204D01*
X114824827Y-37153080D01*
X114662914Y-37220146D01*
X114453652Y-37431150D01*
X113315662Y-37431150D01*
X113312872Y-35568850D01*
X114453652Y-35568850D01*
X114662914Y-35779854D01*
X115407373Y-35962796D01*
X116165173Y-35846920D01*
X116327086Y-35779854D01*
X116536348Y-35568850D01*
X121463652Y-35568850D01*
X121672914Y-35779854D01*
X122417373Y-35962796D01*
X123175173Y-35846920D01*
X123337086Y-35779854D01*
X123546348Y-35568850D01*
X122505000Y-34527502D01*
X121463652Y-35568850D01*
X116536348Y-35568850D01*
X115495000Y-34527502D01*
X114453652Y-35568850D01*
X113312872Y-35568850D01*
X113310390Y-33912373D01*
X113532204Y-33912373D01*
X113648080Y-34670173D01*
X113715146Y-34832086D01*
X113926150Y-35041348D01*
X114967498Y-34000000D01*
X116022502Y-34000000D01*
X117063850Y-35041348D01*
X117274854Y-34832086D01*
X117457796Y-34087627D01*
X117430998Y-33912373D01*
X120542204Y-33912373D01*
X120658080Y-34670173D01*
X120725146Y-34832086D01*
X120936150Y-35041348D01*
X121977498Y-34000000D01*
X123032502Y-34000000D01*
X124073850Y-35041348D01*
X124284854Y-34832086D01*
X124467796Y-34087627D01*
X124351920Y-33329827D01*
X124284854Y-33167914D01*
X124073850Y-32958652D01*
X123032502Y-34000000D01*
X121977498Y-34000000D01*
X120936150Y-32958652D01*
X120725146Y-33167914D01*
X120542204Y-33912373D01*
X117430998Y-33912373D01*
X117341920Y-33329827D01*
X117274854Y-33167914D01*
X117063850Y-32958652D01*
X116022502Y-34000000D01*
X114967498Y-34000000D01*
X113926150Y-32958652D01*
X113715146Y-33167914D01*
X113532204Y-33912373D01*
X113310390Y-33912373D01*
X113308531Y-32671630D01*
X113356278Y-32431150D01*
X114453652Y-32431150D01*
X115495000Y-33472498D01*
X116536348Y-32431150D01*
X121463652Y-32431150D01*
X122505000Y-33472498D01*
X123546348Y-32431150D01*
X123337086Y-32220146D01*
X122592627Y-32037204D01*
X121834827Y-32153080D01*
X121672914Y-32220146D01*
X121463652Y-32431150D01*
X116536348Y-32431150D01*
X116327086Y-32220146D01*
X115582627Y-32037204D01*
X114824827Y-32153080D01*
X114662914Y-32220146D01*
X114453652Y-32431150D01*
X113356278Y-32431150D01*
X113377557Y-32323980D01*
X113567899Y-32040313D01*
X113572903Y-32037000D01*
X127167798Y-32037000D01*
X127633178Y-32103647D01*
X127633178Y-32103647D01*
G37*
X127633178Y-32103647D02*
X128031533Y-32284769D01*
X128363041Y-32570415D01*
X128601054Y-32937623D01*
X128681512Y-33206656D01*
X128748000Y-42046257D01*
X128748000Y-43221118D01*
X128663118Y-43590629D01*
X128406436Y-43900089D01*
X128023956Y-44067105D01*
X127219201Y-44212207D01*
X127091870Y-44127127D01*
X126945439Y-44098000D01*
X126945434Y-44098000D01*
X126896000Y-44088167D01*
X126846566Y-44098000D01*
X123449433Y-44098000D01*
X123399999Y-44088167D01*
X123350565Y-44098000D01*
X123350561Y-44098000D01*
X123204130Y-44127127D01*
X123204129Y-44127128D01*
X123204128Y-44127128D01*
X123120510Y-44183000D01*
X123038079Y-44238079D01*
X123010074Y-44279991D01*
X122792066Y-44498000D01*
X122618000Y-44498000D01*
X122618000Y-44289750D01*
X122536250Y-44208000D01*
X121978500Y-44208000D01*
X121978500Y-44351000D01*
X121353500Y-44351000D01*
X121353500Y-44208000D01*
X120795750Y-44208000D01*
X120714000Y-44289750D01*
X120714000Y-44498000D01*
X120579952Y-44498000D01*
X120611000Y-44423044D01*
X120611000Y-44264750D01*
X120529250Y-44183000D01*
X119959000Y-44183000D01*
X119959000Y-44358000D01*
X119309000Y-44358000D01*
X119309000Y-44183000D01*
X118738750Y-44183000D01*
X118657000Y-44264750D01*
X118657000Y-44423044D01*
X118688048Y-44498000D01*
X118293952Y-44498000D01*
X118325000Y-44423044D01*
X118325000Y-44264750D01*
X118243250Y-44183000D01*
X117673000Y-44183000D01*
X117673000Y-44603250D01*
X117725963Y-44656213D01*
X117710075Y-44679991D01*
X117454825Y-44935241D01*
X114198132Y-44887591D01*
X113856869Y-44815223D01*
X113578915Y-44626029D01*
X113393387Y-44345614D01*
X113382306Y-44289750D01*
X114364000Y-44289750D01*
X114364000Y-44523044D01*
X114413783Y-44643230D01*
X114505769Y-44735217D01*
X114625955Y-44785000D01*
X114921750Y-44785000D01*
X115003500Y-44703250D01*
X115003500Y-44208000D01*
X115628500Y-44208000D01*
X115628500Y-44703250D01*
X115710250Y-44785000D01*
X116006045Y-44785000D01*
X116126231Y-44735217D01*
X116218217Y-44643230D01*
X116268000Y-44523044D01*
X116268000Y-44289750D01*
X116243000Y-44264750D01*
X116371000Y-44264750D01*
X116371000Y-44423044D01*
X116420783Y-44543230D01*
X116512769Y-44635217D01*
X116632955Y-44685000D01*
X116941250Y-44685000D01*
X117023000Y-44603250D01*
X117023000Y-44183000D01*
X116452750Y-44183000D01*
X116371000Y-44264750D01*
X116243000Y-44264750D01*
X116186250Y-44208000D01*
X115628500Y-44208000D01*
X115003500Y-44208000D01*
X114445750Y-44208000D01*
X114364000Y-44289750D01*
X113382306Y-44289750D01*
X113325507Y-44003430D01*
X113324593Y-43392956D01*
X114364000Y-43392956D01*
X114364000Y-43626250D01*
X114445750Y-43708000D01*
X115003500Y-43708000D01*
X115003500Y-43212750D01*
X115628500Y-43212750D01*
X115628500Y-43708000D01*
X116186250Y-43708000D01*
X116268000Y-43626250D01*
X116268000Y-43592956D01*
X116371000Y-43592956D01*
X116371000Y-43751250D01*
X116452750Y-43833000D01*
X117023000Y-43833000D01*
X117023000Y-43412750D01*
X117673000Y-43412750D01*
X117673000Y-43833000D01*
X118243250Y-43833000D01*
X118325000Y-43751250D01*
X118325000Y-43592956D01*
X118657000Y-43592956D01*
X118657000Y-43751250D01*
X118738750Y-43833000D01*
X119309000Y-43833000D01*
X119309000Y-43412750D01*
X119959000Y-43412750D01*
X119959000Y-43833000D01*
X120529250Y-43833000D01*
X120611000Y-43751250D01*
X120611000Y-43592956D01*
X120561217Y-43472770D01*
X120481404Y-43392956D01*
X120714000Y-43392956D01*
X120714000Y-43626250D01*
X120795750Y-43708000D01*
X121353500Y-43708000D01*
X121353500Y-43212750D01*
X121978500Y-43212750D01*
X121978500Y-43708000D01*
X122536250Y-43708000D01*
X122618000Y-43626250D01*
X122618000Y-43392956D01*
X122568217Y-43272770D01*
X122476231Y-43180783D01*
X122356045Y-43131000D01*
X122060250Y-43131000D01*
X121978500Y-43212750D01*
X121353500Y-43212750D01*
X121271750Y-43131000D01*
X120975955Y-43131000D01*
X120855769Y-43180783D01*
X120763783Y-43272770D01*
X120714000Y-43392956D01*
X120481404Y-43392956D01*
X120469231Y-43380783D01*
X120349045Y-43331000D01*
X120040750Y-43331000D01*
X119959000Y-43412750D01*
X119309000Y-43412750D01*
X119227250Y-43331000D01*
X118918955Y-43331000D01*
X118798769Y-43380783D01*
X118706783Y-43472770D01*
X118657000Y-43592956D01*
X118325000Y-43592956D01*
X118275217Y-43472770D01*
X118183231Y-43380783D01*
X118063045Y-43331000D01*
X117754750Y-43331000D01*
X117673000Y-43412750D01*
X117023000Y-43412750D01*
X116941250Y-43331000D01*
X116632955Y-43331000D01*
X116512769Y-43380783D01*
X116420783Y-43472770D01*
X116371000Y-43592956D01*
X116268000Y-43592956D01*
X116268000Y-43392956D01*
X116218217Y-43272770D01*
X116126231Y-43180783D01*
X116006045Y-43131000D01*
X115710250Y-43131000D01*
X115628500Y-43212750D01*
X115003500Y-43212750D01*
X114921750Y-43131000D01*
X114625955Y-43131000D01*
X114505769Y-43180783D01*
X114413783Y-43272770D01*
X114364000Y-43392956D01*
X113324593Y-43392956D01*
X113320363Y-40568850D01*
X114453652Y-40568850D01*
X114662914Y-40779854D01*
X115407373Y-40962796D01*
X116165173Y-40846920D01*
X116327086Y-40779854D01*
X116536348Y-40568850D01*
X121463652Y-40568850D01*
X121672914Y-40779854D01*
X122417373Y-40962796D01*
X123175173Y-40846920D01*
X123337086Y-40779854D01*
X123546348Y-40568850D01*
X122505000Y-39527502D01*
X121463652Y-40568850D01*
X116536348Y-40568850D01*
X115495000Y-39527502D01*
X114453652Y-40568850D01*
X113320363Y-40568850D01*
X113317881Y-38912373D01*
X113532204Y-38912373D01*
X113648080Y-39670173D01*
X113715146Y-39832086D01*
X113926150Y-40041348D01*
X114967498Y-39000000D01*
X116022502Y-39000000D01*
X117063850Y-40041348D01*
X117274854Y-39832086D01*
X117457796Y-39087627D01*
X117430998Y-38912373D01*
X120542204Y-38912373D01*
X120658080Y-39670173D01*
X120725146Y-39832086D01*
X120936150Y-40041348D01*
X121977498Y-39000000D01*
X123032502Y-39000000D01*
X124073850Y-40041348D01*
X124284854Y-39832086D01*
X124467796Y-39087627D01*
X124351920Y-38329827D01*
X124284854Y-38167914D01*
X124073850Y-37958652D01*
X123032502Y-39000000D01*
X121977498Y-39000000D01*
X120936150Y-37958652D01*
X120725146Y-38167914D01*
X120542204Y-38912373D01*
X117430998Y-38912373D01*
X117341920Y-38329827D01*
X117274854Y-38167914D01*
X117063850Y-37958652D01*
X116022502Y-39000000D01*
X114967498Y-39000000D01*
X113926150Y-37958652D01*
X113715146Y-38167914D01*
X113532204Y-38912373D01*
X113317881Y-38912373D01*
X113315662Y-37431150D01*
X114453652Y-37431150D01*
X115495000Y-38472498D01*
X116536348Y-37431150D01*
X121463652Y-37431150D01*
X122505000Y-38472498D01*
X123546348Y-37431150D01*
X123337086Y-37220146D01*
X122592627Y-37037204D01*
X121834827Y-37153080D01*
X121672914Y-37220146D01*
X121463652Y-37431150D01*
X116536348Y-37431150D01*
X116327086Y-37220146D01*
X115582627Y-37037204D01*
X114824827Y-37153080D01*
X114662914Y-37220146D01*
X114453652Y-37431150D01*
X113315662Y-37431150D01*
X113312872Y-35568850D01*
X114453652Y-35568850D01*
X114662914Y-35779854D01*
X115407373Y-35962796D01*
X116165173Y-35846920D01*
X116327086Y-35779854D01*
X116536348Y-35568850D01*
X121463652Y-35568850D01*
X121672914Y-35779854D01*
X122417373Y-35962796D01*
X123175173Y-35846920D01*
X123337086Y-35779854D01*
X123546348Y-35568850D01*
X122505000Y-34527502D01*
X121463652Y-35568850D01*
X116536348Y-35568850D01*
X115495000Y-34527502D01*
X114453652Y-35568850D01*
X113312872Y-35568850D01*
X113310390Y-33912373D01*
X113532204Y-33912373D01*
X113648080Y-34670173D01*
X113715146Y-34832086D01*
X113926150Y-35041348D01*
X114967498Y-34000000D01*
X116022502Y-34000000D01*
X117063850Y-35041348D01*
X117274854Y-34832086D01*
X117457796Y-34087627D01*
X117430998Y-33912373D01*
X120542204Y-33912373D01*
X120658080Y-34670173D01*
X120725146Y-34832086D01*
X120936150Y-35041348D01*
X121977498Y-34000000D01*
X123032502Y-34000000D01*
X124073850Y-35041348D01*
X124284854Y-34832086D01*
X124467796Y-34087627D01*
X124351920Y-33329827D01*
X124284854Y-33167914D01*
X124073850Y-32958652D01*
X123032502Y-34000000D01*
X121977498Y-34000000D01*
X120936150Y-32958652D01*
X120725146Y-33167914D01*
X120542204Y-33912373D01*
X117430998Y-33912373D01*
X117341920Y-33329827D01*
X117274854Y-33167914D01*
X117063850Y-32958652D01*
X116022502Y-34000000D01*
X114967498Y-34000000D01*
X113926150Y-32958652D01*
X113715146Y-33167914D01*
X113532204Y-33912373D01*
X113310390Y-33912373D01*
X113308531Y-32671630D01*
X113356278Y-32431150D01*
X114453652Y-32431150D01*
X115495000Y-33472498D01*
X116536348Y-32431150D01*
X121463652Y-32431150D01*
X122505000Y-33472498D01*
X123546348Y-32431150D01*
X123337086Y-32220146D01*
X122592627Y-32037204D01*
X121834827Y-32153080D01*
X121672914Y-32220146D01*
X121463652Y-32431150D01*
X116536348Y-32431150D01*
X116327086Y-32220146D01*
X115582627Y-32037204D01*
X114824827Y-32153080D01*
X114662914Y-32220146D01*
X114453652Y-32431150D01*
X113356278Y-32431150D01*
X113377557Y-32323980D01*
X113567899Y-32040313D01*
X113572903Y-32037000D01*
X127167798Y-32037000D01*
X127633178Y-32103647D01*
G04 #@! TO.N,Net-(D1-Pad2)*
G36*
X79232064Y-56214321D02*
X79406853Y-56233648D01*
X79568666Y-56284571D01*
X79717564Y-56365844D01*
X79847920Y-56474399D01*
X79954800Y-56606125D01*
X80034171Y-56756051D01*
X80057157Y-56832484D01*
X80057157Y-57155000D01*
X80066819Y-57253100D01*
X80095434Y-57347430D01*
X80100121Y-57356199D01*
X80100121Y-58908199D01*
X80089897Y-58946160D01*
X80074341Y-58961597D01*
X80036300Y-58971529D01*
X71458296Y-58905558D01*
X71284666Y-58887372D01*
X71256000Y-58878577D01*
X71256000Y-56137831D01*
X71279352Y-56130933D01*
X71459226Y-56115199D01*
X79232064Y-56214321D01*
X79232064Y-56214321D01*
G37*
X79232064Y-56214321D02*
X79406853Y-56233648D01*
X79568666Y-56284571D01*
X79717564Y-56365844D01*
X79847920Y-56474399D01*
X79954800Y-56606125D01*
X80034171Y-56756051D01*
X80057157Y-56832484D01*
X80057157Y-57155000D01*
X80066819Y-57253100D01*
X80095434Y-57347430D01*
X80100121Y-57356199D01*
X80100121Y-58908199D01*
X80089897Y-58946160D01*
X80074341Y-58961597D01*
X80036300Y-58971529D01*
X71458296Y-58905558D01*
X71284666Y-58887372D01*
X71256000Y-58878577D01*
X71256000Y-56137831D01*
X71279352Y-56130933D01*
X71459226Y-56115199D01*
X79232064Y-56214321D01*
G04 #@! TO.N,/+48V*
G36*
X84396097Y-56126221D02*
X84572250Y-56143682D01*
X84735638Y-56193303D01*
X84886224Y-56273795D01*
X85018253Y-56382085D01*
X85126656Y-56514016D01*
X85207283Y-56664534D01*
X85257046Y-56827874D01*
X85274661Y-57004013D01*
X85278783Y-59495078D01*
X85278784Y-59497226D01*
X85273632Y-67694570D01*
X85256163Y-67870893D01*
X85229392Y-67959000D01*
X72822306Y-67959000D01*
X72500526Y-67927449D01*
X72212460Y-67840477D01*
X71946773Y-67699208D01*
X71713583Y-67509022D01*
X71521778Y-67277169D01*
X71378660Y-67012478D01*
X71289678Y-66725025D01*
X71256000Y-66404598D01*
X71256000Y-59440796D01*
X71399972Y-59426619D01*
X73071660Y-59425981D01*
X80049196Y-59479643D01*
X80148373Y-59467297D01*
X80235766Y-59444480D01*
X80407889Y-59346278D01*
X80472002Y-59282656D01*
X80571523Y-59111297D01*
X80595012Y-59024082D01*
X80608121Y-58925000D01*
X80608121Y-57269780D01*
X80613181Y-57253100D01*
X80622843Y-57155000D01*
X80622843Y-56751992D01*
X80649871Y-56662938D01*
X80730566Y-56512057D01*
X80839156Y-56379830D01*
X80971463Y-56271345D01*
X81122407Y-56190768D01*
X81286176Y-56141202D01*
X81462700Y-56123945D01*
X84396097Y-56126221D01*
X84396097Y-56126221D01*
G37*
X84396097Y-56126221D02*
X84572250Y-56143682D01*
X84735638Y-56193303D01*
X84886224Y-56273795D01*
X85018253Y-56382085D01*
X85126656Y-56514016D01*
X85207283Y-56664534D01*
X85257046Y-56827874D01*
X85274661Y-57004013D01*
X85278783Y-59495078D01*
X85278784Y-59497226D01*
X85273632Y-67694570D01*
X85256163Y-67870893D01*
X85229392Y-67959000D01*
X72822306Y-67959000D01*
X72500526Y-67927449D01*
X72212460Y-67840477D01*
X71946773Y-67699208D01*
X71713583Y-67509022D01*
X71521778Y-67277169D01*
X71378660Y-67012478D01*
X71289678Y-66725025D01*
X71256000Y-66404598D01*
X71256000Y-59440796D01*
X71399972Y-59426619D01*
X73071660Y-59425981D01*
X80049196Y-59479643D01*
X80148373Y-59467297D01*
X80235766Y-59444480D01*
X80407889Y-59346278D01*
X80472002Y-59282656D01*
X80571523Y-59111297D01*
X80595012Y-59024082D01*
X80608121Y-58925000D01*
X80608121Y-57269780D01*
X80613181Y-57253100D01*
X80622843Y-57155000D01*
X80622843Y-56751992D01*
X80649871Y-56662938D01*
X80730566Y-56512057D01*
X80839156Y-56379830D01*
X80971463Y-56271345D01*
X81122407Y-56190768D01*
X81286176Y-56141202D01*
X81462700Y-56123945D01*
X84396097Y-56126221D01*
G04 #@! TO.N,Net-(J2-Pad1)*
G36*
X86838083Y-31995235D02*
X87119843Y-32182544D01*
X87243862Y-32366594D01*
X86700000Y-32366594D01*
X86572411Y-32391973D01*
X86464246Y-32464246D01*
X86391973Y-32572411D01*
X86366594Y-32700000D01*
X86366594Y-34300000D01*
X86391973Y-34427589D01*
X86464246Y-34535754D01*
X86572411Y-34608027D01*
X86589373Y-34611401D01*
X86309180Y-34891594D01*
X85600000Y-34891594D01*
X85472411Y-34916973D01*
X85364246Y-34989246D01*
X85291973Y-35097411D01*
X85266594Y-35225000D01*
X85266594Y-35975000D01*
X85291973Y-36102589D01*
X85364246Y-36210754D01*
X85448001Y-36266717D01*
X85448000Y-39766692D01*
X85414246Y-39789246D01*
X85341973Y-39897411D01*
X85316594Y-40025000D01*
X85316594Y-40775000D01*
X85341973Y-40902589D01*
X85414246Y-41010754D01*
X85522411Y-41083027D01*
X85650000Y-41108406D01*
X85822644Y-41108406D01*
X85848638Y-41125775D01*
X85980482Y-41152000D01*
X86025000Y-41160855D01*
X86069518Y-41152000D01*
X86094518Y-41152000D01*
X86226362Y-41125775D01*
X86252356Y-41108406D01*
X86450000Y-41108406D01*
X86577589Y-41083027D01*
X86685754Y-41010754D01*
X86758027Y-40902589D01*
X86783406Y-40775000D01*
X86783406Y-40083406D01*
X86816594Y-40083406D01*
X86816594Y-40775000D01*
X86841973Y-40902589D01*
X86914246Y-41010754D01*
X87022411Y-41083027D01*
X87150000Y-41108406D01*
X87347644Y-41108406D01*
X87373638Y-41125775D01*
X87431173Y-41137219D01*
X87434182Y-41620183D01*
X87286868Y-41767498D01*
X87249128Y-41792715D01*
X87223911Y-41830455D01*
X87223910Y-41830456D01*
X87149226Y-41942228D01*
X87114146Y-42118589D01*
X87123002Y-42163112D01*
X87123001Y-47523066D01*
X86928265Y-47653884D01*
X86581397Y-47723234D01*
X79214404Y-47724924D01*
X78935481Y-47680872D01*
X78891790Y-47658658D01*
X79106919Y-47512821D01*
X79211157Y-47406705D01*
X79426687Y-47076216D01*
X79481765Y-46938040D01*
X79552684Y-46549909D01*
X79558764Y-46475415D01*
X79519942Y-44301368D01*
X79511303Y-44227581D01*
X79427539Y-43844433D01*
X79368248Y-43708984D01*
X79143575Y-43387518D01*
X79036751Y-43285287D01*
X78705726Y-43074950D01*
X78598993Y-43033715D01*
X78627589Y-43028027D01*
X78735754Y-42955754D01*
X78808027Y-42847589D01*
X78833406Y-42720000D01*
X78833406Y-42572000D01*
X78982776Y-42572000D01*
X79223000Y-42812225D01*
X79223000Y-42924718D01*
X79318455Y-43155167D01*
X79494833Y-43331545D01*
X79725282Y-43427000D01*
X79974718Y-43427000D01*
X80205167Y-43331545D01*
X80381545Y-43155167D01*
X80477000Y-42924718D01*
X80477000Y-42675282D01*
X80381545Y-42444833D01*
X80205167Y-42268455D01*
X79974718Y-42173000D01*
X79862225Y-42173000D01*
X79521093Y-41831869D01*
X79495874Y-41794126D01*
X79346362Y-41694225D01*
X79214518Y-41668000D01*
X79170000Y-41659145D01*
X79125482Y-41668000D01*
X78833406Y-41668000D01*
X78833406Y-41520000D01*
X78808027Y-41392411D01*
X78735754Y-41284246D01*
X78627589Y-41211973D01*
X78500000Y-41186594D01*
X76555575Y-41186594D01*
X76524208Y-41034940D01*
X76467343Y-40900150D01*
X76250005Y-40578676D01*
X76146111Y-40475681D01*
X75822759Y-40261146D01*
X75687479Y-40205455D01*
X75306805Y-40130164D01*
X75233658Y-40123000D01*
X71353578Y-40123000D01*
X71279863Y-40130277D01*
X71202000Y-40145801D01*
X71202000Y-33613639D01*
X71270167Y-33137646D01*
X71457217Y-32726254D01*
X71752212Y-32383895D01*
X72131437Y-32138094D01*
X72577721Y-32004627D01*
X72814921Y-31987000D01*
X86796509Y-31987000D01*
X86838083Y-31995235D01*
X86838083Y-31995235D01*
G37*
X86838083Y-31995235D02*
X87119843Y-32182544D01*
X87243862Y-32366594D01*
X86700000Y-32366594D01*
X86572411Y-32391973D01*
X86464246Y-32464246D01*
X86391973Y-32572411D01*
X86366594Y-32700000D01*
X86366594Y-34300000D01*
X86391973Y-34427589D01*
X86464246Y-34535754D01*
X86572411Y-34608027D01*
X86589373Y-34611401D01*
X86309180Y-34891594D01*
X85600000Y-34891594D01*
X85472411Y-34916973D01*
X85364246Y-34989246D01*
X85291973Y-35097411D01*
X85266594Y-35225000D01*
X85266594Y-35975000D01*
X85291973Y-36102589D01*
X85364246Y-36210754D01*
X85448001Y-36266717D01*
X85448000Y-39766692D01*
X85414246Y-39789246D01*
X85341973Y-39897411D01*
X85316594Y-40025000D01*
X85316594Y-40775000D01*
X85341973Y-40902589D01*
X85414246Y-41010754D01*
X85522411Y-41083027D01*
X85650000Y-41108406D01*
X85822644Y-41108406D01*
X85848638Y-41125775D01*
X85980482Y-41152000D01*
X86025000Y-41160855D01*
X86069518Y-41152000D01*
X86094518Y-41152000D01*
X86226362Y-41125775D01*
X86252356Y-41108406D01*
X86450000Y-41108406D01*
X86577589Y-41083027D01*
X86685754Y-41010754D01*
X86758027Y-40902589D01*
X86783406Y-40775000D01*
X86783406Y-40083406D01*
X86816594Y-40083406D01*
X86816594Y-40775000D01*
X86841973Y-40902589D01*
X86914246Y-41010754D01*
X87022411Y-41083027D01*
X87150000Y-41108406D01*
X87347644Y-41108406D01*
X87373638Y-41125775D01*
X87431173Y-41137219D01*
X87434182Y-41620183D01*
X87286868Y-41767498D01*
X87249128Y-41792715D01*
X87223911Y-41830455D01*
X87223910Y-41830456D01*
X87149226Y-41942228D01*
X87114146Y-42118589D01*
X87123002Y-42163112D01*
X87123001Y-47523066D01*
X86928265Y-47653884D01*
X86581397Y-47723234D01*
X79214404Y-47724924D01*
X78935481Y-47680872D01*
X78891790Y-47658658D01*
X79106919Y-47512821D01*
X79211157Y-47406705D01*
X79426687Y-47076216D01*
X79481765Y-46938040D01*
X79552684Y-46549909D01*
X79558764Y-46475415D01*
X79519942Y-44301368D01*
X79511303Y-44227581D01*
X79427539Y-43844433D01*
X79368248Y-43708984D01*
X79143575Y-43387518D01*
X79036751Y-43285287D01*
X78705726Y-43074950D01*
X78598993Y-43033715D01*
X78627589Y-43028027D01*
X78735754Y-42955754D01*
X78808027Y-42847589D01*
X78833406Y-42720000D01*
X78833406Y-42572000D01*
X78982776Y-42572000D01*
X79223000Y-42812225D01*
X79223000Y-42924718D01*
X79318455Y-43155167D01*
X79494833Y-43331545D01*
X79725282Y-43427000D01*
X79974718Y-43427000D01*
X80205167Y-43331545D01*
X80381545Y-43155167D01*
X80477000Y-42924718D01*
X80477000Y-42675282D01*
X80381545Y-42444833D01*
X80205167Y-42268455D01*
X79974718Y-42173000D01*
X79862225Y-42173000D01*
X79521093Y-41831869D01*
X79495874Y-41794126D01*
X79346362Y-41694225D01*
X79214518Y-41668000D01*
X79170000Y-41659145D01*
X79125482Y-41668000D01*
X78833406Y-41668000D01*
X78833406Y-41520000D01*
X78808027Y-41392411D01*
X78735754Y-41284246D01*
X78627589Y-41211973D01*
X78500000Y-41186594D01*
X76555575Y-41186594D01*
X76524208Y-41034940D01*
X76467343Y-40900150D01*
X76250005Y-40578676D01*
X76146111Y-40475681D01*
X75822759Y-40261146D01*
X75687479Y-40205455D01*
X75306805Y-40130164D01*
X75233658Y-40123000D01*
X71353578Y-40123000D01*
X71279863Y-40130277D01*
X71202000Y-40145801D01*
X71202000Y-33613639D01*
X71270167Y-33137646D01*
X71457217Y-32726254D01*
X71752212Y-32383895D01*
X72131437Y-32138094D01*
X72577721Y-32004627D01*
X72814921Y-31987000D01*
X86796509Y-31987000D01*
X86838083Y-31995235D01*
G04 #@! TO.N,Earth*
G36*
X75351957Y-40652858D02*
X75375119Y-40676020D01*
X75804510Y-40853879D01*
X75846540Y-40881765D01*
X76035742Y-41161621D01*
X76050559Y-41233259D01*
X76028199Y-41248199D01*
X75944875Y-41372902D01*
X75915615Y-41520000D01*
X75915615Y-42720000D01*
X75944875Y-42867098D01*
X76028199Y-42991801D01*
X76152902Y-43075125D01*
X76300000Y-43104385D01*
X76417133Y-43104385D01*
X76441898Y-43140255D01*
X76477931Y-43175056D01*
X76810122Y-43387740D01*
X76856808Y-43405899D01*
X77245400Y-43473581D01*
X77270504Y-43475422D01*
X78107827Y-43453578D01*
X78456865Y-43513960D01*
X78745018Y-43697056D01*
X78940592Y-43976886D01*
X79016247Y-44322939D01*
X79054618Y-46471764D01*
X78990567Y-46822310D01*
X78802959Y-47109984D01*
X78518677Y-47302700D01*
X78169332Y-47373000D01*
X71383916Y-47373000D01*
X71252000Y-47346822D01*
X71252000Y-40649752D01*
X71366117Y-40627000D01*
X75221217Y-40627000D01*
X75351957Y-40652858D01*
X75351957Y-40652858D01*
G37*
X75351957Y-40652858D02*
X75375119Y-40676020D01*
X75804510Y-40853879D01*
X75846540Y-40881765D01*
X76035742Y-41161621D01*
X76050559Y-41233259D01*
X76028199Y-41248199D01*
X75944875Y-41372902D01*
X75915615Y-41520000D01*
X75915615Y-42720000D01*
X75944875Y-42867098D01*
X76028199Y-42991801D01*
X76152902Y-43075125D01*
X76300000Y-43104385D01*
X76417133Y-43104385D01*
X76441898Y-43140255D01*
X76477931Y-43175056D01*
X76810122Y-43387740D01*
X76856808Y-43405899D01*
X77245400Y-43473581D01*
X77270504Y-43475422D01*
X78107827Y-43453578D01*
X78456865Y-43513960D01*
X78745018Y-43697056D01*
X78940592Y-43976886D01*
X79016247Y-44322939D01*
X79054618Y-46471764D01*
X78990567Y-46822310D01*
X78802959Y-47109984D01*
X78518677Y-47302700D01*
X78169332Y-47373000D01*
X71383916Y-47373000D01*
X71252000Y-47346822D01*
X71252000Y-40649752D01*
X71366117Y-40627000D01*
X75221217Y-40627000D01*
X75351957Y-40652858D01*
G04 #@! TO.N,+12V*
G36*
X111666504Y-38646385D02*
X111927593Y-38703181D01*
X112177940Y-38796556D01*
X112412445Y-38924605D01*
X112626338Y-39084724D01*
X112814419Y-39272805D01*
X112821526Y-44016566D01*
X112828732Y-44089358D01*
X112903884Y-44468201D01*
X112959264Y-44602866D01*
X113172376Y-44924973D01*
X113273000Y-45026927D01*
X113273000Y-53400000D01*
X113273324Y-53409060D01*
X113293681Y-53693690D01*
X113296259Y-53711626D01*
X113356916Y-53990461D01*
X113362021Y-54007847D01*
X113461743Y-54275212D01*
X113469271Y-54291695D01*
X113606028Y-54542147D01*
X113615824Y-54557390D01*
X113786832Y-54785829D01*
X113798698Y-54799524D01*
X114000476Y-55001302D01*
X114014171Y-55013168D01*
X114242610Y-55184176D01*
X114257853Y-55193972D01*
X114508305Y-55330729D01*
X114524788Y-55338257D01*
X114792153Y-55437979D01*
X114809539Y-55443084D01*
X115088374Y-55503741D01*
X115106310Y-55506319D01*
X115390940Y-55526676D01*
X115400000Y-55527000D01*
X119215000Y-55527000D01*
X119215000Y-55582250D01*
X119296750Y-55664000D01*
X119842000Y-55664000D01*
X119842000Y-55571000D01*
X120442000Y-55571000D01*
X120442000Y-55664000D01*
X120987250Y-55664000D01*
X121069000Y-55582250D01*
X121069000Y-55527000D01*
X126894428Y-55527000D01*
X126911431Y-55568048D01*
X126996464Y-55695309D01*
X127104691Y-55803536D01*
X127231952Y-55888569D01*
X127373357Y-55947141D01*
X127523472Y-55977000D01*
X127676528Y-55977000D01*
X127826643Y-55947141D01*
X127968048Y-55888569D01*
X128095309Y-55803536D01*
X128203536Y-55695309D01*
X128257612Y-55614378D01*
X128477940Y-55696556D01*
X128712445Y-55824605D01*
X128748001Y-55851222D01*
X128748001Y-66392880D01*
X128716392Y-66715254D01*
X128629194Y-67004071D01*
X128487556Y-67270451D01*
X128296876Y-67504248D01*
X128064417Y-67696554D01*
X127799036Y-67840045D01*
X127510833Y-67929259D01*
X127189807Y-67963000D01*
X106828137Y-67963000D01*
X106827790Y-67950844D01*
X106827000Y-67895530D01*
X106827000Y-67548335D01*
X114474166Y-67548335D01*
X114679937Y-67756423D01*
X115038260Y-67881685D01*
X115414135Y-67934634D01*
X115793117Y-67913236D01*
X116160643Y-67818314D01*
X116310063Y-67756423D01*
X116515834Y-67548335D01*
X121484166Y-67548335D01*
X121689937Y-67756423D01*
X122048260Y-67881685D01*
X122424135Y-67934634D01*
X122803117Y-67913236D01*
X123170643Y-67818314D01*
X123320063Y-67756423D01*
X123525834Y-67548335D01*
X122505000Y-66527502D01*
X121484166Y-67548335D01*
X116515834Y-67548335D01*
X115495000Y-66527502D01*
X114474166Y-67548335D01*
X106827000Y-67548335D01*
X106827000Y-65919135D01*
X113560366Y-65919135D01*
X113581764Y-66298117D01*
X113676686Y-66665643D01*
X113738577Y-66815063D01*
X113946665Y-67020834D01*
X114967498Y-66000000D01*
X116022502Y-66000000D01*
X117043335Y-67020834D01*
X117251423Y-66815063D01*
X117376685Y-66456740D01*
X117429634Y-66080865D01*
X117420503Y-65919135D01*
X120570366Y-65919135D01*
X120591764Y-66298117D01*
X120686686Y-66665643D01*
X120748577Y-66815063D01*
X120956665Y-67020834D01*
X121977498Y-66000000D01*
X123032502Y-66000000D01*
X124053335Y-67020834D01*
X124261423Y-66815063D01*
X124386685Y-66456740D01*
X124439634Y-66080865D01*
X124418236Y-65701883D01*
X124323314Y-65334357D01*
X124261423Y-65184937D01*
X124053335Y-64979166D01*
X123032502Y-66000000D01*
X121977498Y-66000000D01*
X120956665Y-64979166D01*
X120748577Y-65184937D01*
X120623315Y-65543260D01*
X120570366Y-65919135D01*
X117420503Y-65919135D01*
X117408236Y-65701883D01*
X117313314Y-65334357D01*
X117251423Y-65184937D01*
X117043335Y-64979166D01*
X116022502Y-66000000D01*
X114967498Y-66000000D01*
X113946665Y-64979166D01*
X113738577Y-65184937D01*
X113613315Y-65543260D01*
X113560366Y-65919135D01*
X106827000Y-65919135D01*
X106827000Y-64451665D01*
X114474166Y-64451665D01*
X115495000Y-65472498D01*
X116515834Y-64451665D01*
X121484166Y-64451665D01*
X122505000Y-65472498D01*
X123525834Y-64451665D01*
X123320063Y-64243577D01*
X122961740Y-64118315D01*
X122585865Y-64065366D01*
X122206883Y-64086764D01*
X121839357Y-64181686D01*
X121689937Y-64243577D01*
X121484166Y-64451665D01*
X116515834Y-64451665D01*
X116310063Y-64243577D01*
X115951740Y-64118315D01*
X115575865Y-64065366D01*
X115196883Y-64086764D01*
X114829357Y-64181686D01*
X114679937Y-64243577D01*
X114474166Y-64451665D01*
X106827000Y-64451665D01*
X106827000Y-62548335D01*
X114474166Y-62548335D01*
X114679937Y-62756423D01*
X115038260Y-62881685D01*
X115414135Y-62934634D01*
X115793117Y-62913236D01*
X116160643Y-62818314D01*
X116310063Y-62756423D01*
X116515834Y-62548335D01*
X121484166Y-62548335D01*
X121689937Y-62756423D01*
X122048260Y-62881685D01*
X122424135Y-62934634D01*
X122803117Y-62913236D01*
X123170643Y-62818314D01*
X123320063Y-62756423D01*
X123525834Y-62548335D01*
X122505000Y-61527502D01*
X121484166Y-62548335D01*
X116515834Y-62548335D01*
X115495000Y-61527502D01*
X114474166Y-62548335D01*
X106827000Y-62548335D01*
X106827000Y-60919135D01*
X113560366Y-60919135D01*
X113581764Y-61298117D01*
X113676686Y-61665643D01*
X113738577Y-61815063D01*
X113946665Y-62020834D01*
X114967498Y-61000000D01*
X116022502Y-61000000D01*
X117043335Y-62020834D01*
X117251423Y-61815063D01*
X117376685Y-61456740D01*
X117429634Y-61080865D01*
X117420503Y-60919135D01*
X120570366Y-60919135D01*
X120591764Y-61298117D01*
X120686686Y-61665643D01*
X120748577Y-61815063D01*
X120956665Y-62020834D01*
X121977498Y-61000000D01*
X123032502Y-61000000D01*
X124053335Y-62020834D01*
X124261423Y-61815063D01*
X124386685Y-61456740D01*
X124439634Y-61080865D01*
X124418236Y-60701883D01*
X124323314Y-60334357D01*
X124261423Y-60184937D01*
X124053335Y-59979166D01*
X123032502Y-61000000D01*
X121977498Y-61000000D01*
X120956665Y-59979166D01*
X120748577Y-60184937D01*
X120623315Y-60543260D01*
X120570366Y-60919135D01*
X117420503Y-60919135D01*
X117408236Y-60701883D01*
X117313314Y-60334357D01*
X117251423Y-60184937D01*
X117043335Y-59979166D01*
X116022502Y-61000000D01*
X114967498Y-61000000D01*
X113946665Y-59979166D01*
X113738577Y-60184937D01*
X113613315Y-60543260D01*
X113560366Y-60919135D01*
X106827000Y-60919135D01*
X106827000Y-59451665D01*
X114474166Y-59451665D01*
X115495000Y-60472498D01*
X116515834Y-59451665D01*
X121484166Y-59451665D01*
X122505000Y-60472498D01*
X123525834Y-59451665D01*
X123320063Y-59243577D01*
X122961740Y-59118315D01*
X122585865Y-59065366D01*
X122206883Y-59086764D01*
X121839357Y-59181686D01*
X121689937Y-59243577D01*
X121484166Y-59451665D01*
X116515834Y-59451665D01*
X116310063Y-59243577D01*
X115951740Y-59118315D01*
X115575865Y-59065366D01*
X115196883Y-59086764D01*
X114829357Y-59181686D01*
X114679937Y-59243577D01*
X114474166Y-59451665D01*
X106827000Y-59451665D01*
X106827000Y-58454750D01*
X107873000Y-58454750D01*
X107873000Y-58832206D01*
X107885566Y-58895382D01*
X107910216Y-58954892D01*
X107946002Y-59008450D01*
X107991549Y-59053997D01*
X108045107Y-59089784D01*
X108104617Y-59114434D01*
X108167793Y-59127000D01*
X108545250Y-59127000D01*
X108627000Y-59045250D01*
X108627000Y-58373000D01*
X109373000Y-58373000D01*
X109373000Y-59045250D01*
X109454750Y-59127000D01*
X109832207Y-59127000D01*
X109895383Y-59114434D01*
X109954893Y-59089784D01*
X110008451Y-59053997D01*
X110053998Y-59008450D01*
X110089784Y-58954892D01*
X110114434Y-58895382D01*
X110127000Y-58832206D01*
X110127000Y-58454750D01*
X110045250Y-58373000D01*
X109373000Y-58373000D01*
X108627000Y-58373000D01*
X107954750Y-58373000D01*
X107873000Y-58454750D01*
X106827000Y-58454750D01*
X106827000Y-57884076D01*
X110323000Y-57884076D01*
X110323000Y-58115924D01*
X110368231Y-58343318D01*
X110456956Y-58557519D01*
X110585764Y-58750294D01*
X110749706Y-58914236D01*
X110942481Y-59043044D01*
X111156682Y-59131769D01*
X111384076Y-59177000D01*
X111615924Y-59177000D01*
X111843318Y-59131769D01*
X112057519Y-59043044D01*
X112250294Y-58914236D01*
X112414236Y-58750294D01*
X112543044Y-58557519D01*
X112631769Y-58343318D01*
X112677000Y-58115924D01*
X112677000Y-57884076D01*
X112631769Y-57656682D01*
X112543044Y-57442481D01*
X112414236Y-57249706D01*
X112250294Y-57085764D01*
X112057519Y-56956956D01*
X111843318Y-56868231D01*
X111615924Y-56823000D01*
X111384076Y-56823000D01*
X111156682Y-56868231D01*
X110942481Y-56956956D01*
X110749706Y-57085764D01*
X110585764Y-57249706D01*
X110456956Y-57442481D01*
X110368231Y-57656682D01*
X110323000Y-57884076D01*
X106827000Y-57884076D01*
X106827000Y-57167794D01*
X107873000Y-57167794D01*
X107873000Y-57545250D01*
X107954750Y-57627000D01*
X108627000Y-57627000D01*
X108627000Y-56954750D01*
X109373000Y-56954750D01*
X109373000Y-57627000D01*
X110045250Y-57627000D01*
X110127000Y-57545250D01*
X110127000Y-57167794D01*
X110114434Y-57104618D01*
X110089784Y-57045108D01*
X110053998Y-56991550D01*
X110008451Y-56946003D01*
X109954893Y-56910216D01*
X109895383Y-56885566D01*
X109832207Y-56873000D01*
X109454750Y-56873000D01*
X109373000Y-56954750D01*
X108627000Y-56954750D01*
X108545250Y-56873000D01*
X108167793Y-56873000D01*
X108104617Y-56885566D01*
X108045107Y-56910216D01*
X107991549Y-56946003D01*
X107946002Y-56991550D01*
X107910216Y-57045108D01*
X107885566Y-57104618D01*
X107873000Y-57167794D01*
X106827000Y-57167794D01*
X106827000Y-56345750D01*
X119215000Y-56345750D01*
X119215000Y-56596207D01*
X119227566Y-56659383D01*
X119252216Y-56718893D01*
X119288003Y-56772451D01*
X119333550Y-56817998D01*
X119387108Y-56853784D01*
X119446618Y-56878434D01*
X119509794Y-56891000D01*
X119760250Y-56891000D01*
X119842000Y-56809250D01*
X119842000Y-56264000D01*
X120442000Y-56264000D01*
X120442000Y-56809250D01*
X120523750Y-56891000D01*
X120774206Y-56891000D01*
X120837382Y-56878434D01*
X120896892Y-56853784D01*
X120950450Y-56817998D01*
X120995997Y-56772451D01*
X121031784Y-56718893D01*
X121056434Y-56659383D01*
X121069000Y-56596207D01*
X121069000Y-56345750D01*
X120987250Y-56264000D01*
X120442000Y-56264000D01*
X119842000Y-56264000D01*
X119296750Y-56264000D01*
X119215000Y-56345750D01*
X106827000Y-56345750D01*
X106827000Y-50454750D01*
X107873000Y-50454750D01*
X107873000Y-50832206D01*
X107885566Y-50895382D01*
X107910216Y-50954892D01*
X107946002Y-51008450D01*
X107991549Y-51053997D01*
X108045107Y-51089784D01*
X108104617Y-51114434D01*
X108167793Y-51127000D01*
X108545250Y-51127000D01*
X108627000Y-51045250D01*
X108627000Y-50373000D01*
X109373000Y-50373000D01*
X109373000Y-51045250D01*
X109454750Y-51127000D01*
X109832207Y-51127000D01*
X109895383Y-51114434D01*
X109954893Y-51089784D01*
X110008451Y-51053997D01*
X110053998Y-51008450D01*
X110089784Y-50954892D01*
X110114434Y-50895382D01*
X110127000Y-50832206D01*
X110127000Y-50454750D01*
X110045250Y-50373000D01*
X109373000Y-50373000D01*
X108627000Y-50373000D01*
X107954750Y-50373000D01*
X107873000Y-50454750D01*
X106827000Y-50454750D01*
X106827000Y-49884076D01*
X110323000Y-49884076D01*
X110323000Y-50115924D01*
X110368231Y-50343318D01*
X110456956Y-50557519D01*
X110585764Y-50750294D01*
X110749706Y-50914236D01*
X110942481Y-51043044D01*
X111156682Y-51131769D01*
X111384076Y-51177000D01*
X111615924Y-51177000D01*
X111843318Y-51131769D01*
X112057519Y-51043044D01*
X112250294Y-50914236D01*
X112414236Y-50750294D01*
X112543044Y-50557519D01*
X112631769Y-50343318D01*
X112677000Y-50115924D01*
X112677000Y-49884076D01*
X112631769Y-49656682D01*
X112543044Y-49442481D01*
X112414236Y-49249706D01*
X112250294Y-49085764D01*
X112057519Y-48956956D01*
X111843318Y-48868231D01*
X111615924Y-48823000D01*
X111384076Y-48823000D01*
X111156682Y-48868231D01*
X110942481Y-48956956D01*
X110749706Y-49085764D01*
X110585764Y-49249706D01*
X110456956Y-49442481D01*
X110368231Y-49656682D01*
X110323000Y-49884076D01*
X106827000Y-49884076D01*
X106827000Y-49167794D01*
X107873000Y-49167794D01*
X107873000Y-49545250D01*
X107954750Y-49627000D01*
X108627000Y-49627000D01*
X108627000Y-48954750D01*
X109373000Y-48954750D01*
X109373000Y-49627000D01*
X110045250Y-49627000D01*
X110127000Y-49545250D01*
X110127000Y-49167794D01*
X110114434Y-49104618D01*
X110089784Y-49045108D01*
X110053998Y-48991550D01*
X110008451Y-48946003D01*
X109954893Y-48910216D01*
X109895383Y-48885566D01*
X109832207Y-48873000D01*
X109454750Y-48873000D01*
X109373000Y-48954750D01*
X108627000Y-48954750D01*
X108545250Y-48873000D01*
X108167793Y-48873000D01*
X108104617Y-48885566D01*
X108045107Y-48910216D01*
X107991549Y-48946003D01*
X107946002Y-48991550D01*
X107910216Y-49045108D01*
X107885566Y-49104618D01*
X107873000Y-49167794D01*
X106827000Y-49167794D01*
X106827000Y-44791789D01*
X106837869Y-44782869D01*
X106884981Y-44725463D01*
X106919988Y-44659970D01*
X106941545Y-44588905D01*
X106948824Y-44515000D01*
X106948824Y-42485000D01*
X106945845Y-42454750D01*
X107873000Y-42454750D01*
X107873000Y-42832206D01*
X107885566Y-42895382D01*
X107910216Y-42954892D01*
X107946002Y-43008450D01*
X107991549Y-43053997D01*
X108045107Y-43089784D01*
X108104617Y-43114434D01*
X108167793Y-43127000D01*
X108545250Y-43127000D01*
X108627000Y-43045250D01*
X108627000Y-42373000D01*
X109373000Y-42373000D01*
X109373000Y-43045250D01*
X109454750Y-43127000D01*
X109832207Y-43127000D01*
X109895383Y-43114434D01*
X109954893Y-43089784D01*
X110008451Y-43053997D01*
X110053998Y-43008450D01*
X110089784Y-42954892D01*
X110114434Y-42895382D01*
X110127000Y-42832206D01*
X110127000Y-42454750D01*
X110045250Y-42373000D01*
X109373000Y-42373000D01*
X108627000Y-42373000D01*
X107954750Y-42373000D01*
X107873000Y-42454750D01*
X106945845Y-42454750D01*
X106941545Y-42411095D01*
X106919988Y-42340030D01*
X106884981Y-42274537D01*
X106863469Y-42248325D01*
X106891988Y-42194970D01*
X106913545Y-42123905D01*
X106920824Y-42050000D01*
X106920824Y-41884076D01*
X110323000Y-41884076D01*
X110323000Y-42115924D01*
X110368231Y-42343318D01*
X110456956Y-42557519D01*
X110585764Y-42750294D01*
X110749706Y-42914236D01*
X110942481Y-43043044D01*
X111156682Y-43131769D01*
X111384076Y-43177000D01*
X111615924Y-43177000D01*
X111843318Y-43131769D01*
X112057519Y-43043044D01*
X112250294Y-42914236D01*
X112414236Y-42750294D01*
X112543044Y-42557519D01*
X112631769Y-42343318D01*
X112677000Y-42115924D01*
X112677000Y-41884076D01*
X112631769Y-41656682D01*
X112543044Y-41442481D01*
X112414236Y-41249706D01*
X112250294Y-41085764D01*
X112057519Y-40956956D01*
X111843318Y-40868231D01*
X111615924Y-40823000D01*
X111384076Y-40823000D01*
X111156682Y-40868231D01*
X110942481Y-40956956D01*
X110749706Y-41085764D01*
X110585764Y-41249706D01*
X110456956Y-41442481D01*
X110368231Y-41656682D01*
X110323000Y-41884076D01*
X106920824Y-41884076D01*
X106920824Y-41167794D01*
X107873000Y-41167794D01*
X107873000Y-41545250D01*
X107954750Y-41627000D01*
X108627000Y-41627000D01*
X108627000Y-40954750D01*
X109373000Y-40954750D01*
X109373000Y-41627000D01*
X110045250Y-41627000D01*
X110127000Y-41545250D01*
X110127000Y-41167794D01*
X110114434Y-41104618D01*
X110089784Y-41045108D01*
X110053998Y-40991550D01*
X110008451Y-40946003D01*
X109954893Y-40910216D01*
X109895383Y-40885566D01*
X109832207Y-40873000D01*
X109454750Y-40873000D01*
X109373000Y-40954750D01*
X108627000Y-40954750D01*
X108545250Y-40873000D01*
X108167793Y-40873000D01*
X108104617Y-40885566D01*
X108045107Y-40910216D01*
X107991549Y-40946003D01*
X107946002Y-40991550D01*
X107910216Y-41045108D01*
X107885566Y-41104618D01*
X107873000Y-41167794D01*
X106920824Y-41167794D01*
X106920824Y-39925104D01*
X106996556Y-39722060D01*
X107124605Y-39487555D01*
X107284724Y-39273662D01*
X107473662Y-39084724D01*
X107687555Y-38924605D01*
X107922060Y-38796556D01*
X108172407Y-38703181D01*
X108189523Y-38699458D01*
X108244604Y-38754539D01*
X108260317Y-38773685D01*
X108336756Y-38836418D01*
X108423965Y-38883032D01*
X108518592Y-38911737D01*
X108592348Y-38919001D01*
X108592357Y-38919001D01*
X108617000Y-38921428D01*
X108641643Y-38919001D01*
X109640356Y-38919001D01*
X109664999Y-38921428D01*
X109689642Y-38919001D01*
X109689652Y-38919001D01*
X109763408Y-38911737D01*
X109858035Y-38883032D01*
X109945244Y-38836418D01*
X110021683Y-38773685D01*
X110037400Y-38754534D01*
X110164934Y-38627000D01*
X111395470Y-38627000D01*
X111666504Y-38646385D01*
X111666504Y-38646385D01*
G37*
X111666504Y-38646385D02*
X111927593Y-38703181D01*
X112177940Y-38796556D01*
X112412445Y-38924605D01*
X112626338Y-39084724D01*
X112814419Y-39272805D01*
X112821526Y-44016566D01*
X112828732Y-44089358D01*
X112903884Y-44468201D01*
X112959264Y-44602866D01*
X113172376Y-44924973D01*
X113273000Y-45026927D01*
X113273000Y-53400000D01*
X113273324Y-53409060D01*
X113293681Y-53693690D01*
X113296259Y-53711626D01*
X113356916Y-53990461D01*
X113362021Y-54007847D01*
X113461743Y-54275212D01*
X113469271Y-54291695D01*
X113606028Y-54542147D01*
X113615824Y-54557390D01*
X113786832Y-54785829D01*
X113798698Y-54799524D01*
X114000476Y-55001302D01*
X114014171Y-55013168D01*
X114242610Y-55184176D01*
X114257853Y-55193972D01*
X114508305Y-55330729D01*
X114524788Y-55338257D01*
X114792153Y-55437979D01*
X114809539Y-55443084D01*
X115088374Y-55503741D01*
X115106310Y-55506319D01*
X115390940Y-55526676D01*
X115400000Y-55527000D01*
X119215000Y-55527000D01*
X119215000Y-55582250D01*
X119296750Y-55664000D01*
X119842000Y-55664000D01*
X119842000Y-55571000D01*
X120442000Y-55571000D01*
X120442000Y-55664000D01*
X120987250Y-55664000D01*
X121069000Y-55582250D01*
X121069000Y-55527000D01*
X126894428Y-55527000D01*
X126911431Y-55568048D01*
X126996464Y-55695309D01*
X127104691Y-55803536D01*
X127231952Y-55888569D01*
X127373357Y-55947141D01*
X127523472Y-55977000D01*
X127676528Y-55977000D01*
X127826643Y-55947141D01*
X127968048Y-55888569D01*
X128095309Y-55803536D01*
X128203536Y-55695309D01*
X128257612Y-55614378D01*
X128477940Y-55696556D01*
X128712445Y-55824605D01*
X128748001Y-55851222D01*
X128748001Y-66392880D01*
X128716392Y-66715254D01*
X128629194Y-67004071D01*
X128487556Y-67270451D01*
X128296876Y-67504248D01*
X128064417Y-67696554D01*
X127799036Y-67840045D01*
X127510833Y-67929259D01*
X127189807Y-67963000D01*
X106828137Y-67963000D01*
X106827790Y-67950844D01*
X106827000Y-67895530D01*
X106827000Y-67548335D01*
X114474166Y-67548335D01*
X114679937Y-67756423D01*
X115038260Y-67881685D01*
X115414135Y-67934634D01*
X115793117Y-67913236D01*
X116160643Y-67818314D01*
X116310063Y-67756423D01*
X116515834Y-67548335D01*
X121484166Y-67548335D01*
X121689937Y-67756423D01*
X122048260Y-67881685D01*
X122424135Y-67934634D01*
X122803117Y-67913236D01*
X123170643Y-67818314D01*
X123320063Y-67756423D01*
X123525834Y-67548335D01*
X122505000Y-66527502D01*
X121484166Y-67548335D01*
X116515834Y-67548335D01*
X115495000Y-66527502D01*
X114474166Y-67548335D01*
X106827000Y-67548335D01*
X106827000Y-65919135D01*
X113560366Y-65919135D01*
X113581764Y-66298117D01*
X113676686Y-66665643D01*
X113738577Y-66815063D01*
X113946665Y-67020834D01*
X114967498Y-66000000D01*
X116022502Y-66000000D01*
X117043335Y-67020834D01*
X117251423Y-66815063D01*
X117376685Y-66456740D01*
X117429634Y-66080865D01*
X117420503Y-65919135D01*
X120570366Y-65919135D01*
X120591764Y-66298117D01*
X120686686Y-66665643D01*
X120748577Y-66815063D01*
X120956665Y-67020834D01*
X121977498Y-66000000D01*
X123032502Y-66000000D01*
X124053335Y-67020834D01*
X124261423Y-66815063D01*
X124386685Y-66456740D01*
X124439634Y-66080865D01*
X124418236Y-65701883D01*
X124323314Y-65334357D01*
X124261423Y-65184937D01*
X124053335Y-64979166D01*
X123032502Y-66000000D01*
X121977498Y-66000000D01*
X120956665Y-64979166D01*
X120748577Y-65184937D01*
X120623315Y-65543260D01*
X120570366Y-65919135D01*
X117420503Y-65919135D01*
X117408236Y-65701883D01*
X117313314Y-65334357D01*
X117251423Y-65184937D01*
X117043335Y-64979166D01*
X116022502Y-66000000D01*
X114967498Y-66000000D01*
X113946665Y-64979166D01*
X113738577Y-65184937D01*
X113613315Y-65543260D01*
X113560366Y-65919135D01*
X106827000Y-65919135D01*
X106827000Y-64451665D01*
X114474166Y-64451665D01*
X115495000Y-65472498D01*
X116515834Y-64451665D01*
X121484166Y-64451665D01*
X122505000Y-65472498D01*
X123525834Y-64451665D01*
X123320063Y-64243577D01*
X122961740Y-64118315D01*
X122585865Y-64065366D01*
X122206883Y-64086764D01*
X121839357Y-64181686D01*
X121689937Y-64243577D01*
X121484166Y-64451665D01*
X116515834Y-64451665D01*
X116310063Y-64243577D01*
X115951740Y-64118315D01*
X115575865Y-64065366D01*
X115196883Y-64086764D01*
X114829357Y-64181686D01*
X114679937Y-64243577D01*
X114474166Y-64451665D01*
X106827000Y-64451665D01*
X106827000Y-62548335D01*
X114474166Y-62548335D01*
X114679937Y-62756423D01*
X115038260Y-62881685D01*
X115414135Y-62934634D01*
X115793117Y-62913236D01*
X116160643Y-62818314D01*
X116310063Y-62756423D01*
X116515834Y-62548335D01*
X121484166Y-62548335D01*
X121689937Y-62756423D01*
X122048260Y-62881685D01*
X122424135Y-62934634D01*
X122803117Y-62913236D01*
X123170643Y-62818314D01*
X123320063Y-62756423D01*
X123525834Y-62548335D01*
X122505000Y-61527502D01*
X121484166Y-62548335D01*
X116515834Y-62548335D01*
X115495000Y-61527502D01*
X114474166Y-62548335D01*
X106827000Y-62548335D01*
X106827000Y-60919135D01*
X113560366Y-60919135D01*
X113581764Y-61298117D01*
X113676686Y-61665643D01*
X113738577Y-61815063D01*
X113946665Y-62020834D01*
X114967498Y-61000000D01*
X116022502Y-61000000D01*
X117043335Y-62020834D01*
X117251423Y-61815063D01*
X117376685Y-61456740D01*
X117429634Y-61080865D01*
X117420503Y-60919135D01*
X120570366Y-60919135D01*
X120591764Y-61298117D01*
X120686686Y-61665643D01*
X120748577Y-61815063D01*
X120956665Y-62020834D01*
X121977498Y-61000000D01*
X123032502Y-61000000D01*
X124053335Y-62020834D01*
X124261423Y-61815063D01*
X124386685Y-61456740D01*
X124439634Y-61080865D01*
X124418236Y-60701883D01*
X124323314Y-60334357D01*
X124261423Y-60184937D01*
X124053335Y-59979166D01*
X123032502Y-61000000D01*
X121977498Y-61000000D01*
X120956665Y-59979166D01*
X120748577Y-60184937D01*
X120623315Y-60543260D01*
X120570366Y-60919135D01*
X117420503Y-60919135D01*
X117408236Y-60701883D01*
X117313314Y-60334357D01*
X117251423Y-60184937D01*
X117043335Y-59979166D01*
X116022502Y-61000000D01*
X114967498Y-61000000D01*
X113946665Y-59979166D01*
X113738577Y-60184937D01*
X113613315Y-60543260D01*
X113560366Y-60919135D01*
X106827000Y-60919135D01*
X106827000Y-59451665D01*
X114474166Y-59451665D01*
X115495000Y-60472498D01*
X116515834Y-59451665D01*
X121484166Y-59451665D01*
X122505000Y-60472498D01*
X123525834Y-59451665D01*
X123320063Y-59243577D01*
X122961740Y-59118315D01*
X122585865Y-59065366D01*
X122206883Y-59086764D01*
X121839357Y-59181686D01*
X121689937Y-59243577D01*
X121484166Y-59451665D01*
X116515834Y-59451665D01*
X116310063Y-59243577D01*
X115951740Y-59118315D01*
X115575865Y-59065366D01*
X115196883Y-59086764D01*
X114829357Y-59181686D01*
X114679937Y-59243577D01*
X114474166Y-59451665D01*
X106827000Y-59451665D01*
X106827000Y-58454750D01*
X107873000Y-58454750D01*
X107873000Y-58832206D01*
X107885566Y-58895382D01*
X107910216Y-58954892D01*
X107946002Y-59008450D01*
X107991549Y-59053997D01*
X108045107Y-59089784D01*
X108104617Y-59114434D01*
X108167793Y-59127000D01*
X108545250Y-59127000D01*
X108627000Y-59045250D01*
X108627000Y-58373000D01*
X109373000Y-58373000D01*
X109373000Y-59045250D01*
X109454750Y-59127000D01*
X109832207Y-59127000D01*
X109895383Y-59114434D01*
X109954893Y-59089784D01*
X110008451Y-59053997D01*
X110053998Y-59008450D01*
X110089784Y-58954892D01*
X110114434Y-58895382D01*
X110127000Y-58832206D01*
X110127000Y-58454750D01*
X110045250Y-58373000D01*
X109373000Y-58373000D01*
X108627000Y-58373000D01*
X107954750Y-58373000D01*
X107873000Y-58454750D01*
X106827000Y-58454750D01*
X106827000Y-57884076D01*
X110323000Y-57884076D01*
X110323000Y-58115924D01*
X110368231Y-58343318D01*
X110456956Y-58557519D01*
X110585764Y-58750294D01*
X110749706Y-58914236D01*
X110942481Y-59043044D01*
X111156682Y-59131769D01*
X111384076Y-59177000D01*
X111615924Y-59177000D01*
X111843318Y-59131769D01*
X112057519Y-59043044D01*
X112250294Y-58914236D01*
X112414236Y-58750294D01*
X112543044Y-58557519D01*
X112631769Y-58343318D01*
X112677000Y-58115924D01*
X112677000Y-57884076D01*
X112631769Y-57656682D01*
X112543044Y-57442481D01*
X112414236Y-57249706D01*
X112250294Y-57085764D01*
X112057519Y-56956956D01*
X111843318Y-56868231D01*
X111615924Y-56823000D01*
X111384076Y-56823000D01*
X111156682Y-56868231D01*
X110942481Y-56956956D01*
X110749706Y-57085764D01*
X110585764Y-57249706D01*
X110456956Y-57442481D01*
X110368231Y-57656682D01*
X110323000Y-57884076D01*
X106827000Y-57884076D01*
X106827000Y-57167794D01*
X107873000Y-57167794D01*
X107873000Y-57545250D01*
X107954750Y-57627000D01*
X108627000Y-57627000D01*
X108627000Y-56954750D01*
X109373000Y-56954750D01*
X109373000Y-57627000D01*
X110045250Y-57627000D01*
X110127000Y-57545250D01*
X110127000Y-57167794D01*
X110114434Y-57104618D01*
X110089784Y-57045108D01*
X110053998Y-56991550D01*
X110008451Y-56946003D01*
X109954893Y-56910216D01*
X109895383Y-56885566D01*
X109832207Y-56873000D01*
X109454750Y-56873000D01*
X109373000Y-56954750D01*
X108627000Y-56954750D01*
X108545250Y-56873000D01*
X108167793Y-56873000D01*
X108104617Y-56885566D01*
X108045107Y-56910216D01*
X107991549Y-56946003D01*
X107946002Y-56991550D01*
X107910216Y-57045108D01*
X107885566Y-57104618D01*
X107873000Y-57167794D01*
X106827000Y-57167794D01*
X106827000Y-56345750D01*
X119215000Y-56345750D01*
X119215000Y-56596207D01*
X119227566Y-56659383D01*
X119252216Y-56718893D01*
X119288003Y-56772451D01*
X119333550Y-56817998D01*
X119387108Y-56853784D01*
X119446618Y-56878434D01*
X119509794Y-56891000D01*
X119760250Y-56891000D01*
X119842000Y-56809250D01*
X119842000Y-56264000D01*
X120442000Y-56264000D01*
X120442000Y-56809250D01*
X120523750Y-56891000D01*
X120774206Y-56891000D01*
X120837382Y-56878434D01*
X120896892Y-56853784D01*
X120950450Y-56817998D01*
X120995997Y-56772451D01*
X121031784Y-56718893D01*
X121056434Y-56659383D01*
X121069000Y-56596207D01*
X121069000Y-56345750D01*
X120987250Y-56264000D01*
X120442000Y-56264000D01*
X119842000Y-56264000D01*
X119296750Y-56264000D01*
X119215000Y-56345750D01*
X106827000Y-56345750D01*
X106827000Y-50454750D01*
X107873000Y-50454750D01*
X107873000Y-50832206D01*
X107885566Y-50895382D01*
X107910216Y-50954892D01*
X107946002Y-51008450D01*
X107991549Y-51053997D01*
X108045107Y-51089784D01*
X108104617Y-51114434D01*
X108167793Y-51127000D01*
X108545250Y-51127000D01*
X108627000Y-51045250D01*
X108627000Y-50373000D01*
X109373000Y-50373000D01*
X109373000Y-51045250D01*
X109454750Y-51127000D01*
X109832207Y-51127000D01*
X109895383Y-51114434D01*
X109954893Y-51089784D01*
X110008451Y-51053997D01*
X110053998Y-51008450D01*
X110089784Y-50954892D01*
X110114434Y-50895382D01*
X110127000Y-50832206D01*
X110127000Y-50454750D01*
X110045250Y-50373000D01*
X109373000Y-50373000D01*
X108627000Y-50373000D01*
X107954750Y-50373000D01*
X107873000Y-50454750D01*
X106827000Y-50454750D01*
X106827000Y-49884076D01*
X110323000Y-49884076D01*
X110323000Y-50115924D01*
X110368231Y-50343318D01*
X110456956Y-50557519D01*
X110585764Y-50750294D01*
X110749706Y-50914236D01*
X110942481Y-51043044D01*
X111156682Y-51131769D01*
X111384076Y-51177000D01*
X111615924Y-51177000D01*
X111843318Y-51131769D01*
X112057519Y-51043044D01*
X112250294Y-50914236D01*
X112414236Y-50750294D01*
X112543044Y-50557519D01*
X112631769Y-50343318D01*
X112677000Y-50115924D01*
X112677000Y-49884076D01*
X112631769Y-49656682D01*
X112543044Y-49442481D01*
X112414236Y-49249706D01*
X112250294Y-49085764D01*
X112057519Y-48956956D01*
X111843318Y-48868231D01*
X111615924Y-48823000D01*
X111384076Y-48823000D01*
X111156682Y-48868231D01*
X110942481Y-48956956D01*
X110749706Y-49085764D01*
X110585764Y-49249706D01*
X110456956Y-49442481D01*
X110368231Y-49656682D01*
X110323000Y-49884076D01*
X106827000Y-49884076D01*
X106827000Y-49167794D01*
X107873000Y-49167794D01*
X107873000Y-49545250D01*
X107954750Y-49627000D01*
X108627000Y-49627000D01*
X108627000Y-48954750D01*
X109373000Y-48954750D01*
X109373000Y-49627000D01*
X110045250Y-49627000D01*
X110127000Y-49545250D01*
X110127000Y-49167794D01*
X110114434Y-49104618D01*
X110089784Y-49045108D01*
X110053998Y-48991550D01*
X110008451Y-48946003D01*
X109954893Y-48910216D01*
X109895383Y-48885566D01*
X109832207Y-48873000D01*
X109454750Y-48873000D01*
X109373000Y-48954750D01*
X108627000Y-48954750D01*
X108545250Y-48873000D01*
X108167793Y-48873000D01*
X108104617Y-48885566D01*
X108045107Y-48910216D01*
X107991549Y-48946003D01*
X107946002Y-48991550D01*
X107910216Y-49045108D01*
X107885566Y-49104618D01*
X107873000Y-49167794D01*
X106827000Y-49167794D01*
X106827000Y-44791789D01*
X106837869Y-44782869D01*
X106884981Y-44725463D01*
X106919988Y-44659970D01*
X106941545Y-44588905D01*
X106948824Y-44515000D01*
X106948824Y-42485000D01*
X106945845Y-42454750D01*
X107873000Y-42454750D01*
X107873000Y-42832206D01*
X107885566Y-42895382D01*
X107910216Y-42954892D01*
X107946002Y-43008450D01*
X107991549Y-43053997D01*
X108045107Y-43089784D01*
X108104617Y-43114434D01*
X108167793Y-43127000D01*
X108545250Y-43127000D01*
X108627000Y-43045250D01*
X108627000Y-42373000D01*
X109373000Y-42373000D01*
X109373000Y-43045250D01*
X109454750Y-43127000D01*
X109832207Y-43127000D01*
X109895383Y-43114434D01*
X109954893Y-43089784D01*
X110008451Y-43053997D01*
X110053998Y-43008450D01*
X110089784Y-42954892D01*
X110114434Y-42895382D01*
X110127000Y-42832206D01*
X110127000Y-42454750D01*
X110045250Y-42373000D01*
X109373000Y-42373000D01*
X108627000Y-42373000D01*
X107954750Y-42373000D01*
X107873000Y-42454750D01*
X106945845Y-42454750D01*
X106941545Y-42411095D01*
X106919988Y-42340030D01*
X106884981Y-42274537D01*
X106863469Y-42248325D01*
X106891988Y-42194970D01*
X106913545Y-42123905D01*
X106920824Y-42050000D01*
X106920824Y-41884076D01*
X110323000Y-41884076D01*
X110323000Y-42115924D01*
X110368231Y-42343318D01*
X110456956Y-42557519D01*
X110585764Y-42750294D01*
X110749706Y-42914236D01*
X110942481Y-43043044D01*
X111156682Y-43131769D01*
X111384076Y-43177000D01*
X111615924Y-43177000D01*
X111843318Y-43131769D01*
X112057519Y-43043044D01*
X112250294Y-42914236D01*
X112414236Y-42750294D01*
X112543044Y-42557519D01*
X112631769Y-42343318D01*
X112677000Y-42115924D01*
X112677000Y-41884076D01*
X112631769Y-41656682D01*
X112543044Y-41442481D01*
X112414236Y-41249706D01*
X112250294Y-41085764D01*
X112057519Y-40956956D01*
X111843318Y-40868231D01*
X111615924Y-40823000D01*
X111384076Y-40823000D01*
X111156682Y-40868231D01*
X110942481Y-40956956D01*
X110749706Y-41085764D01*
X110585764Y-41249706D01*
X110456956Y-41442481D01*
X110368231Y-41656682D01*
X110323000Y-41884076D01*
X106920824Y-41884076D01*
X106920824Y-41167794D01*
X107873000Y-41167794D01*
X107873000Y-41545250D01*
X107954750Y-41627000D01*
X108627000Y-41627000D01*
X108627000Y-40954750D01*
X109373000Y-40954750D01*
X109373000Y-41627000D01*
X110045250Y-41627000D01*
X110127000Y-41545250D01*
X110127000Y-41167794D01*
X110114434Y-41104618D01*
X110089784Y-41045108D01*
X110053998Y-40991550D01*
X110008451Y-40946003D01*
X109954893Y-40910216D01*
X109895383Y-40885566D01*
X109832207Y-40873000D01*
X109454750Y-40873000D01*
X109373000Y-40954750D01*
X108627000Y-40954750D01*
X108545250Y-40873000D01*
X108167793Y-40873000D01*
X108104617Y-40885566D01*
X108045107Y-40910216D01*
X107991549Y-40946003D01*
X107946002Y-40991550D01*
X107910216Y-41045108D01*
X107885566Y-41104618D01*
X107873000Y-41167794D01*
X106920824Y-41167794D01*
X106920824Y-39925104D01*
X106996556Y-39722060D01*
X107124605Y-39487555D01*
X107284724Y-39273662D01*
X107473662Y-39084724D01*
X107687555Y-38924605D01*
X107922060Y-38796556D01*
X108172407Y-38703181D01*
X108189523Y-38699458D01*
X108244604Y-38754539D01*
X108260317Y-38773685D01*
X108336756Y-38836418D01*
X108423965Y-38883032D01*
X108518592Y-38911737D01*
X108592348Y-38919001D01*
X108592357Y-38919001D01*
X108617000Y-38921428D01*
X108641643Y-38919001D01*
X109640356Y-38919001D01*
X109664999Y-38921428D01*
X109689642Y-38919001D01*
X109689652Y-38919001D01*
X109763408Y-38911737D01*
X109858035Y-38883032D01*
X109945244Y-38836418D01*
X110021683Y-38773685D01*
X110037400Y-38754534D01*
X110164934Y-38627000D01*
X111395470Y-38627000D01*
X111666504Y-38646385D01*
G04 #@! TO.N,+5V*
G36*
X101446176Y-44550000D02*
X101453455Y-44623905D01*
X101475012Y-44694970D01*
X101510019Y-44760463D01*
X101557131Y-44817869D01*
X101614537Y-44864981D01*
X101680030Y-44899988D01*
X101751095Y-44921545D01*
X101825000Y-44928824D01*
X102575000Y-44928824D01*
X102648905Y-44921545D01*
X102719970Y-44899988D01*
X102785463Y-44864981D01*
X102824729Y-44832756D01*
X102885030Y-44864988D01*
X102956095Y-44886545D01*
X103030000Y-44893824D01*
X104170000Y-44893824D01*
X104243905Y-44886545D01*
X104314970Y-44864988D01*
X104362986Y-44839323D01*
X104425362Y-44915328D01*
X104505978Y-45066150D01*
X104555624Y-45229811D01*
X104573000Y-45406234D01*
X104573000Y-48093766D01*
X104555624Y-48270189D01*
X104505978Y-48433850D01*
X104425362Y-48584672D01*
X104316870Y-48716870D01*
X104184672Y-48825362D01*
X104033850Y-48905978D01*
X103870189Y-48955624D01*
X103693766Y-48973000D01*
X103128824Y-48973000D01*
X103128824Y-48500000D01*
X103121545Y-48426095D01*
X103099988Y-48355030D01*
X103064981Y-48289537D01*
X103017869Y-48232131D01*
X102960463Y-48185019D01*
X102894970Y-48150012D01*
X102823905Y-48128455D01*
X102750000Y-48121176D01*
X101850000Y-48121176D01*
X101778824Y-48128186D01*
X101778824Y-47900000D01*
X101771545Y-47826095D01*
X101749988Y-47755030D01*
X101714981Y-47689537D01*
X101667869Y-47632131D01*
X101610463Y-47585019D01*
X101544970Y-47550012D01*
X101473905Y-47528455D01*
X101400000Y-47521176D01*
X100200000Y-47521176D01*
X100191964Y-47521968D01*
X100167110Y-46403539D01*
X100170000Y-46403824D01*
X101230000Y-46403824D01*
X101303905Y-46396545D01*
X101374970Y-46374988D01*
X101440463Y-46339981D01*
X101497869Y-46292869D01*
X101544981Y-46235463D01*
X101579988Y-46169970D01*
X101601545Y-46098905D01*
X101608824Y-46025000D01*
X101608824Y-45375000D01*
X101601545Y-45301095D01*
X101579988Y-45230030D01*
X101544981Y-45164537D01*
X101497869Y-45107131D01*
X101440463Y-45060019D01*
X101374970Y-45025012D01*
X101303905Y-45003455D01*
X101230000Y-44996176D01*
X100170000Y-44996176D01*
X100135911Y-44999533D01*
X100127231Y-44608945D01*
X100127000Y-44588198D01*
X100127000Y-44571845D01*
X100171845Y-44527000D01*
X101446176Y-44527000D01*
X101446176Y-44550000D01*
X101446176Y-44550000D01*
G37*
X101446176Y-44550000D02*
X101453455Y-44623905D01*
X101475012Y-44694970D01*
X101510019Y-44760463D01*
X101557131Y-44817869D01*
X101614537Y-44864981D01*
X101680030Y-44899988D01*
X101751095Y-44921545D01*
X101825000Y-44928824D01*
X102575000Y-44928824D01*
X102648905Y-44921545D01*
X102719970Y-44899988D01*
X102785463Y-44864981D01*
X102824729Y-44832756D01*
X102885030Y-44864988D01*
X102956095Y-44886545D01*
X103030000Y-44893824D01*
X104170000Y-44893824D01*
X104243905Y-44886545D01*
X104314970Y-44864988D01*
X104362986Y-44839323D01*
X104425362Y-44915328D01*
X104505978Y-45066150D01*
X104555624Y-45229811D01*
X104573000Y-45406234D01*
X104573000Y-48093766D01*
X104555624Y-48270189D01*
X104505978Y-48433850D01*
X104425362Y-48584672D01*
X104316870Y-48716870D01*
X104184672Y-48825362D01*
X104033850Y-48905978D01*
X103870189Y-48955624D01*
X103693766Y-48973000D01*
X103128824Y-48973000D01*
X103128824Y-48500000D01*
X103121545Y-48426095D01*
X103099988Y-48355030D01*
X103064981Y-48289537D01*
X103017869Y-48232131D01*
X102960463Y-48185019D01*
X102894970Y-48150012D01*
X102823905Y-48128455D01*
X102750000Y-48121176D01*
X101850000Y-48121176D01*
X101778824Y-48128186D01*
X101778824Y-47900000D01*
X101771545Y-47826095D01*
X101749988Y-47755030D01*
X101714981Y-47689537D01*
X101667869Y-47632131D01*
X101610463Y-47585019D01*
X101544970Y-47550012D01*
X101473905Y-47528455D01*
X101400000Y-47521176D01*
X100200000Y-47521176D01*
X100191964Y-47521968D01*
X100167110Y-46403539D01*
X100170000Y-46403824D01*
X101230000Y-46403824D01*
X101303905Y-46396545D01*
X101374970Y-46374988D01*
X101440463Y-46339981D01*
X101497869Y-46292869D01*
X101544981Y-46235463D01*
X101579988Y-46169970D01*
X101601545Y-46098905D01*
X101608824Y-46025000D01*
X101608824Y-45375000D01*
X101601545Y-45301095D01*
X101579988Y-45230030D01*
X101544981Y-45164537D01*
X101497869Y-45107131D01*
X101440463Y-45060019D01*
X101374970Y-45025012D01*
X101303905Y-45003455D01*
X101230000Y-44996176D01*
X100170000Y-44996176D01*
X100135911Y-44999533D01*
X100127231Y-44608945D01*
X100127000Y-44588198D01*
X100127000Y-44571845D01*
X100171845Y-44527000D01*
X101446176Y-44527000D01*
X101446176Y-44550000D01*
G04 #@! TO.N,+3V3*
G36*
X97664779Y-43134800D02*
X97675969Y-43145161D01*
X97686097Y-43175144D01*
X97727356Y-43711508D01*
X97729546Y-43727157D01*
X97761717Y-43884829D01*
X97771176Y-43912829D01*
X97771176Y-43975000D01*
X97778455Y-44048905D01*
X97791768Y-44092791D01*
X97759537Y-44110019D01*
X97702131Y-44157131D01*
X97655019Y-44214537D01*
X97620012Y-44280030D01*
X97598455Y-44351095D01*
X97591176Y-44425000D01*
X97591176Y-45075000D01*
X97598455Y-45148905D01*
X97620012Y-45219970D01*
X97655019Y-45285463D01*
X97702131Y-45342869D01*
X97759537Y-45389981D01*
X97825030Y-45424988D01*
X97896095Y-45446545D01*
X97970000Y-45453824D01*
X98996521Y-45453824D01*
X99038711Y-47521176D01*
X98000000Y-47521176D01*
X97926095Y-47528455D01*
X97855030Y-47550012D01*
X97789537Y-47585019D01*
X97732131Y-47632131D01*
X97685019Y-47689537D01*
X97650012Y-47755030D01*
X97628455Y-47826095D01*
X97621176Y-47900000D01*
X97621176Y-49073000D01*
X96474369Y-49073000D01*
X96301515Y-49056327D01*
X96140912Y-49008667D01*
X95992385Y-48931192D01*
X95861401Y-48826753D01*
X95752794Y-48699205D01*
X95678824Y-48567905D01*
X95678824Y-47900000D01*
X95671545Y-47826095D01*
X95649988Y-47755030D01*
X95614981Y-47689537D01*
X95576842Y-47643065D01*
X95544393Y-46637135D01*
X95567869Y-46617869D01*
X95614981Y-46560463D01*
X95649988Y-46494970D01*
X95671545Y-46423905D01*
X95678824Y-46350000D01*
X95678824Y-45050000D01*
X95671545Y-44976095D01*
X95649988Y-44905030D01*
X95614981Y-44839537D01*
X95567869Y-44782131D01*
X95510463Y-44735019D01*
X95482553Y-44720101D01*
X95460437Y-44034510D01*
X95472719Y-43854016D01*
X95518984Y-43685754D01*
X95597820Y-43530055D01*
X95706060Y-43393176D01*
X95839386Y-43280572D01*
X95992454Y-43196762D01*
X96159142Y-43145095D01*
X96339144Y-43127000D01*
X97634106Y-43127000D01*
X97664779Y-43134800D01*
X97664779Y-43134800D01*
G37*
X97664779Y-43134800D02*
X97675969Y-43145161D01*
X97686097Y-43175144D01*
X97727356Y-43711508D01*
X97729546Y-43727157D01*
X97761717Y-43884829D01*
X97771176Y-43912829D01*
X97771176Y-43975000D01*
X97778455Y-44048905D01*
X97791768Y-44092791D01*
X97759537Y-44110019D01*
X97702131Y-44157131D01*
X97655019Y-44214537D01*
X97620012Y-44280030D01*
X97598455Y-44351095D01*
X97591176Y-44425000D01*
X97591176Y-45075000D01*
X97598455Y-45148905D01*
X97620012Y-45219970D01*
X97655019Y-45285463D01*
X97702131Y-45342869D01*
X97759537Y-45389981D01*
X97825030Y-45424988D01*
X97896095Y-45446545D01*
X97970000Y-45453824D01*
X98996521Y-45453824D01*
X99038711Y-47521176D01*
X98000000Y-47521176D01*
X97926095Y-47528455D01*
X97855030Y-47550012D01*
X97789537Y-47585019D01*
X97732131Y-47632131D01*
X97685019Y-47689537D01*
X97650012Y-47755030D01*
X97628455Y-47826095D01*
X97621176Y-47900000D01*
X97621176Y-49073000D01*
X96474369Y-49073000D01*
X96301515Y-49056327D01*
X96140912Y-49008667D01*
X95992385Y-48931192D01*
X95861401Y-48826753D01*
X95752794Y-48699205D01*
X95678824Y-48567905D01*
X95678824Y-47900000D01*
X95671545Y-47826095D01*
X95649988Y-47755030D01*
X95614981Y-47689537D01*
X95576842Y-47643065D01*
X95544393Y-46637135D01*
X95567869Y-46617869D01*
X95614981Y-46560463D01*
X95649988Y-46494970D01*
X95671545Y-46423905D01*
X95678824Y-46350000D01*
X95678824Y-45050000D01*
X95671545Y-44976095D01*
X95649988Y-44905030D01*
X95614981Y-44839537D01*
X95567869Y-44782131D01*
X95510463Y-44735019D01*
X95482553Y-44720101D01*
X95460437Y-44034510D01*
X95472719Y-43854016D01*
X95518984Y-43685754D01*
X95597820Y-43530055D01*
X95706060Y-43393176D01*
X95839386Y-43280572D01*
X95992454Y-43196762D01*
X96159142Y-43145095D01*
X96339144Y-43127000D01*
X97634106Y-43127000D01*
X97664779Y-43134800D01*
G04 #@! TO.N,3V3_FILT*
G36*
X94596119Y-45038662D02*
X94635215Y-45064785D01*
X94661338Y-45103881D01*
X94673000Y-45162509D01*
X94673000Y-46650725D01*
X94662090Y-46707524D01*
X94637546Y-46745872D01*
X94600541Y-46772397D01*
X94544394Y-46786277D01*
X93169378Y-46858647D01*
X93108368Y-46849405D01*
X93067175Y-46823797D01*
X93039436Y-46784005D01*
X93027000Y-46723566D01*
X93027000Y-45162509D01*
X93030058Y-45147135D01*
X93095309Y-45103536D01*
X93171845Y-45027000D01*
X94537491Y-45027000D01*
X94596119Y-45038662D01*
X94596119Y-45038662D01*
G37*
X94596119Y-45038662D02*
X94635215Y-45064785D01*
X94661338Y-45103881D01*
X94673000Y-45162509D01*
X94673000Y-46650725D01*
X94662090Y-46707524D01*
X94637546Y-46745872D01*
X94600541Y-46772397D01*
X94544394Y-46786277D01*
X93169378Y-46858647D01*
X93108368Y-46849405D01*
X93067175Y-46823797D01*
X93039436Y-46784005D01*
X93027000Y-46723566D01*
X93027000Y-45162509D01*
X93030058Y-45147135D01*
X93095309Y-45103536D01*
X93171845Y-45027000D01*
X94537491Y-45027000D01*
X94596119Y-45038662D01*
G04 #@! TD*
M02*
