G04 #@! TF.GenerationSoftware,KiCad,Pcbnew,(5.0.0)*
G04 #@! TF.CreationDate,2018-11-03T21:02:49-02:30*
G04 #@! TF.ProjectId,DC-DC Board Micro,44432D444320426F617264204D696372,rev?*
G04 #@! TF.SameCoordinates,Original*
G04 #@! TF.FileFunction,Soldermask,Top*
G04 #@! TF.FilePolarity,Negative*
%FSLAX46Y46*%
G04 Gerber Fmt 4.6, Leading zero omitted, Abs format (unit mm)*
G04 Created by KiCad (PCBNEW (5.0.0)) date 11/03/18 21:02:49*
%MOMM*%
%LPD*%
G01*
G04 APERTURE LIST*
%ADD10R,1.600000X1.600000*%
%ADD11R,0.703200X3.303200*%
%ADD12R,2.203200X3.503200*%
%ADD13R,2.203200X2.703200*%
%ADD14R,2.000000X2.000000*%
%ADD15C,2.000000*%
%ADD16O,1.841500X3.479800*%
%ADD17R,1.650000X1.400000*%
%ADD18C,3.600000*%
%ADD19R,1.700000X1.100000*%
%ADD20R,1.100000X1.700000*%
%ADD21R,6.800000X6.200000*%
%ADD22R,2.600000X1.600000*%
%ADD23R,1.400000X1.650000*%
%ADD24R,1.200000X1.150000*%
%ADD25R,1.400000X1.400000*%
%ADD26O,1.400000X1.400000*%
%ADD27R,1.300000X0.900000*%
%ADD28R,1.250000X0.700000*%
%ADD29R,0.700000X1.250000*%
%ADD30C,0.100000*%
%ADD31C,1.200000*%
%ADD32C,1.900000*%
%ADD33C,2.100000*%
%ADD34C,3.900000*%
%ADD35C,2.900000*%
%ADD36R,1.460000X1.050000*%
%ADD37R,1.150000X1.200000*%
%ADD38R,0.900000X1.300000*%
%ADD39R,1.540000X2.430000*%
%ADD40R,2.400000X2.000000*%
%ADD41R,0.420000X0.990000*%
%ADD42R,0.990000X0.420000*%
%ADD43C,0.400000*%
%ADD44R,3.850000X3.850000*%
%ADD45R,2.200000X1.400000*%
G04 APERTURE END LIST*
D10*
G04 #@! TO.C,D1*
X74000000Y-54650000D03*
X76200000Y-54650000D03*
G04 #@! TD*
D11*
G04 #@! TO.C,J7*
X99492000Y-40500000D03*
X100292000Y-40500000D03*
X101092000Y-40500000D03*
X101892000Y-40500000D03*
X102692000Y-40500000D03*
D12*
X105542000Y-40400000D03*
X96642000Y-40400000D03*
D13*
X105542000Y-34500000D03*
X96642000Y-34500000D03*
G04 #@! TD*
D14*
G04 #@! TO.C,C7*
X109000000Y-50000000D03*
D15*
X111500000Y-50000000D03*
G04 #@! TD*
D16*
G04 #@! TO.C,J4*
X91440000Y-51562000D03*
X93980000Y-51562000D03*
X88900000Y-51562000D03*
G04 #@! TD*
D17*
G04 #@! TO.C,C4*
X121666000Y-45958000D03*
X121666000Y-43958000D03*
G04 #@! TD*
D18*
G04 #@! TO.C,J1*
X76495000Y-61000000D03*
X83505000Y-61000000D03*
X83505000Y-66000000D03*
X76495000Y-66000000D03*
G04 #@! TD*
G04 #@! TO.C,J2*
X76495000Y-34000000D03*
X83505000Y-34000000D03*
X83505000Y-39000000D03*
X76495000Y-39000000D03*
G04 #@! TD*
D17*
G04 #@! TO.C,C1*
X84800000Y-50000000D03*
X84800000Y-52000000D03*
G04 #@! TD*
G04 #@! TO.C,C2*
X83312000Y-50000000D03*
X83312000Y-52000000D03*
G04 #@! TD*
G04 #@! TO.C,C3*
X115316000Y-45958000D03*
X115316000Y-43958000D03*
G04 #@! TD*
D14*
G04 #@! TO.C,C6*
X109000000Y-58000000D03*
D15*
X111500000Y-58000000D03*
G04 #@! TD*
D14*
G04 #@! TO.C,C8*
X109000000Y-42000000D03*
D15*
X111500000Y-42000000D03*
G04 #@! TD*
D10*
G04 #@! TO.C,D3*
X100800000Y-48500000D03*
X98600000Y-48500000D03*
G04 #@! TD*
D19*
G04 #@! TO.C,R4*
X78486000Y-52004000D03*
X78486000Y-50104000D03*
G04 #@! TD*
G04 #@! TO.C,R6*
X117348000Y-45908000D03*
X117348000Y-44008000D03*
G04 #@! TD*
D20*
G04 #@! TO.C,R8*
X119954000Y-50038000D03*
X121854000Y-50038000D03*
G04 #@! TD*
D21*
G04 #@! TO.C,Q1*
X83700000Y-44400000D03*
D22*
X77400000Y-46680000D03*
X77400000Y-42120000D03*
G04 #@! TD*
D23*
G04 #@! TO.C,C5*
X105900000Y-48500000D03*
X103900000Y-48500000D03*
G04 #@! TD*
D24*
G04 #@! TO.C,C18*
X86000000Y-35600000D03*
X87500000Y-35600000D03*
G04 #@! TD*
G04 #@! TO.C,C19*
X87550000Y-40400000D03*
X86050000Y-40400000D03*
G04 #@! TD*
D10*
G04 #@! TO.C,D2*
X120142000Y-55964000D03*
X120142000Y-53764000D03*
G04 #@! TD*
G04 #@! TO.C,D4*
X94700000Y-48500000D03*
X96900000Y-48500000D03*
G04 #@! TD*
D16*
G04 #@! TO.C,J3*
X101092000Y-51562000D03*
X103632000Y-51562000D03*
G04 #@! TD*
D18*
G04 #@! TO.C,J5*
X122505000Y-66000000D03*
X115495000Y-66000000D03*
X115495000Y-61000000D03*
X122505000Y-61000000D03*
G04 #@! TD*
G04 #@! TO.C,J6*
X122505000Y-34000000D03*
X115495000Y-34000000D03*
X115495000Y-39000000D03*
X122505000Y-39000000D03*
G04 #@! TD*
D25*
G04 #@! TO.C,J8*
X109220000Y-32512000D03*
D26*
X110490000Y-32512000D03*
X109220000Y-33782000D03*
X110490000Y-33782000D03*
X109220000Y-35052000D03*
X110490000Y-35052000D03*
X109220000Y-36322000D03*
X110490000Y-36322000D03*
X109220000Y-37592000D03*
X110490000Y-37592000D03*
G04 #@! TD*
D20*
G04 #@! TO.C,L1*
X94950000Y-45700000D03*
X96850000Y-45700000D03*
G04 #@! TD*
G04 #@! TO.C,L2*
X105950000Y-45500000D03*
X104050000Y-45500000D03*
G04 #@! TD*
G04 #@! TO.C,R1*
X74488000Y-52578000D03*
X76388000Y-52578000D03*
G04 #@! TD*
D27*
G04 #@! TO.C,R2*
X72136000Y-53352000D03*
X72136000Y-54852000D03*
G04 #@! TD*
G04 #@! TO.C,R3*
X72390000Y-48490000D03*
X72390000Y-46990000D03*
G04 #@! TD*
G04 #@! TO.C,R5*
X75692000Y-48248000D03*
X75692000Y-46748000D03*
G04 #@! TD*
D19*
G04 #@! TO.C,R7*
X119634000Y-44008000D03*
X119634000Y-45908000D03*
G04 #@! TD*
D20*
G04 #@! TO.C,R10*
X92050000Y-36100000D03*
X90150000Y-36100000D03*
G04 #@! TD*
D28*
G04 #@! TO.C,U1*
X78840000Y-55040000D03*
X78840000Y-54540000D03*
D29*
X80090000Y-53790000D03*
X80590000Y-53790000D03*
X79590000Y-53790000D03*
X81090000Y-53790000D03*
D28*
X81840000Y-54540000D03*
X81840000Y-55040000D03*
D30*
G36*
X80277643Y-55805867D02*
X80295116Y-55808459D01*
X80312251Y-55812751D01*
X80328883Y-55818702D01*
X80344851Y-55826254D01*
X80360003Y-55835335D01*
X80374191Y-55845858D01*
X80387279Y-55857721D01*
X80399142Y-55870809D01*
X80409665Y-55884997D01*
X80418746Y-55900149D01*
X80426298Y-55916117D01*
X80432249Y-55932749D01*
X80436541Y-55949884D01*
X80439133Y-55967357D01*
X80440000Y-55985000D01*
X80440000Y-57295000D01*
X80439133Y-57312643D01*
X80436541Y-57330116D01*
X80432249Y-57347251D01*
X80426298Y-57363883D01*
X80418746Y-57379851D01*
X80409665Y-57395003D01*
X80399142Y-57409191D01*
X80387279Y-57422279D01*
X80374191Y-57434142D01*
X80360003Y-57444665D01*
X80344851Y-57453746D01*
X80328883Y-57461298D01*
X80312251Y-57467249D01*
X80295116Y-57471541D01*
X80277643Y-57474133D01*
X80260000Y-57475000D01*
X79420000Y-57475000D01*
X79402357Y-57474133D01*
X79384884Y-57471541D01*
X79367749Y-57467249D01*
X79351117Y-57461298D01*
X79335149Y-57453746D01*
X79319997Y-57444665D01*
X79305809Y-57434142D01*
X79292721Y-57422279D01*
X79280858Y-57409191D01*
X79270335Y-57395003D01*
X79261254Y-57379851D01*
X79253702Y-57363883D01*
X79247751Y-57347251D01*
X79243459Y-57330116D01*
X79240867Y-57312643D01*
X79240000Y-57295000D01*
X79240000Y-55985000D01*
X79240867Y-55967357D01*
X79243459Y-55949884D01*
X79247751Y-55932749D01*
X79253702Y-55916117D01*
X79261254Y-55900149D01*
X79270335Y-55884997D01*
X79280858Y-55870809D01*
X79292721Y-55857721D01*
X79305809Y-55845858D01*
X79319997Y-55835335D01*
X79335149Y-55826254D01*
X79351117Y-55818702D01*
X79367749Y-55812751D01*
X79384884Y-55808459D01*
X79402357Y-55805867D01*
X79420000Y-55805000D01*
X80260000Y-55805000D01*
X80277643Y-55805867D01*
X80277643Y-55805867D01*
G37*
D31*
X79840000Y-56640000D03*
D30*
G36*
X81277643Y-55805867D02*
X81295116Y-55808459D01*
X81312251Y-55812751D01*
X81328883Y-55818702D01*
X81344851Y-55826254D01*
X81360003Y-55835335D01*
X81374191Y-55845858D01*
X81387279Y-55857721D01*
X81399142Y-55870809D01*
X81409665Y-55884997D01*
X81418746Y-55900149D01*
X81426298Y-55916117D01*
X81432249Y-55932749D01*
X81436541Y-55949884D01*
X81439133Y-55967357D01*
X81440000Y-55985000D01*
X81440000Y-57295000D01*
X81439133Y-57312643D01*
X81436541Y-57330116D01*
X81432249Y-57347251D01*
X81426298Y-57363883D01*
X81418746Y-57379851D01*
X81409665Y-57395003D01*
X81399142Y-57409191D01*
X81387279Y-57422279D01*
X81374191Y-57434142D01*
X81360003Y-57444665D01*
X81344851Y-57453746D01*
X81328883Y-57461298D01*
X81312251Y-57467249D01*
X81295116Y-57471541D01*
X81277643Y-57474133D01*
X81260000Y-57475000D01*
X80420000Y-57475000D01*
X80402357Y-57474133D01*
X80384884Y-57471541D01*
X80367749Y-57467249D01*
X80351117Y-57461298D01*
X80335149Y-57453746D01*
X80319997Y-57444665D01*
X80305809Y-57434142D01*
X80292721Y-57422279D01*
X80280858Y-57409191D01*
X80270335Y-57395003D01*
X80261254Y-57379851D01*
X80253702Y-57363883D01*
X80247751Y-57347251D01*
X80243459Y-57330116D01*
X80240867Y-57312643D01*
X80240000Y-57295000D01*
X80240000Y-55985000D01*
X80240867Y-55967357D01*
X80243459Y-55949884D01*
X80247751Y-55932749D01*
X80253702Y-55916117D01*
X80261254Y-55900149D01*
X80270335Y-55884997D01*
X80280858Y-55870809D01*
X80292721Y-55857721D01*
X80305809Y-55845858D01*
X80319997Y-55835335D01*
X80335149Y-55826254D01*
X80351117Y-55818702D01*
X80367749Y-55812751D01*
X80384884Y-55808459D01*
X80402357Y-55805867D01*
X80420000Y-55805000D01*
X81260000Y-55805000D01*
X81277643Y-55805867D01*
X81277643Y-55805867D01*
G37*
D31*
X80840000Y-56640000D03*
G04 #@! TD*
D32*
G04 #@! TO.C,U2*
X126400000Y-54000000D03*
D33*
X124400000Y-54000000D03*
X124400000Y-52000000D03*
X126400000Y-52000000D03*
X124400000Y-50000000D03*
X126400000Y-50000000D03*
X126400000Y-48000000D03*
X124400000Y-48000000D03*
X126400000Y-46000000D03*
X124400000Y-46000000D03*
D34*
X125400000Y-57620000D03*
X125400000Y-42380000D03*
D35*
X74600000Y-57620000D03*
X74600000Y-50000000D03*
X74600000Y-42380000D03*
G04 #@! TD*
D36*
G04 #@! TO.C,U3*
X98500000Y-46650000D03*
X98500000Y-44750000D03*
X100700000Y-44750000D03*
X100700000Y-45700000D03*
X100700000Y-46650000D03*
G04 #@! TD*
D37*
G04 #@! TO.C,C9*
X97500000Y-51350000D03*
X97500000Y-49850000D03*
G04 #@! TD*
D24*
G04 #@! TO.C,C10*
X95850000Y-43900000D03*
X94350000Y-43900000D03*
G04 #@! TD*
G04 #@! TO.C,C11*
X98550000Y-43600000D03*
X97050000Y-43600000D03*
G04 #@! TD*
G04 #@! TO.C,C12*
X93350000Y-46400000D03*
X91850000Y-46400000D03*
G04 #@! TD*
G04 #@! TO.C,C13*
X91850000Y-45400000D03*
X93350000Y-45400000D03*
G04 #@! TD*
G04 #@! TO.C,C14*
X104350000Y-47000000D03*
X105850000Y-47000000D03*
G04 #@! TD*
D37*
G04 #@! TO.C,C15*
X102200000Y-44150000D03*
X102200000Y-45650000D03*
G04 #@! TD*
G04 #@! TO.C,C16*
X86200000Y-50250000D03*
X86200000Y-51750000D03*
G04 #@! TD*
G04 #@! TO.C,C17*
X97500000Y-52350000D03*
X97500000Y-53850000D03*
G04 #@! TD*
G04 #@! TO.C,C20*
X88700000Y-47750000D03*
X88700000Y-49250000D03*
G04 #@! TD*
D24*
G04 #@! TO.C,C21*
X94950000Y-36400000D03*
X93450000Y-36400000D03*
G04 #@! TD*
D27*
G04 #@! TO.C,R9*
X102300000Y-48750000D03*
X102300000Y-47250000D03*
G04 #@! TD*
D38*
G04 #@! TO.C,R11*
X92050000Y-48500000D03*
X93550000Y-48500000D03*
G04 #@! TD*
D39*
G04 #@! TO.C,F1*
X103600000Y-43500000D03*
X106000000Y-43500000D03*
G04 #@! TD*
D40*
G04 #@! TO.C,SW1*
X87700000Y-33500000D03*
X93100000Y-33500000D03*
G04 #@! TD*
D41*
G04 #@! TO.C,U4*
X89630000Y-38375000D03*
X90130000Y-38375000D03*
X90630000Y-38375000D03*
X91130000Y-38375000D03*
X91630000Y-38375000D03*
X92130000Y-38375000D03*
X92630000Y-38375000D03*
D42*
X93855000Y-39100000D03*
X93855000Y-39600000D03*
X93855000Y-40100000D03*
X93855000Y-40600000D03*
X93855000Y-41100000D03*
X93855000Y-41600000D03*
X93855000Y-42100000D03*
D41*
X93130000Y-43325000D03*
X92630000Y-43325000D03*
X92130000Y-43325000D03*
X91630000Y-43325000D03*
X91130000Y-43325000D03*
X90630000Y-43325000D03*
X90130000Y-43325000D03*
D42*
X88905000Y-42600000D03*
X88905000Y-42100000D03*
X88905000Y-41600000D03*
X88905000Y-41100000D03*
X88905000Y-40600000D03*
X88905000Y-40100000D03*
X88905000Y-39600000D03*
X88905000Y-39100000D03*
D43*
X90380000Y-41850000D03*
X90380000Y-40850000D03*
X90380000Y-39850000D03*
X91380000Y-41850000D03*
X91380000Y-40849999D03*
X91380000Y-39850000D03*
X92380000Y-41850000D03*
X92380000Y-40850000D03*
X92380000Y-39850000D03*
D44*
X91380000Y-40849999D03*
D41*
X89630000Y-43325000D03*
D42*
X93855000Y-42600000D03*
D41*
X93130000Y-38375000D03*
G04 #@! TD*
D45*
G04 #@! TO.C,Y1*
X87200000Y-36750000D03*
X87200000Y-39250000D03*
G04 #@! TD*
M02*
