G04 #@! TF.GenerationSoftware,KiCad,Pcbnew,(5.0.0)*
G04 #@! TF.CreationDate,2018-11-03T21:02:49-02:30*
G04 #@! TF.ProjectId,DC-DC Board Micro,44432D444320426F617264204D696372,rev?*
G04 #@! TF.SameCoordinates,Original*
G04 #@! TF.FileFunction,Copper,L2,Bot,Mixed*
G04 #@! TF.FilePolarity,Positive*
%FSLAX46Y46*%
G04 Gerber Fmt 4.6, Leading zero omitted, Abs format (unit mm)*
G04 Created by KiCad (PCBNEW (5.0.0)) date 11/03/18 21:02:49*
%MOMM*%
%LPD*%
G01*
G04 APERTURE LIST*
G04 #@! TA.AperFunction,ComponentPad*
%ADD10R,1.600000X1.600000*%
G04 #@! TD*
G04 #@! TA.AperFunction,ComponentPad*
%ADD11C,1.600000*%
G04 #@! TD*
G04 #@! TA.AperFunction,ComponentPad*
%ADD12O,1.638300X3.276600*%
G04 #@! TD*
G04 #@! TA.AperFunction,ComponentPad*
%ADD13C,3.200000*%
G04 #@! TD*
G04 #@! TA.AperFunction,ComponentPad*
%ADD14R,1.000000X1.000000*%
G04 #@! TD*
G04 #@! TA.AperFunction,ComponentPad*
%ADD15O,1.000000X1.000000*%
G04 #@! TD*
G04 #@! TA.AperFunction,ComponentPad*
%ADD16C,1.500000*%
G04 #@! TD*
G04 #@! TA.AperFunction,ComponentPad*
%ADD17C,1.700000*%
G04 #@! TD*
G04 #@! TA.AperFunction,ComponentPad*
%ADD18C,3.500000*%
G04 #@! TD*
G04 #@! TA.AperFunction,ComponentPad*
%ADD19C,2.500000*%
G04 #@! TD*
G04 #@! TA.AperFunction,ComponentPad*
%ADD20C,0.200000*%
G04 #@! TD*
G04 #@! TA.AperFunction,ViaPad*
%ADD21C,0.600000*%
G04 #@! TD*
G04 #@! TA.AperFunction,ViaPad*
%ADD22C,0.800000*%
G04 #@! TD*
G04 #@! TA.AperFunction,Conductor*
%ADD23C,0.250000*%
G04 #@! TD*
G04 #@! TA.AperFunction,Conductor*
%ADD24C,0.200000*%
G04 #@! TD*
G04 #@! TA.AperFunction,Conductor*
%ADD25C,0.254000*%
G04 #@! TD*
G04 APERTURE END LIST*
D10*
G04 #@! TO.P,C7,1*
G04 #@! TO.N,+12V*
X109000000Y-50000000D03*
D11*
G04 #@! TO.P,C7,2*
G04 #@! TO.N,GND*
X111500000Y-50000000D03*
G04 #@! TD*
D12*
G04 #@! TO.P,J4,2*
G04 #@! TO.N,VIOUT3*
X91440000Y-51562000D03*
G04 #@! TO.P,J4,1*
G04 #@! TO.N,VIOUT2*
X93980000Y-51562000D03*
G04 #@! TO.P,J4,3*
G04 #@! TO.N,GND*
X88900000Y-51562000D03*
G04 #@! TD*
D13*
G04 #@! TO.P,J1,1*
G04 #@! TO.N,/+48V*
X76495000Y-61000000D03*
X83505000Y-61000000D03*
X83505000Y-66000000D03*
X76495000Y-66000000D03*
G04 #@! TD*
G04 #@! TO.P,J2,1*
G04 #@! TO.N,Net-(J2-Pad1)*
X76495000Y-34000000D03*
X83505000Y-34000000D03*
X83505000Y-39000000D03*
X76495000Y-39000000D03*
G04 #@! TD*
D10*
G04 #@! TO.P,C6,1*
G04 #@! TO.N,+12V*
X109000000Y-58000000D03*
D11*
G04 #@! TO.P,C6,2*
G04 #@! TO.N,GND*
X111500000Y-58000000D03*
G04 #@! TD*
D10*
G04 #@! TO.P,C8,1*
G04 #@! TO.N,+12V*
X109000000Y-42000000D03*
D11*
G04 #@! TO.P,C8,2*
G04 #@! TO.N,GND*
X111500000Y-42000000D03*
G04 #@! TD*
D12*
G04 #@! TO.P,J3,2*
G04 #@! TO.N,SCL*
X101092000Y-51562000D03*
G04 #@! TO.P,J3,1*
G04 #@! TO.N,SDA*
X103632000Y-51562000D03*
G04 #@! TD*
D13*
G04 #@! TO.P,J5,1*
G04 #@! TO.N,+12V*
X122505000Y-66000000D03*
X115495000Y-66000000D03*
X115495000Y-61000000D03*
X122505000Y-61000000D03*
G04 #@! TD*
G04 #@! TO.P,J6,1*
G04 #@! TO.N,GND*
X122505000Y-34000000D03*
X115495000Y-34000000D03*
X115495000Y-39000000D03*
X122505000Y-39000000D03*
G04 #@! TD*
D14*
G04 #@! TO.P,J8,1*
G04 #@! TO.N,+3V3*
X109220000Y-32512000D03*
D15*
G04 #@! TO.P,J8,2*
G04 #@! TO.N,SWDIO*
X110490000Y-32512000D03*
G04 #@! TO.P,J8,3*
G04 #@! TO.N,GND*
X109220000Y-33782000D03*
G04 #@! TO.P,J8,4*
G04 #@! TO.N,SWCLK*
X110490000Y-33782000D03*
G04 #@! TO.P,J8,5*
G04 #@! TO.N,GND*
X109220000Y-35052000D03*
G04 #@! TO.P,J8,6*
G04 #@! TO.N,Net-(J8-Pad6)*
X110490000Y-35052000D03*
G04 #@! TO.P,J8,7*
G04 #@! TO.N,Net-(J8-Pad7)*
X109220000Y-36322000D03*
G04 #@! TO.P,J8,8*
G04 #@! TO.N,Net-(J8-Pad8)*
X110490000Y-36322000D03*
G04 #@! TO.P,J8,9*
G04 #@! TO.N,Net-(J8-Pad9)*
X109220000Y-37592000D03*
G04 #@! TO.P,J8,10*
G04 #@! TO.N,~RESET~*
X110490000Y-37592000D03*
G04 #@! TD*
D16*
G04 #@! TO.P,U2,15*
G04 #@! TO.N,GND*
X126400000Y-54000000D03*
D17*
G04 #@! TO.P,U2,14*
G04 #@! TO.N,Net-(U2-Pad14)*
X124400000Y-54000000D03*
G04 #@! TO.P,U2,12*
G04 #@! TO.N,Net-(U2-Pad12)*
X124400000Y-52000000D03*
G04 #@! TO.P,U2,13*
G04 #@! TO.N,GND*
X126400000Y-52000000D03*
G04 #@! TO.P,U2,10*
G04 #@! TO.N,SCL*
X124400000Y-50000000D03*
G04 #@! TO.P,U2,11*
G04 #@! TO.N,SDA*
X126400000Y-50000000D03*
G04 #@! TO.P,U2,9*
G04 #@! TO.N,Net-(C3-Pad1)*
X126400000Y-48000000D03*
G04 #@! TO.P,U2,8*
G04 #@! TO.N,Net-(C4-Pad1)*
X124400000Y-48000000D03*
G04 #@! TO.P,U2,7*
G04 #@! TO.N,GND*
X126400000Y-46000000D03*
G04 #@! TO.P,U2,6*
G04 #@! TO.N,+12V*
X124400000Y-46000000D03*
D18*
G04 #@! TO.P,U2,16*
X125400000Y-57620000D03*
G04 #@! TO.P,U2,5*
G04 #@! TO.N,GND*
X125400000Y-42380000D03*
D19*
G04 #@! TO.P,U2,1*
G04 #@! TO.N,Net-(D1-Pad2)*
X74600000Y-57620000D03*
G04 #@! TO.P,U2,2*
G04 #@! TO.N,Net-(R5-Pad1)*
X74600000Y-50000000D03*
G04 #@! TO.P,U2,4*
G04 #@! TO.N,Earth*
X74600000Y-42380000D03*
G04 #@! TD*
D20*
G04 #@! TO.P,U4,33*
G04 #@! TO.N,N/C*
X90380000Y-41850000D03*
X90380000Y-40850000D03*
X90380000Y-39850000D03*
X91380000Y-41850000D03*
X91380000Y-40849999D03*
X91380000Y-39850000D03*
X92380000Y-41850000D03*
X92380000Y-40850000D03*
X92380000Y-39850000D03*
G04 #@! TD*
D21*
G04 #@! TO.N,/+48V*
X81100000Y-58200000D03*
X82700000Y-57300000D03*
X82800000Y-58700000D03*
X81000000Y-59700000D03*
D22*
X79140000Y-61010000D03*
X80820000Y-62480000D03*
X79200000Y-65400000D03*
X80670000Y-66760000D03*
X84380000Y-63520000D03*
X75250000Y-63510000D03*
X73740000Y-67210000D03*
X72340000Y-65560000D03*
X73970000Y-64630000D03*
X72390000Y-62510000D03*
X73720000Y-60550000D03*
X81800000Y-64000000D03*
X77700000Y-63500000D03*
G04 #@! TO.N,+12V*
X127650000Y-66820000D03*
X125260000Y-65370000D03*
X127360000Y-62240000D03*
X125480000Y-61060000D03*
X127850000Y-59710000D03*
X124140000Y-63400000D03*
X120980000Y-63370000D03*
X117300000Y-63450000D03*
X113600000Y-63440000D03*
X118390000Y-67130000D03*
X119400000Y-64940000D03*
X119020000Y-62120000D03*
X120030000Y-60270000D03*
X117860000Y-59040000D03*
X122380000Y-58200000D03*
X116320000Y-56360000D03*
X114520000Y-58240000D03*
X112700000Y-62000000D03*
X110900000Y-63600000D03*
X108500000Y-62200000D03*
X108180000Y-64330000D03*
X111590000Y-65410000D03*
X109190000Y-66650000D03*
X112740000Y-67100000D03*
X119970000Y-57660000D03*
X122500000Y-56340000D03*
X127490000Y-64520000D03*
X122816514Y-47584413D03*
G04 #@! TO.N,GND*
X80512653Y-52612653D03*
X83290000Y-55010000D03*
X115210000Y-42710000D03*
X117348000Y-41480000D03*
X119634000Y-42672000D03*
X122670000Y-41650000D03*
X119000000Y-39770000D03*
X120040000Y-37890000D03*
X117190000Y-36500000D03*
X114200000Y-36540000D03*
X118410000Y-34480000D03*
X117650000Y-32830000D03*
X119880000Y-32830000D03*
X119900000Y-36000000D03*
X122174000Y-36420000D03*
X125220000Y-38550000D03*
X127840000Y-40640000D03*
X127600000Y-37800000D03*
X125984000Y-35052000D03*
X127762000Y-33528000D03*
X125580000Y-33240000D03*
X121200000Y-47574990D03*
X98800000Y-38800000D03*
X105100000Y-49500000D03*
X99600000Y-44000000D03*
X103900000Y-34500000D03*
X103900000Y-40400000D03*
X90100000Y-44600000D03*
X95000000Y-42800000D03*
X94800000Y-35500000D03*
D21*
X91855000Y-37365384D03*
D22*
X100000000Y-33600000D03*
D21*
X89758051Y-33258051D03*
D22*
X104800000Y-38000000D03*
X98600000Y-50400000D03*
G04 #@! TO.N,Earth*
X72750000Y-51450000D03*
X77740000Y-44000000D03*
X77760000Y-45200000D03*
X76120000Y-44820000D03*
X74440000Y-45740000D03*
X73630000Y-44330000D03*
X72350001Y-45590000D03*
X71860000Y-43390000D03*
X72500000Y-41420000D03*
G04 #@! TO.N,+3V3*
X77800000Y-53900000D03*
X83100000Y-53500000D03*
X107900000Y-32500000D03*
X103200000Y-33600000D03*
D21*
X90262653Y-34662653D03*
X93700000Y-37400000D03*
D22*
G04 #@! TO.N,SDA*
X127600000Y-55200000D03*
D21*
X95000000Y-41400000D03*
D22*
G04 #@! TO.N,SCL*
X105900000Y-50200000D03*
D21*
X95000000Y-40300000D03*
X100000010Y-49600000D03*
G04 #@! TO.N,Net-(D1-Pad2)*
X76900000Y-58500000D03*
X76600000Y-56700000D03*
X77800000Y-57300000D03*
X78600000Y-58500000D03*
G04 #@! TO.N,Net-(Q1-Pad1)*
X79850000Y-42800000D03*
X73430000Y-48060000D03*
D22*
G04 #@! TO.N,VIOUT3*
X88825000Y-43300000D03*
D21*
X88800006Y-46700000D03*
D22*
G04 #@! TO.N,VIOUT2*
X96500000Y-54900000D03*
D21*
G04 #@! TO.N,Net-(C21-Pad1)*
X93400000Y-35000000D03*
X91100000Y-35000000D03*
D22*
G04 #@! TO.N,Net-(J2-Pad1)*
X74220000Y-32600000D03*
X79810000Y-32810000D03*
X80720000Y-34140000D03*
X73520000Y-34510000D03*
X74910000Y-37090000D03*
X73490000Y-39310000D03*
X72050000Y-38320000D03*
X77290000Y-36590000D03*
X78870000Y-35590000D03*
X81110000Y-37320000D03*
X82500000Y-36410000D03*
X79550000Y-39880000D03*
X81550000Y-46070000D03*
X83990000Y-46110000D03*
X86370000Y-46100000D03*
X86350000Y-44120000D03*
X83990000Y-44090000D03*
X81520000Y-44170000D03*
X86340000Y-42370000D03*
X84050000Y-42340000D03*
X81510000Y-42370000D03*
X72000000Y-33100000D03*
D21*
G04 #@! TO.N,USB-*
X95000000Y-39500000D03*
X101900000Y-43200000D03*
G04 #@! TO.N,USB+*
X94700000Y-38700000D03*
X101100000Y-42500000D03*
G04 #@! TO.N,SWCLK*
X94663783Y-32852319D03*
G04 #@! TO.N,SWDIO*
X88712653Y-37287347D03*
D22*
G04 #@! TO.N,Net-(R4-Pad2)*
X81800000Y-52500000D03*
X80350000Y-49750000D03*
G04 #@! TO.N,Net-(R11-Pad1)*
X92600000Y-44500000D03*
D21*
X92100000Y-47600000D03*
G04 #@! TD*
D23*
G04 #@! TO.N,+12V*
X122816514Y-47583486D02*
X122816514Y-47584413D01*
X124400000Y-46000000D02*
X122816514Y-47583486D01*
G04 #@! TO.N,Earth*
X73350001Y-43629999D02*
X74600000Y-42380000D01*
X72350001Y-51050001D02*
X72350001Y-45590000D01*
X72750000Y-51450000D02*
X72350001Y-51050001D01*
X72350001Y-44629999D02*
X73350001Y-43629999D01*
X72350001Y-45590000D02*
X72350001Y-44629999D01*
G04 #@! TO.N,+3V3*
X78199999Y-53500001D02*
X77800000Y-53900000D01*
X83100000Y-53500000D02*
X78199999Y-53500001D01*
X104300000Y-32500000D02*
X103599999Y-33200001D01*
X107900000Y-32500000D02*
X104300000Y-32500000D01*
X103599999Y-33200001D02*
X103200000Y-33600000D01*
X90262653Y-35086917D02*
X91175736Y-36000000D01*
X90262653Y-34662653D02*
X90262653Y-35086917D01*
X91175736Y-36000000D02*
X92300000Y-36000000D01*
X92300000Y-36000000D02*
X93700000Y-37400000D01*
G04 #@! TO.N,SDA*
X127600000Y-55200000D02*
X104476000Y-55200000D01*
X103632000Y-54356000D02*
X103632000Y-51562000D01*
X104476000Y-55200000D02*
X103632000Y-54356000D01*
D24*
X103632000Y-52381150D02*
X103632000Y-51562000D01*
X95700001Y-42100001D02*
X95700001Y-42500001D01*
X95000000Y-41400000D02*
X95700001Y-42100001D01*
X95700001Y-42500001D02*
X99400000Y-46200000D01*
X102512840Y-53500310D02*
X103632000Y-52381150D01*
X100400310Y-53500310D02*
X102512840Y-53500310D01*
X100400310Y-53500310D02*
X99800000Y-52900000D01*
X99800000Y-50500000D02*
X99400000Y-50100000D01*
X99800000Y-52900000D02*
X99800000Y-50500000D01*
X99400000Y-46200000D02*
X99400000Y-50100000D01*
D23*
G04 #@! TO.N,SCL*
X106299999Y-49800001D02*
X105900000Y-50200000D01*
X122900000Y-48500000D02*
X107600000Y-48500000D01*
X124400000Y-50000000D02*
X122900000Y-48500000D01*
X107600000Y-48500000D02*
X106299999Y-49800001D01*
D24*
X96200000Y-41500000D02*
X96200000Y-42200000D01*
X96200000Y-42200000D02*
X100000010Y-46000010D01*
X100000010Y-46000010D02*
X100000010Y-49175736D01*
X100000010Y-49175736D02*
X100000010Y-49600000D01*
X95000000Y-40300000D02*
X96200000Y-41500000D01*
D23*
G04 #@! TO.N,Net-(Q1-Pad1)*
X73590000Y-47900000D02*
X73430000Y-48060000D01*
X79360000Y-47900000D02*
X73590000Y-47900000D01*
X79850000Y-42800000D02*
X79850000Y-47410000D01*
X79850000Y-47410000D02*
X79360000Y-47900000D01*
G04 #@! TO.N,VIOUT3*
X88825000Y-43300000D02*
X88825000Y-46675006D01*
X88825000Y-46675006D02*
X88800006Y-46700000D01*
G04 #@! TO.N,VIOUT2*
X93980000Y-51562000D02*
X93980000Y-54180000D01*
X93980000Y-54180000D02*
X94700000Y-54900000D01*
X96500000Y-54900000D02*
X94700000Y-54900000D01*
G04 #@! TO.N,Net-(C21-Pad1)*
X91100000Y-35000000D02*
X93400000Y-35000000D01*
D24*
G04 #@! TO.N,USB-*
X99100000Y-43200000D02*
X101900000Y-43200000D01*
X95150010Y-39500000D02*
X95500000Y-39150010D01*
X95000000Y-39500000D02*
X95150010Y-39500000D01*
X95500000Y-39150010D02*
X97113600Y-39150010D01*
X97113600Y-39150010D02*
X98149990Y-40186400D01*
X98149990Y-40186400D02*
X98149990Y-42249990D01*
X98149990Y-42249990D02*
X99100000Y-43200000D01*
G04 #@! TO.N,USB+*
X94700000Y-38700000D02*
X97300000Y-38700000D01*
X97300000Y-38700000D02*
X98600000Y-40000000D01*
X98600000Y-40000000D02*
X98600000Y-42000000D01*
X98600000Y-42000000D02*
X99100000Y-42500000D01*
X99100000Y-42500000D02*
X101100000Y-42500000D01*
D23*
G04 #@! TO.N,SWCLK*
X111315000Y-37988002D02*
X110003002Y-39300000D01*
X104636411Y-35500000D02*
X97311464Y-35500000D01*
X110003002Y-39300000D02*
X108436410Y-39300000D01*
X97311464Y-35500000D02*
X94963782Y-33152318D01*
X108436410Y-39300000D02*
X104636411Y-35500000D01*
X110490000Y-33782000D02*
X111315000Y-34607000D01*
X94963782Y-33152318D02*
X94663783Y-32852319D01*
X111315000Y-34607000D02*
X111315000Y-37988002D01*
G04 #@! TO.N,SWDIO*
X110989999Y-33011999D02*
X110490000Y-32512000D01*
X111765011Y-33787011D02*
X110989999Y-33011999D01*
X93486467Y-32600000D02*
X96836478Y-35950011D01*
X111765011Y-38174402D02*
X111765011Y-33787011D01*
X108250011Y-39750011D02*
X110189402Y-39750011D01*
X88712653Y-33087347D02*
X89200000Y-32600000D01*
X88712653Y-37287347D02*
X88712653Y-33087347D01*
X89200000Y-32600000D02*
X93486467Y-32600000D01*
X104450011Y-35950011D02*
X108250011Y-39750011D01*
X96836478Y-35950011D02*
X104450011Y-35950011D01*
X110189402Y-39750011D02*
X111765011Y-38174402D01*
G04 #@! TO.N,Net-(R4-Pad2)*
X81800000Y-52500000D02*
X81800000Y-51200000D01*
X81800000Y-51200000D02*
X80749999Y-50149999D01*
X80749999Y-50149999D02*
X80350000Y-49750000D01*
G04 #@! TO.N,Net-(R11-Pad1)*
X92600000Y-44500000D02*
X93300000Y-45200000D01*
X92100000Y-47600000D02*
X93200000Y-47600000D01*
X93300000Y-47500000D02*
X93300000Y-45200000D01*
X93200000Y-47600000D02*
X93300000Y-47500000D01*
G04 #@! TD*
D25*
G04 #@! TO.N,GND*
G36*
X103938079Y-32138079D02*
X103910075Y-32179991D01*
X103279993Y-32810073D01*
X103279990Y-32810075D01*
X103267065Y-32823000D01*
X103045445Y-32823000D01*
X102759865Y-32941291D01*
X102541291Y-33159865D01*
X102423000Y-33445445D01*
X102423000Y-33754555D01*
X102541291Y-34040135D01*
X102759865Y-34258709D01*
X103045445Y-34377000D01*
X103354555Y-34377000D01*
X103640135Y-34258709D01*
X103746603Y-34152241D01*
X108480506Y-34152241D01*
X108594932Y-34323549D01*
X108715214Y-34417000D01*
X108594932Y-34510451D01*
X108480506Y-34681759D01*
X108517933Y-34802000D01*
X108970000Y-34802000D01*
X108970000Y-34032000D01*
X108517933Y-34032000D01*
X108480506Y-34152241D01*
X103746603Y-34152241D01*
X103858709Y-34040135D01*
X103977000Y-33754555D01*
X103977000Y-33532935D01*
X103989925Y-33520010D01*
X103989927Y-33520007D01*
X104507935Y-33002000D01*
X107303156Y-33002000D01*
X107459865Y-33158709D01*
X107745445Y-33277000D01*
X108054555Y-33277000D01*
X108340135Y-33158709D01*
X108360706Y-33138138D01*
X108364875Y-33159098D01*
X108448199Y-33283801D01*
X108529632Y-33338213D01*
X108480506Y-33411759D01*
X108517933Y-33532000D01*
X108970000Y-33532000D01*
X108970000Y-33396385D01*
X109470000Y-33396385D01*
X109470000Y-33532000D01*
X109613000Y-33532000D01*
X109613000Y-33695625D01*
X109595819Y-33782000D01*
X109613000Y-33868375D01*
X109613000Y-34032000D01*
X109470000Y-34032000D01*
X109470000Y-34802000D01*
X109613000Y-34802000D01*
X109613000Y-34965625D01*
X109595819Y-35052000D01*
X109613000Y-35138375D01*
X109613000Y-35302000D01*
X109470000Y-35302000D01*
X109470000Y-35445000D01*
X108970000Y-35445000D01*
X108970000Y-35302000D01*
X108517933Y-35302000D01*
X108480506Y-35422241D01*
X108594932Y-35593549D01*
X108658145Y-35642661D01*
X108587719Y-35689719D01*
X108393884Y-35979812D01*
X108325819Y-36322000D01*
X108393884Y-36664188D01*
X108587719Y-36954281D01*
X108591788Y-36957000D01*
X108587719Y-36959719D01*
X108393884Y-37249812D01*
X108325819Y-37592000D01*
X108393884Y-37934188D01*
X108587719Y-38224281D01*
X108877812Y-38418116D01*
X109133625Y-38469000D01*
X109306375Y-38469000D01*
X109562188Y-38418116D01*
X109852281Y-38224281D01*
X109855000Y-38220212D01*
X109857719Y-38224281D01*
X110147812Y-38418116D01*
X110170449Y-38422619D01*
X109795068Y-38798000D01*
X108644345Y-38798000D01*
X105026336Y-35179990D01*
X104998332Y-35138079D01*
X104832281Y-35027127D01*
X104685850Y-34998000D01*
X104685845Y-34998000D01*
X104636411Y-34988167D01*
X104586977Y-34998000D01*
X97519399Y-34998000D01*
X95340783Y-32819385D01*
X95340783Y-32717655D01*
X95237716Y-32468829D01*
X95047273Y-32278386D01*
X94798447Y-32175319D01*
X94529119Y-32175319D01*
X94280293Y-32278386D01*
X94089850Y-32468829D01*
X94082639Y-32486238D01*
X93876394Y-32279993D01*
X93848388Y-32238079D01*
X93682337Y-32127127D01*
X93535906Y-32098000D01*
X93535901Y-32098000D01*
X93486467Y-32088167D01*
X93437033Y-32098000D01*
X89249434Y-32098000D01*
X89200000Y-32088167D01*
X89150566Y-32098000D01*
X89150561Y-32098000D01*
X89004130Y-32127127D01*
X88969780Y-32150079D01*
X88891336Y-32202494D01*
X88838079Y-32238079D01*
X88810074Y-32279991D01*
X88392644Y-32697422D01*
X88350733Y-32725426D01*
X88322729Y-32767337D01*
X88322727Y-32767339D01*
X88264697Y-32854188D01*
X88239781Y-32891477D01*
X88226261Y-32959449D01*
X88200820Y-33087347D01*
X88210654Y-33136786D01*
X88210653Y-36831924D01*
X88138720Y-36903857D01*
X88035653Y-37152683D01*
X88035653Y-37422011D01*
X88138720Y-37670837D01*
X88329163Y-37861280D01*
X88577989Y-37964347D01*
X88847317Y-37964347D01*
X89096143Y-37861280D01*
X89286586Y-37670837D01*
X89389653Y-37422011D01*
X89389653Y-37152683D01*
X89286586Y-36903857D01*
X89214653Y-36831924D01*
X89214653Y-34527989D01*
X89585653Y-34527989D01*
X89585653Y-34797317D01*
X89688720Y-35046143D01*
X89756115Y-35113538D01*
X89760653Y-35136351D01*
X89760653Y-35136356D01*
X89772492Y-35195870D01*
X89789781Y-35282787D01*
X89872727Y-35406925D01*
X89872729Y-35406927D01*
X89900733Y-35448838D01*
X89942644Y-35476842D01*
X90785812Y-36320012D01*
X90813815Y-36361921D01*
X90855723Y-36389923D01*
X90855726Y-36389926D01*
X90905052Y-36422884D01*
X90979866Y-36472873D01*
X91126297Y-36502000D01*
X91126301Y-36502000D01*
X91175735Y-36511833D01*
X91225169Y-36502000D01*
X92092066Y-36502000D01*
X93023000Y-37432935D01*
X93023000Y-37534664D01*
X93126067Y-37783490D01*
X93316510Y-37973933D01*
X93565336Y-38077000D01*
X93834664Y-38077000D01*
X94083490Y-37973933D01*
X94273933Y-37783490D01*
X94377000Y-37534664D01*
X94377000Y-37335499D01*
X98065000Y-37335499D01*
X98065000Y-37664501D01*
X98190903Y-37968458D01*
X98423542Y-38201097D01*
X98727499Y-38327000D01*
X99056501Y-38327000D01*
X99360458Y-38201097D01*
X99593097Y-37968458D01*
X99719000Y-37664501D01*
X99719000Y-37335499D01*
X102465000Y-37335499D01*
X102465000Y-37664501D01*
X102590903Y-37968458D01*
X102823542Y-38201097D01*
X103127499Y-38327000D01*
X103456501Y-38327000D01*
X103760458Y-38201097D01*
X103993097Y-37968458D01*
X104119000Y-37664501D01*
X104119000Y-37335499D01*
X103993097Y-37031542D01*
X103760458Y-36798903D01*
X103456501Y-36673000D01*
X103127499Y-36673000D01*
X102823542Y-36798903D01*
X102590903Y-37031542D01*
X102465000Y-37335499D01*
X99719000Y-37335499D01*
X99593097Y-37031542D01*
X99360458Y-36798903D01*
X99056501Y-36673000D01*
X98727499Y-36673000D01*
X98423542Y-36798903D01*
X98190903Y-37031542D01*
X98065000Y-37335499D01*
X94377000Y-37335499D01*
X94377000Y-37265336D01*
X94273933Y-37016510D01*
X94083490Y-36826067D01*
X93834664Y-36723000D01*
X93732935Y-36723000D01*
X92689927Y-35679993D01*
X92661921Y-35638079D01*
X92495870Y-35527127D01*
X92369548Y-35502000D01*
X92944577Y-35502000D01*
X93016510Y-35573933D01*
X93265336Y-35677000D01*
X93534664Y-35677000D01*
X93783490Y-35573933D01*
X93973933Y-35383490D01*
X94077000Y-35134664D01*
X94077000Y-34865336D01*
X93973933Y-34616510D01*
X93783490Y-34426067D01*
X93534664Y-34323000D01*
X93265336Y-34323000D01*
X93016510Y-34426067D01*
X92944577Y-34498000D01*
X91555423Y-34498000D01*
X91483490Y-34426067D01*
X91234664Y-34323000D01*
X90965336Y-34323000D01*
X90870940Y-34362100D01*
X90836586Y-34279163D01*
X90646143Y-34088720D01*
X90397317Y-33985653D01*
X90127989Y-33985653D01*
X89879163Y-34088720D01*
X89688720Y-34279163D01*
X89585653Y-34527989D01*
X89214653Y-34527989D01*
X89214653Y-33295281D01*
X89407935Y-33102000D01*
X93278533Y-33102000D01*
X96446553Y-36270021D01*
X96474557Y-36311932D01*
X96640608Y-36422884D01*
X96787039Y-36452011D01*
X96787044Y-36452011D01*
X96836478Y-36461844D01*
X96885912Y-36452011D01*
X104242077Y-36452011D01*
X107860086Y-40070021D01*
X107888090Y-40111932D01*
X107930001Y-40139936D01*
X107930002Y-40139937D01*
X108054140Y-40222884D01*
X108085340Y-40229090D01*
X108200572Y-40252011D01*
X108200576Y-40252011D01*
X108250011Y-40261844D01*
X108299446Y-40252011D01*
X110139968Y-40252011D01*
X110189402Y-40261844D01*
X110238836Y-40252011D01*
X110238841Y-40252011D01*
X110385272Y-40222884D01*
X110551323Y-40111932D01*
X110579329Y-40070018D01*
X111736974Y-38912373D01*
X113532204Y-38912373D01*
X113648080Y-39670173D01*
X113715146Y-39832086D01*
X113926150Y-40041348D01*
X114967498Y-39000000D01*
X116022502Y-39000000D01*
X117063850Y-40041348D01*
X117274854Y-39832086D01*
X117457796Y-39087627D01*
X117430998Y-38912373D01*
X120542204Y-38912373D01*
X120658080Y-39670173D01*
X120725146Y-39832086D01*
X120936150Y-40041348D01*
X121977498Y-39000000D01*
X123032502Y-39000000D01*
X124073850Y-40041348D01*
X124284854Y-39832086D01*
X124467796Y-39087627D01*
X124351920Y-38329827D01*
X124284854Y-38167914D01*
X124073850Y-37958652D01*
X123032502Y-39000000D01*
X121977498Y-39000000D01*
X120936150Y-37958652D01*
X120725146Y-38167914D01*
X120542204Y-38912373D01*
X117430998Y-38912373D01*
X117341920Y-38329827D01*
X117274854Y-38167914D01*
X117063850Y-37958652D01*
X116022502Y-39000000D01*
X114967498Y-39000000D01*
X113926150Y-37958652D01*
X113715146Y-38167914D01*
X113532204Y-38912373D01*
X111736974Y-38912373D01*
X112085021Y-38564327D01*
X112126932Y-38536323D01*
X112237884Y-38370272D01*
X112267011Y-38223841D01*
X112267011Y-38223836D01*
X112276844Y-38174402D01*
X112267011Y-38124968D01*
X112267011Y-37431150D01*
X114453652Y-37431150D01*
X115495000Y-38472498D01*
X116536348Y-37431150D01*
X121463652Y-37431150D01*
X122505000Y-38472498D01*
X123546348Y-37431150D01*
X123337086Y-37220146D01*
X122592627Y-37037204D01*
X121834827Y-37153080D01*
X121672914Y-37220146D01*
X121463652Y-37431150D01*
X116536348Y-37431150D01*
X116327086Y-37220146D01*
X115582627Y-37037204D01*
X114824827Y-37153080D01*
X114662914Y-37220146D01*
X114453652Y-37431150D01*
X112267011Y-37431150D01*
X112267011Y-35568850D01*
X114453652Y-35568850D01*
X114662914Y-35779854D01*
X115407373Y-35962796D01*
X116165173Y-35846920D01*
X116327086Y-35779854D01*
X116536348Y-35568850D01*
X121463652Y-35568850D01*
X121672914Y-35779854D01*
X122417373Y-35962796D01*
X123175173Y-35846920D01*
X123337086Y-35779854D01*
X123546348Y-35568850D01*
X122505000Y-34527502D01*
X121463652Y-35568850D01*
X116536348Y-35568850D01*
X115495000Y-34527502D01*
X114453652Y-35568850D01*
X112267011Y-35568850D01*
X112267011Y-33912373D01*
X113532204Y-33912373D01*
X113648080Y-34670173D01*
X113715146Y-34832086D01*
X113926150Y-35041348D01*
X114967498Y-34000000D01*
X116022502Y-34000000D01*
X117063850Y-35041348D01*
X117274854Y-34832086D01*
X117457796Y-34087627D01*
X117430998Y-33912373D01*
X120542204Y-33912373D01*
X120658080Y-34670173D01*
X120725146Y-34832086D01*
X120936150Y-35041348D01*
X121977498Y-34000000D01*
X123032502Y-34000000D01*
X124073850Y-35041348D01*
X124284854Y-34832086D01*
X124467796Y-34087627D01*
X124351920Y-33329827D01*
X124284854Y-33167914D01*
X124073850Y-32958652D01*
X123032502Y-34000000D01*
X121977498Y-34000000D01*
X120936150Y-32958652D01*
X120725146Y-33167914D01*
X120542204Y-33912373D01*
X117430998Y-33912373D01*
X117341920Y-33329827D01*
X117274854Y-33167914D01*
X117063850Y-32958652D01*
X116022502Y-34000000D01*
X114967498Y-34000000D01*
X113926150Y-32958652D01*
X113715146Y-33167914D01*
X113532204Y-33912373D01*
X112267011Y-33912373D01*
X112267011Y-33836444D01*
X112276844Y-33787010D01*
X112267011Y-33737576D01*
X112267011Y-33737572D01*
X112237884Y-33591141D01*
X112218361Y-33561922D01*
X112161800Y-33477273D01*
X112126932Y-33425090D01*
X112085020Y-33397086D01*
X111379926Y-32691992D01*
X111379924Y-32691989D01*
X111353613Y-32665678D01*
X111384181Y-32512000D01*
X111368100Y-32431150D01*
X114453652Y-32431150D01*
X115495000Y-33472498D01*
X116536348Y-32431150D01*
X121463652Y-32431150D01*
X122505000Y-33472498D01*
X123546348Y-32431150D01*
X123337086Y-32220146D01*
X122592627Y-32037204D01*
X121834827Y-32153080D01*
X121672914Y-32220146D01*
X121463652Y-32431150D01*
X116536348Y-32431150D01*
X116327086Y-32220146D01*
X115582627Y-32037204D01*
X114824827Y-32153080D01*
X114662914Y-32220146D01*
X114453652Y-32431150D01*
X111368100Y-32431150D01*
X111316116Y-32169812D01*
X111227373Y-32037000D01*
X127167798Y-32037000D01*
X127633178Y-32103647D01*
X128031533Y-32284769D01*
X128363041Y-32570415D01*
X128601054Y-32937623D01*
X128730914Y-33371846D01*
X128748000Y-33601769D01*
X128748001Y-56306486D01*
X128700630Y-56242425D01*
X128259020Y-55806961D01*
X128164056Y-55738776D01*
X128161405Y-55737439D01*
X128258709Y-55640135D01*
X128377000Y-55354555D01*
X128377000Y-55045445D01*
X128258709Y-54759865D01*
X128040135Y-54541291D01*
X127754555Y-54423000D01*
X127445445Y-54423000D01*
X127159865Y-54541291D01*
X127003156Y-54698000D01*
X125437239Y-54698000D01*
X125440200Y-54695039D01*
X125627000Y-54244065D01*
X125627000Y-53755935D01*
X125440200Y-53304961D01*
X125135239Y-53000000D01*
X125440200Y-52695039D01*
X125627000Y-52244065D01*
X125627000Y-51755935D01*
X125440200Y-51304961D01*
X125135239Y-51000000D01*
X125400000Y-50735239D01*
X125704961Y-51040200D01*
X126155935Y-51227000D01*
X126644065Y-51227000D01*
X127095039Y-51040200D01*
X127440200Y-50695039D01*
X127627000Y-50244065D01*
X127627000Y-49755935D01*
X127440200Y-49304961D01*
X127135239Y-49000000D01*
X127440200Y-48695039D01*
X127627000Y-48244065D01*
X127627000Y-47755935D01*
X127440200Y-47304961D01*
X127095039Y-46959800D01*
X126644065Y-46773000D01*
X126155935Y-46773000D01*
X125704961Y-46959800D01*
X125400000Y-47264761D01*
X125135239Y-47000000D01*
X125440200Y-46695039D01*
X125627000Y-46244065D01*
X125627000Y-45755935D01*
X125440200Y-45304961D01*
X125095039Y-44959800D01*
X124644065Y-44773000D01*
X124155935Y-44773000D01*
X123704961Y-44959800D01*
X123359800Y-45304961D01*
X123173000Y-45755935D01*
X123173000Y-46244065D01*
X123252960Y-46437105D01*
X122882653Y-46807413D01*
X122661959Y-46807413D01*
X122376379Y-46925704D01*
X122157805Y-47144278D01*
X122039514Y-47429858D01*
X122039514Y-47738968D01*
X122146808Y-47998000D01*
X107649433Y-47998000D01*
X107599999Y-47988167D01*
X107550565Y-47998000D01*
X107550561Y-47998000D01*
X107404130Y-48027127D01*
X107238079Y-48138079D01*
X107210075Y-48179990D01*
X105979993Y-49410073D01*
X105979990Y-49410075D01*
X105967065Y-49423000D01*
X105745445Y-49423000D01*
X105459865Y-49541291D01*
X105241291Y-49759865D01*
X105123000Y-50045445D01*
X105123000Y-50354555D01*
X105241291Y-50640135D01*
X105459865Y-50858709D01*
X105745445Y-50977000D01*
X106054555Y-50977000D01*
X106340135Y-50858709D01*
X106558709Y-50640135D01*
X106677000Y-50354555D01*
X106677000Y-50132935D01*
X106689925Y-50120010D01*
X106689927Y-50120007D01*
X107807935Y-49002000D01*
X107878887Y-49002000D01*
X107844875Y-49052902D01*
X107815615Y-49200000D01*
X107815615Y-50800000D01*
X107844875Y-50947098D01*
X107928199Y-51071801D01*
X108052902Y-51155125D01*
X108200000Y-51184385D01*
X109800000Y-51184385D01*
X109947098Y-51155125D01*
X110071801Y-51071801D01*
X110139234Y-50970880D01*
X111056622Y-50970880D01*
X111162926Y-51098528D01*
X111608973Y-51143900D01*
X111837074Y-51098528D01*
X111943378Y-50970880D01*
X111500000Y-50527502D01*
X111056622Y-50970880D01*
X110139234Y-50970880D01*
X110155125Y-50947098D01*
X110184385Y-50800000D01*
X110184385Y-50108973D01*
X110356100Y-50108973D01*
X110401472Y-50337074D01*
X110529120Y-50443378D01*
X110972498Y-50000000D01*
X112027502Y-50000000D01*
X112470880Y-50443378D01*
X112598528Y-50337074D01*
X112643900Y-49891027D01*
X112598528Y-49662926D01*
X112470880Y-49556622D01*
X112027502Y-50000000D01*
X110972498Y-50000000D01*
X110529120Y-49556622D01*
X110401472Y-49662926D01*
X110356100Y-50108973D01*
X110184385Y-50108973D01*
X110184385Y-49200000D01*
X110155125Y-49052902D01*
X110121113Y-49002000D01*
X111079207Y-49002000D01*
X111056622Y-49029120D01*
X111500000Y-49472498D01*
X111943378Y-49029120D01*
X111920793Y-49002000D01*
X122692066Y-49002000D01*
X123252960Y-49562895D01*
X123173000Y-49755935D01*
X123173000Y-50244065D01*
X123359800Y-50695039D01*
X123664761Y-51000000D01*
X123359800Y-51304961D01*
X123173000Y-51755935D01*
X123173000Y-52244065D01*
X123359800Y-52695039D01*
X123664761Y-53000000D01*
X123359800Y-53304961D01*
X123173000Y-53755935D01*
X123173000Y-54244065D01*
X123359800Y-54695039D01*
X123362761Y-54698000D01*
X104683936Y-54698000D01*
X104134000Y-54148066D01*
X104134000Y-53484320D01*
X104494375Y-53243525D01*
X104758748Y-52847864D01*
X104828150Y-52498956D01*
X104828150Y-50625044D01*
X104758748Y-50276136D01*
X104494375Y-49880475D01*
X104098714Y-49616102D01*
X103632000Y-49523267D01*
X103165287Y-49616102D01*
X102769626Y-49880475D01*
X102505253Y-50276136D01*
X102435850Y-50625044D01*
X102435850Y-52498955D01*
X102502839Y-52835732D01*
X102315261Y-53023310D01*
X102101518Y-53023310D01*
X102218748Y-52847864D01*
X102288150Y-52498956D01*
X102288150Y-50625044D01*
X102218748Y-50276136D01*
X101954375Y-49880475D01*
X101558714Y-49616102D01*
X101092000Y-49523267D01*
X100677010Y-49605814D01*
X100677010Y-49465336D01*
X100573943Y-49216510D01*
X100477010Y-49119577D01*
X100477010Y-46046985D01*
X100486354Y-46000010D01*
X100449333Y-45813894D01*
X100370516Y-45695936D01*
X100343907Y-45656113D01*
X100304085Y-45629505D01*
X96677000Y-42002421D01*
X96677000Y-41546970D01*
X96686343Y-41499999D01*
X96677000Y-41453026D01*
X96677000Y-41453025D01*
X96649323Y-41313884D01*
X96543897Y-41156103D01*
X96504075Y-41129495D01*
X95677000Y-40302421D01*
X95677000Y-40165336D01*
X95573933Y-39916510D01*
X95557423Y-39900000D01*
X95573933Y-39883490D01*
X95667860Y-39656729D01*
X95697580Y-39627010D01*
X96916021Y-39627010D01*
X97672990Y-40383980D01*
X97672991Y-42203014D01*
X97663647Y-42249990D01*
X97700667Y-42436105D01*
X97772692Y-42543897D01*
X97806094Y-42593887D01*
X97845917Y-42620496D01*
X98729494Y-43504074D01*
X98756103Y-43543897D01*
X98913884Y-43649323D01*
X99053025Y-43677000D01*
X99053028Y-43677000D01*
X99099999Y-43686343D01*
X99146970Y-43677000D01*
X101419577Y-43677000D01*
X101516510Y-43773933D01*
X101765336Y-43877000D01*
X102034664Y-43877000D01*
X102283490Y-43773933D01*
X102473933Y-43583490D01*
X102577000Y-43334664D01*
X102577000Y-43065336D01*
X102473933Y-42816510D01*
X102283490Y-42626067D01*
X102034664Y-42523000D01*
X101777000Y-42523000D01*
X101777000Y-42365336D01*
X101673933Y-42116510D01*
X101483490Y-41926067D01*
X101234664Y-41823000D01*
X100965336Y-41823000D01*
X100716510Y-41926067D01*
X100619577Y-42023000D01*
X99297580Y-42023000D01*
X99077000Y-41802421D01*
X99077000Y-41200000D01*
X107815615Y-41200000D01*
X107815615Y-42800000D01*
X107844875Y-42947098D01*
X107928199Y-43071801D01*
X108052902Y-43155125D01*
X108200000Y-43184385D01*
X109800000Y-43184385D01*
X109947098Y-43155125D01*
X110071801Y-43071801D01*
X110139234Y-42970880D01*
X111056622Y-42970880D01*
X111162926Y-43098528D01*
X111608973Y-43143900D01*
X111837074Y-43098528D01*
X111943378Y-42970880D01*
X111500000Y-42527502D01*
X111056622Y-42970880D01*
X110139234Y-42970880D01*
X110155125Y-42947098D01*
X110184385Y-42800000D01*
X110184385Y-42108973D01*
X110356100Y-42108973D01*
X110401472Y-42337074D01*
X110529120Y-42443378D01*
X110972498Y-42000000D01*
X112027502Y-42000000D01*
X112470880Y-42443378D01*
X112598528Y-42337074D01*
X112643900Y-41891027D01*
X112598528Y-41662926D01*
X112470880Y-41556622D01*
X112027502Y-42000000D01*
X110972498Y-42000000D01*
X110529120Y-41556622D01*
X110401472Y-41662926D01*
X110356100Y-42108973D01*
X110184385Y-42108973D01*
X110184385Y-41200000D01*
X110155125Y-41052902D01*
X110139235Y-41029120D01*
X111056622Y-41029120D01*
X111500000Y-41472498D01*
X111943378Y-41029120D01*
X111837074Y-40901472D01*
X111391027Y-40856100D01*
X111162926Y-40901472D01*
X111056622Y-41029120D01*
X110139235Y-41029120D01*
X110071801Y-40928199D01*
X109947098Y-40844875D01*
X109800000Y-40815615D01*
X108200000Y-40815615D01*
X108052902Y-40844875D01*
X107928199Y-40928199D01*
X107844875Y-41052902D01*
X107815615Y-41200000D01*
X99077000Y-41200000D01*
X99077000Y-40568850D01*
X114453652Y-40568850D01*
X114662914Y-40779854D01*
X115407373Y-40962796D01*
X116165173Y-40846920D01*
X116327086Y-40779854D01*
X116536348Y-40568850D01*
X121463652Y-40568850D01*
X121672914Y-40779854D01*
X122417373Y-40962796D01*
X123175173Y-40846920D01*
X123337086Y-40779854D01*
X123546348Y-40568850D01*
X122505000Y-39527502D01*
X121463652Y-40568850D01*
X116536348Y-40568850D01*
X115495000Y-39527502D01*
X114453652Y-40568850D01*
X99077000Y-40568850D01*
X99077000Y-40046975D01*
X99086344Y-40000000D01*
X99049323Y-39813884D01*
X98970506Y-39695926D01*
X98943897Y-39656103D01*
X98904075Y-39629495D01*
X97670508Y-38395929D01*
X97643897Y-38356103D01*
X97486116Y-38250677D01*
X97346975Y-38223000D01*
X97346971Y-38223000D01*
X97300000Y-38213657D01*
X97253029Y-38223000D01*
X95180423Y-38223000D01*
X95083490Y-38126067D01*
X94834664Y-38023000D01*
X94565336Y-38023000D01*
X94316510Y-38126067D01*
X94126067Y-38316510D01*
X94023000Y-38565336D01*
X94023000Y-38834664D01*
X94126067Y-39083490D01*
X94316510Y-39273933D01*
X94354365Y-39289613D01*
X94323000Y-39365336D01*
X94323000Y-39634664D01*
X94426067Y-39883490D01*
X94442577Y-39900000D01*
X94426067Y-39916510D01*
X94323000Y-40165336D01*
X94323000Y-40434664D01*
X94426067Y-40683490D01*
X94592577Y-40850000D01*
X94426067Y-41016510D01*
X94323000Y-41265336D01*
X94323000Y-41534664D01*
X94426067Y-41783490D01*
X94616510Y-41973933D01*
X94865336Y-42077000D01*
X95002421Y-42077000D01*
X95223001Y-42297581D01*
X95223001Y-42453030D01*
X95213658Y-42500001D01*
X95223001Y-42546972D01*
X95223001Y-42546976D01*
X95224411Y-42554063D01*
X95250678Y-42686116D01*
X95313500Y-42780135D01*
X95356105Y-42843898D01*
X95395927Y-42870506D01*
X98923000Y-46397580D01*
X98923001Y-50053024D01*
X98913657Y-50100000D01*
X98950677Y-50286115D01*
X99020042Y-50389926D01*
X99056104Y-50443897D01*
X99095927Y-50470506D01*
X99323001Y-50697580D01*
X99323000Y-52853029D01*
X99313657Y-52900000D01*
X99323000Y-52946971D01*
X99323000Y-52946974D01*
X99350677Y-53086115D01*
X99456103Y-53243897D01*
X99495928Y-53270508D01*
X100029804Y-53804384D01*
X100056413Y-53844207D01*
X100096236Y-53870816D01*
X100214194Y-53949633D01*
X100400310Y-53986654D01*
X100447285Y-53977310D01*
X102465869Y-53977310D01*
X102512840Y-53986653D01*
X102559811Y-53977310D01*
X102559815Y-53977310D01*
X102698956Y-53949633D01*
X102856737Y-53844207D01*
X102883348Y-53804381D01*
X103130000Y-53557729D01*
X103130000Y-54306566D01*
X103120167Y-54356000D01*
X103130000Y-54405434D01*
X103130000Y-54405438D01*
X103159127Y-54551869D01*
X103270079Y-54717921D01*
X103311993Y-54745927D01*
X104086076Y-55520012D01*
X104114079Y-55561921D01*
X104155987Y-55589923D01*
X104155990Y-55589926D01*
X104222261Y-55634206D01*
X104280130Y-55672873D01*
X104426561Y-55702000D01*
X104426565Y-55702000D01*
X104475999Y-55711833D01*
X104525433Y-55702000D01*
X112900932Y-55702000D01*
X112799006Y-55802872D01*
X112562673Y-56151646D01*
X112505699Y-56286220D01*
X112419754Y-56698664D01*
X112411846Y-56771654D01*
X112402985Y-57624517D01*
X112027502Y-58000000D01*
X112400651Y-58373149D01*
X112400651Y-59027008D01*
X112330160Y-59386278D01*
X112149637Y-59661073D01*
X111878659Y-59847283D01*
X111520933Y-59925242D01*
X108784765Y-59982246D01*
X108735397Y-59986532D01*
X108216835Y-60066162D01*
X108121899Y-60093863D01*
X107641887Y-60305607D01*
X107557422Y-60357044D01*
X107148990Y-60686332D01*
X107080806Y-60757965D01*
X106772059Y-61182139D01*
X106724851Y-61269038D01*
X106537035Y-61758908D01*
X106514048Y-61855094D01*
X106460087Y-62376951D01*
X106458241Y-62426471D01*
X106568200Y-66283260D01*
X106574269Y-66340726D01*
X106684871Y-66941944D01*
X106722795Y-67050756D01*
X107009837Y-67590480D01*
X107078857Y-67682754D01*
X107364904Y-67963000D01*
X87083660Y-67963000D01*
X86864233Y-67847856D01*
X86461183Y-67440556D01*
X86200259Y-66930390D01*
X86104301Y-66355432D01*
X85997389Y-57200000D01*
X107815615Y-57200000D01*
X107815615Y-58800000D01*
X107844875Y-58947098D01*
X107928199Y-59071801D01*
X108052902Y-59155125D01*
X108200000Y-59184385D01*
X109800000Y-59184385D01*
X109947098Y-59155125D01*
X110071801Y-59071801D01*
X110139234Y-58970880D01*
X111056622Y-58970880D01*
X111162926Y-59098528D01*
X111608973Y-59143900D01*
X111837074Y-59098528D01*
X111943378Y-58970880D01*
X111500000Y-58527502D01*
X111056622Y-58970880D01*
X110139234Y-58970880D01*
X110155125Y-58947098D01*
X110184385Y-58800000D01*
X110184385Y-58108973D01*
X110356100Y-58108973D01*
X110401472Y-58337074D01*
X110529120Y-58443378D01*
X110972498Y-58000000D01*
X110529120Y-57556622D01*
X110401472Y-57662926D01*
X110356100Y-58108973D01*
X110184385Y-58108973D01*
X110184385Y-57200000D01*
X110155125Y-57052902D01*
X110139235Y-57029120D01*
X111056622Y-57029120D01*
X111500000Y-57472498D01*
X111943378Y-57029120D01*
X111837074Y-56901472D01*
X111391027Y-56856100D01*
X111162926Y-56901472D01*
X111056622Y-57029120D01*
X110139235Y-57029120D01*
X110071801Y-56928199D01*
X109947098Y-56844875D01*
X109800000Y-56815615D01*
X108200000Y-56815615D01*
X108052902Y-56844875D01*
X107928199Y-56928199D01*
X107844875Y-57052902D01*
X107815615Y-57200000D01*
X85997389Y-57200000D01*
X85993820Y-56894430D01*
X85991129Y-56869865D01*
X85889057Y-56382775D01*
X85869836Y-56337497D01*
X85590332Y-55925728D01*
X85555347Y-55891149D01*
X85140343Y-55616473D01*
X85094844Y-55597782D01*
X84606595Y-55501404D01*
X84582000Y-55499000D01*
X79470025Y-55499000D01*
X79206898Y-55464451D01*
X79246519Y-55406428D01*
X79303863Y-55272590D01*
X79384550Y-54894887D01*
X79392820Y-54822207D01*
X79406049Y-54002000D01*
X82503155Y-54001999D01*
X82659865Y-54158709D01*
X82945445Y-54277000D01*
X83254555Y-54277000D01*
X83540135Y-54158709D01*
X83758709Y-53940135D01*
X83877000Y-53654555D01*
X83877000Y-53345445D01*
X83758709Y-53059865D01*
X83540135Y-52841291D01*
X83254555Y-52723000D01*
X82945445Y-52723000D01*
X82659865Y-52841291D01*
X82503156Y-52998000D01*
X82400844Y-52998000D01*
X82458709Y-52940135D01*
X82577000Y-52654555D01*
X82577000Y-52345445D01*
X82458709Y-52059865D01*
X82333844Y-51935000D01*
X87753850Y-51935000D01*
X87753850Y-52754150D01*
X87983836Y-53164370D01*
X88362055Y-53393215D01*
X88527000Y-53378054D01*
X88527000Y-51935000D01*
X89273000Y-51935000D01*
X89273000Y-53378054D01*
X89437945Y-53393215D01*
X89816164Y-53164370D01*
X90046150Y-52754150D01*
X90046150Y-51935000D01*
X89273000Y-51935000D01*
X88527000Y-51935000D01*
X87753850Y-51935000D01*
X82333844Y-51935000D01*
X82302000Y-51903156D01*
X82302000Y-51249434D01*
X82311833Y-51200000D01*
X82302000Y-51150566D01*
X82302000Y-51150561D01*
X82272873Y-51004130D01*
X82161921Y-50838079D01*
X82120010Y-50810075D01*
X81679785Y-50369850D01*
X87753850Y-50369850D01*
X87753850Y-51189000D01*
X88527000Y-51189000D01*
X88527000Y-49745946D01*
X89273000Y-49745946D01*
X89273000Y-51189000D01*
X90046150Y-51189000D01*
X90046150Y-50625044D01*
X90243850Y-50625044D01*
X90243850Y-52498955D01*
X90313252Y-52847863D01*
X90577625Y-53243525D01*
X90973286Y-53507898D01*
X91440000Y-53600733D01*
X91906713Y-53507898D01*
X92302375Y-53243525D01*
X92566748Y-52847864D01*
X92636150Y-52498956D01*
X92636150Y-50625044D01*
X92783850Y-50625044D01*
X92783850Y-52498955D01*
X92853252Y-52847863D01*
X93117625Y-53243525D01*
X93478001Y-53484321D01*
X93478001Y-54130561D01*
X93468167Y-54180000D01*
X93478001Y-54229439D01*
X93490033Y-54289926D01*
X93507128Y-54375870D01*
X93590074Y-54500008D01*
X93590076Y-54500010D01*
X93618080Y-54541921D01*
X93659991Y-54569925D01*
X94310075Y-55220009D01*
X94338079Y-55261921D01*
X94504130Y-55372873D01*
X94650561Y-55402000D01*
X94650566Y-55402000D01*
X94700000Y-55411833D01*
X94749434Y-55402000D01*
X95903156Y-55402000D01*
X96059865Y-55558709D01*
X96345445Y-55677000D01*
X96654555Y-55677000D01*
X96940135Y-55558709D01*
X97158709Y-55340135D01*
X97277000Y-55054555D01*
X97277000Y-54745445D01*
X97158709Y-54459865D01*
X96940135Y-54241291D01*
X96654555Y-54123000D01*
X96345445Y-54123000D01*
X96059865Y-54241291D01*
X95903156Y-54398000D01*
X94907935Y-54398000D01*
X94482000Y-53972066D01*
X94482000Y-53484320D01*
X94842375Y-53243525D01*
X95106748Y-52847864D01*
X95176150Y-52498956D01*
X95176150Y-50625044D01*
X95106748Y-50276136D01*
X94842375Y-49880475D01*
X94446714Y-49616102D01*
X93980000Y-49523267D01*
X93513287Y-49616102D01*
X93117626Y-49880475D01*
X92853253Y-50276136D01*
X92783850Y-50625044D01*
X92636150Y-50625044D01*
X92566748Y-50276136D01*
X92302375Y-49880475D01*
X91906714Y-49616102D01*
X91440000Y-49523267D01*
X90973287Y-49616102D01*
X90577626Y-49880475D01*
X90313253Y-50276136D01*
X90243850Y-50625044D01*
X90046150Y-50625044D01*
X90046150Y-50369850D01*
X89816164Y-49959630D01*
X89437945Y-49730785D01*
X89273000Y-49745946D01*
X88527000Y-49745946D01*
X88362055Y-49730785D01*
X87983836Y-49959630D01*
X87753850Y-50369850D01*
X81679785Y-50369850D01*
X81139927Y-49829993D01*
X81139925Y-49829990D01*
X81127000Y-49817065D01*
X81127000Y-49595445D01*
X81008709Y-49309865D01*
X80790135Y-49091291D01*
X80504555Y-48973000D01*
X80195445Y-48973000D01*
X79909865Y-49091291D01*
X79691291Y-49309865D01*
X79573000Y-49595445D01*
X79573000Y-49904555D01*
X79691291Y-50190135D01*
X79909865Y-50408709D01*
X80195445Y-50527000D01*
X80417065Y-50527000D01*
X80429990Y-50539925D01*
X80429993Y-50539927D01*
X81298001Y-51407936D01*
X81298000Y-51903156D01*
X81141291Y-52059865D01*
X81023000Y-52345445D01*
X81023000Y-52654555D01*
X81141291Y-52940135D01*
X81199157Y-52998001D01*
X79422243Y-52998001D01*
X79495540Y-48453568D01*
X79993470Y-48438188D01*
X80069370Y-48437332D01*
X84798686Y-48476661D01*
X84801242Y-48476656D01*
X84881739Y-48475705D01*
X84884294Y-48475649D01*
X86409055Y-48426935D01*
X86428661Y-48424777D01*
X86912830Y-48332967D01*
X86949868Y-48319745D01*
X87382735Y-48084214D01*
X87413954Y-48060295D01*
X87754008Y-47703627D01*
X87776412Y-47671305D01*
X87876068Y-47465336D01*
X91423000Y-47465336D01*
X91423000Y-47734664D01*
X91526067Y-47983490D01*
X91716510Y-48173933D01*
X91965336Y-48277000D01*
X92234664Y-48277000D01*
X92483490Y-48173933D01*
X92555423Y-48102000D01*
X93150566Y-48102000D01*
X93200000Y-48111833D01*
X93249434Y-48102000D01*
X93249439Y-48102000D01*
X93395870Y-48072873D01*
X93561921Y-47961921D01*
X93589926Y-47920008D01*
X93620009Y-47889926D01*
X93661921Y-47861921D01*
X93772873Y-47695870D01*
X93802000Y-47549439D01*
X93802000Y-47549435D01*
X93811833Y-47500001D01*
X93802000Y-47450567D01*
X93802000Y-45249433D01*
X93811833Y-45199999D01*
X93802000Y-45150565D01*
X93802000Y-45150561D01*
X93772873Y-45004130D01*
X93661921Y-44838079D01*
X93620009Y-44810075D01*
X93377000Y-44567065D01*
X93377000Y-44345445D01*
X93258709Y-44059865D01*
X93040135Y-43841291D01*
X92754555Y-43723000D01*
X92445445Y-43723000D01*
X92159865Y-43841291D01*
X91941291Y-44059865D01*
X91823000Y-44345445D01*
X91823000Y-44654555D01*
X91941291Y-44940135D01*
X92159865Y-45158709D01*
X92445445Y-45277000D01*
X92667065Y-45277000D01*
X92798001Y-45407936D01*
X92798000Y-47098000D01*
X92555423Y-47098000D01*
X92483490Y-47026067D01*
X92234664Y-46923000D01*
X91965336Y-46923000D01*
X91716510Y-47026067D01*
X91526067Y-47216510D01*
X91423000Y-47465336D01*
X87876068Y-47465336D01*
X87991045Y-47227704D01*
X88002485Y-47190077D01*
X88071114Y-46702082D01*
X88072336Y-46682396D01*
X88016653Y-43145445D01*
X88048000Y-43145445D01*
X88048000Y-43454555D01*
X88166291Y-43740135D01*
X88323000Y-43896844D01*
X88323001Y-46219582D01*
X88226073Y-46316510D01*
X88123006Y-46565336D01*
X88123006Y-46834664D01*
X88226073Y-47083490D01*
X88416516Y-47273933D01*
X88665342Y-47377000D01*
X88934670Y-47377000D01*
X89183496Y-47273933D01*
X89373939Y-47083490D01*
X89477006Y-46834664D01*
X89477006Y-46565336D01*
X89373939Y-46316510D01*
X89327000Y-46269571D01*
X89327000Y-43896844D01*
X89483709Y-43740135D01*
X89602000Y-43454555D01*
X89602000Y-43145445D01*
X89483709Y-42859865D01*
X89265135Y-42641291D01*
X88979555Y-42523000D01*
X88670445Y-42523000D01*
X88384865Y-42641291D01*
X88166291Y-42859865D01*
X88048000Y-43145445D01*
X88016653Y-43145445D01*
X87994765Y-41755119D01*
X89903000Y-41755119D01*
X89903000Y-41944881D01*
X89975619Y-42120199D01*
X90109801Y-42254381D01*
X90285119Y-42327000D01*
X90474881Y-42327000D01*
X90650199Y-42254381D01*
X90784381Y-42120199D01*
X90857000Y-41944881D01*
X90857000Y-41755119D01*
X90903000Y-41755119D01*
X90903000Y-41944881D01*
X90975619Y-42120199D01*
X91109801Y-42254381D01*
X91285119Y-42327000D01*
X91474881Y-42327000D01*
X91650199Y-42254381D01*
X91784381Y-42120199D01*
X91857000Y-41944881D01*
X91857000Y-41755119D01*
X91903000Y-41755119D01*
X91903000Y-41944881D01*
X91975619Y-42120199D01*
X92109801Y-42254381D01*
X92285119Y-42327000D01*
X92474881Y-42327000D01*
X92650199Y-42254381D01*
X92784381Y-42120199D01*
X92857000Y-41944881D01*
X92857000Y-41755119D01*
X92784381Y-41579801D01*
X92650199Y-41445619D01*
X92474881Y-41373000D01*
X92285119Y-41373000D01*
X92109801Y-41445619D01*
X91975619Y-41579801D01*
X91903000Y-41755119D01*
X91857000Y-41755119D01*
X91784381Y-41579801D01*
X91650199Y-41445619D01*
X91474881Y-41373000D01*
X91285119Y-41373000D01*
X91109801Y-41445619D01*
X90975619Y-41579801D01*
X90903000Y-41755119D01*
X90857000Y-41755119D01*
X90784381Y-41579801D01*
X90650199Y-41445619D01*
X90474881Y-41373000D01*
X90285119Y-41373000D01*
X90109801Y-41445619D01*
X89975619Y-41579801D01*
X89903000Y-41755119D01*
X87994765Y-41755119D01*
X87979022Y-40755119D01*
X89903000Y-40755119D01*
X89903000Y-40944881D01*
X89975619Y-41120199D01*
X90109801Y-41254381D01*
X90285119Y-41327000D01*
X90474881Y-41327000D01*
X90650199Y-41254381D01*
X90784381Y-41120199D01*
X90857000Y-40944881D01*
X90857000Y-40755119D01*
X90857000Y-40755118D01*
X90903000Y-40755118D01*
X90903000Y-40944880D01*
X90975619Y-41120198D01*
X91109801Y-41254380D01*
X91285119Y-41326999D01*
X91474881Y-41326999D01*
X91650199Y-41254380D01*
X91784381Y-41120198D01*
X91857000Y-40944880D01*
X91857000Y-40755119D01*
X91903000Y-40755119D01*
X91903000Y-40944881D01*
X91975619Y-41120199D01*
X92109801Y-41254381D01*
X92285119Y-41327000D01*
X92474881Y-41327000D01*
X92650199Y-41254381D01*
X92784381Y-41120199D01*
X92857000Y-40944881D01*
X92857000Y-40755119D01*
X92784381Y-40579801D01*
X92650199Y-40445619D01*
X92474881Y-40373000D01*
X92285119Y-40373000D01*
X92109801Y-40445619D01*
X91975619Y-40579801D01*
X91903000Y-40755119D01*
X91857000Y-40755119D01*
X91857000Y-40755118D01*
X91784381Y-40579800D01*
X91650199Y-40445618D01*
X91474881Y-40372999D01*
X91285119Y-40372999D01*
X91109801Y-40445618D01*
X90975619Y-40579800D01*
X90903000Y-40755118D01*
X90857000Y-40755118D01*
X90784381Y-40579801D01*
X90650199Y-40445619D01*
X90474881Y-40373000D01*
X90285119Y-40373000D01*
X90109801Y-40445619D01*
X89975619Y-40579801D01*
X89903000Y-40755119D01*
X87979022Y-40755119D01*
X87963279Y-39755119D01*
X89903000Y-39755119D01*
X89903000Y-39944881D01*
X89975619Y-40120199D01*
X90109801Y-40254381D01*
X90285119Y-40327000D01*
X90474881Y-40327000D01*
X90650199Y-40254381D01*
X90784381Y-40120199D01*
X90857000Y-39944881D01*
X90857000Y-39755119D01*
X90903000Y-39755119D01*
X90903000Y-39944881D01*
X90975619Y-40120199D01*
X91109801Y-40254381D01*
X91285119Y-40327000D01*
X91474881Y-40327000D01*
X91650199Y-40254381D01*
X91784381Y-40120199D01*
X91857000Y-39944881D01*
X91857000Y-39755119D01*
X91903000Y-39755119D01*
X91903000Y-39944881D01*
X91975619Y-40120199D01*
X92109801Y-40254381D01*
X92285119Y-40327000D01*
X92474881Y-40327000D01*
X92650199Y-40254381D01*
X92784381Y-40120199D01*
X92857000Y-39944881D01*
X92857000Y-39755119D01*
X92784381Y-39579801D01*
X92650199Y-39445619D01*
X92474881Y-39373000D01*
X92285119Y-39373000D01*
X92109801Y-39445619D01*
X91975619Y-39579801D01*
X91903000Y-39755119D01*
X91857000Y-39755119D01*
X91784381Y-39579801D01*
X91650199Y-39445619D01*
X91474881Y-39373000D01*
X91285119Y-39373000D01*
X91109801Y-39445619D01*
X90975619Y-39579801D01*
X90903000Y-39755119D01*
X90857000Y-39755119D01*
X90784381Y-39579801D01*
X90650199Y-39445619D01*
X90474881Y-39373000D01*
X90285119Y-39373000D01*
X90109801Y-39445619D01*
X89975619Y-39579801D01*
X89903000Y-39755119D01*
X87963279Y-39755119D01*
X87880424Y-34492437D01*
X87870112Y-33066342D01*
X87918481Y-32655730D01*
X88104124Y-32195300D01*
X88224278Y-32037000D01*
X104089354Y-32037000D01*
X103938079Y-32138079D01*
X103938079Y-32138079D01*
G37*
X103938079Y-32138079D02*
X103910075Y-32179991D01*
X103279993Y-32810073D01*
X103279990Y-32810075D01*
X103267065Y-32823000D01*
X103045445Y-32823000D01*
X102759865Y-32941291D01*
X102541291Y-33159865D01*
X102423000Y-33445445D01*
X102423000Y-33754555D01*
X102541291Y-34040135D01*
X102759865Y-34258709D01*
X103045445Y-34377000D01*
X103354555Y-34377000D01*
X103640135Y-34258709D01*
X103746603Y-34152241D01*
X108480506Y-34152241D01*
X108594932Y-34323549D01*
X108715214Y-34417000D01*
X108594932Y-34510451D01*
X108480506Y-34681759D01*
X108517933Y-34802000D01*
X108970000Y-34802000D01*
X108970000Y-34032000D01*
X108517933Y-34032000D01*
X108480506Y-34152241D01*
X103746603Y-34152241D01*
X103858709Y-34040135D01*
X103977000Y-33754555D01*
X103977000Y-33532935D01*
X103989925Y-33520010D01*
X103989927Y-33520007D01*
X104507935Y-33002000D01*
X107303156Y-33002000D01*
X107459865Y-33158709D01*
X107745445Y-33277000D01*
X108054555Y-33277000D01*
X108340135Y-33158709D01*
X108360706Y-33138138D01*
X108364875Y-33159098D01*
X108448199Y-33283801D01*
X108529632Y-33338213D01*
X108480506Y-33411759D01*
X108517933Y-33532000D01*
X108970000Y-33532000D01*
X108970000Y-33396385D01*
X109470000Y-33396385D01*
X109470000Y-33532000D01*
X109613000Y-33532000D01*
X109613000Y-33695625D01*
X109595819Y-33782000D01*
X109613000Y-33868375D01*
X109613000Y-34032000D01*
X109470000Y-34032000D01*
X109470000Y-34802000D01*
X109613000Y-34802000D01*
X109613000Y-34965625D01*
X109595819Y-35052000D01*
X109613000Y-35138375D01*
X109613000Y-35302000D01*
X109470000Y-35302000D01*
X109470000Y-35445000D01*
X108970000Y-35445000D01*
X108970000Y-35302000D01*
X108517933Y-35302000D01*
X108480506Y-35422241D01*
X108594932Y-35593549D01*
X108658145Y-35642661D01*
X108587719Y-35689719D01*
X108393884Y-35979812D01*
X108325819Y-36322000D01*
X108393884Y-36664188D01*
X108587719Y-36954281D01*
X108591788Y-36957000D01*
X108587719Y-36959719D01*
X108393884Y-37249812D01*
X108325819Y-37592000D01*
X108393884Y-37934188D01*
X108587719Y-38224281D01*
X108877812Y-38418116D01*
X109133625Y-38469000D01*
X109306375Y-38469000D01*
X109562188Y-38418116D01*
X109852281Y-38224281D01*
X109855000Y-38220212D01*
X109857719Y-38224281D01*
X110147812Y-38418116D01*
X110170449Y-38422619D01*
X109795068Y-38798000D01*
X108644345Y-38798000D01*
X105026336Y-35179990D01*
X104998332Y-35138079D01*
X104832281Y-35027127D01*
X104685850Y-34998000D01*
X104685845Y-34998000D01*
X104636411Y-34988167D01*
X104586977Y-34998000D01*
X97519399Y-34998000D01*
X95340783Y-32819385D01*
X95340783Y-32717655D01*
X95237716Y-32468829D01*
X95047273Y-32278386D01*
X94798447Y-32175319D01*
X94529119Y-32175319D01*
X94280293Y-32278386D01*
X94089850Y-32468829D01*
X94082639Y-32486238D01*
X93876394Y-32279993D01*
X93848388Y-32238079D01*
X93682337Y-32127127D01*
X93535906Y-32098000D01*
X93535901Y-32098000D01*
X93486467Y-32088167D01*
X93437033Y-32098000D01*
X89249434Y-32098000D01*
X89200000Y-32088167D01*
X89150566Y-32098000D01*
X89150561Y-32098000D01*
X89004130Y-32127127D01*
X88969780Y-32150079D01*
X88891336Y-32202494D01*
X88838079Y-32238079D01*
X88810074Y-32279991D01*
X88392644Y-32697422D01*
X88350733Y-32725426D01*
X88322729Y-32767337D01*
X88322727Y-32767339D01*
X88264697Y-32854188D01*
X88239781Y-32891477D01*
X88226261Y-32959449D01*
X88200820Y-33087347D01*
X88210654Y-33136786D01*
X88210653Y-36831924D01*
X88138720Y-36903857D01*
X88035653Y-37152683D01*
X88035653Y-37422011D01*
X88138720Y-37670837D01*
X88329163Y-37861280D01*
X88577989Y-37964347D01*
X88847317Y-37964347D01*
X89096143Y-37861280D01*
X89286586Y-37670837D01*
X89389653Y-37422011D01*
X89389653Y-37152683D01*
X89286586Y-36903857D01*
X89214653Y-36831924D01*
X89214653Y-34527989D01*
X89585653Y-34527989D01*
X89585653Y-34797317D01*
X89688720Y-35046143D01*
X89756115Y-35113538D01*
X89760653Y-35136351D01*
X89760653Y-35136356D01*
X89772492Y-35195870D01*
X89789781Y-35282787D01*
X89872727Y-35406925D01*
X89872729Y-35406927D01*
X89900733Y-35448838D01*
X89942644Y-35476842D01*
X90785812Y-36320012D01*
X90813815Y-36361921D01*
X90855723Y-36389923D01*
X90855726Y-36389926D01*
X90905052Y-36422884D01*
X90979866Y-36472873D01*
X91126297Y-36502000D01*
X91126301Y-36502000D01*
X91175735Y-36511833D01*
X91225169Y-36502000D01*
X92092066Y-36502000D01*
X93023000Y-37432935D01*
X93023000Y-37534664D01*
X93126067Y-37783490D01*
X93316510Y-37973933D01*
X93565336Y-38077000D01*
X93834664Y-38077000D01*
X94083490Y-37973933D01*
X94273933Y-37783490D01*
X94377000Y-37534664D01*
X94377000Y-37335499D01*
X98065000Y-37335499D01*
X98065000Y-37664501D01*
X98190903Y-37968458D01*
X98423542Y-38201097D01*
X98727499Y-38327000D01*
X99056501Y-38327000D01*
X99360458Y-38201097D01*
X99593097Y-37968458D01*
X99719000Y-37664501D01*
X99719000Y-37335499D01*
X102465000Y-37335499D01*
X102465000Y-37664501D01*
X102590903Y-37968458D01*
X102823542Y-38201097D01*
X103127499Y-38327000D01*
X103456501Y-38327000D01*
X103760458Y-38201097D01*
X103993097Y-37968458D01*
X104119000Y-37664501D01*
X104119000Y-37335499D01*
X103993097Y-37031542D01*
X103760458Y-36798903D01*
X103456501Y-36673000D01*
X103127499Y-36673000D01*
X102823542Y-36798903D01*
X102590903Y-37031542D01*
X102465000Y-37335499D01*
X99719000Y-37335499D01*
X99593097Y-37031542D01*
X99360458Y-36798903D01*
X99056501Y-36673000D01*
X98727499Y-36673000D01*
X98423542Y-36798903D01*
X98190903Y-37031542D01*
X98065000Y-37335499D01*
X94377000Y-37335499D01*
X94377000Y-37265336D01*
X94273933Y-37016510D01*
X94083490Y-36826067D01*
X93834664Y-36723000D01*
X93732935Y-36723000D01*
X92689927Y-35679993D01*
X92661921Y-35638079D01*
X92495870Y-35527127D01*
X92369548Y-35502000D01*
X92944577Y-35502000D01*
X93016510Y-35573933D01*
X93265336Y-35677000D01*
X93534664Y-35677000D01*
X93783490Y-35573933D01*
X93973933Y-35383490D01*
X94077000Y-35134664D01*
X94077000Y-34865336D01*
X93973933Y-34616510D01*
X93783490Y-34426067D01*
X93534664Y-34323000D01*
X93265336Y-34323000D01*
X93016510Y-34426067D01*
X92944577Y-34498000D01*
X91555423Y-34498000D01*
X91483490Y-34426067D01*
X91234664Y-34323000D01*
X90965336Y-34323000D01*
X90870940Y-34362100D01*
X90836586Y-34279163D01*
X90646143Y-34088720D01*
X90397317Y-33985653D01*
X90127989Y-33985653D01*
X89879163Y-34088720D01*
X89688720Y-34279163D01*
X89585653Y-34527989D01*
X89214653Y-34527989D01*
X89214653Y-33295281D01*
X89407935Y-33102000D01*
X93278533Y-33102000D01*
X96446553Y-36270021D01*
X96474557Y-36311932D01*
X96640608Y-36422884D01*
X96787039Y-36452011D01*
X96787044Y-36452011D01*
X96836478Y-36461844D01*
X96885912Y-36452011D01*
X104242077Y-36452011D01*
X107860086Y-40070021D01*
X107888090Y-40111932D01*
X107930001Y-40139936D01*
X107930002Y-40139937D01*
X108054140Y-40222884D01*
X108085340Y-40229090D01*
X108200572Y-40252011D01*
X108200576Y-40252011D01*
X108250011Y-40261844D01*
X108299446Y-40252011D01*
X110139968Y-40252011D01*
X110189402Y-40261844D01*
X110238836Y-40252011D01*
X110238841Y-40252011D01*
X110385272Y-40222884D01*
X110551323Y-40111932D01*
X110579329Y-40070018D01*
X111736974Y-38912373D01*
X113532204Y-38912373D01*
X113648080Y-39670173D01*
X113715146Y-39832086D01*
X113926150Y-40041348D01*
X114967498Y-39000000D01*
X116022502Y-39000000D01*
X117063850Y-40041348D01*
X117274854Y-39832086D01*
X117457796Y-39087627D01*
X117430998Y-38912373D01*
X120542204Y-38912373D01*
X120658080Y-39670173D01*
X120725146Y-39832086D01*
X120936150Y-40041348D01*
X121977498Y-39000000D01*
X123032502Y-39000000D01*
X124073850Y-40041348D01*
X124284854Y-39832086D01*
X124467796Y-39087627D01*
X124351920Y-38329827D01*
X124284854Y-38167914D01*
X124073850Y-37958652D01*
X123032502Y-39000000D01*
X121977498Y-39000000D01*
X120936150Y-37958652D01*
X120725146Y-38167914D01*
X120542204Y-38912373D01*
X117430998Y-38912373D01*
X117341920Y-38329827D01*
X117274854Y-38167914D01*
X117063850Y-37958652D01*
X116022502Y-39000000D01*
X114967498Y-39000000D01*
X113926150Y-37958652D01*
X113715146Y-38167914D01*
X113532204Y-38912373D01*
X111736974Y-38912373D01*
X112085021Y-38564327D01*
X112126932Y-38536323D01*
X112237884Y-38370272D01*
X112267011Y-38223841D01*
X112267011Y-38223836D01*
X112276844Y-38174402D01*
X112267011Y-38124968D01*
X112267011Y-37431150D01*
X114453652Y-37431150D01*
X115495000Y-38472498D01*
X116536348Y-37431150D01*
X121463652Y-37431150D01*
X122505000Y-38472498D01*
X123546348Y-37431150D01*
X123337086Y-37220146D01*
X122592627Y-37037204D01*
X121834827Y-37153080D01*
X121672914Y-37220146D01*
X121463652Y-37431150D01*
X116536348Y-37431150D01*
X116327086Y-37220146D01*
X115582627Y-37037204D01*
X114824827Y-37153080D01*
X114662914Y-37220146D01*
X114453652Y-37431150D01*
X112267011Y-37431150D01*
X112267011Y-35568850D01*
X114453652Y-35568850D01*
X114662914Y-35779854D01*
X115407373Y-35962796D01*
X116165173Y-35846920D01*
X116327086Y-35779854D01*
X116536348Y-35568850D01*
X121463652Y-35568850D01*
X121672914Y-35779854D01*
X122417373Y-35962796D01*
X123175173Y-35846920D01*
X123337086Y-35779854D01*
X123546348Y-35568850D01*
X122505000Y-34527502D01*
X121463652Y-35568850D01*
X116536348Y-35568850D01*
X115495000Y-34527502D01*
X114453652Y-35568850D01*
X112267011Y-35568850D01*
X112267011Y-33912373D01*
X113532204Y-33912373D01*
X113648080Y-34670173D01*
X113715146Y-34832086D01*
X113926150Y-35041348D01*
X114967498Y-34000000D01*
X116022502Y-34000000D01*
X117063850Y-35041348D01*
X117274854Y-34832086D01*
X117457796Y-34087627D01*
X117430998Y-33912373D01*
X120542204Y-33912373D01*
X120658080Y-34670173D01*
X120725146Y-34832086D01*
X120936150Y-35041348D01*
X121977498Y-34000000D01*
X123032502Y-34000000D01*
X124073850Y-35041348D01*
X124284854Y-34832086D01*
X124467796Y-34087627D01*
X124351920Y-33329827D01*
X124284854Y-33167914D01*
X124073850Y-32958652D01*
X123032502Y-34000000D01*
X121977498Y-34000000D01*
X120936150Y-32958652D01*
X120725146Y-33167914D01*
X120542204Y-33912373D01*
X117430998Y-33912373D01*
X117341920Y-33329827D01*
X117274854Y-33167914D01*
X117063850Y-32958652D01*
X116022502Y-34000000D01*
X114967498Y-34000000D01*
X113926150Y-32958652D01*
X113715146Y-33167914D01*
X113532204Y-33912373D01*
X112267011Y-33912373D01*
X112267011Y-33836444D01*
X112276844Y-33787010D01*
X112267011Y-33737576D01*
X112267011Y-33737572D01*
X112237884Y-33591141D01*
X112218361Y-33561922D01*
X112161800Y-33477273D01*
X112126932Y-33425090D01*
X112085020Y-33397086D01*
X111379926Y-32691992D01*
X111379924Y-32691989D01*
X111353613Y-32665678D01*
X111384181Y-32512000D01*
X111368100Y-32431150D01*
X114453652Y-32431150D01*
X115495000Y-33472498D01*
X116536348Y-32431150D01*
X121463652Y-32431150D01*
X122505000Y-33472498D01*
X123546348Y-32431150D01*
X123337086Y-32220146D01*
X122592627Y-32037204D01*
X121834827Y-32153080D01*
X121672914Y-32220146D01*
X121463652Y-32431150D01*
X116536348Y-32431150D01*
X116327086Y-32220146D01*
X115582627Y-32037204D01*
X114824827Y-32153080D01*
X114662914Y-32220146D01*
X114453652Y-32431150D01*
X111368100Y-32431150D01*
X111316116Y-32169812D01*
X111227373Y-32037000D01*
X127167798Y-32037000D01*
X127633178Y-32103647D01*
X128031533Y-32284769D01*
X128363041Y-32570415D01*
X128601054Y-32937623D01*
X128730914Y-33371846D01*
X128748000Y-33601769D01*
X128748001Y-56306486D01*
X128700630Y-56242425D01*
X128259020Y-55806961D01*
X128164056Y-55738776D01*
X128161405Y-55737439D01*
X128258709Y-55640135D01*
X128377000Y-55354555D01*
X128377000Y-55045445D01*
X128258709Y-54759865D01*
X128040135Y-54541291D01*
X127754555Y-54423000D01*
X127445445Y-54423000D01*
X127159865Y-54541291D01*
X127003156Y-54698000D01*
X125437239Y-54698000D01*
X125440200Y-54695039D01*
X125627000Y-54244065D01*
X125627000Y-53755935D01*
X125440200Y-53304961D01*
X125135239Y-53000000D01*
X125440200Y-52695039D01*
X125627000Y-52244065D01*
X125627000Y-51755935D01*
X125440200Y-51304961D01*
X125135239Y-51000000D01*
X125400000Y-50735239D01*
X125704961Y-51040200D01*
X126155935Y-51227000D01*
X126644065Y-51227000D01*
X127095039Y-51040200D01*
X127440200Y-50695039D01*
X127627000Y-50244065D01*
X127627000Y-49755935D01*
X127440200Y-49304961D01*
X127135239Y-49000000D01*
X127440200Y-48695039D01*
X127627000Y-48244065D01*
X127627000Y-47755935D01*
X127440200Y-47304961D01*
X127095039Y-46959800D01*
X126644065Y-46773000D01*
X126155935Y-46773000D01*
X125704961Y-46959800D01*
X125400000Y-47264761D01*
X125135239Y-47000000D01*
X125440200Y-46695039D01*
X125627000Y-46244065D01*
X125627000Y-45755935D01*
X125440200Y-45304961D01*
X125095039Y-44959800D01*
X124644065Y-44773000D01*
X124155935Y-44773000D01*
X123704961Y-44959800D01*
X123359800Y-45304961D01*
X123173000Y-45755935D01*
X123173000Y-46244065D01*
X123252960Y-46437105D01*
X122882653Y-46807413D01*
X122661959Y-46807413D01*
X122376379Y-46925704D01*
X122157805Y-47144278D01*
X122039514Y-47429858D01*
X122039514Y-47738968D01*
X122146808Y-47998000D01*
X107649433Y-47998000D01*
X107599999Y-47988167D01*
X107550565Y-47998000D01*
X107550561Y-47998000D01*
X107404130Y-48027127D01*
X107238079Y-48138079D01*
X107210075Y-48179990D01*
X105979993Y-49410073D01*
X105979990Y-49410075D01*
X105967065Y-49423000D01*
X105745445Y-49423000D01*
X105459865Y-49541291D01*
X105241291Y-49759865D01*
X105123000Y-50045445D01*
X105123000Y-50354555D01*
X105241291Y-50640135D01*
X105459865Y-50858709D01*
X105745445Y-50977000D01*
X106054555Y-50977000D01*
X106340135Y-50858709D01*
X106558709Y-50640135D01*
X106677000Y-50354555D01*
X106677000Y-50132935D01*
X106689925Y-50120010D01*
X106689927Y-50120007D01*
X107807935Y-49002000D01*
X107878887Y-49002000D01*
X107844875Y-49052902D01*
X107815615Y-49200000D01*
X107815615Y-50800000D01*
X107844875Y-50947098D01*
X107928199Y-51071801D01*
X108052902Y-51155125D01*
X108200000Y-51184385D01*
X109800000Y-51184385D01*
X109947098Y-51155125D01*
X110071801Y-51071801D01*
X110139234Y-50970880D01*
X111056622Y-50970880D01*
X111162926Y-51098528D01*
X111608973Y-51143900D01*
X111837074Y-51098528D01*
X111943378Y-50970880D01*
X111500000Y-50527502D01*
X111056622Y-50970880D01*
X110139234Y-50970880D01*
X110155125Y-50947098D01*
X110184385Y-50800000D01*
X110184385Y-50108973D01*
X110356100Y-50108973D01*
X110401472Y-50337074D01*
X110529120Y-50443378D01*
X110972498Y-50000000D01*
X112027502Y-50000000D01*
X112470880Y-50443378D01*
X112598528Y-50337074D01*
X112643900Y-49891027D01*
X112598528Y-49662926D01*
X112470880Y-49556622D01*
X112027502Y-50000000D01*
X110972498Y-50000000D01*
X110529120Y-49556622D01*
X110401472Y-49662926D01*
X110356100Y-50108973D01*
X110184385Y-50108973D01*
X110184385Y-49200000D01*
X110155125Y-49052902D01*
X110121113Y-49002000D01*
X111079207Y-49002000D01*
X111056622Y-49029120D01*
X111500000Y-49472498D01*
X111943378Y-49029120D01*
X111920793Y-49002000D01*
X122692066Y-49002000D01*
X123252960Y-49562895D01*
X123173000Y-49755935D01*
X123173000Y-50244065D01*
X123359800Y-50695039D01*
X123664761Y-51000000D01*
X123359800Y-51304961D01*
X123173000Y-51755935D01*
X123173000Y-52244065D01*
X123359800Y-52695039D01*
X123664761Y-53000000D01*
X123359800Y-53304961D01*
X123173000Y-53755935D01*
X123173000Y-54244065D01*
X123359800Y-54695039D01*
X123362761Y-54698000D01*
X104683936Y-54698000D01*
X104134000Y-54148066D01*
X104134000Y-53484320D01*
X104494375Y-53243525D01*
X104758748Y-52847864D01*
X104828150Y-52498956D01*
X104828150Y-50625044D01*
X104758748Y-50276136D01*
X104494375Y-49880475D01*
X104098714Y-49616102D01*
X103632000Y-49523267D01*
X103165287Y-49616102D01*
X102769626Y-49880475D01*
X102505253Y-50276136D01*
X102435850Y-50625044D01*
X102435850Y-52498955D01*
X102502839Y-52835732D01*
X102315261Y-53023310D01*
X102101518Y-53023310D01*
X102218748Y-52847864D01*
X102288150Y-52498956D01*
X102288150Y-50625044D01*
X102218748Y-50276136D01*
X101954375Y-49880475D01*
X101558714Y-49616102D01*
X101092000Y-49523267D01*
X100677010Y-49605814D01*
X100677010Y-49465336D01*
X100573943Y-49216510D01*
X100477010Y-49119577D01*
X100477010Y-46046985D01*
X100486354Y-46000010D01*
X100449333Y-45813894D01*
X100370516Y-45695936D01*
X100343907Y-45656113D01*
X100304085Y-45629505D01*
X96677000Y-42002421D01*
X96677000Y-41546970D01*
X96686343Y-41499999D01*
X96677000Y-41453026D01*
X96677000Y-41453025D01*
X96649323Y-41313884D01*
X96543897Y-41156103D01*
X96504075Y-41129495D01*
X95677000Y-40302421D01*
X95677000Y-40165336D01*
X95573933Y-39916510D01*
X95557423Y-39900000D01*
X95573933Y-39883490D01*
X95667860Y-39656729D01*
X95697580Y-39627010D01*
X96916021Y-39627010D01*
X97672990Y-40383980D01*
X97672991Y-42203014D01*
X97663647Y-42249990D01*
X97700667Y-42436105D01*
X97772692Y-42543897D01*
X97806094Y-42593887D01*
X97845917Y-42620496D01*
X98729494Y-43504074D01*
X98756103Y-43543897D01*
X98913884Y-43649323D01*
X99053025Y-43677000D01*
X99053028Y-43677000D01*
X99099999Y-43686343D01*
X99146970Y-43677000D01*
X101419577Y-43677000D01*
X101516510Y-43773933D01*
X101765336Y-43877000D01*
X102034664Y-43877000D01*
X102283490Y-43773933D01*
X102473933Y-43583490D01*
X102577000Y-43334664D01*
X102577000Y-43065336D01*
X102473933Y-42816510D01*
X102283490Y-42626067D01*
X102034664Y-42523000D01*
X101777000Y-42523000D01*
X101777000Y-42365336D01*
X101673933Y-42116510D01*
X101483490Y-41926067D01*
X101234664Y-41823000D01*
X100965336Y-41823000D01*
X100716510Y-41926067D01*
X100619577Y-42023000D01*
X99297580Y-42023000D01*
X99077000Y-41802421D01*
X99077000Y-41200000D01*
X107815615Y-41200000D01*
X107815615Y-42800000D01*
X107844875Y-42947098D01*
X107928199Y-43071801D01*
X108052902Y-43155125D01*
X108200000Y-43184385D01*
X109800000Y-43184385D01*
X109947098Y-43155125D01*
X110071801Y-43071801D01*
X110139234Y-42970880D01*
X111056622Y-42970880D01*
X111162926Y-43098528D01*
X111608973Y-43143900D01*
X111837074Y-43098528D01*
X111943378Y-42970880D01*
X111500000Y-42527502D01*
X111056622Y-42970880D01*
X110139234Y-42970880D01*
X110155125Y-42947098D01*
X110184385Y-42800000D01*
X110184385Y-42108973D01*
X110356100Y-42108973D01*
X110401472Y-42337074D01*
X110529120Y-42443378D01*
X110972498Y-42000000D01*
X112027502Y-42000000D01*
X112470880Y-42443378D01*
X112598528Y-42337074D01*
X112643900Y-41891027D01*
X112598528Y-41662926D01*
X112470880Y-41556622D01*
X112027502Y-42000000D01*
X110972498Y-42000000D01*
X110529120Y-41556622D01*
X110401472Y-41662926D01*
X110356100Y-42108973D01*
X110184385Y-42108973D01*
X110184385Y-41200000D01*
X110155125Y-41052902D01*
X110139235Y-41029120D01*
X111056622Y-41029120D01*
X111500000Y-41472498D01*
X111943378Y-41029120D01*
X111837074Y-40901472D01*
X111391027Y-40856100D01*
X111162926Y-40901472D01*
X111056622Y-41029120D01*
X110139235Y-41029120D01*
X110071801Y-40928199D01*
X109947098Y-40844875D01*
X109800000Y-40815615D01*
X108200000Y-40815615D01*
X108052902Y-40844875D01*
X107928199Y-40928199D01*
X107844875Y-41052902D01*
X107815615Y-41200000D01*
X99077000Y-41200000D01*
X99077000Y-40568850D01*
X114453652Y-40568850D01*
X114662914Y-40779854D01*
X115407373Y-40962796D01*
X116165173Y-40846920D01*
X116327086Y-40779854D01*
X116536348Y-40568850D01*
X121463652Y-40568850D01*
X121672914Y-40779854D01*
X122417373Y-40962796D01*
X123175173Y-40846920D01*
X123337086Y-40779854D01*
X123546348Y-40568850D01*
X122505000Y-39527502D01*
X121463652Y-40568850D01*
X116536348Y-40568850D01*
X115495000Y-39527502D01*
X114453652Y-40568850D01*
X99077000Y-40568850D01*
X99077000Y-40046975D01*
X99086344Y-40000000D01*
X99049323Y-39813884D01*
X98970506Y-39695926D01*
X98943897Y-39656103D01*
X98904075Y-39629495D01*
X97670508Y-38395929D01*
X97643897Y-38356103D01*
X97486116Y-38250677D01*
X97346975Y-38223000D01*
X97346971Y-38223000D01*
X97300000Y-38213657D01*
X97253029Y-38223000D01*
X95180423Y-38223000D01*
X95083490Y-38126067D01*
X94834664Y-38023000D01*
X94565336Y-38023000D01*
X94316510Y-38126067D01*
X94126067Y-38316510D01*
X94023000Y-38565336D01*
X94023000Y-38834664D01*
X94126067Y-39083490D01*
X94316510Y-39273933D01*
X94354365Y-39289613D01*
X94323000Y-39365336D01*
X94323000Y-39634664D01*
X94426067Y-39883490D01*
X94442577Y-39900000D01*
X94426067Y-39916510D01*
X94323000Y-40165336D01*
X94323000Y-40434664D01*
X94426067Y-40683490D01*
X94592577Y-40850000D01*
X94426067Y-41016510D01*
X94323000Y-41265336D01*
X94323000Y-41534664D01*
X94426067Y-41783490D01*
X94616510Y-41973933D01*
X94865336Y-42077000D01*
X95002421Y-42077000D01*
X95223001Y-42297581D01*
X95223001Y-42453030D01*
X95213658Y-42500001D01*
X95223001Y-42546972D01*
X95223001Y-42546976D01*
X95224411Y-42554063D01*
X95250678Y-42686116D01*
X95313500Y-42780135D01*
X95356105Y-42843898D01*
X95395927Y-42870506D01*
X98923000Y-46397580D01*
X98923001Y-50053024D01*
X98913657Y-50100000D01*
X98950677Y-50286115D01*
X99020042Y-50389926D01*
X99056104Y-50443897D01*
X99095927Y-50470506D01*
X99323001Y-50697580D01*
X99323000Y-52853029D01*
X99313657Y-52900000D01*
X99323000Y-52946971D01*
X99323000Y-52946974D01*
X99350677Y-53086115D01*
X99456103Y-53243897D01*
X99495928Y-53270508D01*
X100029804Y-53804384D01*
X100056413Y-53844207D01*
X100096236Y-53870816D01*
X100214194Y-53949633D01*
X100400310Y-53986654D01*
X100447285Y-53977310D01*
X102465869Y-53977310D01*
X102512840Y-53986653D01*
X102559811Y-53977310D01*
X102559815Y-53977310D01*
X102698956Y-53949633D01*
X102856737Y-53844207D01*
X102883348Y-53804381D01*
X103130000Y-53557729D01*
X103130000Y-54306566D01*
X103120167Y-54356000D01*
X103130000Y-54405434D01*
X103130000Y-54405438D01*
X103159127Y-54551869D01*
X103270079Y-54717921D01*
X103311993Y-54745927D01*
X104086076Y-55520012D01*
X104114079Y-55561921D01*
X104155987Y-55589923D01*
X104155990Y-55589926D01*
X104222261Y-55634206D01*
X104280130Y-55672873D01*
X104426561Y-55702000D01*
X104426565Y-55702000D01*
X104475999Y-55711833D01*
X104525433Y-55702000D01*
X112900932Y-55702000D01*
X112799006Y-55802872D01*
X112562673Y-56151646D01*
X112505699Y-56286220D01*
X112419754Y-56698664D01*
X112411846Y-56771654D01*
X112402985Y-57624517D01*
X112027502Y-58000000D01*
X112400651Y-58373149D01*
X112400651Y-59027008D01*
X112330160Y-59386278D01*
X112149637Y-59661073D01*
X111878659Y-59847283D01*
X111520933Y-59925242D01*
X108784765Y-59982246D01*
X108735397Y-59986532D01*
X108216835Y-60066162D01*
X108121899Y-60093863D01*
X107641887Y-60305607D01*
X107557422Y-60357044D01*
X107148990Y-60686332D01*
X107080806Y-60757965D01*
X106772059Y-61182139D01*
X106724851Y-61269038D01*
X106537035Y-61758908D01*
X106514048Y-61855094D01*
X106460087Y-62376951D01*
X106458241Y-62426471D01*
X106568200Y-66283260D01*
X106574269Y-66340726D01*
X106684871Y-66941944D01*
X106722795Y-67050756D01*
X107009837Y-67590480D01*
X107078857Y-67682754D01*
X107364904Y-67963000D01*
X87083660Y-67963000D01*
X86864233Y-67847856D01*
X86461183Y-67440556D01*
X86200259Y-66930390D01*
X86104301Y-66355432D01*
X85997389Y-57200000D01*
X107815615Y-57200000D01*
X107815615Y-58800000D01*
X107844875Y-58947098D01*
X107928199Y-59071801D01*
X108052902Y-59155125D01*
X108200000Y-59184385D01*
X109800000Y-59184385D01*
X109947098Y-59155125D01*
X110071801Y-59071801D01*
X110139234Y-58970880D01*
X111056622Y-58970880D01*
X111162926Y-59098528D01*
X111608973Y-59143900D01*
X111837074Y-59098528D01*
X111943378Y-58970880D01*
X111500000Y-58527502D01*
X111056622Y-58970880D01*
X110139234Y-58970880D01*
X110155125Y-58947098D01*
X110184385Y-58800000D01*
X110184385Y-58108973D01*
X110356100Y-58108973D01*
X110401472Y-58337074D01*
X110529120Y-58443378D01*
X110972498Y-58000000D01*
X110529120Y-57556622D01*
X110401472Y-57662926D01*
X110356100Y-58108973D01*
X110184385Y-58108973D01*
X110184385Y-57200000D01*
X110155125Y-57052902D01*
X110139235Y-57029120D01*
X111056622Y-57029120D01*
X111500000Y-57472498D01*
X111943378Y-57029120D01*
X111837074Y-56901472D01*
X111391027Y-56856100D01*
X111162926Y-56901472D01*
X111056622Y-57029120D01*
X110139235Y-57029120D01*
X110071801Y-56928199D01*
X109947098Y-56844875D01*
X109800000Y-56815615D01*
X108200000Y-56815615D01*
X108052902Y-56844875D01*
X107928199Y-56928199D01*
X107844875Y-57052902D01*
X107815615Y-57200000D01*
X85997389Y-57200000D01*
X85993820Y-56894430D01*
X85991129Y-56869865D01*
X85889057Y-56382775D01*
X85869836Y-56337497D01*
X85590332Y-55925728D01*
X85555347Y-55891149D01*
X85140343Y-55616473D01*
X85094844Y-55597782D01*
X84606595Y-55501404D01*
X84582000Y-55499000D01*
X79470025Y-55499000D01*
X79206898Y-55464451D01*
X79246519Y-55406428D01*
X79303863Y-55272590D01*
X79384550Y-54894887D01*
X79392820Y-54822207D01*
X79406049Y-54002000D01*
X82503155Y-54001999D01*
X82659865Y-54158709D01*
X82945445Y-54277000D01*
X83254555Y-54277000D01*
X83540135Y-54158709D01*
X83758709Y-53940135D01*
X83877000Y-53654555D01*
X83877000Y-53345445D01*
X83758709Y-53059865D01*
X83540135Y-52841291D01*
X83254555Y-52723000D01*
X82945445Y-52723000D01*
X82659865Y-52841291D01*
X82503156Y-52998000D01*
X82400844Y-52998000D01*
X82458709Y-52940135D01*
X82577000Y-52654555D01*
X82577000Y-52345445D01*
X82458709Y-52059865D01*
X82333844Y-51935000D01*
X87753850Y-51935000D01*
X87753850Y-52754150D01*
X87983836Y-53164370D01*
X88362055Y-53393215D01*
X88527000Y-53378054D01*
X88527000Y-51935000D01*
X89273000Y-51935000D01*
X89273000Y-53378054D01*
X89437945Y-53393215D01*
X89816164Y-53164370D01*
X90046150Y-52754150D01*
X90046150Y-51935000D01*
X89273000Y-51935000D01*
X88527000Y-51935000D01*
X87753850Y-51935000D01*
X82333844Y-51935000D01*
X82302000Y-51903156D01*
X82302000Y-51249434D01*
X82311833Y-51200000D01*
X82302000Y-51150566D01*
X82302000Y-51150561D01*
X82272873Y-51004130D01*
X82161921Y-50838079D01*
X82120010Y-50810075D01*
X81679785Y-50369850D01*
X87753850Y-50369850D01*
X87753850Y-51189000D01*
X88527000Y-51189000D01*
X88527000Y-49745946D01*
X89273000Y-49745946D01*
X89273000Y-51189000D01*
X90046150Y-51189000D01*
X90046150Y-50625044D01*
X90243850Y-50625044D01*
X90243850Y-52498955D01*
X90313252Y-52847863D01*
X90577625Y-53243525D01*
X90973286Y-53507898D01*
X91440000Y-53600733D01*
X91906713Y-53507898D01*
X92302375Y-53243525D01*
X92566748Y-52847864D01*
X92636150Y-52498956D01*
X92636150Y-50625044D01*
X92783850Y-50625044D01*
X92783850Y-52498955D01*
X92853252Y-52847863D01*
X93117625Y-53243525D01*
X93478001Y-53484321D01*
X93478001Y-54130561D01*
X93468167Y-54180000D01*
X93478001Y-54229439D01*
X93490033Y-54289926D01*
X93507128Y-54375870D01*
X93590074Y-54500008D01*
X93590076Y-54500010D01*
X93618080Y-54541921D01*
X93659991Y-54569925D01*
X94310075Y-55220009D01*
X94338079Y-55261921D01*
X94504130Y-55372873D01*
X94650561Y-55402000D01*
X94650566Y-55402000D01*
X94700000Y-55411833D01*
X94749434Y-55402000D01*
X95903156Y-55402000D01*
X96059865Y-55558709D01*
X96345445Y-55677000D01*
X96654555Y-55677000D01*
X96940135Y-55558709D01*
X97158709Y-55340135D01*
X97277000Y-55054555D01*
X97277000Y-54745445D01*
X97158709Y-54459865D01*
X96940135Y-54241291D01*
X96654555Y-54123000D01*
X96345445Y-54123000D01*
X96059865Y-54241291D01*
X95903156Y-54398000D01*
X94907935Y-54398000D01*
X94482000Y-53972066D01*
X94482000Y-53484320D01*
X94842375Y-53243525D01*
X95106748Y-52847864D01*
X95176150Y-52498956D01*
X95176150Y-50625044D01*
X95106748Y-50276136D01*
X94842375Y-49880475D01*
X94446714Y-49616102D01*
X93980000Y-49523267D01*
X93513287Y-49616102D01*
X93117626Y-49880475D01*
X92853253Y-50276136D01*
X92783850Y-50625044D01*
X92636150Y-50625044D01*
X92566748Y-50276136D01*
X92302375Y-49880475D01*
X91906714Y-49616102D01*
X91440000Y-49523267D01*
X90973287Y-49616102D01*
X90577626Y-49880475D01*
X90313253Y-50276136D01*
X90243850Y-50625044D01*
X90046150Y-50625044D01*
X90046150Y-50369850D01*
X89816164Y-49959630D01*
X89437945Y-49730785D01*
X89273000Y-49745946D01*
X88527000Y-49745946D01*
X88362055Y-49730785D01*
X87983836Y-49959630D01*
X87753850Y-50369850D01*
X81679785Y-50369850D01*
X81139927Y-49829993D01*
X81139925Y-49829990D01*
X81127000Y-49817065D01*
X81127000Y-49595445D01*
X81008709Y-49309865D01*
X80790135Y-49091291D01*
X80504555Y-48973000D01*
X80195445Y-48973000D01*
X79909865Y-49091291D01*
X79691291Y-49309865D01*
X79573000Y-49595445D01*
X79573000Y-49904555D01*
X79691291Y-50190135D01*
X79909865Y-50408709D01*
X80195445Y-50527000D01*
X80417065Y-50527000D01*
X80429990Y-50539925D01*
X80429993Y-50539927D01*
X81298001Y-51407936D01*
X81298000Y-51903156D01*
X81141291Y-52059865D01*
X81023000Y-52345445D01*
X81023000Y-52654555D01*
X81141291Y-52940135D01*
X81199157Y-52998001D01*
X79422243Y-52998001D01*
X79495540Y-48453568D01*
X79993470Y-48438188D01*
X80069370Y-48437332D01*
X84798686Y-48476661D01*
X84801242Y-48476656D01*
X84881739Y-48475705D01*
X84884294Y-48475649D01*
X86409055Y-48426935D01*
X86428661Y-48424777D01*
X86912830Y-48332967D01*
X86949868Y-48319745D01*
X87382735Y-48084214D01*
X87413954Y-48060295D01*
X87754008Y-47703627D01*
X87776412Y-47671305D01*
X87876068Y-47465336D01*
X91423000Y-47465336D01*
X91423000Y-47734664D01*
X91526067Y-47983490D01*
X91716510Y-48173933D01*
X91965336Y-48277000D01*
X92234664Y-48277000D01*
X92483490Y-48173933D01*
X92555423Y-48102000D01*
X93150566Y-48102000D01*
X93200000Y-48111833D01*
X93249434Y-48102000D01*
X93249439Y-48102000D01*
X93395870Y-48072873D01*
X93561921Y-47961921D01*
X93589926Y-47920008D01*
X93620009Y-47889926D01*
X93661921Y-47861921D01*
X93772873Y-47695870D01*
X93802000Y-47549439D01*
X93802000Y-47549435D01*
X93811833Y-47500001D01*
X93802000Y-47450567D01*
X93802000Y-45249433D01*
X93811833Y-45199999D01*
X93802000Y-45150565D01*
X93802000Y-45150561D01*
X93772873Y-45004130D01*
X93661921Y-44838079D01*
X93620009Y-44810075D01*
X93377000Y-44567065D01*
X93377000Y-44345445D01*
X93258709Y-44059865D01*
X93040135Y-43841291D01*
X92754555Y-43723000D01*
X92445445Y-43723000D01*
X92159865Y-43841291D01*
X91941291Y-44059865D01*
X91823000Y-44345445D01*
X91823000Y-44654555D01*
X91941291Y-44940135D01*
X92159865Y-45158709D01*
X92445445Y-45277000D01*
X92667065Y-45277000D01*
X92798001Y-45407936D01*
X92798000Y-47098000D01*
X92555423Y-47098000D01*
X92483490Y-47026067D01*
X92234664Y-46923000D01*
X91965336Y-46923000D01*
X91716510Y-47026067D01*
X91526067Y-47216510D01*
X91423000Y-47465336D01*
X87876068Y-47465336D01*
X87991045Y-47227704D01*
X88002485Y-47190077D01*
X88071114Y-46702082D01*
X88072336Y-46682396D01*
X88016653Y-43145445D01*
X88048000Y-43145445D01*
X88048000Y-43454555D01*
X88166291Y-43740135D01*
X88323000Y-43896844D01*
X88323001Y-46219582D01*
X88226073Y-46316510D01*
X88123006Y-46565336D01*
X88123006Y-46834664D01*
X88226073Y-47083490D01*
X88416516Y-47273933D01*
X88665342Y-47377000D01*
X88934670Y-47377000D01*
X89183496Y-47273933D01*
X89373939Y-47083490D01*
X89477006Y-46834664D01*
X89477006Y-46565336D01*
X89373939Y-46316510D01*
X89327000Y-46269571D01*
X89327000Y-43896844D01*
X89483709Y-43740135D01*
X89602000Y-43454555D01*
X89602000Y-43145445D01*
X89483709Y-42859865D01*
X89265135Y-42641291D01*
X88979555Y-42523000D01*
X88670445Y-42523000D01*
X88384865Y-42641291D01*
X88166291Y-42859865D01*
X88048000Y-43145445D01*
X88016653Y-43145445D01*
X87994765Y-41755119D01*
X89903000Y-41755119D01*
X89903000Y-41944881D01*
X89975619Y-42120199D01*
X90109801Y-42254381D01*
X90285119Y-42327000D01*
X90474881Y-42327000D01*
X90650199Y-42254381D01*
X90784381Y-42120199D01*
X90857000Y-41944881D01*
X90857000Y-41755119D01*
X90903000Y-41755119D01*
X90903000Y-41944881D01*
X90975619Y-42120199D01*
X91109801Y-42254381D01*
X91285119Y-42327000D01*
X91474881Y-42327000D01*
X91650199Y-42254381D01*
X91784381Y-42120199D01*
X91857000Y-41944881D01*
X91857000Y-41755119D01*
X91903000Y-41755119D01*
X91903000Y-41944881D01*
X91975619Y-42120199D01*
X92109801Y-42254381D01*
X92285119Y-42327000D01*
X92474881Y-42327000D01*
X92650199Y-42254381D01*
X92784381Y-42120199D01*
X92857000Y-41944881D01*
X92857000Y-41755119D01*
X92784381Y-41579801D01*
X92650199Y-41445619D01*
X92474881Y-41373000D01*
X92285119Y-41373000D01*
X92109801Y-41445619D01*
X91975619Y-41579801D01*
X91903000Y-41755119D01*
X91857000Y-41755119D01*
X91784381Y-41579801D01*
X91650199Y-41445619D01*
X91474881Y-41373000D01*
X91285119Y-41373000D01*
X91109801Y-41445619D01*
X90975619Y-41579801D01*
X90903000Y-41755119D01*
X90857000Y-41755119D01*
X90784381Y-41579801D01*
X90650199Y-41445619D01*
X90474881Y-41373000D01*
X90285119Y-41373000D01*
X90109801Y-41445619D01*
X89975619Y-41579801D01*
X89903000Y-41755119D01*
X87994765Y-41755119D01*
X87979022Y-40755119D01*
X89903000Y-40755119D01*
X89903000Y-40944881D01*
X89975619Y-41120199D01*
X90109801Y-41254381D01*
X90285119Y-41327000D01*
X90474881Y-41327000D01*
X90650199Y-41254381D01*
X90784381Y-41120199D01*
X90857000Y-40944881D01*
X90857000Y-40755119D01*
X90857000Y-40755118D01*
X90903000Y-40755118D01*
X90903000Y-40944880D01*
X90975619Y-41120198D01*
X91109801Y-41254380D01*
X91285119Y-41326999D01*
X91474881Y-41326999D01*
X91650199Y-41254380D01*
X91784381Y-41120198D01*
X91857000Y-40944880D01*
X91857000Y-40755119D01*
X91903000Y-40755119D01*
X91903000Y-40944881D01*
X91975619Y-41120199D01*
X92109801Y-41254381D01*
X92285119Y-41327000D01*
X92474881Y-41327000D01*
X92650199Y-41254381D01*
X92784381Y-41120199D01*
X92857000Y-40944881D01*
X92857000Y-40755119D01*
X92784381Y-40579801D01*
X92650199Y-40445619D01*
X92474881Y-40373000D01*
X92285119Y-40373000D01*
X92109801Y-40445619D01*
X91975619Y-40579801D01*
X91903000Y-40755119D01*
X91857000Y-40755119D01*
X91857000Y-40755118D01*
X91784381Y-40579800D01*
X91650199Y-40445618D01*
X91474881Y-40372999D01*
X91285119Y-40372999D01*
X91109801Y-40445618D01*
X90975619Y-40579800D01*
X90903000Y-40755118D01*
X90857000Y-40755118D01*
X90784381Y-40579801D01*
X90650199Y-40445619D01*
X90474881Y-40373000D01*
X90285119Y-40373000D01*
X90109801Y-40445619D01*
X89975619Y-40579801D01*
X89903000Y-40755119D01*
X87979022Y-40755119D01*
X87963279Y-39755119D01*
X89903000Y-39755119D01*
X89903000Y-39944881D01*
X89975619Y-40120199D01*
X90109801Y-40254381D01*
X90285119Y-40327000D01*
X90474881Y-40327000D01*
X90650199Y-40254381D01*
X90784381Y-40120199D01*
X90857000Y-39944881D01*
X90857000Y-39755119D01*
X90903000Y-39755119D01*
X90903000Y-39944881D01*
X90975619Y-40120199D01*
X91109801Y-40254381D01*
X91285119Y-40327000D01*
X91474881Y-40327000D01*
X91650199Y-40254381D01*
X91784381Y-40120199D01*
X91857000Y-39944881D01*
X91857000Y-39755119D01*
X91903000Y-39755119D01*
X91903000Y-39944881D01*
X91975619Y-40120199D01*
X92109801Y-40254381D01*
X92285119Y-40327000D01*
X92474881Y-40327000D01*
X92650199Y-40254381D01*
X92784381Y-40120199D01*
X92857000Y-39944881D01*
X92857000Y-39755119D01*
X92784381Y-39579801D01*
X92650199Y-39445619D01*
X92474881Y-39373000D01*
X92285119Y-39373000D01*
X92109801Y-39445619D01*
X91975619Y-39579801D01*
X91903000Y-39755119D01*
X91857000Y-39755119D01*
X91784381Y-39579801D01*
X91650199Y-39445619D01*
X91474881Y-39373000D01*
X91285119Y-39373000D01*
X91109801Y-39445619D01*
X90975619Y-39579801D01*
X90903000Y-39755119D01*
X90857000Y-39755119D01*
X90784381Y-39579801D01*
X90650199Y-39445619D01*
X90474881Y-39373000D01*
X90285119Y-39373000D01*
X90109801Y-39445619D01*
X89975619Y-39579801D01*
X89903000Y-39755119D01*
X87963279Y-39755119D01*
X87880424Y-34492437D01*
X87870112Y-33066342D01*
X87918481Y-32655730D01*
X88104124Y-32195300D01*
X88224278Y-32037000D01*
X104089354Y-32037000D01*
X103938079Y-32138079D01*
G04 #@! TO.N,/+48V*
G36*
X84525583Y-56094243D02*
X84688661Y-56143511D01*
X84839062Y-56223537D01*
X84971038Y-56331264D01*
X85079561Y-56462584D01*
X85160493Y-56612494D01*
X85210749Y-56775278D01*
X85229056Y-56950929D01*
X85294048Y-67688456D01*
X85277610Y-67865660D01*
X85248604Y-67963000D01*
X72822109Y-67963000D01*
X72499746Y-67931392D01*
X72210929Y-67844194D01*
X71944549Y-67702556D01*
X71710752Y-67511876D01*
X71518446Y-67279417D01*
X71374955Y-67014036D01*
X71285741Y-66725833D01*
X71252000Y-66404807D01*
X71252000Y-59442191D01*
X71386992Y-59428895D01*
X71391352Y-59429338D01*
X71427810Y-59431264D01*
X80053286Y-59468853D01*
X80151179Y-59456363D01*
X80238619Y-59433274D01*
X80408366Y-59335928D01*
X80472454Y-59272119D01*
X80570541Y-59102797D01*
X80594011Y-59015458D01*
X80606927Y-58917620D01*
X80606927Y-57083242D01*
X80605133Y-57046510D01*
X80588161Y-56873146D01*
X80593972Y-56813437D01*
X80642471Y-56651534D01*
X80721279Y-56502021D01*
X80827436Y-56370510D01*
X80956959Y-56261936D01*
X81104986Y-56180375D01*
X81265966Y-56128885D01*
X81440000Y-56108688D01*
X83142435Y-56077161D01*
X83159890Y-56077000D01*
X84349821Y-56077000D01*
X84525583Y-56094243D01*
X84525583Y-56094243D01*
G37*
X84525583Y-56094243D02*
X84688661Y-56143511D01*
X84839062Y-56223537D01*
X84971038Y-56331264D01*
X85079561Y-56462584D01*
X85160493Y-56612494D01*
X85210749Y-56775278D01*
X85229056Y-56950929D01*
X85294048Y-67688456D01*
X85277610Y-67865660D01*
X85248604Y-67963000D01*
X72822109Y-67963000D01*
X72499746Y-67931392D01*
X72210929Y-67844194D01*
X71944549Y-67702556D01*
X71710752Y-67511876D01*
X71518446Y-67279417D01*
X71374955Y-67014036D01*
X71285741Y-66725833D01*
X71252000Y-66404807D01*
X71252000Y-59442191D01*
X71386992Y-59428895D01*
X71391352Y-59429338D01*
X71427810Y-59431264D01*
X80053286Y-59468853D01*
X80151179Y-59456363D01*
X80238619Y-59433274D01*
X80408366Y-59335928D01*
X80472454Y-59272119D01*
X80570541Y-59102797D01*
X80594011Y-59015458D01*
X80606927Y-58917620D01*
X80606927Y-57083242D01*
X80605133Y-57046510D01*
X80588161Y-56873146D01*
X80593972Y-56813437D01*
X80642471Y-56651534D01*
X80721279Y-56502021D01*
X80827436Y-56370510D01*
X80956959Y-56261936D01*
X81104986Y-56180375D01*
X81265966Y-56128885D01*
X81440000Y-56108688D01*
X83142435Y-56077161D01*
X83159890Y-56077000D01*
X84349821Y-56077000D01*
X84525583Y-56094243D01*
G04 #@! TO.N,+12V*
G36*
X127245212Y-55894061D02*
X127445445Y-55977000D01*
X127517096Y-55977000D01*
X127919336Y-56179827D01*
X128332561Y-56587301D01*
X128601088Y-57101775D01*
X128700787Y-57683655D01*
X128748001Y-61052556D01*
X128748001Y-66382792D01*
X128681353Y-66848178D01*
X128500232Y-67246532D01*
X128214585Y-67578041D01*
X127847377Y-67816053D01*
X127413154Y-67945914D01*
X127183230Y-67963000D01*
X108301385Y-67963000D01*
X107854205Y-67736805D01*
X107682774Y-67568850D01*
X114453652Y-67568850D01*
X114662914Y-67779854D01*
X115407373Y-67962796D01*
X116165173Y-67846920D01*
X116327086Y-67779854D01*
X116536348Y-67568850D01*
X121463652Y-67568850D01*
X121672914Y-67779854D01*
X122417373Y-67962796D01*
X123175173Y-67846920D01*
X123337086Y-67779854D01*
X123546348Y-67568850D01*
X122505000Y-66527502D01*
X121463652Y-67568850D01*
X116536348Y-67568850D01*
X115495000Y-66527502D01*
X114453652Y-67568850D01*
X107682774Y-67568850D01*
X107445599Y-67336485D01*
X107176999Y-66831439D01*
X107071717Y-66259136D01*
X107061831Y-65912373D01*
X113532204Y-65912373D01*
X113648080Y-66670173D01*
X113715146Y-66832086D01*
X113926150Y-67041348D01*
X114967498Y-66000000D01*
X116022502Y-66000000D01*
X117063850Y-67041348D01*
X117274854Y-66832086D01*
X117457796Y-66087627D01*
X117430998Y-65912373D01*
X120542204Y-65912373D01*
X120658080Y-66670173D01*
X120725146Y-66832086D01*
X120936150Y-67041348D01*
X121977498Y-66000000D01*
X123032502Y-66000000D01*
X124073850Y-67041348D01*
X124284854Y-66832086D01*
X124467796Y-66087627D01*
X124351920Y-65329827D01*
X124284854Y-65167914D01*
X124073850Y-64958652D01*
X123032502Y-66000000D01*
X121977498Y-66000000D01*
X120936150Y-64958652D01*
X120725146Y-65167914D01*
X120542204Y-65912373D01*
X117430998Y-65912373D01*
X117341920Y-65329827D01*
X117274854Y-65167914D01*
X117063850Y-64958652D01*
X116022502Y-66000000D01*
X114967498Y-66000000D01*
X113926150Y-64958652D01*
X113715146Y-65167914D01*
X113532204Y-65912373D01*
X107061831Y-65912373D01*
X107019601Y-64431150D01*
X114453652Y-64431150D01*
X115495000Y-65472498D01*
X116536348Y-64431150D01*
X121463652Y-64431150D01*
X122505000Y-65472498D01*
X123546348Y-64431150D01*
X123337086Y-64220146D01*
X122592627Y-64037204D01*
X121834827Y-64153080D01*
X121672914Y-64220146D01*
X121463652Y-64431150D01*
X116536348Y-64431150D01*
X116327086Y-64220146D01*
X115582627Y-64037204D01*
X114824827Y-64153080D01*
X114662914Y-64220146D01*
X114453652Y-64431150D01*
X107019601Y-64431150D01*
X106966505Y-62568850D01*
X114453652Y-62568850D01*
X114662914Y-62779854D01*
X115407373Y-62962796D01*
X116165173Y-62846920D01*
X116327086Y-62779854D01*
X116536348Y-62568850D01*
X121463652Y-62568850D01*
X121672914Y-62779854D01*
X122417373Y-62962796D01*
X123175173Y-62846920D01*
X123337086Y-62779854D01*
X123546348Y-62568850D01*
X122505000Y-61527502D01*
X121463652Y-62568850D01*
X116536348Y-62568850D01*
X115495000Y-61527502D01*
X114453652Y-62568850D01*
X106966505Y-62568850D01*
X106962274Y-62420468D01*
X107013647Y-61923647D01*
X107189433Y-61465153D01*
X107478404Y-61068149D01*
X107671620Y-60912373D01*
X113532204Y-60912373D01*
X113648080Y-61670173D01*
X113715146Y-61832086D01*
X113926150Y-62041348D01*
X114967498Y-61000000D01*
X116022502Y-61000000D01*
X117063850Y-62041348D01*
X117274854Y-61832086D01*
X117457796Y-61087627D01*
X117430998Y-60912373D01*
X120542204Y-60912373D01*
X120658080Y-61670173D01*
X120725146Y-61832086D01*
X120936150Y-62041348D01*
X121977498Y-61000000D01*
X123032502Y-61000000D01*
X124073850Y-62041348D01*
X124284854Y-61832086D01*
X124467796Y-61087627D01*
X124351920Y-60329827D01*
X124284854Y-60167914D01*
X124073850Y-59958652D01*
X123032502Y-61000000D01*
X121977498Y-61000000D01*
X120936150Y-59958652D01*
X120725146Y-60167914D01*
X120542204Y-60912373D01*
X117430998Y-60912373D01*
X117341920Y-60329827D01*
X117274854Y-60167914D01*
X117063850Y-59958652D01*
X116022502Y-61000000D01*
X114967498Y-61000000D01*
X113926150Y-59958652D01*
X113715146Y-60167914D01*
X113532204Y-60912373D01*
X107671620Y-60912373D01*
X107860673Y-60759954D01*
X108309939Y-60561773D01*
X108803632Y-60485962D01*
X111568059Y-60428369D01*
X111592456Y-60425484D01*
X112058251Y-60323973D01*
X112103135Y-60304555D01*
X112496038Y-60034561D01*
X112530257Y-59999622D01*
X112792009Y-59601180D01*
X112810488Y-59555902D01*
X112834965Y-59431150D01*
X114453652Y-59431150D01*
X115495000Y-60472498D01*
X116536348Y-59431150D01*
X121463652Y-59431150D01*
X122505000Y-60472498D01*
X123546348Y-59431150D01*
X123337086Y-59220146D01*
X122592627Y-59037204D01*
X121834827Y-59153080D01*
X121672914Y-59220146D01*
X121463652Y-59431150D01*
X116536348Y-59431150D01*
X116327086Y-59220146D01*
X115582627Y-59037204D01*
X114824827Y-59153080D01*
X114662914Y-59220146D01*
X114453652Y-59431150D01*
X112834965Y-59431150D01*
X112902275Y-59088094D01*
X112904651Y-59063642D01*
X112904651Y-57861806D01*
X112904755Y-57841769D01*
X112915690Y-56789314D01*
X112993982Y-56413598D01*
X113202166Y-56106365D01*
X113511543Y-55901385D01*
X113888056Y-55827000D01*
X126817929Y-55827000D01*
X127245212Y-55894061D01*
X127245212Y-55894061D01*
G37*
X127245212Y-55894061D02*
X127445445Y-55977000D01*
X127517096Y-55977000D01*
X127919336Y-56179827D01*
X128332561Y-56587301D01*
X128601088Y-57101775D01*
X128700787Y-57683655D01*
X128748001Y-61052556D01*
X128748001Y-66382792D01*
X128681353Y-66848178D01*
X128500232Y-67246532D01*
X128214585Y-67578041D01*
X127847377Y-67816053D01*
X127413154Y-67945914D01*
X127183230Y-67963000D01*
X108301385Y-67963000D01*
X107854205Y-67736805D01*
X107682774Y-67568850D01*
X114453652Y-67568850D01*
X114662914Y-67779854D01*
X115407373Y-67962796D01*
X116165173Y-67846920D01*
X116327086Y-67779854D01*
X116536348Y-67568850D01*
X121463652Y-67568850D01*
X121672914Y-67779854D01*
X122417373Y-67962796D01*
X123175173Y-67846920D01*
X123337086Y-67779854D01*
X123546348Y-67568850D01*
X122505000Y-66527502D01*
X121463652Y-67568850D01*
X116536348Y-67568850D01*
X115495000Y-66527502D01*
X114453652Y-67568850D01*
X107682774Y-67568850D01*
X107445599Y-67336485D01*
X107176999Y-66831439D01*
X107071717Y-66259136D01*
X107061831Y-65912373D01*
X113532204Y-65912373D01*
X113648080Y-66670173D01*
X113715146Y-66832086D01*
X113926150Y-67041348D01*
X114967498Y-66000000D01*
X116022502Y-66000000D01*
X117063850Y-67041348D01*
X117274854Y-66832086D01*
X117457796Y-66087627D01*
X117430998Y-65912373D01*
X120542204Y-65912373D01*
X120658080Y-66670173D01*
X120725146Y-66832086D01*
X120936150Y-67041348D01*
X121977498Y-66000000D01*
X123032502Y-66000000D01*
X124073850Y-67041348D01*
X124284854Y-66832086D01*
X124467796Y-66087627D01*
X124351920Y-65329827D01*
X124284854Y-65167914D01*
X124073850Y-64958652D01*
X123032502Y-66000000D01*
X121977498Y-66000000D01*
X120936150Y-64958652D01*
X120725146Y-65167914D01*
X120542204Y-65912373D01*
X117430998Y-65912373D01*
X117341920Y-65329827D01*
X117274854Y-65167914D01*
X117063850Y-64958652D01*
X116022502Y-66000000D01*
X114967498Y-66000000D01*
X113926150Y-64958652D01*
X113715146Y-65167914D01*
X113532204Y-65912373D01*
X107061831Y-65912373D01*
X107019601Y-64431150D01*
X114453652Y-64431150D01*
X115495000Y-65472498D01*
X116536348Y-64431150D01*
X121463652Y-64431150D01*
X122505000Y-65472498D01*
X123546348Y-64431150D01*
X123337086Y-64220146D01*
X122592627Y-64037204D01*
X121834827Y-64153080D01*
X121672914Y-64220146D01*
X121463652Y-64431150D01*
X116536348Y-64431150D01*
X116327086Y-64220146D01*
X115582627Y-64037204D01*
X114824827Y-64153080D01*
X114662914Y-64220146D01*
X114453652Y-64431150D01*
X107019601Y-64431150D01*
X106966505Y-62568850D01*
X114453652Y-62568850D01*
X114662914Y-62779854D01*
X115407373Y-62962796D01*
X116165173Y-62846920D01*
X116327086Y-62779854D01*
X116536348Y-62568850D01*
X121463652Y-62568850D01*
X121672914Y-62779854D01*
X122417373Y-62962796D01*
X123175173Y-62846920D01*
X123337086Y-62779854D01*
X123546348Y-62568850D01*
X122505000Y-61527502D01*
X121463652Y-62568850D01*
X116536348Y-62568850D01*
X115495000Y-61527502D01*
X114453652Y-62568850D01*
X106966505Y-62568850D01*
X106962274Y-62420468D01*
X107013647Y-61923647D01*
X107189433Y-61465153D01*
X107478404Y-61068149D01*
X107671620Y-60912373D01*
X113532204Y-60912373D01*
X113648080Y-61670173D01*
X113715146Y-61832086D01*
X113926150Y-62041348D01*
X114967498Y-61000000D01*
X116022502Y-61000000D01*
X117063850Y-62041348D01*
X117274854Y-61832086D01*
X117457796Y-61087627D01*
X117430998Y-60912373D01*
X120542204Y-60912373D01*
X120658080Y-61670173D01*
X120725146Y-61832086D01*
X120936150Y-62041348D01*
X121977498Y-61000000D01*
X123032502Y-61000000D01*
X124073850Y-62041348D01*
X124284854Y-61832086D01*
X124467796Y-61087627D01*
X124351920Y-60329827D01*
X124284854Y-60167914D01*
X124073850Y-59958652D01*
X123032502Y-61000000D01*
X121977498Y-61000000D01*
X120936150Y-59958652D01*
X120725146Y-60167914D01*
X120542204Y-60912373D01*
X117430998Y-60912373D01*
X117341920Y-60329827D01*
X117274854Y-60167914D01*
X117063850Y-59958652D01*
X116022502Y-61000000D01*
X114967498Y-61000000D01*
X113926150Y-59958652D01*
X113715146Y-60167914D01*
X113532204Y-60912373D01*
X107671620Y-60912373D01*
X107860673Y-60759954D01*
X108309939Y-60561773D01*
X108803632Y-60485962D01*
X111568059Y-60428369D01*
X111592456Y-60425484D01*
X112058251Y-60323973D01*
X112103135Y-60304555D01*
X112496038Y-60034561D01*
X112530257Y-59999622D01*
X112792009Y-59601180D01*
X112810488Y-59555902D01*
X112834965Y-59431150D01*
X114453652Y-59431150D01*
X115495000Y-60472498D01*
X116536348Y-59431150D01*
X121463652Y-59431150D01*
X122505000Y-60472498D01*
X123546348Y-59431150D01*
X123337086Y-59220146D01*
X122592627Y-59037204D01*
X121834827Y-59153080D01*
X121672914Y-59220146D01*
X121463652Y-59431150D01*
X116536348Y-59431150D01*
X116327086Y-59220146D01*
X115582627Y-59037204D01*
X114824827Y-59153080D01*
X114662914Y-59220146D01*
X114453652Y-59431150D01*
X112834965Y-59431150D01*
X112902275Y-59088094D01*
X112904651Y-59063642D01*
X112904651Y-57861806D01*
X112904755Y-57841769D01*
X112915690Y-56789314D01*
X112993982Y-56413598D01*
X113202166Y-56106365D01*
X113511543Y-55901385D01*
X113888056Y-55827000D01*
X126817929Y-55827000D01*
X127245212Y-55894061D01*
G04 #@! TO.N,Earth*
G36*
X75346851Y-40647752D02*
X75375119Y-40676020D01*
X75821462Y-40860901D01*
X75846283Y-40877350D01*
X76035675Y-41157296D01*
X76106740Y-41500699D01*
X76114472Y-42389830D01*
X76117067Y-42414291D01*
X76194680Y-42791952D01*
X76213598Y-42837116D01*
X76428320Y-43157345D01*
X76462918Y-43191994D01*
X76782830Y-43407188D01*
X76827965Y-43426172D01*
X77205511Y-43504341D01*
X77229969Y-43506972D01*
X78180227Y-43516635D01*
X78526383Y-43589426D01*
X78807476Y-43782332D01*
X78992928Y-44068404D01*
X79056591Y-44416354D01*
X79008500Y-47398000D01*
X73639433Y-47398000D01*
X73589999Y-47388167D01*
X73581311Y-47389895D01*
X73564664Y-47383000D01*
X73295336Y-47383000D01*
X73046510Y-47486067D01*
X72856067Y-47676510D01*
X72753000Y-47925336D01*
X72753000Y-48194664D01*
X72856067Y-48443490D01*
X73046510Y-48633933D01*
X73295336Y-48737000D01*
X73562074Y-48737000D01*
X73220696Y-49078378D01*
X72973000Y-49676370D01*
X72973000Y-50323630D01*
X73220696Y-50921622D01*
X73678378Y-51379304D01*
X74276370Y-51627000D01*
X74923630Y-51627000D01*
X75521622Y-51379304D01*
X75979304Y-50921622D01*
X76227000Y-50323630D01*
X76227000Y-49676370D01*
X75979304Y-49078378D01*
X75521622Y-48620696D01*
X74993642Y-48402000D01*
X78992307Y-48402000D01*
X78918178Y-52998002D01*
X78249437Y-52998002D01*
X78199998Y-52988168D01*
X78004128Y-53027129D01*
X77879990Y-53110075D01*
X77879986Y-53110079D01*
X77860648Y-53123000D01*
X77645445Y-53123000D01*
X77359865Y-53241291D01*
X77141291Y-53459865D01*
X77023000Y-53745445D01*
X77023000Y-54054555D01*
X77141291Y-54340135D01*
X77359865Y-54558709D01*
X77645445Y-54677000D01*
X77954555Y-54677000D01*
X78240135Y-54558709D01*
X78458709Y-54340135D01*
X78577000Y-54054555D01*
X78577000Y-54002001D01*
X78901984Y-54002001D01*
X78889086Y-54801697D01*
X78816206Y-55142855D01*
X78626597Y-55420525D01*
X78345902Y-55605633D01*
X78003622Y-55673000D01*
X75708321Y-55673000D01*
X71429659Y-55632685D01*
X71392084Y-55634206D01*
X71269662Y-55645300D01*
X71252000Y-55641794D01*
X71252000Y-40648759D01*
X71365054Y-40626136D01*
X75220477Y-40622855D01*
X75346851Y-40647752D01*
X75346851Y-40647752D01*
G37*
X75346851Y-40647752D02*
X75375119Y-40676020D01*
X75821462Y-40860901D01*
X75846283Y-40877350D01*
X76035675Y-41157296D01*
X76106740Y-41500699D01*
X76114472Y-42389830D01*
X76117067Y-42414291D01*
X76194680Y-42791952D01*
X76213598Y-42837116D01*
X76428320Y-43157345D01*
X76462918Y-43191994D01*
X76782830Y-43407188D01*
X76827965Y-43426172D01*
X77205511Y-43504341D01*
X77229969Y-43506972D01*
X78180227Y-43516635D01*
X78526383Y-43589426D01*
X78807476Y-43782332D01*
X78992928Y-44068404D01*
X79056591Y-44416354D01*
X79008500Y-47398000D01*
X73639433Y-47398000D01*
X73589999Y-47388167D01*
X73581311Y-47389895D01*
X73564664Y-47383000D01*
X73295336Y-47383000D01*
X73046510Y-47486067D01*
X72856067Y-47676510D01*
X72753000Y-47925336D01*
X72753000Y-48194664D01*
X72856067Y-48443490D01*
X73046510Y-48633933D01*
X73295336Y-48737000D01*
X73562074Y-48737000D01*
X73220696Y-49078378D01*
X72973000Y-49676370D01*
X72973000Y-50323630D01*
X73220696Y-50921622D01*
X73678378Y-51379304D01*
X74276370Y-51627000D01*
X74923630Y-51627000D01*
X75521622Y-51379304D01*
X75979304Y-50921622D01*
X76227000Y-50323630D01*
X76227000Y-49676370D01*
X75979304Y-49078378D01*
X75521622Y-48620696D01*
X74993642Y-48402000D01*
X78992307Y-48402000D01*
X78918178Y-52998002D01*
X78249437Y-52998002D01*
X78199998Y-52988168D01*
X78004128Y-53027129D01*
X77879990Y-53110075D01*
X77879986Y-53110079D01*
X77860648Y-53123000D01*
X77645445Y-53123000D01*
X77359865Y-53241291D01*
X77141291Y-53459865D01*
X77023000Y-53745445D01*
X77023000Y-54054555D01*
X77141291Y-54340135D01*
X77359865Y-54558709D01*
X77645445Y-54677000D01*
X77954555Y-54677000D01*
X78240135Y-54558709D01*
X78458709Y-54340135D01*
X78577000Y-54054555D01*
X78577000Y-54002001D01*
X78901984Y-54002001D01*
X78889086Y-54801697D01*
X78816206Y-55142855D01*
X78626597Y-55420525D01*
X78345902Y-55605633D01*
X78003622Y-55673000D01*
X75708321Y-55673000D01*
X71429659Y-55632685D01*
X71392084Y-55634206D01*
X71269662Y-55645300D01*
X71252000Y-55641794D01*
X71252000Y-40648759D01*
X71365054Y-40626136D01*
X75220477Y-40622855D01*
X75346851Y-40647752D01*
G04 #@! TO.N,Net-(J2-Pad1)*
G36*
X86827422Y-32002415D02*
X87106858Y-32189935D01*
X87294297Y-32469429D01*
X87364256Y-32811495D01*
X87465629Y-46831123D01*
X87398764Y-47178755D01*
X87210492Y-47463300D01*
X86927318Y-47653623D01*
X86580178Y-47723000D01*
X80184476Y-47723000D01*
X80275775Y-47586362D01*
X80302000Y-47454518D01*
X80310855Y-47410000D01*
X80302000Y-47365482D01*
X80302000Y-43234712D01*
X80381545Y-43155167D01*
X80477000Y-42924718D01*
X80477000Y-42675282D01*
X80381545Y-42444833D01*
X80205167Y-42268455D01*
X79974718Y-42173000D01*
X79725282Y-42173000D01*
X79494833Y-42268455D01*
X79318455Y-42444833D01*
X79223000Y-42675282D01*
X79223000Y-42924718D01*
X79318455Y-43155167D01*
X79398000Y-43234712D01*
X79398000Y-43766729D01*
X79216592Y-43486894D01*
X79113571Y-43381128D01*
X78790657Y-43159521D01*
X78654915Y-43101432D01*
X78271656Y-43020839D01*
X78197910Y-43012789D01*
X77271770Y-43003371D01*
X77002677Y-42947657D01*
X76805678Y-42815142D01*
X76673452Y-42617945D01*
X76618134Y-42348770D01*
X76610613Y-41483871D01*
X76602805Y-41410750D01*
X76524125Y-41030549D01*
X76467201Y-40895698D01*
X76249643Y-40574120D01*
X76145648Y-40471114D01*
X75822008Y-40256636D01*
X75686621Y-40201002D01*
X75305686Y-40125954D01*
X75232493Y-40118844D01*
X71352098Y-40122147D01*
X71281357Y-40129186D01*
X71202000Y-38477866D01*
X71202000Y-33613639D01*
X71270167Y-33137646D01*
X71457217Y-32726254D01*
X71752212Y-32383895D01*
X72131437Y-32138094D01*
X72577721Y-32004627D01*
X72814921Y-31987000D01*
X86752164Y-31987000D01*
X86827422Y-32002415D01*
X86827422Y-32002415D01*
G37*
X86827422Y-32002415D02*
X87106858Y-32189935D01*
X87294297Y-32469429D01*
X87364256Y-32811495D01*
X87465629Y-46831123D01*
X87398764Y-47178755D01*
X87210492Y-47463300D01*
X86927318Y-47653623D01*
X86580178Y-47723000D01*
X80184476Y-47723000D01*
X80275775Y-47586362D01*
X80302000Y-47454518D01*
X80310855Y-47410000D01*
X80302000Y-47365482D01*
X80302000Y-43234712D01*
X80381545Y-43155167D01*
X80477000Y-42924718D01*
X80477000Y-42675282D01*
X80381545Y-42444833D01*
X80205167Y-42268455D01*
X79974718Y-42173000D01*
X79725282Y-42173000D01*
X79494833Y-42268455D01*
X79318455Y-42444833D01*
X79223000Y-42675282D01*
X79223000Y-42924718D01*
X79318455Y-43155167D01*
X79398000Y-43234712D01*
X79398000Y-43766729D01*
X79216592Y-43486894D01*
X79113571Y-43381128D01*
X78790657Y-43159521D01*
X78654915Y-43101432D01*
X78271656Y-43020839D01*
X78197910Y-43012789D01*
X77271770Y-43003371D01*
X77002677Y-42947657D01*
X76805678Y-42815142D01*
X76673452Y-42617945D01*
X76618134Y-42348770D01*
X76610613Y-41483871D01*
X76602805Y-41410750D01*
X76524125Y-41030549D01*
X76467201Y-40895698D01*
X76249643Y-40574120D01*
X76145648Y-40471114D01*
X75822008Y-40256636D01*
X75686621Y-40201002D01*
X75305686Y-40125954D01*
X75232493Y-40118844D01*
X71352098Y-40122147D01*
X71281357Y-40129186D01*
X71202000Y-38477866D01*
X71202000Y-33613639D01*
X71270167Y-33137646D01*
X71457217Y-32726254D01*
X71752212Y-32383895D01*
X72131437Y-32138094D01*
X72577721Y-32004627D01*
X72814921Y-31987000D01*
X86752164Y-31987000D01*
X86827422Y-32002415D01*
G04 #@! TO.N,Net-(D1-Pad2)*
G36*
X79231943Y-56210222D02*
X79407171Y-56229045D01*
X79569464Y-56279636D01*
X79718867Y-56360742D01*
X79849701Y-56469280D01*
X79957002Y-56601132D01*
X80036698Y-56751294D01*
X80085756Y-56914051D01*
X80102927Y-57089446D01*
X80102927Y-58900852D01*
X80092665Y-58939042D01*
X80076948Y-58954690D01*
X80038718Y-58964785D01*
X71436163Y-58927296D01*
X71262101Y-58909614D01*
X71252000Y-58906545D01*
X71252000Y-56152966D01*
X71431258Y-56136722D01*
X79231943Y-56210222D01*
X79231943Y-56210222D01*
G37*
X79231943Y-56210222D02*
X79407171Y-56229045D01*
X79569464Y-56279636D01*
X79718867Y-56360742D01*
X79849701Y-56469280D01*
X79957002Y-56601132D01*
X80036698Y-56751294D01*
X80085756Y-56914051D01*
X80102927Y-57089446D01*
X80102927Y-58900852D01*
X80092665Y-58939042D01*
X80076948Y-58954690D01*
X80038718Y-58964785D01*
X71436163Y-58927296D01*
X71262101Y-58909614D01*
X71252000Y-58906545D01*
X71252000Y-56152966D01*
X71431258Y-56136722D01*
X79231943Y-56210222D01*
G04 #@! TD*
M02*
