G04 #@! TF.GenerationSoftware,KiCad,Pcbnew,(5.0.0)*
G04 #@! TF.CreationDate,2018-11-03T21:02:49-02:30*
G04 #@! TF.ProjectId,DC-DC Board Micro,44432D444320426F617264204D696372,rev?*
G04 #@! TF.SameCoordinates,Original*
G04 #@! TF.FileFunction,Soldermask,Bot*
G04 #@! TF.FilePolarity,Negative*
%FSLAX46Y46*%
G04 Gerber Fmt 4.6, Leading zero omitted, Abs format (unit mm)*
G04 Created by KiCad (PCBNEW (5.0.0)) date 11/03/18 21:02:49*
%MOMM*%
%LPD*%
G01*
G04 APERTURE LIST*
%ADD10R,2.000000X2.000000*%
%ADD11C,2.000000*%
%ADD12O,1.841500X3.479800*%
%ADD13C,3.600000*%
%ADD14R,1.400000X1.400000*%
%ADD15O,1.400000X1.400000*%
%ADD16C,1.900000*%
%ADD17C,2.100000*%
%ADD18C,3.900000*%
%ADD19C,2.900000*%
%ADD20C,0.400000*%
G04 APERTURE END LIST*
D10*
G04 #@! TO.C,C7*
X109000000Y-50000000D03*
D11*
X111500000Y-50000000D03*
G04 #@! TD*
D12*
G04 #@! TO.C,J4*
X91440000Y-51562000D03*
X93980000Y-51562000D03*
X88900000Y-51562000D03*
G04 #@! TD*
D13*
G04 #@! TO.C,J1*
X76495000Y-61000000D03*
X83505000Y-61000000D03*
X83505000Y-66000000D03*
X76495000Y-66000000D03*
G04 #@! TD*
G04 #@! TO.C,J2*
X76495000Y-34000000D03*
X83505000Y-34000000D03*
X83505000Y-39000000D03*
X76495000Y-39000000D03*
G04 #@! TD*
D10*
G04 #@! TO.C,C6*
X109000000Y-58000000D03*
D11*
X111500000Y-58000000D03*
G04 #@! TD*
D10*
G04 #@! TO.C,C8*
X109000000Y-42000000D03*
D11*
X111500000Y-42000000D03*
G04 #@! TD*
D12*
G04 #@! TO.C,J3*
X101092000Y-51562000D03*
X103632000Y-51562000D03*
G04 #@! TD*
D13*
G04 #@! TO.C,J5*
X122505000Y-66000000D03*
X115495000Y-66000000D03*
X115495000Y-61000000D03*
X122505000Y-61000000D03*
G04 #@! TD*
G04 #@! TO.C,J6*
X122505000Y-34000000D03*
X115495000Y-34000000D03*
X115495000Y-39000000D03*
X122505000Y-39000000D03*
G04 #@! TD*
D14*
G04 #@! TO.C,J8*
X109220000Y-32512000D03*
D15*
X110490000Y-32512000D03*
X109220000Y-33782000D03*
X110490000Y-33782000D03*
X109220000Y-35052000D03*
X110490000Y-35052000D03*
X109220000Y-36322000D03*
X110490000Y-36322000D03*
X109220000Y-37592000D03*
X110490000Y-37592000D03*
G04 #@! TD*
D16*
G04 #@! TO.C,U2*
X126400000Y-54000000D03*
D17*
X124400000Y-54000000D03*
X124400000Y-52000000D03*
X126400000Y-52000000D03*
X124400000Y-50000000D03*
X126400000Y-50000000D03*
X126400000Y-48000000D03*
X124400000Y-48000000D03*
X126400000Y-46000000D03*
X124400000Y-46000000D03*
D18*
X125400000Y-57620000D03*
X125400000Y-42380000D03*
D19*
X74600000Y-57620000D03*
X74600000Y-50000000D03*
X74600000Y-42380000D03*
G04 #@! TD*
D20*
G04 #@! TO.C,U4*
X90380000Y-41850000D03*
X90380000Y-40850000D03*
X90380000Y-39850000D03*
X91380000Y-41850000D03*
X91380000Y-40849999D03*
X91380000Y-39850000D03*
X92380000Y-41850000D03*
X92380000Y-40850000D03*
X92380000Y-39850000D03*
G04 #@! TD*
M02*
