M48
INCH,TZ
T1C0.0079
T2C0.0118
T3C0.0157
T4C0.0256
T5C0.0315
T6C0.0323
T7C0.0335
T8C0.0354
T9C0.0430
T10C0.0492
T11C0.0748
T12C0.0787
%
G90
G05
T1
X35583Y-15689
X35583Y-16083
X35583Y-16476
X35976Y-15689
X35976Y-16083
X35976Y-16476
X36370Y-15689
X36370Y-16083
X36370Y-16476
T2
X28909Y-18921
X29307Y-18008
X30157Y-22323
X30276Y-23031
X30630Y-22559
X30945Y-23031
X31437Y-16850
X31890Y-23504
X31929Y-22913
X32559Y-22559
X32598Y-23110
X34926Y-14680
X34961Y-18386
X35338Y-13094
X35536Y-13647
X35866Y-13780
X36163Y-14711
X36260Y-18740
X36772Y-13780
X36890Y-14724
X37269Y-12934
X37283Y-15236
X37402Y-15551
X37402Y-15866
X37402Y-16299
X39370Y-19528
X39803Y-16732
X40118Y-17008
T3
X28291Y-17083
X28346Y-13031
X28366Y-15087
X28480Y-25811
X28484Y-17949
X28500Y-24610
X28543Y-16307
X28642Y-20256
X28933Y-15476
X28945Y-13587
X28988Y-17453
X29024Y-23839
X29031Y-26461
X29122Y-25445
X29220Y-12835
X29492Y-14602
X29626Y-25004
X29969Y-17646
X30429Y-14406
X30591Y-25000
X30606Y-17323
X30614Y-17795
X30630Y-21220
X31051Y-14012
X31157Y-24020
X31181Y-25748
X31319Y-15701
X31421Y-12917
X31634Y-19587
X31698Y-20714
X31760Y-26283
X31780Y-13441
X31819Y-24598
X31933Y-14693
X32091Y-16681
X32094Y-17390
X32106Y-18138
X32205Y-20669
X32205Y-25197
X32480Y-14335
X32717Y-21063
X32791Y-21657
X33067Y-17358
X33067Y-18154
X33091Y-16669
X33220Y-25008
X33992Y-16681
X33996Y-17370
X34004Y-18150
X34970Y-17047
X35472Y-17559
X36457Y-17520
X37323Y-13976
X37402Y-16850
X37992Y-21614
X38819Y-19843
X38898Y-15276
X39213Y-17323
X39370Y-13228
X40630Y-13228
X40906Y-13583
X40906Y-15906
X41260Y-14961
X41378Y-19488
X41693Y-19764
X42480Y-12795
X42591Y-25327
X42717Y-24488
X42988Y-26240
X43661Y-25039
X43933Y-25752
X44370Y-24409
X44386Y-26417
X44724Y-24976
X44961Y-14386
X45087Y-22929
X45358Y-16815
X45795Y-22189
X46138Y-14370
X46181Y-24980
X46200Y-16331
X46319Y-12925
X46402Y-23244
X46610Y-26429
X46618Y-13575
X46850Y-15657
X46858Y-24457
X47008Y-25567
X47100Y-16800
X47197Y-12925
X47205Y-14173
X47232Y-22701
X47256Y-23728
X47260Y-14917
X47630Y-24949
X47717Y-18730
X48100Y-14339
X48181Y-22913
X48228Y-22181
X48295Y-16398
X48353Y-18734
X48874Y-24961
X49299Y-15177
X49315Y-25736
X49402Y-24039
X49441Y-13087
X49600Y-13800
X50142Y-24504
X50193Y-25402
X50236Y-14882
X50236Y-21732
X50256Y-26307
X50300Y-13200
X50331Y-16000
X50335Y-23508
T4
X43000Y-12800
X43000Y-13300
X43000Y-13800
X43000Y-14300
X43000Y-14800
X43500Y-12800
X43500Y-13300
X43500Y-13800
X43500Y-14300
X43500Y-14800
T5
X42913Y-16535
X43898Y-16535
X42913Y-19685
X43898Y-19685
X42913Y-22835
X43898Y-22835
T6
X48976Y-18898
X49764Y-21260
T7
X48976Y-19685
X48976Y-20472
X48976Y-21260
X49764Y-18898
X49764Y-19685
X49764Y-20472
T8
X48976Y-18110
X49764Y-18110
T9
X35000Y-20300
X36000Y-20300
X37000Y-20300
X39800Y-20300
X40800Y-20300
T10
X29370Y-16685
X29370Y-19685
X29370Y-22685
T11
X30116Y-13386
X30116Y-15354
X32876Y-13386
X32876Y-15354
X30116Y-24016
X30116Y-25984
X32876Y-24016
X32876Y-25984
X45470Y-13386
X45470Y-15354
X48230Y-13386
X48230Y-15354
X45470Y-24016
X45470Y-25984
X48230Y-24016
X48230Y-25984
T12
X49370Y-16685
X49370Y-22685
T0
M30
