M48
INCH,TZ
T1C0.0118
T2C0.0157
T3C0.0315
T4C0.0323
T5C0.0335
T6C0.0354
T7C0.0430
T8C0.0492
T9C0.0748
T10C0.0787
%
G90
G05
T1
X28909Y-18921
X29307Y-18008
X30157Y-22323
X30276Y-23031
X30630Y-22559
X30945Y-23031
X31437Y-16850
X31890Y-23504
X31929Y-22913
X32559Y-22559
X32598Y-23110
T2
X28291Y-17083
X28346Y-13031
X28346Y-15079
X28480Y-25811
X28484Y-17949
X28500Y-24610
X28543Y-16307
X28642Y-20256
X28937Y-13583
X28937Y-15472
X28988Y-17453
X29024Y-23839
X29031Y-26461
X29122Y-25445
X29213Y-12835
X29500Y-14600
X29626Y-25004
X29969Y-17646
X30433Y-14409
X30591Y-25000
X30606Y-17323
X30614Y-17795
X30630Y-21220
X31059Y-14016
X31157Y-24020
X31181Y-25748
X31299Y-15705
X31429Y-12909
X31634Y-19587
X31698Y-20714
X31760Y-26283
X31772Y-13425
X31819Y-24598
X31937Y-14701
X32091Y-16681
X32094Y-17390
X32106Y-18138
X32205Y-20669
X32205Y-25197
X32480Y-14331
X32717Y-21063
X32791Y-21657
X33067Y-17358
X33067Y-18154
X33091Y-16669
X33220Y-25008
X33638Y-14457
X33976Y-14961
X33992Y-16681
X33996Y-17370
X34004Y-18150
X34047Y-15787
X34055Y-12953
X34055Y-13858
X34921Y-20443
X36073Y-23140
X36909Y-25610
X38602Y-22795
X39291Y-25787
X40118Y-23583
X40876Y-25778
X42591Y-25327
X42717Y-24488
X42988Y-26240
X43661Y-25039
X43933Y-25752
X44370Y-24409
X44386Y-26417
X44724Y-24976
X44961Y-14386
X45087Y-22929
X45358Y-16815
X45795Y-22189
X46039Y-16331
X46138Y-14370
X46181Y-24980
X46319Y-12925
X46402Y-23244
X46610Y-26429
X46618Y-13575
X46850Y-15657
X46858Y-24457
X47008Y-25567
X47020Y-16736
X47197Y-12925
X47205Y-14173
X47232Y-22701
X47256Y-23728
X47260Y-14917
X47630Y-24949
X47717Y-19094
X48031Y-20364
X48100Y-14339
X48181Y-22913
X48228Y-22181
X48295Y-16398
X48425Y-19134
X48874Y-24961
X49299Y-15177
X49315Y-25736
X49402Y-24039
X49441Y-13087
X49600Y-13800
X50142Y-24504
X50193Y-25402
X50236Y-14882
X50236Y-21732
X50256Y-26307
X50300Y-13200
X50331Y-16000
X50335Y-23508
T3
X42913Y-19685
X43898Y-19685
X42913Y-22835
X43898Y-22835
X42913Y-16535
X43898Y-16535
T4
X48976Y-18898
X49764Y-21260
T5
X48976Y-19685
X48976Y-20472
X48976Y-21260
X49764Y-18898
X49764Y-19685
X49764Y-20472
T6
X48976Y-18110
X49764Y-18110
T7
X39657Y-21898
X40657Y-21898
X35878Y-21898
X36878Y-21898
T8
X29370Y-16685
X29370Y-19685
X29370Y-22685
T9
X45470Y-13386
X45470Y-15354
X48230Y-13386
X48230Y-15354
X45470Y-24016
X45470Y-25984
X48230Y-24016
X48230Y-25984
X30116Y-13386
X30116Y-15354
X32876Y-13386
X32876Y-15354
X30116Y-24016
X30116Y-25984
X32876Y-24016
X32876Y-25984
T10
X49370Y-16685
X49370Y-22685
T0
M30
