G04 #@! TF.GenerationSoftware,KiCad,Pcbnew,(5.0.0)*
G04 #@! TF.CreationDate,2018-11-03T21:11:35-02:30*
G04 #@! TF.ProjectId,DC-DC Board,44432D444320426F6172642E6B696361,rev?*
G04 #@! TF.SameCoordinates,Original*
G04 #@! TF.FileFunction,Copper,L1,Top,Mixed*
G04 #@! TF.FilePolarity,Positive*
%FSLAX46Y46*%
G04 Gerber Fmt 4.6, Leading zero omitted, Abs format (unit mm)*
G04 Created by KiCad (PCBNEW (5.0.0)) date 11/03/18 21:11:35*
%MOMM*%
%LPD*%
G01*
G04 APERTURE LIST*
G04 #@! TA.AperFunction,ComponentPad*
%ADD10O,1.638300X3.276600*%
G04 #@! TD*
G04 #@! TA.AperFunction,ComponentPad*
%ADD11C,1.500000*%
G04 #@! TD*
G04 #@! TA.AperFunction,ComponentPad*
%ADD12C,1.700000*%
G04 #@! TD*
G04 #@! TA.AperFunction,ComponentPad*
%ADD13C,3.500000*%
G04 #@! TD*
G04 #@! TA.AperFunction,ComponentPad*
%ADD14C,2.500000*%
G04 #@! TD*
G04 #@! TA.AperFunction,SMDPad,CuDef*
%ADD15R,1.250000X1.000000*%
G04 #@! TD*
G04 #@! TA.AperFunction,Conductor*
%ADD16C,0.100000*%
G04 #@! TD*
G04 #@! TA.AperFunction,SMDPad,CuDef*
%ADD17C,0.800000*%
G04 #@! TD*
G04 #@! TA.AperFunction,SMDPad,CuDef*
%ADD18R,0.850000X0.300000*%
G04 #@! TD*
G04 #@! TA.AperFunction,SMDPad,CuDef*
%ADD19R,0.300000X0.850000*%
G04 #@! TD*
G04 #@! TA.AperFunction,ComponentPad*
%ADD20C,3.200000*%
G04 #@! TD*
G04 #@! TA.AperFunction,ComponentPad*
%ADD21R,1.600000X1.600000*%
G04 #@! TD*
G04 #@! TA.AperFunction,ComponentPad*
%ADD22C,1.600000*%
G04 #@! TD*
G04 #@! TA.AperFunction,SMDPad,CuDef*
%ADD23R,1.200000X1.200000*%
G04 #@! TD*
G04 #@! TA.AperFunction,SMDPad,CuDef*
%ADD24R,1.060000X0.650000*%
G04 #@! TD*
G04 #@! TA.AperFunction,SMDPad,CuDef*
%ADD25R,0.700000X1.300000*%
G04 #@! TD*
G04 #@! TA.AperFunction,SMDPad,CuDef*
%ADD26R,1.300000X0.700000*%
G04 #@! TD*
G04 #@! TA.AperFunction,BGAPad,CuDef*
%ADD27C,1.000000*%
G04 #@! TD*
G04 #@! TA.AperFunction,SMDPad,CuDef*
%ADD28R,1.000000X1.250000*%
G04 #@! TD*
G04 #@! TA.AperFunction,SMDPad,CuDef*
%ADD29R,0.900000X0.500000*%
G04 #@! TD*
G04 #@! TA.AperFunction,SMDPad,CuDef*
%ADD30R,3.050000X2.750000*%
G04 #@! TD*
G04 #@! TA.AperFunction,SMDPad,CuDef*
%ADD31R,6.400000X5.800000*%
G04 #@! TD*
G04 #@! TA.AperFunction,SMDPad,CuDef*
%ADD32R,2.200000X1.200000*%
G04 #@! TD*
G04 #@! TA.AperFunction,ViaPad*
%ADD33C,0.600000*%
G04 #@! TD*
G04 #@! TA.AperFunction,ViaPad*
%ADD34C,0.800000*%
G04 #@! TD*
G04 #@! TA.AperFunction,Conductor*
%ADD35C,0.250000*%
G04 #@! TD*
G04 #@! TA.AperFunction,Conductor*
%ADD36C,1.000000*%
G04 #@! TD*
G04 #@! TA.AperFunction,Conductor*
%ADD37C,0.500000*%
G04 #@! TD*
G04 #@! TA.AperFunction,Conductor*
%ADD38C,0.254000*%
G04 #@! TD*
G04 APERTURE END LIST*
D10*
G04 #@! TO.P,J6,1*
G04 #@! TO.N,VIOUT*
X91130000Y-55620000D03*
G04 #@! TO.P,J6,2*
G04 #@! TO.N,GND*
X93670000Y-55620000D03*
G04 #@! TD*
D11*
G04 #@! TO.P,U1,15*
G04 #@! TO.N,GND*
X126400000Y-54000000D03*
D12*
G04 #@! TO.P,U1,14*
G04 #@! TO.N,Net-(U1-Pad14)*
X124400000Y-54000000D03*
G04 #@! TO.P,U1,12*
G04 #@! TO.N,Net-(U1-Pad12)*
X124400000Y-52000000D03*
G04 #@! TO.P,U1,13*
G04 #@! TO.N,GND*
X126400000Y-52000000D03*
G04 #@! TO.P,U1,10*
G04 #@! TO.N,SCL*
X124400000Y-50000000D03*
G04 #@! TO.P,U1,11*
G04 #@! TO.N,SDA*
X126400000Y-50000000D03*
G04 #@! TO.P,U1,9*
G04 #@! TO.N,Net-(C3-Pad1)*
X126400000Y-48000000D03*
G04 #@! TO.P,U1,8*
G04 #@! TO.N,Net-(C4-Pad1)*
X124400000Y-48000000D03*
G04 #@! TO.P,U1,7*
G04 #@! TO.N,GND*
X126400000Y-46000000D03*
G04 #@! TO.P,U1,6*
G04 #@! TO.N,+12V*
X124400000Y-46000000D03*
D13*
G04 #@! TO.P,U1,16*
X125400000Y-57620000D03*
G04 #@! TO.P,U1,5*
G04 #@! TO.N,GND*
X125400000Y-42380000D03*
D14*
G04 #@! TO.P,U1,1*
G04 #@! TO.N,Net-(D1-Pad2)*
X74600000Y-57620000D03*
G04 #@! TO.P,U1,2*
G04 #@! TO.N,Net-(R9-Pad1)*
X74600000Y-50000000D03*
G04 #@! TO.P,U1,4*
G04 #@! TO.N,Earth*
X74600000Y-42380000D03*
G04 #@! TD*
D15*
G04 #@! TO.P,C4,1*
G04 #@! TO.N,Net-(C4-Pad1)*
X121650000Y-46000000D03*
G04 #@! TO.P,C4,2*
G04 #@! TO.N,GND*
X121650000Y-44000000D03*
G04 #@! TD*
D16*
G04 #@! TO.N,/+48V*
G04 #@! TO.C,U2*
G36*
X81191762Y-55915578D02*
X81203411Y-55917306D01*
X81214834Y-55920167D01*
X81225922Y-55924134D01*
X81236568Y-55929169D01*
X81246668Y-55935224D01*
X81256127Y-55942239D01*
X81264853Y-55950147D01*
X81272761Y-55958873D01*
X81279776Y-55968332D01*
X81285831Y-55978432D01*
X81290866Y-55989078D01*
X81294833Y-56000166D01*
X81297694Y-56011589D01*
X81299422Y-56023238D01*
X81300000Y-56035000D01*
X81300000Y-57065000D01*
X81299422Y-57076762D01*
X81297694Y-57088411D01*
X81294833Y-57099834D01*
X81290866Y-57110922D01*
X81285831Y-57121568D01*
X81279776Y-57131668D01*
X81272761Y-57141127D01*
X81264853Y-57149853D01*
X81256127Y-57157761D01*
X81246668Y-57164776D01*
X81236568Y-57170831D01*
X81225922Y-57175866D01*
X81214834Y-57179833D01*
X81203411Y-57182694D01*
X81191762Y-57184422D01*
X81180000Y-57185000D01*
X80620000Y-57185000D01*
X80608238Y-57184422D01*
X80596589Y-57182694D01*
X80585166Y-57179833D01*
X80574078Y-57175866D01*
X80563432Y-57170831D01*
X80553332Y-57164776D01*
X80543873Y-57157761D01*
X80535147Y-57149853D01*
X80527239Y-57141127D01*
X80520224Y-57131668D01*
X80514169Y-57121568D01*
X80509134Y-57110922D01*
X80505167Y-57099834D01*
X80502306Y-57088411D01*
X80500578Y-57076762D01*
X80500000Y-57065000D01*
X80500000Y-56035000D01*
X80500578Y-56023238D01*
X80502306Y-56011589D01*
X80505167Y-56000166D01*
X80509134Y-55989078D01*
X80514169Y-55978432D01*
X80520224Y-55968332D01*
X80527239Y-55958873D01*
X80535147Y-55950147D01*
X80543873Y-55942239D01*
X80553332Y-55935224D01*
X80563432Y-55929169D01*
X80574078Y-55924134D01*
X80585166Y-55920167D01*
X80596589Y-55917306D01*
X80608238Y-55915578D01*
X80620000Y-55915000D01*
X81180000Y-55915000D01*
X81191762Y-55915578D01*
X81191762Y-55915578D01*
G37*
D17*
G04 #@! TD*
G04 #@! TO.P,U2,3*
G04 #@! TO.N,/+48V*
X80900000Y-56550000D03*
D16*
G04 #@! TO.N,Net-(D1-Pad2)*
G04 #@! TO.C,U2*
G36*
X80191762Y-55915578D02*
X80203411Y-55917306D01*
X80214834Y-55920167D01*
X80225922Y-55924134D01*
X80236568Y-55929169D01*
X80246668Y-55935224D01*
X80256127Y-55942239D01*
X80264853Y-55950147D01*
X80272761Y-55958873D01*
X80279776Y-55968332D01*
X80285831Y-55978432D01*
X80290866Y-55989078D01*
X80294833Y-56000166D01*
X80297694Y-56011589D01*
X80299422Y-56023238D01*
X80300000Y-56035000D01*
X80300000Y-57065000D01*
X80299422Y-57076762D01*
X80297694Y-57088411D01*
X80294833Y-57099834D01*
X80290866Y-57110922D01*
X80285831Y-57121568D01*
X80279776Y-57131668D01*
X80272761Y-57141127D01*
X80264853Y-57149853D01*
X80256127Y-57157761D01*
X80246668Y-57164776D01*
X80236568Y-57170831D01*
X80225922Y-57175866D01*
X80214834Y-57179833D01*
X80203411Y-57182694D01*
X80191762Y-57184422D01*
X80180000Y-57185000D01*
X79620000Y-57185000D01*
X79608238Y-57184422D01*
X79596589Y-57182694D01*
X79585166Y-57179833D01*
X79574078Y-57175866D01*
X79563432Y-57170831D01*
X79553332Y-57164776D01*
X79543873Y-57157761D01*
X79535147Y-57149853D01*
X79527239Y-57141127D01*
X79520224Y-57131668D01*
X79514169Y-57121568D01*
X79509134Y-57110922D01*
X79505167Y-57099834D01*
X79502306Y-57088411D01*
X79500578Y-57076762D01*
X79500000Y-57065000D01*
X79500000Y-56035000D01*
X79500578Y-56023238D01*
X79502306Y-56011589D01*
X79505167Y-56000166D01*
X79509134Y-55989078D01*
X79514169Y-55978432D01*
X79520224Y-55968332D01*
X79527239Y-55958873D01*
X79535147Y-55950147D01*
X79543873Y-55942239D01*
X79553332Y-55935224D01*
X79563432Y-55929169D01*
X79574078Y-55924134D01*
X79585166Y-55920167D01*
X79596589Y-55917306D01*
X79608238Y-55915578D01*
X79620000Y-55915000D01*
X80180000Y-55915000D01*
X80191762Y-55915578D01*
X80191762Y-55915578D01*
G37*
D17*
G04 #@! TD*
G04 #@! TO.P,U2,1*
G04 #@! TO.N,Net-(D1-Pad2)*
X79900000Y-56550000D03*
D18*
G04 #@! TO.P,U2,5*
G04 #@! TO.N,GND*
X81900000Y-54950000D03*
G04 #@! TO.P,U2,6*
G04 #@! TO.N,Net-(R8-Pad2)*
X81900000Y-54450000D03*
D19*
G04 #@! TO.P,U2,7*
G04 #@! TO.N,GND*
X81150000Y-53700000D03*
X79650000Y-53700000D03*
X80650000Y-53700000D03*
X80150000Y-53700000D03*
D18*
G04 #@! TO.P,U2,11*
G04 #@! TO.N,VIOUT*
X78900000Y-54450000D03*
G04 #@! TO.P,U2,12*
G04 #@! TO.N,+3V3*
X78900000Y-54950000D03*
G04 #@! TD*
D20*
G04 #@! TO.P,J1,1*
G04 #@! TO.N,Net-(J1-Pad1)*
X76495000Y-34000000D03*
X83505000Y-34000000D03*
X83505000Y-39000000D03*
X76495000Y-39000000D03*
G04 #@! TD*
G04 #@! TO.P,J2,1*
G04 #@! TO.N,/+48V*
X76495000Y-61000000D03*
X83505000Y-61000000D03*
X83505000Y-66000000D03*
X76495000Y-66000000D03*
G04 #@! TD*
G04 #@! TO.P,J3,1*
G04 #@! TO.N,GND*
X115495000Y-34000000D03*
X122505000Y-34000000D03*
X122505000Y-39000000D03*
X115495000Y-39000000D03*
G04 #@! TD*
G04 #@! TO.P,J4,1*
G04 #@! TO.N,+12V*
X115495000Y-61000000D03*
X122505000Y-61000000D03*
X122505000Y-66000000D03*
X115495000Y-66000000D03*
G04 #@! TD*
D15*
G04 #@! TO.P,C1,1*
G04 #@! TO.N,VIOUT*
X87000000Y-49800000D03*
G04 #@! TO.P,C1,2*
G04 #@! TO.N,GND*
X87000000Y-51800000D03*
G04 #@! TD*
G04 #@! TO.P,C2,1*
G04 #@! TO.N,VIOUT*
X84950000Y-49800000D03*
G04 #@! TO.P,C2,2*
G04 #@! TO.N,GND*
X84950000Y-51800000D03*
G04 #@! TD*
G04 #@! TO.P,C3,1*
G04 #@! TO.N,Net-(C3-Pad1)*
X115250000Y-46000000D03*
G04 #@! TO.P,C3,2*
G04 #@! TO.N,GND*
X115250000Y-44000000D03*
G04 #@! TD*
G04 #@! TO.P,C5,1*
G04 #@! TO.N,+12V*
X105500000Y-63350000D03*
G04 #@! TO.P,C5,2*
G04 #@! TO.N,GND*
X105500000Y-65350000D03*
G04 #@! TD*
D21*
G04 #@! TO.P,C6,1*
G04 #@! TO.N,+12V*
X109000000Y-58000000D03*
D22*
G04 #@! TO.P,C6,2*
G04 #@! TO.N,GND*
X111500000Y-58000000D03*
G04 #@! TD*
D15*
G04 #@! TO.P,C7,1*
G04 #@! TO.N,/5V*
X98000000Y-63500000D03*
G04 #@! TO.P,C7,2*
G04 #@! TO.N,GND*
X98000000Y-65500000D03*
G04 #@! TD*
D21*
G04 #@! TO.P,C8,1*
G04 #@! TO.N,+12V*
X109000000Y-42000000D03*
D22*
G04 #@! TO.P,C8,2*
G04 #@! TO.N,GND*
X111500000Y-42000000D03*
G04 #@! TD*
D15*
G04 #@! TO.P,C9,1*
G04 #@! TO.N,/5V*
X98000000Y-61300000D03*
G04 #@! TO.P,C9,2*
G04 #@! TO.N,GND*
X98000000Y-59300000D03*
G04 #@! TD*
D21*
G04 #@! TO.P,C10,1*
G04 #@! TO.N,+12V*
X109000000Y-50000000D03*
D22*
G04 #@! TO.P,C10,2*
G04 #@! TO.N,GND*
X111500000Y-50000000D03*
G04 #@! TD*
D15*
G04 #@! TO.P,C11,1*
G04 #@! TO.N,+3V3*
X90200000Y-63400000D03*
G04 #@! TO.P,C11,2*
G04 #@! TO.N,GND*
X90200000Y-61400000D03*
G04 #@! TD*
D23*
G04 #@! TO.P,D1,2*
G04 #@! TO.N,Net-(D1-Pad2)*
X74000000Y-54650000D03*
G04 #@! TO.P,D1,1*
G04 #@! TO.N,Net-(D1-Pad1)*
X76200000Y-54650000D03*
G04 #@! TD*
G04 #@! TO.P,D3,2*
G04 #@! TO.N,+12V*
X120075000Y-55925000D03*
G04 #@! TO.P,D3,1*
G04 #@! TO.N,Net-(D3-Pad1)*
X120075000Y-53725000D03*
G04 #@! TD*
D24*
G04 #@! TO.P,U4,1*
G04 #@! TO.N,/5V*
X94800000Y-63350000D03*
G04 #@! TO.P,U4,2*
G04 #@! TO.N,GND*
X94800000Y-62400000D03*
G04 #@! TO.P,U4,3*
G04 #@! TO.N,/5V*
X94800000Y-61450000D03*
G04 #@! TO.P,U4,4*
G04 #@! TO.N,Net-(U4-Pad4)*
X92600000Y-61450000D03*
G04 #@! TO.P,U4,5*
G04 #@! TO.N,+3V3*
X92600000Y-63350000D03*
G04 #@! TD*
D25*
G04 #@! TO.P,R2,1*
G04 #@! TO.N,Net-(D1-Pad1)*
X76250000Y-52650000D03*
G04 #@! TO.P,R2,2*
G04 #@! TO.N,Earth*
X74350000Y-52650000D03*
G04 #@! TD*
D26*
G04 #@! TO.P,R3,1*
G04 #@! TO.N,Net-(C3-Pad1)*
X117400000Y-45950000D03*
G04 #@! TO.P,R3,2*
G04 #@! TO.N,GND*
X117400000Y-44050000D03*
G04 #@! TD*
G04 #@! TO.P,R4,1*
G04 #@! TO.N,Net-(C4-Pad1)*
X119500000Y-45950000D03*
G04 #@! TO.P,R4,2*
G04 #@! TO.N,GND*
X119500000Y-44050000D03*
G04 #@! TD*
D25*
G04 #@! TO.P,R6,1*
G04 #@! TO.N,Net-(D3-Pad1)*
X120050000Y-50000000D03*
G04 #@! TO.P,R6,2*
G04 #@! TO.N,GND*
X121950000Y-50000000D03*
G04 #@! TD*
D26*
G04 #@! TO.P,R8,1*
G04 #@! TO.N,+3V3*
X78400000Y-51950000D03*
G04 #@! TO.P,R8,2*
G04 #@! TO.N,Net-(R8-Pad2)*
X78400000Y-50050000D03*
G04 #@! TD*
D24*
G04 #@! TO.P,U3,1*
G04 #@! TO.N,+12V*
X103000000Y-63150000D03*
G04 #@! TO.P,U3,2*
G04 #@! TO.N,GND*
X103000000Y-62200000D03*
G04 #@! TO.P,U3,3*
G04 #@! TO.N,+12V*
X103000000Y-61250000D03*
G04 #@! TO.P,U3,4*
G04 #@! TO.N,Net-(U3-Pad4)*
X100800000Y-61250000D03*
G04 #@! TO.P,U3,5*
G04 #@! TO.N,/5V*
X100800000Y-63150000D03*
G04 #@! TD*
D27*
G04 #@! TO.P,TP2,1*
G04 #@! TO.N,/5V*
X94800000Y-59250000D03*
G04 #@! TD*
D28*
G04 #@! TO.P,C12,1*
G04 #@! TO.N,+3V3*
X88000000Y-59800000D03*
G04 #@! TO.P,C12,2*
G04 #@! TO.N,GND*
X90000000Y-59800000D03*
G04 #@! TD*
G04 #@! TO.P,C13,1*
G04 #@! TO.N,+3V3*
X88025000Y-58000000D03*
G04 #@! TO.P,C13,2*
G04 #@! TO.N,GND*
X90025000Y-58000000D03*
G04 #@! TD*
D29*
G04 #@! TO.P,R1,2*
G04 #@! TO.N,Net-(Q1-Pad1)*
X72200000Y-53350000D03*
G04 #@! TO.P,R1,1*
G04 #@! TO.N,Net-(D1-Pad2)*
X72200000Y-54850000D03*
G04 #@! TD*
G04 #@! TO.P,R7,1*
G04 #@! TO.N,Net-(Q1-Pad1)*
X72250000Y-48400000D03*
G04 #@! TO.P,R7,2*
G04 #@! TO.N,Earth*
X72250000Y-46900000D03*
G04 #@! TD*
G04 #@! TO.P,R9,2*
G04 #@! TO.N,Earth*
X75710000Y-46630000D03*
G04 #@! TO.P,R9,1*
G04 #@! TO.N,Net-(R9-Pad1)*
X75710000Y-48130000D03*
G04 #@! TD*
D30*
G04 #@! TO.P,Q1,2*
G04 #@! TO.N,Net-(J1-Pad1)*
X82375000Y-45925000D03*
X85725000Y-42875000D03*
X82375000Y-42875000D03*
X85725000Y-45925000D03*
D31*
X84050000Y-44400000D03*
D32*
G04 #@! TO.P,Q1,3*
G04 #@! TO.N,Earth*
X77750000Y-46680000D03*
G04 #@! TO.P,Q1,1*
G04 #@! TO.N,Net-(Q1-Pad1)*
X77750000Y-42120000D03*
G04 #@! TD*
D10*
G04 #@! TO.P,J5,2*
G04 #@! TO.N,SCL*
X103270000Y-55620000D03*
G04 #@! TO.P,J5,1*
G04 #@! TO.N,SDA*
X100730000Y-55620000D03*
G04 #@! TD*
D33*
G04 #@! TO.N,/+48V*
X81100000Y-58200000D03*
X82700000Y-57300000D03*
X82800000Y-58700000D03*
X81000000Y-59700000D03*
D34*
X79140000Y-61010000D03*
X80820000Y-62480000D03*
X79200000Y-65400000D03*
X80670000Y-66760000D03*
X84380000Y-63520000D03*
X75250000Y-63510000D03*
X73740000Y-67210000D03*
X72340000Y-65560000D03*
X73970000Y-64630000D03*
X72390000Y-62510000D03*
X73720000Y-60550000D03*
X81800000Y-64000000D03*
X77700000Y-63500000D03*
G04 #@! TO.N,+12V*
X123000000Y-48600008D03*
X127650000Y-66820000D03*
X125260000Y-65370000D03*
X127360000Y-62240000D03*
X125480000Y-61060000D03*
X127850000Y-59710000D03*
X124140000Y-63400000D03*
X120980000Y-63370000D03*
X117300000Y-63450000D03*
X113600000Y-63440000D03*
X118390000Y-67130000D03*
X119400000Y-64940000D03*
X119020000Y-62120000D03*
X120030000Y-60270000D03*
X117860000Y-59040000D03*
X122380000Y-58200000D03*
X116320000Y-56360000D03*
X114520000Y-58240000D03*
X112700000Y-62000000D03*
X110900000Y-63600000D03*
X108500000Y-62200000D03*
X108180000Y-64330000D03*
X111590000Y-65410000D03*
X109190000Y-66650000D03*
X112740000Y-67100000D03*
X119970000Y-57660000D03*
X122500000Y-56340000D03*
X127490000Y-64520000D03*
G04 #@! TO.N,GND*
X122000000Y-51725000D03*
X98050000Y-57900000D03*
X99800000Y-65500002D03*
X93750000Y-65050000D03*
X101900000Y-59900000D03*
X80512653Y-52612653D03*
X83290000Y-55010000D03*
X121200000Y-48500000D03*
X115210000Y-42710000D03*
X116940000Y-41480000D03*
X119430000Y-42510000D03*
X122670000Y-41650000D03*
X119000000Y-39770000D03*
X120040000Y-37890000D03*
X117190000Y-36500000D03*
X114200000Y-36540000D03*
X118410000Y-34480000D03*
X117650000Y-32830000D03*
X119880000Y-32830000D03*
X119900000Y-36000000D03*
X122174000Y-36420000D03*
X125220000Y-38550000D03*
X127840000Y-40640000D03*
X127600000Y-37800000D03*
X125984000Y-35052000D03*
X127762000Y-33528000D03*
X125580000Y-33240000D03*
X88700000Y-51925000D03*
X103825000Y-65475000D03*
X91625000Y-58775000D03*
G04 #@! TO.N,Earth*
X72750000Y-51450000D03*
X77740000Y-44000000D03*
X77760000Y-45200000D03*
X76120000Y-44820000D03*
X74440000Y-45740000D03*
X73630000Y-44330000D03*
X72350001Y-45590000D03*
X71860000Y-43390000D03*
X72500000Y-41420000D03*
G04 #@! TO.N,+3V3*
X77800000Y-53900000D03*
X83100000Y-53500000D03*
G04 #@! TO.N,SDA*
X127600000Y-55200000D03*
G04 #@! TO.N,Net-(R8-Pad2)*
X81800000Y-52500000D03*
X80350000Y-49750000D03*
D33*
G04 #@! TO.N,Net-(D1-Pad2)*
X76900000Y-58500000D03*
X76600000Y-56700000D03*
X77800000Y-57300000D03*
X78600000Y-58500000D03*
G04 #@! TO.N,Net-(Q1-Pad1)*
X79850000Y-42800000D03*
X73430000Y-48060000D03*
D34*
G04 #@! TO.N,Net-(J1-Pad1)*
X81550000Y-46070000D03*
X83990000Y-46110000D03*
X86370000Y-46100000D03*
X86350000Y-44120000D03*
X83990000Y-44090000D03*
X81520000Y-44170000D03*
X86340000Y-42370000D03*
X84050000Y-42340000D03*
X81510000Y-42370000D03*
X72000000Y-38300000D03*
X74930000Y-37084000D03*
X72000000Y-33100000D03*
X74200000Y-32600000D03*
X79830000Y-32790000D03*
X78890000Y-35600000D03*
X81120000Y-37340000D03*
X79500000Y-39890000D03*
X86480000Y-40100000D03*
X85440000Y-36720000D03*
X86500000Y-32900000D03*
X73500000Y-34500000D03*
X80700000Y-34100000D03*
X77300000Y-36600000D03*
X82500000Y-36400000D03*
X86500000Y-35200000D03*
X73500000Y-39300000D03*
X86300000Y-38000000D03*
G04 #@! TD*
D35*
G04 #@! TO.N,+12V*
X105150000Y-63150000D02*
X105500000Y-63500000D01*
X103500000Y-62950000D02*
X103500000Y-64450000D01*
X123000000Y-55220000D02*
X123300000Y-55520000D01*
X123000000Y-48600008D02*
X123000000Y-55220000D01*
X123100000Y-55320000D02*
X123300000Y-55520000D01*
X123300000Y-55520000D02*
X125400000Y-57620000D01*
G04 #@! TO.N,GND*
X124870000Y-42380000D02*
X125400000Y-42380000D01*
X99799998Y-65500000D02*
X99800000Y-65500002D01*
X98000000Y-65500000D02*
X99799998Y-65500000D01*
X98000000Y-57950000D02*
X98100000Y-57850000D01*
X98000000Y-59300000D02*
X98000000Y-57950000D01*
X94020000Y-62400000D02*
X93700000Y-62720000D01*
X94800000Y-62400000D02*
X94020000Y-62400000D01*
X93700000Y-62720000D02*
X93700000Y-65000000D01*
X93700000Y-65000000D02*
X93750000Y-65050000D01*
X90200000Y-59600000D02*
X90000000Y-59400000D01*
X90050000Y-59350000D02*
X90000000Y-59400000D01*
X102220000Y-62200000D02*
X101900000Y-61880000D01*
X103000000Y-62200000D02*
X102220000Y-62200000D01*
X101900000Y-61880000D02*
X101900000Y-59900000D01*
D36*
X90075000Y-61275000D02*
X90075000Y-59525000D01*
X90200000Y-61400000D02*
X90075000Y-61275000D01*
D35*
X79650000Y-53700000D02*
X80150000Y-53700000D01*
X80150000Y-53700000D02*
X80650000Y-53700000D01*
X81150000Y-53700000D02*
X80650000Y-53700000D01*
X80650000Y-53700000D02*
X80650000Y-52750000D01*
X80650000Y-52750000D02*
X80512653Y-52612653D01*
X121975000Y-49775000D02*
X121975000Y-49725000D01*
D37*
X121225000Y-48500000D02*
X121200000Y-48500000D01*
X121950000Y-49725000D02*
X121950000Y-49225000D01*
X121950000Y-49225000D02*
X121225000Y-48500000D01*
D35*
X84950000Y-51800000D02*
X87000000Y-51800000D01*
X81900000Y-54950000D02*
X83100000Y-54950000D01*
X87000000Y-51800000D02*
X88575000Y-51800000D01*
X88575000Y-51800000D02*
X88700000Y-51925000D01*
D36*
X90000000Y-59300000D02*
X90050000Y-59350000D01*
X90025000Y-58175000D02*
X90000000Y-59300000D01*
D35*
X105050000Y-65350000D02*
X105500000Y-65350000D01*
X103825000Y-65475000D02*
X105050000Y-65350000D01*
X89925000Y-58225000D02*
X91625000Y-58775000D01*
X122000000Y-50050000D02*
X121950000Y-50000000D01*
X122000000Y-51725000D02*
X122000000Y-50050000D01*
G04 #@! TO.N,Earth*
X74350000Y-52600000D02*
X73900000Y-52600000D01*
X73900000Y-52600000D02*
X72750000Y-51450000D01*
G04 #@! TO.N,VIOUT*
X84975000Y-49775000D02*
X84950000Y-49800000D01*
X83825000Y-49775000D02*
X84975000Y-49775000D01*
X82950000Y-50650000D02*
X83825000Y-49775000D01*
X81400000Y-50650000D02*
X82950000Y-50650000D01*
X78900000Y-54450000D02*
X78900000Y-53150000D01*
X78900000Y-53150000D02*
X81400000Y-50650000D01*
X84950000Y-49800000D02*
X87000000Y-49800000D01*
X89129150Y-49800000D02*
X91130000Y-51800850D01*
X87000000Y-49800000D02*
X89129150Y-49800000D01*
X91130000Y-55620000D02*
X91130000Y-52325000D01*
X91130000Y-51800850D02*
X91130000Y-52325000D01*
X91130000Y-52325000D02*
X91130000Y-52620000D01*
G04 #@! TO.N,Net-(C3-Pad1)*
X117350000Y-46000000D02*
X117400000Y-45950000D01*
X115250000Y-46000000D02*
X117350000Y-46000000D01*
X117400000Y-45700000D02*
X117400000Y-45950000D01*
X127700000Y-46700000D02*
X127700000Y-45404000D01*
X126400000Y-48000000D02*
X127700000Y-46700000D01*
X127700000Y-45404000D02*
X126896000Y-44600000D01*
X118100000Y-45000000D02*
X117400000Y-45700000D01*
X126896000Y-44600000D02*
X123400000Y-44600000D01*
X123400000Y-44600000D02*
X123000000Y-45000000D01*
X123000000Y-45000000D02*
X118100000Y-45000000D01*
G04 #@! TO.N,Net-(C4-Pad1)*
X121600000Y-45950000D02*
X121650000Y-46000000D01*
X119500000Y-45950000D02*
X121600000Y-45950000D01*
X121650000Y-46050000D02*
X121650000Y-46000000D01*
X124400000Y-48000000D02*
X123600000Y-48000000D01*
X123600000Y-48000000D02*
X121650000Y-46050000D01*
G04 #@! TO.N,+3V3*
X90250000Y-63350000D02*
X90200000Y-63400000D01*
X88050000Y-59350000D02*
X88000000Y-59400000D01*
X90200000Y-63400000D02*
X90075000Y-63400000D01*
X78225000Y-54950000D02*
X77800000Y-54525000D01*
X78900000Y-54950000D02*
X78225000Y-54950000D01*
X77800000Y-54525000D02*
X77800000Y-53900000D01*
X77800000Y-52550000D02*
X78400000Y-51950000D01*
X77800000Y-53900000D02*
X77800000Y-52550000D01*
G04 #@! TO.N,Net-(D1-Pad1)*
X76350000Y-52850000D02*
X76400000Y-52800000D01*
X76350000Y-54100000D02*
X76350000Y-52850000D01*
X75750000Y-54450000D02*
X76000000Y-54450000D01*
X76000000Y-54450000D02*
X76350000Y-54100000D01*
G04 #@! TO.N,Net-(D3-Pad1)*
X120050000Y-53225000D02*
X120475000Y-53650000D01*
D37*
X120050000Y-50000000D02*
X120050000Y-53225000D01*
D35*
G04 #@! TO.N,SDA*
X128000000Y-54800000D02*
X127600000Y-55200000D01*
X128000000Y-50900000D02*
X128000000Y-54800000D01*
X126400000Y-50000000D02*
X127100000Y-50000000D01*
X127100000Y-50000000D02*
X128000000Y-50900000D01*
G04 #@! TO.N,Net-(R8-Pad2)*
X81900000Y-54450000D02*
X82175000Y-54450000D01*
X81800000Y-54350000D02*
X81900000Y-54450000D01*
X81800000Y-52500000D02*
X81800000Y-54350000D01*
X80300000Y-49700000D02*
X80350000Y-49750000D01*
X78400000Y-50050000D02*
X78750000Y-49700000D01*
X78750000Y-49700000D02*
X80300000Y-49700000D01*
G04 #@! TO.N,Net-(D1-Pad2)*
X74600000Y-57620000D02*
X74600000Y-57400000D01*
X73550000Y-56350000D02*
X73550000Y-54450000D01*
X74600000Y-57400000D02*
X73550000Y-56350000D01*
X73800000Y-54850000D02*
X74000000Y-54650000D01*
X72200000Y-54850000D02*
X73800000Y-54850000D01*
G04 #@! TO.N,Net-(Q1-Pad1)*
X71700000Y-48950000D02*
X72250000Y-48400000D01*
X71700000Y-52350000D02*
X71700000Y-48950000D01*
X72200000Y-53350000D02*
X72200000Y-52850000D01*
X72200000Y-52850000D02*
X71700000Y-52350000D01*
X77750000Y-42120000D02*
X79170000Y-42120000D01*
X79170000Y-42120000D02*
X79850000Y-42800000D01*
X73090000Y-48400000D02*
X73130001Y-48359999D01*
X73130001Y-48359999D02*
X73430000Y-48060000D01*
X72250000Y-48400000D02*
X73090000Y-48400000D01*
G04 #@! TO.N,Net-(R9-Pad1)*
X74600000Y-50000000D02*
X74890000Y-50000000D01*
X75710000Y-49180000D02*
X75710000Y-48130000D01*
X74890000Y-50000000D02*
X75710000Y-49180000D01*
G04 #@! TD*
D38*
G04 #@! TO.N,GND*
G36*
X127633178Y-32103647D02*
X128031533Y-32284769D01*
X128363041Y-32570415D01*
X128601054Y-32937623D01*
X128681512Y-33206656D01*
X128748000Y-42046257D01*
X128748000Y-43221118D01*
X128663118Y-43590629D01*
X128406436Y-43900089D01*
X128023956Y-44067105D01*
X127219201Y-44212207D01*
X127091870Y-44127127D01*
X126945439Y-44098000D01*
X126945434Y-44098000D01*
X126896000Y-44088167D01*
X126846566Y-44098000D01*
X123449433Y-44098000D01*
X123399999Y-44088167D01*
X123350565Y-44098000D01*
X123350561Y-44098000D01*
X123204130Y-44127127D01*
X123204129Y-44127128D01*
X123204128Y-44127128D01*
X123109046Y-44190660D01*
X123038079Y-44238079D01*
X123010074Y-44279991D01*
X122792066Y-44498000D01*
X122602000Y-44498000D01*
X122602000Y-44331750D01*
X122520250Y-44250000D01*
X121962500Y-44250000D01*
X121962500Y-44393000D01*
X121337500Y-44393000D01*
X121337500Y-44250000D01*
X120779750Y-44250000D01*
X120698000Y-44331750D01*
X120698000Y-44498000D01*
X120463349Y-44498000D01*
X120477000Y-44465044D01*
X120477000Y-44306750D01*
X120395250Y-44225000D01*
X119825000Y-44225000D01*
X119825000Y-44400000D01*
X119175000Y-44400000D01*
X119175000Y-44225000D01*
X118604750Y-44225000D01*
X118523000Y-44306750D01*
X118523000Y-44465044D01*
X118536651Y-44498000D01*
X118363349Y-44498000D01*
X118377000Y-44465044D01*
X118377000Y-44306750D01*
X118295250Y-44225000D01*
X117725000Y-44225000D01*
X117725000Y-44645250D01*
X117729968Y-44650218D01*
X117710075Y-44679991D01*
X117454825Y-44935241D01*
X114198132Y-44887591D01*
X113856869Y-44815223D01*
X113578915Y-44626029D01*
X113393387Y-44345614D01*
X113390637Y-44331750D01*
X114298000Y-44331750D01*
X114298000Y-44565044D01*
X114347783Y-44685230D01*
X114439769Y-44777217D01*
X114559955Y-44827000D01*
X114855750Y-44827000D01*
X114937500Y-44745250D01*
X114937500Y-44250000D01*
X115562500Y-44250000D01*
X115562500Y-44745250D01*
X115644250Y-44827000D01*
X115940045Y-44827000D01*
X116060231Y-44777217D01*
X116152217Y-44685230D01*
X116202000Y-44565044D01*
X116202000Y-44331750D01*
X116177000Y-44306750D01*
X116423000Y-44306750D01*
X116423000Y-44465044D01*
X116472783Y-44585230D01*
X116564769Y-44677217D01*
X116684955Y-44727000D01*
X116993250Y-44727000D01*
X117075000Y-44645250D01*
X117075000Y-44225000D01*
X116504750Y-44225000D01*
X116423000Y-44306750D01*
X116177000Y-44306750D01*
X116120250Y-44250000D01*
X115562500Y-44250000D01*
X114937500Y-44250000D01*
X114379750Y-44250000D01*
X114298000Y-44331750D01*
X113390637Y-44331750D01*
X113325507Y-44003430D01*
X113324656Y-43434956D01*
X114298000Y-43434956D01*
X114298000Y-43668250D01*
X114379750Y-43750000D01*
X114937500Y-43750000D01*
X114937500Y-43254750D01*
X115562500Y-43254750D01*
X115562500Y-43750000D01*
X116120250Y-43750000D01*
X116202000Y-43668250D01*
X116202000Y-43634956D01*
X116423000Y-43634956D01*
X116423000Y-43793250D01*
X116504750Y-43875000D01*
X117075000Y-43875000D01*
X117075000Y-43454750D01*
X117725000Y-43454750D01*
X117725000Y-43875000D01*
X118295250Y-43875000D01*
X118377000Y-43793250D01*
X118377000Y-43634956D01*
X118523000Y-43634956D01*
X118523000Y-43793250D01*
X118604750Y-43875000D01*
X119175000Y-43875000D01*
X119175000Y-43454750D01*
X119825000Y-43454750D01*
X119825000Y-43875000D01*
X120395250Y-43875000D01*
X120477000Y-43793250D01*
X120477000Y-43634956D01*
X120427217Y-43514770D01*
X120347404Y-43434956D01*
X120698000Y-43434956D01*
X120698000Y-43668250D01*
X120779750Y-43750000D01*
X121337500Y-43750000D01*
X121337500Y-43254750D01*
X121962500Y-43254750D01*
X121962500Y-43750000D01*
X122520250Y-43750000D01*
X122602000Y-43668250D01*
X122602000Y-43434956D01*
X122552217Y-43314770D01*
X122460231Y-43222783D01*
X122340045Y-43173000D01*
X122044250Y-43173000D01*
X121962500Y-43254750D01*
X121337500Y-43254750D01*
X121255750Y-43173000D01*
X120959955Y-43173000D01*
X120839769Y-43222783D01*
X120747783Y-43314770D01*
X120698000Y-43434956D01*
X120347404Y-43434956D01*
X120335231Y-43422783D01*
X120215045Y-43373000D01*
X119906750Y-43373000D01*
X119825000Y-43454750D01*
X119175000Y-43454750D01*
X119093250Y-43373000D01*
X118784955Y-43373000D01*
X118664769Y-43422783D01*
X118572783Y-43514770D01*
X118523000Y-43634956D01*
X118377000Y-43634956D01*
X118327217Y-43514770D01*
X118235231Y-43422783D01*
X118115045Y-43373000D01*
X117806750Y-43373000D01*
X117725000Y-43454750D01*
X117075000Y-43454750D01*
X116993250Y-43373000D01*
X116684955Y-43373000D01*
X116564769Y-43422783D01*
X116472783Y-43514770D01*
X116423000Y-43634956D01*
X116202000Y-43634956D01*
X116202000Y-43434956D01*
X116152217Y-43314770D01*
X116060231Y-43222783D01*
X115940045Y-43173000D01*
X115644250Y-43173000D01*
X115562500Y-43254750D01*
X114937500Y-43254750D01*
X114855750Y-43173000D01*
X114559955Y-43173000D01*
X114439769Y-43222783D01*
X114347783Y-43314770D01*
X114298000Y-43434956D01*
X113324656Y-43434956D01*
X113320363Y-40568850D01*
X114453652Y-40568850D01*
X114662914Y-40779854D01*
X115407373Y-40962796D01*
X116165173Y-40846920D01*
X116327086Y-40779854D01*
X116536348Y-40568850D01*
X121463652Y-40568850D01*
X121672914Y-40779854D01*
X122417373Y-40962796D01*
X123175173Y-40846920D01*
X123337086Y-40779854D01*
X123546348Y-40568850D01*
X122505000Y-39527502D01*
X121463652Y-40568850D01*
X116536348Y-40568850D01*
X115495000Y-39527502D01*
X114453652Y-40568850D01*
X113320363Y-40568850D01*
X113317881Y-38912373D01*
X113532204Y-38912373D01*
X113648080Y-39670173D01*
X113715146Y-39832086D01*
X113926150Y-40041348D01*
X114967498Y-39000000D01*
X116022502Y-39000000D01*
X117063850Y-40041348D01*
X117274854Y-39832086D01*
X117457796Y-39087627D01*
X117430998Y-38912373D01*
X120542204Y-38912373D01*
X120658080Y-39670173D01*
X120725146Y-39832086D01*
X120936150Y-40041348D01*
X121977498Y-39000000D01*
X123032502Y-39000000D01*
X124073850Y-40041348D01*
X124284854Y-39832086D01*
X124467796Y-39087627D01*
X124351920Y-38329827D01*
X124284854Y-38167914D01*
X124073850Y-37958652D01*
X123032502Y-39000000D01*
X121977498Y-39000000D01*
X120936150Y-37958652D01*
X120725146Y-38167914D01*
X120542204Y-38912373D01*
X117430998Y-38912373D01*
X117341920Y-38329827D01*
X117274854Y-38167914D01*
X117063850Y-37958652D01*
X116022502Y-39000000D01*
X114967498Y-39000000D01*
X113926150Y-37958652D01*
X113715146Y-38167914D01*
X113532204Y-38912373D01*
X113317881Y-38912373D01*
X113315662Y-37431150D01*
X114453652Y-37431150D01*
X115495000Y-38472498D01*
X116536348Y-37431150D01*
X121463652Y-37431150D01*
X122505000Y-38472498D01*
X123546348Y-37431150D01*
X123337086Y-37220146D01*
X122592627Y-37037204D01*
X121834827Y-37153080D01*
X121672914Y-37220146D01*
X121463652Y-37431150D01*
X116536348Y-37431150D01*
X116327086Y-37220146D01*
X115582627Y-37037204D01*
X114824827Y-37153080D01*
X114662914Y-37220146D01*
X114453652Y-37431150D01*
X113315662Y-37431150D01*
X113312872Y-35568850D01*
X114453652Y-35568850D01*
X114662914Y-35779854D01*
X115407373Y-35962796D01*
X116165173Y-35846920D01*
X116327086Y-35779854D01*
X116536348Y-35568850D01*
X121463652Y-35568850D01*
X121672914Y-35779854D01*
X122417373Y-35962796D01*
X123175173Y-35846920D01*
X123337086Y-35779854D01*
X123546348Y-35568850D01*
X122505000Y-34527502D01*
X121463652Y-35568850D01*
X116536348Y-35568850D01*
X115495000Y-34527502D01*
X114453652Y-35568850D01*
X113312872Y-35568850D01*
X113310390Y-33912373D01*
X113532204Y-33912373D01*
X113648080Y-34670173D01*
X113715146Y-34832086D01*
X113926150Y-35041348D01*
X114967498Y-34000000D01*
X116022502Y-34000000D01*
X117063850Y-35041348D01*
X117274854Y-34832086D01*
X117457796Y-34087627D01*
X117430998Y-33912373D01*
X120542204Y-33912373D01*
X120658080Y-34670173D01*
X120725146Y-34832086D01*
X120936150Y-35041348D01*
X121977498Y-34000000D01*
X123032502Y-34000000D01*
X124073850Y-35041348D01*
X124284854Y-34832086D01*
X124467796Y-34087627D01*
X124351920Y-33329827D01*
X124284854Y-33167914D01*
X124073850Y-32958652D01*
X123032502Y-34000000D01*
X121977498Y-34000000D01*
X120936150Y-32958652D01*
X120725146Y-33167914D01*
X120542204Y-33912373D01*
X117430998Y-33912373D01*
X117341920Y-33329827D01*
X117274854Y-33167914D01*
X117063850Y-32958652D01*
X116022502Y-34000000D01*
X114967498Y-34000000D01*
X113926150Y-32958652D01*
X113715146Y-33167914D01*
X113532204Y-33912373D01*
X113310390Y-33912373D01*
X113308531Y-32671630D01*
X113356278Y-32431150D01*
X114453652Y-32431150D01*
X115495000Y-33472498D01*
X116536348Y-32431150D01*
X121463652Y-32431150D01*
X122505000Y-33472498D01*
X123546348Y-32431150D01*
X123337086Y-32220146D01*
X122592627Y-32037204D01*
X121834827Y-32153080D01*
X121672914Y-32220146D01*
X121463652Y-32431150D01*
X116536348Y-32431150D01*
X116327086Y-32220146D01*
X115582627Y-32037204D01*
X114824827Y-32153080D01*
X114662914Y-32220146D01*
X114453652Y-32431150D01*
X113356278Y-32431150D01*
X113377557Y-32323980D01*
X113567899Y-32040313D01*
X113572903Y-32037000D01*
X127167798Y-32037000D01*
X127633178Y-32103647D01*
X127633178Y-32103647D01*
G37*
X127633178Y-32103647D02*
X128031533Y-32284769D01*
X128363041Y-32570415D01*
X128601054Y-32937623D01*
X128681512Y-33206656D01*
X128748000Y-42046257D01*
X128748000Y-43221118D01*
X128663118Y-43590629D01*
X128406436Y-43900089D01*
X128023956Y-44067105D01*
X127219201Y-44212207D01*
X127091870Y-44127127D01*
X126945439Y-44098000D01*
X126945434Y-44098000D01*
X126896000Y-44088167D01*
X126846566Y-44098000D01*
X123449433Y-44098000D01*
X123399999Y-44088167D01*
X123350565Y-44098000D01*
X123350561Y-44098000D01*
X123204130Y-44127127D01*
X123204129Y-44127128D01*
X123204128Y-44127128D01*
X123109046Y-44190660D01*
X123038079Y-44238079D01*
X123010074Y-44279991D01*
X122792066Y-44498000D01*
X122602000Y-44498000D01*
X122602000Y-44331750D01*
X122520250Y-44250000D01*
X121962500Y-44250000D01*
X121962500Y-44393000D01*
X121337500Y-44393000D01*
X121337500Y-44250000D01*
X120779750Y-44250000D01*
X120698000Y-44331750D01*
X120698000Y-44498000D01*
X120463349Y-44498000D01*
X120477000Y-44465044D01*
X120477000Y-44306750D01*
X120395250Y-44225000D01*
X119825000Y-44225000D01*
X119825000Y-44400000D01*
X119175000Y-44400000D01*
X119175000Y-44225000D01*
X118604750Y-44225000D01*
X118523000Y-44306750D01*
X118523000Y-44465044D01*
X118536651Y-44498000D01*
X118363349Y-44498000D01*
X118377000Y-44465044D01*
X118377000Y-44306750D01*
X118295250Y-44225000D01*
X117725000Y-44225000D01*
X117725000Y-44645250D01*
X117729968Y-44650218D01*
X117710075Y-44679991D01*
X117454825Y-44935241D01*
X114198132Y-44887591D01*
X113856869Y-44815223D01*
X113578915Y-44626029D01*
X113393387Y-44345614D01*
X113390637Y-44331750D01*
X114298000Y-44331750D01*
X114298000Y-44565044D01*
X114347783Y-44685230D01*
X114439769Y-44777217D01*
X114559955Y-44827000D01*
X114855750Y-44827000D01*
X114937500Y-44745250D01*
X114937500Y-44250000D01*
X115562500Y-44250000D01*
X115562500Y-44745250D01*
X115644250Y-44827000D01*
X115940045Y-44827000D01*
X116060231Y-44777217D01*
X116152217Y-44685230D01*
X116202000Y-44565044D01*
X116202000Y-44331750D01*
X116177000Y-44306750D01*
X116423000Y-44306750D01*
X116423000Y-44465044D01*
X116472783Y-44585230D01*
X116564769Y-44677217D01*
X116684955Y-44727000D01*
X116993250Y-44727000D01*
X117075000Y-44645250D01*
X117075000Y-44225000D01*
X116504750Y-44225000D01*
X116423000Y-44306750D01*
X116177000Y-44306750D01*
X116120250Y-44250000D01*
X115562500Y-44250000D01*
X114937500Y-44250000D01*
X114379750Y-44250000D01*
X114298000Y-44331750D01*
X113390637Y-44331750D01*
X113325507Y-44003430D01*
X113324656Y-43434956D01*
X114298000Y-43434956D01*
X114298000Y-43668250D01*
X114379750Y-43750000D01*
X114937500Y-43750000D01*
X114937500Y-43254750D01*
X115562500Y-43254750D01*
X115562500Y-43750000D01*
X116120250Y-43750000D01*
X116202000Y-43668250D01*
X116202000Y-43634956D01*
X116423000Y-43634956D01*
X116423000Y-43793250D01*
X116504750Y-43875000D01*
X117075000Y-43875000D01*
X117075000Y-43454750D01*
X117725000Y-43454750D01*
X117725000Y-43875000D01*
X118295250Y-43875000D01*
X118377000Y-43793250D01*
X118377000Y-43634956D01*
X118523000Y-43634956D01*
X118523000Y-43793250D01*
X118604750Y-43875000D01*
X119175000Y-43875000D01*
X119175000Y-43454750D01*
X119825000Y-43454750D01*
X119825000Y-43875000D01*
X120395250Y-43875000D01*
X120477000Y-43793250D01*
X120477000Y-43634956D01*
X120427217Y-43514770D01*
X120347404Y-43434956D01*
X120698000Y-43434956D01*
X120698000Y-43668250D01*
X120779750Y-43750000D01*
X121337500Y-43750000D01*
X121337500Y-43254750D01*
X121962500Y-43254750D01*
X121962500Y-43750000D01*
X122520250Y-43750000D01*
X122602000Y-43668250D01*
X122602000Y-43434956D01*
X122552217Y-43314770D01*
X122460231Y-43222783D01*
X122340045Y-43173000D01*
X122044250Y-43173000D01*
X121962500Y-43254750D01*
X121337500Y-43254750D01*
X121255750Y-43173000D01*
X120959955Y-43173000D01*
X120839769Y-43222783D01*
X120747783Y-43314770D01*
X120698000Y-43434956D01*
X120347404Y-43434956D01*
X120335231Y-43422783D01*
X120215045Y-43373000D01*
X119906750Y-43373000D01*
X119825000Y-43454750D01*
X119175000Y-43454750D01*
X119093250Y-43373000D01*
X118784955Y-43373000D01*
X118664769Y-43422783D01*
X118572783Y-43514770D01*
X118523000Y-43634956D01*
X118377000Y-43634956D01*
X118327217Y-43514770D01*
X118235231Y-43422783D01*
X118115045Y-43373000D01*
X117806750Y-43373000D01*
X117725000Y-43454750D01*
X117075000Y-43454750D01*
X116993250Y-43373000D01*
X116684955Y-43373000D01*
X116564769Y-43422783D01*
X116472783Y-43514770D01*
X116423000Y-43634956D01*
X116202000Y-43634956D01*
X116202000Y-43434956D01*
X116152217Y-43314770D01*
X116060231Y-43222783D01*
X115940045Y-43173000D01*
X115644250Y-43173000D01*
X115562500Y-43254750D01*
X114937500Y-43254750D01*
X114855750Y-43173000D01*
X114559955Y-43173000D01*
X114439769Y-43222783D01*
X114347783Y-43314770D01*
X114298000Y-43434956D01*
X113324656Y-43434956D01*
X113320363Y-40568850D01*
X114453652Y-40568850D01*
X114662914Y-40779854D01*
X115407373Y-40962796D01*
X116165173Y-40846920D01*
X116327086Y-40779854D01*
X116536348Y-40568850D01*
X121463652Y-40568850D01*
X121672914Y-40779854D01*
X122417373Y-40962796D01*
X123175173Y-40846920D01*
X123337086Y-40779854D01*
X123546348Y-40568850D01*
X122505000Y-39527502D01*
X121463652Y-40568850D01*
X116536348Y-40568850D01*
X115495000Y-39527502D01*
X114453652Y-40568850D01*
X113320363Y-40568850D01*
X113317881Y-38912373D01*
X113532204Y-38912373D01*
X113648080Y-39670173D01*
X113715146Y-39832086D01*
X113926150Y-40041348D01*
X114967498Y-39000000D01*
X116022502Y-39000000D01*
X117063850Y-40041348D01*
X117274854Y-39832086D01*
X117457796Y-39087627D01*
X117430998Y-38912373D01*
X120542204Y-38912373D01*
X120658080Y-39670173D01*
X120725146Y-39832086D01*
X120936150Y-40041348D01*
X121977498Y-39000000D01*
X123032502Y-39000000D01*
X124073850Y-40041348D01*
X124284854Y-39832086D01*
X124467796Y-39087627D01*
X124351920Y-38329827D01*
X124284854Y-38167914D01*
X124073850Y-37958652D01*
X123032502Y-39000000D01*
X121977498Y-39000000D01*
X120936150Y-37958652D01*
X120725146Y-38167914D01*
X120542204Y-38912373D01*
X117430998Y-38912373D01*
X117341920Y-38329827D01*
X117274854Y-38167914D01*
X117063850Y-37958652D01*
X116022502Y-39000000D01*
X114967498Y-39000000D01*
X113926150Y-37958652D01*
X113715146Y-38167914D01*
X113532204Y-38912373D01*
X113317881Y-38912373D01*
X113315662Y-37431150D01*
X114453652Y-37431150D01*
X115495000Y-38472498D01*
X116536348Y-37431150D01*
X121463652Y-37431150D01*
X122505000Y-38472498D01*
X123546348Y-37431150D01*
X123337086Y-37220146D01*
X122592627Y-37037204D01*
X121834827Y-37153080D01*
X121672914Y-37220146D01*
X121463652Y-37431150D01*
X116536348Y-37431150D01*
X116327086Y-37220146D01*
X115582627Y-37037204D01*
X114824827Y-37153080D01*
X114662914Y-37220146D01*
X114453652Y-37431150D01*
X113315662Y-37431150D01*
X113312872Y-35568850D01*
X114453652Y-35568850D01*
X114662914Y-35779854D01*
X115407373Y-35962796D01*
X116165173Y-35846920D01*
X116327086Y-35779854D01*
X116536348Y-35568850D01*
X121463652Y-35568850D01*
X121672914Y-35779854D01*
X122417373Y-35962796D01*
X123175173Y-35846920D01*
X123337086Y-35779854D01*
X123546348Y-35568850D01*
X122505000Y-34527502D01*
X121463652Y-35568850D01*
X116536348Y-35568850D01*
X115495000Y-34527502D01*
X114453652Y-35568850D01*
X113312872Y-35568850D01*
X113310390Y-33912373D01*
X113532204Y-33912373D01*
X113648080Y-34670173D01*
X113715146Y-34832086D01*
X113926150Y-35041348D01*
X114967498Y-34000000D01*
X116022502Y-34000000D01*
X117063850Y-35041348D01*
X117274854Y-34832086D01*
X117457796Y-34087627D01*
X117430998Y-33912373D01*
X120542204Y-33912373D01*
X120658080Y-34670173D01*
X120725146Y-34832086D01*
X120936150Y-35041348D01*
X121977498Y-34000000D01*
X123032502Y-34000000D01*
X124073850Y-35041348D01*
X124284854Y-34832086D01*
X124467796Y-34087627D01*
X124351920Y-33329827D01*
X124284854Y-33167914D01*
X124073850Y-32958652D01*
X123032502Y-34000000D01*
X121977498Y-34000000D01*
X120936150Y-32958652D01*
X120725146Y-33167914D01*
X120542204Y-33912373D01*
X117430998Y-33912373D01*
X117341920Y-33329827D01*
X117274854Y-33167914D01*
X117063850Y-32958652D01*
X116022502Y-34000000D01*
X114967498Y-34000000D01*
X113926150Y-32958652D01*
X113715146Y-33167914D01*
X113532204Y-33912373D01*
X113310390Y-33912373D01*
X113308531Y-32671630D01*
X113356278Y-32431150D01*
X114453652Y-32431150D01*
X115495000Y-33472498D01*
X116536348Y-32431150D01*
X121463652Y-32431150D01*
X122505000Y-33472498D01*
X123546348Y-32431150D01*
X123337086Y-32220146D01*
X122592627Y-32037204D01*
X121834827Y-32153080D01*
X121672914Y-32220146D01*
X121463652Y-32431150D01*
X116536348Y-32431150D01*
X116327086Y-32220146D01*
X115582627Y-32037204D01*
X114824827Y-32153080D01*
X114662914Y-32220146D01*
X114453652Y-32431150D01*
X113356278Y-32431150D01*
X113377557Y-32323980D01*
X113567899Y-32040313D01*
X113572903Y-32037000D01*
X127167798Y-32037000D01*
X127633178Y-32103647D01*
G04 #@! TO.N,/5V*
G36*
X95219775Y-59507511D02*
X95593236Y-59738212D01*
X96292439Y-60373852D01*
X96304610Y-60383622D01*
X96705394Y-60666638D01*
X96732856Y-60681352D01*
X97190485Y-60858275D01*
X97220703Y-60865860D01*
X97707636Y-60926041D01*
X97723214Y-60927000D01*
X97740838Y-60927000D01*
X98206381Y-60994520D01*
X98625154Y-61187639D01*
X98978767Y-61497877D01*
X99878777Y-62552174D01*
X99898699Y-62570964D01*
X100269284Y-62851596D01*
X100318729Y-62874398D01*
X100769937Y-62973425D01*
X100984259Y-63030852D01*
X101119148Y-63165741D01*
X101171936Y-63362750D01*
X101115855Y-63577333D01*
X100970738Y-63727925D01*
X100754351Y-63793122D01*
X98705386Y-63869010D01*
X98498943Y-63865641D01*
X95343272Y-63645478D01*
X94981627Y-63550318D01*
X94738982Y-63372440D01*
X95330000Y-63372440D01*
X95577765Y-63323157D01*
X95787809Y-63182809D01*
X95928157Y-62972765D01*
X95977440Y-62725000D01*
X95977440Y-62075000D01*
X95928157Y-61827235D01*
X95787809Y-61617191D01*
X95577765Y-61476843D01*
X95330000Y-61427560D01*
X94427000Y-61427560D01*
X94427000Y-59816721D01*
X94480852Y-59615741D01*
X94615741Y-59480852D01*
X94805035Y-59430131D01*
X95219775Y-59507511D01*
X95219775Y-59507511D01*
G37*
X95219775Y-59507511D02*
X95593236Y-59738212D01*
X96292439Y-60373852D01*
X96304610Y-60383622D01*
X96705394Y-60666638D01*
X96732856Y-60681352D01*
X97190485Y-60858275D01*
X97220703Y-60865860D01*
X97707636Y-60926041D01*
X97723214Y-60927000D01*
X97740838Y-60927000D01*
X98206381Y-60994520D01*
X98625154Y-61187639D01*
X98978767Y-61497877D01*
X99878777Y-62552174D01*
X99898699Y-62570964D01*
X100269284Y-62851596D01*
X100318729Y-62874398D01*
X100769937Y-62973425D01*
X100984259Y-63030852D01*
X101119148Y-63165741D01*
X101171936Y-63362750D01*
X101115855Y-63577333D01*
X100970738Y-63727925D01*
X100754351Y-63793122D01*
X98705386Y-63869010D01*
X98498943Y-63865641D01*
X95343272Y-63645478D01*
X94981627Y-63550318D01*
X94738982Y-63372440D01*
X95330000Y-63372440D01*
X95577765Y-63323157D01*
X95787809Y-63182809D01*
X95928157Y-62972765D01*
X95977440Y-62725000D01*
X95977440Y-62075000D01*
X95928157Y-61827235D01*
X95787809Y-61617191D01*
X95577765Y-61476843D01*
X95330000Y-61427560D01*
X94427000Y-61427560D01*
X94427000Y-59816721D01*
X94480852Y-59615741D01*
X94615741Y-59480852D01*
X94805035Y-59430131D01*
X95219775Y-59507511D01*
G04 #@! TO.N,Net-(D1-Pad2)*
G36*
X79226193Y-56220940D02*
X79401846Y-56239248D01*
X79564630Y-56289504D01*
X79714538Y-56370436D01*
X79845858Y-56478959D01*
X79953585Y-56610936D01*
X80033610Y-56761336D01*
X80082878Y-56924414D01*
X80100121Y-57100175D01*
X80100121Y-58908270D01*
X80089822Y-58946680D01*
X80073942Y-58962544D01*
X80035517Y-58972805D01*
X71359037Y-58964003D01*
X71256000Y-58953863D01*
X71256000Y-56181882D01*
X71348241Y-56173230D01*
X79226193Y-56220940D01*
X79226193Y-56220940D01*
G37*
X79226193Y-56220940D02*
X79401846Y-56239248D01*
X79564630Y-56289504D01*
X79714538Y-56370436D01*
X79845858Y-56478959D01*
X79953585Y-56610936D01*
X80033610Y-56761336D01*
X80082878Y-56924414D01*
X80100121Y-57100175D01*
X80100121Y-58908270D01*
X80089822Y-58946680D01*
X80073942Y-58962544D01*
X80035517Y-58972805D01*
X71359037Y-58964003D01*
X71256000Y-58953863D01*
X71256000Y-56181882D01*
X71348241Y-56173230D01*
X79226193Y-56220940D01*
G04 #@! TO.N,/+48V*
G36*
X84396097Y-56126221D02*
X84572250Y-56143682D01*
X84735638Y-56193303D01*
X84886224Y-56273795D01*
X85018253Y-56382085D01*
X85126656Y-56514016D01*
X85207283Y-56664534D01*
X85257046Y-56827874D01*
X85274661Y-57004013D01*
X85278783Y-59495078D01*
X85278784Y-59497226D01*
X85273632Y-67694570D01*
X85256163Y-67870893D01*
X85229392Y-67959000D01*
X72822306Y-67959000D01*
X72500526Y-67927449D01*
X72212460Y-67840477D01*
X71946773Y-67699208D01*
X71713583Y-67509022D01*
X71521778Y-67277169D01*
X71378660Y-67012478D01*
X71289678Y-66725025D01*
X71256000Y-66404598D01*
X71256000Y-59464316D01*
X71315427Y-59470165D01*
X71352356Y-59471997D01*
X80051734Y-59480822D01*
X80150418Y-59467924D01*
X80237904Y-59444562D01*
X80408878Y-59346004D01*
X80472941Y-59282006D01*
X80571671Y-59111133D01*
X80595122Y-59023671D01*
X80608121Y-58925000D01*
X80608121Y-57325615D01*
X80644566Y-57257430D01*
X80673181Y-57163100D01*
X80682843Y-57065000D01*
X80682843Y-56601288D01*
X80730566Y-56512057D01*
X80839156Y-56379830D01*
X80971463Y-56271345D01*
X81122407Y-56190768D01*
X81286176Y-56141202D01*
X81462700Y-56123945D01*
X84396097Y-56126221D01*
X84396097Y-56126221D01*
G37*
X84396097Y-56126221D02*
X84572250Y-56143682D01*
X84735638Y-56193303D01*
X84886224Y-56273795D01*
X85018253Y-56382085D01*
X85126656Y-56514016D01*
X85207283Y-56664534D01*
X85257046Y-56827874D01*
X85274661Y-57004013D01*
X85278783Y-59495078D01*
X85278784Y-59497226D01*
X85273632Y-67694570D01*
X85256163Y-67870893D01*
X85229392Y-67959000D01*
X72822306Y-67959000D01*
X72500526Y-67927449D01*
X72212460Y-67840477D01*
X71946773Y-67699208D01*
X71713583Y-67509022D01*
X71521778Y-67277169D01*
X71378660Y-67012478D01*
X71289678Y-66725025D01*
X71256000Y-66404598D01*
X71256000Y-59464316D01*
X71315427Y-59470165D01*
X71352356Y-59471997D01*
X80051734Y-59480822D01*
X80150418Y-59467924D01*
X80237904Y-59444562D01*
X80408878Y-59346004D01*
X80472941Y-59282006D01*
X80571671Y-59111133D01*
X80595122Y-59023671D01*
X80608121Y-58925000D01*
X80608121Y-57325615D01*
X80644566Y-57257430D01*
X80673181Y-57163100D01*
X80682843Y-57065000D01*
X80682843Y-56601288D01*
X80730566Y-56512057D01*
X80839156Y-56379830D01*
X80971463Y-56271345D01*
X81122407Y-56190768D01*
X81286176Y-56141202D01*
X81462700Y-56123945D01*
X84396097Y-56126221D01*
G04 #@! TO.N,Net-(J1-Pad1)*
G36*
X86838083Y-31995235D02*
X87119843Y-32182544D01*
X87308909Y-32463126D01*
X87379272Y-32807043D01*
X87466656Y-46832236D01*
X87399549Y-47179545D01*
X87211266Y-47463772D01*
X86928265Y-47653884D01*
X86581397Y-47723234D01*
X79214404Y-47724924D01*
X78935481Y-47680872D01*
X78891790Y-47658658D01*
X79106919Y-47512821D01*
X79211157Y-47406705D01*
X79426687Y-47076216D01*
X79481765Y-46938040D01*
X79552684Y-46549909D01*
X79558764Y-46475415D01*
X79519942Y-44301368D01*
X79511303Y-44227581D01*
X79427539Y-43844433D01*
X79368248Y-43708984D01*
X79143575Y-43387518D01*
X79036751Y-43285287D01*
X78705726Y-43074950D01*
X78649961Y-43053406D01*
X78850000Y-43053406D01*
X78977589Y-43028027D01*
X79085754Y-42955754D01*
X79158027Y-42847589D01*
X79174674Y-42763899D01*
X79223000Y-42812225D01*
X79223000Y-42924718D01*
X79318455Y-43155167D01*
X79494833Y-43331545D01*
X79725282Y-43427000D01*
X79974718Y-43427000D01*
X80205167Y-43331545D01*
X80381545Y-43155167D01*
X80477000Y-42924718D01*
X80477000Y-42675282D01*
X80381545Y-42444833D01*
X80205167Y-42268455D01*
X79974718Y-42173000D01*
X79862225Y-42173000D01*
X79521093Y-41831869D01*
X79495874Y-41794126D01*
X79346362Y-41694225D01*
X79214518Y-41668000D01*
X79183406Y-41661812D01*
X79183406Y-41520000D01*
X79158027Y-41392411D01*
X79085754Y-41284246D01*
X78977589Y-41211973D01*
X78850000Y-41186594D01*
X76650000Y-41186594D01*
X76559307Y-41204634D01*
X76524208Y-41034940D01*
X76467343Y-40900150D01*
X76250005Y-40578676D01*
X76146111Y-40475681D01*
X75822759Y-40261146D01*
X75687479Y-40205455D01*
X75306805Y-40130164D01*
X75233658Y-40123000D01*
X71353578Y-40123000D01*
X71279863Y-40130277D01*
X71202000Y-40145801D01*
X71202000Y-33613639D01*
X71270167Y-33137646D01*
X71457217Y-32726254D01*
X71752212Y-32383895D01*
X72131437Y-32138094D01*
X72577721Y-32004627D01*
X72814921Y-31987000D01*
X86796509Y-31987000D01*
X86838083Y-31995235D01*
X86838083Y-31995235D01*
G37*
X86838083Y-31995235D02*
X87119843Y-32182544D01*
X87308909Y-32463126D01*
X87379272Y-32807043D01*
X87466656Y-46832236D01*
X87399549Y-47179545D01*
X87211266Y-47463772D01*
X86928265Y-47653884D01*
X86581397Y-47723234D01*
X79214404Y-47724924D01*
X78935481Y-47680872D01*
X78891790Y-47658658D01*
X79106919Y-47512821D01*
X79211157Y-47406705D01*
X79426687Y-47076216D01*
X79481765Y-46938040D01*
X79552684Y-46549909D01*
X79558764Y-46475415D01*
X79519942Y-44301368D01*
X79511303Y-44227581D01*
X79427539Y-43844433D01*
X79368248Y-43708984D01*
X79143575Y-43387518D01*
X79036751Y-43285287D01*
X78705726Y-43074950D01*
X78649961Y-43053406D01*
X78850000Y-43053406D01*
X78977589Y-43028027D01*
X79085754Y-42955754D01*
X79158027Y-42847589D01*
X79174674Y-42763899D01*
X79223000Y-42812225D01*
X79223000Y-42924718D01*
X79318455Y-43155167D01*
X79494833Y-43331545D01*
X79725282Y-43427000D01*
X79974718Y-43427000D01*
X80205167Y-43331545D01*
X80381545Y-43155167D01*
X80477000Y-42924718D01*
X80477000Y-42675282D01*
X80381545Y-42444833D01*
X80205167Y-42268455D01*
X79974718Y-42173000D01*
X79862225Y-42173000D01*
X79521093Y-41831869D01*
X79495874Y-41794126D01*
X79346362Y-41694225D01*
X79214518Y-41668000D01*
X79183406Y-41661812D01*
X79183406Y-41520000D01*
X79158027Y-41392411D01*
X79085754Y-41284246D01*
X78977589Y-41211973D01*
X78850000Y-41186594D01*
X76650000Y-41186594D01*
X76559307Y-41204634D01*
X76524208Y-41034940D01*
X76467343Y-40900150D01*
X76250005Y-40578676D01*
X76146111Y-40475681D01*
X75822759Y-40261146D01*
X75687479Y-40205455D01*
X75306805Y-40130164D01*
X75233658Y-40123000D01*
X71353578Y-40123000D01*
X71279863Y-40130277D01*
X71202000Y-40145801D01*
X71202000Y-33613639D01*
X71270167Y-33137646D01*
X71457217Y-32726254D01*
X71752212Y-32383895D01*
X72131437Y-32138094D01*
X72577721Y-32004627D01*
X72814921Y-31987000D01*
X86796509Y-31987000D01*
X86838083Y-31995235D01*
G04 #@! TO.N,+3V3*
G36*
X85120258Y-53101614D02*
X85276985Y-53126156D01*
X85421714Y-53175882D01*
X85555532Y-53250134D01*
X85678669Y-53350159D01*
X88403169Y-55992100D01*
X88519701Y-56130260D01*
X88603364Y-56283226D01*
X88654939Y-56449779D01*
X88673000Y-56629612D01*
X88673000Y-62400000D01*
X88675440Y-62424776D01*
X88698276Y-62539581D01*
X88705503Y-62563406D01*
X88717239Y-62585363D01*
X88782271Y-62682690D01*
X88798066Y-62701935D01*
X88817310Y-62717729D01*
X88914637Y-62782761D01*
X88936594Y-62794497D01*
X88960419Y-62801724D01*
X89075224Y-62824560D01*
X89100000Y-62827000D01*
X89386010Y-62827000D01*
X89410647Y-62827324D01*
X92240856Y-62901804D01*
X92409150Y-62922581D01*
X92564474Y-62973348D01*
X92707176Y-63052975D01*
X92831942Y-63158497D01*
X92934150Y-63286002D01*
X93009992Y-63430743D01*
X93056656Y-63587350D01*
X93072407Y-63750011D01*
X93056664Y-63912873D01*
X93010016Y-64069714D01*
X92934193Y-64214712D01*
X92831997Y-64342508D01*
X92707213Y-64448366D01*
X92564476Y-64528356D01*
X92409050Y-64579530D01*
X92240598Y-64600755D01*
X87345406Y-64742645D01*
X87163855Y-64729580D01*
X86994786Y-64682159D01*
X86838641Y-64601840D01*
X86701745Y-64491880D01*
X86589644Y-64356734D01*
X86506876Y-64201869D01*
X86456798Y-64033568D01*
X86440877Y-63852243D01*
X86534404Y-56784874D01*
X86533891Y-56771668D01*
X86515031Y-56564696D01*
X86509917Y-56538802D01*
X86448683Y-56340199D01*
X86438328Y-56315921D01*
X86337364Y-56134263D01*
X86322213Y-56112650D01*
X86185880Y-55955786D01*
X86166590Y-55937771D01*
X86000777Y-55812475D01*
X85989833Y-55805068D01*
X83778809Y-54470675D01*
X83753436Y-54445302D01*
X83634364Y-54365741D01*
X83540553Y-54326883D01*
X83259996Y-54157562D01*
X83115205Y-54049032D01*
X82999166Y-53918621D01*
X82911419Y-53767724D01*
X82855471Y-53602383D01*
X82832756Y-53422846D01*
X82832184Y-53400565D01*
X82845811Y-53280511D01*
X82888394Y-53177021D01*
X82957688Y-53089137D01*
X83048390Y-53023588D01*
X83153578Y-52985373D01*
X83274091Y-52976784D01*
X85120258Y-53101614D01*
X85120258Y-53101614D01*
G37*
X85120258Y-53101614D02*
X85276985Y-53126156D01*
X85421714Y-53175882D01*
X85555532Y-53250134D01*
X85678669Y-53350159D01*
X88403169Y-55992100D01*
X88519701Y-56130260D01*
X88603364Y-56283226D01*
X88654939Y-56449779D01*
X88673000Y-56629612D01*
X88673000Y-62400000D01*
X88675440Y-62424776D01*
X88698276Y-62539581D01*
X88705503Y-62563406D01*
X88717239Y-62585363D01*
X88782271Y-62682690D01*
X88798066Y-62701935D01*
X88817310Y-62717729D01*
X88914637Y-62782761D01*
X88936594Y-62794497D01*
X88960419Y-62801724D01*
X89075224Y-62824560D01*
X89100000Y-62827000D01*
X89386010Y-62827000D01*
X89410647Y-62827324D01*
X92240856Y-62901804D01*
X92409150Y-62922581D01*
X92564474Y-62973348D01*
X92707176Y-63052975D01*
X92831942Y-63158497D01*
X92934150Y-63286002D01*
X93009992Y-63430743D01*
X93056656Y-63587350D01*
X93072407Y-63750011D01*
X93056664Y-63912873D01*
X93010016Y-64069714D01*
X92934193Y-64214712D01*
X92831997Y-64342508D01*
X92707213Y-64448366D01*
X92564476Y-64528356D01*
X92409050Y-64579530D01*
X92240598Y-64600755D01*
X87345406Y-64742645D01*
X87163855Y-64729580D01*
X86994786Y-64682159D01*
X86838641Y-64601840D01*
X86701745Y-64491880D01*
X86589644Y-64356734D01*
X86506876Y-64201869D01*
X86456798Y-64033568D01*
X86440877Y-63852243D01*
X86534404Y-56784874D01*
X86533891Y-56771668D01*
X86515031Y-56564696D01*
X86509917Y-56538802D01*
X86448683Y-56340199D01*
X86438328Y-56315921D01*
X86337364Y-56134263D01*
X86322213Y-56112650D01*
X86185880Y-55955786D01*
X86166590Y-55937771D01*
X86000777Y-55812475D01*
X85989833Y-55805068D01*
X83778809Y-54470675D01*
X83753436Y-54445302D01*
X83634364Y-54365741D01*
X83540553Y-54326883D01*
X83259996Y-54157562D01*
X83115205Y-54049032D01*
X82999166Y-53918621D01*
X82911419Y-53767724D01*
X82855471Y-53602383D01*
X82832756Y-53422846D01*
X82832184Y-53400565D01*
X82845811Y-53280511D01*
X82888394Y-53177021D01*
X82957688Y-53089137D01*
X83048390Y-53023588D01*
X83153578Y-52985373D01*
X83274091Y-52976784D01*
X85120258Y-53101614D01*
G04 #@! TO.N,+12V*
G36*
X111666504Y-38646385D02*
X111927593Y-38703181D01*
X112177940Y-38796556D01*
X112412445Y-38924605D01*
X112626338Y-39084724D01*
X112814419Y-39272805D01*
X112821526Y-44016566D01*
X112828732Y-44089358D01*
X112903884Y-44468201D01*
X112959264Y-44602866D01*
X113172376Y-44924973D01*
X113273000Y-45026927D01*
X113273000Y-53400000D01*
X113273324Y-53409060D01*
X113293681Y-53693690D01*
X113296259Y-53711626D01*
X113356916Y-53990461D01*
X113362021Y-54007847D01*
X113461743Y-54275212D01*
X113469271Y-54291695D01*
X113606028Y-54542147D01*
X113615824Y-54557390D01*
X113786832Y-54785829D01*
X113798698Y-54799524D01*
X114000476Y-55001302D01*
X114014171Y-55013168D01*
X114242610Y-55184176D01*
X114257853Y-55193972D01*
X114508305Y-55330729D01*
X114524788Y-55338257D01*
X114792153Y-55437979D01*
X114809539Y-55443084D01*
X115088374Y-55503741D01*
X115106310Y-55506319D01*
X115390940Y-55526676D01*
X115400000Y-55527000D01*
X119148000Y-55527000D01*
X119148000Y-55543250D01*
X119229750Y-55625000D01*
X119775000Y-55625000D01*
X119775000Y-55532000D01*
X120375000Y-55532000D01*
X120375000Y-55625000D01*
X120920250Y-55625000D01*
X121002000Y-55543250D01*
X121002000Y-55527000D01*
X126894428Y-55527000D01*
X126911431Y-55568048D01*
X126996464Y-55695309D01*
X127104691Y-55803536D01*
X127231952Y-55888569D01*
X127373357Y-55947141D01*
X127523472Y-55977000D01*
X127676528Y-55977000D01*
X127826643Y-55947141D01*
X127968048Y-55888569D01*
X128095309Y-55803536D01*
X128203536Y-55695309D01*
X128257612Y-55614378D01*
X128477940Y-55696556D01*
X128712445Y-55824605D01*
X128748001Y-55851222D01*
X128748001Y-66392880D01*
X128716392Y-66715254D01*
X128629194Y-67004071D01*
X128487556Y-67270451D01*
X128296876Y-67504248D01*
X128064417Y-67696554D01*
X127799036Y-67840045D01*
X127510833Y-67929259D01*
X127189807Y-67963000D01*
X106962450Y-67963000D01*
X106924605Y-67912445D01*
X106796556Y-67677940D01*
X106748216Y-67548335D01*
X114474166Y-67548335D01*
X114679937Y-67756423D01*
X115038260Y-67881685D01*
X115414135Y-67934634D01*
X115793117Y-67913236D01*
X116160643Y-67818314D01*
X116310063Y-67756423D01*
X116515834Y-67548335D01*
X121484166Y-67548335D01*
X121689937Y-67756423D01*
X122048260Y-67881685D01*
X122424135Y-67934634D01*
X122803117Y-67913236D01*
X123170643Y-67818314D01*
X123320063Y-67756423D01*
X123525834Y-67548335D01*
X122505000Y-66527502D01*
X121484166Y-67548335D01*
X116515834Y-67548335D01*
X115495000Y-66527502D01*
X114474166Y-67548335D01*
X106748216Y-67548335D01*
X106703181Y-67427593D01*
X106646385Y-67166504D01*
X106606319Y-66606310D01*
X106603741Y-66588374D01*
X106543084Y-66309539D01*
X106537979Y-66292153D01*
X106446803Y-66047700D01*
X106474988Y-65994970D01*
X106496545Y-65923905D01*
X106497014Y-65919135D01*
X113560366Y-65919135D01*
X113581764Y-66298117D01*
X113676686Y-66665643D01*
X113738577Y-66815063D01*
X113946665Y-67020834D01*
X114967498Y-66000000D01*
X116022502Y-66000000D01*
X117043335Y-67020834D01*
X117251423Y-66815063D01*
X117376685Y-66456740D01*
X117429634Y-66080865D01*
X117420503Y-65919135D01*
X120570366Y-65919135D01*
X120591764Y-66298117D01*
X120686686Y-66665643D01*
X120748577Y-66815063D01*
X120956665Y-67020834D01*
X121977498Y-66000000D01*
X123032502Y-66000000D01*
X124053335Y-67020834D01*
X124261423Y-66815063D01*
X124386685Y-66456740D01*
X124439634Y-66080865D01*
X124418236Y-65701883D01*
X124323314Y-65334357D01*
X124261423Y-65184937D01*
X124053335Y-64979166D01*
X123032502Y-66000000D01*
X121977498Y-66000000D01*
X120956665Y-64979166D01*
X120748577Y-65184937D01*
X120623315Y-65543260D01*
X120570366Y-65919135D01*
X117420503Y-65919135D01*
X117408236Y-65701883D01*
X117313314Y-65334357D01*
X117251423Y-65184937D01*
X117043335Y-64979166D01*
X116022502Y-66000000D01*
X114967498Y-66000000D01*
X113946665Y-64979166D01*
X113738577Y-65184937D01*
X113613315Y-65543260D01*
X113560366Y-65919135D01*
X106497014Y-65919135D01*
X106503824Y-65850000D01*
X106503824Y-64850000D01*
X106496545Y-64776095D01*
X106474988Y-64705030D01*
X106439981Y-64639537D01*
X106392869Y-64582131D01*
X106335463Y-64535019D01*
X106269970Y-64500012D01*
X106198905Y-64478455D01*
X106125000Y-64471176D01*
X104875000Y-64471176D01*
X104801095Y-64478455D01*
X104730030Y-64500012D01*
X104664537Y-64535019D01*
X104607131Y-64582131D01*
X104560019Y-64639537D01*
X104525012Y-64705030D01*
X104504397Y-64772990D01*
X104233496Y-64753615D01*
X103972407Y-64696819D01*
X103722060Y-64603444D01*
X103487555Y-64475395D01*
X103455856Y-64451665D01*
X114474166Y-64451665D01*
X115495000Y-65472498D01*
X116515834Y-64451665D01*
X121484166Y-64451665D01*
X122505000Y-65472498D01*
X123525834Y-64451665D01*
X123320063Y-64243577D01*
X122961740Y-64118315D01*
X122585865Y-64065366D01*
X122206883Y-64086764D01*
X121839357Y-64181686D01*
X121689937Y-64243577D01*
X121484166Y-64451665D01*
X116515834Y-64451665D01*
X116310063Y-64243577D01*
X115951740Y-64118315D01*
X115575865Y-64065366D01*
X115196883Y-64086764D01*
X114829357Y-64181686D01*
X114679937Y-64243577D01*
X114474166Y-64451665D01*
X103455856Y-64451665D01*
X103273662Y-64315276D01*
X103084724Y-64126338D01*
X102924605Y-63912445D01*
X102796556Y-63677940D01*
X102735000Y-63512903D01*
X102735000Y-63312500D01*
X103265000Y-63312500D01*
X103265000Y-63720250D01*
X103346750Y-63802000D01*
X103562207Y-63802000D01*
X103625383Y-63789434D01*
X103684893Y-63764784D01*
X103738451Y-63728997D01*
X103783998Y-63683450D01*
X103785133Y-63681750D01*
X104548000Y-63681750D01*
X104548000Y-63882207D01*
X104560566Y-63945383D01*
X104585216Y-64004893D01*
X104621003Y-64058451D01*
X104666550Y-64103998D01*
X104720108Y-64139784D01*
X104779618Y-64164434D01*
X104842794Y-64177000D01*
X105105750Y-64177000D01*
X105187500Y-64095250D01*
X105187500Y-63600000D01*
X105812500Y-63600000D01*
X105812500Y-64095250D01*
X105894250Y-64177000D01*
X106157206Y-64177000D01*
X106220382Y-64164434D01*
X106279892Y-64139784D01*
X106333450Y-64103998D01*
X106378997Y-64058451D01*
X106414784Y-64004893D01*
X106439434Y-63945383D01*
X106452000Y-63882207D01*
X106452000Y-63681750D01*
X106370250Y-63600000D01*
X105812500Y-63600000D01*
X105187500Y-63600000D01*
X104629750Y-63600000D01*
X104548000Y-63681750D01*
X103785133Y-63681750D01*
X103819784Y-63629892D01*
X103844434Y-63570382D01*
X103857000Y-63507206D01*
X103857000Y-63394250D01*
X103775250Y-63312500D01*
X103265000Y-63312500D01*
X102735000Y-63312500D01*
X102678144Y-63312500D01*
X102646385Y-63166504D01*
X102633582Y-62987500D01*
X102735000Y-62987500D01*
X102735000Y-62903824D01*
X103265000Y-62903824D01*
X103265000Y-62987500D01*
X103775250Y-62987500D01*
X103857000Y-62905750D01*
X103857000Y-62817793D01*
X104548000Y-62817793D01*
X104548000Y-63018250D01*
X104629750Y-63100000D01*
X105187500Y-63100000D01*
X105187500Y-62604750D01*
X105812500Y-62604750D01*
X105812500Y-63100000D01*
X106370250Y-63100000D01*
X106452000Y-63018250D01*
X106452000Y-62817793D01*
X106439434Y-62754617D01*
X106414784Y-62695107D01*
X106378997Y-62641549D01*
X106333450Y-62596002D01*
X106279892Y-62560216D01*
X106251209Y-62548335D01*
X114474166Y-62548335D01*
X114679937Y-62756423D01*
X115038260Y-62881685D01*
X115414135Y-62934634D01*
X115793117Y-62913236D01*
X116160643Y-62818314D01*
X116310063Y-62756423D01*
X116515834Y-62548335D01*
X121484166Y-62548335D01*
X121689937Y-62756423D01*
X122048260Y-62881685D01*
X122424135Y-62934634D01*
X122803117Y-62913236D01*
X123170643Y-62818314D01*
X123320063Y-62756423D01*
X123525834Y-62548335D01*
X122505000Y-61527502D01*
X121484166Y-62548335D01*
X116515834Y-62548335D01*
X115495000Y-61527502D01*
X114474166Y-62548335D01*
X106251209Y-62548335D01*
X106220382Y-62535566D01*
X106157206Y-62523000D01*
X105894250Y-62523000D01*
X105812500Y-62604750D01*
X105187500Y-62604750D01*
X105105750Y-62523000D01*
X104842794Y-62523000D01*
X104779618Y-62535566D01*
X104720108Y-62560216D01*
X104666550Y-62596002D01*
X104621003Y-62641549D01*
X104585216Y-62695107D01*
X104560566Y-62754617D01*
X104548000Y-62817793D01*
X103857000Y-62817793D01*
X103857000Y-62792794D01*
X103845430Y-62734624D01*
X103879988Y-62669970D01*
X103901545Y-62598905D01*
X103908824Y-62525000D01*
X103908824Y-61875000D01*
X103901545Y-61801095D01*
X103879988Y-61730030D01*
X103845430Y-61665376D01*
X103857000Y-61607206D01*
X103857000Y-61494250D01*
X103775250Y-61412500D01*
X103265000Y-61412500D01*
X103265000Y-61496176D01*
X102735000Y-61496176D01*
X102735000Y-61412500D01*
X102627000Y-61412500D01*
X102627000Y-61087500D01*
X102735000Y-61087500D01*
X102735000Y-60679750D01*
X103265000Y-60679750D01*
X103265000Y-61087500D01*
X103775250Y-61087500D01*
X103857000Y-61005750D01*
X103857000Y-60919135D01*
X113560366Y-60919135D01*
X113581764Y-61298117D01*
X113676686Y-61665643D01*
X113738577Y-61815063D01*
X113946665Y-62020834D01*
X114967498Y-61000000D01*
X116022502Y-61000000D01*
X117043335Y-62020834D01*
X117251423Y-61815063D01*
X117376685Y-61456740D01*
X117429634Y-61080865D01*
X117420503Y-60919135D01*
X120570366Y-60919135D01*
X120591764Y-61298117D01*
X120686686Y-61665643D01*
X120748577Y-61815063D01*
X120956665Y-62020834D01*
X121977498Y-61000000D01*
X123032502Y-61000000D01*
X124053335Y-62020834D01*
X124261423Y-61815063D01*
X124386685Y-61456740D01*
X124439634Y-61080865D01*
X124418236Y-60701883D01*
X124323314Y-60334357D01*
X124261423Y-60184937D01*
X124053335Y-59979166D01*
X123032502Y-61000000D01*
X121977498Y-61000000D01*
X120956665Y-59979166D01*
X120748577Y-60184937D01*
X120623315Y-60543260D01*
X120570366Y-60919135D01*
X117420503Y-60919135D01*
X117408236Y-60701883D01*
X117313314Y-60334357D01*
X117251423Y-60184937D01*
X117043335Y-59979166D01*
X116022502Y-61000000D01*
X114967498Y-61000000D01*
X113946665Y-59979166D01*
X113738577Y-60184937D01*
X113613315Y-60543260D01*
X113560366Y-60919135D01*
X103857000Y-60919135D01*
X103857000Y-60892794D01*
X103844434Y-60829618D01*
X103819784Y-60770108D01*
X103783998Y-60716550D01*
X103738451Y-60671003D01*
X103684893Y-60635216D01*
X103625383Y-60610566D01*
X103562207Y-60598000D01*
X103346750Y-60598000D01*
X103265000Y-60679750D01*
X102735000Y-60679750D01*
X102653250Y-60598000D01*
X102638228Y-60598000D01*
X102645803Y-60490453D01*
X102700906Y-60233130D01*
X102791529Y-59986084D01*
X102915892Y-59754173D01*
X103071535Y-59541983D01*
X103159727Y-59451665D01*
X114474166Y-59451665D01*
X115495000Y-60472498D01*
X116515834Y-59451665D01*
X121484166Y-59451665D01*
X122505000Y-60472498D01*
X123525834Y-59451665D01*
X123320063Y-59243577D01*
X122961740Y-59118315D01*
X122585865Y-59065366D01*
X122206883Y-59086764D01*
X121839357Y-59181686D01*
X121689937Y-59243577D01*
X121484166Y-59451665D01*
X116515834Y-59451665D01*
X116310063Y-59243577D01*
X115951740Y-59118315D01*
X115575865Y-59065366D01*
X115196883Y-59086764D01*
X114829357Y-59181686D01*
X114679937Y-59243577D01*
X114474166Y-59451665D01*
X103159727Y-59451665D01*
X103255377Y-59353711D01*
X103463800Y-59193064D01*
X103692689Y-59063215D01*
X103937511Y-58966735D01*
X104193436Y-58905526D01*
X104459885Y-58880372D01*
X104750629Y-58873450D01*
X104759542Y-58872924D01*
X105039337Y-58846510D01*
X105056942Y-58843588D01*
X105330273Y-58778216D01*
X105347295Y-58772856D01*
X105608763Y-58669816D01*
X105624866Y-58662123D01*
X105869310Y-58523450D01*
X105884175Y-58513575D01*
X105960494Y-58454750D01*
X107873000Y-58454750D01*
X107873000Y-58832206D01*
X107885566Y-58895382D01*
X107910216Y-58954892D01*
X107946002Y-59008450D01*
X107991549Y-59053997D01*
X108045107Y-59089784D01*
X108104617Y-59114434D01*
X108167793Y-59127000D01*
X108545250Y-59127000D01*
X108627000Y-59045250D01*
X108627000Y-58373000D01*
X109373000Y-58373000D01*
X109373000Y-59045250D01*
X109454750Y-59127000D01*
X109832207Y-59127000D01*
X109895383Y-59114434D01*
X109954893Y-59089784D01*
X110008451Y-59053997D01*
X110053998Y-59008450D01*
X110089784Y-58954892D01*
X110114434Y-58895382D01*
X110127000Y-58832206D01*
X110127000Y-58454750D01*
X110045250Y-58373000D01*
X109373000Y-58373000D01*
X108627000Y-58373000D01*
X107954750Y-58373000D01*
X107873000Y-58454750D01*
X105960494Y-58454750D01*
X106106768Y-58342006D01*
X106120102Y-58330145D01*
X106316447Y-58129069D01*
X106327987Y-58115457D01*
X106494209Y-57888844D01*
X106497215Y-57884076D01*
X110323000Y-57884076D01*
X110323000Y-58115924D01*
X110368231Y-58343318D01*
X110456956Y-58557519D01*
X110585764Y-58750294D01*
X110749706Y-58914236D01*
X110942481Y-59043044D01*
X111156682Y-59131769D01*
X111384076Y-59177000D01*
X111615924Y-59177000D01*
X111843318Y-59131769D01*
X112057519Y-59043044D01*
X112250294Y-58914236D01*
X112414236Y-58750294D01*
X112543044Y-58557519D01*
X112631769Y-58343318D01*
X112677000Y-58115924D01*
X112677000Y-57884076D01*
X112631769Y-57656682D01*
X112543044Y-57442481D01*
X112414236Y-57249706D01*
X112250294Y-57085764D01*
X112057519Y-56956956D01*
X111843318Y-56868231D01*
X111615924Y-56823000D01*
X111384076Y-56823000D01*
X111156682Y-56868231D01*
X110942481Y-56956956D01*
X110749706Y-57085764D01*
X110585764Y-57249706D01*
X110456956Y-57442481D01*
X110368231Y-57656682D01*
X110323000Y-57884076D01*
X106497215Y-57884076D01*
X106503727Y-57873748D01*
X106636543Y-57626073D01*
X106643851Y-57609791D01*
X106740638Y-57345943D01*
X106745592Y-57328799D01*
X106780069Y-57167794D01*
X107873000Y-57167794D01*
X107873000Y-57545250D01*
X107954750Y-57627000D01*
X108627000Y-57627000D01*
X108627000Y-56954750D01*
X109373000Y-56954750D01*
X109373000Y-57627000D01*
X110045250Y-57627000D01*
X110127000Y-57545250D01*
X110127000Y-57167794D01*
X110114434Y-57104618D01*
X110089784Y-57045108D01*
X110053998Y-56991550D01*
X110008451Y-56946003D01*
X109954893Y-56910216D01*
X109895383Y-56885566D01*
X109832207Y-56873000D01*
X109454750Y-56873000D01*
X109373000Y-56954750D01*
X108627000Y-56954750D01*
X108545250Y-56873000D01*
X108167793Y-56873000D01*
X108104617Y-56885566D01*
X108045107Y-56910216D01*
X107991549Y-56946003D01*
X107946002Y-56991550D01*
X107910216Y-57045108D01*
X107885566Y-57104618D01*
X107873000Y-57167794D01*
X106780069Y-57167794D01*
X106804439Y-57053990D01*
X106806940Y-57036320D01*
X106826686Y-56755975D01*
X106827000Y-56747052D01*
X106827000Y-56306750D01*
X119148000Y-56306750D01*
X119148000Y-56557207D01*
X119160566Y-56620383D01*
X119185216Y-56679893D01*
X119221003Y-56733451D01*
X119266550Y-56778998D01*
X119320108Y-56814784D01*
X119379618Y-56839434D01*
X119442794Y-56852000D01*
X119693250Y-56852000D01*
X119775000Y-56770250D01*
X119775000Y-56225000D01*
X120375000Y-56225000D01*
X120375000Y-56770250D01*
X120456750Y-56852000D01*
X120707206Y-56852000D01*
X120770382Y-56839434D01*
X120829892Y-56814784D01*
X120883450Y-56778998D01*
X120928997Y-56733451D01*
X120964784Y-56679893D01*
X120989434Y-56620383D01*
X121002000Y-56557207D01*
X121002000Y-56306750D01*
X120920250Y-56225000D01*
X120375000Y-56225000D01*
X119775000Y-56225000D01*
X119229750Y-56225000D01*
X119148000Y-56306750D01*
X106827000Y-56306750D01*
X106827000Y-50454750D01*
X107873000Y-50454750D01*
X107873000Y-50832206D01*
X107885566Y-50895382D01*
X107910216Y-50954892D01*
X107946002Y-51008450D01*
X107991549Y-51053997D01*
X108045107Y-51089784D01*
X108104617Y-51114434D01*
X108167793Y-51127000D01*
X108545250Y-51127000D01*
X108627000Y-51045250D01*
X108627000Y-50373000D01*
X109373000Y-50373000D01*
X109373000Y-51045250D01*
X109454750Y-51127000D01*
X109832207Y-51127000D01*
X109895383Y-51114434D01*
X109954893Y-51089784D01*
X110008451Y-51053997D01*
X110053998Y-51008450D01*
X110089784Y-50954892D01*
X110114434Y-50895382D01*
X110127000Y-50832206D01*
X110127000Y-50454750D01*
X110045250Y-50373000D01*
X109373000Y-50373000D01*
X108627000Y-50373000D01*
X107954750Y-50373000D01*
X107873000Y-50454750D01*
X106827000Y-50454750D01*
X106827000Y-49884076D01*
X110323000Y-49884076D01*
X110323000Y-50115924D01*
X110368231Y-50343318D01*
X110456956Y-50557519D01*
X110585764Y-50750294D01*
X110749706Y-50914236D01*
X110942481Y-51043044D01*
X111156682Y-51131769D01*
X111384076Y-51177000D01*
X111615924Y-51177000D01*
X111843318Y-51131769D01*
X112057519Y-51043044D01*
X112250294Y-50914236D01*
X112414236Y-50750294D01*
X112543044Y-50557519D01*
X112631769Y-50343318D01*
X112677000Y-50115924D01*
X112677000Y-49884076D01*
X112631769Y-49656682D01*
X112543044Y-49442481D01*
X112414236Y-49249706D01*
X112250294Y-49085764D01*
X112057519Y-48956956D01*
X111843318Y-48868231D01*
X111615924Y-48823000D01*
X111384076Y-48823000D01*
X111156682Y-48868231D01*
X110942481Y-48956956D01*
X110749706Y-49085764D01*
X110585764Y-49249706D01*
X110456956Y-49442481D01*
X110368231Y-49656682D01*
X110323000Y-49884076D01*
X106827000Y-49884076D01*
X106827000Y-49167794D01*
X107873000Y-49167794D01*
X107873000Y-49545250D01*
X107954750Y-49627000D01*
X108627000Y-49627000D01*
X108627000Y-48954750D01*
X109373000Y-48954750D01*
X109373000Y-49627000D01*
X110045250Y-49627000D01*
X110127000Y-49545250D01*
X110127000Y-49167794D01*
X110114434Y-49104618D01*
X110089784Y-49045108D01*
X110053998Y-48991550D01*
X110008451Y-48946003D01*
X109954893Y-48910216D01*
X109895383Y-48885566D01*
X109832207Y-48873000D01*
X109454750Y-48873000D01*
X109373000Y-48954750D01*
X108627000Y-48954750D01*
X108545250Y-48873000D01*
X108167793Y-48873000D01*
X108104617Y-48885566D01*
X108045107Y-48910216D01*
X107991549Y-48946003D01*
X107946002Y-48991550D01*
X107910216Y-49045108D01*
X107885566Y-49104618D01*
X107873000Y-49167794D01*
X106827000Y-49167794D01*
X106827000Y-42454750D01*
X107873000Y-42454750D01*
X107873000Y-42832206D01*
X107885566Y-42895382D01*
X107910216Y-42954892D01*
X107946002Y-43008450D01*
X107991549Y-43053997D01*
X108045107Y-43089784D01*
X108104617Y-43114434D01*
X108167793Y-43127000D01*
X108545250Y-43127000D01*
X108627000Y-43045250D01*
X108627000Y-42373000D01*
X109373000Y-42373000D01*
X109373000Y-43045250D01*
X109454750Y-43127000D01*
X109832207Y-43127000D01*
X109895383Y-43114434D01*
X109954893Y-43089784D01*
X110008451Y-43053997D01*
X110053998Y-43008450D01*
X110089784Y-42954892D01*
X110114434Y-42895382D01*
X110127000Y-42832206D01*
X110127000Y-42454750D01*
X110045250Y-42373000D01*
X109373000Y-42373000D01*
X108627000Y-42373000D01*
X107954750Y-42373000D01*
X107873000Y-42454750D01*
X106827000Y-42454750D01*
X106827000Y-41884076D01*
X110323000Y-41884076D01*
X110323000Y-42115924D01*
X110368231Y-42343318D01*
X110456956Y-42557519D01*
X110585764Y-42750294D01*
X110749706Y-42914236D01*
X110942481Y-43043044D01*
X111156682Y-43131769D01*
X111384076Y-43177000D01*
X111615924Y-43177000D01*
X111843318Y-43131769D01*
X112057519Y-43043044D01*
X112250294Y-42914236D01*
X112414236Y-42750294D01*
X112543044Y-42557519D01*
X112631769Y-42343318D01*
X112677000Y-42115924D01*
X112677000Y-41884076D01*
X112631769Y-41656682D01*
X112543044Y-41442481D01*
X112414236Y-41249706D01*
X112250294Y-41085764D01*
X112057519Y-40956956D01*
X111843318Y-40868231D01*
X111615924Y-40823000D01*
X111384076Y-40823000D01*
X111156682Y-40868231D01*
X110942481Y-40956956D01*
X110749706Y-41085764D01*
X110585764Y-41249706D01*
X110456956Y-41442481D01*
X110368231Y-41656682D01*
X110323000Y-41884076D01*
X106827000Y-41884076D01*
X106827000Y-41167794D01*
X107873000Y-41167794D01*
X107873000Y-41545250D01*
X107954750Y-41627000D01*
X108627000Y-41627000D01*
X108627000Y-40954750D01*
X109373000Y-40954750D01*
X109373000Y-41627000D01*
X110045250Y-41627000D01*
X110127000Y-41545250D01*
X110127000Y-41167794D01*
X110114434Y-41104618D01*
X110089784Y-41045108D01*
X110053998Y-40991550D01*
X110008451Y-40946003D01*
X109954893Y-40910216D01*
X109895383Y-40885566D01*
X109832207Y-40873000D01*
X109454750Y-40873000D01*
X109373000Y-40954750D01*
X108627000Y-40954750D01*
X108545250Y-40873000D01*
X108167793Y-40873000D01*
X108104617Y-40885566D01*
X108045107Y-40910216D01*
X107991549Y-40946003D01*
X107946002Y-40991550D01*
X107910216Y-41045108D01*
X107885566Y-41104618D01*
X107873000Y-41167794D01*
X106827000Y-41167794D01*
X106827000Y-40504530D01*
X106846385Y-40233496D01*
X106903181Y-39972407D01*
X106996556Y-39722060D01*
X107124605Y-39487555D01*
X107284724Y-39273662D01*
X107473662Y-39084724D01*
X107687555Y-38924605D01*
X107922060Y-38796556D01*
X108172407Y-38703181D01*
X108433496Y-38646385D01*
X108704530Y-38627000D01*
X111395470Y-38627000D01*
X111666504Y-38646385D01*
X111666504Y-38646385D01*
G37*
X111666504Y-38646385D02*
X111927593Y-38703181D01*
X112177940Y-38796556D01*
X112412445Y-38924605D01*
X112626338Y-39084724D01*
X112814419Y-39272805D01*
X112821526Y-44016566D01*
X112828732Y-44089358D01*
X112903884Y-44468201D01*
X112959264Y-44602866D01*
X113172376Y-44924973D01*
X113273000Y-45026927D01*
X113273000Y-53400000D01*
X113273324Y-53409060D01*
X113293681Y-53693690D01*
X113296259Y-53711626D01*
X113356916Y-53990461D01*
X113362021Y-54007847D01*
X113461743Y-54275212D01*
X113469271Y-54291695D01*
X113606028Y-54542147D01*
X113615824Y-54557390D01*
X113786832Y-54785829D01*
X113798698Y-54799524D01*
X114000476Y-55001302D01*
X114014171Y-55013168D01*
X114242610Y-55184176D01*
X114257853Y-55193972D01*
X114508305Y-55330729D01*
X114524788Y-55338257D01*
X114792153Y-55437979D01*
X114809539Y-55443084D01*
X115088374Y-55503741D01*
X115106310Y-55506319D01*
X115390940Y-55526676D01*
X115400000Y-55527000D01*
X119148000Y-55527000D01*
X119148000Y-55543250D01*
X119229750Y-55625000D01*
X119775000Y-55625000D01*
X119775000Y-55532000D01*
X120375000Y-55532000D01*
X120375000Y-55625000D01*
X120920250Y-55625000D01*
X121002000Y-55543250D01*
X121002000Y-55527000D01*
X126894428Y-55527000D01*
X126911431Y-55568048D01*
X126996464Y-55695309D01*
X127104691Y-55803536D01*
X127231952Y-55888569D01*
X127373357Y-55947141D01*
X127523472Y-55977000D01*
X127676528Y-55977000D01*
X127826643Y-55947141D01*
X127968048Y-55888569D01*
X128095309Y-55803536D01*
X128203536Y-55695309D01*
X128257612Y-55614378D01*
X128477940Y-55696556D01*
X128712445Y-55824605D01*
X128748001Y-55851222D01*
X128748001Y-66392880D01*
X128716392Y-66715254D01*
X128629194Y-67004071D01*
X128487556Y-67270451D01*
X128296876Y-67504248D01*
X128064417Y-67696554D01*
X127799036Y-67840045D01*
X127510833Y-67929259D01*
X127189807Y-67963000D01*
X106962450Y-67963000D01*
X106924605Y-67912445D01*
X106796556Y-67677940D01*
X106748216Y-67548335D01*
X114474166Y-67548335D01*
X114679937Y-67756423D01*
X115038260Y-67881685D01*
X115414135Y-67934634D01*
X115793117Y-67913236D01*
X116160643Y-67818314D01*
X116310063Y-67756423D01*
X116515834Y-67548335D01*
X121484166Y-67548335D01*
X121689937Y-67756423D01*
X122048260Y-67881685D01*
X122424135Y-67934634D01*
X122803117Y-67913236D01*
X123170643Y-67818314D01*
X123320063Y-67756423D01*
X123525834Y-67548335D01*
X122505000Y-66527502D01*
X121484166Y-67548335D01*
X116515834Y-67548335D01*
X115495000Y-66527502D01*
X114474166Y-67548335D01*
X106748216Y-67548335D01*
X106703181Y-67427593D01*
X106646385Y-67166504D01*
X106606319Y-66606310D01*
X106603741Y-66588374D01*
X106543084Y-66309539D01*
X106537979Y-66292153D01*
X106446803Y-66047700D01*
X106474988Y-65994970D01*
X106496545Y-65923905D01*
X106497014Y-65919135D01*
X113560366Y-65919135D01*
X113581764Y-66298117D01*
X113676686Y-66665643D01*
X113738577Y-66815063D01*
X113946665Y-67020834D01*
X114967498Y-66000000D01*
X116022502Y-66000000D01*
X117043335Y-67020834D01*
X117251423Y-66815063D01*
X117376685Y-66456740D01*
X117429634Y-66080865D01*
X117420503Y-65919135D01*
X120570366Y-65919135D01*
X120591764Y-66298117D01*
X120686686Y-66665643D01*
X120748577Y-66815063D01*
X120956665Y-67020834D01*
X121977498Y-66000000D01*
X123032502Y-66000000D01*
X124053335Y-67020834D01*
X124261423Y-66815063D01*
X124386685Y-66456740D01*
X124439634Y-66080865D01*
X124418236Y-65701883D01*
X124323314Y-65334357D01*
X124261423Y-65184937D01*
X124053335Y-64979166D01*
X123032502Y-66000000D01*
X121977498Y-66000000D01*
X120956665Y-64979166D01*
X120748577Y-65184937D01*
X120623315Y-65543260D01*
X120570366Y-65919135D01*
X117420503Y-65919135D01*
X117408236Y-65701883D01*
X117313314Y-65334357D01*
X117251423Y-65184937D01*
X117043335Y-64979166D01*
X116022502Y-66000000D01*
X114967498Y-66000000D01*
X113946665Y-64979166D01*
X113738577Y-65184937D01*
X113613315Y-65543260D01*
X113560366Y-65919135D01*
X106497014Y-65919135D01*
X106503824Y-65850000D01*
X106503824Y-64850000D01*
X106496545Y-64776095D01*
X106474988Y-64705030D01*
X106439981Y-64639537D01*
X106392869Y-64582131D01*
X106335463Y-64535019D01*
X106269970Y-64500012D01*
X106198905Y-64478455D01*
X106125000Y-64471176D01*
X104875000Y-64471176D01*
X104801095Y-64478455D01*
X104730030Y-64500012D01*
X104664537Y-64535019D01*
X104607131Y-64582131D01*
X104560019Y-64639537D01*
X104525012Y-64705030D01*
X104504397Y-64772990D01*
X104233496Y-64753615D01*
X103972407Y-64696819D01*
X103722060Y-64603444D01*
X103487555Y-64475395D01*
X103455856Y-64451665D01*
X114474166Y-64451665D01*
X115495000Y-65472498D01*
X116515834Y-64451665D01*
X121484166Y-64451665D01*
X122505000Y-65472498D01*
X123525834Y-64451665D01*
X123320063Y-64243577D01*
X122961740Y-64118315D01*
X122585865Y-64065366D01*
X122206883Y-64086764D01*
X121839357Y-64181686D01*
X121689937Y-64243577D01*
X121484166Y-64451665D01*
X116515834Y-64451665D01*
X116310063Y-64243577D01*
X115951740Y-64118315D01*
X115575865Y-64065366D01*
X115196883Y-64086764D01*
X114829357Y-64181686D01*
X114679937Y-64243577D01*
X114474166Y-64451665D01*
X103455856Y-64451665D01*
X103273662Y-64315276D01*
X103084724Y-64126338D01*
X102924605Y-63912445D01*
X102796556Y-63677940D01*
X102735000Y-63512903D01*
X102735000Y-63312500D01*
X103265000Y-63312500D01*
X103265000Y-63720250D01*
X103346750Y-63802000D01*
X103562207Y-63802000D01*
X103625383Y-63789434D01*
X103684893Y-63764784D01*
X103738451Y-63728997D01*
X103783998Y-63683450D01*
X103785133Y-63681750D01*
X104548000Y-63681750D01*
X104548000Y-63882207D01*
X104560566Y-63945383D01*
X104585216Y-64004893D01*
X104621003Y-64058451D01*
X104666550Y-64103998D01*
X104720108Y-64139784D01*
X104779618Y-64164434D01*
X104842794Y-64177000D01*
X105105750Y-64177000D01*
X105187500Y-64095250D01*
X105187500Y-63600000D01*
X105812500Y-63600000D01*
X105812500Y-64095250D01*
X105894250Y-64177000D01*
X106157206Y-64177000D01*
X106220382Y-64164434D01*
X106279892Y-64139784D01*
X106333450Y-64103998D01*
X106378997Y-64058451D01*
X106414784Y-64004893D01*
X106439434Y-63945383D01*
X106452000Y-63882207D01*
X106452000Y-63681750D01*
X106370250Y-63600000D01*
X105812500Y-63600000D01*
X105187500Y-63600000D01*
X104629750Y-63600000D01*
X104548000Y-63681750D01*
X103785133Y-63681750D01*
X103819784Y-63629892D01*
X103844434Y-63570382D01*
X103857000Y-63507206D01*
X103857000Y-63394250D01*
X103775250Y-63312500D01*
X103265000Y-63312500D01*
X102735000Y-63312500D01*
X102678144Y-63312500D01*
X102646385Y-63166504D01*
X102633582Y-62987500D01*
X102735000Y-62987500D01*
X102735000Y-62903824D01*
X103265000Y-62903824D01*
X103265000Y-62987500D01*
X103775250Y-62987500D01*
X103857000Y-62905750D01*
X103857000Y-62817793D01*
X104548000Y-62817793D01*
X104548000Y-63018250D01*
X104629750Y-63100000D01*
X105187500Y-63100000D01*
X105187500Y-62604750D01*
X105812500Y-62604750D01*
X105812500Y-63100000D01*
X106370250Y-63100000D01*
X106452000Y-63018250D01*
X106452000Y-62817793D01*
X106439434Y-62754617D01*
X106414784Y-62695107D01*
X106378997Y-62641549D01*
X106333450Y-62596002D01*
X106279892Y-62560216D01*
X106251209Y-62548335D01*
X114474166Y-62548335D01*
X114679937Y-62756423D01*
X115038260Y-62881685D01*
X115414135Y-62934634D01*
X115793117Y-62913236D01*
X116160643Y-62818314D01*
X116310063Y-62756423D01*
X116515834Y-62548335D01*
X121484166Y-62548335D01*
X121689937Y-62756423D01*
X122048260Y-62881685D01*
X122424135Y-62934634D01*
X122803117Y-62913236D01*
X123170643Y-62818314D01*
X123320063Y-62756423D01*
X123525834Y-62548335D01*
X122505000Y-61527502D01*
X121484166Y-62548335D01*
X116515834Y-62548335D01*
X115495000Y-61527502D01*
X114474166Y-62548335D01*
X106251209Y-62548335D01*
X106220382Y-62535566D01*
X106157206Y-62523000D01*
X105894250Y-62523000D01*
X105812500Y-62604750D01*
X105187500Y-62604750D01*
X105105750Y-62523000D01*
X104842794Y-62523000D01*
X104779618Y-62535566D01*
X104720108Y-62560216D01*
X104666550Y-62596002D01*
X104621003Y-62641549D01*
X104585216Y-62695107D01*
X104560566Y-62754617D01*
X104548000Y-62817793D01*
X103857000Y-62817793D01*
X103857000Y-62792794D01*
X103845430Y-62734624D01*
X103879988Y-62669970D01*
X103901545Y-62598905D01*
X103908824Y-62525000D01*
X103908824Y-61875000D01*
X103901545Y-61801095D01*
X103879988Y-61730030D01*
X103845430Y-61665376D01*
X103857000Y-61607206D01*
X103857000Y-61494250D01*
X103775250Y-61412500D01*
X103265000Y-61412500D01*
X103265000Y-61496176D01*
X102735000Y-61496176D01*
X102735000Y-61412500D01*
X102627000Y-61412500D01*
X102627000Y-61087500D01*
X102735000Y-61087500D01*
X102735000Y-60679750D01*
X103265000Y-60679750D01*
X103265000Y-61087500D01*
X103775250Y-61087500D01*
X103857000Y-61005750D01*
X103857000Y-60919135D01*
X113560366Y-60919135D01*
X113581764Y-61298117D01*
X113676686Y-61665643D01*
X113738577Y-61815063D01*
X113946665Y-62020834D01*
X114967498Y-61000000D01*
X116022502Y-61000000D01*
X117043335Y-62020834D01*
X117251423Y-61815063D01*
X117376685Y-61456740D01*
X117429634Y-61080865D01*
X117420503Y-60919135D01*
X120570366Y-60919135D01*
X120591764Y-61298117D01*
X120686686Y-61665643D01*
X120748577Y-61815063D01*
X120956665Y-62020834D01*
X121977498Y-61000000D01*
X123032502Y-61000000D01*
X124053335Y-62020834D01*
X124261423Y-61815063D01*
X124386685Y-61456740D01*
X124439634Y-61080865D01*
X124418236Y-60701883D01*
X124323314Y-60334357D01*
X124261423Y-60184937D01*
X124053335Y-59979166D01*
X123032502Y-61000000D01*
X121977498Y-61000000D01*
X120956665Y-59979166D01*
X120748577Y-60184937D01*
X120623315Y-60543260D01*
X120570366Y-60919135D01*
X117420503Y-60919135D01*
X117408236Y-60701883D01*
X117313314Y-60334357D01*
X117251423Y-60184937D01*
X117043335Y-59979166D01*
X116022502Y-61000000D01*
X114967498Y-61000000D01*
X113946665Y-59979166D01*
X113738577Y-60184937D01*
X113613315Y-60543260D01*
X113560366Y-60919135D01*
X103857000Y-60919135D01*
X103857000Y-60892794D01*
X103844434Y-60829618D01*
X103819784Y-60770108D01*
X103783998Y-60716550D01*
X103738451Y-60671003D01*
X103684893Y-60635216D01*
X103625383Y-60610566D01*
X103562207Y-60598000D01*
X103346750Y-60598000D01*
X103265000Y-60679750D01*
X102735000Y-60679750D01*
X102653250Y-60598000D01*
X102638228Y-60598000D01*
X102645803Y-60490453D01*
X102700906Y-60233130D01*
X102791529Y-59986084D01*
X102915892Y-59754173D01*
X103071535Y-59541983D01*
X103159727Y-59451665D01*
X114474166Y-59451665D01*
X115495000Y-60472498D01*
X116515834Y-59451665D01*
X121484166Y-59451665D01*
X122505000Y-60472498D01*
X123525834Y-59451665D01*
X123320063Y-59243577D01*
X122961740Y-59118315D01*
X122585865Y-59065366D01*
X122206883Y-59086764D01*
X121839357Y-59181686D01*
X121689937Y-59243577D01*
X121484166Y-59451665D01*
X116515834Y-59451665D01*
X116310063Y-59243577D01*
X115951740Y-59118315D01*
X115575865Y-59065366D01*
X115196883Y-59086764D01*
X114829357Y-59181686D01*
X114679937Y-59243577D01*
X114474166Y-59451665D01*
X103159727Y-59451665D01*
X103255377Y-59353711D01*
X103463800Y-59193064D01*
X103692689Y-59063215D01*
X103937511Y-58966735D01*
X104193436Y-58905526D01*
X104459885Y-58880372D01*
X104750629Y-58873450D01*
X104759542Y-58872924D01*
X105039337Y-58846510D01*
X105056942Y-58843588D01*
X105330273Y-58778216D01*
X105347295Y-58772856D01*
X105608763Y-58669816D01*
X105624866Y-58662123D01*
X105869310Y-58523450D01*
X105884175Y-58513575D01*
X105960494Y-58454750D01*
X107873000Y-58454750D01*
X107873000Y-58832206D01*
X107885566Y-58895382D01*
X107910216Y-58954892D01*
X107946002Y-59008450D01*
X107991549Y-59053997D01*
X108045107Y-59089784D01*
X108104617Y-59114434D01*
X108167793Y-59127000D01*
X108545250Y-59127000D01*
X108627000Y-59045250D01*
X108627000Y-58373000D01*
X109373000Y-58373000D01*
X109373000Y-59045250D01*
X109454750Y-59127000D01*
X109832207Y-59127000D01*
X109895383Y-59114434D01*
X109954893Y-59089784D01*
X110008451Y-59053997D01*
X110053998Y-59008450D01*
X110089784Y-58954892D01*
X110114434Y-58895382D01*
X110127000Y-58832206D01*
X110127000Y-58454750D01*
X110045250Y-58373000D01*
X109373000Y-58373000D01*
X108627000Y-58373000D01*
X107954750Y-58373000D01*
X107873000Y-58454750D01*
X105960494Y-58454750D01*
X106106768Y-58342006D01*
X106120102Y-58330145D01*
X106316447Y-58129069D01*
X106327987Y-58115457D01*
X106494209Y-57888844D01*
X106497215Y-57884076D01*
X110323000Y-57884076D01*
X110323000Y-58115924D01*
X110368231Y-58343318D01*
X110456956Y-58557519D01*
X110585764Y-58750294D01*
X110749706Y-58914236D01*
X110942481Y-59043044D01*
X111156682Y-59131769D01*
X111384076Y-59177000D01*
X111615924Y-59177000D01*
X111843318Y-59131769D01*
X112057519Y-59043044D01*
X112250294Y-58914236D01*
X112414236Y-58750294D01*
X112543044Y-58557519D01*
X112631769Y-58343318D01*
X112677000Y-58115924D01*
X112677000Y-57884076D01*
X112631769Y-57656682D01*
X112543044Y-57442481D01*
X112414236Y-57249706D01*
X112250294Y-57085764D01*
X112057519Y-56956956D01*
X111843318Y-56868231D01*
X111615924Y-56823000D01*
X111384076Y-56823000D01*
X111156682Y-56868231D01*
X110942481Y-56956956D01*
X110749706Y-57085764D01*
X110585764Y-57249706D01*
X110456956Y-57442481D01*
X110368231Y-57656682D01*
X110323000Y-57884076D01*
X106497215Y-57884076D01*
X106503727Y-57873748D01*
X106636543Y-57626073D01*
X106643851Y-57609791D01*
X106740638Y-57345943D01*
X106745592Y-57328799D01*
X106780069Y-57167794D01*
X107873000Y-57167794D01*
X107873000Y-57545250D01*
X107954750Y-57627000D01*
X108627000Y-57627000D01*
X108627000Y-56954750D01*
X109373000Y-56954750D01*
X109373000Y-57627000D01*
X110045250Y-57627000D01*
X110127000Y-57545250D01*
X110127000Y-57167794D01*
X110114434Y-57104618D01*
X110089784Y-57045108D01*
X110053998Y-56991550D01*
X110008451Y-56946003D01*
X109954893Y-56910216D01*
X109895383Y-56885566D01*
X109832207Y-56873000D01*
X109454750Y-56873000D01*
X109373000Y-56954750D01*
X108627000Y-56954750D01*
X108545250Y-56873000D01*
X108167793Y-56873000D01*
X108104617Y-56885566D01*
X108045107Y-56910216D01*
X107991549Y-56946003D01*
X107946002Y-56991550D01*
X107910216Y-57045108D01*
X107885566Y-57104618D01*
X107873000Y-57167794D01*
X106780069Y-57167794D01*
X106804439Y-57053990D01*
X106806940Y-57036320D01*
X106826686Y-56755975D01*
X106827000Y-56747052D01*
X106827000Y-56306750D01*
X119148000Y-56306750D01*
X119148000Y-56557207D01*
X119160566Y-56620383D01*
X119185216Y-56679893D01*
X119221003Y-56733451D01*
X119266550Y-56778998D01*
X119320108Y-56814784D01*
X119379618Y-56839434D01*
X119442794Y-56852000D01*
X119693250Y-56852000D01*
X119775000Y-56770250D01*
X119775000Y-56225000D01*
X120375000Y-56225000D01*
X120375000Y-56770250D01*
X120456750Y-56852000D01*
X120707206Y-56852000D01*
X120770382Y-56839434D01*
X120829892Y-56814784D01*
X120883450Y-56778998D01*
X120928997Y-56733451D01*
X120964784Y-56679893D01*
X120989434Y-56620383D01*
X121002000Y-56557207D01*
X121002000Y-56306750D01*
X120920250Y-56225000D01*
X120375000Y-56225000D01*
X119775000Y-56225000D01*
X119229750Y-56225000D01*
X119148000Y-56306750D01*
X106827000Y-56306750D01*
X106827000Y-50454750D01*
X107873000Y-50454750D01*
X107873000Y-50832206D01*
X107885566Y-50895382D01*
X107910216Y-50954892D01*
X107946002Y-51008450D01*
X107991549Y-51053997D01*
X108045107Y-51089784D01*
X108104617Y-51114434D01*
X108167793Y-51127000D01*
X108545250Y-51127000D01*
X108627000Y-51045250D01*
X108627000Y-50373000D01*
X109373000Y-50373000D01*
X109373000Y-51045250D01*
X109454750Y-51127000D01*
X109832207Y-51127000D01*
X109895383Y-51114434D01*
X109954893Y-51089784D01*
X110008451Y-51053997D01*
X110053998Y-51008450D01*
X110089784Y-50954892D01*
X110114434Y-50895382D01*
X110127000Y-50832206D01*
X110127000Y-50454750D01*
X110045250Y-50373000D01*
X109373000Y-50373000D01*
X108627000Y-50373000D01*
X107954750Y-50373000D01*
X107873000Y-50454750D01*
X106827000Y-50454750D01*
X106827000Y-49884076D01*
X110323000Y-49884076D01*
X110323000Y-50115924D01*
X110368231Y-50343318D01*
X110456956Y-50557519D01*
X110585764Y-50750294D01*
X110749706Y-50914236D01*
X110942481Y-51043044D01*
X111156682Y-51131769D01*
X111384076Y-51177000D01*
X111615924Y-51177000D01*
X111843318Y-51131769D01*
X112057519Y-51043044D01*
X112250294Y-50914236D01*
X112414236Y-50750294D01*
X112543044Y-50557519D01*
X112631769Y-50343318D01*
X112677000Y-50115924D01*
X112677000Y-49884076D01*
X112631769Y-49656682D01*
X112543044Y-49442481D01*
X112414236Y-49249706D01*
X112250294Y-49085764D01*
X112057519Y-48956956D01*
X111843318Y-48868231D01*
X111615924Y-48823000D01*
X111384076Y-48823000D01*
X111156682Y-48868231D01*
X110942481Y-48956956D01*
X110749706Y-49085764D01*
X110585764Y-49249706D01*
X110456956Y-49442481D01*
X110368231Y-49656682D01*
X110323000Y-49884076D01*
X106827000Y-49884076D01*
X106827000Y-49167794D01*
X107873000Y-49167794D01*
X107873000Y-49545250D01*
X107954750Y-49627000D01*
X108627000Y-49627000D01*
X108627000Y-48954750D01*
X109373000Y-48954750D01*
X109373000Y-49627000D01*
X110045250Y-49627000D01*
X110127000Y-49545250D01*
X110127000Y-49167794D01*
X110114434Y-49104618D01*
X110089784Y-49045108D01*
X110053998Y-48991550D01*
X110008451Y-48946003D01*
X109954893Y-48910216D01*
X109895383Y-48885566D01*
X109832207Y-48873000D01*
X109454750Y-48873000D01*
X109373000Y-48954750D01*
X108627000Y-48954750D01*
X108545250Y-48873000D01*
X108167793Y-48873000D01*
X108104617Y-48885566D01*
X108045107Y-48910216D01*
X107991549Y-48946003D01*
X107946002Y-48991550D01*
X107910216Y-49045108D01*
X107885566Y-49104618D01*
X107873000Y-49167794D01*
X106827000Y-49167794D01*
X106827000Y-42454750D01*
X107873000Y-42454750D01*
X107873000Y-42832206D01*
X107885566Y-42895382D01*
X107910216Y-42954892D01*
X107946002Y-43008450D01*
X107991549Y-43053997D01*
X108045107Y-43089784D01*
X108104617Y-43114434D01*
X108167793Y-43127000D01*
X108545250Y-43127000D01*
X108627000Y-43045250D01*
X108627000Y-42373000D01*
X109373000Y-42373000D01*
X109373000Y-43045250D01*
X109454750Y-43127000D01*
X109832207Y-43127000D01*
X109895383Y-43114434D01*
X109954893Y-43089784D01*
X110008451Y-43053997D01*
X110053998Y-43008450D01*
X110089784Y-42954892D01*
X110114434Y-42895382D01*
X110127000Y-42832206D01*
X110127000Y-42454750D01*
X110045250Y-42373000D01*
X109373000Y-42373000D01*
X108627000Y-42373000D01*
X107954750Y-42373000D01*
X107873000Y-42454750D01*
X106827000Y-42454750D01*
X106827000Y-41884076D01*
X110323000Y-41884076D01*
X110323000Y-42115924D01*
X110368231Y-42343318D01*
X110456956Y-42557519D01*
X110585764Y-42750294D01*
X110749706Y-42914236D01*
X110942481Y-43043044D01*
X111156682Y-43131769D01*
X111384076Y-43177000D01*
X111615924Y-43177000D01*
X111843318Y-43131769D01*
X112057519Y-43043044D01*
X112250294Y-42914236D01*
X112414236Y-42750294D01*
X112543044Y-42557519D01*
X112631769Y-42343318D01*
X112677000Y-42115924D01*
X112677000Y-41884076D01*
X112631769Y-41656682D01*
X112543044Y-41442481D01*
X112414236Y-41249706D01*
X112250294Y-41085764D01*
X112057519Y-40956956D01*
X111843318Y-40868231D01*
X111615924Y-40823000D01*
X111384076Y-40823000D01*
X111156682Y-40868231D01*
X110942481Y-40956956D01*
X110749706Y-41085764D01*
X110585764Y-41249706D01*
X110456956Y-41442481D01*
X110368231Y-41656682D01*
X110323000Y-41884076D01*
X106827000Y-41884076D01*
X106827000Y-41167794D01*
X107873000Y-41167794D01*
X107873000Y-41545250D01*
X107954750Y-41627000D01*
X108627000Y-41627000D01*
X108627000Y-40954750D01*
X109373000Y-40954750D01*
X109373000Y-41627000D01*
X110045250Y-41627000D01*
X110127000Y-41545250D01*
X110127000Y-41167794D01*
X110114434Y-41104618D01*
X110089784Y-41045108D01*
X110053998Y-40991550D01*
X110008451Y-40946003D01*
X109954893Y-40910216D01*
X109895383Y-40885566D01*
X109832207Y-40873000D01*
X109454750Y-40873000D01*
X109373000Y-40954750D01*
X108627000Y-40954750D01*
X108545250Y-40873000D01*
X108167793Y-40873000D01*
X108104617Y-40885566D01*
X108045107Y-40910216D01*
X107991549Y-40946003D01*
X107946002Y-40991550D01*
X107910216Y-41045108D01*
X107885566Y-41104618D01*
X107873000Y-41167794D01*
X106827000Y-41167794D01*
X106827000Y-40504530D01*
X106846385Y-40233496D01*
X106903181Y-39972407D01*
X106996556Y-39722060D01*
X107124605Y-39487555D01*
X107284724Y-39273662D01*
X107473662Y-39084724D01*
X107687555Y-38924605D01*
X107922060Y-38796556D01*
X108172407Y-38703181D01*
X108433496Y-38646385D01*
X108704530Y-38627000D01*
X111395470Y-38627000D01*
X111666504Y-38646385D01*
G04 #@! TO.N,Earth*
G36*
X75351957Y-40652858D02*
X75375119Y-40676020D01*
X75804510Y-40853879D01*
X75846540Y-40881765D01*
X76035742Y-41161621D01*
X76106733Y-41504850D01*
X76114157Y-42358604D01*
X76116869Y-42383629D01*
X76198021Y-42769633D01*
X76217793Y-42815660D01*
X76441898Y-43140255D01*
X76477931Y-43175056D01*
X76810122Y-43387740D01*
X76856808Y-43405899D01*
X77245400Y-43473581D01*
X77270504Y-43475422D01*
X78107827Y-43453578D01*
X78456865Y-43513960D01*
X78745018Y-43697056D01*
X78940592Y-43976886D01*
X79016247Y-44322939D01*
X79054618Y-46471764D01*
X78990567Y-46822310D01*
X78802959Y-47109984D01*
X78518677Y-47302700D01*
X78169332Y-47373000D01*
X71383916Y-47373000D01*
X71252000Y-47346822D01*
X71252000Y-40649752D01*
X71366117Y-40627000D01*
X75221217Y-40627000D01*
X75351957Y-40652858D01*
X75351957Y-40652858D01*
G37*
X75351957Y-40652858D02*
X75375119Y-40676020D01*
X75804510Y-40853879D01*
X75846540Y-40881765D01*
X76035742Y-41161621D01*
X76106733Y-41504850D01*
X76114157Y-42358604D01*
X76116869Y-42383629D01*
X76198021Y-42769633D01*
X76217793Y-42815660D01*
X76441898Y-43140255D01*
X76477931Y-43175056D01*
X76810122Y-43387740D01*
X76856808Y-43405899D01*
X77245400Y-43473581D01*
X77270504Y-43475422D01*
X78107827Y-43453578D01*
X78456865Y-43513960D01*
X78745018Y-43697056D01*
X78940592Y-43976886D01*
X79016247Y-44322939D01*
X79054618Y-46471764D01*
X78990567Y-46822310D01*
X78802959Y-47109984D01*
X78518677Y-47302700D01*
X78169332Y-47373000D01*
X71383916Y-47373000D01*
X71252000Y-47346822D01*
X71252000Y-40649752D01*
X71366117Y-40627000D01*
X75221217Y-40627000D01*
X75351957Y-40652858D01*
G04 #@! TD*
M02*
