G04 #@! TF.GenerationSoftware,KiCad,Pcbnew,(5.0.0)*
G04 #@! TF.CreationDate,2018-11-03T21:11:35-02:30*
G04 #@! TF.ProjectId,DC-DC Board,44432D444320426F6172642E6B696361,rev?*
G04 #@! TF.SameCoordinates,Original*
G04 #@! TF.FileFunction,Copper,L2,Bot,Mixed*
G04 #@! TF.FilePolarity,Positive*
%FSLAX46Y46*%
G04 Gerber Fmt 4.6, Leading zero omitted, Abs format (unit mm)*
G04 Created by KiCad (PCBNEW (5.0.0)) date 11/03/18 21:11:35*
%MOMM*%
%LPD*%
G01*
G04 APERTURE LIST*
G04 #@! TA.AperFunction,ComponentPad*
%ADD10O,1.638300X3.276600*%
G04 #@! TD*
G04 #@! TA.AperFunction,ComponentPad*
%ADD11C,1.500000*%
G04 #@! TD*
G04 #@! TA.AperFunction,ComponentPad*
%ADD12C,1.700000*%
G04 #@! TD*
G04 #@! TA.AperFunction,ComponentPad*
%ADD13C,3.500000*%
G04 #@! TD*
G04 #@! TA.AperFunction,ComponentPad*
%ADD14C,2.500000*%
G04 #@! TD*
G04 #@! TA.AperFunction,ComponentPad*
%ADD15C,3.200000*%
G04 #@! TD*
G04 #@! TA.AperFunction,ComponentPad*
%ADD16R,1.600000X1.600000*%
G04 #@! TD*
G04 #@! TA.AperFunction,ComponentPad*
%ADD17C,1.600000*%
G04 #@! TD*
G04 #@! TA.AperFunction,ViaPad*
%ADD18C,0.600000*%
G04 #@! TD*
G04 #@! TA.AperFunction,ViaPad*
%ADD19C,0.800000*%
G04 #@! TD*
G04 #@! TA.AperFunction,Conductor*
%ADD20C,0.250000*%
G04 #@! TD*
G04 #@! TA.AperFunction,Conductor*
%ADD21C,0.254000*%
G04 #@! TD*
G04 APERTURE END LIST*
D10*
G04 #@! TO.P,J6,1*
G04 #@! TO.N,VIOUT*
X91130000Y-55620000D03*
G04 #@! TO.P,J6,2*
G04 #@! TO.N,GND*
X93670000Y-55620000D03*
G04 #@! TD*
D11*
G04 #@! TO.P,U1,15*
G04 #@! TO.N,GND*
X126400000Y-54000000D03*
D12*
G04 #@! TO.P,U1,14*
G04 #@! TO.N,Net-(U1-Pad14)*
X124400000Y-54000000D03*
G04 #@! TO.P,U1,12*
G04 #@! TO.N,Net-(U1-Pad12)*
X124400000Y-52000000D03*
G04 #@! TO.P,U1,13*
G04 #@! TO.N,GND*
X126400000Y-52000000D03*
G04 #@! TO.P,U1,10*
G04 #@! TO.N,SCL*
X124400000Y-50000000D03*
G04 #@! TO.P,U1,11*
G04 #@! TO.N,SDA*
X126400000Y-50000000D03*
G04 #@! TO.P,U1,9*
G04 #@! TO.N,Net-(C3-Pad1)*
X126400000Y-48000000D03*
G04 #@! TO.P,U1,8*
G04 #@! TO.N,Net-(C4-Pad1)*
X124400000Y-48000000D03*
G04 #@! TO.P,U1,7*
G04 #@! TO.N,GND*
X126400000Y-46000000D03*
G04 #@! TO.P,U1,6*
G04 #@! TO.N,+12V*
X124400000Y-46000000D03*
D13*
G04 #@! TO.P,U1,16*
X125400000Y-57620000D03*
G04 #@! TO.P,U1,5*
G04 #@! TO.N,GND*
X125400000Y-42380000D03*
D14*
G04 #@! TO.P,U1,1*
G04 #@! TO.N,Net-(D1-Pad2)*
X74600000Y-57620000D03*
G04 #@! TO.P,U1,2*
G04 #@! TO.N,Net-(R9-Pad1)*
X74600000Y-50000000D03*
G04 #@! TO.P,U1,4*
G04 #@! TO.N,Earth*
X74600000Y-42380000D03*
G04 #@! TD*
D15*
G04 #@! TO.P,J1,1*
G04 #@! TO.N,Net-(J1-Pad1)*
X76495000Y-34000000D03*
X83505000Y-34000000D03*
X83505000Y-39000000D03*
X76495000Y-39000000D03*
G04 #@! TD*
G04 #@! TO.P,J2,1*
G04 #@! TO.N,/+48V*
X76495000Y-61000000D03*
X83505000Y-61000000D03*
X83505000Y-66000000D03*
X76495000Y-66000000D03*
G04 #@! TD*
G04 #@! TO.P,J3,1*
G04 #@! TO.N,GND*
X115495000Y-34000000D03*
X122505000Y-34000000D03*
X122505000Y-39000000D03*
X115495000Y-39000000D03*
G04 #@! TD*
G04 #@! TO.P,J4,1*
G04 #@! TO.N,+12V*
X115495000Y-61000000D03*
X122505000Y-61000000D03*
X122505000Y-66000000D03*
X115495000Y-66000000D03*
G04 #@! TD*
D16*
G04 #@! TO.P,C6,1*
G04 #@! TO.N,+12V*
X109000000Y-58000000D03*
D17*
G04 #@! TO.P,C6,2*
G04 #@! TO.N,GND*
X111500000Y-58000000D03*
G04 #@! TD*
D16*
G04 #@! TO.P,C8,1*
G04 #@! TO.N,+12V*
X109000000Y-42000000D03*
D17*
G04 #@! TO.P,C8,2*
G04 #@! TO.N,GND*
X111500000Y-42000000D03*
G04 #@! TD*
D16*
G04 #@! TO.P,C10,1*
G04 #@! TO.N,+12V*
X109000000Y-50000000D03*
D17*
G04 #@! TO.P,C10,2*
G04 #@! TO.N,GND*
X111500000Y-50000000D03*
G04 #@! TD*
D10*
G04 #@! TO.P,J5,2*
G04 #@! TO.N,SCL*
X103270000Y-55620000D03*
G04 #@! TO.P,J5,1*
G04 #@! TO.N,SDA*
X100730000Y-55620000D03*
G04 #@! TD*
D18*
G04 #@! TO.N,/+48V*
X81100000Y-58200000D03*
X82700000Y-57300000D03*
X82800000Y-58700000D03*
X81000000Y-59700000D03*
D19*
X79140000Y-61010000D03*
X80820000Y-62480000D03*
X79200000Y-65400000D03*
X80670000Y-66760000D03*
X84380000Y-63520000D03*
X75250000Y-63510000D03*
X73740000Y-67210000D03*
X72340000Y-65560000D03*
X73970000Y-64630000D03*
X72390000Y-62510000D03*
X73720000Y-60550000D03*
X81800000Y-64000000D03*
X77700000Y-63500000D03*
G04 #@! TO.N,+12V*
X123000000Y-48600008D03*
X127650000Y-66820000D03*
X125260000Y-65370000D03*
X127360000Y-62240000D03*
X125480000Y-61060000D03*
X127850000Y-59710000D03*
X124140000Y-63400000D03*
X120980000Y-63370000D03*
X117300000Y-63450000D03*
X113600000Y-63440000D03*
X118390000Y-67130000D03*
X119400000Y-64940000D03*
X119020000Y-62120000D03*
X120030000Y-60270000D03*
X117860000Y-59040000D03*
X122380000Y-58200000D03*
X116320000Y-56360000D03*
X114520000Y-58240000D03*
X112700000Y-62000000D03*
X110900000Y-63600000D03*
X108500000Y-62200000D03*
X108180000Y-64330000D03*
X111590000Y-65410000D03*
X109190000Y-66650000D03*
X112740000Y-67100000D03*
X119970000Y-57660000D03*
X122500000Y-56340000D03*
X127490000Y-64520000D03*
G04 #@! TO.N,GND*
X122000000Y-51725000D03*
X98050000Y-57900000D03*
X99800000Y-65500002D03*
X93750000Y-65050000D03*
X101900000Y-59900000D03*
X80512653Y-52612653D03*
X83290000Y-55010000D03*
X121200000Y-48500000D03*
X115210000Y-42710000D03*
X116940000Y-41480000D03*
X119430000Y-42510000D03*
X122670000Y-41650000D03*
X119000000Y-39770000D03*
X120040000Y-37890000D03*
X117190000Y-36500000D03*
X114200000Y-36540000D03*
X118410000Y-34480000D03*
X117650000Y-32830000D03*
X119880000Y-32830000D03*
X119900000Y-36000000D03*
X122174000Y-36420000D03*
X125220000Y-38550000D03*
X127840000Y-40640000D03*
X127600000Y-37800000D03*
X125984000Y-35052000D03*
X127762000Y-33528000D03*
X125580000Y-33240000D03*
X88700000Y-51925000D03*
X103825000Y-65475000D03*
X91625000Y-58775000D03*
G04 #@! TO.N,Earth*
X72750000Y-51450000D03*
X77740000Y-44000000D03*
X77760000Y-45200000D03*
X76120000Y-44820000D03*
X74440000Y-45740000D03*
X73630000Y-44330000D03*
X72350001Y-45590000D03*
X71860000Y-43390000D03*
X72500000Y-41420000D03*
G04 #@! TO.N,+3V3*
X77800000Y-53900000D03*
X83100000Y-53500000D03*
G04 #@! TO.N,SDA*
X127600000Y-55200000D03*
G04 #@! TO.N,Net-(R8-Pad2)*
X81800000Y-52500000D03*
X80350000Y-49750000D03*
D18*
G04 #@! TO.N,Net-(D1-Pad2)*
X76900000Y-58500000D03*
X76600000Y-56700000D03*
X77800000Y-57300000D03*
X78600000Y-58500000D03*
G04 #@! TO.N,Net-(Q1-Pad1)*
X79850000Y-42800000D03*
X73430000Y-48060000D03*
D19*
G04 #@! TO.N,Net-(J1-Pad1)*
X81550000Y-46070000D03*
X83990000Y-46110000D03*
X86370000Y-46100000D03*
X86350000Y-44120000D03*
X83990000Y-44090000D03*
X81520000Y-44170000D03*
X86340000Y-42370000D03*
X84050000Y-42340000D03*
X81510000Y-42370000D03*
X72000000Y-38300000D03*
X74930000Y-37084000D03*
X72000000Y-33100000D03*
X74200000Y-32600000D03*
X79830000Y-32790000D03*
X78890000Y-35600000D03*
X81120000Y-37340000D03*
X79500000Y-39890000D03*
X86480000Y-40100000D03*
X85440000Y-36720000D03*
X86500000Y-32900000D03*
X73500000Y-34500000D03*
X80700000Y-34100000D03*
X77300000Y-36600000D03*
X82500000Y-36400000D03*
X86500000Y-35200000D03*
X73500000Y-39300000D03*
X86300000Y-38000000D03*
G04 #@! TD*
D20*
G04 #@! TO.N,+12V*
X124400000Y-46000000D02*
X123000000Y-47400000D01*
X123000000Y-47400000D02*
X123000000Y-48034323D01*
X123000000Y-48034323D02*
X123000000Y-48600008D01*
G04 #@! TO.N,Earth*
X73350001Y-43629999D02*
X74600000Y-42380000D01*
X72350001Y-51050001D02*
X72350001Y-45590000D01*
X72750000Y-51450000D02*
X72350001Y-51050001D01*
X72350001Y-44629999D02*
X73350001Y-43629999D01*
X72350001Y-45590000D02*
X72350001Y-44629999D01*
G04 #@! TO.N,+3V3*
X78199999Y-53500001D02*
X77800000Y-53900000D01*
X83100000Y-53500000D02*
X78199999Y-53500001D01*
G04 #@! TO.N,SDA*
X107300000Y-55275000D02*
X127600000Y-55200000D01*
X104250000Y-58325000D02*
X107300000Y-55275000D01*
X101800000Y-58325000D02*
X104250000Y-58325000D01*
X100730000Y-55620000D02*
X100730000Y-57255000D01*
X100730000Y-57255000D02*
X101800000Y-58325000D01*
G04 #@! TO.N,SCL*
X117750000Y-50000000D02*
X124400000Y-50000000D01*
X115250000Y-52500000D02*
X117750000Y-50000000D01*
X104011700Y-52500000D02*
X115250000Y-52500000D01*
X103270000Y-53241700D02*
X103270000Y-55620000D01*
X104011700Y-52500000D02*
X103270000Y-53241700D01*
G04 #@! TO.N,Net-(R8-Pad2)*
X81800000Y-52500000D02*
X81800000Y-51200000D01*
X81800000Y-51200000D02*
X80749999Y-50149999D01*
X80749999Y-50149999D02*
X80350000Y-49750000D01*
G04 #@! TO.N,Net-(Q1-Pad1)*
X73590000Y-47900000D02*
X73430000Y-48060000D01*
X79360000Y-47900000D02*
X73590000Y-47900000D01*
X79850000Y-42800000D02*
X79850000Y-47410000D01*
X79850000Y-47410000D02*
X79360000Y-47900000D01*
G04 #@! TD*
D21*
G04 #@! TO.N,GND*
G36*
X96298002Y-51249306D02*
X96298005Y-51251085D01*
X96322791Y-54151063D01*
X95310138Y-56682696D01*
X94816150Y-56740812D01*
X94816150Y-55993000D01*
X94043000Y-55993000D01*
X94043000Y-56013000D01*
X93297000Y-56013000D01*
X93297000Y-55993000D01*
X92523850Y-55993000D01*
X92523850Y-56812150D01*
X92628169Y-56998222D01*
X92158083Y-57053526D01*
X92256748Y-56905864D01*
X92326150Y-56556956D01*
X92326150Y-54683044D01*
X92275389Y-54427850D01*
X92523850Y-54427850D01*
X92523850Y-55247000D01*
X93297000Y-55247000D01*
X93297000Y-53803946D01*
X94043000Y-53803946D01*
X94043000Y-55247000D01*
X94816150Y-55247000D01*
X94816150Y-54427850D01*
X94586164Y-54017630D01*
X94207945Y-53788785D01*
X94043000Y-53803946D01*
X93297000Y-53803946D01*
X93132055Y-53788785D01*
X92753836Y-54017630D01*
X92523850Y-54427850D01*
X92275389Y-54427850D01*
X92256748Y-54334136D01*
X91992375Y-53938475D01*
X91596713Y-53674102D01*
X91130000Y-53581267D01*
X90663286Y-53674102D01*
X90267625Y-53938475D01*
X90003252Y-54334137D01*
X89933850Y-54683045D01*
X89933850Y-56556956D01*
X90003253Y-56905864D01*
X90251772Y-57277798D01*
X89860161Y-57323870D01*
X89819684Y-57335680D01*
X89780146Y-57365550D01*
X89755049Y-57408278D01*
X89748213Y-57457357D01*
X89760680Y-57505316D01*
X90135680Y-58280316D01*
X90170975Y-58324419D01*
X90215036Y-58347092D01*
X90264420Y-58351179D01*
X96389420Y-57651179D01*
X96423058Y-57642556D01*
X96464386Y-57615217D01*
X96492107Y-57574143D01*
X97667107Y-54774143D01*
X97676999Y-54725396D01*
X97694230Y-49200000D01*
X107815615Y-49200000D01*
X107815615Y-50800000D01*
X107844875Y-50947098D01*
X107928199Y-51071801D01*
X108052902Y-51155125D01*
X108200000Y-51184385D01*
X109800000Y-51184385D01*
X109947098Y-51155125D01*
X110071801Y-51071801D01*
X110139234Y-50970880D01*
X111056622Y-50970880D01*
X111162926Y-51098528D01*
X111608973Y-51143900D01*
X111837074Y-51098528D01*
X111943378Y-50970880D01*
X111500000Y-50527502D01*
X111056622Y-50970880D01*
X110139234Y-50970880D01*
X110155125Y-50947098D01*
X110184385Y-50800000D01*
X110184385Y-50108973D01*
X110356100Y-50108973D01*
X110401472Y-50337074D01*
X110529120Y-50443378D01*
X110972498Y-50000000D01*
X112027502Y-50000000D01*
X112470880Y-50443378D01*
X112598528Y-50337074D01*
X112643900Y-49891027D01*
X112598528Y-49662926D01*
X112470880Y-49556622D01*
X112027502Y-50000000D01*
X110972498Y-50000000D01*
X110529120Y-49556622D01*
X110401472Y-49662926D01*
X110356100Y-50108973D01*
X110184385Y-50108973D01*
X110184385Y-49200000D01*
X110155125Y-49052902D01*
X110139235Y-49029120D01*
X111056622Y-49029120D01*
X111500000Y-49472498D01*
X111943378Y-49029120D01*
X111837074Y-48901472D01*
X111391027Y-48856100D01*
X111162926Y-48901472D01*
X111056622Y-49029120D01*
X110139235Y-49029120D01*
X110071801Y-48928199D01*
X109947098Y-48844875D01*
X109800000Y-48815615D01*
X108200000Y-48815615D01*
X108052902Y-48844875D01*
X107928199Y-48928199D01*
X107844875Y-49052902D01*
X107815615Y-49200000D01*
X97694230Y-49200000D01*
X97719178Y-41200000D01*
X107815615Y-41200000D01*
X107815615Y-42800000D01*
X107844875Y-42947098D01*
X107928199Y-43071801D01*
X108052902Y-43155125D01*
X108200000Y-43184385D01*
X109800000Y-43184385D01*
X109947098Y-43155125D01*
X110071801Y-43071801D01*
X110139234Y-42970880D01*
X111056622Y-42970880D01*
X111162926Y-43098528D01*
X111608973Y-43143900D01*
X111837074Y-43098528D01*
X111943378Y-42970880D01*
X111500000Y-42527502D01*
X111056622Y-42970880D01*
X110139234Y-42970880D01*
X110155125Y-42947098D01*
X110184385Y-42800000D01*
X110184385Y-42108973D01*
X110356100Y-42108973D01*
X110401472Y-42337074D01*
X110529120Y-42443378D01*
X110972498Y-42000000D01*
X112027502Y-42000000D01*
X112470880Y-42443378D01*
X112598528Y-42337074D01*
X112643900Y-41891027D01*
X112598528Y-41662926D01*
X112470880Y-41556622D01*
X112027502Y-42000000D01*
X110972498Y-42000000D01*
X110529120Y-41556622D01*
X110401472Y-41662926D01*
X110356100Y-42108973D01*
X110184385Y-42108973D01*
X110184385Y-41200000D01*
X110155125Y-41052902D01*
X110139235Y-41029120D01*
X111056622Y-41029120D01*
X111500000Y-41472498D01*
X111943378Y-41029120D01*
X111837074Y-40901472D01*
X111391027Y-40856100D01*
X111162926Y-40901472D01*
X111056622Y-41029120D01*
X110139235Y-41029120D01*
X110071801Y-40928199D01*
X109947098Y-40844875D01*
X109800000Y-40815615D01*
X108200000Y-40815615D01*
X108052902Y-40844875D01*
X107928199Y-40928199D01*
X107844875Y-41052902D01*
X107815615Y-41200000D01*
X97719178Y-41200000D01*
X97721146Y-40568850D01*
X114453652Y-40568850D01*
X114662914Y-40779854D01*
X115407373Y-40962796D01*
X116165173Y-40846920D01*
X116327086Y-40779854D01*
X116536348Y-40568850D01*
X121463652Y-40568850D01*
X121672914Y-40779854D01*
X122417373Y-40962796D01*
X123175173Y-40846920D01*
X123337086Y-40779854D01*
X123546348Y-40568850D01*
X122505000Y-39527502D01*
X121463652Y-40568850D01*
X116536348Y-40568850D01*
X115495000Y-39527502D01*
X114453652Y-40568850D01*
X97721146Y-40568850D01*
X97726312Y-38912373D01*
X113532204Y-38912373D01*
X113648080Y-39670173D01*
X113715146Y-39832086D01*
X113926150Y-40041348D01*
X114967498Y-39000000D01*
X116022502Y-39000000D01*
X117063850Y-40041348D01*
X117274854Y-39832086D01*
X117457796Y-39087627D01*
X117430998Y-38912373D01*
X120542204Y-38912373D01*
X120658080Y-39670173D01*
X120725146Y-39832086D01*
X120936150Y-40041348D01*
X121977498Y-39000000D01*
X123032502Y-39000000D01*
X124073850Y-40041348D01*
X124284854Y-39832086D01*
X124467796Y-39087627D01*
X124351920Y-38329827D01*
X124284854Y-38167914D01*
X124073850Y-37958652D01*
X123032502Y-39000000D01*
X121977498Y-39000000D01*
X120936150Y-37958652D01*
X120725146Y-38167914D01*
X120542204Y-38912373D01*
X117430998Y-38912373D01*
X117341920Y-38329827D01*
X117274854Y-38167914D01*
X117063850Y-37958652D01*
X116022502Y-39000000D01*
X114967498Y-39000000D01*
X113926150Y-37958652D01*
X113715146Y-38167914D01*
X113532204Y-38912373D01*
X97726312Y-38912373D01*
X97730931Y-37431150D01*
X114453652Y-37431150D01*
X115495000Y-38472498D01*
X116536348Y-37431150D01*
X121463652Y-37431150D01*
X122505000Y-38472498D01*
X123546348Y-37431150D01*
X123337086Y-37220146D01*
X122592627Y-37037204D01*
X121834827Y-37153080D01*
X121672914Y-37220146D01*
X121463652Y-37431150D01*
X116536348Y-37431150D01*
X116327086Y-37220146D01*
X115582627Y-37037204D01*
X114824827Y-37153080D01*
X114662914Y-37220146D01*
X114453652Y-37431150D01*
X97730931Y-37431150D01*
X97736738Y-35568850D01*
X114453652Y-35568850D01*
X114662914Y-35779854D01*
X115407373Y-35962796D01*
X116165173Y-35846920D01*
X116327086Y-35779854D01*
X116536348Y-35568850D01*
X121463652Y-35568850D01*
X121672914Y-35779854D01*
X122417373Y-35962796D01*
X123175173Y-35846920D01*
X123337086Y-35779854D01*
X123546348Y-35568850D01*
X122505000Y-34527502D01*
X121463652Y-35568850D01*
X116536348Y-35568850D01*
X115495000Y-34527502D01*
X114453652Y-35568850D01*
X97736738Y-35568850D01*
X97741904Y-33912373D01*
X113532204Y-33912373D01*
X113648080Y-34670173D01*
X113715146Y-34832086D01*
X113926150Y-35041348D01*
X114967498Y-34000000D01*
X116022502Y-34000000D01*
X117063850Y-35041348D01*
X117274854Y-34832086D01*
X117457796Y-34087627D01*
X117430998Y-33912373D01*
X120542204Y-33912373D01*
X120658080Y-34670173D01*
X120725146Y-34832086D01*
X120936150Y-35041348D01*
X121977498Y-34000000D01*
X123032502Y-34000000D01*
X124073850Y-35041348D01*
X124284854Y-34832086D01*
X124467796Y-34087627D01*
X124351920Y-33329827D01*
X124284854Y-33167914D01*
X124073850Y-32958652D01*
X123032502Y-34000000D01*
X121977498Y-34000000D01*
X120936150Y-32958652D01*
X120725146Y-33167914D01*
X120542204Y-33912373D01*
X117430998Y-33912373D01*
X117341920Y-33329827D01*
X117274854Y-33167914D01*
X117063850Y-32958652D01*
X116022502Y-34000000D01*
X114967498Y-34000000D01*
X113926150Y-32958652D01*
X113715146Y-33167914D01*
X113532204Y-33912373D01*
X97741904Y-33912373D01*
X97746523Y-32431150D01*
X114453652Y-32431150D01*
X115495000Y-33472498D01*
X116536348Y-32431150D01*
X121463652Y-32431150D01*
X122505000Y-33472498D01*
X123546348Y-32431150D01*
X123337086Y-32220146D01*
X122592627Y-32037204D01*
X121834827Y-32153080D01*
X121672914Y-32220146D01*
X121463652Y-32431150D01*
X116536348Y-32431150D01*
X116327086Y-32220146D01*
X115582627Y-32037204D01*
X114824827Y-32153080D01*
X114662914Y-32220146D01*
X114453652Y-32431150D01*
X97746523Y-32431150D01*
X97747753Y-32037000D01*
X127167798Y-32037000D01*
X127633178Y-32103647D01*
X128031533Y-32284769D01*
X128363041Y-32570415D01*
X128601054Y-32937623D01*
X128730914Y-33371846D01*
X128748000Y-33601769D01*
X128748001Y-56306486D01*
X128700630Y-56242425D01*
X128259020Y-55806961D01*
X128164056Y-55738776D01*
X128161405Y-55737439D01*
X128258709Y-55640135D01*
X128377000Y-55354555D01*
X128377000Y-55045445D01*
X128258709Y-54759865D01*
X128040135Y-54541291D01*
X127754555Y-54423000D01*
X127445445Y-54423000D01*
X127159865Y-54541291D01*
X127000946Y-54700210D01*
X125429222Y-54706017D01*
X125440200Y-54695039D01*
X125627000Y-54244065D01*
X125627000Y-53755935D01*
X125440200Y-53304961D01*
X125135239Y-53000000D01*
X125440200Y-52695039D01*
X125627000Y-52244065D01*
X125627000Y-51755935D01*
X125440200Y-51304961D01*
X125135239Y-51000000D01*
X125400000Y-50735239D01*
X125704961Y-51040200D01*
X126155935Y-51227000D01*
X126644065Y-51227000D01*
X127095039Y-51040200D01*
X127440200Y-50695039D01*
X127627000Y-50244065D01*
X127627000Y-49755935D01*
X127440200Y-49304961D01*
X127135239Y-49000000D01*
X127440200Y-48695039D01*
X127627000Y-48244065D01*
X127627000Y-47755935D01*
X127440200Y-47304961D01*
X127095039Y-46959800D01*
X126644065Y-46773000D01*
X126155935Y-46773000D01*
X125704961Y-46959800D01*
X125400000Y-47264761D01*
X125135239Y-47000000D01*
X125440200Y-46695039D01*
X125627000Y-46244065D01*
X125627000Y-45755935D01*
X125440200Y-45304961D01*
X125095039Y-44959800D01*
X124644065Y-44773000D01*
X124155935Y-44773000D01*
X123704961Y-44959800D01*
X123359800Y-45304961D01*
X123173000Y-45755935D01*
X123173000Y-46244065D01*
X123252960Y-46437105D01*
X122679993Y-47010073D01*
X122638079Y-47038079D01*
X122527127Y-47204131D01*
X122498000Y-47350562D01*
X122498000Y-47350566D01*
X122488167Y-47400000D01*
X122498000Y-47449434D01*
X122498001Y-47984881D01*
X122498000Y-47984885D01*
X122498000Y-48003164D01*
X122341291Y-48159873D01*
X122223000Y-48445453D01*
X122223000Y-48754563D01*
X122341291Y-49040143D01*
X122559865Y-49258717D01*
X122845445Y-49377008D01*
X123154555Y-49377008D01*
X123381938Y-49282823D01*
X123359800Y-49304961D01*
X123279840Y-49498000D01*
X117799434Y-49498000D01*
X117750000Y-49488167D01*
X117700566Y-49498000D01*
X117700561Y-49498000D01*
X117554130Y-49527127D01*
X117388079Y-49638079D01*
X117360075Y-49679990D01*
X115042066Y-51998000D01*
X104061133Y-51998000D01*
X104011699Y-51988167D01*
X103962265Y-51998000D01*
X103962261Y-51998000D01*
X103815830Y-52027127D01*
X103815828Y-52027128D01*
X103815829Y-52027128D01*
X103691690Y-52110074D01*
X103691687Y-52110077D01*
X103649779Y-52138079D01*
X103621776Y-52179988D01*
X102949993Y-52851773D01*
X102908079Y-52879779D01*
X102797127Y-53045831D01*
X102768000Y-53192262D01*
X102768000Y-53192266D01*
X102758167Y-53241700D01*
X102768000Y-53291134D01*
X102768000Y-53697679D01*
X102407625Y-53938475D01*
X102143252Y-54334137D01*
X102073850Y-54683045D01*
X102073850Y-56556956D01*
X102143253Y-56905864D01*
X102407626Y-57301525D01*
X102803287Y-57565898D01*
X103270000Y-57658733D01*
X103736714Y-57565898D01*
X104132375Y-57301525D01*
X104396748Y-56905864D01*
X104466150Y-56556956D01*
X104466150Y-54683044D01*
X104396748Y-54334136D01*
X104132375Y-53938475D01*
X103772000Y-53697680D01*
X103772000Y-53449634D01*
X104219636Y-53002000D01*
X115200566Y-53002000D01*
X115250000Y-53011833D01*
X115299434Y-53002000D01*
X115299439Y-53002000D01*
X115445870Y-52972873D01*
X115611921Y-52861921D01*
X115639927Y-52820007D01*
X117957935Y-50502000D01*
X123279840Y-50502000D01*
X123359800Y-50695039D01*
X123664761Y-51000000D01*
X123359800Y-51304961D01*
X123173000Y-51755935D01*
X123173000Y-52244065D01*
X123359800Y-52695039D01*
X123664761Y-53000000D01*
X123359800Y-53304961D01*
X123173000Y-53755935D01*
X123173000Y-54244065D01*
X123359800Y-54695039D01*
X123378355Y-54713594D01*
X107348519Y-54772818D01*
X107299999Y-54763167D01*
X107249642Y-54773184D01*
X107248707Y-54773187D01*
X107201136Y-54782832D01*
X107104129Y-54802128D01*
X107103329Y-54802663D01*
X107102385Y-54802854D01*
X107020434Y-54858051D01*
X106979990Y-54885075D01*
X106979326Y-54885739D01*
X106936745Y-54914419D01*
X106909415Y-54955650D01*
X104042066Y-57823000D01*
X102007935Y-57823000D01*
X101528883Y-57343949D01*
X101592375Y-57301525D01*
X101856748Y-56905864D01*
X101926150Y-56556956D01*
X101926150Y-54683044D01*
X101856748Y-54334136D01*
X101592375Y-53938475D01*
X101196713Y-53674102D01*
X100730000Y-53581267D01*
X100263286Y-53674102D01*
X99867625Y-53938475D01*
X99603252Y-54334137D01*
X99533850Y-54683045D01*
X99533850Y-56556956D01*
X99603253Y-56905864D01*
X99867626Y-57301525D01*
X100263287Y-57565898D01*
X100344825Y-57582117D01*
X100368080Y-57616921D01*
X100409991Y-57644925D01*
X101410075Y-58645010D01*
X101438079Y-58686921D01*
X101479990Y-58714925D01*
X101479991Y-58714926D01*
X101604129Y-58797873D01*
X101635329Y-58804079D01*
X101750561Y-58827000D01*
X101750565Y-58827000D01*
X101800000Y-58836833D01*
X101849435Y-58827000D01*
X104200566Y-58827000D01*
X104250000Y-58836833D01*
X104299434Y-58827000D01*
X104299439Y-58827000D01*
X104445870Y-58797873D01*
X104611921Y-58686921D01*
X104639927Y-58645007D01*
X106084934Y-57200000D01*
X107815615Y-57200000D01*
X107815615Y-58800000D01*
X107844875Y-58947098D01*
X107928199Y-59071801D01*
X108052902Y-59155125D01*
X108200000Y-59184385D01*
X109800000Y-59184385D01*
X109947098Y-59155125D01*
X110071801Y-59071801D01*
X110139234Y-58970880D01*
X111056622Y-58970880D01*
X111162926Y-59098528D01*
X111608973Y-59143900D01*
X111837074Y-59098528D01*
X111943378Y-58970880D01*
X111500000Y-58527502D01*
X111056622Y-58970880D01*
X110139234Y-58970880D01*
X110155125Y-58947098D01*
X110184385Y-58800000D01*
X110184385Y-58108973D01*
X110356100Y-58108973D01*
X110401472Y-58337074D01*
X110529120Y-58443378D01*
X110972498Y-58000000D01*
X110529120Y-57556622D01*
X110401472Y-57662926D01*
X110356100Y-58108973D01*
X110184385Y-58108973D01*
X110184385Y-57200000D01*
X110155125Y-57052902D01*
X110139235Y-57029120D01*
X111056622Y-57029120D01*
X111500000Y-57472498D01*
X111943378Y-57029120D01*
X111837074Y-56901472D01*
X111391027Y-56856100D01*
X111162926Y-56901472D01*
X111056622Y-57029120D01*
X110139235Y-57029120D01*
X110071801Y-56928199D01*
X109947098Y-56844875D01*
X109800000Y-56815615D01*
X108200000Y-56815615D01*
X108052902Y-56844875D01*
X107928199Y-56928199D01*
X107844875Y-57052902D01*
X107815615Y-57200000D01*
X106084934Y-57200000D01*
X107508703Y-55776232D01*
X112845849Y-55756513D01*
X112799006Y-55802872D01*
X112562673Y-56151646D01*
X112505699Y-56286220D01*
X112419754Y-56698664D01*
X112411846Y-56771654D01*
X112402985Y-57624517D01*
X112027502Y-58000000D01*
X112400651Y-58373149D01*
X112400651Y-59027008D01*
X112330160Y-59386278D01*
X112149637Y-59661073D01*
X111878659Y-59847283D01*
X111520933Y-59925242D01*
X108784765Y-59982246D01*
X108735397Y-59986532D01*
X108216835Y-60066162D01*
X108121899Y-60093863D01*
X107641887Y-60305607D01*
X107557422Y-60357044D01*
X107148990Y-60686332D01*
X107080806Y-60757965D01*
X106772059Y-61182139D01*
X106724851Y-61269038D01*
X106537035Y-61758908D01*
X106514048Y-61855094D01*
X106460087Y-62376951D01*
X106458241Y-62426471D01*
X106568200Y-66283260D01*
X106574269Y-66340726D01*
X106684871Y-66941944D01*
X106722795Y-67050756D01*
X107009837Y-67590480D01*
X107078857Y-67682754D01*
X107364904Y-67963000D01*
X87083660Y-67963000D01*
X86864233Y-67847856D01*
X86461183Y-67440556D01*
X86200259Y-66930390D01*
X86104301Y-66355432D01*
X85993820Y-56894430D01*
X85991129Y-56869865D01*
X85889057Y-56382775D01*
X85869836Y-56337497D01*
X85590332Y-55925728D01*
X85555347Y-55891149D01*
X85140343Y-55616473D01*
X85094844Y-55597782D01*
X84606595Y-55501404D01*
X84582000Y-55499000D01*
X79470025Y-55499000D01*
X79206897Y-55464451D01*
X79246519Y-55406428D01*
X79303863Y-55272590D01*
X79384550Y-54894887D01*
X79392820Y-54822207D01*
X79406049Y-54002000D01*
X82503155Y-54001999D01*
X82659865Y-54158709D01*
X82945445Y-54277000D01*
X83254555Y-54277000D01*
X83540135Y-54158709D01*
X83758709Y-53940135D01*
X83877000Y-53654555D01*
X83877000Y-53345445D01*
X83758709Y-53059865D01*
X83540135Y-52841291D01*
X83254555Y-52723000D01*
X82945445Y-52723000D01*
X82659865Y-52841291D01*
X82503156Y-52998000D01*
X82400844Y-52998000D01*
X82458709Y-52940135D01*
X82577000Y-52654555D01*
X82577000Y-52345445D01*
X82458709Y-52059865D01*
X82302000Y-51903156D01*
X82302000Y-51249434D01*
X82311833Y-51200000D01*
X82302000Y-51150566D01*
X82302000Y-51150561D01*
X82272873Y-51004130D01*
X82161921Y-50838079D01*
X82120010Y-50810075D01*
X81139927Y-49829993D01*
X81139925Y-49829990D01*
X81127000Y-49817065D01*
X81127000Y-49595445D01*
X81008709Y-49309865D01*
X80790135Y-49091291D01*
X80504555Y-48973000D01*
X80195445Y-48973000D01*
X79909865Y-49091291D01*
X79691291Y-49309865D01*
X79573000Y-49595445D01*
X79573000Y-49904555D01*
X79691291Y-50190135D01*
X79909865Y-50408709D01*
X80195445Y-50527000D01*
X80417065Y-50527000D01*
X80429990Y-50539925D01*
X80429993Y-50539927D01*
X81298001Y-51407936D01*
X81298000Y-51903156D01*
X81141291Y-52059865D01*
X81023000Y-52345445D01*
X81023000Y-52654555D01*
X81141291Y-52940135D01*
X81199157Y-52998001D01*
X79422243Y-52998001D01*
X79495540Y-48453568D01*
X79993470Y-48438188D01*
X80069370Y-48437332D01*
X84809289Y-48476749D01*
X84811172Y-48476750D01*
X84870476Y-48476364D01*
X84872359Y-48476338D01*
X86482710Y-48441971D01*
X86502402Y-48440009D01*
X87009605Y-48349115D01*
X87046893Y-48336204D01*
X87501716Y-48094019D01*
X87533242Y-48070287D01*
X87891775Y-47700191D01*
X87914495Y-47667929D01*
X88142127Y-47205651D01*
X88153847Y-47167971D01*
X88228601Y-46658139D01*
X88229938Y-46638395D01*
X88097878Y-33937242D01*
X88157644Y-33443730D01*
X88339982Y-32990301D01*
X88633477Y-32599523D01*
X89018117Y-32298035D01*
X89467689Y-32106384D01*
X89956020Y-32037000D01*
X96402971Y-32037000D01*
X96298002Y-51249306D01*
X96298002Y-51249306D01*
G37*
X96298002Y-51249306D02*
X96298005Y-51251085D01*
X96322791Y-54151063D01*
X95310138Y-56682696D01*
X94816150Y-56740812D01*
X94816150Y-55993000D01*
X94043000Y-55993000D01*
X94043000Y-56013000D01*
X93297000Y-56013000D01*
X93297000Y-55993000D01*
X92523850Y-55993000D01*
X92523850Y-56812150D01*
X92628169Y-56998222D01*
X92158083Y-57053526D01*
X92256748Y-56905864D01*
X92326150Y-56556956D01*
X92326150Y-54683044D01*
X92275389Y-54427850D01*
X92523850Y-54427850D01*
X92523850Y-55247000D01*
X93297000Y-55247000D01*
X93297000Y-53803946D01*
X94043000Y-53803946D01*
X94043000Y-55247000D01*
X94816150Y-55247000D01*
X94816150Y-54427850D01*
X94586164Y-54017630D01*
X94207945Y-53788785D01*
X94043000Y-53803946D01*
X93297000Y-53803946D01*
X93132055Y-53788785D01*
X92753836Y-54017630D01*
X92523850Y-54427850D01*
X92275389Y-54427850D01*
X92256748Y-54334136D01*
X91992375Y-53938475D01*
X91596713Y-53674102D01*
X91130000Y-53581267D01*
X90663286Y-53674102D01*
X90267625Y-53938475D01*
X90003252Y-54334137D01*
X89933850Y-54683045D01*
X89933850Y-56556956D01*
X90003253Y-56905864D01*
X90251772Y-57277798D01*
X89860161Y-57323870D01*
X89819684Y-57335680D01*
X89780146Y-57365550D01*
X89755049Y-57408278D01*
X89748213Y-57457357D01*
X89760680Y-57505316D01*
X90135680Y-58280316D01*
X90170975Y-58324419D01*
X90215036Y-58347092D01*
X90264420Y-58351179D01*
X96389420Y-57651179D01*
X96423058Y-57642556D01*
X96464386Y-57615217D01*
X96492107Y-57574143D01*
X97667107Y-54774143D01*
X97676999Y-54725396D01*
X97694230Y-49200000D01*
X107815615Y-49200000D01*
X107815615Y-50800000D01*
X107844875Y-50947098D01*
X107928199Y-51071801D01*
X108052902Y-51155125D01*
X108200000Y-51184385D01*
X109800000Y-51184385D01*
X109947098Y-51155125D01*
X110071801Y-51071801D01*
X110139234Y-50970880D01*
X111056622Y-50970880D01*
X111162926Y-51098528D01*
X111608973Y-51143900D01*
X111837074Y-51098528D01*
X111943378Y-50970880D01*
X111500000Y-50527502D01*
X111056622Y-50970880D01*
X110139234Y-50970880D01*
X110155125Y-50947098D01*
X110184385Y-50800000D01*
X110184385Y-50108973D01*
X110356100Y-50108973D01*
X110401472Y-50337074D01*
X110529120Y-50443378D01*
X110972498Y-50000000D01*
X112027502Y-50000000D01*
X112470880Y-50443378D01*
X112598528Y-50337074D01*
X112643900Y-49891027D01*
X112598528Y-49662926D01*
X112470880Y-49556622D01*
X112027502Y-50000000D01*
X110972498Y-50000000D01*
X110529120Y-49556622D01*
X110401472Y-49662926D01*
X110356100Y-50108973D01*
X110184385Y-50108973D01*
X110184385Y-49200000D01*
X110155125Y-49052902D01*
X110139235Y-49029120D01*
X111056622Y-49029120D01*
X111500000Y-49472498D01*
X111943378Y-49029120D01*
X111837074Y-48901472D01*
X111391027Y-48856100D01*
X111162926Y-48901472D01*
X111056622Y-49029120D01*
X110139235Y-49029120D01*
X110071801Y-48928199D01*
X109947098Y-48844875D01*
X109800000Y-48815615D01*
X108200000Y-48815615D01*
X108052902Y-48844875D01*
X107928199Y-48928199D01*
X107844875Y-49052902D01*
X107815615Y-49200000D01*
X97694230Y-49200000D01*
X97719178Y-41200000D01*
X107815615Y-41200000D01*
X107815615Y-42800000D01*
X107844875Y-42947098D01*
X107928199Y-43071801D01*
X108052902Y-43155125D01*
X108200000Y-43184385D01*
X109800000Y-43184385D01*
X109947098Y-43155125D01*
X110071801Y-43071801D01*
X110139234Y-42970880D01*
X111056622Y-42970880D01*
X111162926Y-43098528D01*
X111608973Y-43143900D01*
X111837074Y-43098528D01*
X111943378Y-42970880D01*
X111500000Y-42527502D01*
X111056622Y-42970880D01*
X110139234Y-42970880D01*
X110155125Y-42947098D01*
X110184385Y-42800000D01*
X110184385Y-42108973D01*
X110356100Y-42108973D01*
X110401472Y-42337074D01*
X110529120Y-42443378D01*
X110972498Y-42000000D01*
X112027502Y-42000000D01*
X112470880Y-42443378D01*
X112598528Y-42337074D01*
X112643900Y-41891027D01*
X112598528Y-41662926D01*
X112470880Y-41556622D01*
X112027502Y-42000000D01*
X110972498Y-42000000D01*
X110529120Y-41556622D01*
X110401472Y-41662926D01*
X110356100Y-42108973D01*
X110184385Y-42108973D01*
X110184385Y-41200000D01*
X110155125Y-41052902D01*
X110139235Y-41029120D01*
X111056622Y-41029120D01*
X111500000Y-41472498D01*
X111943378Y-41029120D01*
X111837074Y-40901472D01*
X111391027Y-40856100D01*
X111162926Y-40901472D01*
X111056622Y-41029120D01*
X110139235Y-41029120D01*
X110071801Y-40928199D01*
X109947098Y-40844875D01*
X109800000Y-40815615D01*
X108200000Y-40815615D01*
X108052902Y-40844875D01*
X107928199Y-40928199D01*
X107844875Y-41052902D01*
X107815615Y-41200000D01*
X97719178Y-41200000D01*
X97721146Y-40568850D01*
X114453652Y-40568850D01*
X114662914Y-40779854D01*
X115407373Y-40962796D01*
X116165173Y-40846920D01*
X116327086Y-40779854D01*
X116536348Y-40568850D01*
X121463652Y-40568850D01*
X121672914Y-40779854D01*
X122417373Y-40962796D01*
X123175173Y-40846920D01*
X123337086Y-40779854D01*
X123546348Y-40568850D01*
X122505000Y-39527502D01*
X121463652Y-40568850D01*
X116536348Y-40568850D01*
X115495000Y-39527502D01*
X114453652Y-40568850D01*
X97721146Y-40568850D01*
X97726312Y-38912373D01*
X113532204Y-38912373D01*
X113648080Y-39670173D01*
X113715146Y-39832086D01*
X113926150Y-40041348D01*
X114967498Y-39000000D01*
X116022502Y-39000000D01*
X117063850Y-40041348D01*
X117274854Y-39832086D01*
X117457796Y-39087627D01*
X117430998Y-38912373D01*
X120542204Y-38912373D01*
X120658080Y-39670173D01*
X120725146Y-39832086D01*
X120936150Y-40041348D01*
X121977498Y-39000000D01*
X123032502Y-39000000D01*
X124073850Y-40041348D01*
X124284854Y-39832086D01*
X124467796Y-39087627D01*
X124351920Y-38329827D01*
X124284854Y-38167914D01*
X124073850Y-37958652D01*
X123032502Y-39000000D01*
X121977498Y-39000000D01*
X120936150Y-37958652D01*
X120725146Y-38167914D01*
X120542204Y-38912373D01*
X117430998Y-38912373D01*
X117341920Y-38329827D01*
X117274854Y-38167914D01*
X117063850Y-37958652D01*
X116022502Y-39000000D01*
X114967498Y-39000000D01*
X113926150Y-37958652D01*
X113715146Y-38167914D01*
X113532204Y-38912373D01*
X97726312Y-38912373D01*
X97730931Y-37431150D01*
X114453652Y-37431150D01*
X115495000Y-38472498D01*
X116536348Y-37431150D01*
X121463652Y-37431150D01*
X122505000Y-38472498D01*
X123546348Y-37431150D01*
X123337086Y-37220146D01*
X122592627Y-37037204D01*
X121834827Y-37153080D01*
X121672914Y-37220146D01*
X121463652Y-37431150D01*
X116536348Y-37431150D01*
X116327086Y-37220146D01*
X115582627Y-37037204D01*
X114824827Y-37153080D01*
X114662914Y-37220146D01*
X114453652Y-37431150D01*
X97730931Y-37431150D01*
X97736738Y-35568850D01*
X114453652Y-35568850D01*
X114662914Y-35779854D01*
X115407373Y-35962796D01*
X116165173Y-35846920D01*
X116327086Y-35779854D01*
X116536348Y-35568850D01*
X121463652Y-35568850D01*
X121672914Y-35779854D01*
X122417373Y-35962796D01*
X123175173Y-35846920D01*
X123337086Y-35779854D01*
X123546348Y-35568850D01*
X122505000Y-34527502D01*
X121463652Y-35568850D01*
X116536348Y-35568850D01*
X115495000Y-34527502D01*
X114453652Y-35568850D01*
X97736738Y-35568850D01*
X97741904Y-33912373D01*
X113532204Y-33912373D01*
X113648080Y-34670173D01*
X113715146Y-34832086D01*
X113926150Y-35041348D01*
X114967498Y-34000000D01*
X116022502Y-34000000D01*
X117063850Y-35041348D01*
X117274854Y-34832086D01*
X117457796Y-34087627D01*
X117430998Y-33912373D01*
X120542204Y-33912373D01*
X120658080Y-34670173D01*
X120725146Y-34832086D01*
X120936150Y-35041348D01*
X121977498Y-34000000D01*
X123032502Y-34000000D01*
X124073850Y-35041348D01*
X124284854Y-34832086D01*
X124467796Y-34087627D01*
X124351920Y-33329827D01*
X124284854Y-33167914D01*
X124073850Y-32958652D01*
X123032502Y-34000000D01*
X121977498Y-34000000D01*
X120936150Y-32958652D01*
X120725146Y-33167914D01*
X120542204Y-33912373D01*
X117430998Y-33912373D01*
X117341920Y-33329827D01*
X117274854Y-33167914D01*
X117063850Y-32958652D01*
X116022502Y-34000000D01*
X114967498Y-34000000D01*
X113926150Y-32958652D01*
X113715146Y-33167914D01*
X113532204Y-33912373D01*
X97741904Y-33912373D01*
X97746523Y-32431150D01*
X114453652Y-32431150D01*
X115495000Y-33472498D01*
X116536348Y-32431150D01*
X121463652Y-32431150D01*
X122505000Y-33472498D01*
X123546348Y-32431150D01*
X123337086Y-32220146D01*
X122592627Y-32037204D01*
X121834827Y-32153080D01*
X121672914Y-32220146D01*
X121463652Y-32431150D01*
X116536348Y-32431150D01*
X116327086Y-32220146D01*
X115582627Y-32037204D01*
X114824827Y-32153080D01*
X114662914Y-32220146D01*
X114453652Y-32431150D01*
X97746523Y-32431150D01*
X97747753Y-32037000D01*
X127167798Y-32037000D01*
X127633178Y-32103647D01*
X128031533Y-32284769D01*
X128363041Y-32570415D01*
X128601054Y-32937623D01*
X128730914Y-33371846D01*
X128748000Y-33601769D01*
X128748001Y-56306486D01*
X128700630Y-56242425D01*
X128259020Y-55806961D01*
X128164056Y-55738776D01*
X128161405Y-55737439D01*
X128258709Y-55640135D01*
X128377000Y-55354555D01*
X128377000Y-55045445D01*
X128258709Y-54759865D01*
X128040135Y-54541291D01*
X127754555Y-54423000D01*
X127445445Y-54423000D01*
X127159865Y-54541291D01*
X127000946Y-54700210D01*
X125429222Y-54706017D01*
X125440200Y-54695039D01*
X125627000Y-54244065D01*
X125627000Y-53755935D01*
X125440200Y-53304961D01*
X125135239Y-53000000D01*
X125440200Y-52695039D01*
X125627000Y-52244065D01*
X125627000Y-51755935D01*
X125440200Y-51304961D01*
X125135239Y-51000000D01*
X125400000Y-50735239D01*
X125704961Y-51040200D01*
X126155935Y-51227000D01*
X126644065Y-51227000D01*
X127095039Y-51040200D01*
X127440200Y-50695039D01*
X127627000Y-50244065D01*
X127627000Y-49755935D01*
X127440200Y-49304961D01*
X127135239Y-49000000D01*
X127440200Y-48695039D01*
X127627000Y-48244065D01*
X127627000Y-47755935D01*
X127440200Y-47304961D01*
X127095039Y-46959800D01*
X126644065Y-46773000D01*
X126155935Y-46773000D01*
X125704961Y-46959800D01*
X125400000Y-47264761D01*
X125135239Y-47000000D01*
X125440200Y-46695039D01*
X125627000Y-46244065D01*
X125627000Y-45755935D01*
X125440200Y-45304961D01*
X125095039Y-44959800D01*
X124644065Y-44773000D01*
X124155935Y-44773000D01*
X123704961Y-44959800D01*
X123359800Y-45304961D01*
X123173000Y-45755935D01*
X123173000Y-46244065D01*
X123252960Y-46437105D01*
X122679993Y-47010073D01*
X122638079Y-47038079D01*
X122527127Y-47204131D01*
X122498000Y-47350562D01*
X122498000Y-47350566D01*
X122488167Y-47400000D01*
X122498000Y-47449434D01*
X122498001Y-47984881D01*
X122498000Y-47984885D01*
X122498000Y-48003164D01*
X122341291Y-48159873D01*
X122223000Y-48445453D01*
X122223000Y-48754563D01*
X122341291Y-49040143D01*
X122559865Y-49258717D01*
X122845445Y-49377008D01*
X123154555Y-49377008D01*
X123381938Y-49282823D01*
X123359800Y-49304961D01*
X123279840Y-49498000D01*
X117799434Y-49498000D01*
X117750000Y-49488167D01*
X117700566Y-49498000D01*
X117700561Y-49498000D01*
X117554130Y-49527127D01*
X117388079Y-49638079D01*
X117360075Y-49679990D01*
X115042066Y-51998000D01*
X104061133Y-51998000D01*
X104011699Y-51988167D01*
X103962265Y-51998000D01*
X103962261Y-51998000D01*
X103815830Y-52027127D01*
X103815828Y-52027128D01*
X103815829Y-52027128D01*
X103691690Y-52110074D01*
X103691687Y-52110077D01*
X103649779Y-52138079D01*
X103621776Y-52179988D01*
X102949993Y-52851773D01*
X102908079Y-52879779D01*
X102797127Y-53045831D01*
X102768000Y-53192262D01*
X102768000Y-53192266D01*
X102758167Y-53241700D01*
X102768000Y-53291134D01*
X102768000Y-53697679D01*
X102407625Y-53938475D01*
X102143252Y-54334137D01*
X102073850Y-54683045D01*
X102073850Y-56556956D01*
X102143253Y-56905864D01*
X102407626Y-57301525D01*
X102803287Y-57565898D01*
X103270000Y-57658733D01*
X103736714Y-57565898D01*
X104132375Y-57301525D01*
X104396748Y-56905864D01*
X104466150Y-56556956D01*
X104466150Y-54683044D01*
X104396748Y-54334136D01*
X104132375Y-53938475D01*
X103772000Y-53697680D01*
X103772000Y-53449634D01*
X104219636Y-53002000D01*
X115200566Y-53002000D01*
X115250000Y-53011833D01*
X115299434Y-53002000D01*
X115299439Y-53002000D01*
X115445870Y-52972873D01*
X115611921Y-52861921D01*
X115639927Y-52820007D01*
X117957935Y-50502000D01*
X123279840Y-50502000D01*
X123359800Y-50695039D01*
X123664761Y-51000000D01*
X123359800Y-51304961D01*
X123173000Y-51755935D01*
X123173000Y-52244065D01*
X123359800Y-52695039D01*
X123664761Y-53000000D01*
X123359800Y-53304961D01*
X123173000Y-53755935D01*
X123173000Y-54244065D01*
X123359800Y-54695039D01*
X123378355Y-54713594D01*
X107348519Y-54772818D01*
X107299999Y-54763167D01*
X107249642Y-54773184D01*
X107248707Y-54773187D01*
X107201136Y-54782832D01*
X107104129Y-54802128D01*
X107103329Y-54802663D01*
X107102385Y-54802854D01*
X107020434Y-54858051D01*
X106979990Y-54885075D01*
X106979326Y-54885739D01*
X106936745Y-54914419D01*
X106909415Y-54955650D01*
X104042066Y-57823000D01*
X102007935Y-57823000D01*
X101528883Y-57343949D01*
X101592375Y-57301525D01*
X101856748Y-56905864D01*
X101926150Y-56556956D01*
X101926150Y-54683044D01*
X101856748Y-54334136D01*
X101592375Y-53938475D01*
X101196713Y-53674102D01*
X100730000Y-53581267D01*
X100263286Y-53674102D01*
X99867625Y-53938475D01*
X99603252Y-54334137D01*
X99533850Y-54683045D01*
X99533850Y-56556956D01*
X99603253Y-56905864D01*
X99867626Y-57301525D01*
X100263287Y-57565898D01*
X100344825Y-57582117D01*
X100368080Y-57616921D01*
X100409991Y-57644925D01*
X101410075Y-58645010D01*
X101438079Y-58686921D01*
X101479990Y-58714925D01*
X101479991Y-58714926D01*
X101604129Y-58797873D01*
X101635329Y-58804079D01*
X101750561Y-58827000D01*
X101750565Y-58827000D01*
X101800000Y-58836833D01*
X101849435Y-58827000D01*
X104200566Y-58827000D01*
X104250000Y-58836833D01*
X104299434Y-58827000D01*
X104299439Y-58827000D01*
X104445870Y-58797873D01*
X104611921Y-58686921D01*
X104639927Y-58645007D01*
X106084934Y-57200000D01*
X107815615Y-57200000D01*
X107815615Y-58800000D01*
X107844875Y-58947098D01*
X107928199Y-59071801D01*
X108052902Y-59155125D01*
X108200000Y-59184385D01*
X109800000Y-59184385D01*
X109947098Y-59155125D01*
X110071801Y-59071801D01*
X110139234Y-58970880D01*
X111056622Y-58970880D01*
X111162926Y-59098528D01*
X111608973Y-59143900D01*
X111837074Y-59098528D01*
X111943378Y-58970880D01*
X111500000Y-58527502D01*
X111056622Y-58970880D01*
X110139234Y-58970880D01*
X110155125Y-58947098D01*
X110184385Y-58800000D01*
X110184385Y-58108973D01*
X110356100Y-58108973D01*
X110401472Y-58337074D01*
X110529120Y-58443378D01*
X110972498Y-58000000D01*
X110529120Y-57556622D01*
X110401472Y-57662926D01*
X110356100Y-58108973D01*
X110184385Y-58108973D01*
X110184385Y-57200000D01*
X110155125Y-57052902D01*
X110139235Y-57029120D01*
X111056622Y-57029120D01*
X111500000Y-57472498D01*
X111943378Y-57029120D01*
X111837074Y-56901472D01*
X111391027Y-56856100D01*
X111162926Y-56901472D01*
X111056622Y-57029120D01*
X110139235Y-57029120D01*
X110071801Y-56928199D01*
X109947098Y-56844875D01*
X109800000Y-56815615D01*
X108200000Y-56815615D01*
X108052902Y-56844875D01*
X107928199Y-56928199D01*
X107844875Y-57052902D01*
X107815615Y-57200000D01*
X106084934Y-57200000D01*
X107508703Y-55776232D01*
X112845849Y-55756513D01*
X112799006Y-55802872D01*
X112562673Y-56151646D01*
X112505699Y-56286220D01*
X112419754Y-56698664D01*
X112411846Y-56771654D01*
X112402985Y-57624517D01*
X112027502Y-58000000D01*
X112400651Y-58373149D01*
X112400651Y-59027008D01*
X112330160Y-59386278D01*
X112149637Y-59661073D01*
X111878659Y-59847283D01*
X111520933Y-59925242D01*
X108784765Y-59982246D01*
X108735397Y-59986532D01*
X108216835Y-60066162D01*
X108121899Y-60093863D01*
X107641887Y-60305607D01*
X107557422Y-60357044D01*
X107148990Y-60686332D01*
X107080806Y-60757965D01*
X106772059Y-61182139D01*
X106724851Y-61269038D01*
X106537035Y-61758908D01*
X106514048Y-61855094D01*
X106460087Y-62376951D01*
X106458241Y-62426471D01*
X106568200Y-66283260D01*
X106574269Y-66340726D01*
X106684871Y-66941944D01*
X106722795Y-67050756D01*
X107009837Y-67590480D01*
X107078857Y-67682754D01*
X107364904Y-67963000D01*
X87083660Y-67963000D01*
X86864233Y-67847856D01*
X86461183Y-67440556D01*
X86200259Y-66930390D01*
X86104301Y-66355432D01*
X85993820Y-56894430D01*
X85991129Y-56869865D01*
X85889057Y-56382775D01*
X85869836Y-56337497D01*
X85590332Y-55925728D01*
X85555347Y-55891149D01*
X85140343Y-55616473D01*
X85094844Y-55597782D01*
X84606595Y-55501404D01*
X84582000Y-55499000D01*
X79470025Y-55499000D01*
X79206897Y-55464451D01*
X79246519Y-55406428D01*
X79303863Y-55272590D01*
X79384550Y-54894887D01*
X79392820Y-54822207D01*
X79406049Y-54002000D01*
X82503155Y-54001999D01*
X82659865Y-54158709D01*
X82945445Y-54277000D01*
X83254555Y-54277000D01*
X83540135Y-54158709D01*
X83758709Y-53940135D01*
X83877000Y-53654555D01*
X83877000Y-53345445D01*
X83758709Y-53059865D01*
X83540135Y-52841291D01*
X83254555Y-52723000D01*
X82945445Y-52723000D01*
X82659865Y-52841291D01*
X82503156Y-52998000D01*
X82400844Y-52998000D01*
X82458709Y-52940135D01*
X82577000Y-52654555D01*
X82577000Y-52345445D01*
X82458709Y-52059865D01*
X82302000Y-51903156D01*
X82302000Y-51249434D01*
X82311833Y-51200000D01*
X82302000Y-51150566D01*
X82302000Y-51150561D01*
X82272873Y-51004130D01*
X82161921Y-50838079D01*
X82120010Y-50810075D01*
X81139927Y-49829993D01*
X81139925Y-49829990D01*
X81127000Y-49817065D01*
X81127000Y-49595445D01*
X81008709Y-49309865D01*
X80790135Y-49091291D01*
X80504555Y-48973000D01*
X80195445Y-48973000D01*
X79909865Y-49091291D01*
X79691291Y-49309865D01*
X79573000Y-49595445D01*
X79573000Y-49904555D01*
X79691291Y-50190135D01*
X79909865Y-50408709D01*
X80195445Y-50527000D01*
X80417065Y-50527000D01*
X80429990Y-50539925D01*
X80429993Y-50539927D01*
X81298001Y-51407936D01*
X81298000Y-51903156D01*
X81141291Y-52059865D01*
X81023000Y-52345445D01*
X81023000Y-52654555D01*
X81141291Y-52940135D01*
X81199157Y-52998001D01*
X79422243Y-52998001D01*
X79495540Y-48453568D01*
X79993470Y-48438188D01*
X80069370Y-48437332D01*
X84809289Y-48476749D01*
X84811172Y-48476750D01*
X84870476Y-48476364D01*
X84872359Y-48476338D01*
X86482710Y-48441971D01*
X86502402Y-48440009D01*
X87009605Y-48349115D01*
X87046893Y-48336204D01*
X87501716Y-48094019D01*
X87533242Y-48070287D01*
X87891775Y-47700191D01*
X87914495Y-47667929D01*
X88142127Y-47205651D01*
X88153847Y-47167971D01*
X88228601Y-46658139D01*
X88229938Y-46638395D01*
X88097878Y-33937242D01*
X88157644Y-33443730D01*
X88339982Y-32990301D01*
X88633477Y-32599523D01*
X89018117Y-32298035D01*
X89467689Y-32106384D01*
X89956020Y-32037000D01*
X96402971Y-32037000D01*
X96298002Y-51249306D01*
G04 #@! TO.N,/+48V*
G36*
X84525583Y-56094243D02*
X84688661Y-56143511D01*
X84839062Y-56223537D01*
X84971038Y-56331264D01*
X85079561Y-56462584D01*
X85160493Y-56612494D01*
X85210749Y-56775278D01*
X85229056Y-56950929D01*
X85294048Y-67688456D01*
X85277610Y-67865660D01*
X85248604Y-67963000D01*
X72822109Y-67963000D01*
X72499746Y-67931392D01*
X72210929Y-67844194D01*
X71944549Y-67702556D01*
X71710752Y-67511876D01*
X71518446Y-67279417D01*
X71374955Y-67014036D01*
X71285741Y-66725833D01*
X71252000Y-66404807D01*
X71252000Y-59449188D01*
X71325460Y-59456437D01*
X71361997Y-59458259D01*
X80054444Y-59469396D01*
X80152113Y-59456654D01*
X80239596Y-59433313D01*
X80408818Y-59335805D01*
X80472882Y-59271823D01*
X80570607Y-59102726D01*
X80594060Y-59015273D01*
X80606927Y-58917620D01*
X80606927Y-57086315D01*
X80605126Y-57049510D01*
X80587994Y-56874860D01*
X80593972Y-56813437D01*
X80642471Y-56651534D01*
X80721279Y-56502021D01*
X80827436Y-56370510D01*
X80956959Y-56261936D01*
X81104986Y-56180375D01*
X81265966Y-56128885D01*
X81440000Y-56108688D01*
X83142435Y-56077161D01*
X83159890Y-56077000D01*
X84349821Y-56077000D01*
X84525583Y-56094243D01*
X84525583Y-56094243D01*
G37*
X84525583Y-56094243D02*
X84688661Y-56143511D01*
X84839062Y-56223537D01*
X84971038Y-56331264D01*
X85079561Y-56462584D01*
X85160493Y-56612494D01*
X85210749Y-56775278D01*
X85229056Y-56950929D01*
X85294048Y-67688456D01*
X85277610Y-67865660D01*
X85248604Y-67963000D01*
X72822109Y-67963000D01*
X72499746Y-67931392D01*
X72210929Y-67844194D01*
X71944549Y-67702556D01*
X71710752Y-67511876D01*
X71518446Y-67279417D01*
X71374955Y-67014036D01*
X71285741Y-66725833D01*
X71252000Y-66404807D01*
X71252000Y-59449188D01*
X71325460Y-59456437D01*
X71361997Y-59458259D01*
X80054444Y-59469396D01*
X80152113Y-59456654D01*
X80239596Y-59433313D01*
X80408818Y-59335805D01*
X80472882Y-59271823D01*
X80570607Y-59102726D01*
X80594060Y-59015273D01*
X80606927Y-58917620D01*
X80606927Y-57086315D01*
X80605126Y-57049510D01*
X80587994Y-56874860D01*
X80593972Y-56813437D01*
X80642471Y-56651534D01*
X80721279Y-56502021D01*
X80827436Y-56370510D01*
X80956959Y-56261936D01*
X81104986Y-56180375D01*
X81265966Y-56128885D01*
X81440000Y-56108688D01*
X83142435Y-56077161D01*
X83159890Y-56077000D01*
X84349821Y-56077000D01*
X84525583Y-56094243D01*
G04 #@! TO.N,+12V*
G36*
X127245212Y-55894061D02*
X127445445Y-55977000D01*
X127517096Y-55977000D01*
X127919336Y-56179827D01*
X128332561Y-56587301D01*
X128601088Y-57101775D01*
X128700787Y-57683655D01*
X128748001Y-61052556D01*
X128748001Y-66382792D01*
X128681353Y-66848178D01*
X128500232Y-67246532D01*
X128214585Y-67578041D01*
X127847377Y-67816053D01*
X127413154Y-67945914D01*
X127183230Y-67963000D01*
X108301385Y-67963000D01*
X107854205Y-67736805D01*
X107682774Y-67568850D01*
X114453652Y-67568850D01*
X114662914Y-67779854D01*
X115407373Y-67962796D01*
X116165173Y-67846920D01*
X116327086Y-67779854D01*
X116536348Y-67568850D01*
X121463652Y-67568850D01*
X121672914Y-67779854D01*
X122417373Y-67962796D01*
X123175173Y-67846920D01*
X123337086Y-67779854D01*
X123546348Y-67568850D01*
X122505000Y-66527502D01*
X121463652Y-67568850D01*
X116536348Y-67568850D01*
X115495000Y-66527502D01*
X114453652Y-67568850D01*
X107682774Y-67568850D01*
X107445599Y-67336485D01*
X107176999Y-66831439D01*
X107071717Y-66259136D01*
X107061831Y-65912373D01*
X113532204Y-65912373D01*
X113648080Y-66670173D01*
X113715146Y-66832086D01*
X113926150Y-67041348D01*
X114967498Y-66000000D01*
X116022502Y-66000000D01*
X117063850Y-67041348D01*
X117274854Y-66832086D01*
X117457796Y-66087627D01*
X117430998Y-65912373D01*
X120542204Y-65912373D01*
X120658080Y-66670173D01*
X120725146Y-66832086D01*
X120936150Y-67041348D01*
X121977498Y-66000000D01*
X123032502Y-66000000D01*
X124073850Y-67041348D01*
X124284854Y-66832086D01*
X124467796Y-66087627D01*
X124351920Y-65329827D01*
X124284854Y-65167914D01*
X124073850Y-64958652D01*
X123032502Y-66000000D01*
X121977498Y-66000000D01*
X120936150Y-64958652D01*
X120725146Y-65167914D01*
X120542204Y-65912373D01*
X117430998Y-65912373D01*
X117341920Y-65329827D01*
X117274854Y-65167914D01*
X117063850Y-64958652D01*
X116022502Y-66000000D01*
X114967498Y-66000000D01*
X113926150Y-64958652D01*
X113715146Y-65167914D01*
X113532204Y-65912373D01*
X107061831Y-65912373D01*
X107019601Y-64431150D01*
X114453652Y-64431150D01*
X115495000Y-65472498D01*
X116536348Y-64431150D01*
X121463652Y-64431150D01*
X122505000Y-65472498D01*
X123546348Y-64431150D01*
X123337086Y-64220146D01*
X122592627Y-64037204D01*
X121834827Y-64153080D01*
X121672914Y-64220146D01*
X121463652Y-64431150D01*
X116536348Y-64431150D01*
X116327086Y-64220146D01*
X115582627Y-64037204D01*
X114824827Y-64153080D01*
X114662914Y-64220146D01*
X114453652Y-64431150D01*
X107019601Y-64431150D01*
X106966505Y-62568850D01*
X114453652Y-62568850D01*
X114662914Y-62779854D01*
X115407373Y-62962796D01*
X116165173Y-62846920D01*
X116327086Y-62779854D01*
X116536348Y-62568850D01*
X121463652Y-62568850D01*
X121672914Y-62779854D01*
X122417373Y-62962796D01*
X123175173Y-62846920D01*
X123337086Y-62779854D01*
X123546348Y-62568850D01*
X122505000Y-61527502D01*
X121463652Y-62568850D01*
X116536348Y-62568850D01*
X115495000Y-61527502D01*
X114453652Y-62568850D01*
X106966505Y-62568850D01*
X106962274Y-62420468D01*
X107013647Y-61923647D01*
X107189433Y-61465153D01*
X107478404Y-61068149D01*
X107671620Y-60912373D01*
X113532204Y-60912373D01*
X113648080Y-61670173D01*
X113715146Y-61832086D01*
X113926150Y-62041348D01*
X114967498Y-61000000D01*
X116022502Y-61000000D01*
X117063850Y-62041348D01*
X117274854Y-61832086D01*
X117457796Y-61087627D01*
X117430998Y-60912373D01*
X120542204Y-60912373D01*
X120658080Y-61670173D01*
X120725146Y-61832086D01*
X120936150Y-62041348D01*
X121977498Y-61000000D01*
X123032502Y-61000000D01*
X124073850Y-62041348D01*
X124284854Y-61832086D01*
X124467796Y-61087627D01*
X124351920Y-60329827D01*
X124284854Y-60167914D01*
X124073850Y-59958652D01*
X123032502Y-61000000D01*
X121977498Y-61000000D01*
X120936150Y-59958652D01*
X120725146Y-60167914D01*
X120542204Y-60912373D01*
X117430998Y-60912373D01*
X117341920Y-60329827D01*
X117274854Y-60167914D01*
X117063850Y-59958652D01*
X116022502Y-61000000D01*
X114967498Y-61000000D01*
X113926150Y-59958652D01*
X113715146Y-60167914D01*
X113532204Y-60912373D01*
X107671620Y-60912373D01*
X107860673Y-60759954D01*
X108309939Y-60561773D01*
X108803632Y-60485962D01*
X111568059Y-60428369D01*
X111592456Y-60425484D01*
X112058251Y-60323973D01*
X112103135Y-60304555D01*
X112496038Y-60034561D01*
X112530257Y-59999622D01*
X112792009Y-59601180D01*
X112810488Y-59555902D01*
X112834965Y-59431150D01*
X114453652Y-59431150D01*
X115495000Y-60472498D01*
X116536348Y-59431150D01*
X121463652Y-59431150D01*
X122505000Y-60472498D01*
X123546348Y-59431150D01*
X123337086Y-59220146D01*
X122592627Y-59037204D01*
X121834827Y-59153080D01*
X121672914Y-59220146D01*
X121463652Y-59431150D01*
X116536348Y-59431150D01*
X116327086Y-59220146D01*
X115582627Y-59037204D01*
X114824827Y-59153080D01*
X114662914Y-59220146D01*
X114453652Y-59431150D01*
X112834965Y-59431150D01*
X112902275Y-59088094D01*
X112904651Y-59063642D01*
X112904651Y-57861806D01*
X112904755Y-57841769D01*
X112915690Y-56789314D01*
X112993982Y-56413598D01*
X113202166Y-56106365D01*
X113511543Y-55901385D01*
X113888056Y-55827000D01*
X126817929Y-55827000D01*
X127245212Y-55894061D01*
X127245212Y-55894061D01*
G37*
X127245212Y-55894061D02*
X127445445Y-55977000D01*
X127517096Y-55977000D01*
X127919336Y-56179827D01*
X128332561Y-56587301D01*
X128601088Y-57101775D01*
X128700787Y-57683655D01*
X128748001Y-61052556D01*
X128748001Y-66382792D01*
X128681353Y-66848178D01*
X128500232Y-67246532D01*
X128214585Y-67578041D01*
X127847377Y-67816053D01*
X127413154Y-67945914D01*
X127183230Y-67963000D01*
X108301385Y-67963000D01*
X107854205Y-67736805D01*
X107682774Y-67568850D01*
X114453652Y-67568850D01*
X114662914Y-67779854D01*
X115407373Y-67962796D01*
X116165173Y-67846920D01*
X116327086Y-67779854D01*
X116536348Y-67568850D01*
X121463652Y-67568850D01*
X121672914Y-67779854D01*
X122417373Y-67962796D01*
X123175173Y-67846920D01*
X123337086Y-67779854D01*
X123546348Y-67568850D01*
X122505000Y-66527502D01*
X121463652Y-67568850D01*
X116536348Y-67568850D01*
X115495000Y-66527502D01*
X114453652Y-67568850D01*
X107682774Y-67568850D01*
X107445599Y-67336485D01*
X107176999Y-66831439D01*
X107071717Y-66259136D01*
X107061831Y-65912373D01*
X113532204Y-65912373D01*
X113648080Y-66670173D01*
X113715146Y-66832086D01*
X113926150Y-67041348D01*
X114967498Y-66000000D01*
X116022502Y-66000000D01*
X117063850Y-67041348D01*
X117274854Y-66832086D01*
X117457796Y-66087627D01*
X117430998Y-65912373D01*
X120542204Y-65912373D01*
X120658080Y-66670173D01*
X120725146Y-66832086D01*
X120936150Y-67041348D01*
X121977498Y-66000000D01*
X123032502Y-66000000D01*
X124073850Y-67041348D01*
X124284854Y-66832086D01*
X124467796Y-66087627D01*
X124351920Y-65329827D01*
X124284854Y-65167914D01*
X124073850Y-64958652D01*
X123032502Y-66000000D01*
X121977498Y-66000000D01*
X120936150Y-64958652D01*
X120725146Y-65167914D01*
X120542204Y-65912373D01*
X117430998Y-65912373D01*
X117341920Y-65329827D01*
X117274854Y-65167914D01*
X117063850Y-64958652D01*
X116022502Y-66000000D01*
X114967498Y-66000000D01*
X113926150Y-64958652D01*
X113715146Y-65167914D01*
X113532204Y-65912373D01*
X107061831Y-65912373D01*
X107019601Y-64431150D01*
X114453652Y-64431150D01*
X115495000Y-65472498D01*
X116536348Y-64431150D01*
X121463652Y-64431150D01*
X122505000Y-65472498D01*
X123546348Y-64431150D01*
X123337086Y-64220146D01*
X122592627Y-64037204D01*
X121834827Y-64153080D01*
X121672914Y-64220146D01*
X121463652Y-64431150D01*
X116536348Y-64431150D01*
X116327086Y-64220146D01*
X115582627Y-64037204D01*
X114824827Y-64153080D01*
X114662914Y-64220146D01*
X114453652Y-64431150D01*
X107019601Y-64431150D01*
X106966505Y-62568850D01*
X114453652Y-62568850D01*
X114662914Y-62779854D01*
X115407373Y-62962796D01*
X116165173Y-62846920D01*
X116327086Y-62779854D01*
X116536348Y-62568850D01*
X121463652Y-62568850D01*
X121672914Y-62779854D01*
X122417373Y-62962796D01*
X123175173Y-62846920D01*
X123337086Y-62779854D01*
X123546348Y-62568850D01*
X122505000Y-61527502D01*
X121463652Y-62568850D01*
X116536348Y-62568850D01*
X115495000Y-61527502D01*
X114453652Y-62568850D01*
X106966505Y-62568850D01*
X106962274Y-62420468D01*
X107013647Y-61923647D01*
X107189433Y-61465153D01*
X107478404Y-61068149D01*
X107671620Y-60912373D01*
X113532204Y-60912373D01*
X113648080Y-61670173D01*
X113715146Y-61832086D01*
X113926150Y-62041348D01*
X114967498Y-61000000D01*
X116022502Y-61000000D01*
X117063850Y-62041348D01*
X117274854Y-61832086D01*
X117457796Y-61087627D01*
X117430998Y-60912373D01*
X120542204Y-60912373D01*
X120658080Y-61670173D01*
X120725146Y-61832086D01*
X120936150Y-62041348D01*
X121977498Y-61000000D01*
X123032502Y-61000000D01*
X124073850Y-62041348D01*
X124284854Y-61832086D01*
X124467796Y-61087627D01*
X124351920Y-60329827D01*
X124284854Y-60167914D01*
X124073850Y-59958652D01*
X123032502Y-61000000D01*
X121977498Y-61000000D01*
X120936150Y-59958652D01*
X120725146Y-60167914D01*
X120542204Y-60912373D01*
X117430998Y-60912373D01*
X117341920Y-60329827D01*
X117274854Y-60167914D01*
X117063850Y-59958652D01*
X116022502Y-61000000D01*
X114967498Y-61000000D01*
X113926150Y-59958652D01*
X113715146Y-60167914D01*
X113532204Y-60912373D01*
X107671620Y-60912373D01*
X107860673Y-60759954D01*
X108309939Y-60561773D01*
X108803632Y-60485962D01*
X111568059Y-60428369D01*
X111592456Y-60425484D01*
X112058251Y-60323973D01*
X112103135Y-60304555D01*
X112496038Y-60034561D01*
X112530257Y-59999622D01*
X112792009Y-59601180D01*
X112810488Y-59555902D01*
X112834965Y-59431150D01*
X114453652Y-59431150D01*
X115495000Y-60472498D01*
X116536348Y-59431150D01*
X121463652Y-59431150D01*
X122505000Y-60472498D01*
X123546348Y-59431150D01*
X123337086Y-59220146D01*
X122592627Y-59037204D01*
X121834827Y-59153080D01*
X121672914Y-59220146D01*
X121463652Y-59431150D01*
X116536348Y-59431150D01*
X116327086Y-59220146D01*
X115582627Y-59037204D01*
X114824827Y-59153080D01*
X114662914Y-59220146D01*
X114453652Y-59431150D01*
X112834965Y-59431150D01*
X112902275Y-59088094D01*
X112904651Y-59063642D01*
X112904651Y-57861806D01*
X112904755Y-57841769D01*
X112915690Y-56789314D01*
X112993982Y-56413598D01*
X113202166Y-56106365D01*
X113511543Y-55901385D01*
X113888056Y-55827000D01*
X126817929Y-55827000D01*
X127245212Y-55894061D01*
G04 #@! TO.N,Earth*
G36*
X75346851Y-40647752D02*
X75375119Y-40676020D01*
X75821462Y-40860901D01*
X75846283Y-40877350D01*
X76035675Y-41157296D01*
X76106740Y-41500699D01*
X76114472Y-42389830D01*
X76117067Y-42414291D01*
X76194680Y-42791952D01*
X76213598Y-42837116D01*
X76428320Y-43157345D01*
X76462918Y-43191994D01*
X76782830Y-43407188D01*
X76827965Y-43426172D01*
X77205511Y-43504341D01*
X77229969Y-43506972D01*
X78180227Y-43516635D01*
X78526383Y-43589426D01*
X78807476Y-43782332D01*
X78992928Y-44068404D01*
X79056591Y-44416354D01*
X79008500Y-47398000D01*
X73639433Y-47398000D01*
X73589999Y-47388167D01*
X73581311Y-47389895D01*
X73564664Y-47383000D01*
X73295336Y-47383000D01*
X73046510Y-47486067D01*
X72856067Y-47676510D01*
X72753000Y-47925336D01*
X72753000Y-48194664D01*
X72856067Y-48443490D01*
X73046510Y-48633933D01*
X73295336Y-48737000D01*
X73562074Y-48737000D01*
X73220696Y-49078378D01*
X72973000Y-49676370D01*
X72973000Y-50323630D01*
X73220696Y-50921622D01*
X73678378Y-51379304D01*
X74276370Y-51627000D01*
X74923630Y-51627000D01*
X75521622Y-51379304D01*
X75979304Y-50921622D01*
X76227000Y-50323630D01*
X76227000Y-49676370D01*
X75979304Y-49078378D01*
X75521622Y-48620696D01*
X74993642Y-48402000D01*
X78992307Y-48402000D01*
X78918178Y-52998002D01*
X78249437Y-52998002D01*
X78199998Y-52988168D01*
X78004128Y-53027129D01*
X77879990Y-53110075D01*
X77879986Y-53110079D01*
X77860648Y-53123000D01*
X77645445Y-53123000D01*
X77359865Y-53241291D01*
X77141291Y-53459865D01*
X77023000Y-53745445D01*
X77023000Y-54054555D01*
X77141291Y-54340135D01*
X77359865Y-54558709D01*
X77645445Y-54677000D01*
X77954555Y-54677000D01*
X78240135Y-54558709D01*
X78458709Y-54340135D01*
X78577000Y-54054555D01*
X78577000Y-54002001D01*
X78901984Y-54002001D01*
X78889086Y-54801697D01*
X78816206Y-55142855D01*
X78626597Y-55420525D01*
X78345902Y-55605633D01*
X78003622Y-55673000D01*
X73492958Y-55673000D01*
X71355344Y-55659479D01*
X71343659Y-55659987D01*
X71252000Y-55641794D01*
X71252000Y-40648759D01*
X71365054Y-40626136D01*
X75220477Y-40622855D01*
X75346851Y-40647752D01*
X75346851Y-40647752D01*
G37*
X75346851Y-40647752D02*
X75375119Y-40676020D01*
X75821462Y-40860901D01*
X75846283Y-40877350D01*
X76035675Y-41157296D01*
X76106740Y-41500699D01*
X76114472Y-42389830D01*
X76117067Y-42414291D01*
X76194680Y-42791952D01*
X76213598Y-42837116D01*
X76428320Y-43157345D01*
X76462918Y-43191994D01*
X76782830Y-43407188D01*
X76827965Y-43426172D01*
X77205511Y-43504341D01*
X77229969Y-43506972D01*
X78180227Y-43516635D01*
X78526383Y-43589426D01*
X78807476Y-43782332D01*
X78992928Y-44068404D01*
X79056591Y-44416354D01*
X79008500Y-47398000D01*
X73639433Y-47398000D01*
X73589999Y-47388167D01*
X73581311Y-47389895D01*
X73564664Y-47383000D01*
X73295336Y-47383000D01*
X73046510Y-47486067D01*
X72856067Y-47676510D01*
X72753000Y-47925336D01*
X72753000Y-48194664D01*
X72856067Y-48443490D01*
X73046510Y-48633933D01*
X73295336Y-48737000D01*
X73562074Y-48737000D01*
X73220696Y-49078378D01*
X72973000Y-49676370D01*
X72973000Y-50323630D01*
X73220696Y-50921622D01*
X73678378Y-51379304D01*
X74276370Y-51627000D01*
X74923630Y-51627000D01*
X75521622Y-51379304D01*
X75979304Y-50921622D01*
X76227000Y-50323630D01*
X76227000Y-49676370D01*
X75979304Y-49078378D01*
X75521622Y-48620696D01*
X74993642Y-48402000D01*
X78992307Y-48402000D01*
X78918178Y-52998002D01*
X78249437Y-52998002D01*
X78199998Y-52988168D01*
X78004128Y-53027129D01*
X77879990Y-53110075D01*
X77879986Y-53110079D01*
X77860648Y-53123000D01*
X77645445Y-53123000D01*
X77359865Y-53241291D01*
X77141291Y-53459865D01*
X77023000Y-53745445D01*
X77023000Y-54054555D01*
X77141291Y-54340135D01*
X77359865Y-54558709D01*
X77645445Y-54677000D01*
X77954555Y-54677000D01*
X78240135Y-54558709D01*
X78458709Y-54340135D01*
X78577000Y-54054555D01*
X78577000Y-54002001D01*
X78901984Y-54002001D01*
X78889086Y-54801697D01*
X78816206Y-55142855D01*
X78626597Y-55420525D01*
X78345902Y-55605633D01*
X78003622Y-55673000D01*
X73492958Y-55673000D01*
X71355344Y-55659479D01*
X71343659Y-55659987D01*
X71252000Y-55641794D01*
X71252000Y-40648759D01*
X71365054Y-40626136D01*
X75220477Y-40622855D01*
X75346851Y-40647752D01*
G04 #@! TO.N,Net-(J1-Pad1)*
G36*
X86827422Y-32002415D02*
X87106858Y-32189935D01*
X87294297Y-32469429D01*
X87364256Y-32811495D01*
X87465629Y-46831123D01*
X87398764Y-47178755D01*
X87210492Y-47463300D01*
X86927318Y-47653623D01*
X86580178Y-47723000D01*
X80184476Y-47723000D01*
X80275775Y-47586362D01*
X80302000Y-47454518D01*
X80310855Y-47410000D01*
X80302000Y-47365482D01*
X80302000Y-43234712D01*
X80381545Y-43155167D01*
X80477000Y-42924718D01*
X80477000Y-42675282D01*
X80381545Y-42444833D01*
X80205167Y-42268455D01*
X79974718Y-42173000D01*
X79725282Y-42173000D01*
X79494833Y-42268455D01*
X79318455Y-42444833D01*
X79223000Y-42675282D01*
X79223000Y-42924718D01*
X79318455Y-43155167D01*
X79398000Y-43234712D01*
X79398000Y-43766729D01*
X79216592Y-43486894D01*
X79113571Y-43381128D01*
X78790657Y-43159521D01*
X78654915Y-43101432D01*
X78271656Y-43020839D01*
X78197910Y-43012789D01*
X77271770Y-43003371D01*
X77002677Y-42947657D01*
X76805678Y-42815142D01*
X76673452Y-42617945D01*
X76618134Y-42348770D01*
X76610613Y-41483871D01*
X76602805Y-41410750D01*
X76524125Y-41030549D01*
X76467201Y-40895698D01*
X76249643Y-40574120D01*
X76145648Y-40471114D01*
X75822008Y-40256636D01*
X75686621Y-40201002D01*
X75305686Y-40125954D01*
X75232493Y-40118844D01*
X71352098Y-40122147D01*
X71281357Y-40129186D01*
X71202000Y-38477866D01*
X71202000Y-33613639D01*
X71270167Y-33137646D01*
X71457217Y-32726254D01*
X71752212Y-32383895D01*
X72131437Y-32138094D01*
X72577721Y-32004627D01*
X72814921Y-31987000D01*
X86752164Y-31987000D01*
X86827422Y-32002415D01*
X86827422Y-32002415D01*
G37*
X86827422Y-32002415D02*
X87106858Y-32189935D01*
X87294297Y-32469429D01*
X87364256Y-32811495D01*
X87465629Y-46831123D01*
X87398764Y-47178755D01*
X87210492Y-47463300D01*
X86927318Y-47653623D01*
X86580178Y-47723000D01*
X80184476Y-47723000D01*
X80275775Y-47586362D01*
X80302000Y-47454518D01*
X80310855Y-47410000D01*
X80302000Y-47365482D01*
X80302000Y-43234712D01*
X80381545Y-43155167D01*
X80477000Y-42924718D01*
X80477000Y-42675282D01*
X80381545Y-42444833D01*
X80205167Y-42268455D01*
X79974718Y-42173000D01*
X79725282Y-42173000D01*
X79494833Y-42268455D01*
X79318455Y-42444833D01*
X79223000Y-42675282D01*
X79223000Y-42924718D01*
X79318455Y-43155167D01*
X79398000Y-43234712D01*
X79398000Y-43766729D01*
X79216592Y-43486894D01*
X79113571Y-43381128D01*
X78790657Y-43159521D01*
X78654915Y-43101432D01*
X78271656Y-43020839D01*
X78197910Y-43012789D01*
X77271770Y-43003371D01*
X77002677Y-42947657D01*
X76805678Y-42815142D01*
X76673452Y-42617945D01*
X76618134Y-42348770D01*
X76610613Y-41483871D01*
X76602805Y-41410750D01*
X76524125Y-41030549D01*
X76467201Y-40895698D01*
X76249643Y-40574120D01*
X76145648Y-40471114D01*
X75822008Y-40256636D01*
X75686621Y-40201002D01*
X75305686Y-40125954D01*
X75232493Y-40118844D01*
X71352098Y-40122147D01*
X71281357Y-40129186D01*
X71202000Y-38477866D01*
X71202000Y-33613639D01*
X71270167Y-33137646D01*
X71457217Y-32726254D01*
X71752212Y-32383895D01*
X72131437Y-32138094D01*
X72577721Y-32004627D01*
X72814921Y-31987000D01*
X86752164Y-31987000D01*
X86827422Y-32002415D01*
G04 #@! TO.N,Net-(D1-Pad2)*
G36*
X79229235Y-56213293D02*
X79404855Y-56231641D01*
X79567592Y-56281922D01*
X79717466Y-56362871D01*
X79848749Y-56471396D01*
X79956441Y-56603363D01*
X80036438Y-56753740D01*
X80085689Y-56916798D01*
X80102927Y-57092525D01*
X80102927Y-58900885D01*
X80092630Y-58939281D01*
X80076764Y-58955127D01*
X80038355Y-58965375D01*
X71368809Y-58954267D01*
X71252000Y-58942741D01*
X71252000Y-56173469D01*
X71358489Y-56163508D01*
X79229235Y-56213293D01*
X79229235Y-56213293D01*
G37*
X79229235Y-56213293D02*
X79404855Y-56231641D01*
X79567592Y-56281922D01*
X79717466Y-56362871D01*
X79848749Y-56471396D01*
X79956441Y-56603363D01*
X80036438Y-56753740D01*
X80085689Y-56916798D01*
X80102927Y-57092525D01*
X80102927Y-58900885D01*
X80092630Y-58939281D01*
X80076764Y-58955127D01*
X80038355Y-58965375D01*
X71368809Y-58954267D01*
X71252000Y-58942741D01*
X71252000Y-56173469D01*
X71358489Y-56163508D01*
X79229235Y-56213293D01*
G04 #@! TD*
M02*
