G04 #@! TF.GenerationSoftware,KiCad,Pcbnew,(5.0.0)*
G04 #@! TF.CreationDate,2018-11-03T21:11:35-02:30*
G04 #@! TF.ProjectId,DC-DC Board,44432D444320426F6172642E6B696361,rev?*
G04 #@! TF.SameCoordinates,Original*
G04 #@! TF.FileFunction,Soldermask,Top*
G04 #@! TF.FilePolarity,Negative*
%FSLAX46Y46*%
G04 Gerber Fmt 4.6, Leading zero omitted, Abs format (unit mm)*
G04 Created by KiCad (PCBNEW (5.0.0)) date 11/03/18 21:11:35*
%MOMM*%
%LPD*%
G01*
G04 APERTURE LIST*
%ADD10O,1.841500X3.479800*%
%ADD11C,1.900000*%
%ADD12C,2.100000*%
%ADD13C,3.900000*%
%ADD14C,2.900000*%
%ADD15R,1.650000X1.400000*%
%ADD16C,0.100000*%
%ADD17C,1.200000*%
%ADD18R,1.250000X0.700000*%
%ADD19R,0.700000X1.250000*%
%ADD20C,3.600000*%
%ADD21R,2.000000X2.000000*%
%ADD22C,2.000000*%
%ADD23R,1.600000X1.600000*%
%ADD24R,1.460000X1.050000*%
%ADD25R,1.100000X1.700000*%
%ADD26R,1.700000X1.100000*%
%ADD27C,1.400000*%
%ADD28R,1.400000X1.650000*%
%ADD29R,1.300000X0.900000*%
%ADD30R,6.800000X6.200000*%
%ADD31R,2.600000X1.600000*%
G04 APERTURE END LIST*
D10*
G04 #@! TO.C,J6*
X91130000Y-55620000D03*
X93670000Y-55620000D03*
G04 #@! TD*
D11*
G04 #@! TO.C,U1*
X126400000Y-54000000D03*
D12*
X124400000Y-54000000D03*
X124400000Y-52000000D03*
X126400000Y-52000000D03*
X124400000Y-50000000D03*
X126400000Y-50000000D03*
X126400000Y-48000000D03*
X124400000Y-48000000D03*
X126400000Y-46000000D03*
X124400000Y-46000000D03*
D13*
X125400000Y-57620000D03*
X125400000Y-42380000D03*
D14*
X74600000Y-57620000D03*
X74600000Y-50000000D03*
X74600000Y-42380000D03*
G04 #@! TD*
D15*
G04 #@! TO.C,C4*
X121650000Y-46000000D03*
X121650000Y-44000000D03*
G04 #@! TD*
D16*
G04 #@! TO.C,U2*
G36*
X81337643Y-55715867D02*
X81355116Y-55718459D01*
X81372251Y-55722751D01*
X81388883Y-55728702D01*
X81404851Y-55736254D01*
X81420003Y-55745335D01*
X81434191Y-55755858D01*
X81447279Y-55767721D01*
X81459142Y-55780809D01*
X81469665Y-55794997D01*
X81478746Y-55810149D01*
X81486298Y-55826117D01*
X81492249Y-55842749D01*
X81496541Y-55859884D01*
X81499133Y-55877357D01*
X81500000Y-55895000D01*
X81500000Y-57205000D01*
X81499133Y-57222643D01*
X81496541Y-57240116D01*
X81492249Y-57257251D01*
X81486298Y-57273883D01*
X81478746Y-57289851D01*
X81469665Y-57305003D01*
X81459142Y-57319191D01*
X81447279Y-57332279D01*
X81434191Y-57344142D01*
X81420003Y-57354665D01*
X81404851Y-57363746D01*
X81388883Y-57371298D01*
X81372251Y-57377249D01*
X81355116Y-57381541D01*
X81337643Y-57384133D01*
X81320000Y-57385000D01*
X80480000Y-57385000D01*
X80462357Y-57384133D01*
X80444884Y-57381541D01*
X80427749Y-57377249D01*
X80411117Y-57371298D01*
X80395149Y-57363746D01*
X80379997Y-57354665D01*
X80365809Y-57344142D01*
X80352721Y-57332279D01*
X80340858Y-57319191D01*
X80330335Y-57305003D01*
X80321254Y-57289851D01*
X80313702Y-57273883D01*
X80307751Y-57257251D01*
X80303459Y-57240116D01*
X80300867Y-57222643D01*
X80300000Y-57205000D01*
X80300000Y-55895000D01*
X80300867Y-55877357D01*
X80303459Y-55859884D01*
X80307751Y-55842749D01*
X80313702Y-55826117D01*
X80321254Y-55810149D01*
X80330335Y-55794997D01*
X80340858Y-55780809D01*
X80352721Y-55767721D01*
X80365809Y-55755858D01*
X80379997Y-55745335D01*
X80395149Y-55736254D01*
X80411117Y-55728702D01*
X80427749Y-55722751D01*
X80444884Y-55718459D01*
X80462357Y-55715867D01*
X80480000Y-55715000D01*
X81320000Y-55715000D01*
X81337643Y-55715867D01*
X81337643Y-55715867D01*
G37*
D17*
X80900000Y-56550000D03*
D16*
G36*
X80337643Y-55715867D02*
X80355116Y-55718459D01*
X80372251Y-55722751D01*
X80388883Y-55728702D01*
X80404851Y-55736254D01*
X80420003Y-55745335D01*
X80434191Y-55755858D01*
X80447279Y-55767721D01*
X80459142Y-55780809D01*
X80469665Y-55794997D01*
X80478746Y-55810149D01*
X80486298Y-55826117D01*
X80492249Y-55842749D01*
X80496541Y-55859884D01*
X80499133Y-55877357D01*
X80500000Y-55895000D01*
X80500000Y-57205000D01*
X80499133Y-57222643D01*
X80496541Y-57240116D01*
X80492249Y-57257251D01*
X80486298Y-57273883D01*
X80478746Y-57289851D01*
X80469665Y-57305003D01*
X80459142Y-57319191D01*
X80447279Y-57332279D01*
X80434191Y-57344142D01*
X80420003Y-57354665D01*
X80404851Y-57363746D01*
X80388883Y-57371298D01*
X80372251Y-57377249D01*
X80355116Y-57381541D01*
X80337643Y-57384133D01*
X80320000Y-57385000D01*
X79480000Y-57385000D01*
X79462357Y-57384133D01*
X79444884Y-57381541D01*
X79427749Y-57377249D01*
X79411117Y-57371298D01*
X79395149Y-57363746D01*
X79379997Y-57354665D01*
X79365809Y-57344142D01*
X79352721Y-57332279D01*
X79340858Y-57319191D01*
X79330335Y-57305003D01*
X79321254Y-57289851D01*
X79313702Y-57273883D01*
X79307751Y-57257251D01*
X79303459Y-57240116D01*
X79300867Y-57222643D01*
X79300000Y-57205000D01*
X79300000Y-55895000D01*
X79300867Y-55877357D01*
X79303459Y-55859884D01*
X79307751Y-55842749D01*
X79313702Y-55826117D01*
X79321254Y-55810149D01*
X79330335Y-55794997D01*
X79340858Y-55780809D01*
X79352721Y-55767721D01*
X79365809Y-55755858D01*
X79379997Y-55745335D01*
X79395149Y-55736254D01*
X79411117Y-55728702D01*
X79427749Y-55722751D01*
X79444884Y-55718459D01*
X79462357Y-55715867D01*
X79480000Y-55715000D01*
X80320000Y-55715000D01*
X80337643Y-55715867D01*
X80337643Y-55715867D01*
G37*
D17*
X79900000Y-56550000D03*
D18*
X81900000Y-54950000D03*
X81900000Y-54450000D03*
D19*
X81150000Y-53700000D03*
X79650000Y-53700000D03*
X80650000Y-53700000D03*
X80150000Y-53700000D03*
D18*
X78900000Y-54450000D03*
X78900000Y-54950000D03*
G04 #@! TD*
D20*
G04 #@! TO.C,J1*
X76495000Y-34000000D03*
X83505000Y-34000000D03*
X83505000Y-39000000D03*
X76495000Y-39000000D03*
G04 #@! TD*
G04 #@! TO.C,J2*
X76495000Y-61000000D03*
X83505000Y-61000000D03*
X83505000Y-66000000D03*
X76495000Y-66000000D03*
G04 #@! TD*
G04 #@! TO.C,J3*
X115495000Y-34000000D03*
X122505000Y-34000000D03*
X122505000Y-39000000D03*
X115495000Y-39000000D03*
G04 #@! TD*
G04 #@! TO.C,J4*
X115495000Y-61000000D03*
X122505000Y-61000000D03*
X122505000Y-66000000D03*
X115495000Y-66000000D03*
G04 #@! TD*
D15*
G04 #@! TO.C,C1*
X87000000Y-49800000D03*
X87000000Y-51800000D03*
G04 #@! TD*
G04 #@! TO.C,C2*
X84950000Y-49800000D03*
X84950000Y-51800000D03*
G04 #@! TD*
G04 #@! TO.C,C3*
X115250000Y-46000000D03*
X115250000Y-44000000D03*
G04 #@! TD*
G04 #@! TO.C,C5*
X105500000Y-63350000D03*
X105500000Y-65350000D03*
G04 #@! TD*
D21*
G04 #@! TO.C,C6*
X109000000Y-58000000D03*
D22*
X111500000Y-58000000D03*
G04 #@! TD*
D15*
G04 #@! TO.C,C7*
X98000000Y-63500000D03*
X98000000Y-65500000D03*
G04 #@! TD*
D21*
G04 #@! TO.C,C8*
X109000000Y-42000000D03*
D22*
X111500000Y-42000000D03*
G04 #@! TD*
D15*
G04 #@! TO.C,C9*
X98000000Y-61300000D03*
X98000000Y-59300000D03*
G04 #@! TD*
D21*
G04 #@! TO.C,C10*
X109000000Y-50000000D03*
D22*
X111500000Y-50000000D03*
G04 #@! TD*
D15*
G04 #@! TO.C,C11*
X90200000Y-63400000D03*
X90200000Y-61400000D03*
G04 #@! TD*
D23*
G04 #@! TO.C,D1*
X74000000Y-54650000D03*
X76200000Y-54650000D03*
G04 #@! TD*
G04 #@! TO.C,D3*
X120075000Y-55925000D03*
X120075000Y-53725000D03*
G04 #@! TD*
D24*
G04 #@! TO.C,U4*
X94800000Y-63350000D03*
X94800000Y-62400000D03*
X94800000Y-61450000D03*
X92600000Y-61450000D03*
X92600000Y-63350000D03*
G04 #@! TD*
D25*
G04 #@! TO.C,R2*
X76250000Y-52650000D03*
X74350000Y-52650000D03*
G04 #@! TD*
D26*
G04 #@! TO.C,R3*
X117400000Y-45950000D03*
X117400000Y-44050000D03*
G04 #@! TD*
G04 #@! TO.C,R4*
X119500000Y-45950000D03*
X119500000Y-44050000D03*
G04 #@! TD*
D25*
G04 #@! TO.C,R6*
X120050000Y-50000000D03*
X121950000Y-50000000D03*
G04 #@! TD*
D26*
G04 #@! TO.C,R8*
X78400000Y-51950000D03*
X78400000Y-50050000D03*
G04 #@! TD*
D24*
G04 #@! TO.C,U3*
X103000000Y-63150000D03*
X103000000Y-62200000D03*
X103000000Y-61250000D03*
X100800000Y-61250000D03*
X100800000Y-63150000D03*
G04 #@! TD*
D27*
G04 #@! TO.C,TP2*
X94800000Y-59250000D03*
G04 #@! TD*
D28*
G04 #@! TO.C,C12*
X88000000Y-59800000D03*
X90000000Y-59800000D03*
G04 #@! TD*
G04 #@! TO.C,C13*
X88025000Y-58000000D03*
X90025000Y-58000000D03*
G04 #@! TD*
D29*
G04 #@! TO.C,R1*
X72200000Y-53350000D03*
X72200000Y-54850000D03*
G04 #@! TD*
G04 #@! TO.C,R7*
X72250000Y-48400000D03*
X72250000Y-46900000D03*
G04 #@! TD*
G04 #@! TO.C,R9*
X75710000Y-46630000D03*
X75710000Y-48130000D03*
G04 #@! TD*
D30*
G04 #@! TO.C,Q1*
X84050000Y-44400000D03*
D31*
X77750000Y-46680000D03*
X77750000Y-42120000D03*
G04 #@! TD*
D10*
G04 #@! TO.C,J5*
X103270000Y-55620000D03*
X100730000Y-55620000D03*
G04 #@! TD*
M02*
