M48
INCH,TZ
T1C0.0157
T2C0.0394
T3C0.0430
T4C0.0512
T5C0.1083
%
G90
G05
T1
X42532Y-16277
X42689Y-30057
X42729Y-37281
X42748Y-27675
X43004Y-21080
X43063Y-19447
X43280Y-25588
X43713Y-14663
X43793Y-24943
X43813Y-24175
X44421Y-38738
X45307Y-25569
X45347Y-27714
X46132Y-28368
X46152Y-29195
X46154Y-14584
X46162Y-30612
X47099Y-29210
X47256Y-24073
X47394Y-17321
X47414Y-16494
X47433Y-15785
X47453Y-36356
X47473Y-37203
X47492Y-35687
X47807Y-15077
X47827Y-38029
X48004Y-17832
X48024Y-35431
X48457Y-14683
X48614Y-35923
X48614Y-36573
X48673Y-22025
X48910Y-29210
X49480Y-36592
X49618Y-14683
X49618Y-16592
X50075Y-20848
X50189Y-33029
X50386Y-36592
X50563Y-29289
X50799Y-14703
X50799Y-16612
X51240Y-20234
X51567Y-36612
X51921Y-16573
X51941Y-30273
X51961Y-14703
X52473Y-19643
X52748Y-36632
X53004Y-14703
X53122Y-30943
X53772Y-19053
X53851Y-14703
X54106Y-35372
X54185Y-31651
X54540Y-15057
X55012Y-15569
X55012Y-16454
X55012Y-17380
X56075Y-23915
X56173Y-32596
X56249Y-22347
X56252Y-37832
X56469Y-35293
X56499Y-32997
X56528Y-25864
X56547Y-26769
X56803Y-19171
X57355Y-14781
X57999Y-20397
X57999Y-20947
X57999Y-21547
X58099Y-29397
X58099Y-29997
X58099Y-30597
X58099Y-31197
X58099Y-32185
X58181Y-38580
X58199Y-23597
X58221Y-16395
X58899Y-36197
X59894Y-35903
X60288Y-17262
X60642Y-21927
X60681Y-26435
X60701Y-31002
X60721Y-34978
T2
X40248Y-17075
X40248Y-18075
X40248Y-19075
X40248Y-20075
X40248Y-21075
X40248Y-22075
X40248Y-23075
X40248Y-24075
X40248Y-25075
X40248Y-26075
X40248Y-27075
X40248Y-28075
X40248Y-29075
X40248Y-30075
X40248Y-31075
X40248Y-32075
X40248Y-33075
X40248Y-34075
X40248Y-35075
X40248Y-36075
X41248Y-17075
X41248Y-18075
X41248Y-19075
X41248Y-20075
X41248Y-21075
X41248Y-22075
X41248Y-23075
X41248Y-24075
X41248Y-25075
X41248Y-26075
X41248Y-27075
X41248Y-28075
X41248Y-29075
X41248Y-30075
X41248Y-31075
X41248Y-32075
X41248Y-33075
X41248Y-34075
X41248Y-35075
X41248Y-36075
T3
X44449Y-30584
X45449Y-30584
X44433Y-22884
X45433Y-22884
T4
X57677Y-19193
X57677Y-24902
X59606Y-18957
X59606Y-25138
X57677Y-28248
X57677Y-33957
X59606Y-28012
X59606Y-34193
T5
X40748Y-15157
X40748Y-37992
X60039Y-15157
X60039Y-37992
T0
M30
