G04 #@! TF.GenerationSoftware,KiCad,Pcbnew,(5.0.0)*
G04 #@! TF.CreationDate,2018-11-03T22:59:42-02:30*
G04 #@! TF.ProjectId,Dual CamCon,4475616C2043616D436F6E2E6B696361,rev?*
G04 #@! TF.SameCoordinates,Original*
G04 #@! TF.FileFunction,Copper,L1,Top,Signal*
G04 #@! TF.FilePolarity,Positive*
%FSLAX46Y46*%
G04 Gerber Fmt 4.6, Leading zero omitted, Abs format (unit mm)*
G04 Created by KiCad (PCBNEW (5.0.0)) date 11/03/18 22:59:42*
%MOMM*%
%LPD*%
G01*
G04 APERTURE LIST*
G04 #@! TA.AperFunction,ComponentPad*
%ADD10O,1.638300X3.276600*%
G04 #@! TD*
G04 #@! TA.AperFunction,ComponentPad*
%ADD11R,1.700000X1.700000*%
G04 #@! TD*
G04 #@! TA.AperFunction,ComponentPad*
%ADD12O,1.700000X1.700000*%
G04 #@! TD*
G04 #@! TA.AperFunction,SMDPad,CuDef*
%ADD13R,0.609600X2.006600*%
G04 #@! TD*
G04 #@! TA.AperFunction,SMDPad,CuDef*
%ADD14R,0.711200X4.191000*%
G04 #@! TD*
G04 #@! TA.AperFunction,SMDPad,CuDef*
%ADD15R,1.500000X1.250000*%
G04 #@! TD*
G04 #@! TA.AperFunction,ComponentPad*
%ADD16C,1.950000*%
G04 #@! TD*
G04 #@! TA.AperFunction,SMDPad,CuDef*
%ADD17R,1.900000X0.300000*%
G04 #@! TD*
G04 #@! TA.AperFunction,ViaPad*
%ADD18C,6.200000*%
G04 #@! TD*
G04 #@! TA.AperFunction,ViaPad*
%ADD19C,0.800000*%
G04 #@! TD*
G04 #@! TA.AperFunction,Conductor*
%ADD20C,0.250000*%
G04 #@! TD*
G04 #@! TA.AperFunction,Conductor*
%ADD21C,1.000000*%
G04 #@! TD*
G04 #@! TA.AperFunction,Conductor*
%ADD22C,0.500000*%
G04 #@! TD*
G04 #@! TA.AperFunction,Conductor*
%ADD23C,0.200000*%
G04 #@! TD*
G04 #@! TA.AperFunction,Conductor*
%ADD24C,0.254000*%
G04 #@! TD*
G04 APERTURE END LIST*
D10*
G04 #@! TO.P,J2,1*
G04 #@! TO.N,GND*
X115440000Y-77684380D03*
G04 #@! TO.P,J2,2*
G04 #@! TO.N,/Servo2*
X112900000Y-77684380D03*
G04 #@! TD*
D11*
G04 #@! TO.P,J5,1*
G04 #@! TO.N,Net-(J5-Pad1)*
X104770000Y-91630000D03*
D12*
G04 #@! TO.P,J5,2*
G04 #@! TO.N,+5V*
X102230000Y-91630000D03*
G04 #@! TO.P,J5,3*
G04 #@! TO.N,Net-(J5-Pad3)*
X104770000Y-89090000D03*
G04 #@! TO.P,J5,4*
G04 #@! TO.N,+5V*
X102230000Y-89090000D03*
G04 #@! TO.P,J5,5*
G04 #@! TO.N,Net-(J5-Pad5)*
X104770000Y-86550000D03*
G04 #@! TO.P,J5,6*
G04 #@! TO.N,GND*
X102230000Y-86550000D03*
G04 #@! TO.P,J5,7*
G04 #@! TO.N,Net-(J5-Pad7)*
X104770000Y-84010000D03*
G04 #@! TO.P,J5,8*
G04 #@! TO.N,Net-(J5-Pad8)*
X102230000Y-84010000D03*
G04 #@! TO.P,J5,9*
G04 #@! TO.N,GND*
X104770000Y-81470000D03*
G04 #@! TO.P,J5,10*
G04 #@! TO.N,Net-(J5-Pad10)*
X102230000Y-81470000D03*
G04 #@! TO.P,J5,11*
G04 #@! TO.N,Net-(J5-Pad11)*
X104770000Y-78930000D03*
G04 #@! TO.P,J5,12*
G04 #@! TO.N,Net-(J5-Pad12)*
X102230000Y-78930000D03*
G04 #@! TO.P,J5,13*
G04 #@! TO.N,Net-(J5-Pad13)*
X104770000Y-76390000D03*
G04 #@! TO.P,J5,14*
G04 #@! TO.N,GND*
X102230000Y-76390000D03*
G04 #@! TO.P,J5,15*
G04 #@! TO.N,Net-(J5-Pad15)*
X104770000Y-73850000D03*
G04 #@! TO.P,J5,16*
G04 #@! TO.N,Net-(J5-Pad16)*
X102230000Y-73850000D03*
G04 #@! TO.P,J5,17*
G04 #@! TO.N,Net-(J5-Pad17)*
X104770000Y-71310000D03*
G04 #@! TO.P,J5,18*
G04 #@! TO.N,Net-(J5-Pad18)*
X102230000Y-71310000D03*
G04 #@! TO.P,J5,19*
G04 #@! TO.N,Net-(J5-Pad19)*
X104770000Y-68770000D03*
G04 #@! TO.P,J5,20*
G04 #@! TO.N,GND*
X102230000Y-68770000D03*
G04 #@! TO.P,J5,21*
G04 #@! TO.N,Net-(J5-Pad21)*
X104770000Y-66230000D03*
G04 #@! TO.P,J5,22*
G04 #@! TO.N,Net-(J5-Pad22)*
X102230000Y-66230000D03*
G04 #@! TO.P,J5,23*
G04 #@! TO.N,Net-(J5-Pad23)*
X104770000Y-63690000D03*
G04 #@! TO.P,J5,24*
G04 #@! TO.N,Net-(J5-Pad24)*
X102230000Y-63690000D03*
G04 #@! TO.P,J5,25*
G04 #@! TO.N,GND*
X104770000Y-61150000D03*
G04 #@! TO.P,J5,26*
G04 #@! TO.N,Net-(J5-Pad26)*
X102230000Y-61150000D03*
G04 #@! TO.P,J5,27*
G04 #@! TO.N,Net-(J5-Pad27)*
X104770000Y-58610000D03*
G04 #@! TO.P,J5,28*
G04 #@! TO.N,Net-(J5-Pad28)*
X102230000Y-58610000D03*
G04 #@! TO.P,J5,29*
G04 #@! TO.N,Net-(J5-Pad29)*
X104770000Y-56070000D03*
G04 #@! TO.P,J5,30*
G04 #@! TO.N,GND*
X102230000Y-56070000D03*
G04 #@! TO.P,J5,31*
G04 #@! TO.N,Net-(J5-Pad31)*
X104770000Y-53530000D03*
G04 #@! TO.P,J5,32*
G04 #@! TO.N,Net-(J5-Pad32)*
X102230000Y-53530000D03*
G04 #@! TO.P,J5,33*
G04 #@! TO.N,Net-(J5-Pad33)*
X104770000Y-50990000D03*
G04 #@! TO.P,J5,34*
G04 #@! TO.N,GND*
X102230000Y-50990000D03*
G04 #@! TO.P,J5,35*
G04 #@! TO.N,Net-(J5-Pad35)*
X104770000Y-48450000D03*
G04 #@! TO.P,J5,36*
G04 #@! TO.N,Net-(J5-Pad36)*
X102230000Y-48450000D03*
G04 #@! TO.P,J5,37*
G04 #@! TO.N,Net-(J5-Pad37)*
X104770000Y-45910000D03*
G04 #@! TO.P,J5,38*
G04 #@! TO.N,Net-(J5-Pad38)*
X102230000Y-45910000D03*
G04 #@! TO.P,J5,39*
G04 #@! TO.N,GND*
X104770000Y-43370000D03*
G04 #@! TO.P,J5,40*
G04 #@! TO.N,Net-(J5-Pad40)*
X102230000Y-43370000D03*
G04 #@! TD*
D10*
G04 #@! TO.P,J1,1*
G04 #@! TO.N,GND*
X112860000Y-58124380D03*
G04 #@! TO.P,J1,2*
G04 #@! TO.N,/Servo1*
X115400000Y-58124380D03*
G04 #@! TD*
D13*
G04 #@! TO.P,J4,15*
G04 #@! TO.N,GND*
X137000000Y-95244100D03*
G04 #@! TO.P,J4,14*
G04 #@! TO.N,/CAM2_D0-*
X135999996Y-95244100D03*
G04 #@! TO.P,J4,13*
G04 #@! TO.N,/CAM2_D0+*
X135000000Y-95244100D03*
G04 #@! TO.P,J4,12*
G04 #@! TO.N,GND*
X134000000Y-95244100D03*
G04 #@! TO.P,J4,11*
G04 #@! TO.N,/CAM2_D1-*
X133000000Y-95244100D03*
G04 #@! TO.P,J4,10*
G04 #@! TO.N,/CAM2_D1+*
X132000000Y-95244100D03*
G04 #@! TO.P,J4,9*
G04 #@! TO.N,GND*
X130999996Y-95244100D03*
G04 #@! TO.P,J4,8*
G04 #@! TO.N,/CAM2_C-*
X130000000Y-95244100D03*
G04 #@! TO.P,J4,7*
G04 #@! TO.N,/CAM2_C+*
X129000000Y-95244100D03*
G04 #@! TO.P,J4,6*
G04 #@! TO.N,GND*
X128000000Y-95244100D03*
G04 #@! TO.P,J4,5*
G04 #@! TO.N,/CAM2_GPIO*
X126999997Y-95244100D03*
G04 #@! TO.P,J4,4*
G04 #@! TO.N,/CAM2_CLK*
X125999997Y-95244100D03*
G04 #@! TO.P,J4,3*
G04 #@! TO.N,/CAM2_SCL*
X125000000Y-95244100D03*
G04 #@! TO.P,J4,2*
G04 #@! TO.N,/CAM2_SDA*
X124000000Y-95244100D03*
G04 #@! TO.P,J4,1*
G04 #@! TO.N,/CAM2_3V3*
X123000000Y-95244100D03*
D14*
G04 #@! TO.P,J4,16*
G04 #@! TO.N,GND*
X121999000Y-93135900D03*
G04 #@! TO.P,J4,17*
X138001000Y-93135900D03*
G04 #@! TD*
D13*
G04 #@! TO.P,J3,15*
G04 #@! TO.N,GND*
X123000000Y-39755900D03*
G04 #@! TO.P,J3,14*
G04 #@! TO.N,/CAM1_D0-*
X124000004Y-39755900D03*
G04 #@! TO.P,J3,13*
G04 #@! TO.N,/CAM1_D0+*
X125000000Y-39755900D03*
G04 #@! TO.P,J3,12*
G04 #@! TO.N,GND*
X126000000Y-39755900D03*
G04 #@! TO.P,J3,11*
G04 #@! TO.N,/CAM1_D1-*
X127000000Y-39755900D03*
G04 #@! TO.P,J3,10*
G04 #@! TO.N,/CAM1_D1+*
X128000000Y-39755900D03*
G04 #@! TO.P,J3,9*
G04 #@! TO.N,GND*
X129000004Y-39755900D03*
G04 #@! TO.P,J3,8*
G04 #@! TO.N,/CAM1_C-*
X130000000Y-39755900D03*
G04 #@! TO.P,J3,7*
G04 #@! TO.N,/CAM1_C+*
X131000000Y-39755900D03*
G04 #@! TO.P,J3,6*
G04 #@! TO.N,GND*
X132000000Y-39755900D03*
G04 #@! TO.P,J3,5*
G04 #@! TO.N,/CAM1_GPIO*
X133000003Y-39755900D03*
G04 #@! TO.P,J3,4*
G04 #@! TO.N,/CAM1_CLK*
X134000003Y-39755900D03*
G04 #@! TO.P,J3,3*
G04 #@! TO.N,/CAM1_SCL*
X135000000Y-39755900D03*
G04 #@! TO.P,J3,2*
G04 #@! TO.N,/CAM1_SDA*
X136000000Y-39755900D03*
G04 #@! TO.P,J3,1*
G04 #@! TO.N,/CAM1_3V3*
X137000000Y-39755900D03*
D14*
G04 #@! TO.P,J3,16*
G04 #@! TO.N,GND*
X138001000Y-41864100D03*
G04 #@! TO.P,J3,17*
X121999000Y-41864100D03*
G04 #@! TD*
D15*
G04 #@! TO.P,C1,1*
G04 #@! TO.N,/Servo1*
X115510460Y-61404380D03*
G04 #@! TO.P,C1,2*
G04 #@! TO.N,GND*
X113010460Y-61404380D03*
G04 #@! TD*
G04 #@! TO.P,C2,1*
G04 #@! TO.N,/Servo2*
X112950460Y-72104380D03*
G04 #@! TO.P,C2,2*
G04 #@! TO.N,GND*
X115450460Y-72104380D03*
G04 #@! TD*
G04 #@! TO.P,C3,1*
G04 #@! TO.N,/Servo1*
X115510460Y-63304380D03*
G04 #@! TO.P,C3,2*
G04 #@! TO.N,GND*
X113010460Y-63304380D03*
G04 #@! TD*
G04 #@! TO.P,C4,1*
G04 #@! TO.N,/Servo2*
X112975460Y-74179380D03*
G04 #@! TO.P,C4,2*
G04 #@! TO.N,GND*
X115475460Y-74179380D03*
G04 #@! TD*
D16*
G04 #@! TO.P,P1,P4*
G04 #@! TO.N,N/C*
X151400000Y-48150000D03*
G04 #@! TO.P,P1,P3*
X151400000Y-63850000D03*
G04 #@! TO.P,P1,P1*
X146500000Y-48750000D03*
G04 #@! TO.P,P1,P2*
X146500000Y-63250000D03*
D17*
G04 #@! TO.P,P1,19*
G04 #@! TO.N,+5V*
X145500000Y-60250000D03*
G04 #@! TO.P,P1,18*
X145500000Y-59750000D03*
G04 #@! TO.P,P1,17*
G04 #@! TO.N,GND*
X145500000Y-59250000D03*
G04 #@! TO.P,P1,16*
G04 #@! TO.N,/Servo1*
X145500000Y-58750000D03*
G04 #@! TO.P,P1,15*
G04 #@! TO.N,/CAM1_3V3*
X145500000Y-58250000D03*
G04 #@! TO.P,P1,14*
G04 #@! TO.N,/CAM1_SDA*
X145500000Y-57750000D03*
G04 #@! TO.P,P1,13*
G04 #@! TO.N,/CAM1_SCL*
X145500000Y-57250000D03*
G04 #@! TO.P,P1,12*
G04 #@! TO.N,/CAM1_CLK*
X145500000Y-56750000D03*
G04 #@! TO.P,P1,11*
G04 #@! TO.N,GND*
X145500000Y-56250000D03*
G04 #@! TO.P,P1,10*
G04 #@! TO.N,/CAM1_GPIO*
X145500000Y-55750000D03*
G04 #@! TO.P,P1,9*
G04 #@! TO.N,/CAM1_D0-*
X145500000Y-55250000D03*
G04 #@! TO.P,P1,8*
G04 #@! TO.N,GND*
X145500000Y-54750000D03*
G04 #@! TO.P,P1,7*
G04 #@! TO.N,/CAM1_D0+*
X145500000Y-54250000D03*
G04 #@! TO.P,P1,6*
G04 #@! TO.N,/CAM1_D1-*
X145500000Y-53750000D03*
G04 #@! TO.P,P1,5*
G04 #@! TO.N,GND*
X145500000Y-53250000D03*
G04 #@! TO.P,P1,4*
G04 #@! TO.N,/CAM1_D1+*
X145500000Y-52750000D03*
G04 #@! TO.P,P1,3*
G04 #@! TO.N,/CAM1_C-*
X145500000Y-52250000D03*
G04 #@! TO.P,P1,2*
G04 #@! TO.N,GND*
X145500000Y-51750000D03*
G04 #@! TO.P,P1,1*
G04 #@! TO.N,/CAM1_C+*
X145500000Y-51250000D03*
G04 #@! TD*
D16*
G04 #@! TO.P,P2,P4*
G04 #@! TO.N,N/C*
X151400000Y-71150000D03*
G04 #@! TO.P,P2,P3*
X151400000Y-86850000D03*
G04 #@! TO.P,P2,P1*
X146500000Y-71750000D03*
G04 #@! TO.P,P2,P2*
X146500000Y-86250000D03*
D17*
G04 #@! TO.P,P2,19*
G04 #@! TO.N,+5V*
X145500000Y-83250000D03*
G04 #@! TO.P,P2,18*
X145500000Y-82750000D03*
G04 #@! TO.P,P2,17*
G04 #@! TO.N,GND*
X145500000Y-82250000D03*
G04 #@! TO.P,P2,16*
G04 #@! TO.N,/Servo2*
X145500000Y-81750000D03*
G04 #@! TO.P,P2,15*
G04 #@! TO.N,/CAM2_3V3*
X145500000Y-81250000D03*
G04 #@! TO.P,P2,14*
G04 #@! TO.N,/CAM2_SDA*
X145500000Y-80750000D03*
G04 #@! TO.P,P2,13*
G04 #@! TO.N,/CAM2_SCL*
X145500000Y-80250000D03*
G04 #@! TO.P,P2,12*
G04 #@! TO.N,/CAM2_CLK*
X145500000Y-79750000D03*
G04 #@! TO.P,P2,11*
G04 #@! TO.N,GND*
X145500000Y-79250000D03*
G04 #@! TO.P,P2,10*
G04 #@! TO.N,/CAM2_GPIO*
X145500000Y-78750000D03*
G04 #@! TO.P,P2,9*
G04 #@! TO.N,/CAM2_D0-*
X145500000Y-78250000D03*
G04 #@! TO.P,P2,8*
G04 #@! TO.N,GND*
X145500000Y-77750000D03*
G04 #@! TO.P,P2,7*
G04 #@! TO.N,/CAM2_D0+*
X145500000Y-77250000D03*
G04 #@! TO.P,P2,6*
G04 #@! TO.N,/CAM2_D1-*
X145500000Y-76750000D03*
G04 #@! TO.P,P2,5*
G04 #@! TO.N,GND*
X145500000Y-76250000D03*
G04 #@! TO.P,P2,4*
G04 #@! TO.N,/CAM2_D1+*
X145500000Y-75750000D03*
G04 #@! TO.P,P2,3*
G04 #@! TO.N,/CAM2_C-*
X145500000Y-75250000D03*
G04 #@! TO.P,P2,2*
G04 #@! TO.N,GND*
X145500000Y-74750000D03*
G04 #@! TO.P,P2,1*
G04 #@! TO.N,/CAM2_C+*
X145500000Y-74250000D03*
G04 #@! TD*
D18*
G04 #@! TO.N,*
X103500000Y-38500000D03*
X152500000Y-38500000D03*
X152500000Y-96500000D03*
X103500000Y-96500000D03*
D19*
G04 #@! TO.N,GND*
X136580460Y-48394380D03*
X143507460Y-83812380D03*
X147571460Y-79240380D03*
X147571460Y-77716380D03*
X147571460Y-76192380D03*
X147571460Y-74668380D03*
X147317460Y-51808380D03*
X147317460Y-53205380D03*
X147317460Y-54729380D03*
X142872460Y-56761380D03*
X147825460Y-59936380D03*
X139730460Y-44144380D03*
X127190460Y-52954380D03*
X130150460Y-51394380D03*
X133280460Y-49894380D03*
X131930460Y-76894380D03*
X134930460Y-78594380D03*
X137630460Y-80394380D03*
X126030460Y-37294380D03*
X123080460Y-37294380D03*
X120480460Y-40094380D03*
X120430460Y-41894380D03*
X120380460Y-43994380D03*
X121930460Y-45294380D03*
X121430460Y-38294380D03*
X131980460Y-37344380D03*
X129030460Y-37344380D03*
X138530460Y-38244380D03*
X139730460Y-39544380D03*
X139730460Y-41794380D03*
X134630460Y-37344380D03*
X136780460Y-37344380D03*
X144280460Y-48694380D03*
X131880460Y-42094380D03*
X129030460Y-42194380D03*
X126030460Y-42144380D03*
X111235460Y-63354380D03*
X111285460Y-61404380D03*
X117225460Y-74154380D03*
X117250460Y-77754380D03*
X117175460Y-72054380D03*
X121480460Y-96594380D03*
X120580460Y-94494380D03*
X120530460Y-92344380D03*
X121980460Y-89994380D03*
X123480460Y-91244380D03*
X123480460Y-92894380D03*
X127980460Y-92944380D03*
X130980460Y-92994380D03*
X133980460Y-93044380D03*
X137430460Y-89844380D03*
X120630460Y-90644380D03*
X142680460Y-82794380D03*
X125680460Y-92944380D03*
X142430460Y-60744380D03*
X128430460Y-74394380D03*
X109380460Y-49394380D03*
X109230460Y-53544380D03*
X112830460Y-98394380D03*
X142880460Y-96094380D03*
X152130460Y-91194380D03*
X154230460Y-88844380D03*
X108530460Y-94694380D03*
X108030460Y-41344380D03*
X111030460Y-37244380D03*
X145680460Y-37544380D03*
X147880460Y-41644380D03*
X153130460Y-43844380D03*
X115180460Y-70394380D03*
X108580460Y-70294380D03*
X119630460Y-74194380D03*
X115080460Y-64944380D03*
X109930460Y-64994380D03*
X120030460Y-61144380D03*
X124230460Y-74194380D03*
X143580460Y-65694380D03*
X143630460Y-67994380D03*
X154130460Y-67144380D03*
X154030460Y-55694380D03*
X154180460Y-78744380D03*
X108430460Y-76344380D03*
X117230460Y-37044380D03*
X123630460Y-55944380D03*
X143430460Y-89644380D03*
X127480460Y-83894380D03*
X147780460Y-97994380D03*
G04 #@! TO.N,/Servo2*
X147571460Y-81750000D03*
X149603460Y-91940380D03*
G04 #@! TD*
D20*
G04 #@! TO.N,GND*
X143507460Y-83042540D02*
X143507460Y-83812380D01*
X145500000Y-82250000D02*
X144300000Y-82250000D01*
X144300000Y-82257840D02*
X143507460Y-83050380D01*
X145500000Y-79250000D02*
X147561840Y-79250000D01*
X147561840Y-79250000D02*
X147571460Y-79240380D01*
X145500000Y-77750000D02*
X147537840Y-77750000D01*
X147537840Y-77750000D02*
X147571460Y-77716380D01*
X145500000Y-76250000D02*
X147513840Y-76250000D01*
X147513840Y-76250000D02*
X147571460Y-76192380D01*
X145500000Y-74750000D02*
X147489840Y-74750000D01*
X147489840Y-74750000D02*
X147571460Y-74668380D01*
X145500000Y-51750000D02*
X147513080Y-51750000D01*
X147513080Y-51750000D02*
X147571460Y-51808380D01*
X145500000Y-53250000D02*
X147526840Y-53250000D01*
X147526840Y-53250000D02*
X147571460Y-53205380D01*
X145500000Y-54750000D02*
X147550840Y-54750000D01*
X147550840Y-54750000D02*
X147571460Y-54729380D01*
X145500000Y-56250000D02*
X143383840Y-56250000D01*
X143383840Y-56250000D02*
X142872460Y-56761380D01*
X145500000Y-59250000D02*
X147139080Y-59250000D01*
X147139080Y-59250000D02*
X147825460Y-59936380D01*
X138001000Y-41864100D02*
X139532180Y-41864100D01*
X139532180Y-41864100D02*
X140586460Y-42918380D01*
X139532180Y-41864100D02*
X139532180Y-41864100D01*
X112860000Y-61253920D02*
X113010460Y-61404380D01*
X112860000Y-58124380D02*
X112860000Y-61253920D01*
X113010460Y-63304380D02*
X113010460Y-61404380D01*
D21*
G04 #@! TO.N,+5V*
X149803080Y-82088760D02*
X148841460Y-83050380D01*
X144977080Y-69788000D02*
X147771080Y-69788000D01*
X147771080Y-69788000D02*
X149803080Y-71820000D01*
D20*
X149803080Y-71820000D02*
X147825460Y-69842380D01*
D21*
X149803080Y-82088760D02*
X149803080Y-71820000D01*
X145600000Y-83250000D02*
X147317460Y-83250000D01*
D20*
X145500000Y-83150000D02*
X145600000Y-83250000D01*
X145500000Y-82750000D02*
X145500000Y-83150000D01*
X147200000Y-83250000D02*
X147317460Y-83250000D01*
D21*
X147317460Y-83250000D02*
X148641840Y-83250000D01*
D20*
X145500000Y-60150000D02*
X145500000Y-59750000D01*
X145400000Y-60250000D02*
X145500000Y-60150000D01*
X145500000Y-60250000D02*
X145400000Y-60250000D01*
D21*
X109090460Y-67810380D02*
X115567460Y-67810380D01*
X145500000Y-60991840D02*
X145500000Y-60250000D01*
X143297460Y-63194380D02*
X145500000Y-60991840D01*
X120818460Y-63194380D02*
X143297460Y-63194380D01*
X115567460Y-67810380D02*
X116202460Y-67810380D01*
X116202460Y-67810380D02*
X120818460Y-63194380D01*
X142675460Y-71944380D02*
X144777460Y-69842380D01*
X120590460Y-71944380D02*
X142675460Y-71944380D01*
X116583460Y-67937380D02*
X120590460Y-71944380D01*
X116456460Y-67937380D02*
X116583460Y-67937380D01*
X115567460Y-67810380D02*
X116329460Y-67810380D01*
X116329460Y-67810380D02*
X116456460Y-67937380D01*
X109090460Y-67810380D02*
X108944460Y-67810380D01*
X107330459Y-89604381D02*
X106800460Y-90134380D01*
X108944460Y-67810380D02*
X107330459Y-69424381D01*
X107330459Y-69424381D02*
X107330459Y-89604381D01*
D20*
X103444380Y-90304380D02*
X103444380Y-90415620D01*
X106650460Y-90304380D02*
X103444380Y-90304380D01*
X106800460Y-90134380D02*
X106800460Y-90154380D01*
X106800460Y-90154380D02*
X106650460Y-90304380D01*
G04 #@! TO.N,/Servo1*
X115766080Y-63660000D02*
X115435460Y-63329380D01*
X115510460Y-63304380D02*
X115510460Y-61404380D01*
X115510460Y-58234840D02*
X115400000Y-58124380D01*
X115510460Y-61404380D02*
X115510460Y-58234840D01*
X144300000Y-58750000D02*
X145500000Y-58750000D01*
X117094770Y-58750000D02*
X144300000Y-58750000D01*
X116469150Y-58124380D02*
X117094770Y-58750000D01*
X115400000Y-58124380D02*
X116469150Y-58124380D01*
G04 #@! TO.N,/Servo2*
X145500000Y-81750000D02*
X147571460Y-81750000D01*
X112950460Y-74154380D02*
X112975460Y-74179380D01*
X112950460Y-72104380D02*
X112950460Y-74154380D01*
X112900000Y-77684380D02*
X112900000Y-81878920D01*
X112900000Y-74254840D02*
X112975460Y-74179380D01*
X112900000Y-77684380D02*
X112900000Y-74254840D01*
X114000000Y-96341920D02*
X114000000Y-82978920D01*
X149603460Y-93210380D02*
X143519460Y-99294380D01*
X143519460Y-99294380D02*
X116952460Y-99294380D01*
X149603460Y-91940380D02*
X149603460Y-93210380D01*
X116952460Y-99294380D02*
X114000000Y-96341920D01*
X114000000Y-82978920D02*
X112900000Y-81878920D01*
G04 #@! TO.N,/CAM1_3V3*
X144615080Y-58250000D02*
X144590081Y-58225001D01*
X145500000Y-58250000D02*
X144615080Y-58250000D01*
D22*
X147960460Y-58294380D02*
X147580460Y-58294380D01*
X150200460Y-56054380D02*
X147960460Y-58294380D01*
X137000000Y-39755900D02*
X137000000Y-45173920D01*
X137990460Y-46164380D02*
X147645282Y-46164380D01*
X147645282Y-46164380D02*
X149490460Y-48009558D01*
X137000000Y-45173920D02*
X137990460Y-46164380D01*
X149490460Y-48009558D02*
X149490460Y-49904380D01*
X150200460Y-50614380D02*
X150200460Y-56054380D01*
X149490460Y-49904380D02*
X150200460Y-50614380D01*
D20*
X147524840Y-58250000D02*
X147500460Y-58250000D01*
X147499841Y-58274999D02*
X147524840Y-58250000D01*
X145500000Y-58250000D02*
X145524999Y-58274999D01*
X145524999Y-58274999D02*
X147499841Y-58274999D01*
G04 #@! TO.N,/CAM1_SDA*
X136000000Y-41009200D02*
X136000000Y-39755900D01*
X136000000Y-45187107D02*
X136000000Y-41009200D01*
X137572283Y-46759390D02*
X136000000Y-45187107D01*
X149420460Y-50860559D02*
X148770471Y-50210570D01*
X148770471Y-50210570D02*
X148770471Y-48174391D01*
X148770471Y-48174391D02*
X147355470Y-46759390D01*
X147355470Y-46759390D02*
X137572283Y-46759390D01*
X149420460Y-55704380D02*
X149420460Y-55444380D01*
X147374840Y-57750000D02*
X149420460Y-55704380D01*
X145500000Y-57750000D02*
X147374840Y-57750000D01*
X149420460Y-55444380D02*
X149420460Y-50860559D01*
G04 #@! TO.N,/CAM1_SCL*
X148957437Y-51033946D02*
X148957437Y-55530992D01*
X147238429Y-57250000D02*
X146700000Y-57250000D01*
X148957437Y-55530992D02*
X147238429Y-57250000D01*
X147160460Y-47234380D02*
X148320460Y-48394380D01*
X146700000Y-57250000D02*
X145500000Y-57250000D01*
X148320460Y-50396969D02*
X148957437Y-51033946D01*
X137410863Y-47234380D02*
X147160460Y-47234380D01*
X148320460Y-48394380D02*
X148320460Y-50396969D01*
X135000000Y-44823517D02*
X137410863Y-47234380D01*
X135000000Y-39755900D02*
X135000000Y-44823517D01*
G04 #@! TO.N,/CAM1_CLK*
X147571461Y-50284380D02*
X136141460Y-50284380D01*
X148507428Y-55344590D02*
X148507428Y-51220347D01*
X148507428Y-51220347D02*
X147571461Y-50284380D01*
X134000003Y-48142923D02*
X134000003Y-41009200D01*
X136141460Y-50284380D02*
X134000003Y-48142923D01*
X147102018Y-56750000D02*
X148507428Y-55344590D01*
X145500000Y-56750000D02*
X147102018Y-56750000D01*
X134000003Y-41009200D02*
X134000003Y-39755900D01*
G04 #@! TO.N,/CAM1_GPIO*
X133000003Y-39755900D02*
X133000003Y-40665923D01*
X133000003Y-40665923D02*
X133093460Y-40759380D01*
X133000003Y-43334334D02*
X133000003Y-43045380D01*
X133000003Y-43045380D02*
X133000003Y-41009200D01*
X133000003Y-41009200D02*
X133000003Y-39755900D01*
X147385061Y-50734391D02*
X135955060Y-50734391D01*
X147465608Y-55750000D02*
X148057417Y-55158191D01*
X133000003Y-47779334D02*
X133000003Y-43045380D01*
X145500000Y-55750000D02*
X147465608Y-55750000D01*
X135955060Y-50734391D02*
X133000003Y-47779334D01*
X148057417Y-55158191D02*
X148057417Y-51406747D01*
X148057417Y-51406747D02*
X147385061Y-50734391D01*
G04 #@! TO.N,/CAM2_GPIO*
X126999997Y-96497400D02*
X127196955Y-96694358D01*
X126999997Y-95244100D02*
X126999997Y-96497400D01*
X127196955Y-96694358D02*
X138626480Y-96694358D01*
X141474840Y-78750000D02*
X144300000Y-78750000D01*
X139062460Y-81162378D02*
X141474840Y-78750000D01*
X139062460Y-96258378D02*
X139062460Y-81162378D01*
X144300000Y-78750000D02*
X145500000Y-78750000D01*
X138626480Y-96694358D02*
X139062460Y-96258378D01*
G04 #@! TO.N,/CAM2_CLK*
X139512471Y-96444778D02*
X138812880Y-97144369D01*
X138812880Y-97144369D02*
X126646966Y-97144369D01*
X139512471Y-81348778D02*
X139512471Y-96444778D01*
X125999997Y-96497400D02*
X125999997Y-95244100D01*
X141061260Y-79799989D02*
X139512471Y-81348778D01*
X126646966Y-97144369D02*
X125999997Y-96497400D01*
X145500000Y-79750000D02*
X141111250Y-79750000D01*
X141111250Y-79750000D02*
X141061260Y-79799989D01*
G04 #@! TO.N,/CAM2_SCL*
X145475001Y-80274999D02*
X145500000Y-80250000D01*
D23*
X125000000Y-95244100D02*
X124965460Y-95209560D01*
D20*
X144300000Y-80250000D02*
X145500000Y-80250000D01*
X139962482Y-81535178D02*
X141247660Y-80250000D01*
X138999280Y-97594380D02*
X139962482Y-96631178D01*
X139962482Y-96631178D02*
X139962482Y-81535178D01*
X126096980Y-97594380D02*
X138999280Y-97594380D01*
X125000000Y-96497400D02*
X126096980Y-97594380D01*
X125000000Y-95244100D02*
X125000000Y-96497400D01*
X141247660Y-80250000D02*
X144300000Y-80250000D01*
D23*
G04 #@! TO.N,/CAM2_SDA*
X124000000Y-94694100D02*
X124000000Y-95244100D01*
D20*
X124000000Y-96497400D02*
X124000000Y-95244100D01*
X141384070Y-80750000D02*
X140412493Y-81721577D01*
X145500000Y-80750000D02*
X141384070Y-80750000D01*
X140412493Y-81721577D02*
X140412493Y-96817578D01*
X140412493Y-96817578D02*
X139135691Y-98094380D01*
X139135691Y-98094380D02*
X125596980Y-98094380D01*
X125596980Y-98094380D02*
X124000000Y-96497400D01*
G04 #@! TO.N,/CAM2_3V3*
X142705470Y-81250000D02*
X145500000Y-81250000D01*
X142630460Y-81325010D02*
X142705470Y-81250000D01*
D22*
X123000000Y-96463920D02*
X125230460Y-98694380D01*
X123000000Y-95244100D02*
X123000000Y-96463920D01*
X125230460Y-98694380D02*
X139348874Y-98694380D01*
X141899830Y-81325010D02*
X142630460Y-81325010D01*
X139348874Y-98694380D02*
X141030460Y-97012794D01*
X141030460Y-97012794D02*
X141030460Y-82194380D01*
X141030460Y-82194380D02*
X141899830Y-81325010D01*
D23*
G04 #@! TO.N,/CAM1_C+*
X131000000Y-41260851D02*
X131000000Y-39755900D01*
X132874280Y-51525000D02*
X130725000Y-49375720D01*
X143799999Y-51525000D02*
X132874280Y-51525000D01*
X144074999Y-51250000D02*
X143799999Y-51525000D01*
X145500000Y-51250000D02*
X144074999Y-51250000D01*
X130725000Y-49375720D02*
X130725000Y-41535851D01*
X130725000Y-41535851D02*
X131000000Y-41260851D01*
G04 #@! TO.N,/CAM1_C-*
X130000000Y-41260851D02*
X130000000Y-39755900D01*
X130275000Y-41535851D02*
X130000000Y-41260851D01*
X130275000Y-49562120D02*
X130275000Y-41535851D01*
X145500000Y-52250000D02*
X144074999Y-52250000D01*
X144074999Y-52250000D02*
X143799999Y-51975000D01*
X143799999Y-51975000D02*
X132687880Y-51975000D01*
X132687880Y-51975000D02*
X130275000Y-49562120D01*
G04 #@! TO.N,/CAM1_D1+*
X128000000Y-41260851D02*
X128000000Y-39755900D01*
X127725000Y-50947720D02*
X127725000Y-41535851D01*
X129802280Y-53025000D02*
X127725000Y-50947720D01*
X143799999Y-53025000D02*
X129802280Y-53025000D01*
X144074999Y-52750000D02*
X143799999Y-53025000D01*
X145500000Y-52750000D02*
X144074999Y-52750000D01*
X127725000Y-41535851D02*
X128000000Y-41260851D01*
G04 #@! TO.N,/CAM1_D1-*
X145500000Y-53750000D02*
X145450001Y-53700001D01*
X127000000Y-41260851D02*
X127000000Y-39755900D01*
X127275000Y-41535851D02*
X127000000Y-41260851D01*
X127275000Y-51134120D02*
X127275000Y-41535851D01*
X145500000Y-53750000D02*
X144074999Y-53750000D01*
X144074999Y-53750000D02*
X143799999Y-53475000D01*
X143799999Y-53475000D02*
X129615880Y-53475000D01*
X129615880Y-53475000D02*
X127275000Y-51134120D01*
G04 #@! TO.N,/CAM1_D0+*
X145500000Y-54250000D02*
X145450001Y-54299999D01*
X124725002Y-41535849D02*
X125000000Y-41260851D01*
X126857280Y-54525000D02*
X124725002Y-52392722D01*
X143799999Y-54525000D02*
X126857280Y-54525000D01*
X124725002Y-52392722D02*
X124725002Y-41535849D01*
X144074999Y-54250000D02*
X143799999Y-54525000D01*
X145500000Y-54250000D02*
X144074999Y-54250000D01*
X125000000Y-41260851D02*
X125000000Y-39755900D01*
G04 #@! TO.N,/CAM1_D0-*
X145500000Y-55250000D02*
X145450001Y-55200001D01*
X124000004Y-41260851D02*
X124000004Y-39755900D01*
X124275002Y-52579122D02*
X124275002Y-41535849D01*
X145500000Y-55250000D02*
X144074999Y-55250000D01*
X144074999Y-55250000D02*
X143799999Y-54975000D01*
X143799999Y-54975000D02*
X126670880Y-54975000D01*
X124275002Y-41535849D02*
X124000004Y-41260851D01*
X126670880Y-54975000D02*
X124275002Y-52579122D01*
G04 #@! TO.N,/CAM2_D0-*
X143799999Y-77975000D02*
X144074999Y-78250000D01*
X138106040Y-77975000D02*
X143799999Y-77975000D01*
X135999996Y-95244100D02*
X135999996Y-93739149D01*
X144074999Y-78250000D02*
X145500000Y-78250000D01*
X135999996Y-93739149D02*
X135724998Y-93464151D01*
X135724998Y-93464151D02*
X135724998Y-80356042D01*
X135724998Y-80356042D02*
X138106040Y-77975000D01*
G04 #@! TO.N,/CAM2_D0+*
X137919640Y-77525000D02*
X143799999Y-77525000D01*
X135274998Y-80169642D02*
X137919640Y-77525000D01*
X143799999Y-77525000D02*
X144074999Y-77250000D01*
X135274998Y-93464151D02*
X135274998Y-80169642D01*
X135000000Y-93739149D02*
X135274998Y-93464151D01*
X144074999Y-77250000D02*
X145500000Y-77250000D01*
X135000000Y-95244100D02*
X135000000Y-93739149D01*
G04 #@! TO.N,/CAM2_D1-*
X144074999Y-76750000D02*
X145500000Y-76750000D01*
X143799999Y-76475000D02*
X144074999Y-76750000D01*
X135034040Y-76475000D02*
X143799999Y-76475000D01*
X133000000Y-95244100D02*
X133000000Y-93739149D01*
X133000000Y-93739149D02*
X132725000Y-93464149D01*
X132725000Y-93464149D02*
X132725000Y-78784040D01*
X132725000Y-78784040D02*
X135034040Y-76475000D01*
G04 #@! TO.N,/CAM2_D1+*
X143799999Y-76025000D02*
X144074999Y-75750000D01*
X134847640Y-76025000D02*
X143799999Y-76025000D01*
X132275000Y-78597640D02*
X134847640Y-76025000D01*
X144074999Y-75750000D02*
X145500000Y-75750000D01*
X132275000Y-93464149D02*
X132275000Y-78597640D01*
X132000000Y-93739149D02*
X132275000Y-93464149D01*
X132000000Y-95244100D02*
X132000000Y-93739149D01*
G04 #@! TO.N,/CAM2_C-*
X143799999Y-74975000D02*
X144074999Y-75250000D01*
X131962040Y-74975000D02*
X143799999Y-74975000D01*
X130000000Y-95244100D02*
X130000000Y-93739149D01*
X144074999Y-75250000D02*
X145500000Y-75250000D01*
X130000000Y-93739149D02*
X129725000Y-93464149D01*
X129725000Y-93464149D02*
X129725000Y-77212040D01*
X129725000Y-77212040D02*
X131962040Y-74975000D01*
G04 #@! TO.N,/CAM2_C+*
X143799999Y-74525000D02*
X144074999Y-74250000D01*
X129275000Y-93464149D02*
X129275000Y-77025640D01*
X131775640Y-74525000D02*
X143799999Y-74525000D01*
X129000000Y-93739149D02*
X129275000Y-93464149D01*
X129000000Y-95244100D02*
X129000000Y-93739149D01*
X144074999Y-74250000D02*
X145500000Y-74250000D01*
X129275000Y-77025640D02*
X131775640Y-74525000D01*
G04 #@! TD*
D24*
G04 #@! TO.N,GND*
G36*
X150558760Y-35594730D02*
X149594730Y-36558760D01*
X149073000Y-37818327D01*
X149073000Y-39181673D01*
X149594730Y-40441240D01*
X150558760Y-41405270D01*
X151818327Y-41927000D01*
X153181673Y-41927000D01*
X154441240Y-41405270D01*
X155405270Y-40441240D01*
X155623000Y-39915594D01*
X155623001Y-95084409D01*
X155405270Y-94558760D01*
X154441240Y-93594730D01*
X153181673Y-93073000D01*
X151818327Y-93073000D01*
X150558760Y-93594730D01*
X149594730Y-94558760D01*
X149073000Y-95818327D01*
X149073000Y-97181673D01*
X149594730Y-98441240D01*
X150558760Y-99405270D01*
X151084406Y-99623000D01*
X143841224Y-99623000D01*
X143845334Y-99620254D01*
X143870553Y-99582511D01*
X149891594Y-93561471D01*
X149929334Y-93536254D01*
X150029235Y-93386742D01*
X150055460Y-93254898D01*
X150055460Y-93254897D01*
X150064315Y-93210381D01*
X150055460Y-93165864D01*
X150055460Y-92516514D01*
X150219781Y-92352193D01*
X150330460Y-92084989D01*
X150330460Y-91795771D01*
X150219781Y-91528567D01*
X150015273Y-91324059D01*
X149748069Y-91213380D01*
X149458851Y-91213380D01*
X149191647Y-91324059D01*
X148987139Y-91528567D01*
X148876460Y-91795771D01*
X148876460Y-92084989D01*
X148987139Y-92352193D01*
X149151460Y-92516514D01*
X149151461Y-93023154D01*
X143332236Y-98842380D01*
X140016874Y-98842380D01*
X141398275Y-97460980D01*
X141446454Y-97428788D01*
X141546918Y-97278433D01*
X141573982Y-97237929D01*
X141618764Y-97012794D01*
X141607460Y-96955965D01*
X141607460Y-85991016D01*
X145198000Y-85991016D01*
X145198000Y-86508984D01*
X145396217Y-86987524D01*
X145762476Y-87353783D01*
X146241016Y-87552000D01*
X146758984Y-87552000D01*
X147237524Y-87353783D01*
X147603783Y-86987524D01*
X147768021Y-86591016D01*
X150098000Y-86591016D01*
X150098000Y-87108984D01*
X150296217Y-87587524D01*
X150662476Y-87953783D01*
X151141016Y-88152000D01*
X151658984Y-88152000D01*
X152137524Y-87953783D01*
X152503783Y-87587524D01*
X152702000Y-87108984D01*
X152702000Y-86591016D01*
X152503783Y-86112476D01*
X152137524Y-85746217D01*
X151658984Y-85548000D01*
X151141016Y-85548000D01*
X150662476Y-85746217D01*
X150296217Y-86112476D01*
X150098000Y-86591016D01*
X147768021Y-86591016D01*
X147802000Y-86508984D01*
X147802000Y-85991016D01*
X147603783Y-85512476D01*
X147237524Y-85146217D01*
X146758984Y-84948000D01*
X146241016Y-84948000D01*
X145762476Y-85146217D01*
X145396217Y-85512476D01*
X145198000Y-85991016D01*
X141607460Y-85991016D01*
X141607460Y-82433380D01*
X142138831Y-81902010D01*
X142687289Y-81902010D01*
X142855594Y-81868532D01*
X143046454Y-81741004D01*
X143072516Y-81702000D01*
X144216594Y-81702000D01*
X144216594Y-81900000D01*
X144236808Y-82001621D01*
X144223000Y-82034955D01*
X144223000Y-82093250D01*
X144304750Y-82175000D01*
X144372982Y-82175000D01*
X144422411Y-82208027D01*
X144550000Y-82233406D01*
X146450000Y-82233406D01*
X146577589Y-82208027D01*
X146586609Y-82202000D01*
X146995326Y-82202000D01*
X147159647Y-82366321D01*
X147296483Y-82423000D01*
X146777000Y-82423000D01*
X146777000Y-82406750D01*
X146695250Y-82325000D01*
X146627018Y-82325000D01*
X146577589Y-82291973D01*
X146450000Y-82266594D01*
X144550000Y-82266594D01*
X144422411Y-82291973D01*
X144372982Y-82325000D01*
X144304750Y-82325000D01*
X144223000Y-82406750D01*
X144223000Y-82465045D01*
X144236808Y-82498379D01*
X144216594Y-82600000D01*
X144216594Y-82900000D01*
X144236485Y-83000000D01*
X144216594Y-83100000D01*
X144216594Y-83400000D01*
X144241973Y-83527589D01*
X144314246Y-83635754D01*
X144422411Y-83708027D01*
X144550000Y-83733406D01*
X144928378Y-83733406D01*
X145003767Y-83846233D01*
X145277321Y-84029016D01*
X145518552Y-84077000D01*
X148723288Y-84077000D01*
X148964519Y-84029016D01*
X149238073Y-83846233D01*
X149318031Y-83726568D01*
X149368644Y-83692749D01*
X150330264Y-82731130D01*
X150399313Y-82684993D01*
X150582096Y-82411439D01*
X150630080Y-82170208D01*
X150630080Y-82170204D01*
X150646280Y-82088761D01*
X150630080Y-82007318D01*
X150630080Y-72221387D01*
X150662476Y-72253783D01*
X151141016Y-72452000D01*
X151658984Y-72452000D01*
X152137524Y-72253783D01*
X152503783Y-71887524D01*
X152702000Y-71408984D01*
X152702000Y-70891016D01*
X152503783Y-70412476D01*
X152137524Y-70046217D01*
X151658984Y-69848000D01*
X151141016Y-69848000D01*
X150662476Y-70046217D01*
X150296217Y-70412476D01*
X150098000Y-70891016D01*
X150098000Y-70945366D01*
X148413452Y-69260819D01*
X148367313Y-69191767D01*
X148093759Y-69008984D01*
X147852528Y-68961000D01*
X147852524Y-68961000D01*
X147771080Y-68944800D01*
X147689636Y-68961000D01*
X144895632Y-68961000D01*
X144654401Y-69008984D01*
X144623132Y-69029877D01*
X144454781Y-69063364D01*
X144250275Y-69200011D01*
X142332907Y-71117380D01*
X120933014Y-71117380D01*
X117499013Y-67683380D01*
X119860645Y-65321749D01*
X119515925Y-65790170D01*
X119505805Y-65807913D01*
X119493568Y-65824270D01*
X119472663Y-65866016D01*
X119200616Y-66505368D01*
X119194849Y-66524964D01*
X119186704Y-66543696D01*
X119175963Y-66589131D01*
X119058295Y-67273919D01*
X119057190Y-67294321D01*
X119053574Y-67314420D01*
X119053573Y-67361108D01*
X119096596Y-68054597D01*
X119100214Y-68074702D01*
X119101318Y-68095099D01*
X119112059Y-68140534D01*
X119313466Y-68805527D01*
X119321610Y-68824255D01*
X119327378Y-68843855D01*
X119348283Y-68885601D01*
X119697269Y-69486425D01*
X119709505Y-69502781D01*
X119719626Y-69520525D01*
X119749574Y-69556342D01*
X120227418Y-70060766D01*
X120243090Y-70073870D01*
X120257020Y-70088808D01*
X120294404Y-70116775D01*
X120875477Y-70497743D01*
X120893738Y-70506887D01*
X120910735Y-70518223D01*
X120953551Y-70536839D01*
X121606679Y-70773914D01*
X121626557Y-70778613D01*
X121645703Y-70785733D01*
X121691653Y-70794001D01*
X122366780Y-70872713D01*
X122388334Y-70877000D01*
X138464586Y-70877000D01*
X138476115Y-70874707D01*
X138821608Y-70853273D01*
X138831689Y-70851459D01*
X138841922Y-70851459D01*
X138887872Y-70843192D01*
X139562783Y-70678042D01*
X139581933Y-70670920D01*
X139601808Y-70666222D01*
X139644624Y-70647606D01*
X140263441Y-70331622D01*
X140280436Y-70320288D01*
X140298699Y-70311142D01*
X140336083Y-70283175D01*
X140865612Y-69833308D01*
X140879545Y-69818366D01*
X140895213Y-69805266D01*
X140925161Y-69769449D01*
X141336995Y-69209830D01*
X141347115Y-69192087D01*
X141359352Y-69175730D01*
X141380257Y-69133984D01*
X141652304Y-68494632D01*
X141658071Y-68475036D01*
X141666216Y-68456304D01*
X141676957Y-68410869D01*
X141794625Y-67726081D01*
X141795730Y-67705679D01*
X141799346Y-67685580D01*
X141799347Y-67638892D01*
X141756324Y-66945402D01*
X141752706Y-66925297D01*
X141751602Y-66904901D01*
X141740861Y-66859466D01*
X141539454Y-66194473D01*
X141531310Y-66175743D01*
X141525542Y-66156145D01*
X141504637Y-66114399D01*
X141155651Y-65513575D01*
X141143414Y-65497218D01*
X141133294Y-65479475D01*
X141103346Y-65443658D01*
X140625501Y-64939234D01*
X140609830Y-64926131D01*
X140595900Y-64911193D01*
X140558516Y-64883225D01*
X139977444Y-64502257D01*
X139959180Y-64493111D01*
X139942185Y-64481777D01*
X139899370Y-64463161D01*
X139246241Y-64226087D01*
X139226368Y-64221389D01*
X139207217Y-64214267D01*
X139161267Y-64205999D01*
X138486140Y-64127287D01*
X138464586Y-64123000D01*
X122388334Y-64123000D01*
X122376805Y-64125293D01*
X122031312Y-64146727D01*
X122021231Y-64148541D01*
X122010998Y-64148541D01*
X121965048Y-64156808D01*
X121290136Y-64321958D01*
X121270986Y-64329080D01*
X121251112Y-64333778D01*
X121208296Y-64352394D01*
X120589479Y-64668378D01*
X120572484Y-64679712D01*
X120554221Y-64688858D01*
X120516837Y-64716825D01*
X120176043Y-65006351D01*
X121161014Y-64021380D01*
X143216016Y-64021380D01*
X143297460Y-64037580D01*
X143378904Y-64021380D01*
X143378908Y-64021380D01*
X143620139Y-63973396D01*
X143893693Y-63790613D01*
X143939832Y-63721561D01*
X144670377Y-62991016D01*
X145198000Y-62991016D01*
X145198000Y-63508984D01*
X145396217Y-63987524D01*
X145762476Y-64353783D01*
X146241016Y-64552000D01*
X146758984Y-64552000D01*
X147237524Y-64353783D01*
X147603783Y-63987524D01*
X147768021Y-63591016D01*
X150098000Y-63591016D01*
X150098000Y-64108984D01*
X150296217Y-64587524D01*
X150662476Y-64953783D01*
X151141016Y-65152000D01*
X151658984Y-65152000D01*
X152137524Y-64953783D01*
X152503783Y-64587524D01*
X152702000Y-64108984D01*
X152702000Y-63591016D01*
X152503783Y-63112476D01*
X152137524Y-62746217D01*
X151658984Y-62548000D01*
X151141016Y-62548000D01*
X150662476Y-62746217D01*
X150296217Y-63112476D01*
X150098000Y-63591016D01*
X147768021Y-63591016D01*
X147802000Y-63508984D01*
X147802000Y-62991016D01*
X147603783Y-62512476D01*
X147237524Y-62146217D01*
X146758984Y-61948000D01*
X146241016Y-61948000D01*
X145762476Y-62146217D01*
X145396217Y-62512476D01*
X145198000Y-62991016D01*
X144670377Y-62991016D01*
X146027184Y-61634210D01*
X146096233Y-61588073D01*
X146279016Y-61314519D01*
X146327000Y-61073288D01*
X146327000Y-61073284D01*
X146343200Y-60991840D01*
X146327000Y-60910396D01*
X146327000Y-60733406D01*
X146450000Y-60733406D01*
X146577589Y-60708027D01*
X146685754Y-60635754D01*
X146758027Y-60527589D01*
X146783406Y-60400000D01*
X146783406Y-60100000D01*
X146763515Y-60000000D01*
X146783406Y-59900000D01*
X146783406Y-59600000D01*
X146763192Y-59498379D01*
X146777000Y-59465045D01*
X146777000Y-59406750D01*
X146695250Y-59325000D01*
X146627018Y-59325000D01*
X146577589Y-59291973D01*
X146450000Y-59266594D01*
X144550000Y-59266594D01*
X144422411Y-59291973D01*
X144372982Y-59325000D01*
X144304750Y-59325000D01*
X144223000Y-59406750D01*
X144223000Y-59465045D01*
X144236808Y-59498379D01*
X144216594Y-59600000D01*
X144216594Y-59900000D01*
X144236485Y-60000000D01*
X144216594Y-60100000D01*
X144216594Y-60400000D01*
X144241973Y-60527589D01*
X144314246Y-60635754D01*
X144422411Y-60708027D01*
X144550000Y-60733406D01*
X144588880Y-60733406D01*
X142954907Y-62367380D01*
X120899904Y-62367380D01*
X120818460Y-62351180D01*
X120737016Y-62367380D01*
X120737012Y-62367380D01*
X120495781Y-62415364D01*
X120222227Y-62598147D01*
X120176090Y-62667196D01*
X115859907Y-66983380D01*
X109025902Y-66983380D01*
X108944459Y-66967180D01*
X108863016Y-66983380D01*
X108863012Y-66983380D01*
X108621781Y-67031364D01*
X108348227Y-67214147D01*
X108302090Y-67283196D01*
X106803278Y-68782009D01*
X106734226Y-68828148D01*
X106551443Y-69101703D01*
X106503459Y-69342934D01*
X106503459Y-69342937D01*
X106487259Y-69424381D01*
X106503459Y-69505825D01*
X106503460Y-89261826D01*
X106158091Y-89607196D01*
X106021444Y-89811702D01*
X106013353Y-89852380D01*
X105676159Y-89852380D01*
X105878709Y-89549242D01*
X105970058Y-89090000D01*
X105878709Y-88630758D01*
X105618569Y-88241431D01*
X105229242Y-87981291D01*
X104885920Y-87913000D01*
X104654080Y-87913000D01*
X104310758Y-87981291D01*
X103921431Y-88241431D01*
X103661291Y-88630758D01*
X103640167Y-88736953D01*
X103513747Y-87905240D01*
X103492569Y-87829243D01*
X103421684Y-87723156D01*
X103315597Y-87652271D01*
X103190460Y-87627380D01*
X101220460Y-87627380D01*
X101105740Y-87648164D01*
X100997289Y-87715374D01*
X100922813Y-87818971D01*
X100893652Y-87943183D01*
X100733652Y-92613183D01*
X100757759Y-92748077D01*
X100828138Y-92854500D01*
X100933885Y-92925889D01*
X101058903Y-92951376D01*
X103158903Y-92961376D01*
X103227602Y-92954413D01*
X103344962Y-92904358D01*
X103434234Y-92813201D01*
X103481826Y-92694820D01*
X103586594Y-92137761D01*
X103586594Y-92480000D01*
X103611973Y-92607589D01*
X103684246Y-92715754D01*
X103792411Y-92788027D01*
X103920000Y-92813406D01*
X105620000Y-92813406D01*
X105747589Y-92788027D01*
X105855754Y-92715754D01*
X105928027Y-92607589D01*
X105953406Y-92480000D01*
X105953406Y-90780000D01*
X105948708Y-90756380D01*
X106242790Y-90756380D01*
X106477782Y-90913396D01*
X106800460Y-90977580D01*
X107123138Y-90913396D01*
X107327644Y-90776749D01*
X107857642Y-90246752D01*
X107926692Y-90200614D01*
X108109475Y-89927060D01*
X108157459Y-89685829D01*
X108157459Y-89685825D01*
X108173659Y-89604381D01*
X108157459Y-89522937D01*
X108157459Y-69766934D01*
X109287014Y-68637380D01*
X116015525Y-68637380D01*
X116133781Y-68716396D01*
X116207608Y-68731081D01*
X119948090Y-72471564D01*
X119994227Y-72540613D01*
X120267781Y-72723396D01*
X120509012Y-72771380D01*
X120509016Y-72771380D01*
X120590460Y-72787580D01*
X120671904Y-72771380D01*
X142594016Y-72771380D01*
X142675460Y-72787580D01*
X142756904Y-72771380D01*
X142756908Y-72771380D01*
X142998139Y-72723396D01*
X143271693Y-72540613D01*
X143317832Y-72471561D01*
X145174394Y-70615000D01*
X145837841Y-70615000D01*
X145762476Y-70646217D01*
X145396217Y-71012476D01*
X145198000Y-71491016D01*
X145198000Y-72008984D01*
X145396217Y-72487524D01*
X145762476Y-72853783D01*
X146241016Y-73052000D01*
X146758984Y-73052000D01*
X147237524Y-72853783D01*
X147603783Y-72487524D01*
X147802000Y-72008984D01*
X147802000Y-71491016D01*
X147603783Y-71012476D01*
X147237524Y-70646217D01*
X147162159Y-70615000D01*
X147428527Y-70615000D01*
X148976081Y-72162555D01*
X148976080Y-81746206D01*
X148299287Y-82423000D01*
X147846437Y-82423000D01*
X147983273Y-82366321D01*
X148187781Y-82161813D01*
X148298460Y-81894609D01*
X148298460Y-81605391D01*
X148187781Y-81338187D01*
X147983273Y-81133679D01*
X147716069Y-81023000D01*
X147426851Y-81023000D01*
X147159647Y-81133679D01*
X146995326Y-81298000D01*
X146783406Y-81298000D01*
X146783406Y-81100000D01*
X146763515Y-81000000D01*
X146783406Y-80900000D01*
X146783406Y-80600000D01*
X146763515Y-80500000D01*
X146783406Y-80400000D01*
X146783406Y-80100000D01*
X146763515Y-80000000D01*
X146783406Y-79900000D01*
X146783406Y-79600000D01*
X146763192Y-79498379D01*
X146777000Y-79465045D01*
X146777000Y-79406750D01*
X146695250Y-79325000D01*
X146627018Y-79325000D01*
X146577589Y-79291973D01*
X146450000Y-79266594D01*
X144550000Y-79266594D01*
X144422411Y-79291973D01*
X144413391Y-79298000D01*
X141566065Y-79298000D01*
X141662065Y-79202000D01*
X144413391Y-79202000D01*
X144422411Y-79208027D01*
X144550000Y-79233406D01*
X146450000Y-79233406D01*
X146577589Y-79208027D01*
X146627018Y-79175000D01*
X146695250Y-79175000D01*
X146777000Y-79093250D01*
X146777000Y-79034955D01*
X146763192Y-79001621D01*
X146783406Y-78900000D01*
X146783406Y-78600000D01*
X146763515Y-78500000D01*
X146783406Y-78400000D01*
X146783406Y-78100000D01*
X146763192Y-77998379D01*
X146777000Y-77965045D01*
X146777000Y-77906750D01*
X146695250Y-77825000D01*
X146627018Y-77825000D01*
X146577589Y-77791973D01*
X146450000Y-77766594D01*
X144550000Y-77766594D01*
X144422411Y-77791973D01*
X144375975Y-77823000D01*
X144251868Y-77823000D01*
X144178867Y-77750000D01*
X144251868Y-77677000D01*
X144375975Y-77677000D01*
X144422411Y-77708027D01*
X144550000Y-77733406D01*
X146450000Y-77733406D01*
X146577589Y-77708027D01*
X146627018Y-77675000D01*
X146695250Y-77675000D01*
X146777000Y-77593250D01*
X146777000Y-77534955D01*
X146763192Y-77501621D01*
X146783406Y-77400000D01*
X146783406Y-77100000D01*
X146763515Y-77000000D01*
X146783406Y-76900000D01*
X146783406Y-76600000D01*
X146763192Y-76498379D01*
X146777000Y-76465045D01*
X146777000Y-76406750D01*
X146695250Y-76325000D01*
X146627018Y-76325000D01*
X146577589Y-76291973D01*
X146450000Y-76266594D01*
X144550000Y-76266594D01*
X144422411Y-76291973D01*
X144375975Y-76323000D01*
X144251868Y-76323000D01*
X144178867Y-76250000D01*
X144251868Y-76177000D01*
X144375975Y-76177000D01*
X144422411Y-76208027D01*
X144550000Y-76233406D01*
X146450000Y-76233406D01*
X146577589Y-76208027D01*
X146627018Y-76175000D01*
X146695250Y-76175000D01*
X146777000Y-76093250D01*
X146777000Y-76034955D01*
X146763192Y-76001621D01*
X146783406Y-75900000D01*
X146783406Y-75600000D01*
X146763515Y-75500000D01*
X146783406Y-75400000D01*
X146783406Y-75100000D01*
X146763192Y-74998379D01*
X146777000Y-74965045D01*
X146777000Y-74906750D01*
X146695250Y-74825000D01*
X146627018Y-74825000D01*
X146577589Y-74791973D01*
X146450000Y-74766594D01*
X144550000Y-74766594D01*
X144422411Y-74791973D01*
X144375975Y-74823000D01*
X144251868Y-74823000D01*
X144178867Y-74750000D01*
X144251868Y-74677000D01*
X144375975Y-74677000D01*
X144422411Y-74708027D01*
X144550000Y-74733406D01*
X146450000Y-74733406D01*
X146577589Y-74708027D01*
X146627018Y-74675000D01*
X146695250Y-74675000D01*
X146777000Y-74593250D01*
X146777000Y-74534955D01*
X146763192Y-74501621D01*
X146783406Y-74400000D01*
X146783406Y-74100000D01*
X146758027Y-73972411D01*
X146685754Y-73864246D01*
X146577589Y-73791973D01*
X146450000Y-73766594D01*
X144550000Y-73766594D01*
X144422411Y-73791973D01*
X144375975Y-73823000D01*
X144117053Y-73823000D01*
X144074999Y-73814635D01*
X144032945Y-73823000D01*
X143908392Y-73847775D01*
X143767149Y-73942150D01*
X143743325Y-73977805D01*
X143623131Y-74098000D01*
X131817692Y-74098000D01*
X131775639Y-74089635D01*
X131733586Y-74098000D01*
X131609033Y-74122775D01*
X131467790Y-74217150D01*
X131443968Y-74252803D01*
X129002805Y-76693967D01*
X128967151Y-76717790D01*
X128927806Y-76776675D01*
X128872776Y-76859033D01*
X128839635Y-77025640D01*
X128848001Y-77067698D01*
X128848000Y-93287280D01*
X128727805Y-93407476D01*
X128692151Y-93431299D01*
X128642101Y-93506205D01*
X128597776Y-93572542D01*
X128564635Y-93739149D01*
X128573001Y-93781206D01*
X128573001Y-93931701D01*
X128567611Y-93932773D01*
X128502636Y-93976188D01*
X128490031Y-93963583D01*
X128369845Y-93913800D01*
X128208750Y-93913800D01*
X128127000Y-93995550D01*
X128127000Y-95117100D01*
X128147000Y-95117100D01*
X128147000Y-95371100D01*
X128127000Y-95371100D01*
X128127000Y-95391100D01*
X127873000Y-95391100D01*
X127873000Y-95371100D01*
X127853000Y-95371100D01*
X127853000Y-95117100D01*
X127873000Y-95117100D01*
X127873000Y-93995550D01*
X127791250Y-93913800D01*
X127630155Y-93913800D01*
X127509969Y-93963583D01*
X127497363Y-93976189D01*
X127432386Y-93932773D01*
X127304797Y-93907394D01*
X126695197Y-93907394D01*
X126567608Y-93932773D01*
X126499997Y-93977949D01*
X126432386Y-93932773D01*
X126304797Y-93907394D01*
X125695197Y-93907394D01*
X125567608Y-93932773D01*
X125499999Y-93977948D01*
X125432389Y-93932773D01*
X125304800Y-93907394D01*
X124695200Y-93907394D01*
X124567611Y-93932773D01*
X124500000Y-93977949D01*
X124432389Y-93932773D01*
X124304800Y-93907394D01*
X123695200Y-93907394D01*
X123567611Y-93932773D01*
X123500000Y-93977949D01*
X123432389Y-93932773D01*
X123304800Y-93907394D01*
X122695200Y-93907394D01*
X122681600Y-93910099D01*
X122681600Y-93344650D01*
X122599850Y-93262900D01*
X122126000Y-93262900D01*
X122126000Y-95476650D01*
X122207750Y-95558400D01*
X122361794Y-95558400D01*
X122361794Y-96247400D01*
X122387173Y-96374989D01*
X122419702Y-96423672D01*
X122411696Y-96463920D01*
X122448558Y-96649233D01*
X122456479Y-96689054D01*
X122584007Y-96879914D01*
X122632186Y-96912106D01*
X124562459Y-98842380D01*
X117139685Y-98842380D01*
X114452000Y-96154696D01*
X114452000Y-93344650D01*
X121316400Y-93344650D01*
X121316400Y-95296445D01*
X121366183Y-95416631D01*
X121458170Y-95508617D01*
X121578356Y-95558400D01*
X121790250Y-95558400D01*
X121872000Y-95476650D01*
X121872000Y-93262900D01*
X121398150Y-93262900D01*
X121316400Y-93344650D01*
X114452000Y-93344650D01*
X114452000Y-90975355D01*
X121316400Y-90975355D01*
X121316400Y-92927150D01*
X121398150Y-93008900D01*
X121872000Y-93008900D01*
X121872000Y-90795150D01*
X122126000Y-90795150D01*
X122126000Y-93008900D01*
X122599850Y-93008900D01*
X122681600Y-92927150D01*
X122681600Y-90975355D01*
X122631817Y-90855169D01*
X122539830Y-90763183D01*
X122419644Y-90713400D01*
X122207750Y-90713400D01*
X122126000Y-90795150D01*
X121872000Y-90795150D01*
X121790250Y-90713400D01*
X121578356Y-90713400D01*
X121458170Y-90763183D01*
X121366183Y-90855169D01*
X121316400Y-90975355D01*
X114452000Y-90975355D01*
X114452000Y-83023438D01*
X114460855Y-82978920D01*
X114450592Y-82927321D01*
X114425775Y-82802558D01*
X114325874Y-82653046D01*
X114288133Y-82627828D01*
X113352000Y-81691696D01*
X113352000Y-79579974D01*
X113726328Y-79329858D01*
X113979649Y-78950735D01*
X114046150Y-78616413D01*
X114046150Y-77811380D01*
X114293850Y-77811380D01*
X114293850Y-78630530D01*
X114429696Y-79059475D01*
X114719352Y-79403783D01*
X115136370Y-79608731D01*
X115313000Y-79560326D01*
X115313000Y-77811380D01*
X115567000Y-77811380D01*
X115567000Y-79560326D01*
X115743630Y-79608731D01*
X116160648Y-79403783D01*
X116450304Y-79059475D01*
X116586150Y-78630530D01*
X116586150Y-77811380D01*
X115567000Y-77811380D01*
X115313000Y-77811380D01*
X114293850Y-77811380D01*
X114046150Y-77811380D01*
X114046150Y-76752347D01*
X114043342Y-76738230D01*
X114293850Y-76738230D01*
X114293850Y-77557380D01*
X115313000Y-77557380D01*
X115313000Y-75808434D01*
X115567000Y-75808434D01*
X115567000Y-77557380D01*
X116586150Y-77557380D01*
X116586150Y-76738230D01*
X116450304Y-76309285D01*
X116160648Y-75964977D01*
X115743630Y-75760029D01*
X115567000Y-75808434D01*
X115313000Y-75808434D01*
X115136370Y-75760029D01*
X114719352Y-75964977D01*
X114429696Y-76309285D01*
X114293850Y-76738230D01*
X114043342Y-76738230D01*
X113979649Y-76418025D01*
X113726328Y-76038902D01*
X113352000Y-75788785D01*
X113352000Y-75137786D01*
X113725460Y-75137786D01*
X113853049Y-75112407D01*
X113961214Y-75040134D01*
X114033487Y-74931969D01*
X114058866Y-74804380D01*
X114058866Y-74388130D01*
X114398460Y-74388130D01*
X114398460Y-74869425D01*
X114448243Y-74989611D01*
X114540230Y-75081597D01*
X114660416Y-75131380D01*
X115266710Y-75131380D01*
X115348460Y-75049630D01*
X115348460Y-74306380D01*
X115602460Y-74306380D01*
X115602460Y-75049630D01*
X115684210Y-75131380D01*
X116290504Y-75131380D01*
X116410690Y-75081597D01*
X116502677Y-74989611D01*
X116552460Y-74869425D01*
X116552460Y-74388130D01*
X116470710Y-74306380D01*
X115602460Y-74306380D01*
X115348460Y-74306380D01*
X114480210Y-74306380D01*
X114398460Y-74388130D01*
X114058866Y-74388130D01*
X114058866Y-73554380D01*
X114045928Y-73489335D01*
X114398460Y-73489335D01*
X114398460Y-73970630D01*
X114480210Y-74052380D01*
X115348460Y-74052380D01*
X115348460Y-73309130D01*
X115602460Y-73309130D01*
X115602460Y-74052380D01*
X116470710Y-74052380D01*
X116552460Y-73970630D01*
X116552460Y-73489335D01*
X116502677Y-73369149D01*
X116410690Y-73277163D01*
X116290504Y-73227380D01*
X115684210Y-73227380D01*
X115602460Y-73309130D01*
X115348460Y-73309130D01*
X115266710Y-73227380D01*
X114660416Y-73227380D01*
X114540230Y-73277163D01*
X114448243Y-73369149D01*
X114398460Y-73489335D01*
X114045928Y-73489335D01*
X114033487Y-73426791D01*
X113961214Y-73318626D01*
X113853049Y-73246353D01*
X113725460Y-73220974D01*
X113402460Y-73220974D01*
X113402460Y-73062786D01*
X113700460Y-73062786D01*
X113828049Y-73037407D01*
X113936214Y-72965134D01*
X114008487Y-72856969D01*
X114033866Y-72729380D01*
X114033866Y-72313130D01*
X114373460Y-72313130D01*
X114373460Y-72794425D01*
X114423243Y-72914611D01*
X114515230Y-73006597D01*
X114635416Y-73056380D01*
X115241710Y-73056380D01*
X115323460Y-72974630D01*
X115323460Y-72231380D01*
X115577460Y-72231380D01*
X115577460Y-72974630D01*
X115659210Y-73056380D01*
X116265504Y-73056380D01*
X116385690Y-73006597D01*
X116477677Y-72914611D01*
X116527460Y-72794425D01*
X116527460Y-72313130D01*
X116445710Y-72231380D01*
X115577460Y-72231380D01*
X115323460Y-72231380D01*
X114455210Y-72231380D01*
X114373460Y-72313130D01*
X114033866Y-72313130D01*
X114033866Y-71479380D01*
X114020928Y-71414335D01*
X114373460Y-71414335D01*
X114373460Y-71895630D01*
X114455210Y-71977380D01*
X115323460Y-71977380D01*
X115323460Y-71234130D01*
X115577460Y-71234130D01*
X115577460Y-71977380D01*
X116445710Y-71977380D01*
X116527460Y-71895630D01*
X116527460Y-71414335D01*
X116477677Y-71294149D01*
X116385690Y-71202163D01*
X116265504Y-71152380D01*
X115659210Y-71152380D01*
X115577460Y-71234130D01*
X115323460Y-71234130D01*
X115241710Y-71152380D01*
X114635416Y-71152380D01*
X114515230Y-71202163D01*
X114423243Y-71294149D01*
X114373460Y-71414335D01*
X114020928Y-71414335D01*
X114008487Y-71351791D01*
X113936214Y-71243626D01*
X113828049Y-71171353D01*
X113700460Y-71145974D01*
X112200460Y-71145974D01*
X112072871Y-71171353D01*
X111964706Y-71243626D01*
X111892433Y-71351791D01*
X111867054Y-71479380D01*
X111867054Y-72729380D01*
X111892433Y-72856969D01*
X111964706Y-72965134D01*
X112072871Y-73037407D01*
X112200460Y-73062786D01*
X112498460Y-73062786D01*
X112498461Y-73220974D01*
X112225460Y-73220974D01*
X112097871Y-73246353D01*
X111989706Y-73318626D01*
X111917433Y-73426791D01*
X111892054Y-73554380D01*
X111892054Y-74804380D01*
X111917433Y-74931969D01*
X111989706Y-75040134D01*
X112097871Y-75112407D01*
X112225460Y-75137786D01*
X112448001Y-75137786D01*
X112448001Y-75788785D01*
X112073673Y-76038902D01*
X111820352Y-76418025D01*
X111753850Y-76752347D01*
X111753850Y-78616412D01*
X111820351Y-78950734D01*
X112073672Y-79329858D01*
X112448000Y-79579975D01*
X112448001Y-81834397D01*
X112439145Y-81878920D01*
X112474225Y-82055281D01*
X112535745Y-82147352D01*
X112574127Y-82204794D01*
X112611867Y-82230011D01*
X113548001Y-83166146D01*
X113548000Y-96297402D01*
X113539145Y-96341920D01*
X113548000Y-96386437D01*
X113574225Y-96518281D01*
X113674126Y-96667794D01*
X113711869Y-96693013D01*
X116601369Y-99582514D01*
X116626586Y-99620254D01*
X116630696Y-99623000D01*
X104915594Y-99623000D01*
X105441240Y-99405270D01*
X106405270Y-98441240D01*
X106927000Y-97181673D01*
X106927000Y-95818327D01*
X106405270Y-94558760D01*
X105441240Y-93594730D01*
X104181673Y-93073000D01*
X102818327Y-93073000D01*
X101558760Y-93594730D01*
X100594730Y-94558760D01*
X100377000Y-95084406D01*
X100377000Y-86550000D01*
X103569942Y-86550000D01*
X103661291Y-87009242D01*
X103921431Y-87398569D01*
X104310758Y-87658709D01*
X104654080Y-87727000D01*
X104885920Y-87727000D01*
X105229242Y-87658709D01*
X105618569Y-87398569D01*
X105878709Y-87009242D01*
X105970058Y-86550000D01*
X105878709Y-86090758D01*
X105618569Y-85701431D01*
X105229242Y-85441291D01*
X104885920Y-85373000D01*
X104654080Y-85373000D01*
X104310758Y-85441291D01*
X103921431Y-85701431D01*
X103661291Y-86090758D01*
X103569942Y-86550000D01*
X100377000Y-86550000D01*
X100377000Y-84010000D01*
X101029942Y-84010000D01*
X101121291Y-84469242D01*
X101381431Y-84858569D01*
X101770758Y-85118709D01*
X102114080Y-85187000D01*
X102345920Y-85187000D01*
X102689242Y-85118709D01*
X103078569Y-84858569D01*
X103338709Y-84469242D01*
X103430058Y-84010000D01*
X103569942Y-84010000D01*
X103661291Y-84469242D01*
X103921431Y-84858569D01*
X104310758Y-85118709D01*
X104654080Y-85187000D01*
X104885920Y-85187000D01*
X105229242Y-85118709D01*
X105618569Y-84858569D01*
X105878709Y-84469242D01*
X105970058Y-84010000D01*
X105878709Y-83550758D01*
X105618569Y-83161431D01*
X105229242Y-82901291D01*
X104885920Y-82833000D01*
X104654080Y-82833000D01*
X104310758Y-82901291D01*
X103921431Y-83161431D01*
X103661291Y-83550758D01*
X103569942Y-84010000D01*
X103430058Y-84010000D01*
X103338709Y-83550758D01*
X103078569Y-83161431D01*
X102689242Y-82901291D01*
X102345920Y-82833000D01*
X102114080Y-82833000D01*
X101770758Y-82901291D01*
X101381431Y-83161431D01*
X101121291Y-83550758D01*
X101029942Y-84010000D01*
X100377000Y-84010000D01*
X100377000Y-81470000D01*
X101029942Y-81470000D01*
X101121291Y-81929242D01*
X101381431Y-82318569D01*
X101770758Y-82578709D01*
X102114080Y-82647000D01*
X102345920Y-82647000D01*
X102689242Y-82578709D01*
X103078569Y-82318569D01*
X103338709Y-81929242D01*
X103430058Y-81470000D01*
X103338709Y-81010758D01*
X103078569Y-80621431D01*
X102689242Y-80361291D01*
X102345920Y-80293000D01*
X102114080Y-80293000D01*
X101770758Y-80361291D01*
X101381431Y-80621431D01*
X101121291Y-81010758D01*
X101029942Y-81470000D01*
X100377000Y-81470000D01*
X100377000Y-78930000D01*
X101029942Y-78930000D01*
X101121291Y-79389242D01*
X101381431Y-79778569D01*
X101770758Y-80038709D01*
X102114080Y-80107000D01*
X102345920Y-80107000D01*
X102689242Y-80038709D01*
X103078569Y-79778569D01*
X103338709Y-79389242D01*
X103430058Y-78930000D01*
X103569942Y-78930000D01*
X103661291Y-79389242D01*
X103921431Y-79778569D01*
X104310758Y-80038709D01*
X104654080Y-80107000D01*
X104885920Y-80107000D01*
X105229242Y-80038709D01*
X105618569Y-79778569D01*
X105878709Y-79389242D01*
X105970058Y-78930000D01*
X105878709Y-78470758D01*
X105618569Y-78081431D01*
X105229242Y-77821291D01*
X104885920Y-77753000D01*
X104654080Y-77753000D01*
X104310758Y-77821291D01*
X103921431Y-78081431D01*
X103661291Y-78470758D01*
X103569942Y-78930000D01*
X103430058Y-78930000D01*
X103338709Y-78470758D01*
X103078569Y-78081431D01*
X102689242Y-77821291D01*
X102345920Y-77753000D01*
X102114080Y-77753000D01*
X101770758Y-77821291D01*
X101381431Y-78081431D01*
X101121291Y-78470758D01*
X101029942Y-78930000D01*
X100377000Y-78930000D01*
X100377000Y-76390000D01*
X103569942Y-76390000D01*
X103661291Y-76849242D01*
X103921431Y-77238569D01*
X104310758Y-77498709D01*
X104654080Y-77567000D01*
X104885920Y-77567000D01*
X105229242Y-77498709D01*
X105618569Y-77238569D01*
X105878709Y-76849242D01*
X105970058Y-76390000D01*
X105878709Y-75930758D01*
X105618569Y-75541431D01*
X105229242Y-75281291D01*
X104885920Y-75213000D01*
X104654080Y-75213000D01*
X104310758Y-75281291D01*
X103921431Y-75541431D01*
X103661291Y-75930758D01*
X103569942Y-76390000D01*
X100377000Y-76390000D01*
X100377000Y-73850000D01*
X101029942Y-73850000D01*
X101121291Y-74309242D01*
X101381431Y-74698569D01*
X101770758Y-74958709D01*
X102114080Y-75027000D01*
X102345920Y-75027000D01*
X102689242Y-74958709D01*
X103078569Y-74698569D01*
X103338709Y-74309242D01*
X103430058Y-73850000D01*
X103569942Y-73850000D01*
X103661291Y-74309242D01*
X103921431Y-74698569D01*
X104310758Y-74958709D01*
X104654080Y-75027000D01*
X104885920Y-75027000D01*
X105229242Y-74958709D01*
X105618569Y-74698569D01*
X105878709Y-74309242D01*
X105970058Y-73850000D01*
X105878709Y-73390758D01*
X105618569Y-73001431D01*
X105229242Y-72741291D01*
X104885920Y-72673000D01*
X104654080Y-72673000D01*
X104310758Y-72741291D01*
X103921431Y-73001431D01*
X103661291Y-73390758D01*
X103569942Y-73850000D01*
X103430058Y-73850000D01*
X103338709Y-73390758D01*
X103078569Y-73001431D01*
X102689242Y-72741291D01*
X102345920Y-72673000D01*
X102114080Y-72673000D01*
X101770758Y-72741291D01*
X101381431Y-73001431D01*
X101121291Y-73390758D01*
X101029942Y-73850000D01*
X100377000Y-73850000D01*
X100377000Y-71310000D01*
X101029942Y-71310000D01*
X101121291Y-71769242D01*
X101381431Y-72158569D01*
X101770758Y-72418709D01*
X102114080Y-72487000D01*
X102345920Y-72487000D01*
X102689242Y-72418709D01*
X103078569Y-72158569D01*
X103338709Y-71769242D01*
X103430058Y-71310000D01*
X103569942Y-71310000D01*
X103661291Y-71769242D01*
X103921431Y-72158569D01*
X104310758Y-72418709D01*
X104654080Y-72487000D01*
X104885920Y-72487000D01*
X105229242Y-72418709D01*
X105618569Y-72158569D01*
X105878709Y-71769242D01*
X105970058Y-71310000D01*
X105878709Y-70850758D01*
X105618569Y-70461431D01*
X105229242Y-70201291D01*
X104885920Y-70133000D01*
X104654080Y-70133000D01*
X104310758Y-70201291D01*
X103921431Y-70461431D01*
X103661291Y-70850758D01*
X103569942Y-71310000D01*
X103430058Y-71310000D01*
X103338709Y-70850758D01*
X103078569Y-70461431D01*
X102689242Y-70201291D01*
X102345920Y-70133000D01*
X102114080Y-70133000D01*
X101770758Y-70201291D01*
X101381431Y-70461431D01*
X101121291Y-70850758D01*
X101029942Y-71310000D01*
X100377000Y-71310000D01*
X100377000Y-68770000D01*
X103569942Y-68770000D01*
X103661291Y-69229242D01*
X103921431Y-69618569D01*
X104310758Y-69878709D01*
X104654080Y-69947000D01*
X104885920Y-69947000D01*
X105229242Y-69878709D01*
X105618569Y-69618569D01*
X105878709Y-69229242D01*
X105970058Y-68770000D01*
X105878709Y-68310758D01*
X105618569Y-67921431D01*
X105229242Y-67661291D01*
X104885920Y-67593000D01*
X104654080Y-67593000D01*
X104310758Y-67661291D01*
X103921431Y-67921431D01*
X103661291Y-68310758D01*
X103569942Y-68770000D01*
X100377000Y-68770000D01*
X100377000Y-66230000D01*
X101029942Y-66230000D01*
X101121291Y-66689242D01*
X101381431Y-67078569D01*
X101770758Y-67338709D01*
X102114080Y-67407000D01*
X102345920Y-67407000D01*
X102689242Y-67338709D01*
X103078569Y-67078569D01*
X103338709Y-66689242D01*
X103430058Y-66230000D01*
X103569942Y-66230000D01*
X103661291Y-66689242D01*
X103921431Y-67078569D01*
X104310758Y-67338709D01*
X104654080Y-67407000D01*
X104885920Y-67407000D01*
X105229242Y-67338709D01*
X105618569Y-67078569D01*
X105878709Y-66689242D01*
X105970058Y-66230000D01*
X105878709Y-65770758D01*
X105618569Y-65381431D01*
X105229242Y-65121291D01*
X104885920Y-65053000D01*
X104654080Y-65053000D01*
X104310758Y-65121291D01*
X103921431Y-65381431D01*
X103661291Y-65770758D01*
X103569942Y-66230000D01*
X103430058Y-66230000D01*
X103338709Y-65770758D01*
X103078569Y-65381431D01*
X102689242Y-65121291D01*
X102345920Y-65053000D01*
X102114080Y-65053000D01*
X101770758Y-65121291D01*
X101381431Y-65381431D01*
X101121291Y-65770758D01*
X101029942Y-66230000D01*
X100377000Y-66230000D01*
X100377000Y-63690000D01*
X101029942Y-63690000D01*
X101121291Y-64149242D01*
X101381431Y-64538569D01*
X101770758Y-64798709D01*
X102114080Y-64867000D01*
X102345920Y-64867000D01*
X102689242Y-64798709D01*
X103078569Y-64538569D01*
X103338709Y-64149242D01*
X103430058Y-63690000D01*
X103569942Y-63690000D01*
X103661291Y-64149242D01*
X103921431Y-64538569D01*
X104310758Y-64798709D01*
X104654080Y-64867000D01*
X104885920Y-64867000D01*
X105229242Y-64798709D01*
X105618569Y-64538569D01*
X105878709Y-64149242D01*
X105970058Y-63690000D01*
X105934877Y-63513130D01*
X111933460Y-63513130D01*
X111933460Y-63994425D01*
X111983243Y-64114611D01*
X112075230Y-64206597D01*
X112195416Y-64256380D01*
X112801710Y-64256380D01*
X112883460Y-64174630D01*
X112883460Y-63431380D01*
X113137460Y-63431380D01*
X113137460Y-64174630D01*
X113219210Y-64256380D01*
X113825504Y-64256380D01*
X113945690Y-64206597D01*
X114037677Y-64114611D01*
X114087460Y-63994425D01*
X114087460Y-63513130D01*
X114005710Y-63431380D01*
X113137460Y-63431380D01*
X112883460Y-63431380D01*
X112015210Y-63431380D01*
X111933460Y-63513130D01*
X105934877Y-63513130D01*
X105878709Y-63230758D01*
X105618569Y-62841431D01*
X105229242Y-62581291D01*
X104885920Y-62513000D01*
X104654080Y-62513000D01*
X104310758Y-62581291D01*
X103921431Y-62841431D01*
X103661291Y-63230758D01*
X103569942Y-63690000D01*
X103430058Y-63690000D01*
X103338709Y-63230758D01*
X103078569Y-62841431D01*
X102689242Y-62581291D01*
X102345920Y-62513000D01*
X102114080Y-62513000D01*
X101770758Y-62581291D01*
X101381431Y-62841431D01*
X101121291Y-63230758D01*
X101029942Y-63690000D01*
X100377000Y-63690000D01*
X100377000Y-61150000D01*
X101029942Y-61150000D01*
X101121291Y-61609242D01*
X101381431Y-61998569D01*
X101770758Y-62258709D01*
X102114080Y-62327000D01*
X102345920Y-62327000D01*
X102689242Y-62258709D01*
X103078569Y-61998569D01*
X103336111Y-61613130D01*
X111933460Y-61613130D01*
X111933460Y-62094425D01*
X111983243Y-62214611D01*
X112075230Y-62306597D01*
X112190588Y-62354380D01*
X112075230Y-62402163D01*
X111983243Y-62494149D01*
X111933460Y-62614335D01*
X111933460Y-63095630D01*
X112015210Y-63177380D01*
X112883460Y-63177380D01*
X112883460Y-62434130D01*
X112803710Y-62354380D01*
X112883460Y-62274630D01*
X112883460Y-61531380D01*
X113137460Y-61531380D01*
X113137460Y-62274630D01*
X113217210Y-62354380D01*
X113137460Y-62434130D01*
X113137460Y-63177380D01*
X114005710Y-63177380D01*
X114087460Y-63095630D01*
X114087460Y-62614335D01*
X114037677Y-62494149D01*
X113945690Y-62402163D01*
X113830332Y-62354380D01*
X113945690Y-62306597D01*
X114037677Y-62214611D01*
X114087460Y-62094425D01*
X114087460Y-61613130D01*
X114005710Y-61531380D01*
X113137460Y-61531380D01*
X112883460Y-61531380D01*
X112015210Y-61531380D01*
X111933460Y-61613130D01*
X103336111Y-61613130D01*
X103338709Y-61609242D01*
X103430058Y-61150000D01*
X103343399Y-60714335D01*
X111933460Y-60714335D01*
X111933460Y-61195630D01*
X112015210Y-61277380D01*
X112883460Y-61277380D01*
X112883460Y-60534130D01*
X113137460Y-60534130D01*
X113137460Y-61277380D01*
X114005710Y-61277380D01*
X114087460Y-61195630D01*
X114087460Y-60714335D01*
X114037677Y-60594149D01*
X113945690Y-60502163D01*
X113825504Y-60452380D01*
X113219210Y-60452380D01*
X113137460Y-60534130D01*
X112883460Y-60534130D01*
X112801710Y-60452380D01*
X112195416Y-60452380D01*
X112075230Y-60502163D01*
X111983243Y-60594149D01*
X111933460Y-60714335D01*
X103343399Y-60714335D01*
X103338709Y-60690758D01*
X103078569Y-60301431D01*
X102689242Y-60041291D01*
X102345920Y-59973000D01*
X102114080Y-59973000D01*
X101770758Y-60041291D01*
X101381431Y-60301431D01*
X101121291Y-60690758D01*
X101029942Y-61150000D01*
X100377000Y-61150000D01*
X100377000Y-58610000D01*
X101029942Y-58610000D01*
X101121291Y-59069242D01*
X101381431Y-59458569D01*
X101770758Y-59718709D01*
X102114080Y-59787000D01*
X102345920Y-59787000D01*
X102689242Y-59718709D01*
X103078569Y-59458569D01*
X103338709Y-59069242D01*
X103430058Y-58610000D01*
X103569942Y-58610000D01*
X103661291Y-59069242D01*
X103921431Y-59458569D01*
X104310758Y-59718709D01*
X104654080Y-59787000D01*
X104885920Y-59787000D01*
X105229242Y-59718709D01*
X105618569Y-59458569D01*
X105878709Y-59069242D01*
X105970058Y-58610000D01*
X105898724Y-58251380D01*
X111713850Y-58251380D01*
X111713850Y-59070530D01*
X111849696Y-59499475D01*
X112139352Y-59843783D01*
X112556370Y-60048731D01*
X112733000Y-60000326D01*
X112733000Y-58251380D01*
X112987000Y-58251380D01*
X112987000Y-60000326D01*
X113163630Y-60048731D01*
X113580648Y-59843783D01*
X113870304Y-59499475D01*
X114006150Y-59070530D01*
X114006150Y-58251380D01*
X112987000Y-58251380D01*
X112733000Y-58251380D01*
X111713850Y-58251380D01*
X105898724Y-58251380D01*
X105878709Y-58150758D01*
X105618569Y-57761431D01*
X105229242Y-57501291D01*
X104885920Y-57433000D01*
X104654080Y-57433000D01*
X104310758Y-57501291D01*
X103921431Y-57761431D01*
X103661291Y-58150758D01*
X103569942Y-58610000D01*
X103430058Y-58610000D01*
X103338709Y-58150758D01*
X103078569Y-57761431D01*
X102689242Y-57501291D01*
X102345920Y-57433000D01*
X102114080Y-57433000D01*
X101770758Y-57501291D01*
X101381431Y-57761431D01*
X101121291Y-58150758D01*
X101029942Y-58610000D01*
X100377000Y-58610000D01*
X100377000Y-56070000D01*
X103569942Y-56070000D01*
X103661291Y-56529242D01*
X103921431Y-56918569D01*
X104310758Y-57178709D01*
X104654080Y-57247000D01*
X104885920Y-57247000D01*
X105229242Y-57178709D01*
X105229958Y-57178230D01*
X111713850Y-57178230D01*
X111713850Y-57997380D01*
X112733000Y-57997380D01*
X112733000Y-56248434D01*
X112987000Y-56248434D01*
X112987000Y-57997380D01*
X114006150Y-57997380D01*
X114006150Y-57192348D01*
X114253850Y-57192348D01*
X114253850Y-59056413D01*
X114320352Y-59390735D01*
X114573673Y-59769858D01*
X114952796Y-60023179D01*
X115058460Y-60044197D01*
X115058460Y-60445974D01*
X114760460Y-60445974D01*
X114632871Y-60471353D01*
X114524706Y-60543626D01*
X114452433Y-60651791D01*
X114427054Y-60779380D01*
X114427054Y-62029380D01*
X114452433Y-62156969D01*
X114524706Y-62265134D01*
X114632871Y-62337407D01*
X114718200Y-62354380D01*
X114632871Y-62371353D01*
X114524706Y-62443626D01*
X114452433Y-62551791D01*
X114427054Y-62679380D01*
X114427054Y-63929380D01*
X114452433Y-64056969D01*
X114524706Y-64165134D01*
X114632871Y-64237407D01*
X114760460Y-64262786D01*
X116260460Y-64262786D01*
X116388049Y-64237407D01*
X116496214Y-64165134D01*
X116568487Y-64056969D01*
X116593866Y-63929380D01*
X116593866Y-62679380D01*
X116568487Y-62551791D01*
X116496214Y-62443626D01*
X116388049Y-62371353D01*
X116302720Y-62354380D01*
X116388049Y-62337407D01*
X116496214Y-62265134D01*
X116568487Y-62156969D01*
X116593866Y-62029380D01*
X116593866Y-60779380D01*
X116568487Y-60651791D01*
X116496214Y-60543626D01*
X116388049Y-60471353D01*
X116260460Y-60445974D01*
X115962460Y-60445974D01*
X115962460Y-59946168D01*
X116226328Y-59769858D01*
X116479649Y-59390735D01*
X116546150Y-59056413D01*
X116546150Y-58840605D01*
X116743678Y-59038133D01*
X116768896Y-59075874D01*
X116918408Y-59175775D01*
X117050252Y-59202000D01*
X117050253Y-59202000D01*
X117094769Y-59210855D01*
X117139286Y-59202000D01*
X144413391Y-59202000D01*
X144422411Y-59208027D01*
X144550000Y-59233406D01*
X146450000Y-59233406D01*
X146577589Y-59208027D01*
X146627018Y-59175000D01*
X146695250Y-59175000D01*
X146777000Y-59093250D01*
X146777000Y-59034955D01*
X146763192Y-59001621D01*
X146783406Y-58900000D01*
X146783406Y-58726999D01*
X147189347Y-58726999D01*
X147355326Y-58837902D01*
X147523631Y-58871380D01*
X147903632Y-58871380D01*
X147960460Y-58882684D01*
X148017288Y-58871380D01*
X148017289Y-58871380D01*
X148185594Y-58837902D01*
X148376454Y-58710374D01*
X148408648Y-58662192D01*
X150568275Y-56502566D01*
X150616454Y-56470374D01*
X150743982Y-56279514D01*
X150777460Y-56111209D01*
X150788764Y-56054381D01*
X150777460Y-55997553D01*
X150777460Y-50671209D01*
X150788764Y-50614380D01*
X150743982Y-50389245D01*
X150648645Y-50246563D01*
X150648644Y-50246562D01*
X150616454Y-50198386D01*
X150568278Y-50166196D01*
X150067460Y-49665379D01*
X150067460Y-48066387D01*
X150078764Y-48009558D01*
X150055185Y-47891016D01*
X150098000Y-47891016D01*
X150098000Y-48408984D01*
X150296217Y-48887524D01*
X150662476Y-49253783D01*
X151141016Y-49452000D01*
X151658984Y-49452000D01*
X152137524Y-49253783D01*
X152503783Y-48887524D01*
X152702000Y-48408984D01*
X152702000Y-47891016D01*
X152503783Y-47412476D01*
X152137524Y-47046217D01*
X151658984Y-46848000D01*
X151141016Y-46848000D01*
X150662476Y-47046217D01*
X150296217Y-47412476D01*
X150098000Y-47891016D01*
X150055185Y-47891016D01*
X150033982Y-47784423D01*
X149941635Y-47646217D01*
X149906454Y-47593564D01*
X149858275Y-47561372D01*
X148093470Y-45796568D01*
X148061276Y-45748386D01*
X147870416Y-45620858D01*
X147702111Y-45587380D01*
X147702110Y-45587380D01*
X147645282Y-45576076D01*
X147588454Y-45587380D01*
X138229461Y-45587380D01*
X137577000Y-44934920D01*
X137577000Y-44285210D01*
X137580356Y-44286600D01*
X137792250Y-44286600D01*
X137874000Y-44204850D01*
X137874000Y-41991100D01*
X138128000Y-41991100D01*
X138128000Y-44204850D01*
X138209750Y-44286600D01*
X138421644Y-44286600D01*
X138541830Y-44236817D01*
X138633817Y-44144831D01*
X138683600Y-44024645D01*
X138683600Y-42072850D01*
X138601850Y-41991100D01*
X138128000Y-41991100D01*
X137874000Y-41991100D01*
X137854000Y-41991100D01*
X137854000Y-41737100D01*
X137874000Y-41737100D01*
X137874000Y-39523350D01*
X138128000Y-39523350D01*
X138128000Y-41737100D01*
X138601850Y-41737100D01*
X138683600Y-41655350D01*
X138683600Y-39703555D01*
X138633817Y-39583369D01*
X138541830Y-39491383D01*
X138421644Y-39441600D01*
X138209750Y-39441600D01*
X138128000Y-39523350D01*
X137874000Y-39523350D01*
X137792250Y-39441600D01*
X137638206Y-39441600D01*
X137638206Y-38752600D01*
X137612827Y-38625011D01*
X137540554Y-38516846D01*
X137432389Y-38444573D01*
X137304800Y-38419194D01*
X136695200Y-38419194D01*
X136567611Y-38444573D01*
X136500000Y-38489749D01*
X136432389Y-38444573D01*
X136304800Y-38419194D01*
X135695200Y-38419194D01*
X135567611Y-38444573D01*
X135500000Y-38489749D01*
X135432389Y-38444573D01*
X135304800Y-38419194D01*
X134695200Y-38419194D01*
X134567611Y-38444573D01*
X134500002Y-38489748D01*
X134432392Y-38444573D01*
X134304803Y-38419194D01*
X133695203Y-38419194D01*
X133567614Y-38444573D01*
X133500003Y-38489749D01*
X133432392Y-38444573D01*
X133304803Y-38419194D01*
X132695203Y-38419194D01*
X132567614Y-38444573D01*
X132502637Y-38487989D01*
X132490031Y-38475383D01*
X132369845Y-38425600D01*
X132208750Y-38425600D01*
X132127000Y-38507350D01*
X132127000Y-39628900D01*
X132147000Y-39628900D01*
X132147000Y-39882900D01*
X132127000Y-39882900D01*
X132127000Y-41004450D01*
X132208750Y-41086200D01*
X132369845Y-41086200D01*
X132490031Y-41036417D01*
X132502637Y-41023811D01*
X132548004Y-41054124D01*
X132548003Y-43000862D01*
X132548003Y-43378851D01*
X132548004Y-43378856D01*
X132548003Y-47734816D01*
X132539148Y-47779334D01*
X132548003Y-47823851D01*
X132574228Y-47955695D01*
X132674129Y-48105208D01*
X132711872Y-48130427D01*
X135603968Y-51022524D01*
X135629186Y-51060265D01*
X135685660Y-51098000D01*
X133051149Y-51098000D01*
X131152000Y-49198852D01*
X131152000Y-41712719D01*
X131272196Y-41592524D01*
X131307850Y-41568701D01*
X131402225Y-41427458D01*
X131427000Y-41302905D01*
X131427000Y-41302904D01*
X131435365Y-41260851D01*
X131427000Y-41218797D01*
X131427000Y-41068299D01*
X131432389Y-41067227D01*
X131497364Y-41023812D01*
X131509969Y-41036417D01*
X131630155Y-41086200D01*
X131791250Y-41086200D01*
X131873000Y-41004450D01*
X131873000Y-39882900D01*
X131853000Y-39882900D01*
X131853000Y-39628900D01*
X131873000Y-39628900D01*
X131873000Y-38507350D01*
X131791250Y-38425600D01*
X131630155Y-38425600D01*
X131509969Y-38475383D01*
X131497364Y-38487988D01*
X131432389Y-38444573D01*
X131304800Y-38419194D01*
X130695200Y-38419194D01*
X130567611Y-38444573D01*
X130500000Y-38489749D01*
X130432389Y-38444573D01*
X130304800Y-38419194D01*
X129695200Y-38419194D01*
X129567611Y-38444573D01*
X129502638Y-38487986D01*
X129490035Y-38475383D01*
X129369849Y-38425600D01*
X129208754Y-38425600D01*
X129127004Y-38507350D01*
X129127004Y-39628900D01*
X129147004Y-39628900D01*
X129147004Y-39882900D01*
X129127004Y-39882900D01*
X129127004Y-41004450D01*
X129208754Y-41086200D01*
X129369849Y-41086200D01*
X129490035Y-41036417D01*
X129502638Y-41023814D01*
X129567611Y-41067227D01*
X129573000Y-41068299D01*
X129573000Y-41218798D01*
X129564635Y-41260851D01*
X129573000Y-41302904D01*
X129597775Y-41427457D01*
X129692150Y-41568701D01*
X129727807Y-41592526D01*
X129848001Y-41712721D01*
X129848000Y-49520067D01*
X129839635Y-49562120D01*
X129848000Y-49604173D01*
X129872775Y-49728726D01*
X129967150Y-49869970D01*
X130002807Y-49893795D01*
X132356207Y-52247196D01*
X132380030Y-52282850D01*
X132521273Y-52377225D01*
X132687880Y-52410365D01*
X132729934Y-52402000D01*
X143623131Y-52402000D01*
X143721130Y-52500000D01*
X143623131Y-52598000D01*
X129979149Y-52598000D01*
X128152000Y-50770852D01*
X128152000Y-41712719D01*
X128272196Y-41592524D01*
X128307850Y-41568701D01*
X128402225Y-41427458D01*
X128427000Y-41302905D01*
X128427000Y-41302904D01*
X128435365Y-41260851D01*
X128427000Y-41218797D01*
X128427000Y-41068299D01*
X128432389Y-41067227D01*
X128497367Y-41023811D01*
X128509973Y-41036417D01*
X128630159Y-41086200D01*
X128791254Y-41086200D01*
X128873004Y-41004450D01*
X128873004Y-39882900D01*
X128853004Y-39882900D01*
X128853004Y-39628900D01*
X128873004Y-39628900D01*
X128873004Y-38507350D01*
X128791254Y-38425600D01*
X128630159Y-38425600D01*
X128509973Y-38475383D01*
X128497367Y-38487989D01*
X128432389Y-38444573D01*
X128304800Y-38419194D01*
X127695200Y-38419194D01*
X127567611Y-38444573D01*
X127500000Y-38489749D01*
X127432389Y-38444573D01*
X127304800Y-38419194D01*
X126695200Y-38419194D01*
X126567611Y-38444573D01*
X126502636Y-38487988D01*
X126490031Y-38475383D01*
X126369845Y-38425600D01*
X126208750Y-38425600D01*
X126127000Y-38507350D01*
X126127000Y-39628900D01*
X126147000Y-39628900D01*
X126147000Y-39882900D01*
X126127000Y-39882900D01*
X126127000Y-41004450D01*
X126208750Y-41086200D01*
X126369845Y-41086200D01*
X126490031Y-41036417D01*
X126502636Y-41023812D01*
X126567611Y-41067227D01*
X126573000Y-41068299D01*
X126573000Y-41218798D01*
X126564635Y-41260851D01*
X126573000Y-41302904D01*
X126597775Y-41427457D01*
X126692150Y-41568701D01*
X126727807Y-41592526D01*
X126848001Y-41712721D01*
X126848000Y-51092067D01*
X126839635Y-51134120D01*
X126848000Y-51176173D01*
X126872775Y-51300726D01*
X126967150Y-51441970D01*
X127002807Y-51465795D01*
X129284209Y-53747199D01*
X129308030Y-53782850D01*
X129449273Y-53877225D01*
X129573826Y-53902000D01*
X129615879Y-53910365D01*
X129657932Y-53902000D01*
X143623131Y-53902000D01*
X143721130Y-54000000D01*
X143623131Y-54098000D01*
X127034149Y-54098000D01*
X125152002Y-52215854D01*
X125152002Y-41712717D01*
X125272196Y-41592524D01*
X125307850Y-41568701D01*
X125373763Y-41470055D01*
X125402225Y-41427459D01*
X125435365Y-41260851D01*
X125427000Y-41218797D01*
X125427000Y-41068299D01*
X125432389Y-41067227D01*
X125497364Y-41023812D01*
X125509969Y-41036417D01*
X125630155Y-41086200D01*
X125791250Y-41086200D01*
X125873000Y-41004450D01*
X125873000Y-39882900D01*
X125853000Y-39882900D01*
X125853000Y-39628900D01*
X125873000Y-39628900D01*
X125873000Y-38507350D01*
X125791250Y-38425600D01*
X125630155Y-38425600D01*
X125509969Y-38475383D01*
X125497364Y-38487988D01*
X125432389Y-38444573D01*
X125304800Y-38419194D01*
X124695200Y-38419194D01*
X124567611Y-38444573D01*
X124500002Y-38489748D01*
X124432393Y-38444573D01*
X124304804Y-38419194D01*
X123695204Y-38419194D01*
X123567615Y-38444573D01*
X123502637Y-38487989D01*
X123490031Y-38475383D01*
X123369845Y-38425600D01*
X123208750Y-38425600D01*
X123127000Y-38507350D01*
X123127000Y-39628900D01*
X123147000Y-39628900D01*
X123147000Y-39882900D01*
X123127000Y-39882900D01*
X123127000Y-41004450D01*
X123208750Y-41086200D01*
X123369845Y-41086200D01*
X123490031Y-41036417D01*
X123502637Y-41023811D01*
X123567615Y-41067227D01*
X123573004Y-41068299D01*
X123573004Y-41218798D01*
X123564639Y-41260851D01*
X123573004Y-41302904D01*
X123597779Y-41427457D01*
X123692154Y-41568701D01*
X123727811Y-41592526D01*
X123848003Y-41712719D01*
X123848002Y-52537069D01*
X123839637Y-52579122D01*
X123848002Y-52621175D01*
X123872777Y-52745728D01*
X123967152Y-52886972D01*
X124002809Y-52910797D01*
X126339209Y-55247199D01*
X126363030Y-55282850D01*
X126504273Y-55377225D01*
X126628826Y-55402000D01*
X126670879Y-55410365D01*
X126712932Y-55402000D01*
X143623131Y-55402000D01*
X143743325Y-55522195D01*
X143767149Y-55557850D01*
X143887682Y-55638387D01*
X143908392Y-55652225D01*
X144074999Y-55685365D01*
X144117053Y-55677000D01*
X144216594Y-55677000D01*
X144216594Y-55900000D01*
X144236808Y-56001621D01*
X144223000Y-56034955D01*
X144223000Y-56093250D01*
X144304750Y-56175000D01*
X144372982Y-56175000D01*
X144422411Y-56208027D01*
X144550000Y-56233406D01*
X146450000Y-56233406D01*
X146577589Y-56208027D01*
X146586609Y-56202000D01*
X147010794Y-56202000D01*
X146914794Y-56298000D01*
X146586609Y-56298000D01*
X146577589Y-56291973D01*
X146450000Y-56266594D01*
X144550000Y-56266594D01*
X144422411Y-56291973D01*
X144372982Y-56325000D01*
X144304750Y-56325000D01*
X144223000Y-56406750D01*
X144223000Y-56465045D01*
X144236808Y-56498379D01*
X144216594Y-56600000D01*
X144216594Y-56900000D01*
X144236485Y-57000000D01*
X144216594Y-57100000D01*
X144216594Y-57400000D01*
X144236485Y-57500000D01*
X144216594Y-57600000D01*
X144216594Y-57900000D01*
X144227383Y-57954240D01*
X144164306Y-58048640D01*
X144129226Y-58225001D01*
X144143746Y-58298000D01*
X117281995Y-58298000D01*
X116820243Y-57836249D01*
X116795024Y-57798506D01*
X116645512Y-57698605D01*
X116546150Y-57678841D01*
X116546150Y-57192347D01*
X116479649Y-56858025D01*
X116226328Y-56478902D01*
X115847204Y-56225581D01*
X115400000Y-56136626D01*
X114952795Y-56225581D01*
X114573672Y-56478902D01*
X114320351Y-56858026D01*
X114253850Y-57192348D01*
X114006150Y-57192348D01*
X114006150Y-57178230D01*
X113870304Y-56749285D01*
X113580648Y-56404977D01*
X113163630Y-56200029D01*
X112987000Y-56248434D01*
X112733000Y-56248434D01*
X112556370Y-56200029D01*
X112139352Y-56404977D01*
X111849696Y-56749285D01*
X111713850Y-57178230D01*
X105229958Y-57178230D01*
X105618569Y-56918569D01*
X105878709Y-56529242D01*
X105970058Y-56070000D01*
X105878709Y-55610758D01*
X105618569Y-55221431D01*
X105229242Y-54961291D01*
X104885920Y-54893000D01*
X104654080Y-54893000D01*
X104310758Y-54961291D01*
X103921431Y-55221431D01*
X103661291Y-55610758D01*
X103569942Y-56070000D01*
X100377000Y-56070000D01*
X100377000Y-53530000D01*
X101029942Y-53530000D01*
X101121291Y-53989242D01*
X101381431Y-54378569D01*
X101770758Y-54638709D01*
X102114080Y-54707000D01*
X102345920Y-54707000D01*
X102689242Y-54638709D01*
X103078569Y-54378569D01*
X103338709Y-53989242D01*
X103430058Y-53530000D01*
X103569942Y-53530000D01*
X103661291Y-53989242D01*
X103921431Y-54378569D01*
X104310758Y-54638709D01*
X104654080Y-54707000D01*
X104885920Y-54707000D01*
X105229242Y-54638709D01*
X105618569Y-54378569D01*
X105878709Y-53989242D01*
X105970058Y-53530000D01*
X105878709Y-53070758D01*
X105618569Y-52681431D01*
X105229242Y-52421291D01*
X104885920Y-52353000D01*
X104654080Y-52353000D01*
X104310758Y-52421291D01*
X103921431Y-52681431D01*
X103661291Y-53070758D01*
X103569942Y-53530000D01*
X103430058Y-53530000D01*
X103338709Y-53070758D01*
X103078569Y-52681431D01*
X102689242Y-52421291D01*
X102345920Y-52353000D01*
X102114080Y-52353000D01*
X101770758Y-52421291D01*
X101381431Y-52681431D01*
X101121291Y-53070758D01*
X101029942Y-53530000D01*
X100377000Y-53530000D01*
X100377000Y-50990000D01*
X103569942Y-50990000D01*
X103661291Y-51449242D01*
X103921431Y-51838569D01*
X104310758Y-52098709D01*
X104654080Y-52167000D01*
X104885920Y-52167000D01*
X105229242Y-52098709D01*
X105618569Y-51838569D01*
X105878709Y-51449242D01*
X105970058Y-50990000D01*
X105878709Y-50530758D01*
X105618569Y-50141431D01*
X105229242Y-49881291D01*
X104885920Y-49813000D01*
X104654080Y-49813000D01*
X104310758Y-49881291D01*
X103921431Y-50141431D01*
X103661291Y-50530758D01*
X103569942Y-50990000D01*
X100377000Y-50990000D01*
X100377000Y-48450000D01*
X101029942Y-48450000D01*
X101121291Y-48909242D01*
X101381431Y-49298569D01*
X101770758Y-49558709D01*
X102114080Y-49627000D01*
X102345920Y-49627000D01*
X102689242Y-49558709D01*
X103078569Y-49298569D01*
X103338709Y-48909242D01*
X103430058Y-48450000D01*
X103569942Y-48450000D01*
X103661291Y-48909242D01*
X103921431Y-49298569D01*
X104310758Y-49558709D01*
X104654080Y-49627000D01*
X104885920Y-49627000D01*
X105229242Y-49558709D01*
X105618569Y-49298569D01*
X105878709Y-48909242D01*
X105970058Y-48450000D01*
X105878709Y-47990758D01*
X105618569Y-47601431D01*
X105229242Y-47341291D01*
X104885920Y-47273000D01*
X104654080Y-47273000D01*
X104310758Y-47341291D01*
X103921431Y-47601431D01*
X103661291Y-47990758D01*
X103569942Y-48450000D01*
X103430058Y-48450000D01*
X103338709Y-47990758D01*
X103078569Y-47601431D01*
X102689242Y-47341291D01*
X102345920Y-47273000D01*
X102114080Y-47273000D01*
X101770758Y-47341291D01*
X101381431Y-47601431D01*
X101121291Y-47990758D01*
X101029942Y-48450000D01*
X100377000Y-48450000D01*
X100377000Y-45910000D01*
X101029942Y-45910000D01*
X101121291Y-46369242D01*
X101381431Y-46758569D01*
X101770758Y-47018709D01*
X102114080Y-47087000D01*
X102345920Y-47087000D01*
X102689242Y-47018709D01*
X103078569Y-46758569D01*
X103338709Y-46369242D01*
X103430058Y-45910000D01*
X103569942Y-45910000D01*
X103661291Y-46369242D01*
X103921431Y-46758569D01*
X104310758Y-47018709D01*
X104654080Y-47087000D01*
X104885920Y-47087000D01*
X105229242Y-47018709D01*
X105618569Y-46758569D01*
X105878709Y-46369242D01*
X105970058Y-45910000D01*
X105878709Y-45450758D01*
X105618569Y-45061431D01*
X105229242Y-44801291D01*
X104885920Y-44733000D01*
X104654080Y-44733000D01*
X104310758Y-44801291D01*
X103921431Y-45061431D01*
X103661291Y-45450758D01*
X103569942Y-45910000D01*
X103430058Y-45910000D01*
X103338709Y-45450758D01*
X103078569Y-45061431D01*
X102689242Y-44801291D01*
X102345920Y-44733000D01*
X102114080Y-44733000D01*
X101770758Y-44801291D01*
X101381431Y-45061431D01*
X101121291Y-45450758D01*
X101029942Y-45910000D01*
X100377000Y-45910000D01*
X100377000Y-43370000D01*
X101029942Y-43370000D01*
X101121291Y-43829242D01*
X101381431Y-44218569D01*
X101770758Y-44478709D01*
X102114080Y-44547000D01*
X102345920Y-44547000D01*
X102689242Y-44478709D01*
X103078569Y-44218569D01*
X103338709Y-43829242D01*
X103430058Y-43370000D01*
X103338709Y-42910758D01*
X103078569Y-42521431D01*
X102689242Y-42261291D01*
X102345920Y-42193000D01*
X102114080Y-42193000D01*
X101770758Y-42261291D01*
X101381431Y-42521431D01*
X101121291Y-42910758D01*
X101029942Y-43370000D01*
X100377000Y-43370000D01*
X100377000Y-42072850D01*
X121316400Y-42072850D01*
X121316400Y-44024645D01*
X121366183Y-44144831D01*
X121458170Y-44236817D01*
X121578356Y-44286600D01*
X121790250Y-44286600D01*
X121872000Y-44204850D01*
X121872000Y-41991100D01*
X122126000Y-41991100D01*
X122126000Y-44204850D01*
X122207750Y-44286600D01*
X122419644Y-44286600D01*
X122539830Y-44236817D01*
X122631817Y-44144831D01*
X122681600Y-44024645D01*
X122681600Y-42072850D01*
X122599850Y-41991100D01*
X122126000Y-41991100D01*
X121872000Y-41991100D01*
X121398150Y-41991100D01*
X121316400Y-42072850D01*
X100377000Y-42072850D01*
X100377000Y-39915594D01*
X100594730Y-40441240D01*
X101558760Y-41405270D01*
X102818327Y-41927000D01*
X104181673Y-41927000D01*
X105441240Y-41405270D01*
X106405270Y-40441240D01*
X106710829Y-39703555D01*
X121316400Y-39703555D01*
X121316400Y-41655350D01*
X121398150Y-41737100D01*
X121872000Y-41737100D01*
X121872000Y-39523350D01*
X122126000Y-39523350D01*
X122126000Y-41737100D01*
X122599850Y-41737100D01*
X122681600Y-41655350D01*
X122681600Y-41086200D01*
X122791250Y-41086200D01*
X122873000Y-41004450D01*
X122873000Y-39882900D01*
X122853000Y-39882900D01*
X122853000Y-39628900D01*
X122873000Y-39628900D01*
X122873000Y-38507350D01*
X122791250Y-38425600D01*
X122630155Y-38425600D01*
X122509969Y-38475383D01*
X122417983Y-38567370D01*
X122368200Y-38687556D01*
X122368200Y-39441600D01*
X122207750Y-39441600D01*
X122126000Y-39523350D01*
X121872000Y-39523350D01*
X121790250Y-39441600D01*
X121578356Y-39441600D01*
X121458170Y-39491383D01*
X121366183Y-39583369D01*
X121316400Y-39703555D01*
X106710829Y-39703555D01*
X106927000Y-39181673D01*
X106927000Y-37818327D01*
X106405270Y-36558760D01*
X105441240Y-35594730D01*
X104915594Y-35377000D01*
X151084406Y-35377000D01*
X150558760Y-35594730D01*
X150558760Y-35594730D01*
G37*
X150558760Y-35594730D02*
X149594730Y-36558760D01*
X149073000Y-37818327D01*
X149073000Y-39181673D01*
X149594730Y-40441240D01*
X150558760Y-41405270D01*
X151818327Y-41927000D01*
X153181673Y-41927000D01*
X154441240Y-41405270D01*
X155405270Y-40441240D01*
X155623000Y-39915594D01*
X155623001Y-95084409D01*
X155405270Y-94558760D01*
X154441240Y-93594730D01*
X153181673Y-93073000D01*
X151818327Y-93073000D01*
X150558760Y-93594730D01*
X149594730Y-94558760D01*
X149073000Y-95818327D01*
X149073000Y-97181673D01*
X149594730Y-98441240D01*
X150558760Y-99405270D01*
X151084406Y-99623000D01*
X143841224Y-99623000D01*
X143845334Y-99620254D01*
X143870553Y-99582511D01*
X149891594Y-93561471D01*
X149929334Y-93536254D01*
X150029235Y-93386742D01*
X150055460Y-93254898D01*
X150055460Y-93254897D01*
X150064315Y-93210381D01*
X150055460Y-93165864D01*
X150055460Y-92516514D01*
X150219781Y-92352193D01*
X150330460Y-92084989D01*
X150330460Y-91795771D01*
X150219781Y-91528567D01*
X150015273Y-91324059D01*
X149748069Y-91213380D01*
X149458851Y-91213380D01*
X149191647Y-91324059D01*
X148987139Y-91528567D01*
X148876460Y-91795771D01*
X148876460Y-92084989D01*
X148987139Y-92352193D01*
X149151460Y-92516514D01*
X149151461Y-93023154D01*
X143332236Y-98842380D01*
X140016874Y-98842380D01*
X141398275Y-97460980D01*
X141446454Y-97428788D01*
X141546918Y-97278433D01*
X141573982Y-97237929D01*
X141618764Y-97012794D01*
X141607460Y-96955965D01*
X141607460Y-85991016D01*
X145198000Y-85991016D01*
X145198000Y-86508984D01*
X145396217Y-86987524D01*
X145762476Y-87353783D01*
X146241016Y-87552000D01*
X146758984Y-87552000D01*
X147237524Y-87353783D01*
X147603783Y-86987524D01*
X147768021Y-86591016D01*
X150098000Y-86591016D01*
X150098000Y-87108984D01*
X150296217Y-87587524D01*
X150662476Y-87953783D01*
X151141016Y-88152000D01*
X151658984Y-88152000D01*
X152137524Y-87953783D01*
X152503783Y-87587524D01*
X152702000Y-87108984D01*
X152702000Y-86591016D01*
X152503783Y-86112476D01*
X152137524Y-85746217D01*
X151658984Y-85548000D01*
X151141016Y-85548000D01*
X150662476Y-85746217D01*
X150296217Y-86112476D01*
X150098000Y-86591016D01*
X147768021Y-86591016D01*
X147802000Y-86508984D01*
X147802000Y-85991016D01*
X147603783Y-85512476D01*
X147237524Y-85146217D01*
X146758984Y-84948000D01*
X146241016Y-84948000D01*
X145762476Y-85146217D01*
X145396217Y-85512476D01*
X145198000Y-85991016D01*
X141607460Y-85991016D01*
X141607460Y-82433380D01*
X142138831Y-81902010D01*
X142687289Y-81902010D01*
X142855594Y-81868532D01*
X143046454Y-81741004D01*
X143072516Y-81702000D01*
X144216594Y-81702000D01*
X144216594Y-81900000D01*
X144236808Y-82001621D01*
X144223000Y-82034955D01*
X144223000Y-82093250D01*
X144304750Y-82175000D01*
X144372982Y-82175000D01*
X144422411Y-82208027D01*
X144550000Y-82233406D01*
X146450000Y-82233406D01*
X146577589Y-82208027D01*
X146586609Y-82202000D01*
X146995326Y-82202000D01*
X147159647Y-82366321D01*
X147296483Y-82423000D01*
X146777000Y-82423000D01*
X146777000Y-82406750D01*
X146695250Y-82325000D01*
X146627018Y-82325000D01*
X146577589Y-82291973D01*
X146450000Y-82266594D01*
X144550000Y-82266594D01*
X144422411Y-82291973D01*
X144372982Y-82325000D01*
X144304750Y-82325000D01*
X144223000Y-82406750D01*
X144223000Y-82465045D01*
X144236808Y-82498379D01*
X144216594Y-82600000D01*
X144216594Y-82900000D01*
X144236485Y-83000000D01*
X144216594Y-83100000D01*
X144216594Y-83400000D01*
X144241973Y-83527589D01*
X144314246Y-83635754D01*
X144422411Y-83708027D01*
X144550000Y-83733406D01*
X144928378Y-83733406D01*
X145003767Y-83846233D01*
X145277321Y-84029016D01*
X145518552Y-84077000D01*
X148723288Y-84077000D01*
X148964519Y-84029016D01*
X149238073Y-83846233D01*
X149318031Y-83726568D01*
X149368644Y-83692749D01*
X150330264Y-82731130D01*
X150399313Y-82684993D01*
X150582096Y-82411439D01*
X150630080Y-82170208D01*
X150630080Y-82170204D01*
X150646280Y-82088761D01*
X150630080Y-82007318D01*
X150630080Y-72221387D01*
X150662476Y-72253783D01*
X151141016Y-72452000D01*
X151658984Y-72452000D01*
X152137524Y-72253783D01*
X152503783Y-71887524D01*
X152702000Y-71408984D01*
X152702000Y-70891016D01*
X152503783Y-70412476D01*
X152137524Y-70046217D01*
X151658984Y-69848000D01*
X151141016Y-69848000D01*
X150662476Y-70046217D01*
X150296217Y-70412476D01*
X150098000Y-70891016D01*
X150098000Y-70945366D01*
X148413452Y-69260819D01*
X148367313Y-69191767D01*
X148093759Y-69008984D01*
X147852528Y-68961000D01*
X147852524Y-68961000D01*
X147771080Y-68944800D01*
X147689636Y-68961000D01*
X144895632Y-68961000D01*
X144654401Y-69008984D01*
X144623132Y-69029877D01*
X144454781Y-69063364D01*
X144250275Y-69200011D01*
X142332907Y-71117380D01*
X120933014Y-71117380D01*
X117499013Y-67683380D01*
X119860645Y-65321749D01*
X119515925Y-65790170D01*
X119505805Y-65807913D01*
X119493568Y-65824270D01*
X119472663Y-65866016D01*
X119200616Y-66505368D01*
X119194849Y-66524964D01*
X119186704Y-66543696D01*
X119175963Y-66589131D01*
X119058295Y-67273919D01*
X119057190Y-67294321D01*
X119053574Y-67314420D01*
X119053573Y-67361108D01*
X119096596Y-68054597D01*
X119100214Y-68074702D01*
X119101318Y-68095099D01*
X119112059Y-68140534D01*
X119313466Y-68805527D01*
X119321610Y-68824255D01*
X119327378Y-68843855D01*
X119348283Y-68885601D01*
X119697269Y-69486425D01*
X119709505Y-69502781D01*
X119719626Y-69520525D01*
X119749574Y-69556342D01*
X120227418Y-70060766D01*
X120243090Y-70073870D01*
X120257020Y-70088808D01*
X120294404Y-70116775D01*
X120875477Y-70497743D01*
X120893738Y-70506887D01*
X120910735Y-70518223D01*
X120953551Y-70536839D01*
X121606679Y-70773914D01*
X121626557Y-70778613D01*
X121645703Y-70785733D01*
X121691653Y-70794001D01*
X122366780Y-70872713D01*
X122388334Y-70877000D01*
X138464586Y-70877000D01*
X138476115Y-70874707D01*
X138821608Y-70853273D01*
X138831689Y-70851459D01*
X138841922Y-70851459D01*
X138887872Y-70843192D01*
X139562783Y-70678042D01*
X139581933Y-70670920D01*
X139601808Y-70666222D01*
X139644624Y-70647606D01*
X140263441Y-70331622D01*
X140280436Y-70320288D01*
X140298699Y-70311142D01*
X140336083Y-70283175D01*
X140865612Y-69833308D01*
X140879545Y-69818366D01*
X140895213Y-69805266D01*
X140925161Y-69769449D01*
X141336995Y-69209830D01*
X141347115Y-69192087D01*
X141359352Y-69175730D01*
X141380257Y-69133984D01*
X141652304Y-68494632D01*
X141658071Y-68475036D01*
X141666216Y-68456304D01*
X141676957Y-68410869D01*
X141794625Y-67726081D01*
X141795730Y-67705679D01*
X141799346Y-67685580D01*
X141799347Y-67638892D01*
X141756324Y-66945402D01*
X141752706Y-66925297D01*
X141751602Y-66904901D01*
X141740861Y-66859466D01*
X141539454Y-66194473D01*
X141531310Y-66175743D01*
X141525542Y-66156145D01*
X141504637Y-66114399D01*
X141155651Y-65513575D01*
X141143414Y-65497218D01*
X141133294Y-65479475D01*
X141103346Y-65443658D01*
X140625501Y-64939234D01*
X140609830Y-64926131D01*
X140595900Y-64911193D01*
X140558516Y-64883225D01*
X139977444Y-64502257D01*
X139959180Y-64493111D01*
X139942185Y-64481777D01*
X139899370Y-64463161D01*
X139246241Y-64226087D01*
X139226368Y-64221389D01*
X139207217Y-64214267D01*
X139161267Y-64205999D01*
X138486140Y-64127287D01*
X138464586Y-64123000D01*
X122388334Y-64123000D01*
X122376805Y-64125293D01*
X122031312Y-64146727D01*
X122021231Y-64148541D01*
X122010998Y-64148541D01*
X121965048Y-64156808D01*
X121290136Y-64321958D01*
X121270986Y-64329080D01*
X121251112Y-64333778D01*
X121208296Y-64352394D01*
X120589479Y-64668378D01*
X120572484Y-64679712D01*
X120554221Y-64688858D01*
X120516837Y-64716825D01*
X120176043Y-65006351D01*
X121161014Y-64021380D01*
X143216016Y-64021380D01*
X143297460Y-64037580D01*
X143378904Y-64021380D01*
X143378908Y-64021380D01*
X143620139Y-63973396D01*
X143893693Y-63790613D01*
X143939832Y-63721561D01*
X144670377Y-62991016D01*
X145198000Y-62991016D01*
X145198000Y-63508984D01*
X145396217Y-63987524D01*
X145762476Y-64353783D01*
X146241016Y-64552000D01*
X146758984Y-64552000D01*
X147237524Y-64353783D01*
X147603783Y-63987524D01*
X147768021Y-63591016D01*
X150098000Y-63591016D01*
X150098000Y-64108984D01*
X150296217Y-64587524D01*
X150662476Y-64953783D01*
X151141016Y-65152000D01*
X151658984Y-65152000D01*
X152137524Y-64953783D01*
X152503783Y-64587524D01*
X152702000Y-64108984D01*
X152702000Y-63591016D01*
X152503783Y-63112476D01*
X152137524Y-62746217D01*
X151658984Y-62548000D01*
X151141016Y-62548000D01*
X150662476Y-62746217D01*
X150296217Y-63112476D01*
X150098000Y-63591016D01*
X147768021Y-63591016D01*
X147802000Y-63508984D01*
X147802000Y-62991016D01*
X147603783Y-62512476D01*
X147237524Y-62146217D01*
X146758984Y-61948000D01*
X146241016Y-61948000D01*
X145762476Y-62146217D01*
X145396217Y-62512476D01*
X145198000Y-62991016D01*
X144670377Y-62991016D01*
X146027184Y-61634210D01*
X146096233Y-61588073D01*
X146279016Y-61314519D01*
X146327000Y-61073288D01*
X146327000Y-61073284D01*
X146343200Y-60991840D01*
X146327000Y-60910396D01*
X146327000Y-60733406D01*
X146450000Y-60733406D01*
X146577589Y-60708027D01*
X146685754Y-60635754D01*
X146758027Y-60527589D01*
X146783406Y-60400000D01*
X146783406Y-60100000D01*
X146763515Y-60000000D01*
X146783406Y-59900000D01*
X146783406Y-59600000D01*
X146763192Y-59498379D01*
X146777000Y-59465045D01*
X146777000Y-59406750D01*
X146695250Y-59325000D01*
X146627018Y-59325000D01*
X146577589Y-59291973D01*
X146450000Y-59266594D01*
X144550000Y-59266594D01*
X144422411Y-59291973D01*
X144372982Y-59325000D01*
X144304750Y-59325000D01*
X144223000Y-59406750D01*
X144223000Y-59465045D01*
X144236808Y-59498379D01*
X144216594Y-59600000D01*
X144216594Y-59900000D01*
X144236485Y-60000000D01*
X144216594Y-60100000D01*
X144216594Y-60400000D01*
X144241973Y-60527589D01*
X144314246Y-60635754D01*
X144422411Y-60708027D01*
X144550000Y-60733406D01*
X144588880Y-60733406D01*
X142954907Y-62367380D01*
X120899904Y-62367380D01*
X120818460Y-62351180D01*
X120737016Y-62367380D01*
X120737012Y-62367380D01*
X120495781Y-62415364D01*
X120222227Y-62598147D01*
X120176090Y-62667196D01*
X115859907Y-66983380D01*
X109025902Y-66983380D01*
X108944459Y-66967180D01*
X108863016Y-66983380D01*
X108863012Y-66983380D01*
X108621781Y-67031364D01*
X108348227Y-67214147D01*
X108302090Y-67283196D01*
X106803278Y-68782009D01*
X106734226Y-68828148D01*
X106551443Y-69101703D01*
X106503459Y-69342934D01*
X106503459Y-69342937D01*
X106487259Y-69424381D01*
X106503459Y-69505825D01*
X106503460Y-89261826D01*
X106158091Y-89607196D01*
X106021444Y-89811702D01*
X106013353Y-89852380D01*
X105676159Y-89852380D01*
X105878709Y-89549242D01*
X105970058Y-89090000D01*
X105878709Y-88630758D01*
X105618569Y-88241431D01*
X105229242Y-87981291D01*
X104885920Y-87913000D01*
X104654080Y-87913000D01*
X104310758Y-87981291D01*
X103921431Y-88241431D01*
X103661291Y-88630758D01*
X103640167Y-88736953D01*
X103513747Y-87905240D01*
X103492569Y-87829243D01*
X103421684Y-87723156D01*
X103315597Y-87652271D01*
X103190460Y-87627380D01*
X101220460Y-87627380D01*
X101105740Y-87648164D01*
X100997289Y-87715374D01*
X100922813Y-87818971D01*
X100893652Y-87943183D01*
X100733652Y-92613183D01*
X100757759Y-92748077D01*
X100828138Y-92854500D01*
X100933885Y-92925889D01*
X101058903Y-92951376D01*
X103158903Y-92961376D01*
X103227602Y-92954413D01*
X103344962Y-92904358D01*
X103434234Y-92813201D01*
X103481826Y-92694820D01*
X103586594Y-92137761D01*
X103586594Y-92480000D01*
X103611973Y-92607589D01*
X103684246Y-92715754D01*
X103792411Y-92788027D01*
X103920000Y-92813406D01*
X105620000Y-92813406D01*
X105747589Y-92788027D01*
X105855754Y-92715754D01*
X105928027Y-92607589D01*
X105953406Y-92480000D01*
X105953406Y-90780000D01*
X105948708Y-90756380D01*
X106242790Y-90756380D01*
X106477782Y-90913396D01*
X106800460Y-90977580D01*
X107123138Y-90913396D01*
X107327644Y-90776749D01*
X107857642Y-90246752D01*
X107926692Y-90200614D01*
X108109475Y-89927060D01*
X108157459Y-89685829D01*
X108157459Y-89685825D01*
X108173659Y-89604381D01*
X108157459Y-89522937D01*
X108157459Y-69766934D01*
X109287014Y-68637380D01*
X116015525Y-68637380D01*
X116133781Y-68716396D01*
X116207608Y-68731081D01*
X119948090Y-72471564D01*
X119994227Y-72540613D01*
X120267781Y-72723396D01*
X120509012Y-72771380D01*
X120509016Y-72771380D01*
X120590460Y-72787580D01*
X120671904Y-72771380D01*
X142594016Y-72771380D01*
X142675460Y-72787580D01*
X142756904Y-72771380D01*
X142756908Y-72771380D01*
X142998139Y-72723396D01*
X143271693Y-72540613D01*
X143317832Y-72471561D01*
X145174394Y-70615000D01*
X145837841Y-70615000D01*
X145762476Y-70646217D01*
X145396217Y-71012476D01*
X145198000Y-71491016D01*
X145198000Y-72008984D01*
X145396217Y-72487524D01*
X145762476Y-72853783D01*
X146241016Y-73052000D01*
X146758984Y-73052000D01*
X147237524Y-72853783D01*
X147603783Y-72487524D01*
X147802000Y-72008984D01*
X147802000Y-71491016D01*
X147603783Y-71012476D01*
X147237524Y-70646217D01*
X147162159Y-70615000D01*
X147428527Y-70615000D01*
X148976081Y-72162555D01*
X148976080Y-81746206D01*
X148299287Y-82423000D01*
X147846437Y-82423000D01*
X147983273Y-82366321D01*
X148187781Y-82161813D01*
X148298460Y-81894609D01*
X148298460Y-81605391D01*
X148187781Y-81338187D01*
X147983273Y-81133679D01*
X147716069Y-81023000D01*
X147426851Y-81023000D01*
X147159647Y-81133679D01*
X146995326Y-81298000D01*
X146783406Y-81298000D01*
X146783406Y-81100000D01*
X146763515Y-81000000D01*
X146783406Y-80900000D01*
X146783406Y-80600000D01*
X146763515Y-80500000D01*
X146783406Y-80400000D01*
X146783406Y-80100000D01*
X146763515Y-80000000D01*
X146783406Y-79900000D01*
X146783406Y-79600000D01*
X146763192Y-79498379D01*
X146777000Y-79465045D01*
X146777000Y-79406750D01*
X146695250Y-79325000D01*
X146627018Y-79325000D01*
X146577589Y-79291973D01*
X146450000Y-79266594D01*
X144550000Y-79266594D01*
X144422411Y-79291973D01*
X144413391Y-79298000D01*
X141566065Y-79298000D01*
X141662065Y-79202000D01*
X144413391Y-79202000D01*
X144422411Y-79208027D01*
X144550000Y-79233406D01*
X146450000Y-79233406D01*
X146577589Y-79208027D01*
X146627018Y-79175000D01*
X146695250Y-79175000D01*
X146777000Y-79093250D01*
X146777000Y-79034955D01*
X146763192Y-79001621D01*
X146783406Y-78900000D01*
X146783406Y-78600000D01*
X146763515Y-78500000D01*
X146783406Y-78400000D01*
X146783406Y-78100000D01*
X146763192Y-77998379D01*
X146777000Y-77965045D01*
X146777000Y-77906750D01*
X146695250Y-77825000D01*
X146627018Y-77825000D01*
X146577589Y-77791973D01*
X146450000Y-77766594D01*
X144550000Y-77766594D01*
X144422411Y-77791973D01*
X144375975Y-77823000D01*
X144251868Y-77823000D01*
X144178867Y-77750000D01*
X144251868Y-77677000D01*
X144375975Y-77677000D01*
X144422411Y-77708027D01*
X144550000Y-77733406D01*
X146450000Y-77733406D01*
X146577589Y-77708027D01*
X146627018Y-77675000D01*
X146695250Y-77675000D01*
X146777000Y-77593250D01*
X146777000Y-77534955D01*
X146763192Y-77501621D01*
X146783406Y-77400000D01*
X146783406Y-77100000D01*
X146763515Y-77000000D01*
X146783406Y-76900000D01*
X146783406Y-76600000D01*
X146763192Y-76498379D01*
X146777000Y-76465045D01*
X146777000Y-76406750D01*
X146695250Y-76325000D01*
X146627018Y-76325000D01*
X146577589Y-76291973D01*
X146450000Y-76266594D01*
X144550000Y-76266594D01*
X144422411Y-76291973D01*
X144375975Y-76323000D01*
X144251868Y-76323000D01*
X144178867Y-76250000D01*
X144251868Y-76177000D01*
X144375975Y-76177000D01*
X144422411Y-76208027D01*
X144550000Y-76233406D01*
X146450000Y-76233406D01*
X146577589Y-76208027D01*
X146627018Y-76175000D01*
X146695250Y-76175000D01*
X146777000Y-76093250D01*
X146777000Y-76034955D01*
X146763192Y-76001621D01*
X146783406Y-75900000D01*
X146783406Y-75600000D01*
X146763515Y-75500000D01*
X146783406Y-75400000D01*
X146783406Y-75100000D01*
X146763192Y-74998379D01*
X146777000Y-74965045D01*
X146777000Y-74906750D01*
X146695250Y-74825000D01*
X146627018Y-74825000D01*
X146577589Y-74791973D01*
X146450000Y-74766594D01*
X144550000Y-74766594D01*
X144422411Y-74791973D01*
X144375975Y-74823000D01*
X144251868Y-74823000D01*
X144178867Y-74750000D01*
X144251868Y-74677000D01*
X144375975Y-74677000D01*
X144422411Y-74708027D01*
X144550000Y-74733406D01*
X146450000Y-74733406D01*
X146577589Y-74708027D01*
X146627018Y-74675000D01*
X146695250Y-74675000D01*
X146777000Y-74593250D01*
X146777000Y-74534955D01*
X146763192Y-74501621D01*
X146783406Y-74400000D01*
X146783406Y-74100000D01*
X146758027Y-73972411D01*
X146685754Y-73864246D01*
X146577589Y-73791973D01*
X146450000Y-73766594D01*
X144550000Y-73766594D01*
X144422411Y-73791973D01*
X144375975Y-73823000D01*
X144117053Y-73823000D01*
X144074999Y-73814635D01*
X144032945Y-73823000D01*
X143908392Y-73847775D01*
X143767149Y-73942150D01*
X143743325Y-73977805D01*
X143623131Y-74098000D01*
X131817692Y-74098000D01*
X131775639Y-74089635D01*
X131733586Y-74098000D01*
X131609033Y-74122775D01*
X131467790Y-74217150D01*
X131443968Y-74252803D01*
X129002805Y-76693967D01*
X128967151Y-76717790D01*
X128927806Y-76776675D01*
X128872776Y-76859033D01*
X128839635Y-77025640D01*
X128848001Y-77067698D01*
X128848000Y-93287280D01*
X128727805Y-93407476D01*
X128692151Y-93431299D01*
X128642101Y-93506205D01*
X128597776Y-93572542D01*
X128564635Y-93739149D01*
X128573001Y-93781206D01*
X128573001Y-93931701D01*
X128567611Y-93932773D01*
X128502636Y-93976188D01*
X128490031Y-93963583D01*
X128369845Y-93913800D01*
X128208750Y-93913800D01*
X128127000Y-93995550D01*
X128127000Y-95117100D01*
X128147000Y-95117100D01*
X128147000Y-95371100D01*
X128127000Y-95371100D01*
X128127000Y-95391100D01*
X127873000Y-95391100D01*
X127873000Y-95371100D01*
X127853000Y-95371100D01*
X127853000Y-95117100D01*
X127873000Y-95117100D01*
X127873000Y-93995550D01*
X127791250Y-93913800D01*
X127630155Y-93913800D01*
X127509969Y-93963583D01*
X127497363Y-93976189D01*
X127432386Y-93932773D01*
X127304797Y-93907394D01*
X126695197Y-93907394D01*
X126567608Y-93932773D01*
X126499997Y-93977949D01*
X126432386Y-93932773D01*
X126304797Y-93907394D01*
X125695197Y-93907394D01*
X125567608Y-93932773D01*
X125499999Y-93977948D01*
X125432389Y-93932773D01*
X125304800Y-93907394D01*
X124695200Y-93907394D01*
X124567611Y-93932773D01*
X124500000Y-93977949D01*
X124432389Y-93932773D01*
X124304800Y-93907394D01*
X123695200Y-93907394D01*
X123567611Y-93932773D01*
X123500000Y-93977949D01*
X123432389Y-93932773D01*
X123304800Y-93907394D01*
X122695200Y-93907394D01*
X122681600Y-93910099D01*
X122681600Y-93344650D01*
X122599850Y-93262900D01*
X122126000Y-93262900D01*
X122126000Y-95476650D01*
X122207750Y-95558400D01*
X122361794Y-95558400D01*
X122361794Y-96247400D01*
X122387173Y-96374989D01*
X122419702Y-96423672D01*
X122411696Y-96463920D01*
X122448558Y-96649233D01*
X122456479Y-96689054D01*
X122584007Y-96879914D01*
X122632186Y-96912106D01*
X124562459Y-98842380D01*
X117139685Y-98842380D01*
X114452000Y-96154696D01*
X114452000Y-93344650D01*
X121316400Y-93344650D01*
X121316400Y-95296445D01*
X121366183Y-95416631D01*
X121458170Y-95508617D01*
X121578356Y-95558400D01*
X121790250Y-95558400D01*
X121872000Y-95476650D01*
X121872000Y-93262900D01*
X121398150Y-93262900D01*
X121316400Y-93344650D01*
X114452000Y-93344650D01*
X114452000Y-90975355D01*
X121316400Y-90975355D01*
X121316400Y-92927150D01*
X121398150Y-93008900D01*
X121872000Y-93008900D01*
X121872000Y-90795150D01*
X122126000Y-90795150D01*
X122126000Y-93008900D01*
X122599850Y-93008900D01*
X122681600Y-92927150D01*
X122681600Y-90975355D01*
X122631817Y-90855169D01*
X122539830Y-90763183D01*
X122419644Y-90713400D01*
X122207750Y-90713400D01*
X122126000Y-90795150D01*
X121872000Y-90795150D01*
X121790250Y-90713400D01*
X121578356Y-90713400D01*
X121458170Y-90763183D01*
X121366183Y-90855169D01*
X121316400Y-90975355D01*
X114452000Y-90975355D01*
X114452000Y-83023438D01*
X114460855Y-82978920D01*
X114450592Y-82927321D01*
X114425775Y-82802558D01*
X114325874Y-82653046D01*
X114288133Y-82627828D01*
X113352000Y-81691696D01*
X113352000Y-79579974D01*
X113726328Y-79329858D01*
X113979649Y-78950735D01*
X114046150Y-78616413D01*
X114046150Y-77811380D01*
X114293850Y-77811380D01*
X114293850Y-78630530D01*
X114429696Y-79059475D01*
X114719352Y-79403783D01*
X115136370Y-79608731D01*
X115313000Y-79560326D01*
X115313000Y-77811380D01*
X115567000Y-77811380D01*
X115567000Y-79560326D01*
X115743630Y-79608731D01*
X116160648Y-79403783D01*
X116450304Y-79059475D01*
X116586150Y-78630530D01*
X116586150Y-77811380D01*
X115567000Y-77811380D01*
X115313000Y-77811380D01*
X114293850Y-77811380D01*
X114046150Y-77811380D01*
X114046150Y-76752347D01*
X114043342Y-76738230D01*
X114293850Y-76738230D01*
X114293850Y-77557380D01*
X115313000Y-77557380D01*
X115313000Y-75808434D01*
X115567000Y-75808434D01*
X115567000Y-77557380D01*
X116586150Y-77557380D01*
X116586150Y-76738230D01*
X116450304Y-76309285D01*
X116160648Y-75964977D01*
X115743630Y-75760029D01*
X115567000Y-75808434D01*
X115313000Y-75808434D01*
X115136370Y-75760029D01*
X114719352Y-75964977D01*
X114429696Y-76309285D01*
X114293850Y-76738230D01*
X114043342Y-76738230D01*
X113979649Y-76418025D01*
X113726328Y-76038902D01*
X113352000Y-75788785D01*
X113352000Y-75137786D01*
X113725460Y-75137786D01*
X113853049Y-75112407D01*
X113961214Y-75040134D01*
X114033487Y-74931969D01*
X114058866Y-74804380D01*
X114058866Y-74388130D01*
X114398460Y-74388130D01*
X114398460Y-74869425D01*
X114448243Y-74989611D01*
X114540230Y-75081597D01*
X114660416Y-75131380D01*
X115266710Y-75131380D01*
X115348460Y-75049630D01*
X115348460Y-74306380D01*
X115602460Y-74306380D01*
X115602460Y-75049630D01*
X115684210Y-75131380D01*
X116290504Y-75131380D01*
X116410690Y-75081597D01*
X116502677Y-74989611D01*
X116552460Y-74869425D01*
X116552460Y-74388130D01*
X116470710Y-74306380D01*
X115602460Y-74306380D01*
X115348460Y-74306380D01*
X114480210Y-74306380D01*
X114398460Y-74388130D01*
X114058866Y-74388130D01*
X114058866Y-73554380D01*
X114045928Y-73489335D01*
X114398460Y-73489335D01*
X114398460Y-73970630D01*
X114480210Y-74052380D01*
X115348460Y-74052380D01*
X115348460Y-73309130D01*
X115602460Y-73309130D01*
X115602460Y-74052380D01*
X116470710Y-74052380D01*
X116552460Y-73970630D01*
X116552460Y-73489335D01*
X116502677Y-73369149D01*
X116410690Y-73277163D01*
X116290504Y-73227380D01*
X115684210Y-73227380D01*
X115602460Y-73309130D01*
X115348460Y-73309130D01*
X115266710Y-73227380D01*
X114660416Y-73227380D01*
X114540230Y-73277163D01*
X114448243Y-73369149D01*
X114398460Y-73489335D01*
X114045928Y-73489335D01*
X114033487Y-73426791D01*
X113961214Y-73318626D01*
X113853049Y-73246353D01*
X113725460Y-73220974D01*
X113402460Y-73220974D01*
X113402460Y-73062786D01*
X113700460Y-73062786D01*
X113828049Y-73037407D01*
X113936214Y-72965134D01*
X114008487Y-72856969D01*
X114033866Y-72729380D01*
X114033866Y-72313130D01*
X114373460Y-72313130D01*
X114373460Y-72794425D01*
X114423243Y-72914611D01*
X114515230Y-73006597D01*
X114635416Y-73056380D01*
X115241710Y-73056380D01*
X115323460Y-72974630D01*
X115323460Y-72231380D01*
X115577460Y-72231380D01*
X115577460Y-72974630D01*
X115659210Y-73056380D01*
X116265504Y-73056380D01*
X116385690Y-73006597D01*
X116477677Y-72914611D01*
X116527460Y-72794425D01*
X116527460Y-72313130D01*
X116445710Y-72231380D01*
X115577460Y-72231380D01*
X115323460Y-72231380D01*
X114455210Y-72231380D01*
X114373460Y-72313130D01*
X114033866Y-72313130D01*
X114033866Y-71479380D01*
X114020928Y-71414335D01*
X114373460Y-71414335D01*
X114373460Y-71895630D01*
X114455210Y-71977380D01*
X115323460Y-71977380D01*
X115323460Y-71234130D01*
X115577460Y-71234130D01*
X115577460Y-71977380D01*
X116445710Y-71977380D01*
X116527460Y-71895630D01*
X116527460Y-71414335D01*
X116477677Y-71294149D01*
X116385690Y-71202163D01*
X116265504Y-71152380D01*
X115659210Y-71152380D01*
X115577460Y-71234130D01*
X115323460Y-71234130D01*
X115241710Y-71152380D01*
X114635416Y-71152380D01*
X114515230Y-71202163D01*
X114423243Y-71294149D01*
X114373460Y-71414335D01*
X114020928Y-71414335D01*
X114008487Y-71351791D01*
X113936214Y-71243626D01*
X113828049Y-71171353D01*
X113700460Y-71145974D01*
X112200460Y-71145974D01*
X112072871Y-71171353D01*
X111964706Y-71243626D01*
X111892433Y-71351791D01*
X111867054Y-71479380D01*
X111867054Y-72729380D01*
X111892433Y-72856969D01*
X111964706Y-72965134D01*
X112072871Y-73037407D01*
X112200460Y-73062786D01*
X112498460Y-73062786D01*
X112498461Y-73220974D01*
X112225460Y-73220974D01*
X112097871Y-73246353D01*
X111989706Y-73318626D01*
X111917433Y-73426791D01*
X111892054Y-73554380D01*
X111892054Y-74804380D01*
X111917433Y-74931969D01*
X111989706Y-75040134D01*
X112097871Y-75112407D01*
X112225460Y-75137786D01*
X112448001Y-75137786D01*
X112448001Y-75788785D01*
X112073673Y-76038902D01*
X111820352Y-76418025D01*
X111753850Y-76752347D01*
X111753850Y-78616412D01*
X111820351Y-78950734D01*
X112073672Y-79329858D01*
X112448000Y-79579975D01*
X112448001Y-81834397D01*
X112439145Y-81878920D01*
X112474225Y-82055281D01*
X112535745Y-82147352D01*
X112574127Y-82204794D01*
X112611867Y-82230011D01*
X113548001Y-83166146D01*
X113548000Y-96297402D01*
X113539145Y-96341920D01*
X113548000Y-96386437D01*
X113574225Y-96518281D01*
X113674126Y-96667794D01*
X113711869Y-96693013D01*
X116601369Y-99582514D01*
X116626586Y-99620254D01*
X116630696Y-99623000D01*
X104915594Y-99623000D01*
X105441240Y-99405270D01*
X106405270Y-98441240D01*
X106927000Y-97181673D01*
X106927000Y-95818327D01*
X106405270Y-94558760D01*
X105441240Y-93594730D01*
X104181673Y-93073000D01*
X102818327Y-93073000D01*
X101558760Y-93594730D01*
X100594730Y-94558760D01*
X100377000Y-95084406D01*
X100377000Y-86550000D01*
X103569942Y-86550000D01*
X103661291Y-87009242D01*
X103921431Y-87398569D01*
X104310758Y-87658709D01*
X104654080Y-87727000D01*
X104885920Y-87727000D01*
X105229242Y-87658709D01*
X105618569Y-87398569D01*
X105878709Y-87009242D01*
X105970058Y-86550000D01*
X105878709Y-86090758D01*
X105618569Y-85701431D01*
X105229242Y-85441291D01*
X104885920Y-85373000D01*
X104654080Y-85373000D01*
X104310758Y-85441291D01*
X103921431Y-85701431D01*
X103661291Y-86090758D01*
X103569942Y-86550000D01*
X100377000Y-86550000D01*
X100377000Y-84010000D01*
X101029942Y-84010000D01*
X101121291Y-84469242D01*
X101381431Y-84858569D01*
X101770758Y-85118709D01*
X102114080Y-85187000D01*
X102345920Y-85187000D01*
X102689242Y-85118709D01*
X103078569Y-84858569D01*
X103338709Y-84469242D01*
X103430058Y-84010000D01*
X103569942Y-84010000D01*
X103661291Y-84469242D01*
X103921431Y-84858569D01*
X104310758Y-85118709D01*
X104654080Y-85187000D01*
X104885920Y-85187000D01*
X105229242Y-85118709D01*
X105618569Y-84858569D01*
X105878709Y-84469242D01*
X105970058Y-84010000D01*
X105878709Y-83550758D01*
X105618569Y-83161431D01*
X105229242Y-82901291D01*
X104885920Y-82833000D01*
X104654080Y-82833000D01*
X104310758Y-82901291D01*
X103921431Y-83161431D01*
X103661291Y-83550758D01*
X103569942Y-84010000D01*
X103430058Y-84010000D01*
X103338709Y-83550758D01*
X103078569Y-83161431D01*
X102689242Y-82901291D01*
X102345920Y-82833000D01*
X102114080Y-82833000D01*
X101770758Y-82901291D01*
X101381431Y-83161431D01*
X101121291Y-83550758D01*
X101029942Y-84010000D01*
X100377000Y-84010000D01*
X100377000Y-81470000D01*
X101029942Y-81470000D01*
X101121291Y-81929242D01*
X101381431Y-82318569D01*
X101770758Y-82578709D01*
X102114080Y-82647000D01*
X102345920Y-82647000D01*
X102689242Y-82578709D01*
X103078569Y-82318569D01*
X103338709Y-81929242D01*
X103430058Y-81470000D01*
X103338709Y-81010758D01*
X103078569Y-80621431D01*
X102689242Y-80361291D01*
X102345920Y-80293000D01*
X102114080Y-80293000D01*
X101770758Y-80361291D01*
X101381431Y-80621431D01*
X101121291Y-81010758D01*
X101029942Y-81470000D01*
X100377000Y-81470000D01*
X100377000Y-78930000D01*
X101029942Y-78930000D01*
X101121291Y-79389242D01*
X101381431Y-79778569D01*
X101770758Y-80038709D01*
X102114080Y-80107000D01*
X102345920Y-80107000D01*
X102689242Y-80038709D01*
X103078569Y-79778569D01*
X103338709Y-79389242D01*
X103430058Y-78930000D01*
X103569942Y-78930000D01*
X103661291Y-79389242D01*
X103921431Y-79778569D01*
X104310758Y-80038709D01*
X104654080Y-80107000D01*
X104885920Y-80107000D01*
X105229242Y-80038709D01*
X105618569Y-79778569D01*
X105878709Y-79389242D01*
X105970058Y-78930000D01*
X105878709Y-78470758D01*
X105618569Y-78081431D01*
X105229242Y-77821291D01*
X104885920Y-77753000D01*
X104654080Y-77753000D01*
X104310758Y-77821291D01*
X103921431Y-78081431D01*
X103661291Y-78470758D01*
X103569942Y-78930000D01*
X103430058Y-78930000D01*
X103338709Y-78470758D01*
X103078569Y-78081431D01*
X102689242Y-77821291D01*
X102345920Y-77753000D01*
X102114080Y-77753000D01*
X101770758Y-77821291D01*
X101381431Y-78081431D01*
X101121291Y-78470758D01*
X101029942Y-78930000D01*
X100377000Y-78930000D01*
X100377000Y-76390000D01*
X103569942Y-76390000D01*
X103661291Y-76849242D01*
X103921431Y-77238569D01*
X104310758Y-77498709D01*
X104654080Y-77567000D01*
X104885920Y-77567000D01*
X105229242Y-77498709D01*
X105618569Y-77238569D01*
X105878709Y-76849242D01*
X105970058Y-76390000D01*
X105878709Y-75930758D01*
X105618569Y-75541431D01*
X105229242Y-75281291D01*
X104885920Y-75213000D01*
X104654080Y-75213000D01*
X104310758Y-75281291D01*
X103921431Y-75541431D01*
X103661291Y-75930758D01*
X103569942Y-76390000D01*
X100377000Y-76390000D01*
X100377000Y-73850000D01*
X101029942Y-73850000D01*
X101121291Y-74309242D01*
X101381431Y-74698569D01*
X101770758Y-74958709D01*
X102114080Y-75027000D01*
X102345920Y-75027000D01*
X102689242Y-74958709D01*
X103078569Y-74698569D01*
X103338709Y-74309242D01*
X103430058Y-73850000D01*
X103569942Y-73850000D01*
X103661291Y-74309242D01*
X103921431Y-74698569D01*
X104310758Y-74958709D01*
X104654080Y-75027000D01*
X104885920Y-75027000D01*
X105229242Y-74958709D01*
X105618569Y-74698569D01*
X105878709Y-74309242D01*
X105970058Y-73850000D01*
X105878709Y-73390758D01*
X105618569Y-73001431D01*
X105229242Y-72741291D01*
X104885920Y-72673000D01*
X104654080Y-72673000D01*
X104310758Y-72741291D01*
X103921431Y-73001431D01*
X103661291Y-73390758D01*
X103569942Y-73850000D01*
X103430058Y-73850000D01*
X103338709Y-73390758D01*
X103078569Y-73001431D01*
X102689242Y-72741291D01*
X102345920Y-72673000D01*
X102114080Y-72673000D01*
X101770758Y-72741291D01*
X101381431Y-73001431D01*
X101121291Y-73390758D01*
X101029942Y-73850000D01*
X100377000Y-73850000D01*
X100377000Y-71310000D01*
X101029942Y-71310000D01*
X101121291Y-71769242D01*
X101381431Y-72158569D01*
X101770758Y-72418709D01*
X102114080Y-72487000D01*
X102345920Y-72487000D01*
X102689242Y-72418709D01*
X103078569Y-72158569D01*
X103338709Y-71769242D01*
X103430058Y-71310000D01*
X103569942Y-71310000D01*
X103661291Y-71769242D01*
X103921431Y-72158569D01*
X104310758Y-72418709D01*
X104654080Y-72487000D01*
X104885920Y-72487000D01*
X105229242Y-72418709D01*
X105618569Y-72158569D01*
X105878709Y-71769242D01*
X105970058Y-71310000D01*
X105878709Y-70850758D01*
X105618569Y-70461431D01*
X105229242Y-70201291D01*
X104885920Y-70133000D01*
X104654080Y-70133000D01*
X104310758Y-70201291D01*
X103921431Y-70461431D01*
X103661291Y-70850758D01*
X103569942Y-71310000D01*
X103430058Y-71310000D01*
X103338709Y-70850758D01*
X103078569Y-70461431D01*
X102689242Y-70201291D01*
X102345920Y-70133000D01*
X102114080Y-70133000D01*
X101770758Y-70201291D01*
X101381431Y-70461431D01*
X101121291Y-70850758D01*
X101029942Y-71310000D01*
X100377000Y-71310000D01*
X100377000Y-68770000D01*
X103569942Y-68770000D01*
X103661291Y-69229242D01*
X103921431Y-69618569D01*
X104310758Y-69878709D01*
X104654080Y-69947000D01*
X104885920Y-69947000D01*
X105229242Y-69878709D01*
X105618569Y-69618569D01*
X105878709Y-69229242D01*
X105970058Y-68770000D01*
X105878709Y-68310758D01*
X105618569Y-67921431D01*
X105229242Y-67661291D01*
X104885920Y-67593000D01*
X104654080Y-67593000D01*
X104310758Y-67661291D01*
X103921431Y-67921431D01*
X103661291Y-68310758D01*
X103569942Y-68770000D01*
X100377000Y-68770000D01*
X100377000Y-66230000D01*
X101029942Y-66230000D01*
X101121291Y-66689242D01*
X101381431Y-67078569D01*
X101770758Y-67338709D01*
X102114080Y-67407000D01*
X102345920Y-67407000D01*
X102689242Y-67338709D01*
X103078569Y-67078569D01*
X103338709Y-66689242D01*
X103430058Y-66230000D01*
X103569942Y-66230000D01*
X103661291Y-66689242D01*
X103921431Y-67078569D01*
X104310758Y-67338709D01*
X104654080Y-67407000D01*
X104885920Y-67407000D01*
X105229242Y-67338709D01*
X105618569Y-67078569D01*
X105878709Y-66689242D01*
X105970058Y-66230000D01*
X105878709Y-65770758D01*
X105618569Y-65381431D01*
X105229242Y-65121291D01*
X104885920Y-65053000D01*
X104654080Y-65053000D01*
X104310758Y-65121291D01*
X103921431Y-65381431D01*
X103661291Y-65770758D01*
X103569942Y-66230000D01*
X103430058Y-66230000D01*
X103338709Y-65770758D01*
X103078569Y-65381431D01*
X102689242Y-65121291D01*
X102345920Y-65053000D01*
X102114080Y-65053000D01*
X101770758Y-65121291D01*
X101381431Y-65381431D01*
X101121291Y-65770758D01*
X101029942Y-66230000D01*
X100377000Y-66230000D01*
X100377000Y-63690000D01*
X101029942Y-63690000D01*
X101121291Y-64149242D01*
X101381431Y-64538569D01*
X101770758Y-64798709D01*
X102114080Y-64867000D01*
X102345920Y-64867000D01*
X102689242Y-64798709D01*
X103078569Y-64538569D01*
X103338709Y-64149242D01*
X103430058Y-63690000D01*
X103569942Y-63690000D01*
X103661291Y-64149242D01*
X103921431Y-64538569D01*
X104310758Y-64798709D01*
X104654080Y-64867000D01*
X104885920Y-64867000D01*
X105229242Y-64798709D01*
X105618569Y-64538569D01*
X105878709Y-64149242D01*
X105970058Y-63690000D01*
X105934877Y-63513130D01*
X111933460Y-63513130D01*
X111933460Y-63994425D01*
X111983243Y-64114611D01*
X112075230Y-64206597D01*
X112195416Y-64256380D01*
X112801710Y-64256380D01*
X112883460Y-64174630D01*
X112883460Y-63431380D01*
X113137460Y-63431380D01*
X113137460Y-64174630D01*
X113219210Y-64256380D01*
X113825504Y-64256380D01*
X113945690Y-64206597D01*
X114037677Y-64114611D01*
X114087460Y-63994425D01*
X114087460Y-63513130D01*
X114005710Y-63431380D01*
X113137460Y-63431380D01*
X112883460Y-63431380D01*
X112015210Y-63431380D01*
X111933460Y-63513130D01*
X105934877Y-63513130D01*
X105878709Y-63230758D01*
X105618569Y-62841431D01*
X105229242Y-62581291D01*
X104885920Y-62513000D01*
X104654080Y-62513000D01*
X104310758Y-62581291D01*
X103921431Y-62841431D01*
X103661291Y-63230758D01*
X103569942Y-63690000D01*
X103430058Y-63690000D01*
X103338709Y-63230758D01*
X103078569Y-62841431D01*
X102689242Y-62581291D01*
X102345920Y-62513000D01*
X102114080Y-62513000D01*
X101770758Y-62581291D01*
X101381431Y-62841431D01*
X101121291Y-63230758D01*
X101029942Y-63690000D01*
X100377000Y-63690000D01*
X100377000Y-61150000D01*
X101029942Y-61150000D01*
X101121291Y-61609242D01*
X101381431Y-61998569D01*
X101770758Y-62258709D01*
X102114080Y-62327000D01*
X102345920Y-62327000D01*
X102689242Y-62258709D01*
X103078569Y-61998569D01*
X103336111Y-61613130D01*
X111933460Y-61613130D01*
X111933460Y-62094425D01*
X111983243Y-62214611D01*
X112075230Y-62306597D01*
X112190588Y-62354380D01*
X112075230Y-62402163D01*
X111983243Y-62494149D01*
X111933460Y-62614335D01*
X111933460Y-63095630D01*
X112015210Y-63177380D01*
X112883460Y-63177380D01*
X112883460Y-62434130D01*
X112803710Y-62354380D01*
X112883460Y-62274630D01*
X112883460Y-61531380D01*
X113137460Y-61531380D01*
X113137460Y-62274630D01*
X113217210Y-62354380D01*
X113137460Y-62434130D01*
X113137460Y-63177380D01*
X114005710Y-63177380D01*
X114087460Y-63095630D01*
X114087460Y-62614335D01*
X114037677Y-62494149D01*
X113945690Y-62402163D01*
X113830332Y-62354380D01*
X113945690Y-62306597D01*
X114037677Y-62214611D01*
X114087460Y-62094425D01*
X114087460Y-61613130D01*
X114005710Y-61531380D01*
X113137460Y-61531380D01*
X112883460Y-61531380D01*
X112015210Y-61531380D01*
X111933460Y-61613130D01*
X103336111Y-61613130D01*
X103338709Y-61609242D01*
X103430058Y-61150000D01*
X103343399Y-60714335D01*
X111933460Y-60714335D01*
X111933460Y-61195630D01*
X112015210Y-61277380D01*
X112883460Y-61277380D01*
X112883460Y-60534130D01*
X113137460Y-60534130D01*
X113137460Y-61277380D01*
X114005710Y-61277380D01*
X114087460Y-61195630D01*
X114087460Y-60714335D01*
X114037677Y-60594149D01*
X113945690Y-60502163D01*
X113825504Y-60452380D01*
X113219210Y-60452380D01*
X113137460Y-60534130D01*
X112883460Y-60534130D01*
X112801710Y-60452380D01*
X112195416Y-60452380D01*
X112075230Y-60502163D01*
X111983243Y-60594149D01*
X111933460Y-60714335D01*
X103343399Y-60714335D01*
X103338709Y-60690758D01*
X103078569Y-60301431D01*
X102689242Y-60041291D01*
X102345920Y-59973000D01*
X102114080Y-59973000D01*
X101770758Y-60041291D01*
X101381431Y-60301431D01*
X101121291Y-60690758D01*
X101029942Y-61150000D01*
X100377000Y-61150000D01*
X100377000Y-58610000D01*
X101029942Y-58610000D01*
X101121291Y-59069242D01*
X101381431Y-59458569D01*
X101770758Y-59718709D01*
X102114080Y-59787000D01*
X102345920Y-59787000D01*
X102689242Y-59718709D01*
X103078569Y-59458569D01*
X103338709Y-59069242D01*
X103430058Y-58610000D01*
X103569942Y-58610000D01*
X103661291Y-59069242D01*
X103921431Y-59458569D01*
X104310758Y-59718709D01*
X104654080Y-59787000D01*
X104885920Y-59787000D01*
X105229242Y-59718709D01*
X105618569Y-59458569D01*
X105878709Y-59069242D01*
X105970058Y-58610000D01*
X105898724Y-58251380D01*
X111713850Y-58251380D01*
X111713850Y-59070530D01*
X111849696Y-59499475D01*
X112139352Y-59843783D01*
X112556370Y-60048731D01*
X112733000Y-60000326D01*
X112733000Y-58251380D01*
X112987000Y-58251380D01*
X112987000Y-60000326D01*
X113163630Y-60048731D01*
X113580648Y-59843783D01*
X113870304Y-59499475D01*
X114006150Y-59070530D01*
X114006150Y-58251380D01*
X112987000Y-58251380D01*
X112733000Y-58251380D01*
X111713850Y-58251380D01*
X105898724Y-58251380D01*
X105878709Y-58150758D01*
X105618569Y-57761431D01*
X105229242Y-57501291D01*
X104885920Y-57433000D01*
X104654080Y-57433000D01*
X104310758Y-57501291D01*
X103921431Y-57761431D01*
X103661291Y-58150758D01*
X103569942Y-58610000D01*
X103430058Y-58610000D01*
X103338709Y-58150758D01*
X103078569Y-57761431D01*
X102689242Y-57501291D01*
X102345920Y-57433000D01*
X102114080Y-57433000D01*
X101770758Y-57501291D01*
X101381431Y-57761431D01*
X101121291Y-58150758D01*
X101029942Y-58610000D01*
X100377000Y-58610000D01*
X100377000Y-56070000D01*
X103569942Y-56070000D01*
X103661291Y-56529242D01*
X103921431Y-56918569D01*
X104310758Y-57178709D01*
X104654080Y-57247000D01*
X104885920Y-57247000D01*
X105229242Y-57178709D01*
X105229958Y-57178230D01*
X111713850Y-57178230D01*
X111713850Y-57997380D01*
X112733000Y-57997380D01*
X112733000Y-56248434D01*
X112987000Y-56248434D01*
X112987000Y-57997380D01*
X114006150Y-57997380D01*
X114006150Y-57192348D01*
X114253850Y-57192348D01*
X114253850Y-59056413D01*
X114320352Y-59390735D01*
X114573673Y-59769858D01*
X114952796Y-60023179D01*
X115058460Y-60044197D01*
X115058460Y-60445974D01*
X114760460Y-60445974D01*
X114632871Y-60471353D01*
X114524706Y-60543626D01*
X114452433Y-60651791D01*
X114427054Y-60779380D01*
X114427054Y-62029380D01*
X114452433Y-62156969D01*
X114524706Y-62265134D01*
X114632871Y-62337407D01*
X114718200Y-62354380D01*
X114632871Y-62371353D01*
X114524706Y-62443626D01*
X114452433Y-62551791D01*
X114427054Y-62679380D01*
X114427054Y-63929380D01*
X114452433Y-64056969D01*
X114524706Y-64165134D01*
X114632871Y-64237407D01*
X114760460Y-64262786D01*
X116260460Y-64262786D01*
X116388049Y-64237407D01*
X116496214Y-64165134D01*
X116568487Y-64056969D01*
X116593866Y-63929380D01*
X116593866Y-62679380D01*
X116568487Y-62551791D01*
X116496214Y-62443626D01*
X116388049Y-62371353D01*
X116302720Y-62354380D01*
X116388049Y-62337407D01*
X116496214Y-62265134D01*
X116568487Y-62156969D01*
X116593866Y-62029380D01*
X116593866Y-60779380D01*
X116568487Y-60651791D01*
X116496214Y-60543626D01*
X116388049Y-60471353D01*
X116260460Y-60445974D01*
X115962460Y-60445974D01*
X115962460Y-59946168D01*
X116226328Y-59769858D01*
X116479649Y-59390735D01*
X116546150Y-59056413D01*
X116546150Y-58840605D01*
X116743678Y-59038133D01*
X116768896Y-59075874D01*
X116918408Y-59175775D01*
X117050252Y-59202000D01*
X117050253Y-59202000D01*
X117094769Y-59210855D01*
X117139286Y-59202000D01*
X144413391Y-59202000D01*
X144422411Y-59208027D01*
X144550000Y-59233406D01*
X146450000Y-59233406D01*
X146577589Y-59208027D01*
X146627018Y-59175000D01*
X146695250Y-59175000D01*
X146777000Y-59093250D01*
X146777000Y-59034955D01*
X146763192Y-59001621D01*
X146783406Y-58900000D01*
X146783406Y-58726999D01*
X147189347Y-58726999D01*
X147355326Y-58837902D01*
X147523631Y-58871380D01*
X147903632Y-58871380D01*
X147960460Y-58882684D01*
X148017288Y-58871380D01*
X148017289Y-58871380D01*
X148185594Y-58837902D01*
X148376454Y-58710374D01*
X148408648Y-58662192D01*
X150568275Y-56502566D01*
X150616454Y-56470374D01*
X150743982Y-56279514D01*
X150777460Y-56111209D01*
X150788764Y-56054381D01*
X150777460Y-55997553D01*
X150777460Y-50671209D01*
X150788764Y-50614380D01*
X150743982Y-50389245D01*
X150648645Y-50246563D01*
X150648644Y-50246562D01*
X150616454Y-50198386D01*
X150568278Y-50166196D01*
X150067460Y-49665379D01*
X150067460Y-48066387D01*
X150078764Y-48009558D01*
X150055185Y-47891016D01*
X150098000Y-47891016D01*
X150098000Y-48408984D01*
X150296217Y-48887524D01*
X150662476Y-49253783D01*
X151141016Y-49452000D01*
X151658984Y-49452000D01*
X152137524Y-49253783D01*
X152503783Y-48887524D01*
X152702000Y-48408984D01*
X152702000Y-47891016D01*
X152503783Y-47412476D01*
X152137524Y-47046217D01*
X151658984Y-46848000D01*
X151141016Y-46848000D01*
X150662476Y-47046217D01*
X150296217Y-47412476D01*
X150098000Y-47891016D01*
X150055185Y-47891016D01*
X150033982Y-47784423D01*
X149941635Y-47646217D01*
X149906454Y-47593564D01*
X149858275Y-47561372D01*
X148093470Y-45796568D01*
X148061276Y-45748386D01*
X147870416Y-45620858D01*
X147702111Y-45587380D01*
X147702110Y-45587380D01*
X147645282Y-45576076D01*
X147588454Y-45587380D01*
X138229461Y-45587380D01*
X137577000Y-44934920D01*
X137577000Y-44285210D01*
X137580356Y-44286600D01*
X137792250Y-44286600D01*
X137874000Y-44204850D01*
X137874000Y-41991100D01*
X138128000Y-41991100D01*
X138128000Y-44204850D01*
X138209750Y-44286600D01*
X138421644Y-44286600D01*
X138541830Y-44236817D01*
X138633817Y-44144831D01*
X138683600Y-44024645D01*
X138683600Y-42072850D01*
X138601850Y-41991100D01*
X138128000Y-41991100D01*
X137874000Y-41991100D01*
X137854000Y-41991100D01*
X137854000Y-41737100D01*
X137874000Y-41737100D01*
X137874000Y-39523350D01*
X138128000Y-39523350D01*
X138128000Y-41737100D01*
X138601850Y-41737100D01*
X138683600Y-41655350D01*
X138683600Y-39703555D01*
X138633817Y-39583369D01*
X138541830Y-39491383D01*
X138421644Y-39441600D01*
X138209750Y-39441600D01*
X138128000Y-39523350D01*
X137874000Y-39523350D01*
X137792250Y-39441600D01*
X137638206Y-39441600D01*
X137638206Y-38752600D01*
X137612827Y-38625011D01*
X137540554Y-38516846D01*
X137432389Y-38444573D01*
X137304800Y-38419194D01*
X136695200Y-38419194D01*
X136567611Y-38444573D01*
X136500000Y-38489749D01*
X136432389Y-38444573D01*
X136304800Y-38419194D01*
X135695200Y-38419194D01*
X135567611Y-38444573D01*
X135500000Y-38489749D01*
X135432389Y-38444573D01*
X135304800Y-38419194D01*
X134695200Y-38419194D01*
X134567611Y-38444573D01*
X134500002Y-38489748D01*
X134432392Y-38444573D01*
X134304803Y-38419194D01*
X133695203Y-38419194D01*
X133567614Y-38444573D01*
X133500003Y-38489749D01*
X133432392Y-38444573D01*
X133304803Y-38419194D01*
X132695203Y-38419194D01*
X132567614Y-38444573D01*
X132502637Y-38487989D01*
X132490031Y-38475383D01*
X132369845Y-38425600D01*
X132208750Y-38425600D01*
X132127000Y-38507350D01*
X132127000Y-39628900D01*
X132147000Y-39628900D01*
X132147000Y-39882900D01*
X132127000Y-39882900D01*
X132127000Y-41004450D01*
X132208750Y-41086200D01*
X132369845Y-41086200D01*
X132490031Y-41036417D01*
X132502637Y-41023811D01*
X132548004Y-41054124D01*
X132548003Y-43000862D01*
X132548003Y-43378851D01*
X132548004Y-43378856D01*
X132548003Y-47734816D01*
X132539148Y-47779334D01*
X132548003Y-47823851D01*
X132574228Y-47955695D01*
X132674129Y-48105208D01*
X132711872Y-48130427D01*
X135603968Y-51022524D01*
X135629186Y-51060265D01*
X135685660Y-51098000D01*
X133051149Y-51098000D01*
X131152000Y-49198852D01*
X131152000Y-41712719D01*
X131272196Y-41592524D01*
X131307850Y-41568701D01*
X131402225Y-41427458D01*
X131427000Y-41302905D01*
X131427000Y-41302904D01*
X131435365Y-41260851D01*
X131427000Y-41218797D01*
X131427000Y-41068299D01*
X131432389Y-41067227D01*
X131497364Y-41023812D01*
X131509969Y-41036417D01*
X131630155Y-41086200D01*
X131791250Y-41086200D01*
X131873000Y-41004450D01*
X131873000Y-39882900D01*
X131853000Y-39882900D01*
X131853000Y-39628900D01*
X131873000Y-39628900D01*
X131873000Y-38507350D01*
X131791250Y-38425600D01*
X131630155Y-38425600D01*
X131509969Y-38475383D01*
X131497364Y-38487988D01*
X131432389Y-38444573D01*
X131304800Y-38419194D01*
X130695200Y-38419194D01*
X130567611Y-38444573D01*
X130500000Y-38489749D01*
X130432389Y-38444573D01*
X130304800Y-38419194D01*
X129695200Y-38419194D01*
X129567611Y-38444573D01*
X129502638Y-38487986D01*
X129490035Y-38475383D01*
X129369849Y-38425600D01*
X129208754Y-38425600D01*
X129127004Y-38507350D01*
X129127004Y-39628900D01*
X129147004Y-39628900D01*
X129147004Y-39882900D01*
X129127004Y-39882900D01*
X129127004Y-41004450D01*
X129208754Y-41086200D01*
X129369849Y-41086200D01*
X129490035Y-41036417D01*
X129502638Y-41023814D01*
X129567611Y-41067227D01*
X129573000Y-41068299D01*
X129573000Y-41218798D01*
X129564635Y-41260851D01*
X129573000Y-41302904D01*
X129597775Y-41427457D01*
X129692150Y-41568701D01*
X129727807Y-41592526D01*
X129848001Y-41712721D01*
X129848000Y-49520067D01*
X129839635Y-49562120D01*
X129848000Y-49604173D01*
X129872775Y-49728726D01*
X129967150Y-49869970D01*
X130002807Y-49893795D01*
X132356207Y-52247196D01*
X132380030Y-52282850D01*
X132521273Y-52377225D01*
X132687880Y-52410365D01*
X132729934Y-52402000D01*
X143623131Y-52402000D01*
X143721130Y-52500000D01*
X143623131Y-52598000D01*
X129979149Y-52598000D01*
X128152000Y-50770852D01*
X128152000Y-41712719D01*
X128272196Y-41592524D01*
X128307850Y-41568701D01*
X128402225Y-41427458D01*
X128427000Y-41302905D01*
X128427000Y-41302904D01*
X128435365Y-41260851D01*
X128427000Y-41218797D01*
X128427000Y-41068299D01*
X128432389Y-41067227D01*
X128497367Y-41023811D01*
X128509973Y-41036417D01*
X128630159Y-41086200D01*
X128791254Y-41086200D01*
X128873004Y-41004450D01*
X128873004Y-39882900D01*
X128853004Y-39882900D01*
X128853004Y-39628900D01*
X128873004Y-39628900D01*
X128873004Y-38507350D01*
X128791254Y-38425600D01*
X128630159Y-38425600D01*
X128509973Y-38475383D01*
X128497367Y-38487989D01*
X128432389Y-38444573D01*
X128304800Y-38419194D01*
X127695200Y-38419194D01*
X127567611Y-38444573D01*
X127500000Y-38489749D01*
X127432389Y-38444573D01*
X127304800Y-38419194D01*
X126695200Y-38419194D01*
X126567611Y-38444573D01*
X126502636Y-38487988D01*
X126490031Y-38475383D01*
X126369845Y-38425600D01*
X126208750Y-38425600D01*
X126127000Y-38507350D01*
X126127000Y-39628900D01*
X126147000Y-39628900D01*
X126147000Y-39882900D01*
X126127000Y-39882900D01*
X126127000Y-41004450D01*
X126208750Y-41086200D01*
X126369845Y-41086200D01*
X126490031Y-41036417D01*
X126502636Y-41023812D01*
X126567611Y-41067227D01*
X126573000Y-41068299D01*
X126573000Y-41218798D01*
X126564635Y-41260851D01*
X126573000Y-41302904D01*
X126597775Y-41427457D01*
X126692150Y-41568701D01*
X126727807Y-41592526D01*
X126848001Y-41712721D01*
X126848000Y-51092067D01*
X126839635Y-51134120D01*
X126848000Y-51176173D01*
X126872775Y-51300726D01*
X126967150Y-51441970D01*
X127002807Y-51465795D01*
X129284209Y-53747199D01*
X129308030Y-53782850D01*
X129449273Y-53877225D01*
X129573826Y-53902000D01*
X129615879Y-53910365D01*
X129657932Y-53902000D01*
X143623131Y-53902000D01*
X143721130Y-54000000D01*
X143623131Y-54098000D01*
X127034149Y-54098000D01*
X125152002Y-52215854D01*
X125152002Y-41712717D01*
X125272196Y-41592524D01*
X125307850Y-41568701D01*
X125373763Y-41470055D01*
X125402225Y-41427459D01*
X125435365Y-41260851D01*
X125427000Y-41218797D01*
X125427000Y-41068299D01*
X125432389Y-41067227D01*
X125497364Y-41023812D01*
X125509969Y-41036417D01*
X125630155Y-41086200D01*
X125791250Y-41086200D01*
X125873000Y-41004450D01*
X125873000Y-39882900D01*
X125853000Y-39882900D01*
X125853000Y-39628900D01*
X125873000Y-39628900D01*
X125873000Y-38507350D01*
X125791250Y-38425600D01*
X125630155Y-38425600D01*
X125509969Y-38475383D01*
X125497364Y-38487988D01*
X125432389Y-38444573D01*
X125304800Y-38419194D01*
X124695200Y-38419194D01*
X124567611Y-38444573D01*
X124500002Y-38489748D01*
X124432393Y-38444573D01*
X124304804Y-38419194D01*
X123695204Y-38419194D01*
X123567615Y-38444573D01*
X123502637Y-38487989D01*
X123490031Y-38475383D01*
X123369845Y-38425600D01*
X123208750Y-38425600D01*
X123127000Y-38507350D01*
X123127000Y-39628900D01*
X123147000Y-39628900D01*
X123147000Y-39882900D01*
X123127000Y-39882900D01*
X123127000Y-41004450D01*
X123208750Y-41086200D01*
X123369845Y-41086200D01*
X123490031Y-41036417D01*
X123502637Y-41023811D01*
X123567615Y-41067227D01*
X123573004Y-41068299D01*
X123573004Y-41218798D01*
X123564639Y-41260851D01*
X123573004Y-41302904D01*
X123597779Y-41427457D01*
X123692154Y-41568701D01*
X123727811Y-41592526D01*
X123848003Y-41712719D01*
X123848002Y-52537069D01*
X123839637Y-52579122D01*
X123848002Y-52621175D01*
X123872777Y-52745728D01*
X123967152Y-52886972D01*
X124002809Y-52910797D01*
X126339209Y-55247199D01*
X126363030Y-55282850D01*
X126504273Y-55377225D01*
X126628826Y-55402000D01*
X126670879Y-55410365D01*
X126712932Y-55402000D01*
X143623131Y-55402000D01*
X143743325Y-55522195D01*
X143767149Y-55557850D01*
X143887682Y-55638387D01*
X143908392Y-55652225D01*
X144074999Y-55685365D01*
X144117053Y-55677000D01*
X144216594Y-55677000D01*
X144216594Y-55900000D01*
X144236808Y-56001621D01*
X144223000Y-56034955D01*
X144223000Y-56093250D01*
X144304750Y-56175000D01*
X144372982Y-56175000D01*
X144422411Y-56208027D01*
X144550000Y-56233406D01*
X146450000Y-56233406D01*
X146577589Y-56208027D01*
X146586609Y-56202000D01*
X147010794Y-56202000D01*
X146914794Y-56298000D01*
X146586609Y-56298000D01*
X146577589Y-56291973D01*
X146450000Y-56266594D01*
X144550000Y-56266594D01*
X144422411Y-56291973D01*
X144372982Y-56325000D01*
X144304750Y-56325000D01*
X144223000Y-56406750D01*
X144223000Y-56465045D01*
X144236808Y-56498379D01*
X144216594Y-56600000D01*
X144216594Y-56900000D01*
X144236485Y-57000000D01*
X144216594Y-57100000D01*
X144216594Y-57400000D01*
X144236485Y-57500000D01*
X144216594Y-57600000D01*
X144216594Y-57900000D01*
X144227383Y-57954240D01*
X144164306Y-58048640D01*
X144129226Y-58225001D01*
X144143746Y-58298000D01*
X117281995Y-58298000D01*
X116820243Y-57836249D01*
X116795024Y-57798506D01*
X116645512Y-57698605D01*
X116546150Y-57678841D01*
X116546150Y-57192347D01*
X116479649Y-56858025D01*
X116226328Y-56478902D01*
X115847204Y-56225581D01*
X115400000Y-56136626D01*
X114952795Y-56225581D01*
X114573672Y-56478902D01*
X114320351Y-56858026D01*
X114253850Y-57192348D01*
X114006150Y-57192348D01*
X114006150Y-57178230D01*
X113870304Y-56749285D01*
X113580648Y-56404977D01*
X113163630Y-56200029D01*
X112987000Y-56248434D01*
X112733000Y-56248434D01*
X112556370Y-56200029D01*
X112139352Y-56404977D01*
X111849696Y-56749285D01*
X111713850Y-57178230D01*
X105229958Y-57178230D01*
X105618569Y-56918569D01*
X105878709Y-56529242D01*
X105970058Y-56070000D01*
X105878709Y-55610758D01*
X105618569Y-55221431D01*
X105229242Y-54961291D01*
X104885920Y-54893000D01*
X104654080Y-54893000D01*
X104310758Y-54961291D01*
X103921431Y-55221431D01*
X103661291Y-55610758D01*
X103569942Y-56070000D01*
X100377000Y-56070000D01*
X100377000Y-53530000D01*
X101029942Y-53530000D01*
X101121291Y-53989242D01*
X101381431Y-54378569D01*
X101770758Y-54638709D01*
X102114080Y-54707000D01*
X102345920Y-54707000D01*
X102689242Y-54638709D01*
X103078569Y-54378569D01*
X103338709Y-53989242D01*
X103430058Y-53530000D01*
X103569942Y-53530000D01*
X103661291Y-53989242D01*
X103921431Y-54378569D01*
X104310758Y-54638709D01*
X104654080Y-54707000D01*
X104885920Y-54707000D01*
X105229242Y-54638709D01*
X105618569Y-54378569D01*
X105878709Y-53989242D01*
X105970058Y-53530000D01*
X105878709Y-53070758D01*
X105618569Y-52681431D01*
X105229242Y-52421291D01*
X104885920Y-52353000D01*
X104654080Y-52353000D01*
X104310758Y-52421291D01*
X103921431Y-52681431D01*
X103661291Y-53070758D01*
X103569942Y-53530000D01*
X103430058Y-53530000D01*
X103338709Y-53070758D01*
X103078569Y-52681431D01*
X102689242Y-52421291D01*
X102345920Y-52353000D01*
X102114080Y-52353000D01*
X101770758Y-52421291D01*
X101381431Y-52681431D01*
X101121291Y-53070758D01*
X101029942Y-53530000D01*
X100377000Y-53530000D01*
X100377000Y-50990000D01*
X103569942Y-50990000D01*
X103661291Y-51449242D01*
X103921431Y-51838569D01*
X104310758Y-52098709D01*
X104654080Y-52167000D01*
X104885920Y-52167000D01*
X105229242Y-52098709D01*
X105618569Y-51838569D01*
X105878709Y-51449242D01*
X105970058Y-50990000D01*
X105878709Y-50530758D01*
X105618569Y-50141431D01*
X105229242Y-49881291D01*
X104885920Y-49813000D01*
X104654080Y-49813000D01*
X104310758Y-49881291D01*
X103921431Y-50141431D01*
X103661291Y-50530758D01*
X103569942Y-50990000D01*
X100377000Y-50990000D01*
X100377000Y-48450000D01*
X101029942Y-48450000D01*
X101121291Y-48909242D01*
X101381431Y-49298569D01*
X101770758Y-49558709D01*
X102114080Y-49627000D01*
X102345920Y-49627000D01*
X102689242Y-49558709D01*
X103078569Y-49298569D01*
X103338709Y-48909242D01*
X103430058Y-48450000D01*
X103569942Y-48450000D01*
X103661291Y-48909242D01*
X103921431Y-49298569D01*
X104310758Y-49558709D01*
X104654080Y-49627000D01*
X104885920Y-49627000D01*
X105229242Y-49558709D01*
X105618569Y-49298569D01*
X105878709Y-48909242D01*
X105970058Y-48450000D01*
X105878709Y-47990758D01*
X105618569Y-47601431D01*
X105229242Y-47341291D01*
X104885920Y-47273000D01*
X104654080Y-47273000D01*
X104310758Y-47341291D01*
X103921431Y-47601431D01*
X103661291Y-47990758D01*
X103569942Y-48450000D01*
X103430058Y-48450000D01*
X103338709Y-47990758D01*
X103078569Y-47601431D01*
X102689242Y-47341291D01*
X102345920Y-47273000D01*
X102114080Y-47273000D01*
X101770758Y-47341291D01*
X101381431Y-47601431D01*
X101121291Y-47990758D01*
X101029942Y-48450000D01*
X100377000Y-48450000D01*
X100377000Y-45910000D01*
X101029942Y-45910000D01*
X101121291Y-46369242D01*
X101381431Y-46758569D01*
X101770758Y-47018709D01*
X102114080Y-47087000D01*
X102345920Y-47087000D01*
X102689242Y-47018709D01*
X103078569Y-46758569D01*
X103338709Y-46369242D01*
X103430058Y-45910000D01*
X103569942Y-45910000D01*
X103661291Y-46369242D01*
X103921431Y-46758569D01*
X104310758Y-47018709D01*
X104654080Y-47087000D01*
X104885920Y-47087000D01*
X105229242Y-47018709D01*
X105618569Y-46758569D01*
X105878709Y-46369242D01*
X105970058Y-45910000D01*
X105878709Y-45450758D01*
X105618569Y-45061431D01*
X105229242Y-44801291D01*
X104885920Y-44733000D01*
X104654080Y-44733000D01*
X104310758Y-44801291D01*
X103921431Y-45061431D01*
X103661291Y-45450758D01*
X103569942Y-45910000D01*
X103430058Y-45910000D01*
X103338709Y-45450758D01*
X103078569Y-45061431D01*
X102689242Y-44801291D01*
X102345920Y-44733000D01*
X102114080Y-44733000D01*
X101770758Y-44801291D01*
X101381431Y-45061431D01*
X101121291Y-45450758D01*
X101029942Y-45910000D01*
X100377000Y-45910000D01*
X100377000Y-43370000D01*
X101029942Y-43370000D01*
X101121291Y-43829242D01*
X101381431Y-44218569D01*
X101770758Y-44478709D01*
X102114080Y-44547000D01*
X102345920Y-44547000D01*
X102689242Y-44478709D01*
X103078569Y-44218569D01*
X103338709Y-43829242D01*
X103430058Y-43370000D01*
X103338709Y-42910758D01*
X103078569Y-42521431D01*
X102689242Y-42261291D01*
X102345920Y-42193000D01*
X102114080Y-42193000D01*
X101770758Y-42261291D01*
X101381431Y-42521431D01*
X101121291Y-42910758D01*
X101029942Y-43370000D01*
X100377000Y-43370000D01*
X100377000Y-42072850D01*
X121316400Y-42072850D01*
X121316400Y-44024645D01*
X121366183Y-44144831D01*
X121458170Y-44236817D01*
X121578356Y-44286600D01*
X121790250Y-44286600D01*
X121872000Y-44204850D01*
X121872000Y-41991100D01*
X122126000Y-41991100D01*
X122126000Y-44204850D01*
X122207750Y-44286600D01*
X122419644Y-44286600D01*
X122539830Y-44236817D01*
X122631817Y-44144831D01*
X122681600Y-44024645D01*
X122681600Y-42072850D01*
X122599850Y-41991100D01*
X122126000Y-41991100D01*
X121872000Y-41991100D01*
X121398150Y-41991100D01*
X121316400Y-42072850D01*
X100377000Y-42072850D01*
X100377000Y-39915594D01*
X100594730Y-40441240D01*
X101558760Y-41405270D01*
X102818327Y-41927000D01*
X104181673Y-41927000D01*
X105441240Y-41405270D01*
X106405270Y-40441240D01*
X106710829Y-39703555D01*
X121316400Y-39703555D01*
X121316400Y-41655350D01*
X121398150Y-41737100D01*
X121872000Y-41737100D01*
X121872000Y-39523350D01*
X122126000Y-39523350D01*
X122126000Y-41737100D01*
X122599850Y-41737100D01*
X122681600Y-41655350D01*
X122681600Y-41086200D01*
X122791250Y-41086200D01*
X122873000Y-41004450D01*
X122873000Y-39882900D01*
X122853000Y-39882900D01*
X122853000Y-39628900D01*
X122873000Y-39628900D01*
X122873000Y-38507350D01*
X122791250Y-38425600D01*
X122630155Y-38425600D01*
X122509969Y-38475383D01*
X122417983Y-38567370D01*
X122368200Y-38687556D01*
X122368200Y-39441600D01*
X122207750Y-39441600D01*
X122126000Y-39523350D01*
X121872000Y-39523350D01*
X121790250Y-39441600D01*
X121578356Y-39441600D01*
X121458170Y-39491383D01*
X121366183Y-39583369D01*
X121316400Y-39703555D01*
X106710829Y-39703555D01*
X106927000Y-39181673D01*
X106927000Y-37818327D01*
X106405270Y-36558760D01*
X105441240Y-35594730D01*
X104915594Y-35377000D01*
X151084406Y-35377000D01*
X150558760Y-35594730D01*
G36*
X147605418Y-51593973D02*
X147605417Y-54970966D01*
X147278384Y-55298000D01*
X146783406Y-55298000D01*
X146783406Y-55100000D01*
X146763192Y-54998379D01*
X146777000Y-54965045D01*
X146777000Y-54906750D01*
X146695250Y-54825000D01*
X146627018Y-54825000D01*
X146577589Y-54791973D01*
X146450000Y-54766594D01*
X145459844Y-54766594D01*
X145450001Y-54764636D01*
X145440158Y-54766594D01*
X144550000Y-54766594D01*
X144422411Y-54791973D01*
X144375975Y-54823000D01*
X144251868Y-54823000D01*
X144178867Y-54750000D01*
X144251868Y-54677000D01*
X144375975Y-54677000D01*
X144422411Y-54708027D01*
X144550000Y-54733406D01*
X145440158Y-54733406D01*
X145450001Y-54735364D01*
X145459844Y-54733406D01*
X146450000Y-54733406D01*
X146577589Y-54708027D01*
X146627018Y-54675000D01*
X146695250Y-54675000D01*
X146777000Y-54593250D01*
X146777000Y-54534955D01*
X146763192Y-54501621D01*
X146783406Y-54400000D01*
X146783406Y-54100000D01*
X146763515Y-54000000D01*
X146783406Y-53900000D01*
X146783406Y-53600000D01*
X146763192Y-53498379D01*
X146777000Y-53465045D01*
X146777000Y-53406750D01*
X146695250Y-53325000D01*
X146627018Y-53325000D01*
X146577589Y-53291973D01*
X146450000Y-53266594D01*
X145459844Y-53266594D01*
X145450001Y-53264636D01*
X145440158Y-53266594D01*
X144550000Y-53266594D01*
X144422411Y-53291973D01*
X144375975Y-53323000D01*
X144251868Y-53323000D01*
X144178867Y-53250000D01*
X144251868Y-53177000D01*
X144375975Y-53177000D01*
X144422411Y-53208027D01*
X144550000Y-53233406D01*
X146450000Y-53233406D01*
X146577589Y-53208027D01*
X146627018Y-53175000D01*
X146695250Y-53175000D01*
X146777000Y-53093250D01*
X146777000Y-53034955D01*
X146763192Y-53001621D01*
X146783406Y-52900000D01*
X146783406Y-52600000D01*
X146763515Y-52500000D01*
X146783406Y-52400000D01*
X146783406Y-52100000D01*
X146763192Y-51998379D01*
X146777000Y-51965045D01*
X146777000Y-51906750D01*
X146695250Y-51825000D01*
X146627018Y-51825000D01*
X146577589Y-51791973D01*
X146450000Y-51766594D01*
X144550000Y-51766594D01*
X144422411Y-51791973D01*
X144375975Y-51823000D01*
X144251868Y-51823000D01*
X144178867Y-51750000D01*
X144251868Y-51677000D01*
X144375975Y-51677000D01*
X144422411Y-51708027D01*
X144550000Y-51733406D01*
X146450000Y-51733406D01*
X146577589Y-51708027D01*
X146627018Y-51675000D01*
X146695250Y-51675000D01*
X146777000Y-51593250D01*
X146777000Y-51534955D01*
X146763192Y-51501621D01*
X146783406Y-51400000D01*
X146783406Y-51186391D01*
X147197837Y-51186391D01*
X147605418Y-51593973D01*
X147605418Y-51593973D01*
G37*
X147605418Y-51593973D02*
X147605417Y-54970966D01*
X147278384Y-55298000D01*
X146783406Y-55298000D01*
X146783406Y-55100000D01*
X146763192Y-54998379D01*
X146777000Y-54965045D01*
X146777000Y-54906750D01*
X146695250Y-54825000D01*
X146627018Y-54825000D01*
X146577589Y-54791973D01*
X146450000Y-54766594D01*
X145459844Y-54766594D01*
X145450001Y-54764636D01*
X145440158Y-54766594D01*
X144550000Y-54766594D01*
X144422411Y-54791973D01*
X144375975Y-54823000D01*
X144251868Y-54823000D01*
X144178867Y-54750000D01*
X144251868Y-54677000D01*
X144375975Y-54677000D01*
X144422411Y-54708027D01*
X144550000Y-54733406D01*
X145440158Y-54733406D01*
X145450001Y-54735364D01*
X145459844Y-54733406D01*
X146450000Y-54733406D01*
X146577589Y-54708027D01*
X146627018Y-54675000D01*
X146695250Y-54675000D01*
X146777000Y-54593250D01*
X146777000Y-54534955D01*
X146763192Y-54501621D01*
X146783406Y-54400000D01*
X146783406Y-54100000D01*
X146763515Y-54000000D01*
X146783406Y-53900000D01*
X146783406Y-53600000D01*
X146763192Y-53498379D01*
X146777000Y-53465045D01*
X146777000Y-53406750D01*
X146695250Y-53325000D01*
X146627018Y-53325000D01*
X146577589Y-53291973D01*
X146450000Y-53266594D01*
X145459844Y-53266594D01*
X145450001Y-53264636D01*
X145440158Y-53266594D01*
X144550000Y-53266594D01*
X144422411Y-53291973D01*
X144375975Y-53323000D01*
X144251868Y-53323000D01*
X144178867Y-53250000D01*
X144251868Y-53177000D01*
X144375975Y-53177000D01*
X144422411Y-53208027D01*
X144550000Y-53233406D01*
X146450000Y-53233406D01*
X146577589Y-53208027D01*
X146627018Y-53175000D01*
X146695250Y-53175000D01*
X146777000Y-53093250D01*
X146777000Y-53034955D01*
X146763192Y-53001621D01*
X146783406Y-52900000D01*
X146783406Y-52600000D01*
X146763515Y-52500000D01*
X146783406Y-52400000D01*
X146783406Y-52100000D01*
X146763192Y-51998379D01*
X146777000Y-51965045D01*
X146777000Y-51906750D01*
X146695250Y-51825000D01*
X146627018Y-51825000D01*
X146577589Y-51791973D01*
X146450000Y-51766594D01*
X144550000Y-51766594D01*
X144422411Y-51791973D01*
X144375975Y-51823000D01*
X144251868Y-51823000D01*
X144178867Y-51750000D01*
X144251868Y-51677000D01*
X144375975Y-51677000D01*
X144422411Y-51708027D01*
X144550000Y-51733406D01*
X146450000Y-51733406D01*
X146577589Y-51708027D01*
X146627018Y-51675000D01*
X146695250Y-51675000D01*
X146777000Y-51593250D01*
X146777000Y-51534955D01*
X146763192Y-51501621D01*
X146783406Y-51400000D01*
X146783406Y-51186391D01*
X147197837Y-51186391D01*
X147605418Y-51593973D01*
G36*
X134548000Y-41054124D02*
X134548001Y-44778994D01*
X134539145Y-44823517D01*
X134574225Y-44999878D01*
X134574226Y-44999879D01*
X134674127Y-45149391D01*
X134711867Y-45174608D01*
X137059771Y-47522513D01*
X137084989Y-47560254D01*
X137122729Y-47585471D01*
X137234501Y-47660155D01*
X137410862Y-47695235D01*
X137455380Y-47686380D01*
X145722313Y-47686380D01*
X145396217Y-48012476D01*
X145198000Y-48491016D01*
X145198000Y-49008984D01*
X145396217Y-49487524D01*
X145741073Y-49832380D01*
X136328684Y-49832380D01*
X134452003Y-47955699D01*
X134452003Y-41054123D01*
X134500002Y-41022052D01*
X134548000Y-41054124D01*
X134548000Y-41054124D01*
G37*
X134548000Y-41054124D02*
X134548001Y-44778994D01*
X134539145Y-44823517D01*
X134574225Y-44999878D01*
X134574226Y-44999879D01*
X134674127Y-45149391D01*
X134711867Y-45174608D01*
X137059771Y-47522513D01*
X137084989Y-47560254D01*
X137122729Y-47585471D01*
X137234501Y-47660155D01*
X137410862Y-47695235D01*
X137455380Y-47686380D01*
X145722313Y-47686380D01*
X145396217Y-48012476D01*
X145198000Y-48491016D01*
X145198000Y-49008984D01*
X145396217Y-49487524D01*
X145741073Y-49832380D01*
X136328684Y-49832380D01*
X134452003Y-47955699D01*
X134452003Y-41054123D01*
X134500002Y-41022052D01*
X134548000Y-41054124D01*
G36*
X141148966Y-78424126D02*
X141123749Y-78461866D01*
X138774327Y-80811287D01*
X138736587Y-80836504D01*
X138711370Y-80874244D01*
X138711369Y-80874245D01*
X138636685Y-80986017D01*
X138601605Y-81162378D01*
X138610461Y-81206901D01*
X138610460Y-90831813D01*
X138541830Y-90763183D01*
X138421644Y-90713400D01*
X138209750Y-90713400D01*
X138128000Y-90795150D01*
X138128000Y-93008900D01*
X138148000Y-93008900D01*
X138148000Y-93262900D01*
X138128000Y-93262900D01*
X138128000Y-95476650D01*
X138209750Y-95558400D01*
X138421644Y-95558400D01*
X138541830Y-95508617D01*
X138610460Y-95439988D01*
X138610460Y-96071153D01*
X138439256Y-96242358D01*
X137631800Y-96242358D01*
X137631800Y-95558400D01*
X137792250Y-95558400D01*
X137874000Y-95476650D01*
X137874000Y-93262900D01*
X137400150Y-93262900D01*
X137318400Y-93344650D01*
X137318400Y-93913800D01*
X137208750Y-93913800D01*
X137127000Y-93995550D01*
X137127000Y-95117100D01*
X137147000Y-95117100D01*
X137147000Y-95371100D01*
X137127000Y-95371100D01*
X137127000Y-95391100D01*
X136873000Y-95391100D01*
X136873000Y-95371100D01*
X136853000Y-95371100D01*
X136853000Y-95117100D01*
X136873000Y-95117100D01*
X136873000Y-93995550D01*
X136791250Y-93913800D01*
X136630155Y-93913800D01*
X136509969Y-93963583D01*
X136497363Y-93976189D01*
X136432385Y-93932773D01*
X136426996Y-93931701D01*
X136426996Y-93781203D01*
X136435361Y-93739149D01*
X136402221Y-93572541D01*
X136357896Y-93506205D01*
X136307846Y-93431299D01*
X136272191Y-93407475D01*
X136151998Y-93287283D01*
X136151998Y-90975355D01*
X137318400Y-90975355D01*
X137318400Y-92927150D01*
X137400150Y-93008900D01*
X137874000Y-93008900D01*
X137874000Y-90795150D01*
X137792250Y-90713400D01*
X137580356Y-90713400D01*
X137460170Y-90763183D01*
X137368183Y-90855169D01*
X137318400Y-90975355D01*
X136151998Y-90975355D01*
X136151998Y-80532910D01*
X138282909Y-78402000D01*
X141182080Y-78402000D01*
X141148966Y-78424126D01*
X141148966Y-78424126D01*
G37*
X141148966Y-78424126D02*
X141123749Y-78461866D01*
X138774327Y-80811287D01*
X138736587Y-80836504D01*
X138711370Y-80874244D01*
X138711369Y-80874245D01*
X138636685Y-80986017D01*
X138601605Y-81162378D01*
X138610461Y-81206901D01*
X138610460Y-90831813D01*
X138541830Y-90763183D01*
X138421644Y-90713400D01*
X138209750Y-90713400D01*
X138128000Y-90795150D01*
X138128000Y-93008900D01*
X138148000Y-93008900D01*
X138148000Y-93262900D01*
X138128000Y-93262900D01*
X138128000Y-95476650D01*
X138209750Y-95558400D01*
X138421644Y-95558400D01*
X138541830Y-95508617D01*
X138610460Y-95439988D01*
X138610460Y-96071153D01*
X138439256Y-96242358D01*
X137631800Y-96242358D01*
X137631800Y-95558400D01*
X137792250Y-95558400D01*
X137874000Y-95476650D01*
X137874000Y-93262900D01*
X137400150Y-93262900D01*
X137318400Y-93344650D01*
X137318400Y-93913800D01*
X137208750Y-93913800D01*
X137127000Y-93995550D01*
X137127000Y-95117100D01*
X137147000Y-95117100D01*
X137147000Y-95371100D01*
X137127000Y-95371100D01*
X137127000Y-95391100D01*
X136873000Y-95391100D01*
X136873000Y-95371100D01*
X136853000Y-95371100D01*
X136853000Y-95117100D01*
X136873000Y-95117100D01*
X136873000Y-93995550D01*
X136791250Y-93913800D01*
X136630155Y-93913800D01*
X136509969Y-93963583D01*
X136497363Y-93976189D01*
X136432385Y-93932773D01*
X136426996Y-93931701D01*
X136426996Y-93781203D01*
X136435361Y-93739149D01*
X136402221Y-93572541D01*
X136357896Y-93506205D01*
X136307846Y-93431299D01*
X136272191Y-93407475D01*
X136151998Y-93287283D01*
X136151998Y-90975355D01*
X137318400Y-90975355D01*
X137318400Y-92927150D01*
X137400150Y-93008900D01*
X137874000Y-93008900D01*
X137874000Y-90795150D01*
X137792250Y-90713400D01*
X137580356Y-90713400D01*
X137460170Y-90763183D01*
X137368183Y-90855169D01*
X137318400Y-90975355D01*
X136151998Y-90975355D01*
X136151998Y-80532910D01*
X138282909Y-78402000D01*
X141182080Y-78402000D01*
X141148966Y-78424126D01*
G36*
X143721130Y-77000000D02*
X143623131Y-77098000D01*
X137961694Y-77098000D01*
X137919640Y-77089635D01*
X137877586Y-77098000D01*
X137753033Y-77122775D01*
X137611790Y-77217150D01*
X137587968Y-77252803D01*
X135002803Y-79837969D01*
X134967149Y-79861792D01*
X134924005Y-79926362D01*
X134872774Y-80003035D01*
X134839633Y-80169642D01*
X134847999Y-80211700D01*
X134847998Y-93287282D01*
X134727805Y-93407476D01*
X134692151Y-93431299D01*
X134642101Y-93506205D01*
X134597776Y-93572542D01*
X134564635Y-93739149D01*
X134573001Y-93781206D01*
X134573001Y-93931701D01*
X134567611Y-93932773D01*
X134502636Y-93976188D01*
X134490031Y-93963583D01*
X134369845Y-93913800D01*
X134208750Y-93913800D01*
X134127000Y-93995550D01*
X134127000Y-95117100D01*
X134147000Y-95117100D01*
X134147000Y-95371100D01*
X134127000Y-95371100D01*
X134127000Y-95391100D01*
X133873000Y-95391100D01*
X133873000Y-95371100D01*
X133853000Y-95371100D01*
X133853000Y-95117100D01*
X133873000Y-95117100D01*
X133873000Y-93995550D01*
X133791250Y-93913800D01*
X133630155Y-93913800D01*
X133509969Y-93963583D01*
X133497364Y-93976188D01*
X133432389Y-93932773D01*
X133427000Y-93931701D01*
X133427000Y-93781203D01*
X133435365Y-93739149D01*
X133402225Y-93572542D01*
X133357900Y-93506205D01*
X133307850Y-93431299D01*
X133272195Y-93407475D01*
X133152000Y-93287281D01*
X133152000Y-78960908D01*
X135210909Y-76902000D01*
X143623131Y-76902000D01*
X143721130Y-77000000D01*
X143721130Y-77000000D01*
G37*
X143721130Y-77000000D02*
X143623131Y-77098000D01*
X137961694Y-77098000D01*
X137919640Y-77089635D01*
X137877586Y-77098000D01*
X137753033Y-77122775D01*
X137611790Y-77217150D01*
X137587968Y-77252803D01*
X135002803Y-79837969D01*
X134967149Y-79861792D01*
X134924005Y-79926362D01*
X134872774Y-80003035D01*
X134839633Y-80169642D01*
X134847999Y-80211700D01*
X134847998Y-93287282D01*
X134727805Y-93407476D01*
X134692151Y-93431299D01*
X134642101Y-93506205D01*
X134597776Y-93572542D01*
X134564635Y-93739149D01*
X134573001Y-93781206D01*
X134573001Y-93931701D01*
X134567611Y-93932773D01*
X134502636Y-93976188D01*
X134490031Y-93963583D01*
X134369845Y-93913800D01*
X134208750Y-93913800D01*
X134127000Y-93995550D01*
X134127000Y-95117100D01*
X134147000Y-95117100D01*
X134147000Y-95371100D01*
X134127000Y-95371100D01*
X134127000Y-95391100D01*
X133873000Y-95391100D01*
X133873000Y-95371100D01*
X133853000Y-95371100D01*
X133853000Y-95117100D01*
X133873000Y-95117100D01*
X133873000Y-93995550D01*
X133791250Y-93913800D01*
X133630155Y-93913800D01*
X133509969Y-93963583D01*
X133497364Y-93976188D01*
X133432389Y-93932773D01*
X133427000Y-93931701D01*
X133427000Y-93781203D01*
X133435365Y-93739149D01*
X133402225Y-93572542D01*
X133357900Y-93506205D01*
X133307850Y-93431299D01*
X133272195Y-93407475D01*
X133152000Y-93287281D01*
X133152000Y-78960908D01*
X135210909Y-76902000D01*
X143623131Y-76902000D01*
X143721130Y-77000000D01*
G36*
X143721130Y-75500000D02*
X143623131Y-75598000D01*
X134889692Y-75598000D01*
X134847639Y-75589635D01*
X134805586Y-75598000D01*
X134681033Y-75622775D01*
X134539790Y-75717150D01*
X134515968Y-75752803D01*
X132002805Y-78265967D01*
X131967151Y-78289790D01*
X131892175Y-78402000D01*
X131872776Y-78431033D01*
X131839635Y-78597640D01*
X131848001Y-78639698D01*
X131848000Y-93287280D01*
X131727805Y-93407476D01*
X131692151Y-93431299D01*
X131642101Y-93506205D01*
X131597776Y-93572542D01*
X131564635Y-93739149D01*
X131573001Y-93781206D01*
X131573001Y-93931701D01*
X131567611Y-93932773D01*
X131502633Y-93976189D01*
X131490027Y-93963583D01*
X131369841Y-93913800D01*
X131208746Y-93913800D01*
X131126996Y-93995550D01*
X131126996Y-95117100D01*
X131146996Y-95117100D01*
X131146996Y-95371100D01*
X131126996Y-95371100D01*
X131126996Y-95391100D01*
X130872996Y-95391100D01*
X130872996Y-95371100D01*
X130852996Y-95371100D01*
X130852996Y-95117100D01*
X130872996Y-95117100D01*
X130872996Y-93995550D01*
X130791246Y-93913800D01*
X130630151Y-93913800D01*
X130509965Y-93963583D01*
X130497362Y-93976186D01*
X130432389Y-93932773D01*
X130427000Y-93931701D01*
X130427000Y-93781203D01*
X130435365Y-93739149D01*
X130402225Y-93572542D01*
X130357900Y-93506205D01*
X130307850Y-93431299D01*
X130272195Y-93407475D01*
X130152000Y-93287281D01*
X130152000Y-77388908D01*
X132138910Y-75402000D01*
X143623131Y-75402000D01*
X143721130Y-75500000D01*
X143721130Y-75500000D01*
G37*
X143721130Y-75500000D02*
X143623131Y-75598000D01*
X134889692Y-75598000D01*
X134847639Y-75589635D01*
X134805586Y-75598000D01*
X134681033Y-75622775D01*
X134539790Y-75717150D01*
X134515968Y-75752803D01*
X132002805Y-78265967D01*
X131967151Y-78289790D01*
X131892175Y-78402000D01*
X131872776Y-78431033D01*
X131839635Y-78597640D01*
X131848001Y-78639698D01*
X131848000Y-93287280D01*
X131727805Y-93407476D01*
X131692151Y-93431299D01*
X131642101Y-93506205D01*
X131597776Y-93572542D01*
X131564635Y-93739149D01*
X131573001Y-93781206D01*
X131573001Y-93931701D01*
X131567611Y-93932773D01*
X131502633Y-93976189D01*
X131490027Y-93963583D01*
X131369841Y-93913800D01*
X131208746Y-93913800D01*
X131126996Y-93995550D01*
X131126996Y-95117100D01*
X131146996Y-95117100D01*
X131146996Y-95371100D01*
X131126996Y-95371100D01*
X131126996Y-95391100D01*
X130872996Y-95391100D01*
X130872996Y-95371100D01*
X130852996Y-95371100D01*
X130852996Y-95117100D01*
X130872996Y-95117100D01*
X130872996Y-93995550D01*
X130791246Y-93913800D01*
X130630151Y-93913800D01*
X130509965Y-93963583D01*
X130497362Y-93976186D01*
X130432389Y-93932773D01*
X130427000Y-93931701D01*
X130427000Y-93781203D01*
X130435365Y-93739149D01*
X130402225Y-93572542D01*
X130357900Y-93506205D01*
X130307850Y-93431299D01*
X130272195Y-93407475D01*
X130152000Y-93287281D01*
X130152000Y-77388908D01*
X132138910Y-75402000D01*
X143623131Y-75402000D01*
X143721130Y-75500000D01*
G04 #@! TO.N,+5V*
G36*
X103441658Y-90452122D02*
X103055213Y-92506877D01*
X101191865Y-92498004D01*
X101343184Y-88081380D01*
X103081305Y-88081380D01*
X103441658Y-90452122D01*
X103441658Y-90452122D01*
G37*
X103441658Y-90452122D02*
X103055213Y-92506877D01*
X101191865Y-92498004D01*
X101343184Y-88081380D01*
X103081305Y-88081380D01*
X103441658Y-90452122D01*
G04 #@! TD*
M02*
