G04 #@! TF.GenerationSoftware,KiCad,Pcbnew,(5.0.0)*
G04 #@! TF.CreationDate,2018-11-03T21:33:58-02:30*
G04 #@! TF.ProjectId,Dual CamCon,4475616C2043616D436F6E2E6B696361,rev?*
G04 #@! TF.SameCoordinates,Original*
G04 #@! TF.FileFunction,Copper,L2,Bot,Signal*
G04 #@! TF.FilePolarity,Positive*
%FSLAX46Y46*%
G04 Gerber Fmt 4.6, Leading zero omitted, Abs format (unit mm)*
G04 Created by KiCad (PCBNEW (5.0.0)) date 11/03/18 21:33:58*
%MOMM*%
%LPD*%
G01*
G04 APERTURE LIST*
G04 #@! TA.AperFunction,ComponentPad*
%ADD10R,1.700000X1.700000*%
G04 #@! TD*
G04 #@! TA.AperFunction,ComponentPad*
%ADD11O,1.700000X1.700000*%
G04 #@! TD*
G04 #@! TA.AperFunction,ComponentPad*
%ADD12O,1.638300X3.276600*%
G04 #@! TD*
G04 #@! TA.AperFunction,ComponentPad*
%ADD13C,1.950000*%
G04 #@! TD*
G04 #@! TA.AperFunction,ViaPad*
%ADD14C,6.200000*%
G04 #@! TD*
G04 #@! TA.AperFunction,ViaPad*
%ADD15C,0.800000*%
G04 #@! TD*
G04 #@! TA.AperFunction,Conductor*
%ADD16C,0.250000*%
G04 #@! TD*
G04 #@! TA.AperFunction,Conductor*
%ADD17C,0.254000*%
G04 #@! TD*
G04 APERTURE END LIST*
D10*
G04 #@! TO.P,J5,1*
G04 #@! TO.N,Net-(J5-Pad1)*
X102230000Y-43370000D03*
D11*
G04 #@! TO.P,J5,2*
G04 #@! TO.N,+5V*
X104770000Y-43370000D03*
G04 #@! TO.P,J5,3*
G04 #@! TO.N,Net-(J5-Pad3)*
X102230000Y-45910000D03*
G04 #@! TO.P,J5,4*
G04 #@! TO.N,+5V*
X104770000Y-45910000D03*
G04 #@! TO.P,J5,5*
G04 #@! TO.N,Net-(J5-Pad5)*
X102230000Y-48450000D03*
G04 #@! TO.P,J5,6*
G04 #@! TO.N,GND*
X104770000Y-48450000D03*
G04 #@! TO.P,J5,7*
G04 #@! TO.N,Net-(J5-Pad7)*
X102230000Y-50990000D03*
G04 #@! TO.P,J5,8*
G04 #@! TO.N,Net-(J5-Pad8)*
X104770000Y-50990000D03*
G04 #@! TO.P,J5,9*
G04 #@! TO.N,GND*
X102230000Y-53530000D03*
G04 #@! TO.P,J5,10*
G04 #@! TO.N,Net-(J5-Pad10)*
X104770000Y-53530000D03*
G04 #@! TO.P,J5,11*
G04 #@! TO.N,Net-(J5-Pad11)*
X102230000Y-56070000D03*
G04 #@! TO.P,J5,12*
G04 #@! TO.N,Net-(J5-Pad12)*
X104770000Y-56070000D03*
G04 #@! TO.P,J5,13*
G04 #@! TO.N,Net-(J5-Pad13)*
X102230000Y-58610000D03*
G04 #@! TO.P,J5,14*
G04 #@! TO.N,GND*
X104770000Y-58610000D03*
G04 #@! TO.P,J5,15*
G04 #@! TO.N,Net-(J5-Pad15)*
X102230000Y-61150000D03*
G04 #@! TO.P,J5,16*
G04 #@! TO.N,Net-(J5-Pad16)*
X104770000Y-61150000D03*
G04 #@! TO.P,J5,17*
G04 #@! TO.N,Net-(J5-Pad17)*
X102230000Y-63690000D03*
G04 #@! TO.P,J5,18*
G04 #@! TO.N,Net-(J5-Pad18)*
X104770000Y-63690000D03*
G04 #@! TO.P,J5,19*
G04 #@! TO.N,Net-(J5-Pad19)*
X102230000Y-66230000D03*
G04 #@! TO.P,J5,20*
G04 #@! TO.N,GND*
X104770000Y-66230000D03*
G04 #@! TO.P,J5,21*
G04 #@! TO.N,Net-(J5-Pad21)*
X102230000Y-68770000D03*
G04 #@! TO.P,J5,22*
G04 #@! TO.N,Net-(J5-Pad22)*
X104770000Y-68770000D03*
G04 #@! TO.P,J5,23*
G04 #@! TO.N,Net-(J5-Pad23)*
X102230000Y-71310000D03*
G04 #@! TO.P,J5,24*
G04 #@! TO.N,Net-(J5-Pad24)*
X104770000Y-71310000D03*
G04 #@! TO.P,J5,25*
G04 #@! TO.N,GND*
X102230000Y-73850000D03*
G04 #@! TO.P,J5,26*
G04 #@! TO.N,Net-(J5-Pad26)*
X104770000Y-73850000D03*
G04 #@! TO.P,J5,27*
G04 #@! TO.N,Net-(J5-Pad27)*
X102230000Y-76390000D03*
G04 #@! TO.P,J5,28*
G04 #@! TO.N,Net-(J5-Pad28)*
X104770000Y-76390000D03*
G04 #@! TO.P,J5,29*
G04 #@! TO.N,Net-(J5-Pad29)*
X102230000Y-78930000D03*
G04 #@! TO.P,J5,30*
G04 #@! TO.N,GND*
X104770000Y-78930000D03*
G04 #@! TO.P,J5,31*
G04 #@! TO.N,Net-(J5-Pad31)*
X102230000Y-81470000D03*
G04 #@! TO.P,J5,32*
G04 #@! TO.N,Net-(J5-Pad32)*
X104770000Y-81470000D03*
G04 #@! TO.P,J5,33*
G04 #@! TO.N,Net-(J5-Pad33)*
X102230000Y-84010000D03*
G04 #@! TO.P,J5,34*
G04 #@! TO.N,GND*
X104770000Y-84010000D03*
G04 #@! TO.P,J5,35*
G04 #@! TO.N,Net-(J5-Pad35)*
X102230000Y-86550000D03*
G04 #@! TO.P,J5,36*
G04 #@! TO.N,Net-(J5-Pad36)*
X104770000Y-86550000D03*
G04 #@! TO.P,J5,37*
G04 #@! TO.N,Net-(J5-Pad37)*
X102230000Y-89090000D03*
G04 #@! TO.P,J5,38*
G04 #@! TO.N,Net-(J5-Pad38)*
X104770000Y-89090000D03*
G04 #@! TO.P,J5,39*
G04 #@! TO.N,GND*
X102230000Y-91630000D03*
G04 #@! TO.P,J5,40*
G04 #@! TO.N,Net-(J5-Pad40)*
X104770000Y-91630000D03*
G04 #@! TD*
D12*
G04 #@! TO.P,J1,1*
G04 #@! TO.N,GND*
X112730000Y-53214380D03*
G04 #@! TO.P,J1,2*
G04 #@! TO.N,/Servo1*
X115270000Y-53214380D03*
G04 #@! TD*
G04 #@! TO.P,J2,1*
G04 #@! TO.N,GND*
X115270000Y-81774380D03*
G04 #@! TO.P,J2,2*
G04 #@! TO.N,/Servo2*
X112730000Y-81774380D03*
G04 #@! TD*
D13*
G04 #@! TO.P,P1,P4*
G04 #@! TO.N,N/C*
X151400000Y-48150000D03*
G04 #@! TO.P,P1,P3*
X151400000Y-63850000D03*
G04 #@! TO.P,P1,P1*
X146500000Y-48750000D03*
G04 #@! TO.P,P1,P2*
X146500000Y-63250000D03*
G04 #@! TD*
G04 #@! TO.P,P2,P4*
G04 #@! TO.N,N/C*
X151400000Y-71150000D03*
G04 #@! TO.P,P2,P3*
X151400000Y-86850000D03*
G04 #@! TO.P,P2,P1*
X146500000Y-71750000D03*
G04 #@! TO.P,P2,P2*
X146500000Y-86250000D03*
G04 #@! TD*
D14*
G04 #@! TO.N,*
X103500000Y-38500000D03*
X152500000Y-38500000D03*
X152500000Y-96500000D03*
X103500000Y-96500000D03*
D15*
G04 #@! TO.N,GND*
X136580460Y-48394380D03*
X143507460Y-83812380D03*
X147571460Y-79240380D03*
X147571460Y-77716380D03*
X147571460Y-76192380D03*
X147571460Y-74668380D03*
X147317460Y-51808380D03*
X147317460Y-53205380D03*
X147317460Y-54729380D03*
X142872460Y-56761380D03*
X147825460Y-59936380D03*
X139730460Y-44144380D03*
X127190460Y-52954380D03*
X130150460Y-51394380D03*
X133280460Y-49894380D03*
X131930460Y-76894380D03*
X134930460Y-78594380D03*
X137630460Y-80394380D03*
X126030460Y-37294380D03*
X123080460Y-37294380D03*
X120480460Y-40094380D03*
X120430460Y-41894380D03*
X120380460Y-43994380D03*
X121930460Y-45294380D03*
X121430460Y-38294380D03*
X131980460Y-37344380D03*
X129030460Y-37344380D03*
X138530460Y-38244380D03*
X139730460Y-39544380D03*
X139730460Y-41794380D03*
X134630460Y-37344380D03*
X136780460Y-37344380D03*
X144280460Y-48694380D03*
X131880460Y-42094380D03*
X129030460Y-42194380D03*
X126030460Y-42144380D03*
X111105460Y-58444380D03*
X111155460Y-56494380D03*
X117055460Y-78244380D03*
X117080460Y-81844380D03*
X117005460Y-76144380D03*
X121480460Y-96594380D03*
X120580460Y-94494380D03*
X120530460Y-92344380D03*
X121980460Y-89994380D03*
X123480460Y-91244380D03*
X123480460Y-92894380D03*
X127980460Y-92944380D03*
X130980460Y-92994380D03*
X133980460Y-93044380D03*
X137430460Y-89844380D03*
X120630460Y-90644380D03*
X142680460Y-82794380D03*
X125680460Y-92944380D03*
X142430460Y-60744380D03*
X128430460Y-74394380D03*
X109380460Y-49394380D03*
X109230460Y-53544380D03*
X112830460Y-98394380D03*
X142880460Y-96094380D03*
X152130460Y-91194380D03*
X154230460Y-88844380D03*
X108530460Y-94694380D03*
X108030460Y-41344380D03*
X111030460Y-37244380D03*
X145680460Y-37544380D03*
X147880460Y-41644380D03*
X153130460Y-43844380D03*
X115180460Y-70394380D03*
X108580460Y-70294380D03*
X119630460Y-74194380D03*
X115080460Y-64944380D03*
X109930460Y-64994380D03*
X120030460Y-61144380D03*
X124230460Y-74194380D03*
X143580460Y-65694380D03*
X143630460Y-67994380D03*
X154130460Y-67144380D03*
X154030460Y-55694380D03*
X154180460Y-78744380D03*
X108430460Y-76344380D03*
X117230460Y-37044380D03*
X123630460Y-55944380D03*
X143430460Y-89644380D03*
X127480460Y-83894380D03*
X147780460Y-97994380D03*
G04 #@! TO.N,/Servo2*
X147571460Y-81750000D03*
X149603460Y-91940380D03*
G04 #@! TD*
D16*
G04 #@! TO.N,/Servo2*
X147571460Y-81750000D02*
X148303080Y-81750000D01*
X148303080Y-81750000D02*
X149603460Y-83050380D01*
X149603460Y-83050380D02*
X149603460Y-91940380D01*
G04 #@! TD*
D17*
G04 #@! TO.N,GND*
G36*
X149333620Y-36384292D02*
X148765000Y-37757062D01*
X148765000Y-39242938D01*
X149333620Y-40615708D01*
X150384292Y-41666380D01*
X151757062Y-42235000D01*
X153242938Y-42235000D01*
X154615708Y-41666380D01*
X155315000Y-40967088D01*
X155315001Y-94032913D01*
X154615708Y-93333620D01*
X153242938Y-92765000D01*
X151757062Y-92765000D01*
X150384292Y-93333620D01*
X149333620Y-94384292D01*
X148765000Y-95757062D01*
X148765000Y-97242938D01*
X149333620Y-98615708D01*
X150032912Y-99315000D01*
X105967088Y-99315000D01*
X106666380Y-98615708D01*
X107235000Y-97242938D01*
X107235000Y-95757062D01*
X106666380Y-94384292D01*
X105615708Y-93333620D01*
X105032223Y-93091933D01*
X105349418Y-93028839D01*
X105840625Y-92700625D01*
X106168839Y-92209418D01*
X106284092Y-91630000D01*
X106168839Y-91050582D01*
X105840625Y-90559375D01*
X105542239Y-90360000D01*
X105840625Y-90160625D01*
X106168839Y-89669418D01*
X106284092Y-89090000D01*
X106168839Y-88510582D01*
X105840625Y-88019375D01*
X105542239Y-87820000D01*
X105840625Y-87620625D01*
X106168839Y-87129418D01*
X106284092Y-86550000D01*
X106168839Y-85970582D01*
X106141557Y-85929751D01*
X144890000Y-85929751D01*
X144890000Y-86570249D01*
X145135108Y-87161992D01*
X145588008Y-87614892D01*
X146179751Y-87860000D01*
X146820249Y-87860000D01*
X147411992Y-87614892D01*
X147864892Y-87161992D01*
X148110000Y-86570249D01*
X148110000Y-85929751D01*
X147864892Y-85338008D01*
X147411992Y-84885108D01*
X146820249Y-84640000D01*
X146179751Y-84640000D01*
X145588008Y-84885108D01*
X145135108Y-85338008D01*
X144890000Y-85929751D01*
X106141557Y-85929751D01*
X105840625Y-85479375D01*
X105521522Y-85266157D01*
X105651358Y-85205183D01*
X106041645Y-84776924D01*
X106211476Y-84366890D01*
X106090155Y-84137000D01*
X104897000Y-84137000D01*
X104897000Y-84157000D01*
X104643000Y-84157000D01*
X104643000Y-84137000D01*
X104623000Y-84137000D01*
X104623000Y-83883000D01*
X104643000Y-83883000D01*
X104643000Y-83863000D01*
X104897000Y-83863000D01*
X104897000Y-83883000D01*
X106090155Y-83883000D01*
X106211476Y-83653110D01*
X106041645Y-83243076D01*
X105651358Y-82814817D01*
X105521522Y-82753843D01*
X105840625Y-82540625D01*
X106168839Y-82049418D01*
X106284092Y-81470000D01*
X106168839Y-80890582D01*
X106116340Y-80812011D01*
X111275850Y-80812011D01*
X111275850Y-82736748D01*
X111360221Y-83160910D01*
X111681617Y-83641912D01*
X112162619Y-83963309D01*
X112730000Y-84076168D01*
X113297380Y-83963309D01*
X113778382Y-83641913D01*
X114004344Y-83303739D01*
X114331563Y-83711572D01*
X114830853Y-83985590D01*
X114917954Y-84004422D01*
X115143000Y-83882689D01*
X115143000Y-81901380D01*
X115397000Y-81901380D01*
X115397000Y-83882689D01*
X115622046Y-84004422D01*
X115709147Y-83985590D01*
X116208437Y-83711572D01*
X116564859Y-83267342D01*
X116724150Y-82720530D01*
X116724150Y-81901380D01*
X115397000Y-81901380D01*
X115143000Y-81901380D01*
X115123000Y-81901380D01*
X115123000Y-81647380D01*
X115143000Y-81647380D01*
X115143000Y-79666071D01*
X115397000Y-79666071D01*
X115397000Y-81647380D01*
X116724150Y-81647380D01*
X116724150Y-81544126D01*
X146536460Y-81544126D01*
X146536460Y-81955874D01*
X146694029Y-82336280D01*
X146985180Y-82627431D01*
X147365586Y-82785000D01*
X147777334Y-82785000D01*
X148120949Y-82642670D01*
X148843460Y-83365182D01*
X148843461Y-91236668D01*
X148726029Y-91354100D01*
X148568460Y-91734506D01*
X148568460Y-92146254D01*
X148726029Y-92526660D01*
X149017180Y-92817811D01*
X149397586Y-92975380D01*
X149809334Y-92975380D01*
X150189740Y-92817811D01*
X150480891Y-92526660D01*
X150638460Y-92146254D01*
X150638460Y-91734506D01*
X150480891Y-91354100D01*
X150363460Y-91236669D01*
X150363460Y-88090344D01*
X150488008Y-88214892D01*
X151079751Y-88460000D01*
X151720249Y-88460000D01*
X152311992Y-88214892D01*
X152764892Y-87761992D01*
X153010000Y-87170249D01*
X153010000Y-86529751D01*
X152764892Y-85938008D01*
X152311992Y-85485108D01*
X151720249Y-85240000D01*
X151079751Y-85240000D01*
X150488008Y-85485108D01*
X150363460Y-85609656D01*
X150363460Y-83125226D01*
X150378348Y-83050379D01*
X150363460Y-82975532D01*
X150363460Y-82975528D01*
X150319364Y-82753843D01*
X150151389Y-82502451D01*
X150087933Y-82460051D01*
X148893411Y-81265530D01*
X148851009Y-81202071D01*
X148599617Y-81034096D01*
X148377932Y-80990000D01*
X148377927Y-80990000D01*
X148303080Y-80975112D01*
X148267383Y-80982212D01*
X148157740Y-80872569D01*
X147777334Y-80715000D01*
X147365586Y-80715000D01*
X146985180Y-80872569D01*
X146694029Y-81163720D01*
X146536460Y-81544126D01*
X116724150Y-81544126D01*
X116724150Y-80828230D01*
X116564859Y-80281418D01*
X116208437Y-79837188D01*
X115709147Y-79563170D01*
X115622046Y-79544338D01*
X115397000Y-79666071D01*
X115143000Y-79666071D01*
X114917954Y-79544338D01*
X114830853Y-79563170D01*
X114331563Y-79837188D01*
X114004344Y-80245021D01*
X113778383Y-79906847D01*
X113297381Y-79585451D01*
X112730000Y-79472592D01*
X112162620Y-79585451D01*
X111681618Y-79906847D01*
X111360222Y-80387849D01*
X111275850Y-80812011D01*
X106116340Y-80812011D01*
X105840625Y-80399375D01*
X105521522Y-80186157D01*
X105651358Y-80125183D01*
X106041645Y-79696924D01*
X106211476Y-79286890D01*
X106090155Y-79057000D01*
X104897000Y-79057000D01*
X104897000Y-79077000D01*
X104643000Y-79077000D01*
X104643000Y-79057000D01*
X104623000Y-79057000D01*
X104623000Y-78803000D01*
X104643000Y-78803000D01*
X104643000Y-78783000D01*
X104897000Y-78783000D01*
X104897000Y-78803000D01*
X106090155Y-78803000D01*
X106211476Y-78573110D01*
X106041645Y-78163076D01*
X105651358Y-77734817D01*
X105521522Y-77673843D01*
X105840625Y-77460625D01*
X106168839Y-76969418D01*
X106284092Y-76390000D01*
X106168839Y-75810582D01*
X105840625Y-75319375D01*
X105542239Y-75120000D01*
X105840625Y-74920625D01*
X106168839Y-74429418D01*
X106284092Y-73850000D01*
X106168839Y-73270582D01*
X105840625Y-72779375D01*
X105542239Y-72580000D01*
X105840625Y-72380625D01*
X106168839Y-71889418D01*
X106260272Y-71429751D01*
X144890000Y-71429751D01*
X144890000Y-72070249D01*
X145135108Y-72661992D01*
X145588008Y-73114892D01*
X146179751Y-73360000D01*
X146820249Y-73360000D01*
X147411992Y-73114892D01*
X147864892Y-72661992D01*
X148110000Y-72070249D01*
X148110000Y-71429751D01*
X147864892Y-70838008D01*
X147856635Y-70829751D01*
X149790000Y-70829751D01*
X149790000Y-71470249D01*
X150035108Y-72061992D01*
X150488008Y-72514892D01*
X151079751Y-72760000D01*
X151720249Y-72760000D01*
X152311992Y-72514892D01*
X152764892Y-72061992D01*
X153010000Y-71470249D01*
X153010000Y-70829751D01*
X152764892Y-70238008D01*
X152311992Y-69785108D01*
X151720249Y-69540000D01*
X151079751Y-69540000D01*
X150488008Y-69785108D01*
X150035108Y-70238008D01*
X149790000Y-70829751D01*
X147856635Y-70829751D01*
X147411992Y-70385108D01*
X146820249Y-70140000D01*
X146179751Y-70140000D01*
X145588008Y-70385108D01*
X145135108Y-70838008D01*
X144890000Y-71429751D01*
X106260272Y-71429751D01*
X106284092Y-71310000D01*
X106168839Y-70730582D01*
X105840625Y-70239375D01*
X105542239Y-70040000D01*
X105840625Y-69840625D01*
X106168839Y-69349418D01*
X106284092Y-68770000D01*
X106168839Y-68190582D01*
X105840625Y-67699375D01*
X105521522Y-67486157D01*
X105651358Y-67425183D01*
X105692371Y-67380179D01*
X118746164Y-67380179D01*
X118789187Y-68073668D01*
X118795761Y-68110206D01*
X118797768Y-68147259D01*
X118817282Y-68229813D01*
X119018689Y-68894806D01*
X119033489Y-68928844D01*
X119043968Y-68964448D01*
X119081951Y-69040299D01*
X119430937Y-69641122D01*
X119453171Y-69670843D01*
X119471560Y-69703082D01*
X119525973Y-69768160D01*
X120003818Y-70272584D01*
X120032295Y-70296394D01*
X120057604Y-70323535D01*
X120125530Y-70374351D01*
X120706602Y-70755319D01*
X120739793Y-70771940D01*
X120770667Y-70792530D01*
X120848461Y-70826357D01*
X121501589Y-71063431D01*
X121537715Y-71071971D01*
X121572497Y-71084906D01*
X121655964Y-71099924D01*
X121655985Y-71099929D01*
X121655995Y-71099929D01*
X122318813Y-71177206D01*
X122357998Y-71185000D01*
X138494922Y-71185000D01*
X138515875Y-71180832D01*
X138840679Y-71160682D01*
X138858992Y-71157387D01*
X138877590Y-71157387D01*
X138961079Y-71142365D01*
X139635991Y-70977215D01*
X139670781Y-70964277D01*
X139706898Y-70955739D01*
X139784692Y-70921914D01*
X140403509Y-70605930D01*
X140434390Y-70585335D01*
X140467573Y-70568718D01*
X140535491Y-70517909D01*
X140535500Y-70517903D01*
X140535504Y-70517899D01*
X141065028Y-70068036D01*
X141090345Y-70040887D01*
X141118813Y-70017084D01*
X141173218Y-69952016D01*
X141173228Y-69952006D01*
X141173231Y-69952000D01*
X141585061Y-69392387D01*
X141603450Y-69360148D01*
X141625684Y-69330427D01*
X141663663Y-69254585D01*
X141663667Y-69254578D01*
X141663668Y-69254575D01*
X141935714Y-68615225D01*
X141946194Y-68579616D01*
X141960992Y-68545583D01*
X141980508Y-68463028D01*
X142098176Y-67778240D01*
X142100183Y-67741175D01*
X142106755Y-67704651D01*
X142106756Y-67619821D01*
X142063733Y-66926331D01*
X142057159Y-66889793D01*
X142055152Y-66852741D01*
X142035638Y-66770187D01*
X141834231Y-66105194D01*
X141819431Y-66071156D01*
X141808952Y-66035552D01*
X141770969Y-65959701D01*
X141421983Y-65358877D01*
X141399747Y-65329153D01*
X141381360Y-65296918D01*
X141326946Y-65231839D01*
X140849102Y-64727416D01*
X140820625Y-64703606D01*
X140795316Y-64676465D01*
X140727391Y-64625649D01*
X140146318Y-64244681D01*
X140113126Y-64228060D01*
X140082253Y-64207470D01*
X140004467Y-64173646D01*
X140004460Y-64173643D01*
X140004457Y-64173642D01*
X139351331Y-63936569D01*
X139315207Y-63928030D01*
X139280424Y-63915094D01*
X139196953Y-63900075D01*
X139196935Y-63900071D01*
X139196926Y-63900071D01*
X138534107Y-63822794D01*
X138494922Y-63815000D01*
X122357998Y-63815000D01*
X122337045Y-63819168D01*
X122012241Y-63839318D01*
X121993928Y-63842613D01*
X121975330Y-63842613D01*
X121891841Y-63857635D01*
X121216929Y-64022785D01*
X121182139Y-64035723D01*
X121146022Y-64044261D01*
X121068228Y-64078086D01*
X120449411Y-64394070D01*
X120418530Y-64414665D01*
X120385347Y-64431282D01*
X120317429Y-64482091D01*
X120317420Y-64482097D01*
X120317416Y-64482101D01*
X119787893Y-64931964D01*
X119762579Y-64959110D01*
X119734107Y-64982916D01*
X119679692Y-65047994D01*
X119267859Y-65607613D01*
X119249470Y-65639852D01*
X119227236Y-65669573D01*
X119189261Y-65745408D01*
X119189253Y-65745422D01*
X119189251Y-65745428D01*
X118917206Y-66384775D01*
X118906726Y-66420384D01*
X118891928Y-66454417D01*
X118872412Y-66536972D01*
X118754744Y-67221760D01*
X118752737Y-67258825D01*
X118746165Y-67295349D01*
X118746164Y-67380179D01*
X105692371Y-67380179D01*
X106041645Y-66996924D01*
X106211476Y-66586890D01*
X106090155Y-66357000D01*
X104897000Y-66357000D01*
X104897000Y-66377000D01*
X104643000Y-66377000D01*
X104643000Y-66357000D01*
X104623000Y-66357000D01*
X104623000Y-66103000D01*
X104643000Y-66103000D01*
X104643000Y-66083000D01*
X104897000Y-66083000D01*
X104897000Y-66103000D01*
X106090155Y-66103000D01*
X106211476Y-65873110D01*
X106041645Y-65463076D01*
X105651358Y-65034817D01*
X105521522Y-64973843D01*
X105840625Y-64760625D01*
X106168839Y-64269418D01*
X106284092Y-63690000D01*
X106168839Y-63110582D01*
X106048012Y-62929751D01*
X144890000Y-62929751D01*
X144890000Y-63570249D01*
X145135108Y-64161992D01*
X145588008Y-64614892D01*
X146179751Y-64860000D01*
X146820249Y-64860000D01*
X147411992Y-64614892D01*
X147864892Y-64161992D01*
X148110000Y-63570249D01*
X148110000Y-63529751D01*
X149790000Y-63529751D01*
X149790000Y-64170249D01*
X150035108Y-64761992D01*
X150488008Y-65214892D01*
X151079751Y-65460000D01*
X151720249Y-65460000D01*
X152311992Y-65214892D01*
X152764892Y-64761992D01*
X153010000Y-64170249D01*
X153010000Y-63529751D01*
X152764892Y-62938008D01*
X152311992Y-62485108D01*
X151720249Y-62240000D01*
X151079751Y-62240000D01*
X150488008Y-62485108D01*
X150035108Y-62938008D01*
X149790000Y-63529751D01*
X148110000Y-63529751D01*
X148110000Y-62929751D01*
X147864892Y-62338008D01*
X147411992Y-61885108D01*
X146820249Y-61640000D01*
X146179751Y-61640000D01*
X145588008Y-61885108D01*
X145135108Y-62338008D01*
X144890000Y-62929751D01*
X106048012Y-62929751D01*
X105840625Y-62619375D01*
X105542239Y-62420000D01*
X105840625Y-62220625D01*
X106168839Y-61729418D01*
X106284092Y-61150000D01*
X106168839Y-60570582D01*
X105840625Y-60079375D01*
X105521522Y-59866157D01*
X105651358Y-59805183D01*
X106041645Y-59376924D01*
X106211476Y-58966890D01*
X106090155Y-58737000D01*
X104897000Y-58737000D01*
X104897000Y-58757000D01*
X104643000Y-58757000D01*
X104643000Y-58737000D01*
X104623000Y-58737000D01*
X104623000Y-58483000D01*
X104643000Y-58483000D01*
X104643000Y-58463000D01*
X104897000Y-58463000D01*
X104897000Y-58483000D01*
X106090155Y-58483000D01*
X106211476Y-58253110D01*
X106041645Y-57843076D01*
X105651358Y-57414817D01*
X105521522Y-57353843D01*
X105840625Y-57140625D01*
X106168839Y-56649418D01*
X106284092Y-56070000D01*
X106168839Y-55490582D01*
X105840625Y-54999375D01*
X105542239Y-54800000D01*
X105840625Y-54600625D01*
X106168839Y-54109418D01*
X106284092Y-53530000D01*
X106246574Y-53341380D01*
X111275850Y-53341380D01*
X111275850Y-54160530D01*
X111435141Y-54707342D01*
X111791563Y-55151572D01*
X112290853Y-55425590D01*
X112377954Y-55444422D01*
X112603000Y-55322689D01*
X112603000Y-53341380D01*
X111275850Y-53341380D01*
X106246574Y-53341380D01*
X106168839Y-52950582D01*
X105840625Y-52459375D01*
X105554557Y-52268230D01*
X111275850Y-52268230D01*
X111275850Y-53087380D01*
X112603000Y-53087380D01*
X112603000Y-51106071D01*
X112857000Y-51106071D01*
X112857000Y-53087380D01*
X112877000Y-53087380D01*
X112877000Y-53341380D01*
X112857000Y-53341380D01*
X112857000Y-55322689D01*
X113082046Y-55444422D01*
X113169147Y-55425590D01*
X113668437Y-55151572D01*
X113995657Y-54743739D01*
X114221618Y-55081913D01*
X114702620Y-55403309D01*
X115270000Y-55516168D01*
X115837381Y-55403309D01*
X116318383Y-55081913D01*
X116639779Y-54600911D01*
X116724150Y-54176749D01*
X116724150Y-52252011D01*
X116639779Y-51827849D01*
X116318382Y-51346847D01*
X115837380Y-51025451D01*
X115270000Y-50912592D01*
X114702619Y-51025451D01*
X114221617Y-51346848D01*
X113995656Y-51685021D01*
X113668437Y-51277188D01*
X113169147Y-51003170D01*
X113082046Y-50984338D01*
X112857000Y-51106071D01*
X112603000Y-51106071D01*
X112377954Y-50984338D01*
X112290853Y-51003170D01*
X111791563Y-51277188D01*
X111435141Y-51721418D01*
X111275850Y-52268230D01*
X105554557Y-52268230D01*
X105542239Y-52260000D01*
X105840625Y-52060625D01*
X106168839Y-51569418D01*
X106284092Y-50990000D01*
X106168839Y-50410582D01*
X105840625Y-49919375D01*
X105521522Y-49706157D01*
X105651358Y-49645183D01*
X106041645Y-49216924D01*
X106211476Y-48806890D01*
X106090155Y-48577000D01*
X104897000Y-48577000D01*
X104897000Y-48597000D01*
X104643000Y-48597000D01*
X104643000Y-48577000D01*
X104623000Y-48577000D01*
X104623000Y-48429751D01*
X144890000Y-48429751D01*
X144890000Y-49070249D01*
X145135108Y-49661992D01*
X145588008Y-50114892D01*
X146179751Y-50360000D01*
X146820249Y-50360000D01*
X147411992Y-50114892D01*
X147864892Y-49661992D01*
X148110000Y-49070249D01*
X148110000Y-48429751D01*
X147864892Y-47838008D01*
X147856635Y-47829751D01*
X149790000Y-47829751D01*
X149790000Y-48470249D01*
X150035108Y-49061992D01*
X150488008Y-49514892D01*
X151079751Y-49760000D01*
X151720249Y-49760000D01*
X152311992Y-49514892D01*
X152764892Y-49061992D01*
X153010000Y-48470249D01*
X153010000Y-47829751D01*
X152764892Y-47238008D01*
X152311992Y-46785108D01*
X151720249Y-46540000D01*
X151079751Y-46540000D01*
X150488008Y-46785108D01*
X150035108Y-47238008D01*
X149790000Y-47829751D01*
X147856635Y-47829751D01*
X147411992Y-47385108D01*
X146820249Y-47140000D01*
X146179751Y-47140000D01*
X145588008Y-47385108D01*
X145135108Y-47838008D01*
X144890000Y-48429751D01*
X104623000Y-48429751D01*
X104623000Y-48323000D01*
X104643000Y-48323000D01*
X104643000Y-48303000D01*
X104897000Y-48303000D01*
X104897000Y-48323000D01*
X106090155Y-48323000D01*
X106211476Y-48093110D01*
X106041645Y-47683076D01*
X105651358Y-47254817D01*
X105521522Y-47193843D01*
X105840625Y-46980625D01*
X106168839Y-46489418D01*
X106284092Y-45910000D01*
X106168839Y-45330582D01*
X105840625Y-44839375D01*
X105542239Y-44640000D01*
X105840625Y-44440625D01*
X106168839Y-43949418D01*
X106284092Y-43370000D01*
X106168839Y-42790582D01*
X105840625Y-42299375D01*
X105349418Y-41971161D01*
X105032223Y-41908067D01*
X105615708Y-41666380D01*
X106666380Y-40615708D01*
X107235000Y-39242938D01*
X107235000Y-37757062D01*
X106666380Y-36384292D01*
X105967088Y-35685000D01*
X150032912Y-35685000D01*
X149333620Y-36384292D01*
X149333620Y-36384292D01*
G37*
X149333620Y-36384292D02*
X148765000Y-37757062D01*
X148765000Y-39242938D01*
X149333620Y-40615708D01*
X150384292Y-41666380D01*
X151757062Y-42235000D01*
X153242938Y-42235000D01*
X154615708Y-41666380D01*
X155315000Y-40967088D01*
X155315001Y-94032913D01*
X154615708Y-93333620D01*
X153242938Y-92765000D01*
X151757062Y-92765000D01*
X150384292Y-93333620D01*
X149333620Y-94384292D01*
X148765000Y-95757062D01*
X148765000Y-97242938D01*
X149333620Y-98615708D01*
X150032912Y-99315000D01*
X105967088Y-99315000D01*
X106666380Y-98615708D01*
X107235000Y-97242938D01*
X107235000Y-95757062D01*
X106666380Y-94384292D01*
X105615708Y-93333620D01*
X105032223Y-93091933D01*
X105349418Y-93028839D01*
X105840625Y-92700625D01*
X106168839Y-92209418D01*
X106284092Y-91630000D01*
X106168839Y-91050582D01*
X105840625Y-90559375D01*
X105542239Y-90360000D01*
X105840625Y-90160625D01*
X106168839Y-89669418D01*
X106284092Y-89090000D01*
X106168839Y-88510582D01*
X105840625Y-88019375D01*
X105542239Y-87820000D01*
X105840625Y-87620625D01*
X106168839Y-87129418D01*
X106284092Y-86550000D01*
X106168839Y-85970582D01*
X106141557Y-85929751D01*
X144890000Y-85929751D01*
X144890000Y-86570249D01*
X145135108Y-87161992D01*
X145588008Y-87614892D01*
X146179751Y-87860000D01*
X146820249Y-87860000D01*
X147411992Y-87614892D01*
X147864892Y-87161992D01*
X148110000Y-86570249D01*
X148110000Y-85929751D01*
X147864892Y-85338008D01*
X147411992Y-84885108D01*
X146820249Y-84640000D01*
X146179751Y-84640000D01*
X145588008Y-84885108D01*
X145135108Y-85338008D01*
X144890000Y-85929751D01*
X106141557Y-85929751D01*
X105840625Y-85479375D01*
X105521522Y-85266157D01*
X105651358Y-85205183D01*
X106041645Y-84776924D01*
X106211476Y-84366890D01*
X106090155Y-84137000D01*
X104897000Y-84137000D01*
X104897000Y-84157000D01*
X104643000Y-84157000D01*
X104643000Y-84137000D01*
X104623000Y-84137000D01*
X104623000Y-83883000D01*
X104643000Y-83883000D01*
X104643000Y-83863000D01*
X104897000Y-83863000D01*
X104897000Y-83883000D01*
X106090155Y-83883000D01*
X106211476Y-83653110D01*
X106041645Y-83243076D01*
X105651358Y-82814817D01*
X105521522Y-82753843D01*
X105840625Y-82540625D01*
X106168839Y-82049418D01*
X106284092Y-81470000D01*
X106168839Y-80890582D01*
X106116340Y-80812011D01*
X111275850Y-80812011D01*
X111275850Y-82736748D01*
X111360221Y-83160910D01*
X111681617Y-83641912D01*
X112162619Y-83963309D01*
X112730000Y-84076168D01*
X113297380Y-83963309D01*
X113778382Y-83641913D01*
X114004344Y-83303739D01*
X114331563Y-83711572D01*
X114830853Y-83985590D01*
X114917954Y-84004422D01*
X115143000Y-83882689D01*
X115143000Y-81901380D01*
X115397000Y-81901380D01*
X115397000Y-83882689D01*
X115622046Y-84004422D01*
X115709147Y-83985590D01*
X116208437Y-83711572D01*
X116564859Y-83267342D01*
X116724150Y-82720530D01*
X116724150Y-81901380D01*
X115397000Y-81901380D01*
X115143000Y-81901380D01*
X115123000Y-81901380D01*
X115123000Y-81647380D01*
X115143000Y-81647380D01*
X115143000Y-79666071D01*
X115397000Y-79666071D01*
X115397000Y-81647380D01*
X116724150Y-81647380D01*
X116724150Y-81544126D01*
X146536460Y-81544126D01*
X146536460Y-81955874D01*
X146694029Y-82336280D01*
X146985180Y-82627431D01*
X147365586Y-82785000D01*
X147777334Y-82785000D01*
X148120949Y-82642670D01*
X148843460Y-83365182D01*
X148843461Y-91236668D01*
X148726029Y-91354100D01*
X148568460Y-91734506D01*
X148568460Y-92146254D01*
X148726029Y-92526660D01*
X149017180Y-92817811D01*
X149397586Y-92975380D01*
X149809334Y-92975380D01*
X150189740Y-92817811D01*
X150480891Y-92526660D01*
X150638460Y-92146254D01*
X150638460Y-91734506D01*
X150480891Y-91354100D01*
X150363460Y-91236669D01*
X150363460Y-88090344D01*
X150488008Y-88214892D01*
X151079751Y-88460000D01*
X151720249Y-88460000D01*
X152311992Y-88214892D01*
X152764892Y-87761992D01*
X153010000Y-87170249D01*
X153010000Y-86529751D01*
X152764892Y-85938008D01*
X152311992Y-85485108D01*
X151720249Y-85240000D01*
X151079751Y-85240000D01*
X150488008Y-85485108D01*
X150363460Y-85609656D01*
X150363460Y-83125226D01*
X150378348Y-83050379D01*
X150363460Y-82975532D01*
X150363460Y-82975528D01*
X150319364Y-82753843D01*
X150151389Y-82502451D01*
X150087933Y-82460051D01*
X148893411Y-81265530D01*
X148851009Y-81202071D01*
X148599617Y-81034096D01*
X148377932Y-80990000D01*
X148377927Y-80990000D01*
X148303080Y-80975112D01*
X148267383Y-80982212D01*
X148157740Y-80872569D01*
X147777334Y-80715000D01*
X147365586Y-80715000D01*
X146985180Y-80872569D01*
X146694029Y-81163720D01*
X146536460Y-81544126D01*
X116724150Y-81544126D01*
X116724150Y-80828230D01*
X116564859Y-80281418D01*
X116208437Y-79837188D01*
X115709147Y-79563170D01*
X115622046Y-79544338D01*
X115397000Y-79666071D01*
X115143000Y-79666071D01*
X114917954Y-79544338D01*
X114830853Y-79563170D01*
X114331563Y-79837188D01*
X114004344Y-80245021D01*
X113778383Y-79906847D01*
X113297381Y-79585451D01*
X112730000Y-79472592D01*
X112162620Y-79585451D01*
X111681618Y-79906847D01*
X111360222Y-80387849D01*
X111275850Y-80812011D01*
X106116340Y-80812011D01*
X105840625Y-80399375D01*
X105521522Y-80186157D01*
X105651358Y-80125183D01*
X106041645Y-79696924D01*
X106211476Y-79286890D01*
X106090155Y-79057000D01*
X104897000Y-79057000D01*
X104897000Y-79077000D01*
X104643000Y-79077000D01*
X104643000Y-79057000D01*
X104623000Y-79057000D01*
X104623000Y-78803000D01*
X104643000Y-78803000D01*
X104643000Y-78783000D01*
X104897000Y-78783000D01*
X104897000Y-78803000D01*
X106090155Y-78803000D01*
X106211476Y-78573110D01*
X106041645Y-78163076D01*
X105651358Y-77734817D01*
X105521522Y-77673843D01*
X105840625Y-77460625D01*
X106168839Y-76969418D01*
X106284092Y-76390000D01*
X106168839Y-75810582D01*
X105840625Y-75319375D01*
X105542239Y-75120000D01*
X105840625Y-74920625D01*
X106168839Y-74429418D01*
X106284092Y-73850000D01*
X106168839Y-73270582D01*
X105840625Y-72779375D01*
X105542239Y-72580000D01*
X105840625Y-72380625D01*
X106168839Y-71889418D01*
X106260272Y-71429751D01*
X144890000Y-71429751D01*
X144890000Y-72070249D01*
X145135108Y-72661992D01*
X145588008Y-73114892D01*
X146179751Y-73360000D01*
X146820249Y-73360000D01*
X147411992Y-73114892D01*
X147864892Y-72661992D01*
X148110000Y-72070249D01*
X148110000Y-71429751D01*
X147864892Y-70838008D01*
X147856635Y-70829751D01*
X149790000Y-70829751D01*
X149790000Y-71470249D01*
X150035108Y-72061992D01*
X150488008Y-72514892D01*
X151079751Y-72760000D01*
X151720249Y-72760000D01*
X152311992Y-72514892D01*
X152764892Y-72061992D01*
X153010000Y-71470249D01*
X153010000Y-70829751D01*
X152764892Y-70238008D01*
X152311992Y-69785108D01*
X151720249Y-69540000D01*
X151079751Y-69540000D01*
X150488008Y-69785108D01*
X150035108Y-70238008D01*
X149790000Y-70829751D01*
X147856635Y-70829751D01*
X147411992Y-70385108D01*
X146820249Y-70140000D01*
X146179751Y-70140000D01*
X145588008Y-70385108D01*
X145135108Y-70838008D01*
X144890000Y-71429751D01*
X106260272Y-71429751D01*
X106284092Y-71310000D01*
X106168839Y-70730582D01*
X105840625Y-70239375D01*
X105542239Y-70040000D01*
X105840625Y-69840625D01*
X106168839Y-69349418D01*
X106284092Y-68770000D01*
X106168839Y-68190582D01*
X105840625Y-67699375D01*
X105521522Y-67486157D01*
X105651358Y-67425183D01*
X105692371Y-67380179D01*
X118746164Y-67380179D01*
X118789187Y-68073668D01*
X118795761Y-68110206D01*
X118797768Y-68147259D01*
X118817282Y-68229813D01*
X119018689Y-68894806D01*
X119033489Y-68928844D01*
X119043968Y-68964448D01*
X119081951Y-69040299D01*
X119430937Y-69641122D01*
X119453171Y-69670843D01*
X119471560Y-69703082D01*
X119525973Y-69768160D01*
X120003818Y-70272584D01*
X120032295Y-70296394D01*
X120057604Y-70323535D01*
X120125530Y-70374351D01*
X120706602Y-70755319D01*
X120739793Y-70771940D01*
X120770667Y-70792530D01*
X120848461Y-70826357D01*
X121501589Y-71063431D01*
X121537715Y-71071971D01*
X121572497Y-71084906D01*
X121655964Y-71099924D01*
X121655985Y-71099929D01*
X121655995Y-71099929D01*
X122318813Y-71177206D01*
X122357998Y-71185000D01*
X138494922Y-71185000D01*
X138515875Y-71180832D01*
X138840679Y-71160682D01*
X138858992Y-71157387D01*
X138877590Y-71157387D01*
X138961079Y-71142365D01*
X139635991Y-70977215D01*
X139670781Y-70964277D01*
X139706898Y-70955739D01*
X139784692Y-70921914D01*
X140403509Y-70605930D01*
X140434390Y-70585335D01*
X140467573Y-70568718D01*
X140535491Y-70517909D01*
X140535500Y-70517903D01*
X140535504Y-70517899D01*
X141065028Y-70068036D01*
X141090345Y-70040887D01*
X141118813Y-70017084D01*
X141173218Y-69952016D01*
X141173228Y-69952006D01*
X141173231Y-69952000D01*
X141585061Y-69392387D01*
X141603450Y-69360148D01*
X141625684Y-69330427D01*
X141663663Y-69254585D01*
X141663667Y-69254578D01*
X141663668Y-69254575D01*
X141935714Y-68615225D01*
X141946194Y-68579616D01*
X141960992Y-68545583D01*
X141980508Y-68463028D01*
X142098176Y-67778240D01*
X142100183Y-67741175D01*
X142106755Y-67704651D01*
X142106756Y-67619821D01*
X142063733Y-66926331D01*
X142057159Y-66889793D01*
X142055152Y-66852741D01*
X142035638Y-66770187D01*
X141834231Y-66105194D01*
X141819431Y-66071156D01*
X141808952Y-66035552D01*
X141770969Y-65959701D01*
X141421983Y-65358877D01*
X141399747Y-65329153D01*
X141381360Y-65296918D01*
X141326946Y-65231839D01*
X140849102Y-64727416D01*
X140820625Y-64703606D01*
X140795316Y-64676465D01*
X140727391Y-64625649D01*
X140146318Y-64244681D01*
X140113126Y-64228060D01*
X140082253Y-64207470D01*
X140004467Y-64173646D01*
X140004460Y-64173643D01*
X140004457Y-64173642D01*
X139351331Y-63936569D01*
X139315207Y-63928030D01*
X139280424Y-63915094D01*
X139196953Y-63900075D01*
X139196935Y-63900071D01*
X139196926Y-63900071D01*
X138534107Y-63822794D01*
X138494922Y-63815000D01*
X122357998Y-63815000D01*
X122337045Y-63819168D01*
X122012241Y-63839318D01*
X121993928Y-63842613D01*
X121975330Y-63842613D01*
X121891841Y-63857635D01*
X121216929Y-64022785D01*
X121182139Y-64035723D01*
X121146022Y-64044261D01*
X121068228Y-64078086D01*
X120449411Y-64394070D01*
X120418530Y-64414665D01*
X120385347Y-64431282D01*
X120317429Y-64482091D01*
X120317420Y-64482097D01*
X120317416Y-64482101D01*
X119787893Y-64931964D01*
X119762579Y-64959110D01*
X119734107Y-64982916D01*
X119679692Y-65047994D01*
X119267859Y-65607613D01*
X119249470Y-65639852D01*
X119227236Y-65669573D01*
X119189261Y-65745408D01*
X119189253Y-65745422D01*
X119189251Y-65745428D01*
X118917206Y-66384775D01*
X118906726Y-66420384D01*
X118891928Y-66454417D01*
X118872412Y-66536972D01*
X118754744Y-67221760D01*
X118752737Y-67258825D01*
X118746165Y-67295349D01*
X118746164Y-67380179D01*
X105692371Y-67380179D01*
X106041645Y-66996924D01*
X106211476Y-66586890D01*
X106090155Y-66357000D01*
X104897000Y-66357000D01*
X104897000Y-66377000D01*
X104643000Y-66377000D01*
X104643000Y-66357000D01*
X104623000Y-66357000D01*
X104623000Y-66103000D01*
X104643000Y-66103000D01*
X104643000Y-66083000D01*
X104897000Y-66083000D01*
X104897000Y-66103000D01*
X106090155Y-66103000D01*
X106211476Y-65873110D01*
X106041645Y-65463076D01*
X105651358Y-65034817D01*
X105521522Y-64973843D01*
X105840625Y-64760625D01*
X106168839Y-64269418D01*
X106284092Y-63690000D01*
X106168839Y-63110582D01*
X106048012Y-62929751D01*
X144890000Y-62929751D01*
X144890000Y-63570249D01*
X145135108Y-64161992D01*
X145588008Y-64614892D01*
X146179751Y-64860000D01*
X146820249Y-64860000D01*
X147411992Y-64614892D01*
X147864892Y-64161992D01*
X148110000Y-63570249D01*
X148110000Y-63529751D01*
X149790000Y-63529751D01*
X149790000Y-64170249D01*
X150035108Y-64761992D01*
X150488008Y-65214892D01*
X151079751Y-65460000D01*
X151720249Y-65460000D01*
X152311992Y-65214892D01*
X152764892Y-64761992D01*
X153010000Y-64170249D01*
X153010000Y-63529751D01*
X152764892Y-62938008D01*
X152311992Y-62485108D01*
X151720249Y-62240000D01*
X151079751Y-62240000D01*
X150488008Y-62485108D01*
X150035108Y-62938008D01*
X149790000Y-63529751D01*
X148110000Y-63529751D01*
X148110000Y-62929751D01*
X147864892Y-62338008D01*
X147411992Y-61885108D01*
X146820249Y-61640000D01*
X146179751Y-61640000D01*
X145588008Y-61885108D01*
X145135108Y-62338008D01*
X144890000Y-62929751D01*
X106048012Y-62929751D01*
X105840625Y-62619375D01*
X105542239Y-62420000D01*
X105840625Y-62220625D01*
X106168839Y-61729418D01*
X106284092Y-61150000D01*
X106168839Y-60570582D01*
X105840625Y-60079375D01*
X105521522Y-59866157D01*
X105651358Y-59805183D01*
X106041645Y-59376924D01*
X106211476Y-58966890D01*
X106090155Y-58737000D01*
X104897000Y-58737000D01*
X104897000Y-58757000D01*
X104643000Y-58757000D01*
X104643000Y-58737000D01*
X104623000Y-58737000D01*
X104623000Y-58483000D01*
X104643000Y-58483000D01*
X104643000Y-58463000D01*
X104897000Y-58463000D01*
X104897000Y-58483000D01*
X106090155Y-58483000D01*
X106211476Y-58253110D01*
X106041645Y-57843076D01*
X105651358Y-57414817D01*
X105521522Y-57353843D01*
X105840625Y-57140625D01*
X106168839Y-56649418D01*
X106284092Y-56070000D01*
X106168839Y-55490582D01*
X105840625Y-54999375D01*
X105542239Y-54800000D01*
X105840625Y-54600625D01*
X106168839Y-54109418D01*
X106284092Y-53530000D01*
X106246574Y-53341380D01*
X111275850Y-53341380D01*
X111275850Y-54160530D01*
X111435141Y-54707342D01*
X111791563Y-55151572D01*
X112290853Y-55425590D01*
X112377954Y-55444422D01*
X112603000Y-55322689D01*
X112603000Y-53341380D01*
X111275850Y-53341380D01*
X106246574Y-53341380D01*
X106168839Y-52950582D01*
X105840625Y-52459375D01*
X105554557Y-52268230D01*
X111275850Y-52268230D01*
X111275850Y-53087380D01*
X112603000Y-53087380D01*
X112603000Y-51106071D01*
X112857000Y-51106071D01*
X112857000Y-53087380D01*
X112877000Y-53087380D01*
X112877000Y-53341380D01*
X112857000Y-53341380D01*
X112857000Y-55322689D01*
X113082046Y-55444422D01*
X113169147Y-55425590D01*
X113668437Y-55151572D01*
X113995657Y-54743739D01*
X114221618Y-55081913D01*
X114702620Y-55403309D01*
X115270000Y-55516168D01*
X115837381Y-55403309D01*
X116318383Y-55081913D01*
X116639779Y-54600911D01*
X116724150Y-54176749D01*
X116724150Y-52252011D01*
X116639779Y-51827849D01*
X116318382Y-51346847D01*
X115837380Y-51025451D01*
X115270000Y-50912592D01*
X114702619Y-51025451D01*
X114221617Y-51346848D01*
X113995656Y-51685021D01*
X113668437Y-51277188D01*
X113169147Y-51003170D01*
X113082046Y-50984338D01*
X112857000Y-51106071D01*
X112603000Y-51106071D01*
X112377954Y-50984338D01*
X112290853Y-51003170D01*
X111791563Y-51277188D01*
X111435141Y-51721418D01*
X111275850Y-52268230D01*
X105554557Y-52268230D01*
X105542239Y-52260000D01*
X105840625Y-52060625D01*
X106168839Y-51569418D01*
X106284092Y-50990000D01*
X106168839Y-50410582D01*
X105840625Y-49919375D01*
X105521522Y-49706157D01*
X105651358Y-49645183D01*
X106041645Y-49216924D01*
X106211476Y-48806890D01*
X106090155Y-48577000D01*
X104897000Y-48577000D01*
X104897000Y-48597000D01*
X104643000Y-48597000D01*
X104643000Y-48577000D01*
X104623000Y-48577000D01*
X104623000Y-48429751D01*
X144890000Y-48429751D01*
X144890000Y-49070249D01*
X145135108Y-49661992D01*
X145588008Y-50114892D01*
X146179751Y-50360000D01*
X146820249Y-50360000D01*
X147411992Y-50114892D01*
X147864892Y-49661992D01*
X148110000Y-49070249D01*
X148110000Y-48429751D01*
X147864892Y-47838008D01*
X147856635Y-47829751D01*
X149790000Y-47829751D01*
X149790000Y-48470249D01*
X150035108Y-49061992D01*
X150488008Y-49514892D01*
X151079751Y-49760000D01*
X151720249Y-49760000D01*
X152311992Y-49514892D01*
X152764892Y-49061992D01*
X153010000Y-48470249D01*
X153010000Y-47829751D01*
X152764892Y-47238008D01*
X152311992Y-46785108D01*
X151720249Y-46540000D01*
X151079751Y-46540000D01*
X150488008Y-46785108D01*
X150035108Y-47238008D01*
X149790000Y-47829751D01*
X147856635Y-47829751D01*
X147411992Y-47385108D01*
X146820249Y-47140000D01*
X146179751Y-47140000D01*
X145588008Y-47385108D01*
X145135108Y-47838008D01*
X144890000Y-48429751D01*
X104623000Y-48429751D01*
X104623000Y-48323000D01*
X104643000Y-48323000D01*
X104643000Y-48303000D01*
X104897000Y-48303000D01*
X104897000Y-48323000D01*
X106090155Y-48323000D01*
X106211476Y-48093110D01*
X106041645Y-47683076D01*
X105651358Y-47254817D01*
X105521522Y-47193843D01*
X105840625Y-46980625D01*
X106168839Y-46489418D01*
X106284092Y-45910000D01*
X106168839Y-45330582D01*
X105840625Y-44839375D01*
X105542239Y-44640000D01*
X105840625Y-44440625D01*
X106168839Y-43949418D01*
X106284092Y-43370000D01*
X106168839Y-42790582D01*
X105840625Y-42299375D01*
X105349418Y-41971161D01*
X105032223Y-41908067D01*
X105615708Y-41666380D01*
X106666380Y-40615708D01*
X107235000Y-39242938D01*
X107235000Y-37757062D01*
X106666380Y-36384292D01*
X105967088Y-35685000D01*
X150032912Y-35685000D01*
X149333620Y-36384292D01*
G36*
X101384292Y-41666380D02*
X101882055Y-41872560D01*
X101380000Y-41872560D01*
X101132235Y-41921843D01*
X100922191Y-42062191D01*
X100781843Y-42272235D01*
X100732560Y-42520000D01*
X100732560Y-44220000D01*
X100781843Y-44467765D01*
X100922191Y-44677809D01*
X101132235Y-44818157D01*
X101177619Y-44827184D01*
X101159375Y-44839375D01*
X100831161Y-45330582D01*
X100715908Y-45910000D01*
X100831161Y-46489418D01*
X101159375Y-46980625D01*
X101457761Y-47180000D01*
X101159375Y-47379375D01*
X100831161Y-47870582D01*
X100715908Y-48450000D01*
X100831161Y-49029418D01*
X101159375Y-49520625D01*
X101457761Y-49720000D01*
X101159375Y-49919375D01*
X100831161Y-50410582D01*
X100715908Y-50990000D01*
X100831161Y-51569418D01*
X101159375Y-52060625D01*
X101478478Y-52273843D01*
X101348642Y-52334817D01*
X100958355Y-52763076D01*
X100788524Y-53173110D01*
X100909845Y-53403000D01*
X102103000Y-53403000D01*
X102103000Y-53383000D01*
X102357000Y-53383000D01*
X102357000Y-53403000D01*
X102377000Y-53403000D01*
X102377000Y-53657000D01*
X102357000Y-53657000D01*
X102357000Y-53677000D01*
X102103000Y-53677000D01*
X102103000Y-53657000D01*
X100909845Y-53657000D01*
X100788524Y-53886890D01*
X100958355Y-54296924D01*
X101348642Y-54725183D01*
X101478478Y-54786157D01*
X101159375Y-54999375D01*
X100831161Y-55490582D01*
X100715908Y-56070000D01*
X100831161Y-56649418D01*
X101159375Y-57140625D01*
X101457761Y-57340000D01*
X101159375Y-57539375D01*
X100831161Y-58030582D01*
X100715908Y-58610000D01*
X100831161Y-59189418D01*
X101159375Y-59680625D01*
X101457761Y-59880000D01*
X101159375Y-60079375D01*
X100831161Y-60570582D01*
X100715908Y-61150000D01*
X100831161Y-61729418D01*
X101159375Y-62220625D01*
X101457761Y-62420000D01*
X101159375Y-62619375D01*
X100831161Y-63110582D01*
X100715908Y-63690000D01*
X100831161Y-64269418D01*
X101159375Y-64760625D01*
X101457761Y-64960000D01*
X101159375Y-65159375D01*
X100831161Y-65650582D01*
X100715908Y-66230000D01*
X100831161Y-66809418D01*
X101159375Y-67300625D01*
X101457761Y-67500000D01*
X101159375Y-67699375D01*
X100831161Y-68190582D01*
X100715908Y-68770000D01*
X100831161Y-69349418D01*
X101159375Y-69840625D01*
X101457761Y-70040000D01*
X101159375Y-70239375D01*
X100831161Y-70730582D01*
X100715908Y-71310000D01*
X100831161Y-71889418D01*
X101159375Y-72380625D01*
X101478478Y-72593843D01*
X101348642Y-72654817D01*
X100958355Y-73083076D01*
X100788524Y-73493110D01*
X100909845Y-73723000D01*
X102103000Y-73723000D01*
X102103000Y-73703000D01*
X102357000Y-73703000D01*
X102357000Y-73723000D01*
X102377000Y-73723000D01*
X102377000Y-73977000D01*
X102357000Y-73977000D01*
X102357000Y-73997000D01*
X102103000Y-73997000D01*
X102103000Y-73977000D01*
X100909845Y-73977000D01*
X100788524Y-74206890D01*
X100958355Y-74616924D01*
X101348642Y-75045183D01*
X101478478Y-75106157D01*
X101159375Y-75319375D01*
X100831161Y-75810582D01*
X100715908Y-76390000D01*
X100831161Y-76969418D01*
X101159375Y-77460625D01*
X101457761Y-77660000D01*
X101159375Y-77859375D01*
X100831161Y-78350582D01*
X100715908Y-78930000D01*
X100831161Y-79509418D01*
X101159375Y-80000625D01*
X101457761Y-80200000D01*
X101159375Y-80399375D01*
X100831161Y-80890582D01*
X100715908Y-81470000D01*
X100831161Y-82049418D01*
X101159375Y-82540625D01*
X101457761Y-82740000D01*
X101159375Y-82939375D01*
X100831161Y-83430582D01*
X100715908Y-84010000D01*
X100831161Y-84589418D01*
X101159375Y-85080625D01*
X101457761Y-85280000D01*
X101159375Y-85479375D01*
X100831161Y-85970582D01*
X100715908Y-86550000D01*
X100831161Y-87129418D01*
X101159375Y-87620625D01*
X101457761Y-87820000D01*
X101159375Y-88019375D01*
X100831161Y-88510582D01*
X100715908Y-89090000D01*
X100831161Y-89669418D01*
X101159375Y-90160625D01*
X101478478Y-90373843D01*
X101348642Y-90434817D01*
X100958355Y-90863076D01*
X100788524Y-91273110D01*
X100909845Y-91503000D01*
X102103000Y-91503000D01*
X102103000Y-91483000D01*
X102357000Y-91483000D01*
X102357000Y-91503000D01*
X102377000Y-91503000D01*
X102377000Y-91757000D01*
X102357000Y-91757000D01*
X102357000Y-91777000D01*
X102103000Y-91777000D01*
X102103000Y-91757000D01*
X100909845Y-91757000D01*
X100788524Y-91986890D01*
X100958355Y-92396924D01*
X101348642Y-92825183D01*
X101873108Y-93071486D01*
X102102998Y-92950820D01*
X102102998Y-93035922D01*
X101384292Y-93333620D01*
X100685000Y-94032912D01*
X100685000Y-40967088D01*
X101384292Y-41666380D01*
X101384292Y-41666380D01*
G37*
X101384292Y-41666380D02*
X101882055Y-41872560D01*
X101380000Y-41872560D01*
X101132235Y-41921843D01*
X100922191Y-42062191D01*
X100781843Y-42272235D01*
X100732560Y-42520000D01*
X100732560Y-44220000D01*
X100781843Y-44467765D01*
X100922191Y-44677809D01*
X101132235Y-44818157D01*
X101177619Y-44827184D01*
X101159375Y-44839375D01*
X100831161Y-45330582D01*
X100715908Y-45910000D01*
X100831161Y-46489418D01*
X101159375Y-46980625D01*
X101457761Y-47180000D01*
X101159375Y-47379375D01*
X100831161Y-47870582D01*
X100715908Y-48450000D01*
X100831161Y-49029418D01*
X101159375Y-49520625D01*
X101457761Y-49720000D01*
X101159375Y-49919375D01*
X100831161Y-50410582D01*
X100715908Y-50990000D01*
X100831161Y-51569418D01*
X101159375Y-52060625D01*
X101478478Y-52273843D01*
X101348642Y-52334817D01*
X100958355Y-52763076D01*
X100788524Y-53173110D01*
X100909845Y-53403000D01*
X102103000Y-53403000D01*
X102103000Y-53383000D01*
X102357000Y-53383000D01*
X102357000Y-53403000D01*
X102377000Y-53403000D01*
X102377000Y-53657000D01*
X102357000Y-53657000D01*
X102357000Y-53677000D01*
X102103000Y-53677000D01*
X102103000Y-53657000D01*
X100909845Y-53657000D01*
X100788524Y-53886890D01*
X100958355Y-54296924D01*
X101348642Y-54725183D01*
X101478478Y-54786157D01*
X101159375Y-54999375D01*
X100831161Y-55490582D01*
X100715908Y-56070000D01*
X100831161Y-56649418D01*
X101159375Y-57140625D01*
X101457761Y-57340000D01*
X101159375Y-57539375D01*
X100831161Y-58030582D01*
X100715908Y-58610000D01*
X100831161Y-59189418D01*
X101159375Y-59680625D01*
X101457761Y-59880000D01*
X101159375Y-60079375D01*
X100831161Y-60570582D01*
X100715908Y-61150000D01*
X100831161Y-61729418D01*
X101159375Y-62220625D01*
X101457761Y-62420000D01*
X101159375Y-62619375D01*
X100831161Y-63110582D01*
X100715908Y-63690000D01*
X100831161Y-64269418D01*
X101159375Y-64760625D01*
X101457761Y-64960000D01*
X101159375Y-65159375D01*
X100831161Y-65650582D01*
X100715908Y-66230000D01*
X100831161Y-66809418D01*
X101159375Y-67300625D01*
X101457761Y-67500000D01*
X101159375Y-67699375D01*
X100831161Y-68190582D01*
X100715908Y-68770000D01*
X100831161Y-69349418D01*
X101159375Y-69840625D01*
X101457761Y-70040000D01*
X101159375Y-70239375D01*
X100831161Y-70730582D01*
X100715908Y-71310000D01*
X100831161Y-71889418D01*
X101159375Y-72380625D01*
X101478478Y-72593843D01*
X101348642Y-72654817D01*
X100958355Y-73083076D01*
X100788524Y-73493110D01*
X100909845Y-73723000D01*
X102103000Y-73723000D01*
X102103000Y-73703000D01*
X102357000Y-73703000D01*
X102357000Y-73723000D01*
X102377000Y-73723000D01*
X102377000Y-73977000D01*
X102357000Y-73977000D01*
X102357000Y-73997000D01*
X102103000Y-73997000D01*
X102103000Y-73977000D01*
X100909845Y-73977000D01*
X100788524Y-74206890D01*
X100958355Y-74616924D01*
X101348642Y-75045183D01*
X101478478Y-75106157D01*
X101159375Y-75319375D01*
X100831161Y-75810582D01*
X100715908Y-76390000D01*
X100831161Y-76969418D01*
X101159375Y-77460625D01*
X101457761Y-77660000D01*
X101159375Y-77859375D01*
X100831161Y-78350582D01*
X100715908Y-78930000D01*
X100831161Y-79509418D01*
X101159375Y-80000625D01*
X101457761Y-80200000D01*
X101159375Y-80399375D01*
X100831161Y-80890582D01*
X100715908Y-81470000D01*
X100831161Y-82049418D01*
X101159375Y-82540625D01*
X101457761Y-82740000D01*
X101159375Y-82939375D01*
X100831161Y-83430582D01*
X100715908Y-84010000D01*
X100831161Y-84589418D01*
X101159375Y-85080625D01*
X101457761Y-85280000D01*
X101159375Y-85479375D01*
X100831161Y-85970582D01*
X100715908Y-86550000D01*
X100831161Y-87129418D01*
X101159375Y-87620625D01*
X101457761Y-87820000D01*
X101159375Y-88019375D01*
X100831161Y-88510582D01*
X100715908Y-89090000D01*
X100831161Y-89669418D01*
X101159375Y-90160625D01*
X101478478Y-90373843D01*
X101348642Y-90434817D01*
X100958355Y-90863076D01*
X100788524Y-91273110D01*
X100909845Y-91503000D01*
X102103000Y-91503000D01*
X102103000Y-91483000D01*
X102357000Y-91483000D01*
X102357000Y-91503000D01*
X102377000Y-91503000D01*
X102377000Y-91757000D01*
X102357000Y-91757000D01*
X102357000Y-91777000D01*
X102103000Y-91777000D01*
X102103000Y-91757000D01*
X100909845Y-91757000D01*
X100788524Y-91986890D01*
X100958355Y-92396924D01*
X101348642Y-92825183D01*
X101873108Y-93071486D01*
X102102998Y-92950820D01*
X102102998Y-93035922D01*
X101384292Y-93333620D01*
X100685000Y-94032912D01*
X100685000Y-40967088D01*
X101384292Y-41666380D01*
G04 #@! TD*
M02*
