  0
SECTION
  2
HEADER
  9
$ANGBASE
  50
0.0
  9
$ANGDIR
  70
  1
  9
$MEASUREMENT
  70
0
  0
ENDSEC
  0
SECTION
  2
TABLES
  0
TABLE
  2
LTYPE
  70
4
  0
LTYPE
  5
40F
  2
CONTINUOUS
  70
0
  3
Solid line
  72
65
  73
0
  40
0.0
  0
LTYPE
  5
410
  2
DASHDOT
 70
0
  3
Dash Dot ____ _ ____ _
 72
65
 73
4
 40
2.0
 49
1.25
 49
-0.25
 49
0.25
 49
-0.25
  0
LTYPE
  5
411
  2
DASHED
 70
0
  3
Dashed __ __ __ __ __
 72
65
 73
2
 40
0.75
 49
0.5
 49
-0.25
  0
LTYPE
  5
43B
  2
DOTTED
 70
0
  3
Dotted .  .  .  .
 72
65
 73
2
 40
0.2
 49
0.0
 49
-0.2
  0
ENDTAB
  0
TABLE
  2
STYLE
  70
4
  0
STYLE
  2
KICAD
  70
0
  40
0
  41
1
  42
1
  50
0
  71
0
  3
isocp.shx
  0
STYLE
  2
KICADB
  70
0
  40
0
  41
1
  42
1
  50
0
  71
0
  3
isocp.shx
  0
STYLE
  2
KICADI
  70
0
  40
0
  41
1
  42
1
  50
15
  71
0
  3
isocp.shx
  0
STYLE
  2
KICADBI
  70
0
  40
0
  41
1
  42
1
  50
15
  71
0
  3
isocp.shx
  0
ENDTAB
  0
TABLE
  2
LAYER
  70
30
  0
LAYER
  2
BLACK
  70
0
  62
7
  6
CONTINUOUS
  0
LAYER
  2
GRAY1
  70
0
  62
251
  6
CONTINUOUS
  0
LAYER
  2
GRAY2
  70
0
  62
8
  6
CONTINUOUS
  0
LAYER
  2
GRAY3
  70
0
  62
9
  6
CONTINUOUS
  0
LAYER
  2
WHITE
  70
0
  62
7
  6
CONTINUOUS
  0
LAYER
  2
LYELLOW
  70
0
  62
51
  6
CONTINUOUS
  0
LAYER
  2
BLUE1
  70
0
  62
178
  6
CONTINUOUS
  0
LAYER
  2
GREEN1
  70
0
  62
98
  6
CONTINUOUS
  0
LAYER
  2
CYAN1
  70
0
  62
138
  6
CONTINUOUS
  0
LAYER
  2
RED1
  70
0
  62
18
  6
CONTINUOUS
  0
LAYER
  2
MAGENTA1
  70
0
  62
228
  6
CONTINUOUS
  0
LAYER
  2
BROWN1
  70
0
  62
58
  6
CONTINUOUS
  0
LAYER
  2
BLUE2
  70
0
  62
5
  6
CONTINUOUS
  0
LAYER
  2
GREEN2
  70
0
  62
3
  6
CONTINUOUS
  0
LAYER
  2
CYAN2
  70
0
  62
4
  6
CONTINUOUS
  0
LAYER
  2
RED2
  70
0
  62
1
  6
CONTINUOUS
  0
LAYER
  2
MAGENTA2
  70
0
  62
6
  6
CONTINUOUS
  0
LAYER
  2
BROWN2
  70
0
  62
54
  6
CONTINUOUS
  0
LAYER
  2
BLUE3
  70
0
  62
171
  6
CONTINUOUS
  0
LAYER
  2
GREEN3
  70
0
  62
91
  6
CONTINUOUS
  0
LAYER
  2
CYAN3
  70
0
  62
131
  6
CONTINUOUS
  0
LAYER
  2
RED3
  70
0
  62
11
  6
CONTINUOUS
  0
LAYER
  2
MAGENTA3
  70
0
  62
221
  6
CONTINUOUS
  0
LAYER
  2
YELLOW3
  70
0
  62
2
  6
CONTINUOUS
  0
LAYER
  2
BLUE4
  70
0
  62
5
  6
CONTINUOUS
  0
LAYER
  2
GREEN4
  70
0
  62
3
  6
CONTINUOUS
  0
LAYER
  2
CYAN4
  70
0
  62
4
  6
CONTINUOUS
  0
LAYER
  2
RED4
  70
0
  62
1
  6
CONTINUOUS
  0
LAYER
  2
MAGENTA4
  70
0
  62
6
  6
CONTINUOUS
  0
LAYER
  2
YELLOW4
  70
0
  62
2
  6
CONTINUOUS
  0
ENDTAB
  0
ENDSEC
  0
SECTION
  2
ENTITIES
0
LINE
8
BLACK
6
CONTINUOUS
10
102.304
20
-99.9692
11
102.298
21
-99.9681
0
LINE
8
BLACK
6
CONTINUOUS
10
102.298
20
-99.9681
11
102.295
21
-99.9672
0
LINE
8
BLACK
6
CONTINUOUS
10
102.295
20
-99.9672
11
102.293
21
-99.9665
0
LINE
8
BLACK
6
CONTINUOUS
10
102.293
20
-99.9665
11
101.64
21
-99.7295
0
LINE
8
BLACK
6
CONTINUOUS
10
101.64
20
-99.7295
11
101.634
21
-99.727
0
LINE
8
BLACK
6
CONTINUOUS
10
101.634
20
-99.727
11
101.632
21
-99.7255
0
LINE
8
BLACK
6
CONTINUOUS
10
101.632
20
-99.7255
11
101.629
21
-99.7243
0
LINE
8
BLACK
6
CONTINUOUS
10
101.629
20
-99.7243
11
101.048
21
-99.3433
0
LINE
8
BLACK
6
CONTINUOUS
10
101.048
20
-99.3433
11
101.043
21
-99.3396
0
LINE
8
BLACK
6
CONTINUOUS
10
101.043
20
-99.3396
11
101.041
21
-99.3376
0
LINE
8
BLACK
6
CONTINUOUS
10
101.041
20
-99.3376
11
101.039
21
-99.3359
0
LINE
8
BLACK
6
CONTINUOUS
10
101.039
20
-99.3359
11
100.562
21
-98.8315
0
LINE
8
BLACK
6
CONTINUOUS
10
100.562
20
-98.8315
11
100.558
21
-98.8267
0
LINE
8
BLACK
6
CONTINUOUS
10
100.558
20
-98.8267
11
100.556
21
-98.8244
0
LINE
8
BLACK
6
CONTINUOUS
10
100.556
20
-98.8244
11
100.555
21
-98.8222
0
LINE
8
BLACK
6
CONTINUOUS
10
100.555
20
-98.8222
11
100.206
21
-98.2214
0
LINE
8
BLACK
6
CONTINUOUS
10
100.206
20
-98.2214
11
100.203
21
-98.2158
0
LINE
8
BLACK
6
CONTINUOUS
10
100.203
20
-98.2158
11
100.202
21
-98.2132
0
LINE
8
BLACK
6
CONTINUOUS
10
100.202
20
-98.2132
11
100.201
21
-98.2107
0
LINE
8
BLACK
6
CONTINUOUS
10
100.201
20
-98.2107
11
99.9996
21
-97.5457
0
LINE
8
BLACK
6
CONTINUOUS
10
99.9996
20
-97.5457
11
99.9981
21
-97.5397
0
LINE
8
BLACK
6
CONTINUOUS
10
99.9981
20
-97.5397
11
99.998
21
-97.5377
0
LINE
8
BLACK
6
CONTINUOUS
10
99.998
20
-97.5377
11
99.9976
21
-97.5357
0
LINE
8
BLACK
6
CONTINUOUS
10
99.9976
20
-97.5357
11
99.9504
21
-97.0066
0
LINE
8
BLACK
6
CONTINUOUS
10
99.9504
20
-97.0066
11
99.95
21
-97.0044
0
LINE
8
BLACK
6
CONTINUOUS
10
99.95
20
-97.0044
11
99.95
21
-37.9956
0
LINE
8
BLACK
6
CONTINUOUS
10
99.95
20
-37.9956
11
99.9505
21
-37.9928
0
LINE
8
BLACK
6
CONTINUOUS
10
99.9505
20
-37.9928
11
100.031
21
-37.3041
0
LINE
8
BLACK
6
CONTINUOUS
10
100.031
20
-37.3041
11
100.032
21
-37.298
0
LINE
8
BLACK
6
CONTINUOUS
10
100.032
20
-37.298
11
100.033
21
-37.2954
0
LINE
8
BLACK
6
CONTINUOUS
10
100.033
20
-37.2954
11
100.033
21
-37.2928
0
LINE
8
BLACK
6
CONTINUOUS
10
100.033
20
-37.2928
11
100.271
21
-36.6397
0
LINE
8
BLACK
6
CONTINUOUS
10
100.271
20
-36.6397
11
100.273
21
-36.634
0
LINE
8
BLACK
6
CONTINUOUS
10
100.273
20
-36.634
11
100.275
21
-36.6317
0
LINE
8
BLACK
6
CONTINUOUS
10
100.275
20
-36.6317
11
100.276
21
-36.6293
0
LINE
8
BLACK
6
CONTINUOUS
10
100.276
20
-36.6293
11
100.657
21
-36.0482
0
LINE
8
BLACK
6
CONTINUOUS
10
100.657
20
-36.0482
11
100.66
21
-36.0433
0
LINE
8
BLACK
6
CONTINUOUS
10
100.66
20
-36.0433
11
100.662
21
-36.0414
0
LINE
8
BLACK
6
CONTINUOUS
10
100.662
20
-36.0414
11
100.664
21
-36.0394
0
LINE
8
BLACK
6
CONTINUOUS
10
100.664
20
-36.0394
11
101.169
21
-35.5615
0
LINE
8
BLACK
6
CONTINUOUS
10
101.169
20
-35.5615
11
101.173
21
-35.5575
0
LINE
8
BLACK
6
CONTINUOUS
10
101.173
20
-35.5575
11
101.176
21
-35.5562
0
LINE
8
BLACK
6
CONTINUOUS
10
101.176
20
-35.5562
11
101.178
21
-35.5546
0
LINE
8
BLACK
6
CONTINUOUS
10
101.178
20
-35.5546
11
101.779
21
-35.2056
0
LINE
8
BLACK
6
CONTINUOUS
10
101.779
20
-35.2056
11
101.784
21
-35.2028
0
LINE
8
BLACK
6
CONTINUOUS
10
101.784
20
-35.2028
11
101.787
21
-35.202
0
LINE
8
BLACK
6
CONTINUOUS
10
101.787
20
-35.202
11
101.789
21
-35.201
0
LINE
8
BLACK
6
CONTINUOUS
10
101.789
20
-35.201
11
102.454
21
-34.9996
0
LINE
8
BLACK
6
CONTINUOUS
10
102.454
20
-34.9996
11
102.46
21
-34.9981
0
LINE
8
BLACK
6
CONTINUOUS
10
102.46
20
-34.9981
11
102.462
21
-34.998
0
LINE
8
BLACK
6
CONTINUOUS
10
102.462
20
-34.998
11
102.464
21
-34.9976
0
LINE
8
BLACK
6
CONTINUOUS
10
102.464
20
-34.9976
11
102.993
21
-34.9504
0
LINE
8
BLACK
6
CONTINUOUS
10
102.993
20
-34.9504
11
102.996
21
-34.95
0
LINE
8
BLACK
6
CONTINUOUS
10
102.996
20
-34.95
11
153.004
21
-34.95
0
LINE
8
BLACK
6
CONTINUOUS
10
153.004
20
-34.95
11
153.007
21
-34.9505
0
LINE
8
BLACK
6
CONTINUOUS
10
153.007
20
-34.9505
11
153.696
21
-35.0308
0
LINE
8
BLACK
6
CONTINUOUS
10
153.696
20
-35.0308
11
153.702
21
-35.0319
0
LINE
8
BLACK
6
CONTINUOUS
10
153.702
20
-35.0319
11
153.705
21
-35.0328
0
LINE
8
BLACK
6
CONTINUOUS
10
153.705
20
-35.0328
11
153.707
21
-35.0335
0
LINE
8
BLACK
6
CONTINUOUS
10
153.707
20
-35.0335
11
154.36
21
-35.2705
0
LINE
8
BLACK
6
CONTINUOUS
10
154.36
20
-35.2705
11
154.366
21
-35.273
0
LINE
8
BLACK
6
CONTINUOUS
10
154.366
20
-35.273
11
154.368
21
-35.2745
0
LINE
8
BLACK
6
CONTINUOUS
10
154.368
20
-35.2745
11
154.371
21
-35.2757
0
LINE
8
BLACK
6
CONTINUOUS
10
154.371
20
-35.2757
11
154.952
21
-35.6567
0
LINE
8
BLACK
6
CONTINUOUS
10
154.952
20
-35.6567
11
154.957
21
-35.6604
0
LINE
8
BLACK
6
CONTINUOUS
10
154.957
20
-35.6604
11
154.959
21
-35.6624
0
LINE
8
BLACK
6
CONTINUOUS
10
154.959
20
-35.6624
11
154.961
21
-35.6641
0
LINE
8
BLACK
6
CONTINUOUS
10
154.961
20
-35.6641
11
155.438
21
-36.1685
0
LINE
8
BLACK
6
CONTINUOUS
10
155.438
20
-36.1685
11
155.442
21
-36.1733
0
LINE
8
BLACK
6
CONTINUOUS
10
155.442
20
-36.1733
11
155.444
21
-36.1756
0
LINE
8
BLACK
6
CONTINUOUS
10
155.444
20
-36.1756
11
155.445
21
-36.1778
0
LINE
8
BLACK
6
CONTINUOUS
10
155.445
20
-36.1778
11
155.794
21
-36.7786
0
LINE
8
BLACK
6
CONTINUOUS
10
155.794
20
-36.7786
11
155.797
21
-36.7842
0
LINE
8
BLACK
6
CONTINUOUS
10
155.797
20
-36.7842
11
155.798
21
-36.7868
0
LINE
8
BLACK
6
CONTINUOUS
10
155.798
20
-36.7868
11
155.799
21
-36.7893
0
LINE
8
BLACK
6
CONTINUOUS
10
155.799
20
-36.7893
11
156
21
-37.4543
0
LINE
8
BLACK
6
CONTINUOUS
10
156
20
-37.4543
11
156.002
21
-37.4603
0
LINE
8
BLACK
6
CONTINUOUS
10
156.002
20
-37.4603
11
156.002
21
-37.4623
0
LINE
8
BLACK
6
CONTINUOUS
10
156.002
20
-37.4623
11
156.002
21
-37.4643
0
LINE
8
BLACK
6
CONTINUOUS
10
156.002
20
-37.4643
11
156.05
21
-37.9934
0
LINE
8
BLACK
6
CONTINUOUS
10
156.05
20
-37.9934
11
156.05
21
-37.9956
0
LINE
8
BLACK
6
CONTINUOUS
10
156.05
20
-37.9956
11
156.05
21
-97.0044
0
LINE
8
BLACK
6
CONTINUOUS
10
156.05
20
-97.0044
11
156.049
21
-97.0072
0
LINE
8
BLACK
6
CONTINUOUS
10
156.049
20
-97.0072
11
155.969
21
-97.6959
0
LINE
8
BLACK
6
CONTINUOUS
10
155.969
20
-97.6959
11
155.968
21
-97.702
0
LINE
8
BLACK
6
CONTINUOUS
10
155.968
20
-97.702
11
155.967
21
-97.7046
0
LINE
8
BLACK
6
CONTINUOUS
10
155.967
20
-97.7046
11
155.967
21
-97.7072
0
LINE
8
BLACK
6
CONTINUOUS
10
155.967
20
-97.7072
11
155.729
21
-98.3603
0
LINE
8
BLACK
6
CONTINUOUS
10
155.729
20
-98.3603
11
155.727
21
-98.366
0
LINE
8
BLACK
6
CONTINUOUS
10
155.727
20
-98.366
11
155.725
21
-98.3683
0
LINE
8
BLACK
6
CONTINUOUS
10
155.725
20
-98.3683
11
155.724
21
-98.3707
0
LINE
8
BLACK
6
CONTINUOUS
10
155.724
20
-98.3707
11
155.343
21
-98.9518
0
LINE
8
BLACK
6
CONTINUOUS
10
155.343
20
-98.9518
11
155.34
21
-98.9567
0
LINE
8
BLACK
6
CONTINUOUS
10
155.34
20
-98.9567
11
155.338
21
-98.9586
0
LINE
8
BLACK
6
CONTINUOUS
10
155.338
20
-98.9586
11
155.336
21
-98.9606
0
LINE
8
BLACK
6
CONTINUOUS
10
155.336
20
-98.9606
11
154.831
21
-99.4385
0
LINE
8
BLACK
6
CONTINUOUS
10
154.831
20
-99.4385
11
154.827
21
-99.4425
0
LINE
8
BLACK
6
CONTINUOUS
10
154.827
20
-99.4425
11
154.824
21
-99.4438
0
LINE
8
BLACK
6
CONTINUOUS
10
154.824
20
-99.4438
11
154.822
21
-99.4454
0
LINE
8
BLACK
6
CONTINUOUS
10
154.822
20
-99.4454
11
154.221
21
-99.7944
0
LINE
8
BLACK
6
CONTINUOUS
10
154.221
20
-99.7944
11
154.216
21
-99.7972
0
LINE
8
BLACK
6
CONTINUOUS
10
154.216
20
-99.7972
11
154.213
21
-99.798
0
LINE
8
BLACK
6
CONTINUOUS
10
154.213
20
-99.798
11
154.211
21
-99.799
0
LINE
8
BLACK
6
CONTINUOUS
10
154.211
20
-99.799
11
153.546
21
-100
0
LINE
8
BLACK
6
CONTINUOUS
10
153.546
20
-100
11
153.54
21
-100.002
0
LINE
8
BLACK
6
CONTINUOUS
10
153.54
20
-100.002
11
153.538
21
-100.002
0
LINE
8
BLACK
6
CONTINUOUS
10
153.538
20
-100.002
11
153.536
21
-100.002
0
LINE
8
BLACK
6
CONTINUOUS
10
153.536
20
-100.002
11
153.007
21
-100.05
0
LINE
8
BLACK
6
CONTINUOUS
10
153.007
20
-100.05
11
153.004
21
-100.05
0
LINE
8
BLACK
6
CONTINUOUS
10
153.004
20
-100.05
11
102.996
21
-100.05
0
LINE
8
BLACK
6
CONTINUOUS
10
102.996
20
-100.05
11
102.993
21
-100.049
0
LINE
8
BLACK
6
CONTINUOUS
10
102.993
20
-100.049
11
102.304
21
-99.9692
0
LINE
8
BLACK
6
CONTINUOUS
10
102.304
20
-99.9692
11
102.304
21
-99.9692
0
LINE
8
BLACK
6
CONTINUOUS
10
102.304
20
-99.9692
11
102.304
21
-99.9692
0
LINE
8
BLACK
6
CONTINUOUS
10
103.002
20
-35.05
11
102.478
21
-35.0968
0
LINE
8
BLACK
6
CONTINUOUS
10
102.478
20
-35.0968
11
101.824
21
-35.295
0
LINE
8
BLACK
6
CONTINUOUS
10
101.824
20
-35.295
11
101.233
21
-35.6381
0
LINE
8
BLACK
6
CONTINUOUS
10
101.233
20
-35.6381
11
100.737
21
-36.1079
0
LINE
8
BLACK
6
CONTINUOUS
10
100.737
20
-36.1079
11
100.363
21
-36.6793
0
LINE
8
BLACK
6
CONTINUOUS
10
100.363
20
-36.6793
11
100.129
21
-37.3214
0
LINE
8
BLACK
6
CONTINUOUS
10
100.129
20
-37.3214
11
100.05
21
-38.0029
0
LINE
8
BLACK
6
CONTINUOUS
10
100.05
20
-38.0029
11
100.05
21
-96.9978
0
LINE
8
BLACK
6
CONTINUOUS
10
100.05
20
-96.9978
11
100.097
21
-97.5217
0
LINE
8
BLACK
6
CONTINUOUS
10
100.097
20
-97.5217
11
100.295
21
-98.1762
0
LINE
8
BLACK
6
CONTINUOUS
10
100.295
20
-98.1762
11
100.638
21
-98.7669
0
LINE
8
BLACK
6
CONTINUOUS
10
100.638
20
-98.7669
11
101.108
21
-99.2629
0
LINE
8
BLACK
6
CONTINUOUS
10
101.108
20
-99.2629
11
101.679
21
-99.6375
0
LINE
8
BLACK
6
CONTINUOUS
10
101.679
20
-99.6375
11
102.321
21
-99.8705
0
LINE
8
BLACK
6
CONTINUOUS
10
102.321
20
-99.8705
11
103.003
21
-99.95
0
LINE
8
BLACK
6
CONTINUOUS
10
103.003
20
-99.95
11
152.998
21
-99.95
0
LINE
8
BLACK
6
CONTINUOUS
10
152.998
20
-99.95
11
153.522
21
-99.9032
0
LINE
8
BLACK
6
CONTINUOUS
10
153.522
20
-99.9032
11
154.176
21
-99.705
0
LINE
8
BLACK
6
CONTINUOUS
10
154.176
20
-99.705
11
154.767
21
-99.3619
0
LINE
8
BLACK
6
CONTINUOUS
10
154.767
20
-99.3619
11
155.263
21
-98.8921
0
LINE
8
BLACK
6
CONTINUOUS
10
155.263
20
-98.8921
11
155.637
21
-98.3207
0
LINE
8
BLACK
6
CONTINUOUS
10
155.637
20
-98.3207
11
155.871
21
-97.6786
0
LINE
8
BLACK
6
CONTINUOUS
10
155.871
20
-97.6786
11
155.95
21
-96.9971
0
LINE
8
BLACK
6
CONTINUOUS
10
155.95
20
-96.9971
11
155.95
21
-38.0022
0
LINE
8
BLACK
6
CONTINUOUS
10
155.95
20
-38.0022
11
155.903
21
-37.4783
0
LINE
8
BLACK
6
CONTINUOUS
10
155.903
20
-37.4783
11
155.705
21
-36.8238
0
LINE
8
BLACK
6
CONTINUOUS
10
155.705
20
-36.8238
11
155.362
21
-36.2331
0
LINE
8
BLACK
6
CONTINUOUS
10
155.362
20
-36.2331
11
154.892
21
-35.7371
0
LINE
8
BLACK
6
CONTINUOUS
10
154.892
20
-35.7371
11
154.321
21
-35.3625
0
LINE
8
BLACK
6
CONTINUOUS
10
154.321
20
-35.3625
11
153.679
21
-35.1295
0
LINE
8
BLACK
6
CONTINUOUS
10
153.679
20
-35.1295
11
152.997
21
-35.05
0
LINE
8
BLACK
6
CONTINUOUS
10
152.997
20
-35.05
11
103.002
21
-35.05
0
LINE
8
BLACK
6
CONTINUOUS
10
121.73
20
-70.4692
11
121.723
21
-70.4681
0
LINE
8
BLACK
6
CONTINUOUS
10
121.723
20
-70.4681
11
121.721
21
-70.4672
0
LINE
8
BLACK
6
CONTINUOUS
10
121.721
20
-70.4672
11
121.718
21
-70.4665
0
LINE
8
BLACK
6
CONTINUOUS
10
121.718
20
-70.4665
11
121.065
21
-70.2295
0
LINE
8
BLACK
6
CONTINUOUS
10
121.065
20
-70.2295
11
121.059
21
-70.227
0
LINE
8
BLACK
6
CONTINUOUS
10
121.059
20
-70.227
11
121.057
21
-70.2255
0
LINE
8
BLACK
6
CONTINUOUS
10
121.057
20
-70.2255
11
121.055
21
-70.2243
0
LINE
8
BLACK
6
CONTINUOUS
10
121.055
20
-70.2243
11
120.474
21
-69.8433
0
LINE
8
BLACK
6
CONTINUOUS
10
120.474
20
-69.8433
11
120.469
21
-69.8396
0
LINE
8
BLACK
6
CONTINUOUS
10
120.469
20
-69.8396
11
120.467
21
-69.8376
0
LINE
8
BLACK
6
CONTINUOUS
10
120.467
20
-69.8376
11
120.465
21
-69.8359
0
LINE
8
BLACK
6
CONTINUOUS
10
120.465
20
-69.8359
11
119.987
21
-69.3315
0
LINE
8
BLACK
6
CONTINUOUS
10
119.987
20
-69.3315
11
119.983
21
-69.3267
0
LINE
8
BLACK
6
CONTINUOUS
10
119.983
20
-69.3267
11
119.982
21
-69.3244
0
LINE
8
BLACK
6
CONTINUOUS
10
119.982
20
-69.3244
11
119.98
21
-69.3222
0
LINE
8
BLACK
6
CONTINUOUS
10
119.98
20
-69.3222
11
119.631
21
-68.7214
0
LINE
8
BLACK
6
CONTINUOUS
10
119.631
20
-68.7214
11
119.628
21
-68.7158
0
LINE
8
BLACK
6
CONTINUOUS
10
119.628
20
-68.7158
11
119.628
21
-68.7132
0
LINE
8
BLACK
6
CONTINUOUS
10
119.628
20
-68.7132
11
119.626
21
-68.7107
0
LINE
8
BLACK
6
CONTINUOUS
10
119.626
20
-68.7107
11
119.425
21
-68.0457
0
LINE
8
BLACK
6
CONTINUOUS
10
119.425
20
-68.0457
11
119.424
21
-68.0397
0
LINE
8
BLACK
6
CONTINUOUS
10
119.424
20
-68.0397
11
119.423
21
-68.037
0
LINE
8
BLACK
6
CONTINUOUS
10
119.423
20
-68.037
11
119.423
21
-68.0344
0
LINE
8
BLACK
6
CONTINUOUS
10
119.423
20
-68.0344
11
119.38
21
-67.3409
0
LINE
8
BLACK
6
CONTINUOUS
10
119.38
20
-67.3409
11
119.38
21
-67.3347
0
LINE
8
BLACK
6
CONTINUOUS
10
119.38
20
-67.3347
11
119.38
21
-67.332
0
LINE
8
BLACK
6
CONTINUOUS
10
119.38
20
-67.332
11
119.381
21
-67.3293
0
LINE
8
BLACK
6
CONTINUOUS
10
119.381
20
-67.3293
11
119.498
21
-66.6445
0
LINE
8
BLACK
6
CONTINUOUS
10
119.498
20
-66.6445
11
119.5
21
-66.6385
0
LINE
8
BLACK
6
CONTINUOUS
10
119.5
20
-66.6385
11
119.501
21
-66.636
0
LINE
8
BLACK
6
CONTINUOUS
10
119.501
20
-66.636
11
119.502
21
-66.6334
0
LINE
8
BLACK
6
CONTINUOUS
10
119.502
20
-66.6334
11
119.774
21
-65.994
0
LINE
8
BLACK
6
CONTINUOUS
10
119.774
20
-65.994
11
119.776
21
-65.9885
0
LINE
8
BLACK
6
CONTINUOUS
10
119.776
20
-65.9885
11
119.778
21
-65.9863
0
LINE
8
BLACK
6
CONTINUOUS
10
119.778
20
-65.9863
11
119.779
21
-65.984
0
LINE
8
BLACK
6
CONTINUOUS
10
119.779
20
-65.984
11
120.191
21
-65.4244
0
LINE
8
BLACK
6
CONTINUOUS
10
120.191
20
-65.4244
11
120.195
21
-65.4196
0
LINE
8
BLACK
6
CONTINUOUS
10
120.195
20
-65.4196
11
120.197
21
-65.4179
0
LINE
8
BLACK
6
CONTINUOUS
10
120.197
20
-65.4179
11
120.199
21
-65.4159
0
LINE
8
BLACK
6
CONTINUOUS
10
120.199
20
-65.4159
11
120.729
21
-64.966
0
LINE
8
BLACK
6
CONTINUOUS
10
120.729
20
-64.966
11
120.734
21
-64.9623
0
LINE
8
BLACK
6
CONTINUOUS
10
120.734
20
-64.9623
11
120.736
21
-64.9611
0
LINE
8
BLACK
6
CONTINUOUS
10
120.736
20
-64.9611
11
120.738
21
-64.9596
0
LINE
8
BLACK
6
CONTINUOUS
10
120.738
20
-64.9596
11
121.357
21
-64.6436
0
LINE
8
BLACK
6
CONTINUOUS
10
121.357
20
-64.6436
11
121.357
21
-64.6436
0
LINE
8
BLACK
6
CONTINUOUS
10
121.357
20
-64.6436
11
121.357
21
-64.6436
0
LINE
8
BLACK
6
CONTINUOUS
10
121.357
20
-64.6436
11
121.363
21
-64.6412
0
LINE
8
BLACK
6
CONTINUOUS
10
121.363
20
-64.6412
11
121.365
21
-64.6405
0
LINE
8
BLACK
6
CONTINUOUS
10
121.365
20
-64.6405
11
121.368
21
-64.6396
0
LINE
8
BLACK
6
CONTINUOUS
10
121.368
20
-64.6396
11
122.043
21
-64.4744
0
LINE
8
BLACK
6
CONTINUOUS
10
122.043
20
-64.4744
11
122.049
21
-64.4733
0
LINE
8
BLACK
6
CONTINUOUS
10
122.049
20
-64.4733
11
122.05
21
-64.4733
0
LINE
8
BLACK
6
CONTINUOUS
10
122.05
20
-64.4733
11
122.052
21
-64.4731
0
LINE
8
BLACK
6
CONTINUOUS
10
122.052
20
-64.4731
11
122.42
21
-64.4503
0
LINE
8
BLACK
6
CONTINUOUS
10
122.42
20
-64.4503
11
122.421
21
-64.45
0
LINE
8
BLACK
6
CONTINUOUS
10
122.421
20
-64.45
11
138.432
21
-64.45
0
LINE
8
BLACK
6
CONTINUOUS
10
138.432
20
-64.45
11
138.435
21
-64.4505
0
LINE
8
BLACK
6
CONTINUOUS
10
138.435
20
-64.4505
11
139.123
21
-64.5308
0
LINE
8
BLACK
6
CONTINUOUS
10
139.123
20
-64.5308
11
139.129
21
-64.5319
0
LINE
8
BLACK
6
CONTINUOUS
10
139.129
20
-64.5319
11
139.132
21
-64.5328
0
LINE
8
BLACK
6
CONTINUOUS
10
139.132
20
-64.5328
11
139.135
21
-64.5335
0
LINE
8
BLACK
6
CONTINUOUS
10
139.135
20
-64.5335
11
139.788
21
-64.7705
0
LINE
8
BLACK
6
CONTINUOUS
10
139.788
20
-64.7705
11
139.793
21
-64.773
0
LINE
8
BLACK
6
CONTINUOUS
10
139.793
20
-64.773
11
139.796
21
-64.7745
0
LINE
8
BLACK
6
CONTINUOUS
10
139.796
20
-64.7745
11
139.798
21
-64.7757
0
LINE
8
BLACK
6
CONTINUOUS
10
139.798
20
-64.7757
11
140.379
21
-65.1567
0
LINE
8
BLACK
6
CONTINUOUS
10
140.379
20
-65.1567
11
140.384
21
-65.1604
0
LINE
8
BLACK
6
CONTINUOUS
10
140.384
20
-65.1604
11
140.386
21
-65.1624
0
LINE
8
BLACK
6
CONTINUOUS
10
140.386
20
-65.1624
11
140.388
21
-65.1641
0
LINE
8
BLACK
6
CONTINUOUS
10
140.388
20
-65.1641
11
140.866
21
-65.6685
0
LINE
8
BLACK
6
CONTINUOUS
10
140.866
20
-65.6685
11
140.87
21
-65.6733
0
LINE
8
BLACK
6
CONTINUOUS
10
140.87
20
-65.6733
11
140.871
21
-65.6756
0
LINE
8
BLACK
6
CONTINUOUS
10
140.871
20
-65.6756
11
140.873
21
-65.6778
0
LINE
8
BLACK
6
CONTINUOUS
10
140.873
20
-65.6778
11
141.222
21
-66.2786
0
LINE
8
BLACK
6
CONTINUOUS
10
141.222
20
-66.2786
11
141.225
21
-66.2842
0
LINE
8
BLACK
6
CONTINUOUS
10
141.225
20
-66.2842
11
141.225
21
-66.2868
0
LINE
8
BLACK
6
CONTINUOUS
10
141.225
20
-66.2868
11
141.226
21
-66.2893
0
LINE
8
BLACK
6
CONTINUOUS
10
141.226
20
-66.2893
11
141.428
21
-66.9543
0
LINE
8
BLACK
6
CONTINUOUS
10
141.428
20
-66.9543
11
141.429
21
-66.9603
0
LINE
8
BLACK
6
CONTINUOUS
10
141.429
20
-66.9603
11
141.429
21
-66.963
0
LINE
8
BLACK
6
CONTINUOUS
10
141.429
20
-66.963
11
141.43
21
-66.9656
0
LINE
8
BLACK
6
CONTINUOUS
10
141.43
20
-66.9656
11
141.473
21
-67.6591
0
LINE
8
BLACK
6
CONTINUOUS
10
141.473
20
-67.6591
11
141.473
21
-67.6653
0
LINE
8
BLACK
6
CONTINUOUS
10
141.473
20
-67.6653
11
141.472
21
-67.668
0
LINE
8
BLACK
6
CONTINUOUS
10
141.472
20
-67.668
11
141.472
21
-67.6707
0
LINE
8
BLACK
6
CONTINUOUS
10
141.472
20
-67.6707
11
141.355
21
-68.3555
0
LINE
8
BLACK
6
CONTINUOUS
10
141.355
20
-68.3555
11
141.353
21
-68.3615
0
LINE
8
BLACK
6
CONTINUOUS
10
141.353
20
-68.3615
11
141.352
21
-68.364
0
LINE
8
BLACK
6
CONTINUOUS
10
141.352
20
-68.364
11
141.351
21
-68.3666
0
LINE
8
BLACK
6
CONTINUOUS
10
141.351
20
-68.3666
11
141.079
21
-69.006
0
LINE
8
BLACK
6
CONTINUOUS
10
141.079
20
-69.006
11
141.077
21
-69.0115
0
LINE
8
BLACK
6
CONTINUOUS
10
141.077
20
-69.0115
11
141.075
21
-69.0137
0
LINE
8
BLACK
6
CONTINUOUS
10
141.075
20
-69.0137
11
141.074
21
-69.016
0
LINE
8
BLACK
6
CONTINUOUS
10
141.074
20
-69.016
11
140.662
21
-69.5756
0
LINE
8
BLACK
6
CONTINUOUS
10
140.662
20
-69.5756
11
140.658
21
-69.5804
0
LINE
8
BLACK
6
CONTINUOUS
10
140.658
20
-69.5804
11
140.656
21
-69.5821
0
LINE
8
BLACK
6
CONTINUOUS
10
140.656
20
-69.5821
11
140.654
21
-69.5841
0
LINE
8
BLACK
6
CONTINUOUS
10
140.654
20
-69.5841
11
140.124
21
-70.034
0
LINE
8
BLACK
6
CONTINUOUS
10
140.124
20
-70.034
11
140.119
21
-70.0377
0
LINE
8
BLACK
6
CONTINUOUS
10
140.119
20
-70.0377
11
140.117
21
-70.0389
0
LINE
8
BLACK
6
CONTINUOUS
10
140.117
20
-70.0389
11
140.115
21
-70.0404
0
LINE
8
BLACK
6
CONTINUOUS
10
140.115
20
-70.0404
11
139.496
21
-70.3564
0
LINE
8
BLACK
6
CONTINUOUS
10
139.496
20
-70.3564
11
139.496
21
-70.3564
0
LINE
8
BLACK
6
CONTINUOUS
10
139.496
20
-70.3564
11
139.496
21
-70.3564
0
LINE
8
BLACK
6
CONTINUOUS
10
139.496
20
-70.3564
11
139.49
21
-70.3588
0
LINE
8
BLACK
6
CONTINUOUS
10
139.49
20
-70.3588
11
139.488
21
-70.3595
0
LINE
8
BLACK
6
CONTINUOUS
10
139.488
20
-70.3595
11
139.485
21
-70.3604
0
LINE
8
BLACK
6
CONTINUOUS
10
139.485
20
-70.3604
11
138.81
21
-70.5256
0
LINE
8
BLACK
6
CONTINUOUS
10
138.81
20
-70.5256
11
138.804
21
-70.5267
0
LINE
8
BLACK
6
CONTINUOUS
10
138.804
20
-70.5267
11
138.803
21
-70.5267
0
LINE
8
BLACK
6
CONTINUOUS
10
138.803
20
-70.5267
11
138.801
21
-70.5269
0
LINE
8
BLACK
6
CONTINUOUS
10
138.801
20
-70.5269
11
138.433
21
-70.5497
0
LINE
8
BLACK
6
CONTINUOUS
10
138.433
20
-70.5497
11
138.432
21
-70.55
0
LINE
8
BLACK
6
CONTINUOUS
10
138.432
20
-70.55
11
122.421
21
-70.55
0
LINE
8
BLACK
6
CONTINUOUS
10
122.421
20
-70.55
11
122.418
21
-70.5495
0
LINE
8
BLACK
6
CONTINUOUS
10
122.418
20
-70.5495
11
121.73
21
-70.4692
0
LINE
8
BLACK
6
CONTINUOUS
10
121.73
20
-70.4692
11
121.73
21
-70.4692
0
LINE
8
BLACK
6
CONTINUOUS
10
121.73
20
-70.4692
11
121.73
21
-70.4692
0
LINE
8
BLACK
6
CONTINUOUS
10
122.427
20
-64.55
11
122.062
21
-64.5726
0
LINE
8
BLACK
6
CONTINUOUS
10
122.062
20
-64.5726
11
121.397
21
-64.7353
0
LINE
8
BLACK
6
CONTINUOUS
10
121.397
20
-64.7353
11
120.789
21
-65.046
0
LINE
8
BLACK
6
CONTINUOUS
10
120.789
20
-65.046
11
120.268
21
-65.4883
0
LINE
8
BLACK
6
CONTINUOUS
10
120.268
20
-65.4883
11
119.863
21
-66.0386
0
LINE
8
BLACK
6
CONTINUOUS
10
119.863
20
-66.0386
11
119.596
21
-66.6672
0
LINE
8
BLACK
6
CONTINUOUS
10
119.596
20
-66.6672
11
119.48
21
-67.3405
0
LINE
8
BLACK
6
CONTINUOUS
10
119.48
20
-67.3405
11
119.522
21
-68.0223
0
LINE
8
BLACK
6
CONTINUOUS
10
119.522
20
-68.0223
11
119.72
21
-68.6762
0
LINE
8
BLACK
6
CONTINUOUS
10
119.72
20
-68.6762
11
120.064
21
-69.2669
0
LINE
8
BLACK
6
CONTINUOUS
10
120.064
20
-69.2669
11
120.533
21
-69.7629
0
LINE
8
BLACK
6
CONTINUOUS
10
120.533
20
-69.7629
11
121.105
21
-70.1375
0
LINE
8
BLACK
6
CONTINUOUS
10
121.105
20
-70.1375
11
121.747
21
-70.3705
0
LINE
8
BLACK
6
CONTINUOUS
10
121.747
20
-70.3705
11
122.428
21
-70.45
0
LINE
8
BLACK
6
CONTINUOUS
10
122.428
20
-70.45
11
138.426
21
-70.45
0
LINE
8
BLACK
6
CONTINUOUS
10
138.426
20
-70.45
11
138.791
21
-70.4274
0
LINE
8
BLACK
6
CONTINUOUS
10
138.791
20
-70.4274
11
139.456
21
-70.2647
0
LINE
8
BLACK
6
CONTINUOUS
10
139.456
20
-70.2647
11
140.064
21
-69.954
0
LINE
8
BLACK
6
CONTINUOUS
10
140.064
20
-69.954
11
140.585
21
-69.5117
0
LINE
8
BLACK
6
CONTINUOUS
10
140.585
20
-69.5117
11
140.99
21
-68.9614
0
LINE
8
BLACK
6
CONTINUOUS
10
140.99
20
-68.9614
11
141.257
21
-68.3328
0
LINE
8
BLACK
6
CONTINUOUS
10
141.257
20
-68.3328
11
141.373
21
-67.6595
0
LINE
8
BLACK
6
CONTINUOUS
10
141.373
20
-67.6595
11
141.331
21
-66.9777
0
LINE
8
BLACK
6
CONTINUOUS
10
141.331
20
-66.9777
11
141.132
21
-66.3238
0
LINE
8
BLACK
6
CONTINUOUS
10
141.132
20
-66.3238
11
140.789
21
-65.7331
0
LINE
8
BLACK
6
CONTINUOUS
10
140.789
20
-65.7331
11
140.32
21
-65.2371
0
LINE
8
BLACK
6
CONTINUOUS
10
140.32
20
-65.2371
11
139.748
21
-64.8625
0
LINE
8
BLACK
6
CONTINUOUS
10
139.748
20
-64.8625
11
139.106
21
-64.6295
0
LINE
8
BLACK
6
CONTINUOUS
10
139.106
20
-64.6295
11
138.425
21
-64.55
0
LINE
8
BLACK
6
CONTINUOUS
10
138.425
20
-64.55
11
122.427
21
-64.55
  0
ENDSEC
  0
EOF
