  0
SECTION
  2
HEADER
  9
$ANGBASE
  50
0.0
  9
$ANGDIR
  70
  1
  9
$MEASUREMENT
  70
0
  0
ENDSEC
  0
SECTION
  2
TABLES
  0
TABLE
  2
LTYPE
  70
4
  0
LTYPE
  5
40F
  2
CONTINUOUS
  70
0
  3
Solid line
  72
65
  73
0
  40
0.0
  0
LTYPE
  5
410
  2
DASHDOT
 70
0
  3
Dash Dot ____ _ ____ _
 72
65
 73
4
 40
2.0
 49
1.25
 49
-0.25
 49
0.25
 49
-0.25
  0
LTYPE
  5
411
  2
DASHED
 70
0
  3
Dashed __ __ __ __ __
 72
65
 73
2
 40
0.75
 49
0.5
 49
-0.25
  0
LTYPE
  5
43B
  2
DOTTED
 70
0
  3
Dotted .  .  .  .
 72
65
 73
2
 40
0.2
 49
0.0
 49
-0.2
  0
ENDTAB
  0
TABLE
  2
STYLE
  70
4
  0
STYLE
  2
KICAD
  70
0
  40
0
  41
1
  42
1
  50
0
  71
0
  3
isocp.shx
  0
STYLE
  2
KICADB
  70
0
  40
0
  41
1
  42
1
  50
0
  71
0
  3
isocp.shx
  0
STYLE
  2
KICADI
  70
0
  40
0
  41
1
  42
1
  50
15
  71
0
  3
isocp.shx
  0
STYLE
  2
KICADBI
  70
0
  40
0
  41
1
  42
1
  50
15
  71
0
  3
isocp.shx
  0
ENDTAB
  0
TABLE
  2
LAYER
  70
30
  0
LAYER
  2
BLACK
  70
0
  62
7
  6
CONTINUOUS
  0
LAYER
  2
GRAY1
  70
0
  62
251
  6
CONTINUOUS
  0
LAYER
  2
GRAY2
  70
0
  62
8
  6
CONTINUOUS
  0
LAYER
  2
GRAY3
  70
0
  62
9
  6
CONTINUOUS
  0
LAYER
  2
WHITE
  70
0
  62
7
  6
CONTINUOUS
  0
LAYER
  2
LYELLOW
  70
0
  62
51
  6
CONTINUOUS
  0
LAYER
  2
BLUE1
  70
0
  62
178
  6
CONTINUOUS
  0
LAYER
  2
GREEN1
  70
0
  62
98
  6
CONTINUOUS
  0
LAYER
  2
CYAN1
  70
0
  62
138
  6
CONTINUOUS
  0
LAYER
  2
RED1
  70
0
  62
18
  6
CONTINUOUS
  0
LAYER
  2
MAGENTA1
  70
0
  62
228
  6
CONTINUOUS
  0
LAYER
  2
BROWN1
  70
0
  62
58
  6
CONTINUOUS
  0
LAYER
  2
BLUE2
  70
0
  62
5
  6
CONTINUOUS
  0
LAYER
  2
GREEN2
  70
0
  62
3
  6
CONTINUOUS
  0
LAYER
  2
CYAN2
  70
0
  62
4
  6
CONTINUOUS
  0
LAYER
  2
RED2
  70
0
  62
1
  6
CONTINUOUS
  0
LAYER
  2
MAGENTA2
  70
0
  62
6
  6
CONTINUOUS
  0
LAYER
  2
BROWN2
  70
0
  62
54
  6
CONTINUOUS
  0
LAYER
  2
BLUE3
  70
0
  62
171
  6
CONTINUOUS
  0
LAYER
  2
GREEN3
  70
0
  62
91
  6
CONTINUOUS
  0
LAYER
  2
CYAN3
  70
0
  62
131
  6
CONTINUOUS
  0
LAYER
  2
RED3
  70
0
  62
11
  6
CONTINUOUS
  0
LAYER
  2
MAGENTA3
  70
0
  62
221
  6
CONTINUOUS
  0
LAYER
  2
YELLOW3
  70
0
  62
2
  6
CONTINUOUS
  0
LAYER
  2
BLUE4
  70
0
  62
5
  6
CONTINUOUS
  0
LAYER
  2
GREEN4
  70
0
  62
3
  6
CONTINUOUS
  0
LAYER
  2
CYAN4
  70
0
  62
4
  6
CONTINUOUS
  0
LAYER
  2
RED4
  70
0
  62
1
  6
CONTINUOUS
  0
LAYER
  2
MAGENTA4
  70
0
  62
6
  6
CONTINUOUS
  0
LAYER
  2
YELLOW4
  70
0
  62
2
  6
CONTINUOUS
  0
ENDTAB
  0
ENDSEC
  0
SECTION
  2
ENTITIES
0
LINE
8
BLACK
6
CONTINUOUS
10
129.305
20
-96.2474
11
128.695
21
-96.2474
0
LINE
8
BLACK
6
CONTINUOUS
10
128.695
20
-96.2474
11
128.695
21
-94.2408
0
LINE
8
BLACK
6
CONTINUOUS
10
128.695
20
-94.2408
11
129.305
21
-94.2408
0
LINE
8
BLACK
6
CONTINUOUS
10
129.305
20
-94.2408
11
129.305
21
-96.2474
0
LINE
8
BLACK
6
CONTINUOUS
10
137.305
20
-96.2474
11
136.695
21
-96.2474
0
LINE
8
BLACK
6
CONTINUOUS
10
136.695
20
-96.2474
11
136.695
21
-94.2408
0
LINE
8
BLACK
6
CONTINUOUS
10
136.695
20
-94.2408
11
137.305
21
-94.2408
0
LINE
8
BLACK
6
CONTINUOUS
10
137.305
20
-94.2408
11
137.305
21
-96.2474
0
LINE
8
BLACK
6
CONTINUOUS
10
136.305
20
-96.2474
11
135.695
21
-96.2474
0
LINE
8
BLACK
6
CONTINUOUS
10
135.695
20
-96.2474
11
135.695
21
-94.2408
0
LINE
8
BLACK
6
CONTINUOUS
10
135.695
20
-94.2408
11
136.305
21
-94.2408
0
LINE
8
BLACK
6
CONTINUOUS
10
136.305
20
-94.2408
11
136.305
21
-96.2474
0
LINE
8
BLACK
6
CONTINUOUS
10
135.305
20
-96.2474
11
134.695
21
-96.2474
0
LINE
8
BLACK
6
CONTINUOUS
10
134.695
20
-96.2474
11
134.695
21
-94.2408
0
LINE
8
BLACK
6
CONTINUOUS
10
134.695
20
-94.2408
11
135.305
21
-94.2408
0
LINE
8
BLACK
6
CONTINUOUS
10
135.305
20
-94.2408
11
135.305
21
-96.2474
0
LINE
8
BLACK
6
CONTINUOUS
10
134.305
20
-96.2474
11
133.695
21
-96.2474
0
LINE
8
BLACK
6
CONTINUOUS
10
133.695
20
-96.2474
11
133.695
21
-94.2408
0
LINE
8
BLACK
6
CONTINUOUS
10
133.695
20
-94.2408
11
134.305
21
-94.2408
0
LINE
8
BLACK
6
CONTINUOUS
10
134.305
20
-94.2408
11
134.305
21
-96.2474
0
LINE
8
BLACK
6
CONTINUOUS
10
133.305
20
-96.2474
11
132.695
21
-96.2474
0
LINE
8
BLACK
6
CONTINUOUS
10
132.695
20
-96.2474
11
132.695
21
-94.2408
0
LINE
8
BLACK
6
CONTINUOUS
10
132.695
20
-94.2408
11
133.305
21
-94.2408
0
LINE
8
BLACK
6
CONTINUOUS
10
133.305
20
-94.2408
11
133.305
21
-96.2474
0
LINE
8
BLACK
6
CONTINUOUS
10
132.305
20
-96.2474
11
131.695
21
-96.2474
0
LINE
8
BLACK
6
CONTINUOUS
10
131.695
20
-96.2474
11
131.695
21
-94.2408
0
LINE
8
BLACK
6
CONTINUOUS
10
131.695
20
-94.2408
11
132.305
21
-94.2408
0
LINE
8
BLACK
6
CONTINUOUS
10
132.305
20
-94.2408
11
132.305
21
-96.2474
0
LINE
8
BLACK
6
CONTINUOUS
10
131.305
20
-96.2474
11
130.695
21
-96.2474
0
LINE
8
BLACK
6
CONTINUOUS
10
130.695
20
-96.2474
11
130.695
21
-94.2408
0
LINE
8
BLACK
6
CONTINUOUS
10
130.695
20
-94.2408
11
131.305
21
-94.2408
0
LINE
8
BLACK
6
CONTINUOUS
10
131.305
20
-94.2408
11
131.305
21
-96.2474
0
LINE
8
BLACK
6
CONTINUOUS
10
130.305
20
-96.2474
11
129.695
21
-96.2474
0
LINE
8
BLACK
6
CONTINUOUS
10
129.695
20
-96.2474
11
129.695
21
-94.2408
0
LINE
8
BLACK
6
CONTINUOUS
10
129.695
20
-94.2408
11
130.305
21
-94.2408
0
LINE
8
BLACK
6
CONTINUOUS
10
130.305
20
-94.2408
11
130.305
21
-96.2474
0
LINE
8
BLACK
6
CONTINUOUS
10
128.305
20
-96.2474
11
127.695
21
-96.2474
0
LINE
8
BLACK
6
CONTINUOUS
10
127.695
20
-96.2474
11
127.695
21
-94.2408
0
LINE
8
BLACK
6
CONTINUOUS
10
127.695
20
-94.2408
11
128.305
21
-94.2408
0
LINE
8
BLACK
6
CONTINUOUS
10
128.305
20
-94.2408
11
128.305
21
-96.2474
0
LINE
8
BLACK
6
CONTINUOUS
10
127.305
20
-96.2474
11
126.695
21
-96.2474
0
LINE
8
BLACK
6
CONTINUOUS
10
126.695
20
-96.2474
11
126.695
21
-94.2408
0
LINE
8
BLACK
6
CONTINUOUS
10
126.695
20
-94.2408
11
127.305
21
-94.2408
0
LINE
8
BLACK
6
CONTINUOUS
10
127.305
20
-94.2408
11
127.305
21
-96.2474
0
LINE
8
BLACK
6
CONTINUOUS
10
126.305
20
-96.2474
11
125.695
21
-96.2474
0
LINE
8
BLACK
6
CONTINUOUS
10
125.695
20
-96.2474
11
125.695
21
-94.2408
0
LINE
8
BLACK
6
CONTINUOUS
10
125.695
20
-94.2408
11
126.305
21
-94.2408
0
LINE
8
BLACK
6
CONTINUOUS
10
126.305
20
-94.2408
11
126.305
21
-96.2474
0
LINE
8
BLACK
6
CONTINUOUS
10
125.305
20
-96.2474
11
124.695
21
-96.2474
0
LINE
8
BLACK
6
CONTINUOUS
10
124.695
20
-96.2474
11
124.695
21
-94.2408
0
LINE
8
BLACK
6
CONTINUOUS
10
124.695
20
-94.2408
11
125.305
21
-94.2408
0
LINE
8
BLACK
6
CONTINUOUS
10
125.305
20
-94.2408
11
125.305
21
-96.2474
0
LINE
8
BLACK
6
CONTINUOUS
10
124.305
20
-96.2474
11
123.695
21
-96.2474
0
LINE
8
BLACK
6
CONTINUOUS
10
123.695
20
-96.2474
11
123.695
21
-94.2408
0
LINE
8
BLACK
6
CONTINUOUS
10
123.695
20
-94.2408
11
124.305
21
-94.2408
0
LINE
8
BLACK
6
CONTINUOUS
10
124.305
20
-94.2408
11
124.305
21
-96.2474
0
LINE
8
BLACK
6
CONTINUOUS
10
123.305
20
-96.2474
11
122.695
21
-96.2474
0
LINE
8
BLACK
6
CONTINUOUS
10
122.695
20
-96.2474
11
122.695
21
-94.2408
0
LINE
8
BLACK
6
CONTINUOUS
10
122.695
20
-94.2408
11
123.305
21
-94.2408
0
LINE
8
BLACK
6
CONTINUOUS
10
123.305
20
-94.2408
11
123.305
21
-96.2474
0
LINE
8
BLACK
6
CONTINUOUS
10
122.355
20
-95.2314
11
121.643
21
-95.2314
0
LINE
8
BLACK
6
CONTINUOUS
10
121.643
20
-95.2314
11
121.643
21
-91.0404
0
LINE
8
BLACK
6
CONTINUOUS
10
121.643
20
-91.0404
11
122.355
21
-91.0404
0
LINE
8
BLACK
6
CONTINUOUS
10
122.355
20
-91.0404
11
122.355
21
-95.2314
0
LINE
8
BLACK
6
CONTINUOUS
10
138.357
20
-95.2314
11
137.645
21
-95.2314
0
LINE
8
BLACK
6
CONTINUOUS
10
137.645
20
-95.2314
11
137.645
21
-91.0404
0
LINE
8
BLACK
6
CONTINUOUS
10
137.645
20
-91.0404
11
138.357
21
-91.0404
0
LINE
8
BLACK
6
CONTINUOUS
10
138.357
20
-91.0404
11
138.357
21
-95.2314
0
LINE
8
BLACK
6
CONTINUOUS
10
114.773
20
-84.6914
11
113.273
21
-84.6914
0
LINE
8
BLACK
6
CONTINUOUS
10
113.273
20
-84.6914
11
113.273
21
-83.4414
0
LINE
8
BLACK
6
CONTINUOUS
10
113.273
20
-83.4414
11
114.773
21
-83.4414
0
LINE
8
BLACK
6
CONTINUOUS
10
114.773
20
-83.4414
11
114.773
21
-84.6914
0
LINE
8
BLACK
6
CONTINUOUS
10
112.273
20
-84.6914
11
110.773
21
-84.6914
0
LINE
8
BLACK
6
CONTINUOUS
10
110.773
20
-84.6914
11
110.773
21
-83.4414
0
LINE
8
BLACK
6
CONTINUOUS
10
110.773
20
-83.4414
11
112.273
21
-83.4414
0
LINE
8
BLACK
6
CONTINUOUS
10
112.273
20
-83.4414
11
112.273
21
-84.6914
0
LINE
8
BLACK
6
CONTINUOUS
10
146.45
20
-83.4
11
144.55
21
-83.4
0
LINE
8
BLACK
6
CONTINUOUS
10
144.55
20
-83.4
11
144.55
21
-83.1
0
LINE
8
BLACK
6
CONTINUOUS
10
144.55
20
-83.1
11
146.45
21
-83.1
0
LINE
8
BLACK
6
CONTINUOUS
10
146.45
20
-83.1
11
146.45
21
-83.4
0
LINE
8
BLACK
6
CONTINUOUS
10
146.45
20
-82.9
11
144.55
21
-82.9
0
LINE
8
BLACK
6
CONTINUOUS
10
144.55
20
-82.9
11
144.55
21
-82.6
0
LINE
8
BLACK
6
CONTINUOUS
10
144.55
20
-82.6
11
146.45
21
-82.6
0
LINE
8
BLACK
6
CONTINUOUS
10
146.45
20
-82.6
11
146.45
21
-82.9
0
LINE
8
BLACK
6
CONTINUOUS
10
112.253
20
-82.6594
11
110.753
21
-82.6594
0
LINE
8
BLACK
6
CONTINUOUS
10
110.753
20
-82.6594
11
110.753
21
-81.4094
0
LINE
8
BLACK
6
CONTINUOUS
10
110.753
20
-81.4094
11
112.253
21
-81.4094
0
LINE
8
BLACK
6
CONTINUOUS
10
112.253
20
-81.4094
11
112.253
21
-82.6594
0
LINE
8
BLACK
6
CONTINUOUS
10
114.753
20
-82.6594
11
113.253
21
-82.6594
0
LINE
8
BLACK
6
CONTINUOUS
10
113.253
20
-82.6594
11
113.253
21
-81.4094
0
LINE
8
BLACK
6
CONTINUOUS
10
113.253
20
-81.4094
11
114.753
21
-81.4094
0
LINE
8
BLACK
6
CONTINUOUS
10
114.753
20
-81.4094
11
114.753
21
-82.6594
0
LINE
8
BLACK
6
CONTINUOUS
10
146.45
20
-82.4
11
144.55
21
-82.4
0
LINE
8
BLACK
6
CONTINUOUS
10
144.55
20
-82.4
11
144.55
21
-82.1
0
LINE
8
BLACK
6
CONTINUOUS
10
144.55
20
-82.1
11
146.45
21
-82.1
0
LINE
8
BLACK
6
CONTINUOUS
10
146.45
20
-82.1
11
146.45
21
-82.4
0
LINE
8
BLACK
6
CONTINUOUS
10
146.45
20
-81.9
11
144.55
21
-81.9
0
LINE
8
BLACK
6
CONTINUOUS
10
144.55
20
-81.9
11
144.55
21
-81.6
0
LINE
8
BLACK
6
CONTINUOUS
10
144.55
20
-81.6
11
146.45
21
-81.6
0
LINE
8
BLACK
6
CONTINUOUS
10
146.45
20
-81.6
11
146.45
21
-81.9
0
LINE
8
BLACK
6
CONTINUOUS
10
146.45
20
-81.4
11
144.55
21
-81.4
0
LINE
8
BLACK
6
CONTINUOUS
10
144.55
20
-81.4
11
144.55
21
-81.1
0
LINE
8
BLACK
6
CONTINUOUS
10
144.55
20
-81.1
11
146.45
21
-81.1
0
LINE
8
BLACK
6
CONTINUOUS
10
146.45
20
-81.1
11
146.45
21
-81.4
0
LINE
8
BLACK
6
CONTINUOUS
10
146.45
20
-80.9
11
144.55
21
-80.9
0
LINE
8
BLACK
6
CONTINUOUS
10
144.55
20
-80.9
11
144.55
21
-80.6
0
LINE
8
BLACK
6
CONTINUOUS
10
144.55
20
-80.6
11
146.45
21
-80.6
0
LINE
8
BLACK
6
CONTINUOUS
10
146.45
20
-80.6
11
146.45
21
-80.9
0
LINE
8
BLACK
6
CONTINUOUS
10
146.45
20
-80.4
11
144.55
21
-80.4
0
LINE
8
BLACK
6
CONTINUOUS
10
144.55
20
-80.4
11
144.55
21
-80.1
0
LINE
8
BLACK
6
CONTINUOUS
10
144.55
20
-80.1
11
146.45
21
-80.1
0
LINE
8
BLACK
6
CONTINUOUS
10
146.45
20
-80.1
11
146.45
21
-80.4
0
LINE
8
BLACK
6
CONTINUOUS
10
146.45
20
-79.9
11
144.55
21
-79.9
0
LINE
8
BLACK
6
CONTINUOUS
10
144.55
20
-79.9
11
144.55
21
-79.6
0
LINE
8
BLACK
6
CONTINUOUS
10
144.55
20
-79.6
11
146.45
21
-79.6
0
LINE
8
BLACK
6
CONTINUOUS
10
146.45
20
-79.6
11
146.45
21
-79.9
0
LINE
8
BLACK
6
CONTINUOUS
10
146.45
20
-79.4
11
144.55
21
-79.4
0
LINE
8
BLACK
6
CONTINUOUS
10
144.55
20
-79.4
11
144.55
21
-79.1
0
LINE
8
BLACK
6
CONTINUOUS
10
144.55
20
-79.1
11
146.45
21
-79.1
0
LINE
8
BLACK
6
CONTINUOUS
10
146.45
20
-79.1
11
146.45
21
-79.4
0
LINE
8
BLACK
6
CONTINUOUS
10
146.45
20
-78.9
11
144.55
21
-78.9
0
LINE
8
BLACK
6
CONTINUOUS
10
144.55
20
-78.9
11
144.55
21
-78.6
0
LINE
8
BLACK
6
CONTINUOUS
10
144.55
20
-78.6
11
146.45
21
-78.6
0
LINE
8
BLACK
6
CONTINUOUS
10
146.45
20
-78.6
11
146.45
21
-78.9
0
LINE
8
BLACK
6
CONTINUOUS
10
146.45
20
-78.4
11
144.55
21
-78.4
0
LINE
8
BLACK
6
CONTINUOUS
10
144.55
20
-78.4
11
144.55
21
-78.1
0
LINE
8
BLACK
6
CONTINUOUS
10
144.55
20
-78.1
11
146.45
21
-78.1
0
LINE
8
BLACK
6
CONTINUOUS
10
146.45
20
-78.1
11
146.45
21
-78.4
0
LINE
8
BLACK
6
CONTINUOUS
10
146.45
20
-77.9
11
144.55
21
-77.9
0
LINE
8
BLACK
6
CONTINUOUS
10
144.55
20
-77.9
11
144.55
21
-77.6
0
LINE
8
BLACK
6
CONTINUOUS
10
144.55
20
-77.6
11
146.45
21
-77.6
0
LINE
8
BLACK
6
CONTINUOUS
10
146.45
20
-77.6
11
146.45
21
-77.9
0
LINE
8
BLACK
6
CONTINUOUS
10
146.45
20
-77.4
11
144.55
21
-77.4
0
LINE
8
BLACK
6
CONTINUOUS
10
144.55
20
-77.4
11
144.55
21
-77.1
0
LINE
8
BLACK
6
CONTINUOUS
10
144.55
20
-77.1
11
146.45
21
-77.1
0
LINE
8
BLACK
6
CONTINUOUS
10
146.45
20
-77.1
11
146.45
21
-77.4
0
LINE
8
BLACK
6
CONTINUOUS
10
146.45
20
-76.9
11
144.55
21
-76.9
0
LINE
8
BLACK
6
CONTINUOUS
10
144.55
20
-76.9
11
144.55
21
-76.6
0
LINE
8
BLACK
6
CONTINUOUS
10
144.55
20
-76.6
11
146.45
21
-76.6
0
LINE
8
BLACK
6
CONTINUOUS
10
146.45
20
-76.6
11
146.45
21
-76.9
0
LINE
8
BLACK
6
CONTINUOUS
10
146.45
20
-76.4
11
144.55
21
-76.4
0
LINE
8
BLACK
6
CONTINUOUS
10
144.55
20
-76.4
11
144.55
21
-76.1
0
LINE
8
BLACK
6
CONTINUOUS
10
144.55
20
-76.1
11
146.45
21
-76.1
0
LINE
8
BLACK
6
CONTINUOUS
10
146.45
20
-76.1
11
146.45
21
-76.4
0
LINE
8
BLACK
6
CONTINUOUS
10
146.45
20
-75.9
11
144.55
21
-75.9
0
LINE
8
BLACK
6
CONTINUOUS
10
144.55
20
-75.9
11
144.55
21
-75.6
0
LINE
8
BLACK
6
CONTINUOUS
10
144.55
20
-75.6
11
146.45
21
-75.6
0
LINE
8
BLACK
6
CONTINUOUS
10
146.45
20
-75.6
11
146.45
21
-75.9
0
LINE
8
BLACK
6
CONTINUOUS
10
146.45
20
-75.4
11
144.55
21
-75.4
0
LINE
8
BLACK
6
CONTINUOUS
10
144.55
20
-75.4
11
144.55
21
-75.1
0
LINE
8
BLACK
6
CONTINUOUS
10
144.55
20
-75.1
11
146.45
21
-75.1
0
LINE
8
BLACK
6
CONTINUOUS
10
146.45
20
-75.1
11
146.45
21
-75.4
0
LINE
8
BLACK
6
CONTINUOUS
10
146.45
20
-74.9
11
144.55
21
-74.9
0
LINE
8
BLACK
6
CONTINUOUS
10
144.55
20
-74.9
11
144.55
21
-74.6
0
LINE
8
BLACK
6
CONTINUOUS
10
144.55
20
-74.6
11
146.45
21
-74.6
0
LINE
8
BLACK
6
CONTINUOUS
10
146.45
20
-74.6
11
146.45
21
-74.9
0
LINE
8
BLACK
6
CONTINUOUS
10
146.45
20
-74.4
11
144.55
21
-74.4
0
LINE
8
BLACK
6
CONTINUOUS
10
144.55
20
-74.4
11
144.55
21
-74.1
0
LINE
8
BLACK
6
CONTINUOUS
10
144.55
20
-74.1
11
146.45
21
-74.1
0
LINE
8
BLACK
6
CONTINUOUS
10
146.45
20
-74.1
11
146.45
21
-74.4
0
LINE
8
BLACK
6
CONTINUOUS
10
146.45
20
-60.4
11
144.55
21
-60.4
0
LINE
8
BLACK
6
CONTINUOUS
10
144.55
20
-60.4
11
144.55
21
-60.1
0
LINE
8
BLACK
6
CONTINUOUS
10
144.55
20
-60.1
11
146.45
21
-60.1
0
LINE
8
BLACK
6
CONTINUOUS
10
146.45
20
-60.1
11
146.45
21
-60.4
0
LINE
8
BLACK
6
CONTINUOUS
10
146.45
20
-59.9
11
144.55
21
-59.9
0
LINE
8
BLACK
6
CONTINUOUS
10
144.55
20
-59.9
11
144.55
21
-59.6
0
LINE
8
BLACK
6
CONTINUOUS
10
144.55
20
-59.6
11
146.45
21
-59.6
0
LINE
8
BLACK
6
CONTINUOUS
10
146.45
20
-59.6
11
146.45
21
-59.9
0
LINE
8
BLACK
6
CONTINUOUS
10
146.45
20
-59.4
11
144.55
21
-59.4
0
LINE
8
BLACK
6
CONTINUOUS
10
144.55
20
-59.4
11
144.55
21
-59.1
0
LINE
8
BLACK
6
CONTINUOUS
10
144.55
20
-59.1
11
146.45
21
-59.1
0
LINE
8
BLACK
6
CONTINUOUS
10
146.45
20
-59.1
11
146.45
21
-59.4
0
LINE
8
BLACK
6
CONTINUOUS
10
146.45
20
-58.9
11
144.55
21
-58.9
0
LINE
8
BLACK
6
CONTINUOUS
10
144.55
20
-58.9
11
144.55
21
-58.6
0
LINE
8
BLACK
6
CONTINUOUS
10
144.55
20
-58.6
11
146.45
21
-58.6
0
LINE
8
BLACK
6
CONTINUOUS
10
146.45
20
-58.6
11
146.45
21
-58.9
0
LINE
8
BLACK
6
CONTINUOUS
10
146.45
20
-58.4
11
144.55
21
-58.4
0
LINE
8
BLACK
6
CONTINUOUS
10
144.55
20
-58.4
11
144.55
21
-58.1
0
LINE
8
BLACK
6
CONTINUOUS
10
144.55
20
-58.1
11
146.45
21
-58.1
0
LINE
8
BLACK
6
CONTINUOUS
10
146.45
20
-58.1
11
146.45
21
-58.4
0
LINE
8
BLACK
6
CONTINUOUS
10
146.45
20
-57.9
11
144.55
21
-57.9
0
LINE
8
BLACK
6
CONTINUOUS
10
144.55
20
-57.9
11
144.55
21
-57.6
0
LINE
8
BLACK
6
CONTINUOUS
10
144.55
20
-57.6
11
146.45
21
-57.6
0
LINE
8
BLACK
6
CONTINUOUS
10
146.45
20
-57.6
11
146.45
21
-57.9
0
LINE
8
BLACK
6
CONTINUOUS
10
146.45
20
-57.4
11
144.55
21
-57.4
0
LINE
8
BLACK
6
CONTINUOUS
10
144.55
20
-57.4
11
144.55
21
-57.1
0
LINE
8
BLACK
6
CONTINUOUS
10
144.55
20
-57.1
11
146.45
21
-57.1
0
LINE
8
BLACK
6
CONTINUOUS
10
146.45
20
-57.1
11
146.45
21
-57.4
0
LINE
8
BLACK
6
CONTINUOUS
10
146.45
20
-56.9
11
144.55
21
-56.9
0
LINE
8
BLACK
6
CONTINUOUS
10
144.55
20
-56.9
11
144.55
21
-56.6
0
LINE
8
BLACK
6
CONTINUOUS
10
144.55
20
-56.6
11
146.45
21
-56.6
0
LINE
8
BLACK
6
CONTINUOUS
10
146.45
20
-56.6
11
146.45
21
-56.9
0
LINE
8
BLACK
6
CONTINUOUS
10
146.45
20
-56.4
11
144.55
21
-56.4
0
LINE
8
BLACK
6
CONTINUOUS
10
144.55
20
-56.4
11
144.55
21
-56.1
0
LINE
8
BLACK
6
CONTINUOUS
10
144.55
20
-56.1
11
146.45
21
-56.1
0
LINE
8
BLACK
6
CONTINUOUS
10
146.45
20
-56.1
11
146.45
21
-56.4
0
LINE
8
BLACK
6
CONTINUOUS
10
146.45
20
-55.9
11
144.55
21
-55.9
0
LINE
8
BLACK
6
CONTINUOUS
10
144.55
20
-55.9
11
144.55
21
-55.6
0
LINE
8
BLACK
6
CONTINUOUS
10
144.55
20
-55.6
11
146.45
21
-55.6
0
LINE
8
BLACK
6
CONTINUOUS
10
146.45
20
-55.6
11
146.45
21
-55.9
0
LINE
8
BLACK
6
CONTINUOUS
10
146.45
20
-55.4
11
144.55
21
-55.4
0
LINE
8
BLACK
6
CONTINUOUS
10
144.55
20
-55.4
11
144.55
21
-55.1
0
LINE
8
BLACK
6
CONTINUOUS
10
144.55
20
-55.1
11
146.45
21
-55.1
0
LINE
8
BLACK
6
CONTINUOUS
10
146.45
20
-55.1
11
146.45
21
-55.4
0
LINE
8
BLACK
6
CONTINUOUS
10
146.45
20
-54.9
11
144.55
21
-54.9
0
LINE
8
BLACK
6
CONTINUOUS
10
144.55
20
-54.9
11
144.55
21
-54.6
0
LINE
8
BLACK
6
CONTINUOUS
10
144.55
20
-54.6
11
146.45
21
-54.6
0
LINE
8
BLACK
6
CONTINUOUS
10
146.45
20
-54.6
11
146.45
21
-54.9
0
LINE
8
BLACK
6
CONTINUOUS
10
146.45
20
-54.4
11
144.55
21
-54.4
0
LINE
8
BLACK
6
CONTINUOUS
10
144.55
20
-54.4
11
144.55
21
-54.1
0
LINE
8
BLACK
6
CONTINUOUS
10
144.55
20
-54.1
11
146.45
21
-54.1
0
LINE
8
BLACK
6
CONTINUOUS
10
146.45
20
-54.1
11
146.45
21
-54.4
0
LINE
8
BLACK
6
CONTINUOUS
10
146.45
20
-53.9
11
144.55
21
-53.9
0
LINE
8
BLACK
6
CONTINUOUS
10
144.55
20
-53.9
11
144.55
21
-53.6
0
LINE
8
BLACK
6
CONTINUOUS
10
144.55
20
-53.6
11
146.45
21
-53.6
0
LINE
8
BLACK
6
CONTINUOUS
10
146.45
20
-53.6
11
146.45
21
-53.9
0
LINE
8
BLACK
6
CONTINUOUS
10
112.273
20
-53.7034
11
110.773
21
-53.7034
0
LINE
8
BLACK
6
CONTINUOUS
10
110.773
20
-53.7034
11
110.773
21
-52.4534
0
LINE
8
BLACK
6
CONTINUOUS
10
110.773
20
-52.4534
11
112.273
21
-52.4534
0
LINE
8
BLACK
6
CONTINUOUS
10
112.273
20
-52.4534
11
112.273
21
-53.7034
0
LINE
8
BLACK
6
CONTINUOUS
10
114.773
20
-53.7034
11
113.273
21
-53.7034
0
LINE
8
BLACK
6
CONTINUOUS
10
113.273
20
-53.7034
11
113.273
21
-52.4534
0
LINE
8
BLACK
6
CONTINUOUS
10
113.273
20
-52.4534
11
114.773
21
-52.4534
0
LINE
8
BLACK
6
CONTINUOUS
10
114.773
20
-52.4534
11
114.773
21
-53.7034
0
LINE
8
BLACK
6
CONTINUOUS
10
146.45
20
-53.4
11
144.55
21
-53.4
0
LINE
8
BLACK
6
CONTINUOUS
10
144.55
20
-53.4
11
144.55
21
-53.1
0
LINE
8
BLACK
6
CONTINUOUS
10
144.55
20
-53.1
11
146.45
21
-53.1
0
LINE
8
BLACK
6
CONTINUOUS
10
146.45
20
-53.1
11
146.45
21
-53.4
0
LINE
8
BLACK
6
CONTINUOUS
10
146.45
20
-52.9
11
144.55
21
-52.9
0
LINE
8
BLACK
6
CONTINUOUS
10
144.55
20
-52.9
11
144.55
21
-52.6
0
LINE
8
BLACK
6
CONTINUOUS
10
144.55
20
-52.6
11
146.45
21
-52.6
0
LINE
8
BLACK
6
CONTINUOUS
10
146.45
20
-52.6
11
146.45
21
-52.9
0
LINE
8
BLACK
6
CONTINUOUS
10
146.45
20
-52.4
11
144.55
21
-52.4
0
LINE
8
BLACK
6
CONTINUOUS
10
144.55
20
-52.4
11
144.55
21
-52.1
0
LINE
8
BLACK
6
CONTINUOUS
10
144.55
20
-52.1
11
146.45
21
-52.1
0
LINE
8
BLACK
6
CONTINUOUS
10
146.45
20
-52.1
11
146.45
21
-52.4
0
LINE
8
BLACK
6
CONTINUOUS
10
146.45
20
-51.9
11
144.55
21
-51.9
0
LINE
8
BLACK
6
CONTINUOUS
10
144.55
20
-51.9
11
144.55
21
-51.6
0
LINE
8
BLACK
6
CONTINUOUS
10
144.55
20
-51.6
11
146.45
21
-51.6
0
LINE
8
BLACK
6
CONTINUOUS
10
146.45
20
-51.6
11
146.45
21
-51.9
0
LINE
8
BLACK
6
CONTINUOUS
10
114.793
20
-51.6714
11
113.293
21
-51.6714
0
LINE
8
BLACK
6
CONTINUOUS
10
113.293
20
-51.6714
11
113.293
21
-50.4214
0
LINE
8
BLACK
6
CONTINUOUS
10
113.293
20
-50.4214
11
114.793
21
-50.4214
0
LINE
8
BLACK
6
CONTINUOUS
10
114.793
20
-50.4214
11
114.793
21
-51.6714
0
LINE
8
BLACK
6
CONTINUOUS
10
112.293
20
-51.6714
11
110.793
21
-51.6714
0
LINE
8
BLACK
6
CONTINUOUS
10
110.793
20
-51.6714
11
110.793
21
-50.4214
0
LINE
8
BLACK
6
CONTINUOUS
10
110.793
20
-50.4214
11
112.293
21
-50.4214
0
LINE
8
BLACK
6
CONTINUOUS
10
112.293
20
-50.4214
11
112.293
21
-51.6714
0
LINE
8
BLACK
6
CONTINUOUS
10
146.45
20
-51.4
11
144.55
21
-51.4
0
LINE
8
BLACK
6
CONTINUOUS
10
144.55
20
-51.4
11
144.55
21
-51.1
0
LINE
8
BLACK
6
CONTINUOUS
10
144.55
20
-51.1
11
146.45
21
-51.1
0
LINE
8
BLACK
6
CONTINUOUS
10
146.45
20
-51.1
11
146.45
21
-51.4
0
LINE
8
BLACK
6
CONTINUOUS
10
138.357
20
-43.9596
11
137.645
21
-43.9596
0
LINE
8
BLACK
6
CONTINUOUS
10
137.645
20
-43.9596
11
137.645
21
-39.7686
0
LINE
8
BLACK
6
CONTINUOUS
10
137.645
20
-39.7686
11
138.357
21
-39.7686
0
LINE
8
BLACK
6
CONTINUOUS
10
138.357
20
-39.7686
11
138.357
21
-43.9596
0
LINE
8
BLACK
6
CONTINUOUS
10
122.355
20
-43.9596
11
121.643
21
-43.9596
0
LINE
8
BLACK
6
CONTINUOUS
10
121.643
20
-43.9596
11
121.643
21
-39.7686
0
LINE
8
BLACK
6
CONTINUOUS
10
121.643
20
-39.7686
11
122.355
21
-39.7686
0
LINE
8
BLACK
6
CONTINUOUS
10
122.355
20
-39.7686
11
122.355
21
-43.9596
0
LINE
8
BLACK
6
CONTINUOUS
10
123.305
20
-40.7592
11
122.695
21
-40.7592
0
LINE
8
BLACK
6
CONTINUOUS
10
122.695
20
-40.7592
11
122.695
21
-38.7526
0
LINE
8
BLACK
6
CONTINUOUS
10
122.695
20
-38.7526
11
123.305
21
-38.7526
0
LINE
8
BLACK
6
CONTINUOUS
10
123.305
20
-38.7526
11
123.305
21
-40.7592
0
LINE
8
BLACK
6
CONTINUOUS
10
124.305
20
-40.7592
11
123.695
21
-40.7592
0
LINE
8
BLACK
6
CONTINUOUS
10
123.695
20
-40.7592
11
123.695
21
-38.7526
0
LINE
8
BLACK
6
CONTINUOUS
10
123.695
20
-38.7526
11
124.305
21
-38.7526
0
LINE
8
BLACK
6
CONTINUOUS
10
124.305
20
-38.7526
11
124.305
21
-40.7592
0
LINE
8
BLACK
6
CONTINUOUS
10
125.305
20
-40.7592
11
124.695
21
-40.7592
0
LINE
8
BLACK
6
CONTINUOUS
10
124.695
20
-40.7592
11
124.695
21
-38.7526
0
LINE
8
BLACK
6
CONTINUOUS
10
124.695
20
-38.7526
11
125.305
21
-38.7526
0
LINE
8
BLACK
6
CONTINUOUS
10
125.305
20
-38.7526
11
125.305
21
-40.7592
0
LINE
8
BLACK
6
CONTINUOUS
10
126.305
20
-40.7592
11
125.695
21
-40.7592
0
LINE
8
BLACK
6
CONTINUOUS
10
125.695
20
-40.7592
11
125.695
21
-38.7526
0
LINE
8
BLACK
6
CONTINUOUS
10
125.695
20
-38.7526
11
126.305
21
-38.7526
0
LINE
8
BLACK
6
CONTINUOUS
10
126.305
20
-38.7526
11
126.305
21
-40.7592
0
LINE
8
BLACK
6
CONTINUOUS
10
127.305
20
-40.7592
11
126.695
21
-40.7592
0
LINE
8
BLACK
6
CONTINUOUS
10
126.695
20
-40.7592
11
126.695
21
-38.7526
0
LINE
8
BLACK
6
CONTINUOUS
10
126.695
20
-38.7526
11
127.305
21
-38.7526
0
LINE
8
BLACK
6
CONTINUOUS
10
127.305
20
-38.7526
11
127.305
21
-40.7592
0
LINE
8
BLACK
6
CONTINUOUS
10
128.305
20
-40.7592
11
127.695
21
-40.7592
0
LINE
8
BLACK
6
CONTINUOUS
10
127.695
20
-40.7592
11
127.695
21
-38.7526
0
LINE
8
BLACK
6
CONTINUOUS
10
127.695
20
-38.7526
11
128.305
21
-38.7526
0
LINE
8
BLACK
6
CONTINUOUS
10
128.305
20
-38.7526
11
128.305
21
-40.7592
0
LINE
8
BLACK
6
CONTINUOUS
10
129.305
20
-40.7592
11
128.695
21
-40.7592
0
LINE
8
BLACK
6
CONTINUOUS
10
128.695
20
-40.7592
11
128.695
21
-38.7526
0
LINE
8
BLACK
6
CONTINUOUS
10
128.695
20
-38.7526
11
129.305
21
-38.7526
0
LINE
8
BLACK
6
CONTINUOUS
10
129.305
20
-38.7526
11
129.305
21
-40.7592
0
LINE
8
BLACK
6
CONTINUOUS
10
130.305
20
-40.7592
11
129.695
21
-40.7592
0
LINE
8
BLACK
6
CONTINUOUS
10
129.695
20
-40.7592
11
129.695
21
-38.7526
0
LINE
8
BLACK
6
CONTINUOUS
10
129.695
20
-38.7526
11
130.305
21
-38.7526
0
LINE
8
BLACK
6
CONTINUOUS
10
130.305
20
-38.7526
11
130.305
21
-40.7592
0
LINE
8
BLACK
6
CONTINUOUS
10
131.305
20
-40.7592
11
130.695
21
-40.7592
0
LINE
8
BLACK
6
CONTINUOUS
10
130.695
20
-40.7592
11
130.695
21
-38.7526
0
LINE
8
BLACK
6
CONTINUOUS
10
130.695
20
-38.7526
11
131.305
21
-38.7526
0
LINE
8
BLACK
6
CONTINUOUS
10
131.305
20
-38.7526
11
131.305
21
-40.7592
0
LINE
8
BLACK
6
CONTINUOUS
10
132.305
20
-40.7592
11
131.695
21
-40.7592
0
LINE
8
BLACK
6
CONTINUOUS
10
131.695
20
-40.7592
11
131.695
21
-38.7526
0
LINE
8
BLACK
6
CONTINUOUS
10
131.695
20
-38.7526
11
132.305
21
-38.7526
0
LINE
8
BLACK
6
CONTINUOUS
10
132.305
20
-38.7526
11
132.305
21
-40.7592
0
LINE
8
BLACK
6
CONTINUOUS
10
133.305
20
-40.7592
11
132.695
21
-40.7592
0
LINE
8
BLACK
6
CONTINUOUS
10
132.695
20
-40.7592
11
132.695
21
-38.7526
0
LINE
8
BLACK
6
CONTINUOUS
10
132.695
20
-38.7526
11
133.305
21
-38.7526
0
LINE
8
BLACK
6
CONTINUOUS
10
133.305
20
-38.7526
11
133.305
21
-40.7592
0
LINE
8
BLACK
6
CONTINUOUS
10
134.305
20
-40.7592
11
133.695
21
-40.7592
0
LINE
8
BLACK
6
CONTINUOUS
10
133.695
20
-40.7592
11
133.695
21
-38.7526
0
LINE
8
BLACK
6
CONTINUOUS
10
133.695
20
-38.7526
11
134.305
21
-38.7526
0
LINE
8
BLACK
6
CONTINUOUS
10
134.305
20
-38.7526
11
134.305
21
-40.7592
0
LINE
8
BLACK
6
CONTINUOUS
10
135.305
20
-40.7592
11
134.695
21
-40.7592
0
LINE
8
BLACK
6
CONTINUOUS
10
134.695
20
-40.7592
11
134.695
21
-38.7526
0
LINE
8
BLACK
6
CONTINUOUS
10
134.695
20
-38.7526
11
135.305
21
-38.7526
0
LINE
8
BLACK
6
CONTINUOUS
10
135.305
20
-38.7526
11
135.305
21
-40.7592
0
LINE
8
BLACK
6
CONTINUOUS
10
136.305
20
-40.7592
11
135.695
21
-40.7592
0
LINE
8
BLACK
6
CONTINUOUS
10
135.695
20
-40.7592
11
135.695
21
-38.7526
0
LINE
8
BLACK
6
CONTINUOUS
10
135.695
20
-38.7526
11
136.305
21
-38.7526
0
LINE
8
BLACK
6
CONTINUOUS
10
136.305
20
-38.7526
11
136.305
21
-40.7592
0
LINE
8
BLACK
6
CONTINUOUS
10
137.305
20
-40.7592
11
136.695
21
-40.7592
0
LINE
8
BLACK
6
CONTINUOUS
10
136.695
20
-40.7592
11
136.695
21
-38.7526
0
LINE
8
BLACK
6
CONTINUOUS
10
136.695
20
-38.7526
11
137.305
21
-38.7526
0
LINE
8
BLACK
6
CONTINUOUS
10
137.305
20
-38.7526
11
137.305
21
-40.7592
  0
ENDSEC
  0
EOF
