  0
SECTION
  2
HEADER
  9
$ANGBASE
  50
0.0
  9
$ANGDIR
  70
  1
  9
$MEASUREMENT
  70
0
  0
ENDSEC
  0
SECTION
  2
TABLES
  0
TABLE
  2
LTYPE
  70
4
  0
LTYPE
  5
40F
  2
CONTINUOUS
  70
0
  3
Solid line
  72
65
  73
0
  40
0.0
  0
LTYPE
  5
410
  2
DASHDOT
 70
0
  3
Dash Dot ____ _ ____ _
 72
65
 73
4
 40
2.0
 49
1.25
 49
-0.25
 49
0.25
 49
-0.25
  0
LTYPE
  5
411
  2
DASHED
 70
0
  3
Dashed __ __ __ __ __
 72
65
 73
2
 40
0.75
 49
0.5
 49
-0.25
  0
LTYPE
  5
43B
  2
DOTTED
 70
0
  3
Dotted .  .  .  .
 72
65
 73
2
 40
0.2
 49
0.0
 49
-0.2
  0
ENDTAB
  0
TABLE
  2
STYLE
  70
4
  0
STYLE
  2
KICAD
  70
0
  40
0
  41
1
  42
1
  50
0
  71
0
  3
isocp.shx
  0
STYLE
  2
KICADB
  70
0
  40
0
  41
1
  42
1
  50
0
  71
0
  3
isocp.shx
  0
STYLE
  2
KICADI
  70
0
  40
0
  41
1
  42
1
  50
15
  71
0
  3
isocp.shx
  0
STYLE
  2
KICADBI
  70
0
  40
0
  41
1
  42
1
  50
15
  71
0
  3
isocp.shx
  0
ENDTAB
  0
TABLE
  2
LAYER
  70
30
  0
LAYER
  2
BLACK
  70
0
  62
7
  6
CONTINUOUS
  0
LAYER
  2
GRAY1
  70
0
  62
251
  6
CONTINUOUS
  0
LAYER
  2
GRAY2
  70
0
  62
8
  6
CONTINUOUS
  0
LAYER
  2
GRAY3
  70
0
  62
9
  6
CONTINUOUS
  0
LAYER
  2
WHITE
  70
0
  62
7
  6
CONTINUOUS
  0
LAYER
  2
LYELLOW
  70
0
  62
51
  6
CONTINUOUS
  0
LAYER
  2
BLUE1
  70
0
  62
178
  6
CONTINUOUS
  0
LAYER
  2
GREEN1
  70
0
  62
98
  6
CONTINUOUS
  0
LAYER
  2
CYAN1
  70
0
  62
138
  6
CONTINUOUS
  0
LAYER
  2
RED1
  70
0
  62
18
  6
CONTINUOUS
  0
LAYER
  2
MAGENTA1
  70
0
  62
228
  6
CONTINUOUS
  0
LAYER
  2
BROWN1
  70
0
  62
58
  6
CONTINUOUS
  0
LAYER
  2
BLUE2
  70
0
  62
5
  6
CONTINUOUS
  0
LAYER
  2
GREEN2
  70
0
  62
3
  6
CONTINUOUS
  0
LAYER
  2
CYAN2
  70
0
  62
4
  6
CONTINUOUS
  0
LAYER
  2
RED2
  70
0
  62
1
  6
CONTINUOUS
  0
LAYER
  2
MAGENTA2
  70
0
  62
6
  6
CONTINUOUS
  0
LAYER
  2
BROWN2
  70
0
  62
54
  6
CONTINUOUS
  0
LAYER
  2
BLUE3
  70
0
  62
171
  6
CONTINUOUS
  0
LAYER
  2
GREEN3
  70
0
  62
91
  6
CONTINUOUS
  0
LAYER
  2
CYAN3
  70
0
  62
131
  6
CONTINUOUS
  0
LAYER
  2
RED3
  70
0
  62
11
  6
CONTINUOUS
  0
LAYER
  2
MAGENTA3
  70
0
  62
221
  6
CONTINUOUS
  0
LAYER
  2
YELLOW3
  70
0
  62
2
  6
CONTINUOUS
  0
LAYER
  2
BLUE4
  70
0
  62
5
  6
CONTINUOUS
  0
LAYER
  2
GREEN4
  70
0
  62
3
  6
CONTINUOUS
  0
LAYER
  2
CYAN4
  70
0
  62
4
  6
CONTINUOUS
  0
LAYER
  2
RED4
  70
0
  62
1
  6
CONTINUOUS
  0
LAYER
  2
MAGENTA4
  70
0
  62
6
  6
CONTINUOUS
  0
LAYER
  2
YELLOW4
  70
0
  62
2
  6
CONTINUOUS
  0
ENDTAB
  0
ENDSEC
  0
SECTION
  2
ENTITIES
0
LINE
8
BLACK
6
CONTINUOUS
10
105.065
20
-90.8189
11
105.325
21
-90.9688
0
LINE
8
BLACK
6
CONTINUOUS
10
105.325
20
-90.9688
11
105.517
21
-91.1984
0
LINE
8
BLACK
6
CONTINUOUS
10
105.517
20
-91.1984
11
105.62
21
-91.4801
0
LINE
8
BLACK
6
CONTINUOUS
10
105.62
20
-91.4801
11
105.62
21
-91.7799
0
LINE
8
BLACK
6
CONTINUOUS
10
105.62
20
-91.7799
11
105.517
21
-92.0616
0
LINE
8
BLACK
6
CONTINUOUS
10
105.517
20
-92.0616
11
105.325
21
-92.2912
0
LINE
8
BLACK
6
CONTINUOUS
10
105.325
20
-92.2912
11
105.065
21
-92.4411
0
LINE
8
BLACK
6
CONTINUOUS
10
105.065
20
-92.4411
11
104.844
21
-92.48
0
LINE
8
BLACK
6
CONTINUOUS
10
104.844
20
-92.48
11
104.696
21
-92.48
0
LINE
8
BLACK
6
CONTINUOUS
10
104.696
20
-92.48
11
104.475
21
-92.4411
0
LINE
8
BLACK
6
CONTINUOUS
10
104.475
20
-92.4411
11
104.215
21
-92.2912
0
LINE
8
BLACK
6
CONTINUOUS
10
104.215
20
-92.2912
11
104.023
21
-92.0616
0
LINE
8
BLACK
6
CONTINUOUS
10
104.023
20
-92.0616
11
103.92
21
-91.7799
0
LINE
8
BLACK
6
CONTINUOUS
10
103.92
20
-91.7799
11
103.92
21
-91.4801
0
LINE
8
BLACK
6
CONTINUOUS
10
103.92
20
-91.4801
11
104.023
21
-91.1984
0
LINE
8
BLACK
6
CONTINUOUS
10
104.023
20
-91.1984
11
104.215
21
-90.9688
0
LINE
8
BLACK
6
CONTINUOUS
10
104.215
20
-90.9688
11
104.475
21
-90.8189
0
LINE
8
BLACK
6
CONTINUOUS
10
104.475
20
-90.8189
11
104.696
21
-90.78
0
LINE
8
BLACK
6
CONTINUOUS
10
104.696
20
-90.78
11
104.844
21
-90.78
0
LINE
8
BLACK
6
CONTINUOUS
10
104.844
20
-90.78
11
105.065
21
-90.8189
0
LINE
8
BLACK
6
CONTINUOUS
10
102.525
20
-90.8189
11
102.785
21
-90.9688
0
LINE
8
BLACK
6
CONTINUOUS
10
102.785
20
-90.9688
11
102.977
21
-91.1984
0
LINE
8
BLACK
6
CONTINUOUS
10
102.977
20
-91.1984
11
103.08
21
-91.4801
0
LINE
8
BLACK
6
CONTINUOUS
10
103.08
20
-91.4801
11
103.08
21
-91.7799
0
LINE
8
BLACK
6
CONTINUOUS
10
103.08
20
-91.7799
11
102.977
21
-92.0616
0
LINE
8
BLACK
6
CONTINUOUS
10
102.977
20
-92.0616
11
102.785
21
-92.2912
0
LINE
8
BLACK
6
CONTINUOUS
10
102.785
20
-92.2912
11
102.525
21
-92.4411
0
LINE
8
BLACK
6
CONTINUOUS
10
102.525
20
-92.4411
11
102.304
21
-92.48
0
LINE
8
BLACK
6
CONTINUOUS
10
102.304
20
-92.48
11
102.156
21
-92.48
0
LINE
8
BLACK
6
CONTINUOUS
10
102.156
20
-92.48
11
101.935
21
-92.4411
0
LINE
8
BLACK
6
CONTINUOUS
10
101.935
20
-92.4411
11
101.675
21
-92.2912
0
LINE
8
BLACK
6
CONTINUOUS
10
101.675
20
-92.2912
11
101.483
21
-92.0616
0
LINE
8
BLACK
6
CONTINUOUS
10
101.483
20
-92.0616
11
101.38
21
-91.7799
0
LINE
8
BLACK
6
CONTINUOUS
10
101.38
20
-91.7799
11
101.38
21
-91.4801
0
LINE
8
BLACK
6
CONTINUOUS
10
101.38
20
-91.4801
11
101.483
21
-91.1984
0
LINE
8
BLACK
6
CONTINUOUS
10
101.483
20
-91.1984
11
101.675
21
-90.9688
0
LINE
8
BLACK
6
CONTINUOUS
10
101.675
20
-90.9688
11
101.935
21
-90.8189
0
LINE
8
BLACK
6
CONTINUOUS
10
101.935
20
-90.8189
11
102.156
21
-90.78
0
LINE
8
BLACK
6
CONTINUOUS
10
102.156
20
-90.78
11
102.304
21
-90.78
0
LINE
8
BLACK
6
CONTINUOUS
10
102.304
20
-90.78
11
102.525
21
-90.8189
0
LINE
8
BLACK
6
CONTINUOUS
10
105.065
20
-88.2789
11
105.325
21
-88.4288
0
LINE
8
BLACK
6
CONTINUOUS
10
105.325
20
-88.4288
11
105.517
21
-88.6584
0
LINE
8
BLACK
6
CONTINUOUS
10
105.517
20
-88.6584
11
105.62
21
-88.9401
0
LINE
8
BLACK
6
CONTINUOUS
10
105.62
20
-88.9401
11
105.62
21
-89.2399
0
LINE
8
BLACK
6
CONTINUOUS
10
105.62
20
-89.2399
11
105.517
21
-89.5216
0
LINE
8
BLACK
6
CONTINUOUS
10
105.517
20
-89.5216
11
105.325
21
-89.7512
0
LINE
8
BLACK
6
CONTINUOUS
10
105.325
20
-89.7512
11
105.065
21
-89.9011
0
LINE
8
BLACK
6
CONTINUOUS
10
105.065
20
-89.9011
11
104.844
21
-89.94
0
LINE
8
BLACK
6
CONTINUOUS
10
104.844
20
-89.94
11
104.696
21
-89.94
0
LINE
8
BLACK
6
CONTINUOUS
10
104.696
20
-89.94
11
104.475
21
-89.9011
0
LINE
8
BLACK
6
CONTINUOUS
10
104.475
20
-89.9011
11
104.215
21
-89.7512
0
LINE
8
BLACK
6
CONTINUOUS
10
104.215
20
-89.7512
11
104.023
21
-89.5216
0
LINE
8
BLACK
6
CONTINUOUS
10
104.023
20
-89.5216
11
103.92
21
-89.2399
0
LINE
8
BLACK
6
CONTINUOUS
10
103.92
20
-89.2399
11
103.92
21
-88.9401
0
LINE
8
BLACK
6
CONTINUOUS
10
103.92
20
-88.9401
11
104.023
21
-88.6584
0
LINE
8
BLACK
6
CONTINUOUS
10
104.023
20
-88.6584
11
104.215
21
-88.4288
0
LINE
8
BLACK
6
CONTINUOUS
10
104.215
20
-88.4288
11
104.475
21
-88.2789
0
LINE
8
BLACK
6
CONTINUOUS
10
104.475
20
-88.2789
11
104.696
21
-88.24
0
LINE
8
BLACK
6
CONTINUOUS
10
104.696
20
-88.24
11
104.844
21
-88.24
0
LINE
8
BLACK
6
CONTINUOUS
10
104.844
20
-88.24
11
105.065
21
-88.2789
0
LINE
8
BLACK
6
CONTINUOUS
10
102.525
20
-88.2789
11
102.785
21
-88.4288
0
LINE
8
BLACK
6
CONTINUOUS
10
102.785
20
-88.4288
11
102.977
21
-88.6584
0
LINE
8
BLACK
6
CONTINUOUS
10
102.977
20
-88.6584
11
103.08
21
-88.9401
0
LINE
8
BLACK
6
CONTINUOUS
10
103.08
20
-88.9401
11
103.08
21
-89.2399
0
LINE
8
BLACK
6
CONTINUOUS
10
103.08
20
-89.2399
11
102.977
21
-89.5216
0
LINE
8
BLACK
6
CONTINUOUS
10
102.977
20
-89.5216
11
102.785
21
-89.7512
0
LINE
8
BLACK
6
CONTINUOUS
10
102.785
20
-89.7512
11
102.525
21
-89.9011
0
LINE
8
BLACK
6
CONTINUOUS
10
102.525
20
-89.9011
11
102.304
21
-89.94
0
LINE
8
BLACK
6
CONTINUOUS
10
102.304
20
-89.94
11
102.156
21
-89.94
0
LINE
8
BLACK
6
CONTINUOUS
10
102.156
20
-89.94
11
101.935
21
-89.9011
0
LINE
8
BLACK
6
CONTINUOUS
10
101.935
20
-89.9011
11
101.675
21
-89.7512
0
LINE
8
BLACK
6
CONTINUOUS
10
101.675
20
-89.7512
11
101.483
21
-89.5216
0
LINE
8
BLACK
6
CONTINUOUS
10
101.483
20
-89.5216
11
101.38
21
-89.2399
0
LINE
8
BLACK
6
CONTINUOUS
10
101.38
20
-89.2399
11
101.38
21
-88.9401
0
LINE
8
BLACK
6
CONTINUOUS
10
101.38
20
-88.9401
11
101.483
21
-88.6584
0
LINE
8
BLACK
6
CONTINUOUS
10
101.483
20
-88.6584
11
101.675
21
-88.4288
0
LINE
8
BLACK
6
CONTINUOUS
10
101.675
20
-88.4288
11
101.935
21
-88.2789
0
LINE
8
BLACK
6
CONTINUOUS
10
101.935
20
-88.2789
11
102.156
21
-88.24
0
LINE
8
BLACK
6
CONTINUOUS
10
102.156
20
-88.24
11
102.304
21
-88.24
0
LINE
8
BLACK
6
CONTINUOUS
10
102.304
20
-88.24
11
102.525
21
-88.2789
0
LINE
8
BLACK
6
CONTINUOUS
10
151.739
20
-85.9197
11
152.036
21
-86.0916
0
LINE
8
BLACK
6
CONTINUOUS
10
152.036
20
-86.0916
11
152.257
21
-86.355
0
LINE
8
BLACK
6
CONTINUOUS
10
152.257
20
-86.355
11
152.375
21
-86.6781
0
LINE
8
BLACK
6
CONTINUOUS
10
152.375
20
-86.6781
11
152.375
21
-87.0219
0
LINE
8
BLACK
6
CONTINUOUS
10
152.375
20
-87.0219
11
152.257
21
-87.345
0
LINE
8
BLACK
6
CONTINUOUS
10
152.257
20
-87.345
11
152.036
21
-87.6084
0
LINE
8
BLACK
6
CONTINUOUS
10
152.036
20
-87.6084
11
151.739
21
-87.7803
0
LINE
8
BLACK
6
CONTINUOUS
10
151.739
20
-87.7803
11
151.4
21
-87.84
0
LINE
8
BLACK
6
CONTINUOUS
10
151.4
20
-87.84
11
151.061
21
-87.7803
0
LINE
8
BLACK
6
CONTINUOUS
10
151.061
20
-87.7803
11
150.764
21
-87.6084
0
LINE
8
BLACK
6
CONTINUOUS
10
150.764
20
-87.6084
11
150.543
21
-87.345
0
LINE
8
BLACK
6
CONTINUOUS
10
150.543
20
-87.345
11
150.425
21
-87.0219
0
LINE
8
BLACK
6
CONTINUOUS
10
150.425
20
-87.0219
11
150.425
21
-86.6781
0
LINE
8
BLACK
6
CONTINUOUS
10
150.425
20
-86.6781
11
150.543
21
-86.355
0
LINE
8
BLACK
6
CONTINUOUS
10
150.543
20
-86.355
11
150.764
21
-86.0916
0
LINE
8
BLACK
6
CONTINUOUS
10
150.764
20
-86.0916
11
151.061
21
-85.9197
0
LINE
8
BLACK
6
CONTINUOUS
10
151.061
20
-85.9197
11
151.4
21
-85.86
0
LINE
8
BLACK
6
CONTINUOUS
10
151.4
20
-85.86
11
151.739
21
-85.9197
0
LINE
8
BLACK
6
CONTINUOUS
10
114.284
20
-86.0803
11
114.534
21
-86.2245
0
LINE
8
BLACK
6
CONTINUOUS
10
114.534
20
-86.2245
11
114.719
21
-86.4453
0
LINE
8
BLACK
6
CONTINUOUS
10
114.719
20
-86.4453
11
114.817
21
-86.7162
0
LINE
8
BLACK
6
CONTINUOUS
10
114.817
20
-86.7162
11
114.817
21
-87.0045
0
LINE
8
BLACK
6
CONTINUOUS
10
114.817
20
-87.0045
11
114.719
21
-87.2754
0
LINE
8
BLACK
6
CONTINUOUS
10
114.719
20
-87.2754
11
114.534
21
-87.4963
0
LINE
8
BLACK
6
CONTINUOUS
10
114.534
20
-87.4963
11
114.284
21
-87.6404
0
LINE
8
BLACK
6
CONTINUOUS
10
114.284
20
-87.6404
11
114
21
-87.6905
0
LINE
8
BLACK
6
CONTINUOUS
10
114
20
-87.6905
11
113.716
21
-87.6404
0
LINE
8
BLACK
6
CONTINUOUS
10
113.716
20
-87.6404
11
113.466
21
-87.4963
0
LINE
8
BLACK
6
CONTINUOUS
10
113.466
20
-87.4963
11
113.281
21
-87.2754
0
LINE
8
BLACK
6
CONTINUOUS
10
113.281
20
-87.2754
11
113.182
21
-87.0045
0
LINE
8
BLACK
6
CONTINUOUS
10
113.182
20
-87.0045
11
113.182
21
-86.7162
0
LINE
8
BLACK
6
CONTINUOUS
10
113.182
20
-86.7162
11
113.281
21
-86.4453
0
LINE
8
BLACK
6
CONTINUOUS
10
113.281
20
-86.4453
11
113.466
21
-86.2245
0
LINE
8
BLACK
6
CONTINUOUS
10
113.466
20
-86.2245
11
113.716
21
-86.0803
0
LINE
8
BLACK
6
CONTINUOUS
10
113.716
20
-86.0803
11
114
21
-86.0303
0
LINE
8
BLACK
6
CONTINUOUS
10
114
20
-86.0303
11
114.284
21
-86.0803
0
LINE
8
BLACK
6
CONTINUOUS
10
112.277
20
-87.6779
11
110.642
21
-87.6779
0
LINE
8
BLACK
6
CONTINUOUS
10
110.642
20
-87.6779
11
110.642
21
-86.0429
0
LINE
8
BLACK
6
CONTINUOUS
10
110.642
20
-86.0429
11
112.277
21
-86.0429
0
LINE
8
BLACK
6
CONTINUOUS
10
112.277
20
-86.0429
11
112.277
21
-87.6779
0
LINE
8
BLACK
6
CONTINUOUS
10
102.525
20
-85.7389
11
102.785
21
-85.8888
0
LINE
8
BLACK
6
CONTINUOUS
10
102.785
20
-85.8888
11
102.977
21
-86.1184
0
LINE
8
BLACK
6
CONTINUOUS
10
102.977
20
-86.1184
11
103.08
21
-86.4001
0
LINE
8
BLACK
6
CONTINUOUS
10
103.08
20
-86.4001
11
103.08
21
-86.6999
0
LINE
8
BLACK
6
CONTINUOUS
10
103.08
20
-86.6999
11
102.977
21
-86.9816
0
LINE
8
BLACK
6
CONTINUOUS
10
102.977
20
-86.9816
11
102.785
21
-87.2112
0
LINE
8
BLACK
6
CONTINUOUS
10
102.785
20
-87.2112
11
102.525
21
-87.3611
0
LINE
8
BLACK
6
CONTINUOUS
10
102.525
20
-87.3611
11
102.304
21
-87.4
0
LINE
8
BLACK
6
CONTINUOUS
10
102.304
20
-87.4
11
102.156
21
-87.4
0
LINE
8
BLACK
6
CONTINUOUS
10
102.156
20
-87.4
11
101.935
21
-87.3611
0
LINE
8
BLACK
6
CONTINUOUS
10
101.935
20
-87.3611
11
101.675
21
-87.2112
0
LINE
8
BLACK
6
CONTINUOUS
10
101.675
20
-87.2112
11
101.483
21
-86.9816
0
LINE
8
BLACK
6
CONTINUOUS
10
101.483
20
-86.9816
11
101.38
21
-86.6999
0
LINE
8
BLACK
6
CONTINUOUS
10
101.38
20
-86.6999
11
101.38
21
-86.4001
0
LINE
8
BLACK
6
CONTINUOUS
10
101.38
20
-86.4001
11
101.483
21
-86.1184
0
LINE
8
BLACK
6
CONTINUOUS
10
101.483
20
-86.1184
11
101.675
21
-85.8888
0
LINE
8
BLACK
6
CONTINUOUS
10
101.675
20
-85.8888
11
101.935
21
-85.7389
0
LINE
8
BLACK
6
CONTINUOUS
10
101.935
20
-85.7389
11
102.156
21
-85.7
0
LINE
8
BLACK
6
CONTINUOUS
10
102.156
20
-85.7
11
102.304
21
-85.7
0
LINE
8
BLACK
6
CONTINUOUS
10
102.304
20
-85.7
11
102.525
21
-85.7389
0
LINE
8
BLACK
6
CONTINUOUS
10
105.065
20
-85.7389
11
105.325
21
-85.8888
0
LINE
8
BLACK
6
CONTINUOUS
10
105.325
20
-85.8888
11
105.517
21
-86.1184
0
LINE
8
BLACK
6
CONTINUOUS
10
105.517
20
-86.1184
11
105.62
21
-86.4001
0
LINE
8
BLACK
6
CONTINUOUS
10
105.62
20
-86.4001
11
105.62
21
-86.6999
0
LINE
8
BLACK
6
CONTINUOUS
10
105.62
20
-86.6999
11
105.517
21
-86.9816
0
LINE
8
BLACK
6
CONTINUOUS
10
105.517
20
-86.9816
11
105.325
21
-87.2112
0
LINE
8
BLACK
6
CONTINUOUS
10
105.325
20
-87.2112
11
105.065
21
-87.3611
0
LINE
8
BLACK
6
CONTINUOUS
10
105.065
20
-87.3611
11
104.844
21
-87.4
0
LINE
8
BLACK
6
CONTINUOUS
10
104.844
20
-87.4
11
104.696
21
-87.4
0
LINE
8
BLACK
6
CONTINUOUS
10
104.696
20
-87.4
11
104.475
21
-87.3611
0
LINE
8
BLACK
6
CONTINUOUS
10
104.475
20
-87.3611
11
104.215
21
-87.2112
0
LINE
8
BLACK
6
CONTINUOUS
10
104.215
20
-87.2112
11
104.023
21
-86.9816
0
LINE
8
BLACK
6
CONTINUOUS
10
104.023
20
-86.9816
11
103.92
21
-86.6999
0
LINE
8
BLACK
6
CONTINUOUS
10
103.92
20
-86.6999
11
103.92
21
-86.4001
0
LINE
8
BLACK
6
CONTINUOUS
10
103.92
20
-86.4001
11
104.023
21
-86.1184
0
LINE
8
BLACK
6
CONTINUOUS
10
104.023
20
-86.1184
11
104.215
21
-85.8888
0
LINE
8
BLACK
6
CONTINUOUS
10
104.215
20
-85.8888
11
104.475
21
-85.7389
0
LINE
8
BLACK
6
CONTINUOUS
10
104.475
20
-85.7389
11
104.696
21
-85.7
0
LINE
8
BLACK
6
CONTINUOUS
10
104.696
20
-85.7
11
104.844
21
-85.7
0
LINE
8
BLACK
6
CONTINUOUS
10
104.844
20
-85.7
11
105.065
21
-85.7389
0
LINE
8
BLACK
6
CONTINUOUS
10
146.839
20
-85.3197
11
147.136
21
-85.4916
0
LINE
8
BLACK
6
CONTINUOUS
10
147.136
20
-85.4916
11
147.357
21
-85.755
0
LINE
8
BLACK
6
CONTINUOUS
10
147.357
20
-85.755
11
147.475
21
-86.0781
0
LINE
8
BLACK
6
CONTINUOUS
10
147.475
20
-86.0781
11
147.475
21
-86.4219
0
LINE
8
BLACK
6
CONTINUOUS
10
147.475
20
-86.4219
11
147.357
21
-86.745
0
LINE
8
BLACK
6
CONTINUOUS
10
147.357
20
-86.745
11
147.136
21
-87.0084
0
LINE
8
BLACK
6
CONTINUOUS
10
147.136
20
-87.0084
11
146.839
21
-87.1803
0
LINE
8
BLACK
6
CONTINUOUS
10
146.839
20
-87.1803
11
146.5
21
-87.24
0
LINE
8
BLACK
6
CONTINUOUS
10
146.5
20
-87.24
11
146.161
21
-87.1803
0
LINE
8
BLACK
6
CONTINUOUS
10
146.161
20
-87.1803
11
145.864
21
-87.0084
0
LINE
8
BLACK
6
CONTINUOUS
10
145.864
20
-87.0084
11
145.643
21
-86.745
0
LINE
8
BLACK
6
CONTINUOUS
10
145.643
20
-86.745
11
145.525
21
-86.4219
0
LINE
8
BLACK
6
CONTINUOUS
10
145.525
20
-86.4219
11
145.525
21
-86.0781
0
LINE
8
BLACK
6
CONTINUOUS
10
145.525
20
-86.0781
11
145.643
21
-85.755
0
LINE
8
BLACK
6
CONTINUOUS
10
145.643
20
-85.755
11
145.864
21
-85.4916
0
LINE
8
BLACK
6
CONTINUOUS
10
145.864
20
-85.4916
11
146.161
21
-85.3197
0
LINE
8
BLACK
6
CONTINUOUS
10
146.161
20
-85.3197
11
146.5
21
-85.26
0
LINE
8
BLACK
6
CONTINUOUS
10
146.5
20
-85.26
11
146.839
21
-85.3197
0
LINE
8
BLACK
6
CONTINUOUS
10
105.065
20
-83.1989
11
105.325
21
-83.3488
0
LINE
8
BLACK
6
CONTINUOUS
10
105.325
20
-83.3488
11
105.517
21
-83.5784
0
LINE
8
BLACK
6
CONTINUOUS
10
105.517
20
-83.5784
11
105.62
21
-83.8601
0
LINE
8
BLACK
6
CONTINUOUS
10
105.62
20
-83.8601
11
105.62
21
-84.1599
0
LINE
8
BLACK
6
CONTINUOUS
10
105.62
20
-84.1599
11
105.517
21
-84.4416
0
LINE
8
BLACK
6
CONTINUOUS
10
105.517
20
-84.4416
11
105.325
21
-84.6712
0
LINE
8
BLACK
6
CONTINUOUS
10
105.325
20
-84.6712
11
105.065
21
-84.8211
0
LINE
8
BLACK
6
CONTINUOUS
10
105.065
20
-84.8211
11
104.844
21
-84.86
0
LINE
8
BLACK
6
CONTINUOUS
10
104.844
20
-84.86
11
104.696
21
-84.86
0
LINE
8
BLACK
6
CONTINUOUS
10
104.696
20
-84.86
11
104.475
21
-84.8211
0
LINE
8
BLACK
6
CONTINUOUS
10
104.475
20
-84.8211
11
104.215
21
-84.6712
0
LINE
8
BLACK
6
CONTINUOUS
10
104.215
20
-84.6712
11
104.023
21
-84.4416
0
LINE
8
BLACK
6
CONTINUOUS
10
104.023
20
-84.4416
11
103.92
21
-84.1599
0
LINE
8
BLACK
6
CONTINUOUS
10
103.92
20
-84.1599
11
103.92
21
-83.8601
0
LINE
8
BLACK
6
CONTINUOUS
10
103.92
20
-83.8601
11
104.023
21
-83.5784
0
LINE
8
BLACK
6
CONTINUOUS
10
104.023
20
-83.5784
11
104.215
21
-83.3488
0
LINE
8
BLACK
6
CONTINUOUS
10
104.215
20
-83.3488
11
104.475
21
-83.1989
0
LINE
8
BLACK
6
CONTINUOUS
10
104.475
20
-83.1989
11
104.696
21
-83.16
0
LINE
8
BLACK
6
CONTINUOUS
10
104.696
20
-83.16
11
104.844
21
-83.16
0
LINE
8
BLACK
6
CONTINUOUS
10
104.844
20
-83.16
11
105.065
21
-83.1989
0
LINE
8
BLACK
6
CONTINUOUS
10
102.525
20
-83.1989
11
102.785
21
-83.3488
0
LINE
8
BLACK
6
CONTINUOUS
10
102.785
20
-83.3488
11
102.977
21
-83.5784
0
LINE
8
BLACK
6
CONTINUOUS
10
102.977
20
-83.5784
11
103.08
21
-83.8601
0
LINE
8
BLACK
6
CONTINUOUS
10
103.08
20
-83.8601
11
103.08
21
-84.1599
0
LINE
8
BLACK
6
CONTINUOUS
10
103.08
20
-84.1599
11
102.977
21
-84.4416
0
LINE
8
BLACK
6
CONTINUOUS
10
102.977
20
-84.4416
11
102.785
21
-84.6712
0
LINE
8
BLACK
6
CONTINUOUS
10
102.785
20
-84.6712
11
102.525
21
-84.8211
0
LINE
8
BLACK
6
CONTINUOUS
10
102.525
20
-84.8211
11
102.304
21
-84.86
0
LINE
8
BLACK
6
CONTINUOUS
10
102.304
20
-84.86
11
102.156
21
-84.86
0
LINE
8
BLACK
6
CONTINUOUS
10
102.156
20
-84.86
11
101.935
21
-84.8211
0
LINE
8
BLACK
6
CONTINUOUS
10
101.935
20
-84.8211
11
101.675
21
-84.6712
0
LINE
8
BLACK
6
CONTINUOUS
10
101.675
20
-84.6712
11
101.483
21
-84.4416
0
LINE
8
BLACK
6
CONTINUOUS
10
101.483
20
-84.4416
11
101.38
21
-84.1599
0
LINE
8
BLACK
6
CONTINUOUS
10
101.38
20
-84.1599
11
101.38
21
-83.8601
0
LINE
8
BLACK
6
CONTINUOUS
10
101.38
20
-83.8601
11
101.483
21
-83.5784
0
LINE
8
BLACK
6
CONTINUOUS
10
101.483
20
-83.5784
11
101.675
21
-83.3488
0
LINE
8
BLACK
6
CONTINUOUS
10
101.675
20
-83.3488
11
101.935
21
-83.1989
0
LINE
8
BLACK
6
CONTINUOUS
10
101.935
20
-83.1989
11
102.156
21
-83.16
0
LINE
8
BLACK
6
CONTINUOUS
10
102.156
20
-83.16
11
102.304
21
-83.16
0
LINE
8
BLACK
6
CONTINUOUS
10
102.304
20
-83.16
11
102.525
21
-83.1989
0
LINE
8
BLACK
6
CONTINUOUS
10
105.065
20
-80.6589
11
105.325
21
-80.8088
0
LINE
8
BLACK
6
CONTINUOUS
10
105.325
20
-80.8088
11
105.517
21
-81.0384
0
LINE
8
BLACK
6
CONTINUOUS
10
105.517
20
-81.0384
11
105.62
21
-81.3201
0
LINE
8
BLACK
6
CONTINUOUS
10
105.62
20
-81.3201
11
105.62
21
-81.6199
0
LINE
8
BLACK
6
CONTINUOUS
10
105.62
20
-81.6199
11
105.517
21
-81.9016
0
LINE
8
BLACK
6
CONTINUOUS
10
105.517
20
-81.9016
11
105.325
21
-82.1312
0
LINE
8
BLACK
6
CONTINUOUS
10
105.325
20
-82.1312
11
105.065
21
-82.2811
0
LINE
8
BLACK
6
CONTINUOUS
10
105.065
20
-82.2811
11
104.844
21
-82.32
0
LINE
8
BLACK
6
CONTINUOUS
10
104.844
20
-82.32
11
104.696
21
-82.32
0
LINE
8
BLACK
6
CONTINUOUS
10
104.696
20
-82.32
11
104.475
21
-82.2811
0
LINE
8
BLACK
6
CONTINUOUS
10
104.475
20
-82.2811
11
104.215
21
-82.1312
0
LINE
8
BLACK
6
CONTINUOUS
10
104.215
20
-82.1312
11
104.023
21
-81.9016
0
LINE
8
BLACK
6
CONTINUOUS
10
104.023
20
-81.9016
11
103.92
21
-81.6199
0
LINE
8
BLACK
6
CONTINUOUS
10
103.92
20
-81.6199
11
103.92
21
-81.3201
0
LINE
8
BLACK
6
CONTINUOUS
10
103.92
20
-81.3201
11
104.023
21
-81.0384
0
LINE
8
BLACK
6
CONTINUOUS
10
104.023
20
-81.0384
11
104.215
21
-80.8088
0
LINE
8
BLACK
6
CONTINUOUS
10
104.215
20
-80.8088
11
104.475
21
-80.6589
0
LINE
8
BLACK
6
CONTINUOUS
10
104.475
20
-80.6589
11
104.696
21
-80.62
0
LINE
8
BLACK
6
CONTINUOUS
10
104.696
20
-80.62
11
104.844
21
-80.62
0
LINE
8
BLACK
6
CONTINUOUS
10
104.844
20
-80.62
11
105.065
21
-80.6589
0
LINE
8
BLACK
6
CONTINUOUS
10
102.525
20
-80.6589
11
102.785
21
-80.8088
0
LINE
8
BLACK
6
CONTINUOUS
10
102.785
20
-80.8088
11
102.977
21
-81.0384
0
LINE
8
BLACK
6
CONTINUOUS
10
102.977
20
-81.0384
11
103.08
21
-81.3201
0
LINE
8
BLACK
6
CONTINUOUS
10
103.08
20
-81.3201
11
103.08
21
-81.6199
0
LINE
8
BLACK
6
CONTINUOUS
10
103.08
20
-81.6199
11
102.977
21
-81.9016
0
LINE
8
BLACK
6
CONTINUOUS
10
102.977
20
-81.9016
11
102.785
21
-82.1312
0
LINE
8
BLACK
6
CONTINUOUS
10
102.785
20
-82.1312
11
102.525
21
-82.2811
0
LINE
8
BLACK
6
CONTINUOUS
10
102.525
20
-82.2811
11
102.304
21
-82.32
0
LINE
8
BLACK
6
CONTINUOUS
10
102.304
20
-82.32
11
102.156
21
-82.32
0
LINE
8
BLACK
6
CONTINUOUS
10
102.156
20
-82.32
11
101.935
21
-82.2811
0
LINE
8
BLACK
6
CONTINUOUS
10
101.935
20
-82.2811
11
101.675
21
-82.1312
0
LINE
8
BLACK
6
CONTINUOUS
10
101.675
20
-82.1312
11
101.483
21
-81.9016
0
LINE
8
BLACK
6
CONTINUOUS
10
101.483
20
-81.9016
11
101.38
21
-81.6199
0
LINE
8
BLACK
6
CONTINUOUS
10
101.38
20
-81.6199
11
101.38
21
-81.3201
0
LINE
8
BLACK
6
CONTINUOUS
10
101.38
20
-81.3201
11
101.483
21
-81.0384
0
LINE
8
BLACK
6
CONTINUOUS
10
101.483
20
-81.0384
11
101.675
21
-80.8088
0
LINE
8
BLACK
6
CONTINUOUS
10
101.675
20
-80.8088
11
101.935
21
-80.6589
0
LINE
8
BLACK
6
CONTINUOUS
10
101.935
20
-80.6589
11
102.156
21
-80.62
0
LINE
8
BLACK
6
CONTINUOUS
10
102.156
20
-80.62
11
102.304
21
-80.62
0
LINE
8
BLACK
6
CONTINUOUS
10
102.304
20
-80.62
11
102.525
21
-80.6589
0
LINE
8
BLACK
6
CONTINUOUS
10
105.065
20
-78.1189
11
105.325
21
-78.2688
0
LINE
8
BLACK
6
CONTINUOUS
10
105.325
20
-78.2688
11
105.517
21
-78.4984
0
LINE
8
BLACK
6
CONTINUOUS
10
105.517
20
-78.4984
11
105.62
21
-78.7801
0
LINE
8
BLACK
6
CONTINUOUS
10
105.62
20
-78.7801
11
105.62
21
-79.0799
0
LINE
8
BLACK
6
CONTINUOUS
10
105.62
20
-79.0799
11
105.517
21
-79.3616
0
LINE
8
BLACK
6
CONTINUOUS
10
105.517
20
-79.3616
11
105.325
21
-79.5912
0
LINE
8
BLACK
6
CONTINUOUS
10
105.325
20
-79.5912
11
105.065
21
-79.7411
0
LINE
8
BLACK
6
CONTINUOUS
10
105.065
20
-79.7411
11
104.844
21
-79.78
0
LINE
8
BLACK
6
CONTINUOUS
10
104.844
20
-79.78
11
104.696
21
-79.78
0
LINE
8
BLACK
6
CONTINUOUS
10
104.696
20
-79.78
11
104.475
21
-79.7411
0
LINE
8
BLACK
6
CONTINUOUS
10
104.475
20
-79.7411
11
104.215
21
-79.5912
0
LINE
8
BLACK
6
CONTINUOUS
10
104.215
20
-79.5912
11
104.023
21
-79.3616
0
LINE
8
BLACK
6
CONTINUOUS
10
104.023
20
-79.3616
11
103.92
21
-79.0799
0
LINE
8
BLACK
6
CONTINUOUS
10
103.92
20
-79.0799
11
103.92
21
-78.7801
0
LINE
8
BLACK
6
CONTINUOUS
10
103.92
20
-78.7801
11
104.023
21
-78.4984
0
LINE
8
BLACK
6
CONTINUOUS
10
104.023
20
-78.4984
11
104.215
21
-78.2688
0
LINE
8
BLACK
6
CONTINUOUS
10
104.215
20
-78.2688
11
104.475
21
-78.1189
0
LINE
8
BLACK
6
CONTINUOUS
10
104.475
20
-78.1189
11
104.696
21
-78.08
0
LINE
8
BLACK
6
CONTINUOUS
10
104.696
20
-78.08
11
104.844
21
-78.08
0
LINE
8
BLACK
6
CONTINUOUS
10
104.844
20
-78.08
11
105.065
21
-78.1189
0
LINE
8
BLACK
6
CONTINUOUS
10
102.525
20
-78.1189
11
102.785
21
-78.2688
0
LINE
8
BLACK
6
CONTINUOUS
10
102.785
20
-78.2688
11
102.977
21
-78.4984
0
LINE
8
BLACK
6
CONTINUOUS
10
102.977
20
-78.4984
11
103.08
21
-78.7801
0
LINE
8
BLACK
6
CONTINUOUS
10
103.08
20
-78.7801
11
103.08
21
-79.0799
0
LINE
8
BLACK
6
CONTINUOUS
10
103.08
20
-79.0799
11
102.977
21
-79.3616
0
LINE
8
BLACK
6
CONTINUOUS
10
102.977
20
-79.3616
11
102.785
21
-79.5912
0
LINE
8
BLACK
6
CONTINUOUS
10
102.785
20
-79.5912
11
102.525
21
-79.7411
0
LINE
8
BLACK
6
CONTINUOUS
10
102.525
20
-79.7411
11
102.304
21
-79.78
0
LINE
8
BLACK
6
CONTINUOUS
10
102.304
20
-79.78
11
102.156
21
-79.78
0
LINE
8
BLACK
6
CONTINUOUS
10
102.156
20
-79.78
11
101.935
21
-79.7411
0
LINE
8
BLACK
6
CONTINUOUS
10
101.935
20
-79.7411
11
101.675
21
-79.5912
0
LINE
8
BLACK
6
CONTINUOUS
10
101.675
20
-79.5912
11
101.483
21
-79.3616
0
LINE
8
BLACK
6
CONTINUOUS
10
101.483
20
-79.3616
11
101.38
21
-79.0799
0
LINE
8
BLACK
6
CONTINUOUS
10
101.38
20
-79.0799
11
101.38
21
-78.7801
0
LINE
8
BLACK
6
CONTINUOUS
10
101.38
20
-78.7801
11
101.483
21
-78.4984
0
LINE
8
BLACK
6
CONTINUOUS
10
101.483
20
-78.4984
11
101.675
21
-78.2688
0
LINE
8
BLACK
6
CONTINUOUS
10
101.675
20
-78.2688
11
101.935
21
-78.1189
0
LINE
8
BLACK
6
CONTINUOUS
10
101.935
20
-78.1189
11
102.156
21
-78.08
0
LINE
8
BLACK
6
CONTINUOUS
10
102.156
20
-78.08
11
102.304
21
-78.08
0
LINE
8
BLACK
6
CONTINUOUS
10
102.304
20
-78.08
11
102.525
21
-78.1189
0
LINE
8
BLACK
6
CONTINUOUS
10
105.065
20
-75.5789
11
105.325
21
-75.7288
0
LINE
8
BLACK
6
CONTINUOUS
10
105.325
20
-75.7288
11
105.517
21
-75.9584
0
LINE
8
BLACK
6
CONTINUOUS
10
105.517
20
-75.9584
11
105.62
21
-76.2401
0
LINE
8
BLACK
6
CONTINUOUS
10
105.62
20
-76.2401
11
105.62
21
-76.5399
0
LINE
8
BLACK
6
CONTINUOUS
10
105.62
20
-76.5399
11
105.517
21
-76.8216
0
LINE
8
BLACK
6
CONTINUOUS
10
105.517
20
-76.8216
11
105.325
21
-77.0512
0
LINE
8
BLACK
6
CONTINUOUS
10
105.325
20
-77.0512
11
105.065
21
-77.2011
0
LINE
8
BLACK
6
CONTINUOUS
10
105.065
20
-77.2011
11
104.844
21
-77.24
0
LINE
8
BLACK
6
CONTINUOUS
10
104.844
20
-77.24
11
104.696
21
-77.24
0
LINE
8
BLACK
6
CONTINUOUS
10
104.696
20
-77.24
11
104.475
21
-77.2011
0
LINE
8
BLACK
6
CONTINUOUS
10
104.475
20
-77.2011
11
104.215
21
-77.0512
0
LINE
8
BLACK
6
CONTINUOUS
10
104.215
20
-77.0512
11
104.023
21
-76.8216
0
LINE
8
BLACK
6
CONTINUOUS
10
104.023
20
-76.8216
11
103.92
21
-76.5399
0
LINE
8
BLACK
6
CONTINUOUS
10
103.92
20
-76.5399
11
103.92
21
-76.2401
0
LINE
8
BLACK
6
CONTINUOUS
10
103.92
20
-76.2401
11
104.023
21
-75.9584
0
LINE
8
BLACK
6
CONTINUOUS
10
104.023
20
-75.9584
11
104.215
21
-75.7288
0
LINE
8
BLACK
6
CONTINUOUS
10
104.215
20
-75.7288
11
104.475
21
-75.5789
0
LINE
8
BLACK
6
CONTINUOUS
10
104.475
20
-75.5789
11
104.696
21
-75.54
0
LINE
8
BLACK
6
CONTINUOUS
10
104.696
20
-75.54
11
104.844
21
-75.54
0
LINE
8
BLACK
6
CONTINUOUS
10
104.844
20
-75.54
11
105.065
21
-75.5789
0
LINE
8
BLACK
6
CONTINUOUS
10
102.525
20
-75.5789
11
102.785
21
-75.7288
0
LINE
8
BLACK
6
CONTINUOUS
10
102.785
20
-75.7288
11
102.977
21
-75.9584
0
LINE
8
BLACK
6
CONTINUOUS
10
102.977
20
-75.9584
11
103.08
21
-76.2401
0
LINE
8
BLACK
6
CONTINUOUS
10
103.08
20
-76.2401
11
103.08
21
-76.5399
0
LINE
8
BLACK
6
CONTINUOUS
10
103.08
20
-76.5399
11
102.977
21
-76.8216
0
LINE
8
BLACK
6
CONTINUOUS
10
102.977
20
-76.8216
11
102.785
21
-77.0512
0
LINE
8
BLACK
6
CONTINUOUS
10
102.785
20
-77.0512
11
102.525
21
-77.2011
0
LINE
8
BLACK
6
CONTINUOUS
10
102.525
20
-77.2011
11
102.304
21
-77.24
0
LINE
8
BLACK
6
CONTINUOUS
10
102.304
20
-77.24
11
102.156
21
-77.24
0
LINE
8
BLACK
6
CONTINUOUS
10
102.156
20
-77.24
11
101.935
21
-77.2011
0
LINE
8
BLACK
6
CONTINUOUS
10
101.935
20
-77.2011
11
101.675
21
-77.0512
0
LINE
8
BLACK
6
CONTINUOUS
10
101.675
20
-77.0512
11
101.483
21
-76.8216
0
LINE
8
BLACK
6
CONTINUOUS
10
101.483
20
-76.8216
11
101.38
21
-76.5399
0
LINE
8
BLACK
6
CONTINUOUS
10
101.38
20
-76.5399
11
101.38
21
-76.2401
0
LINE
8
BLACK
6
CONTINUOUS
10
101.38
20
-76.2401
11
101.483
21
-75.9584
0
LINE
8
BLACK
6
CONTINUOUS
10
101.483
20
-75.9584
11
101.675
21
-75.7288
0
LINE
8
BLACK
6
CONTINUOUS
10
101.675
20
-75.7288
11
101.935
21
-75.5789
0
LINE
8
BLACK
6
CONTINUOUS
10
101.935
20
-75.5789
11
102.156
21
-75.54
0
LINE
8
BLACK
6
CONTINUOUS
10
102.156
20
-75.54
11
102.304
21
-75.54
0
LINE
8
BLACK
6
CONTINUOUS
10
102.304
20
-75.54
11
102.525
21
-75.5789
0
LINE
8
BLACK
6
CONTINUOUS
10
105.065
20
-73.0389
11
105.325
21
-73.1888
0
LINE
8
BLACK
6
CONTINUOUS
10
105.325
20
-73.1888
11
105.517
21
-73.4184
0
LINE
8
BLACK
6
CONTINUOUS
10
105.517
20
-73.4184
11
105.62
21
-73.7001
0
LINE
8
BLACK
6
CONTINUOUS
10
105.62
20
-73.7001
11
105.62
21
-73.9999
0
LINE
8
BLACK
6
CONTINUOUS
10
105.62
20
-73.9999
11
105.517
21
-74.2816
0
LINE
8
BLACK
6
CONTINUOUS
10
105.517
20
-74.2816
11
105.325
21
-74.5112
0
LINE
8
BLACK
6
CONTINUOUS
10
105.325
20
-74.5112
11
105.065
21
-74.6611
0
LINE
8
BLACK
6
CONTINUOUS
10
105.065
20
-74.6611
11
104.844
21
-74.7
0
LINE
8
BLACK
6
CONTINUOUS
10
104.844
20
-74.7
11
104.696
21
-74.7
0
LINE
8
BLACK
6
CONTINUOUS
10
104.696
20
-74.7
11
104.475
21
-74.6611
0
LINE
8
BLACK
6
CONTINUOUS
10
104.475
20
-74.6611
11
104.215
21
-74.5112
0
LINE
8
BLACK
6
CONTINUOUS
10
104.215
20
-74.5112
11
104.023
21
-74.2816
0
LINE
8
BLACK
6
CONTINUOUS
10
104.023
20
-74.2816
11
103.92
21
-73.9999
0
LINE
8
BLACK
6
CONTINUOUS
10
103.92
20
-73.9999
11
103.92
21
-73.7001
0
LINE
8
BLACK
6
CONTINUOUS
10
103.92
20
-73.7001
11
104.023
21
-73.4184
0
LINE
8
BLACK
6
CONTINUOUS
10
104.023
20
-73.4184
11
104.215
21
-73.1888
0
LINE
8
BLACK
6
CONTINUOUS
10
104.215
20
-73.1888
11
104.475
21
-73.0389
0
LINE
8
BLACK
6
CONTINUOUS
10
104.475
20
-73.0389
11
104.696
21
-73
0
LINE
8
BLACK
6
CONTINUOUS
10
104.696
20
-73
11
104.844
21
-73
0
LINE
8
BLACK
6
CONTINUOUS
10
104.844
20
-73
11
105.065
21
-73.0389
0
LINE
8
BLACK
6
CONTINUOUS
10
102.525
20
-73.0389
11
102.785
21
-73.1888
0
LINE
8
BLACK
6
CONTINUOUS
10
102.785
20
-73.1888
11
102.977
21
-73.4184
0
LINE
8
BLACK
6
CONTINUOUS
10
102.977
20
-73.4184
11
103.08
21
-73.7001
0
LINE
8
BLACK
6
CONTINUOUS
10
103.08
20
-73.7001
11
103.08
21
-73.9999
0
LINE
8
BLACK
6
CONTINUOUS
10
103.08
20
-73.9999
11
102.977
21
-74.2816
0
LINE
8
BLACK
6
CONTINUOUS
10
102.977
20
-74.2816
11
102.785
21
-74.5112
0
LINE
8
BLACK
6
CONTINUOUS
10
102.785
20
-74.5112
11
102.525
21
-74.6611
0
LINE
8
BLACK
6
CONTINUOUS
10
102.525
20
-74.6611
11
102.304
21
-74.7
0
LINE
8
BLACK
6
CONTINUOUS
10
102.304
20
-74.7
11
102.156
21
-74.7
0
LINE
8
BLACK
6
CONTINUOUS
10
102.156
20
-74.7
11
101.935
21
-74.6611
0
LINE
8
BLACK
6
CONTINUOUS
10
101.935
20
-74.6611
11
101.675
21
-74.5112
0
LINE
8
BLACK
6
CONTINUOUS
10
101.675
20
-74.5112
11
101.483
21
-74.2816
0
LINE
8
BLACK
6
CONTINUOUS
10
101.483
20
-74.2816
11
101.38
21
-73.9999
0
LINE
8
BLACK
6
CONTINUOUS
10
101.38
20
-73.9999
11
101.38
21
-73.7001
0
LINE
8
BLACK
6
CONTINUOUS
10
101.38
20
-73.7001
11
101.483
21
-73.4184
0
LINE
8
BLACK
6
CONTINUOUS
10
101.483
20
-73.4184
11
101.675
21
-73.1888
0
LINE
8
BLACK
6
CONTINUOUS
10
101.675
20
-73.1888
11
101.935
21
-73.0389
0
LINE
8
BLACK
6
CONTINUOUS
10
101.935
20
-73.0389
11
102.156
21
-73
0
LINE
8
BLACK
6
CONTINUOUS
10
102.156
20
-73
11
102.304
21
-73
0
LINE
8
BLACK
6
CONTINUOUS
10
102.304
20
-73
11
102.525
21
-73.0389
0
LINE
8
BLACK
6
CONTINUOUS
10
146.839
20
-70.8197
11
147.136
21
-70.9916
0
LINE
8
BLACK
6
CONTINUOUS
10
147.136
20
-70.9916
11
147.357
21
-71.255
0
LINE
8
BLACK
6
CONTINUOUS
10
147.357
20
-71.255
11
147.475
21
-71.5781
0
LINE
8
BLACK
6
CONTINUOUS
10
147.475
20
-71.5781
11
147.475
21
-71.9219
0
LINE
8
BLACK
6
CONTINUOUS
10
147.475
20
-71.9219
11
147.357
21
-72.245
0
LINE
8
BLACK
6
CONTINUOUS
10
147.357
20
-72.245
11
147.136
21
-72.5084
0
LINE
8
BLACK
6
CONTINUOUS
10
147.136
20
-72.5084
11
146.839
21
-72.6803
0
LINE
8
BLACK
6
CONTINUOUS
10
146.839
20
-72.6803
11
146.5
21
-72.74
0
LINE
8
BLACK
6
CONTINUOUS
10
146.5
20
-72.74
11
146.161
21
-72.6803
0
LINE
8
BLACK
6
CONTINUOUS
10
146.161
20
-72.6803
11
145.864
21
-72.5084
0
LINE
8
BLACK
6
CONTINUOUS
10
145.864
20
-72.5084
11
145.643
21
-72.245
0
LINE
8
BLACK
6
CONTINUOUS
10
145.643
20
-72.245
11
145.525
21
-71.9219
0
LINE
8
BLACK
6
CONTINUOUS
10
145.525
20
-71.9219
11
145.525
21
-71.5781
0
LINE
8
BLACK
6
CONTINUOUS
10
145.525
20
-71.5781
11
145.643
21
-71.255
0
LINE
8
BLACK
6
CONTINUOUS
10
145.643
20
-71.255
11
145.864
21
-70.9916
0
LINE
8
BLACK
6
CONTINUOUS
10
145.864
20
-70.9916
11
146.161
21
-70.8197
0
LINE
8
BLACK
6
CONTINUOUS
10
146.161
20
-70.8197
11
146.5
21
-70.76
0
LINE
8
BLACK
6
CONTINUOUS
10
146.5
20
-70.76
11
146.839
21
-70.8197
0
LINE
8
BLACK
6
CONTINUOUS
10
105.065
20
-70.4989
11
105.325
21
-70.6488
0
LINE
8
BLACK
6
CONTINUOUS
10
105.325
20
-70.6488
11
105.517
21
-70.8784
0
LINE
8
BLACK
6
CONTINUOUS
10
105.517
20
-70.8784
11
105.62
21
-71.1601
0
LINE
8
BLACK
6
CONTINUOUS
10
105.62
20
-71.1601
11
105.62
21
-71.4599
0
LINE
8
BLACK
6
CONTINUOUS
10
105.62
20
-71.4599
11
105.517
21
-71.7416
0
LINE
8
BLACK
6
CONTINUOUS
10
105.517
20
-71.7416
11
105.325
21
-71.9712
0
LINE
8
BLACK
6
CONTINUOUS
10
105.325
20
-71.9712
11
105.065
21
-72.1211
0
LINE
8
BLACK
6
CONTINUOUS
10
105.065
20
-72.1211
11
104.844
21
-72.16
0
LINE
8
BLACK
6
CONTINUOUS
10
104.844
20
-72.16
11
104.696
21
-72.16
0
LINE
8
BLACK
6
CONTINUOUS
10
104.696
20
-72.16
11
104.475
21
-72.1211
0
LINE
8
BLACK
6
CONTINUOUS
10
104.475
20
-72.1211
11
104.215
21
-71.9712
0
LINE
8
BLACK
6
CONTINUOUS
10
104.215
20
-71.9712
11
104.023
21
-71.7416
0
LINE
8
BLACK
6
CONTINUOUS
10
104.023
20
-71.7416
11
103.92
21
-71.4599
0
LINE
8
BLACK
6
CONTINUOUS
10
103.92
20
-71.4599
11
103.92
21
-71.1601
0
LINE
8
BLACK
6
CONTINUOUS
10
103.92
20
-71.1601
11
104.023
21
-70.8784
0
LINE
8
BLACK
6
CONTINUOUS
10
104.023
20
-70.8784
11
104.215
21
-70.6488
0
LINE
8
BLACK
6
CONTINUOUS
10
104.215
20
-70.6488
11
104.475
21
-70.4989
0
LINE
8
BLACK
6
CONTINUOUS
10
104.475
20
-70.4989
11
104.696
21
-70.46
0
LINE
8
BLACK
6
CONTINUOUS
10
104.696
20
-70.46
11
104.844
21
-70.46
0
LINE
8
BLACK
6
CONTINUOUS
10
104.844
20
-70.46
11
105.065
21
-70.4989
0
LINE
8
BLACK
6
CONTINUOUS
10
102.525
20
-70.4989
11
102.785
21
-70.6488
0
LINE
8
BLACK
6
CONTINUOUS
10
102.785
20
-70.6488
11
102.977
21
-70.8784
0
LINE
8
BLACK
6
CONTINUOUS
10
102.977
20
-70.8784
11
103.08
21
-71.1601
0
LINE
8
BLACK
6
CONTINUOUS
10
103.08
20
-71.1601
11
103.08
21
-71.4599
0
LINE
8
BLACK
6
CONTINUOUS
10
103.08
20
-71.4599
11
102.977
21
-71.7416
0
LINE
8
BLACK
6
CONTINUOUS
10
102.977
20
-71.7416
11
102.785
21
-71.9712
0
LINE
8
BLACK
6
CONTINUOUS
10
102.785
20
-71.9712
11
102.525
21
-72.1211
0
LINE
8
BLACK
6
CONTINUOUS
10
102.525
20
-72.1211
11
102.304
21
-72.16
0
LINE
8
BLACK
6
CONTINUOUS
10
102.304
20
-72.16
11
102.156
21
-72.16
0
LINE
8
BLACK
6
CONTINUOUS
10
102.156
20
-72.16
11
101.935
21
-72.1211
0
LINE
8
BLACK
6
CONTINUOUS
10
101.935
20
-72.1211
11
101.675
21
-71.9712
0
LINE
8
BLACK
6
CONTINUOUS
10
101.675
20
-71.9712
11
101.483
21
-71.7416
0
LINE
8
BLACK
6
CONTINUOUS
10
101.483
20
-71.7416
11
101.38
21
-71.4599
0
LINE
8
BLACK
6
CONTINUOUS
10
101.38
20
-71.4599
11
101.38
21
-71.1601
0
LINE
8
BLACK
6
CONTINUOUS
10
101.38
20
-71.1601
11
101.483
21
-70.8784
0
LINE
8
BLACK
6
CONTINUOUS
10
101.483
20
-70.8784
11
101.675
21
-70.6488
0
LINE
8
BLACK
6
CONTINUOUS
10
101.675
20
-70.6488
11
101.935
21
-70.4989
0
LINE
8
BLACK
6
CONTINUOUS
10
101.935
20
-70.4989
11
102.156
21
-70.46
0
LINE
8
BLACK
6
CONTINUOUS
10
102.156
20
-70.46
11
102.304
21
-70.46
0
LINE
8
BLACK
6
CONTINUOUS
10
102.304
20
-70.46
11
102.525
21
-70.4989
0
LINE
8
BLACK
6
CONTINUOUS
10
151.739
20
-70.2197
11
152.036
21
-70.3916
0
LINE
8
BLACK
6
CONTINUOUS
10
152.036
20
-70.3916
11
152.257
21
-70.655
0
LINE
8
BLACK
6
CONTINUOUS
10
152.257
20
-70.655
11
152.375
21
-70.9781
0
LINE
8
BLACK
6
CONTINUOUS
10
152.375
20
-70.9781
11
152.375
21
-71.3219
0
LINE
8
BLACK
6
CONTINUOUS
10
152.375
20
-71.3219
11
152.257
21
-71.645
0
LINE
8
BLACK
6
CONTINUOUS
10
152.257
20
-71.645
11
152.036
21
-71.9084
0
LINE
8
BLACK
6
CONTINUOUS
10
152.036
20
-71.9084
11
151.739
21
-72.0803
0
LINE
8
BLACK
6
CONTINUOUS
10
151.739
20
-72.0803
11
151.4
21
-72.14
0
LINE
8
BLACK
6
CONTINUOUS
10
151.4
20
-72.14
11
151.061
21
-72.0803
0
LINE
8
BLACK
6
CONTINUOUS
10
151.061
20
-72.0803
11
150.764
21
-71.9084
0
LINE
8
BLACK
6
CONTINUOUS
10
150.764
20
-71.9084
11
150.543
21
-71.645
0
LINE
8
BLACK
6
CONTINUOUS
10
150.543
20
-71.645
11
150.425
21
-71.3219
0
LINE
8
BLACK
6
CONTINUOUS
10
150.425
20
-71.3219
11
150.425
21
-70.9781
0
LINE
8
BLACK
6
CONTINUOUS
10
150.425
20
-70.9781
11
150.543
21
-70.655
0
LINE
8
BLACK
6
CONTINUOUS
10
150.543
20
-70.655
11
150.764
21
-70.3916
0
LINE
8
BLACK
6
CONTINUOUS
10
150.764
20
-70.3916
11
151.061
21
-70.2197
0
LINE
8
BLACK
6
CONTINUOUS
10
151.061
20
-70.2197
11
151.4
21
-70.16
0
LINE
8
BLACK
6
CONTINUOUS
10
151.4
20
-70.16
11
151.739
21
-70.2197
0
LINE
8
BLACK
6
CONTINUOUS
10
105.065
20
-67.9589
11
105.325
21
-68.1088
0
LINE
8
BLACK
6
CONTINUOUS
10
105.325
20
-68.1088
11
105.517
21
-68.3384
0
LINE
8
BLACK
6
CONTINUOUS
10
105.517
20
-68.3384
11
105.62
21
-68.6201
0
LINE
8
BLACK
6
CONTINUOUS
10
105.62
20
-68.6201
11
105.62
21
-68.9199
0
LINE
8
BLACK
6
CONTINUOUS
10
105.62
20
-68.9199
11
105.517
21
-69.2016
0
LINE
8
BLACK
6
CONTINUOUS
10
105.517
20
-69.2016
11
105.325
21
-69.4312
0
LINE
8
BLACK
6
CONTINUOUS
10
105.325
20
-69.4312
11
105.065
21
-69.5811
0
LINE
8
BLACK
6
CONTINUOUS
10
105.065
20
-69.5811
11
104.844
21
-69.62
0
LINE
8
BLACK
6
CONTINUOUS
10
104.844
20
-69.62
11
104.696
21
-69.62
0
LINE
8
BLACK
6
CONTINUOUS
10
104.696
20
-69.62
11
104.475
21
-69.5811
0
LINE
8
BLACK
6
CONTINUOUS
10
104.475
20
-69.5811
11
104.215
21
-69.4312
0
LINE
8
BLACK
6
CONTINUOUS
10
104.215
20
-69.4312
11
104.023
21
-69.2016
0
LINE
8
BLACK
6
CONTINUOUS
10
104.023
20
-69.2016
11
103.92
21
-68.9199
0
LINE
8
BLACK
6
CONTINUOUS
10
103.92
20
-68.9199
11
103.92
21
-68.6201
0
LINE
8
BLACK
6
CONTINUOUS
10
103.92
20
-68.6201
11
104.023
21
-68.3384
0
LINE
8
BLACK
6
CONTINUOUS
10
104.023
20
-68.3384
11
104.215
21
-68.1088
0
LINE
8
BLACK
6
CONTINUOUS
10
104.215
20
-68.1088
11
104.475
21
-67.9589
0
LINE
8
BLACK
6
CONTINUOUS
10
104.475
20
-67.9589
11
104.696
21
-67.92
0
LINE
8
BLACK
6
CONTINUOUS
10
104.696
20
-67.92
11
104.844
21
-67.92
0
LINE
8
BLACK
6
CONTINUOUS
10
104.844
20
-67.92
11
105.065
21
-67.9589
0
LINE
8
BLACK
6
CONTINUOUS
10
102.525
20
-67.9589
11
102.785
21
-68.1088
0
LINE
8
BLACK
6
CONTINUOUS
10
102.785
20
-68.1088
11
102.977
21
-68.3384
0
LINE
8
BLACK
6
CONTINUOUS
10
102.977
20
-68.3384
11
103.08
21
-68.6201
0
LINE
8
BLACK
6
CONTINUOUS
10
103.08
20
-68.6201
11
103.08
21
-68.9199
0
LINE
8
BLACK
6
CONTINUOUS
10
103.08
20
-68.9199
11
102.977
21
-69.2016
0
LINE
8
BLACK
6
CONTINUOUS
10
102.977
20
-69.2016
11
102.785
21
-69.4312
0
LINE
8
BLACK
6
CONTINUOUS
10
102.785
20
-69.4312
11
102.525
21
-69.5811
0
LINE
8
BLACK
6
CONTINUOUS
10
102.525
20
-69.5811
11
102.304
21
-69.62
0
LINE
8
BLACK
6
CONTINUOUS
10
102.304
20
-69.62
11
102.156
21
-69.62
0
LINE
8
BLACK
6
CONTINUOUS
10
102.156
20
-69.62
11
101.935
21
-69.5811
0
LINE
8
BLACK
6
CONTINUOUS
10
101.935
20
-69.5811
11
101.675
21
-69.4312
0
LINE
8
BLACK
6
CONTINUOUS
10
101.675
20
-69.4312
11
101.483
21
-69.2016
0
LINE
8
BLACK
6
CONTINUOUS
10
101.483
20
-69.2016
11
101.38
21
-68.9199
0
LINE
8
BLACK
6
CONTINUOUS
10
101.38
20
-68.9199
11
101.38
21
-68.6201
0
LINE
8
BLACK
6
CONTINUOUS
10
101.38
20
-68.6201
11
101.483
21
-68.3384
0
LINE
8
BLACK
6
CONTINUOUS
10
101.483
20
-68.3384
11
101.675
21
-68.1088
0
LINE
8
BLACK
6
CONTINUOUS
10
101.675
20
-68.1088
11
101.935
21
-67.9589
0
LINE
8
BLACK
6
CONTINUOUS
10
101.935
20
-67.9589
11
102.156
21
-67.92
0
LINE
8
BLACK
6
CONTINUOUS
10
102.156
20
-67.92
11
102.304
21
-67.92
0
LINE
8
BLACK
6
CONTINUOUS
10
102.304
20
-67.92
11
102.525
21
-67.9589
0
LINE
8
BLACK
6
CONTINUOUS
10
102.525
20
-65.4189
11
102.785
21
-65.5688
0
LINE
8
BLACK
6
CONTINUOUS
10
102.785
20
-65.5688
11
102.977
21
-65.7984
0
LINE
8
BLACK
6
CONTINUOUS
10
102.977
20
-65.7984
11
103.08
21
-66.0801
0
LINE
8
BLACK
6
CONTINUOUS
10
103.08
20
-66.0801
11
103.08
21
-66.3799
0
LINE
8
BLACK
6
CONTINUOUS
10
103.08
20
-66.3799
11
102.977
21
-66.6616
0
LINE
8
BLACK
6
CONTINUOUS
10
102.977
20
-66.6616
11
102.785
21
-66.8912
0
LINE
8
BLACK
6
CONTINUOUS
10
102.785
20
-66.8912
11
102.525
21
-67.0411
0
LINE
8
BLACK
6
CONTINUOUS
10
102.525
20
-67.0411
11
102.304
21
-67.08
0
LINE
8
BLACK
6
CONTINUOUS
10
102.304
20
-67.08
11
102.156
21
-67.08
0
LINE
8
BLACK
6
CONTINUOUS
10
102.156
20
-67.08
11
101.935
21
-67.0411
0
LINE
8
BLACK
6
CONTINUOUS
10
101.935
20
-67.0411
11
101.675
21
-66.8912
0
LINE
8
BLACK
6
CONTINUOUS
10
101.675
20
-66.8912
11
101.483
21
-66.6616
0
LINE
8
BLACK
6
CONTINUOUS
10
101.483
20
-66.6616
11
101.38
21
-66.3799
0
LINE
8
BLACK
6
CONTINUOUS
10
101.38
20
-66.3799
11
101.38
21
-66.0801
0
LINE
8
BLACK
6
CONTINUOUS
10
101.38
20
-66.0801
11
101.483
21
-65.7984
0
LINE
8
BLACK
6
CONTINUOUS
10
101.483
20
-65.7984
11
101.675
21
-65.5688
0
LINE
8
BLACK
6
CONTINUOUS
10
101.675
20
-65.5688
11
101.935
21
-65.4189
0
LINE
8
BLACK
6
CONTINUOUS
10
101.935
20
-65.4189
11
102.156
21
-65.38
0
LINE
8
BLACK
6
CONTINUOUS
10
102.156
20
-65.38
11
102.304
21
-65.38
0
LINE
8
BLACK
6
CONTINUOUS
10
102.304
20
-65.38
11
102.525
21
-65.4189
0
LINE
8
BLACK
6
CONTINUOUS
10
105.065
20
-65.4189
11
105.325
21
-65.5688
0
LINE
8
BLACK
6
CONTINUOUS
10
105.325
20
-65.5688
11
105.517
21
-65.7984
0
LINE
8
BLACK
6
CONTINUOUS
10
105.517
20
-65.7984
11
105.62
21
-66.0801
0
LINE
8
BLACK
6
CONTINUOUS
10
105.62
20
-66.0801
11
105.62
21
-66.3799
0
LINE
8
BLACK
6
CONTINUOUS
10
105.62
20
-66.3799
11
105.517
21
-66.6616
0
LINE
8
BLACK
6
CONTINUOUS
10
105.517
20
-66.6616
11
105.325
21
-66.8912
0
LINE
8
BLACK
6
CONTINUOUS
10
105.325
20
-66.8912
11
105.065
21
-67.0411
0
LINE
8
BLACK
6
CONTINUOUS
10
105.065
20
-67.0411
11
104.844
21
-67.08
0
LINE
8
BLACK
6
CONTINUOUS
10
104.844
20
-67.08
11
104.696
21
-67.08
0
LINE
8
BLACK
6
CONTINUOUS
10
104.696
20
-67.08
11
104.475
21
-67.0411
0
LINE
8
BLACK
6
CONTINUOUS
10
104.475
20
-67.0411
11
104.215
21
-66.8912
0
LINE
8
BLACK
6
CONTINUOUS
10
104.215
20
-66.8912
11
104.023
21
-66.6616
0
LINE
8
BLACK
6
CONTINUOUS
10
104.023
20
-66.6616
11
103.92
21
-66.3799
0
LINE
8
BLACK
6
CONTINUOUS
10
103.92
20
-66.3799
11
103.92
21
-66.0801
0
LINE
8
BLACK
6
CONTINUOUS
10
103.92
20
-66.0801
11
104.023
21
-65.7984
0
LINE
8
BLACK
6
CONTINUOUS
10
104.023
20
-65.7984
11
104.215
21
-65.5688
0
LINE
8
BLACK
6
CONTINUOUS
10
104.215
20
-65.5688
11
104.475
21
-65.4189
0
LINE
8
BLACK
6
CONTINUOUS
10
104.475
20
-65.4189
11
104.696
21
-65.38
0
LINE
8
BLACK
6
CONTINUOUS
10
104.696
20
-65.38
11
104.844
21
-65.38
0
LINE
8
BLACK
6
CONTINUOUS
10
104.844
20
-65.38
11
105.065
21
-65.4189
0
LINE
8
BLACK
6
CONTINUOUS
10
151.739
20
-62.9197
11
152.036
21
-63.0916
0
LINE
8
BLACK
6
CONTINUOUS
10
152.036
20
-63.0916
11
152.257
21
-63.355
0
LINE
8
BLACK
6
CONTINUOUS
10
152.257
20
-63.355
11
152.375
21
-63.6781
0
LINE
8
BLACK
6
CONTINUOUS
10
152.375
20
-63.6781
11
152.375
21
-64.0219
0
LINE
8
BLACK
6
CONTINUOUS
10
152.375
20
-64.0219
11
152.257
21
-64.345
0
LINE
8
BLACK
6
CONTINUOUS
10
152.257
20
-64.345
11
152.036
21
-64.6084
0
LINE
8
BLACK
6
CONTINUOUS
10
152.036
20
-64.6084
11
151.739
21
-64.7803
0
LINE
8
BLACK
6
CONTINUOUS
10
151.739
20
-64.7803
11
151.4
21
-64.84
0
LINE
8
BLACK
6
CONTINUOUS
10
151.4
20
-64.84
11
151.061
21
-64.7803
0
LINE
8
BLACK
6
CONTINUOUS
10
151.061
20
-64.7803
11
150.764
21
-64.6084
0
LINE
8
BLACK
6
CONTINUOUS
10
150.764
20
-64.6084
11
150.543
21
-64.345
0
LINE
8
BLACK
6
CONTINUOUS
10
150.543
20
-64.345
11
150.425
21
-64.0219
0
LINE
8
BLACK
6
CONTINUOUS
10
150.425
20
-64.0219
11
150.425
21
-63.6781
0
LINE
8
BLACK
6
CONTINUOUS
10
150.425
20
-63.6781
11
150.543
21
-63.355
0
LINE
8
BLACK
6
CONTINUOUS
10
150.543
20
-63.355
11
150.764
21
-63.0916
0
LINE
8
BLACK
6
CONTINUOUS
10
150.764
20
-63.0916
11
151.061
21
-62.9197
0
LINE
8
BLACK
6
CONTINUOUS
10
151.061
20
-62.9197
11
151.4
21
-62.86
0
LINE
8
BLACK
6
CONTINUOUS
10
151.4
20
-62.86
11
151.739
21
-62.9197
0
LINE
8
BLACK
6
CONTINUOUS
10
105.065
20
-62.8789
11
105.325
21
-63.0288
0
LINE
8
BLACK
6
CONTINUOUS
10
105.325
20
-63.0288
11
105.517
21
-63.2584
0
LINE
8
BLACK
6
CONTINUOUS
10
105.517
20
-63.2584
11
105.62
21
-63.5401
0
LINE
8
BLACK
6
CONTINUOUS
10
105.62
20
-63.5401
11
105.62
21
-63.8399
0
LINE
8
BLACK
6
CONTINUOUS
10
105.62
20
-63.8399
11
105.517
21
-64.1216
0
LINE
8
BLACK
6
CONTINUOUS
10
105.517
20
-64.1216
11
105.325
21
-64.3512
0
LINE
8
BLACK
6
CONTINUOUS
10
105.325
20
-64.3512
11
105.065
21
-64.5011
0
LINE
8
BLACK
6
CONTINUOUS
10
105.065
20
-64.5011
11
104.844
21
-64.54
0
LINE
8
BLACK
6
CONTINUOUS
10
104.844
20
-64.54
11
104.696
21
-64.54
0
LINE
8
BLACK
6
CONTINUOUS
10
104.696
20
-64.54
11
104.475
21
-64.5011
0
LINE
8
BLACK
6
CONTINUOUS
10
104.475
20
-64.5011
11
104.215
21
-64.3512
0
LINE
8
BLACK
6
CONTINUOUS
10
104.215
20
-64.3512
11
104.023
21
-64.1216
0
LINE
8
BLACK
6
CONTINUOUS
10
104.023
20
-64.1216
11
103.92
21
-63.8399
0
LINE
8
BLACK
6
CONTINUOUS
10
103.92
20
-63.8399
11
103.92
21
-63.5401
0
LINE
8
BLACK
6
CONTINUOUS
10
103.92
20
-63.5401
11
104.023
21
-63.2584
0
LINE
8
BLACK
6
CONTINUOUS
10
104.023
20
-63.2584
11
104.215
21
-63.0288
0
LINE
8
BLACK
6
CONTINUOUS
10
104.215
20
-63.0288
11
104.475
21
-62.8789
0
LINE
8
BLACK
6
CONTINUOUS
10
104.475
20
-62.8789
11
104.696
21
-62.84
0
LINE
8
BLACK
6
CONTINUOUS
10
104.696
20
-62.84
11
104.844
21
-62.84
0
LINE
8
BLACK
6
CONTINUOUS
10
104.844
20
-62.84
11
105.065
21
-62.8789
0
LINE
8
BLACK
6
CONTINUOUS
10
102.525
20
-62.8789
11
102.785
21
-63.0288
0
LINE
8
BLACK
6
CONTINUOUS
10
102.785
20
-63.0288
11
102.977
21
-63.2584
0
LINE
8
BLACK
6
CONTINUOUS
10
102.977
20
-63.2584
11
103.08
21
-63.5401
0
LINE
8
BLACK
6
CONTINUOUS
10
103.08
20
-63.5401
11
103.08
21
-63.8399
0
LINE
8
BLACK
6
CONTINUOUS
10
103.08
20
-63.8399
11
102.977
21
-64.1216
0
LINE
8
BLACK
6
CONTINUOUS
10
102.977
20
-64.1216
11
102.785
21
-64.3512
0
LINE
8
BLACK
6
CONTINUOUS
10
102.785
20
-64.3512
11
102.525
21
-64.5011
0
LINE
8
BLACK
6
CONTINUOUS
10
102.525
20
-64.5011
11
102.304
21
-64.54
0
LINE
8
BLACK
6
CONTINUOUS
10
102.304
20
-64.54
11
102.156
21
-64.54
0
LINE
8
BLACK
6
CONTINUOUS
10
102.156
20
-64.54
11
101.935
21
-64.5011
0
LINE
8
BLACK
6
CONTINUOUS
10
101.935
20
-64.5011
11
101.675
21
-64.3512
0
LINE
8
BLACK
6
CONTINUOUS
10
101.675
20
-64.3512
11
101.483
21
-64.1216
0
LINE
8
BLACK
6
CONTINUOUS
10
101.483
20
-64.1216
11
101.38
21
-63.8399
0
LINE
8
BLACK
6
CONTINUOUS
10
101.38
20
-63.8399
11
101.38
21
-63.5401
0
LINE
8
BLACK
6
CONTINUOUS
10
101.38
20
-63.5401
11
101.483
21
-63.2584
0
LINE
8
BLACK
6
CONTINUOUS
10
101.483
20
-63.2584
11
101.675
21
-63.0288
0
LINE
8
BLACK
6
CONTINUOUS
10
101.675
20
-63.0288
11
101.935
21
-62.8789
0
LINE
8
BLACK
6
CONTINUOUS
10
101.935
20
-62.8789
11
102.156
21
-62.84
0
LINE
8
BLACK
6
CONTINUOUS
10
102.156
20
-62.84
11
102.304
21
-62.84
0
LINE
8
BLACK
6
CONTINUOUS
10
102.304
20
-62.84
11
102.525
21
-62.8789
0
LINE
8
BLACK
6
CONTINUOUS
10
146.839
20
-62.3197
11
147.136
21
-62.4916
0
LINE
8
BLACK
6
CONTINUOUS
10
147.136
20
-62.4916
11
147.357
21
-62.755
0
LINE
8
BLACK
6
CONTINUOUS
10
147.357
20
-62.755
11
147.475
21
-63.0781
0
LINE
8
BLACK
6
CONTINUOUS
10
147.475
20
-63.0781
11
147.475
21
-63.4219
0
LINE
8
BLACK
6
CONTINUOUS
10
147.475
20
-63.4219
11
147.357
21
-63.745
0
LINE
8
BLACK
6
CONTINUOUS
10
147.357
20
-63.745
11
147.136
21
-64.0084
0
LINE
8
BLACK
6
CONTINUOUS
10
147.136
20
-64.0084
11
146.839
21
-64.1803
0
LINE
8
BLACK
6
CONTINUOUS
10
146.839
20
-64.1803
11
146.5
21
-64.24
0
LINE
8
BLACK
6
CONTINUOUS
10
146.5
20
-64.24
11
146.161
21
-64.1803
0
LINE
8
BLACK
6
CONTINUOUS
10
146.161
20
-64.1803
11
145.864
21
-64.0084
0
LINE
8
BLACK
6
CONTINUOUS
10
145.864
20
-64.0084
11
145.643
21
-63.745
0
LINE
8
BLACK
6
CONTINUOUS
10
145.643
20
-63.745
11
145.525
21
-63.4219
0
LINE
8
BLACK
6
CONTINUOUS
10
145.525
20
-63.4219
11
145.525
21
-63.0781
0
LINE
8
BLACK
6
CONTINUOUS
10
145.525
20
-63.0781
11
145.643
21
-62.755
0
LINE
8
BLACK
6
CONTINUOUS
10
145.643
20
-62.755
11
145.864
21
-62.4916
0
LINE
8
BLACK
6
CONTINUOUS
10
145.864
20
-62.4916
11
146.161
21
-62.3197
0
LINE
8
BLACK
6
CONTINUOUS
10
146.161
20
-62.3197
11
146.5
21
-62.26
0
LINE
8
BLACK
6
CONTINUOUS
10
146.5
20
-62.26
11
146.839
21
-62.3197
0
LINE
8
BLACK
6
CONTINUOUS
10
105.065
20
-60.3389
11
105.325
21
-60.4888
0
LINE
8
BLACK
6
CONTINUOUS
10
105.325
20
-60.4888
11
105.517
21
-60.7184
0
LINE
8
BLACK
6
CONTINUOUS
10
105.517
20
-60.7184
11
105.62
21
-61.0001
0
LINE
8
BLACK
6
CONTINUOUS
10
105.62
20
-61.0001
11
105.62
21
-61.2999
0
LINE
8
BLACK
6
CONTINUOUS
10
105.62
20
-61.2999
11
105.517
21
-61.5816
0
LINE
8
BLACK
6
CONTINUOUS
10
105.517
20
-61.5816
11
105.325
21
-61.8112
0
LINE
8
BLACK
6
CONTINUOUS
10
105.325
20
-61.8112
11
105.065
21
-61.9611
0
LINE
8
BLACK
6
CONTINUOUS
10
105.065
20
-61.9611
11
104.844
21
-62
0
LINE
8
BLACK
6
CONTINUOUS
10
104.844
20
-62
11
104.696
21
-62
0
LINE
8
BLACK
6
CONTINUOUS
10
104.696
20
-62
11
104.475
21
-61.9611
0
LINE
8
BLACK
6
CONTINUOUS
10
104.475
20
-61.9611
11
104.215
21
-61.8112
0
LINE
8
BLACK
6
CONTINUOUS
10
104.215
20
-61.8112
11
104.023
21
-61.5816
0
LINE
8
BLACK
6
CONTINUOUS
10
104.023
20
-61.5816
11
103.92
21
-61.2999
0
LINE
8
BLACK
6
CONTINUOUS
10
103.92
20
-61.2999
11
103.92
21
-61.0001
0
LINE
8
BLACK
6
CONTINUOUS
10
103.92
20
-61.0001
11
104.023
21
-60.7184
0
LINE
8
BLACK
6
CONTINUOUS
10
104.023
20
-60.7184
11
104.215
21
-60.4888
0
LINE
8
BLACK
6
CONTINUOUS
10
104.215
20
-60.4888
11
104.475
21
-60.3389
0
LINE
8
BLACK
6
CONTINUOUS
10
104.475
20
-60.3389
11
104.696
21
-60.3
0
LINE
8
BLACK
6
CONTINUOUS
10
104.696
20
-60.3
11
104.844
21
-60.3
0
LINE
8
BLACK
6
CONTINUOUS
10
104.844
20
-60.3
11
105.065
21
-60.3389
0
LINE
8
BLACK
6
CONTINUOUS
10
102.525
20
-60.3389
11
102.785
21
-60.4888
0
LINE
8
BLACK
6
CONTINUOUS
10
102.785
20
-60.4888
11
102.977
21
-60.7184
0
LINE
8
BLACK
6
CONTINUOUS
10
102.977
20
-60.7184
11
103.08
21
-61.0001
0
LINE
8
BLACK
6
CONTINUOUS
10
103.08
20
-61.0001
11
103.08
21
-61.2999
0
LINE
8
BLACK
6
CONTINUOUS
10
103.08
20
-61.2999
11
102.977
21
-61.5816
0
LINE
8
BLACK
6
CONTINUOUS
10
102.977
20
-61.5816
11
102.785
21
-61.8112
0
LINE
8
BLACK
6
CONTINUOUS
10
102.785
20
-61.8112
11
102.525
21
-61.9611
0
LINE
8
BLACK
6
CONTINUOUS
10
102.525
20
-61.9611
11
102.304
21
-62
0
LINE
8
BLACK
6
CONTINUOUS
10
102.304
20
-62
11
102.156
21
-62
0
LINE
8
BLACK
6
CONTINUOUS
10
102.156
20
-62
11
101.935
21
-61.9611
0
LINE
8
BLACK
6
CONTINUOUS
10
101.935
20
-61.9611
11
101.675
21
-61.8112
0
LINE
8
BLACK
6
CONTINUOUS
10
101.675
20
-61.8112
11
101.483
21
-61.5816
0
LINE
8
BLACK
6
CONTINUOUS
10
101.483
20
-61.5816
11
101.38
21
-61.2999
0
LINE
8
BLACK
6
CONTINUOUS
10
101.38
20
-61.2999
11
101.38
21
-61.0001
0
LINE
8
BLACK
6
CONTINUOUS
10
101.38
20
-61.0001
11
101.483
21
-60.7184
0
LINE
8
BLACK
6
CONTINUOUS
10
101.483
20
-60.7184
11
101.675
21
-60.4888
0
LINE
8
BLACK
6
CONTINUOUS
10
101.675
20
-60.4888
11
101.935
21
-60.3389
0
LINE
8
BLACK
6
CONTINUOUS
10
101.935
20
-60.3389
11
102.156
21
-60.3
0
LINE
8
BLACK
6
CONTINUOUS
10
102.156
20
-60.3
11
102.304
21
-60.3
0
LINE
8
BLACK
6
CONTINUOUS
10
102.304
20
-60.3
11
102.525
21
-60.3389
0
LINE
8
BLACK
6
CONTINUOUS
10
105.065
20
-57.7989
11
105.325
21
-57.9488
0
LINE
8
BLACK
6
CONTINUOUS
10
105.325
20
-57.9488
11
105.517
21
-58.1784
0
LINE
8
BLACK
6
CONTINUOUS
10
105.517
20
-58.1784
11
105.62
21
-58.4601
0
LINE
8
BLACK
6
CONTINUOUS
10
105.62
20
-58.4601
11
105.62
21
-58.7599
0
LINE
8
BLACK
6
CONTINUOUS
10
105.62
20
-58.7599
11
105.517
21
-59.0416
0
LINE
8
BLACK
6
CONTINUOUS
10
105.517
20
-59.0416
11
105.325
21
-59.2712
0
LINE
8
BLACK
6
CONTINUOUS
10
105.325
20
-59.2712
11
105.065
21
-59.4211
0
LINE
8
BLACK
6
CONTINUOUS
10
105.065
20
-59.4211
11
104.844
21
-59.46
0
LINE
8
BLACK
6
CONTINUOUS
10
104.844
20
-59.46
11
104.696
21
-59.46
0
LINE
8
BLACK
6
CONTINUOUS
10
104.696
20
-59.46
11
104.475
21
-59.4211
0
LINE
8
BLACK
6
CONTINUOUS
10
104.475
20
-59.4211
11
104.215
21
-59.2712
0
LINE
8
BLACK
6
CONTINUOUS
10
104.215
20
-59.2712
11
104.023
21
-59.0416
0
LINE
8
BLACK
6
CONTINUOUS
10
104.023
20
-59.0416
11
103.92
21
-58.7599
0
LINE
8
BLACK
6
CONTINUOUS
10
103.92
20
-58.7599
11
103.92
21
-58.4601
0
LINE
8
BLACK
6
CONTINUOUS
10
103.92
20
-58.4601
11
104.023
21
-58.1784
0
LINE
8
BLACK
6
CONTINUOUS
10
104.023
20
-58.1784
11
104.215
21
-57.9488
0
LINE
8
BLACK
6
CONTINUOUS
10
104.215
20
-57.9488
11
104.475
21
-57.7989
0
LINE
8
BLACK
6
CONTINUOUS
10
104.475
20
-57.7989
11
104.696
21
-57.76
0
LINE
8
BLACK
6
CONTINUOUS
10
104.696
20
-57.76
11
104.844
21
-57.76
0
LINE
8
BLACK
6
CONTINUOUS
10
104.844
20
-57.76
11
105.065
21
-57.7989
0
LINE
8
BLACK
6
CONTINUOUS
10
102.525
20
-57.7989
11
102.785
21
-57.9488
0
LINE
8
BLACK
6
CONTINUOUS
10
102.785
20
-57.9488
11
102.977
21
-58.1784
0
LINE
8
BLACK
6
CONTINUOUS
10
102.977
20
-58.1784
11
103.08
21
-58.4601
0
LINE
8
BLACK
6
CONTINUOUS
10
103.08
20
-58.4601
11
103.08
21
-58.7599
0
LINE
8
BLACK
6
CONTINUOUS
10
103.08
20
-58.7599
11
102.977
21
-59.0416
0
LINE
8
BLACK
6
CONTINUOUS
10
102.977
20
-59.0416
11
102.785
21
-59.2712
0
LINE
8
BLACK
6
CONTINUOUS
10
102.785
20
-59.2712
11
102.525
21
-59.4211
0
LINE
8
BLACK
6
CONTINUOUS
10
102.525
20
-59.4211
11
102.304
21
-59.46
0
LINE
8
BLACK
6
CONTINUOUS
10
102.304
20
-59.46
11
102.156
21
-59.46
0
LINE
8
BLACK
6
CONTINUOUS
10
102.156
20
-59.46
11
101.935
21
-59.4211
0
LINE
8
BLACK
6
CONTINUOUS
10
101.935
20
-59.4211
11
101.675
21
-59.2712
0
LINE
8
BLACK
6
CONTINUOUS
10
101.675
20
-59.2712
11
101.483
21
-59.0416
0
LINE
8
BLACK
6
CONTINUOUS
10
101.483
20
-59.0416
11
101.38
21
-58.7599
0
LINE
8
BLACK
6
CONTINUOUS
10
101.38
20
-58.7599
11
101.38
21
-58.4601
0
LINE
8
BLACK
6
CONTINUOUS
10
101.38
20
-58.4601
11
101.483
21
-58.1784
0
LINE
8
BLACK
6
CONTINUOUS
10
101.483
20
-58.1784
11
101.675
21
-57.9488
0
LINE
8
BLACK
6
CONTINUOUS
10
101.675
20
-57.9488
11
101.935
21
-57.7989
0
LINE
8
BLACK
6
CONTINUOUS
10
101.935
20
-57.7989
11
102.156
21
-57.76
0
LINE
8
BLACK
6
CONTINUOUS
10
102.156
20
-57.76
11
102.304
21
-57.76
0
LINE
8
BLACK
6
CONTINUOUS
10
102.304
20
-57.76
11
102.525
21
-57.7989
0
LINE
8
BLACK
6
CONTINUOUS
10
105.065
20
-55.2589
11
105.325
21
-55.4088
0
LINE
8
BLACK
6
CONTINUOUS
10
105.325
20
-55.4088
11
105.517
21
-55.6384
0
LINE
8
BLACK
6
CONTINUOUS
10
105.517
20
-55.6384
11
105.62
21
-55.9201
0
LINE
8
BLACK
6
CONTINUOUS
10
105.62
20
-55.9201
11
105.62
21
-56.2199
0
LINE
8
BLACK
6
CONTINUOUS
10
105.62
20
-56.2199
11
105.517
21
-56.5016
0
LINE
8
BLACK
6
CONTINUOUS
10
105.517
20
-56.5016
11
105.325
21
-56.7312
0
LINE
8
BLACK
6
CONTINUOUS
10
105.325
20
-56.7312
11
105.065
21
-56.8811
0
LINE
8
BLACK
6
CONTINUOUS
10
105.065
20
-56.8811
11
104.844
21
-56.92
0
LINE
8
BLACK
6
CONTINUOUS
10
104.844
20
-56.92
11
104.696
21
-56.92
0
LINE
8
BLACK
6
CONTINUOUS
10
104.696
20
-56.92
11
104.475
21
-56.8811
0
LINE
8
BLACK
6
CONTINUOUS
10
104.475
20
-56.8811
11
104.215
21
-56.7312
0
LINE
8
BLACK
6
CONTINUOUS
10
104.215
20
-56.7312
11
104.023
21
-56.5016
0
LINE
8
BLACK
6
CONTINUOUS
10
104.023
20
-56.5016
11
103.92
21
-56.2199
0
LINE
8
BLACK
6
CONTINUOUS
10
103.92
20
-56.2199
11
103.92
21
-55.9201
0
LINE
8
BLACK
6
CONTINUOUS
10
103.92
20
-55.9201
11
104.023
21
-55.6384
0
LINE
8
BLACK
6
CONTINUOUS
10
104.023
20
-55.6384
11
104.215
21
-55.4088
0
LINE
8
BLACK
6
CONTINUOUS
10
104.215
20
-55.4088
11
104.475
21
-55.2589
0
LINE
8
BLACK
6
CONTINUOUS
10
104.475
20
-55.2589
11
104.696
21
-55.22
0
LINE
8
BLACK
6
CONTINUOUS
10
104.696
20
-55.22
11
104.844
21
-55.22
0
LINE
8
BLACK
6
CONTINUOUS
10
104.844
20
-55.22
11
105.065
21
-55.2589
0
LINE
8
BLACK
6
CONTINUOUS
10
102.525
20
-55.2589
11
102.785
21
-55.4088
0
LINE
8
BLACK
6
CONTINUOUS
10
102.785
20
-55.4088
11
102.977
21
-55.6384
0
LINE
8
BLACK
6
CONTINUOUS
10
102.977
20
-55.6384
11
103.08
21
-55.9201
0
LINE
8
BLACK
6
CONTINUOUS
10
103.08
20
-55.9201
11
103.08
21
-56.2199
0
LINE
8
BLACK
6
CONTINUOUS
10
103.08
20
-56.2199
11
102.977
21
-56.5016
0
LINE
8
BLACK
6
CONTINUOUS
10
102.977
20
-56.5016
11
102.785
21
-56.7312
0
LINE
8
BLACK
6
CONTINUOUS
10
102.785
20
-56.7312
11
102.525
21
-56.8811
0
LINE
8
BLACK
6
CONTINUOUS
10
102.525
20
-56.8811
11
102.304
21
-56.92
0
LINE
8
BLACK
6
CONTINUOUS
10
102.304
20
-56.92
11
102.156
21
-56.92
0
LINE
8
BLACK
6
CONTINUOUS
10
102.156
20
-56.92
11
101.935
21
-56.8811
0
LINE
8
BLACK
6
CONTINUOUS
10
101.935
20
-56.8811
11
101.675
21
-56.7312
0
LINE
8
BLACK
6
CONTINUOUS
10
101.675
20
-56.7312
11
101.483
21
-56.5016
0
LINE
8
BLACK
6
CONTINUOUS
10
101.483
20
-56.5016
11
101.38
21
-56.2199
0
LINE
8
BLACK
6
CONTINUOUS
10
101.38
20
-56.2199
11
101.38
21
-55.9201
0
LINE
8
BLACK
6
CONTINUOUS
10
101.38
20
-55.9201
11
101.483
21
-55.6384
0
LINE
8
BLACK
6
CONTINUOUS
10
101.483
20
-55.6384
11
101.675
21
-55.4088
0
LINE
8
BLACK
6
CONTINUOUS
10
101.675
20
-55.4088
11
101.935
21
-55.2589
0
LINE
8
BLACK
6
CONTINUOUS
10
101.935
20
-55.2589
11
102.156
21
-55.22
0
LINE
8
BLACK
6
CONTINUOUS
10
102.156
20
-55.22
11
102.304
21
-55.22
0
LINE
8
BLACK
6
CONTINUOUS
10
102.304
20
-55.22
11
102.525
21
-55.2589
0
LINE
8
BLACK
6
CONTINUOUS
10
105.065
20
-52.7189
11
105.325
21
-52.8688
0
LINE
8
BLACK
6
CONTINUOUS
10
105.325
20
-52.8688
11
105.517
21
-53.0984
0
LINE
8
BLACK
6
CONTINUOUS
10
105.517
20
-53.0984
11
105.62
21
-53.3801
0
LINE
8
BLACK
6
CONTINUOUS
10
105.62
20
-53.3801
11
105.62
21
-53.6799
0
LINE
8
BLACK
6
CONTINUOUS
10
105.62
20
-53.6799
11
105.517
21
-53.9616
0
LINE
8
BLACK
6
CONTINUOUS
10
105.517
20
-53.9616
11
105.325
21
-54.1912
0
LINE
8
BLACK
6
CONTINUOUS
10
105.325
20
-54.1912
11
105.065
21
-54.3411
0
LINE
8
BLACK
6
CONTINUOUS
10
105.065
20
-54.3411
11
104.844
21
-54.38
0
LINE
8
BLACK
6
CONTINUOUS
10
104.844
20
-54.38
11
104.696
21
-54.38
0
LINE
8
BLACK
6
CONTINUOUS
10
104.696
20
-54.38
11
104.475
21
-54.3411
0
LINE
8
BLACK
6
CONTINUOUS
10
104.475
20
-54.3411
11
104.215
21
-54.1912
0
LINE
8
BLACK
6
CONTINUOUS
10
104.215
20
-54.1912
11
104.023
21
-53.9616
0
LINE
8
BLACK
6
CONTINUOUS
10
104.023
20
-53.9616
11
103.92
21
-53.6799
0
LINE
8
BLACK
6
CONTINUOUS
10
103.92
20
-53.6799
11
103.92
21
-53.3801
0
LINE
8
BLACK
6
CONTINUOUS
10
103.92
20
-53.3801
11
104.023
21
-53.0984
0
LINE
8
BLACK
6
CONTINUOUS
10
104.023
20
-53.0984
11
104.215
21
-52.8688
0
LINE
8
BLACK
6
CONTINUOUS
10
104.215
20
-52.8688
11
104.475
21
-52.7189
0
LINE
8
BLACK
6
CONTINUOUS
10
104.475
20
-52.7189
11
104.696
21
-52.68
0
LINE
8
BLACK
6
CONTINUOUS
10
104.696
20
-52.68
11
104.844
21
-52.68
0
LINE
8
BLACK
6
CONTINUOUS
10
104.844
20
-52.68
11
105.065
21
-52.7189
0
LINE
8
BLACK
6
CONTINUOUS
10
102.525
20
-52.7189
11
102.785
21
-52.8688
0
LINE
8
BLACK
6
CONTINUOUS
10
102.785
20
-52.8688
11
102.977
21
-53.0984
0
LINE
8
BLACK
6
CONTINUOUS
10
102.977
20
-53.0984
11
103.08
21
-53.3801
0
LINE
8
BLACK
6
CONTINUOUS
10
103.08
20
-53.3801
11
103.08
21
-53.6799
0
LINE
8
BLACK
6
CONTINUOUS
10
103.08
20
-53.6799
11
102.977
21
-53.9616
0
LINE
8
BLACK
6
CONTINUOUS
10
102.977
20
-53.9616
11
102.785
21
-54.1912
0
LINE
8
BLACK
6
CONTINUOUS
10
102.785
20
-54.1912
11
102.525
21
-54.3411
0
LINE
8
BLACK
6
CONTINUOUS
10
102.525
20
-54.3411
11
102.304
21
-54.38
0
LINE
8
BLACK
6
CONTINUOUS
10
102.304
20
-54.38
11
102.156
21
-54.38
0
LINE
8
BLACK
6
CONTINUOUS
10
102.156
20
-54.38
11
101.935
21
-54.3411
0
LINE
8
BLACK
6
CONTINUOUS
10
101.935
20
-54.3411
11
101.675
21
-54.1912
0
LINE
8
BLACK
6
CONTINUOUS
10
101.675
20
-54.1912
11
101.483
21
-53.9616
0
LINE
8
BLACK
6
CONTINUOUS
10
101.483
20
-53.9616
11
101.38
21
-53.6799
0
LINE
8
BLACK
6
CONTINUOUS
10
101.38
20
-53.6799
11
101.38
21
-53.3801
0
LINE
8
BLACK
6
CONTINUOUS
10
101.38
20
-53.3801
11
101.483
21
-53.0984
0
LINE
8
BLACK
6
CONTINUOUS
10
101.483
20
-53.0984
11
101.675
21
-52.8688
0
LINE
8
BLACK
6
CONTINUOUS
10
101.675
20
-52.8688
11
101.935
21
-52.7189
0
LINE
8
BLACK
6
CONTINUOUS
10
101.935
20
-52.7189
11
102.156
21
-52.68
0
LINE
8
BLACK
6
CONTINUOUS
10
102.156
20
-52.68
11
102.304
21
-52.68
0
LINE
8
BLACK
6
CONTINUOUS
10
102.304
20
-52.68
11
102.525
21
-52.7189
0
LINE
8
BLACK
6
CONTINUOUS
10
105.065
20
-50.1789
11
105.325
21
-50.3288
0
LINE
8
BLACK
6
CONTINUOUS
10
105.325
20
-50.3288
11
105.517
21
-50.5584
0
LINE
8
BLACK
6
CONTINUOUS
10
105.517
20
-50.5584
11
105.62
21
-50.8401
0
LINE
8
BLACK
6
CONTINUOUS
10
105.62
20
-50.8401
11
105.62
21
-51.1399
0
LINE
8
BLACK
6
CONTINUOUS
10
105.62
20
-51.1399
11
105.517
21
-51.4216
0
LINE
8
BLACK
6
CONTINUOUS
10
105.517
20
-51.4216
11
105.325
21
-51.6512
0
LINE
8
BLACK
6
CONTINUOUS
10
105.325
20
-51.6512
11
105.065
21
-51.8011
0
LINE
8
BLACK
6
CONTINUOUS
10
105.065
20
-51.8011
11
104.844
21
-51.84
0
LINE
8
BLACK
6
CONTINUOUS
10
104.844
20
-51.84
11
104.696
21
-51.84
0
LINE
8
BLACK
6
CONTINUOUS
10
104.696
20
-51.84
11
104.475
21
-51.8011
0
LINE
8
BLACK
6
CONTINUOUS
10
104.475
20
-51.8011
11
104.215
21
-51.6512
0
LINE
8
BLACK
6
CONTINUOUS
10
104.215
20
-51.6512
11
104.023
21
-51.4216
0
LINE
8
BLACK
6
CONTINUOUS
10
104.023
20
-51.4216
11
103.92
21
-51.1399
0
LINE
8
BLACK
6
CONTINUOUS
10
103.92
20
-51.1399
11
103.92
21
-50.8401
0
LINE
8
BLACK
6
CONTINUOUS
10
103.92
20
-50.8401
11
104.023
21
-50.5584
0
LINE
8
BLACK
6
CONTINUOUS
10
104.023
20
-50.5584
11
104.215
21
-50.3288
0
LINE
8
BLACK
6
CONTINUOUS
10
104.215
20
-50.3288
11
104.475
21
-50.1789
0
LINE
8
BLACK
6
CONTINUOUS
10
104.475
20
-50.1789
11
104.696
21
-50.14
0
LINE
8
BLACK
6
CONTINUOUS
10
104.696
20
-50.14
11
104.844
21
-50.14
0
LINE
8
BLACK
6
CONTINUOUS
10
104.844
20
-50.14
11
105.065
21
-50.1789
0
LINE
8
BLACK
6
CONTINUOUS
10
102.525
20
-50.1789
11
102.785
21
-50.3288
0
LINE
8
BLACK
6
CONTINUOUS
10
102.785
20
-50.3288
11
102.977
21
-50.5584
0
LINE
8
BLACK
6
CONTINUOUS
10
102.977
20
-50.5584
11
103.08
21
-50.8401
0
LINE
8
BLACK
6
CONTINUOUS
10
103.08
20
-50.8401
11
103.08
21
-51.1399
0
LINE
8
BLACK
6
CONTINUOUS
10
103.08
20
-51.1399
11
102.977
21
-51.4216
0
LINE
8
BLACK
6
CONTINUOUS
10
102.977
20
-51.4216
11
102.785
21
-51.6512
0
LINE
8
BLACK
6
CONTINUOUS
10
102.785
20
-51.6512
11
102.525
21
-51.8011
0
LINE
8
BLACK
6
CONTINUOUS
10
102.525
20
-51.8011
11
102.304
21
-51.84
0
LINE
8
BLACK
6
CONTINUOUS
10
102.304
20
-51.84
11
102.156
21
-51.84
0
LINE
8
BLACK
6
CONTINUOUS
10
102.156
20
-51.84
11
101.935
21
-51.8011
0
LINE
8
BLACK
6
CONTINUOUS
10
101.935
20
-51.8011
11
101.675
21
-51.6512
0
LINE
8
BLACK
6
CONTINUOUS
10
101.675
20
-51.6512
11
101.483
21
-51.4216
0
LINE
8
BLACK
6
CONTINUOUS
10
101.483
20
-51.4216
11
101.38
21
-51.1399
0
LINE
8
BLACK
6
CONTINUOUS
10
101.38
20
-51.1399
11
101.38
21
-50.8401
0
LINE
8
BLACK
6
CONTINUOUS
10
101.38
20
-50.8401
11
101.483
21
-50.5584
0
LINE
8
BLACK
6
CONTINUOUS
10
101.483
20
-50.5584
11
101.675
21
-50.3288
0
LINE
8
BLACK
6
CONTINUOUS
10
101.675
20
-50.3288
11
101.935
21
-50.1789
0
LINE
8
BLACK
6
CONTINUOUS
10
101.935
20
-50.1789
11
102.156
21
-50.14
0
LINE
8
BLACK
6
CONTINUOUS
10
102.156
20
-50.14
11
102.304
21
-50.14
0
LINE
8
BLACK
6
CONTINUOUS
10
102.304
20
-50.14
11
102.525
21
-50.1789
0
LINE
8
BLACK
6
CONTINUOUS
10
146.839
20
-47.8197
11
147.136
21
-47.9916
0
LINE
8
BLACK
6
CONTINUOUS
10
147.136
20
-47.9916
11
147.357
21
-48.255
0
LINE
8
BLACK
6
CONTINUOUS
10
147.357
20
-48.255
11
147.475
21
-48.5781
0
LINE
8
BLACK
6
CONTINUOUS
10
147.475
20
-48.5781
11
147.475
21
-48.9219
0
LINE
8
BLACK
6
CONTINUOUS
10
147.475
20
-48.9219
11
147.357
21
-49.245
0
LINE
8
BLACK
6
CONTINUOUS
10
147.357
20
-49.245
11
147.136
21
-49.5084
0
LINE
8
BLACK
6
CONTINUOUS
10
147.136
20
-49.5084
11
146.839
21
-49.6803
0
LINE
8
BLACK
6
CONTINUOUS
10
146.839
20
-49.6803
11
146.5
21
-49.74
0
LINE
8
BLACK
6
CONTINUOUS
10
146.5
20
-49.74
11
146.161
21
-49.6803
0
LINE
8
BLACK
6
CONTINUOUS
10
146.161
20
-49.6803
11
145.864
21
-49.5084
0
LINE
8
BLACK
6
CONTINUOUS
10
145.864
20
-49.5084
11
145.643
21
-49.245
0
LINE
8
BLACK
6
CONTINUOUS
10
145.643
20
-49.245
11
145.525
21
-48.9219
0
LINE
8
BLACK
6
CONTINUOUS
10
145.525
20
-48.9219
11
145.525
21
-48.5781
0
LINE
8
BLACK
6
CONTINUOUS
10
145.525
20
-48.5781
11
145.643
21
-48.255
0
LINE
8
BLACK
6
CONTINUOUS
10
145.643
20
-48.255
11
145.864
21
-47.9916
0
LINE
8
BLACK
6
CONTINUOUS
10
145.864
20
-47.9916
11
146.161
21
-47.8197
0
LINE
8
BLACK
6
CONTINUOUS
10
146.161
20
-47.8197
11
146.5
21
-47.76
0
LINE
8
BLACK
6
CONTINUOUS
10
146.5
20
-47.76
11
146.839
21
-47.8197
0
LINE
8
BLACK
6
CONTINUOUS
10
105.065
20
-47.6389
11
105.325
21
-47.7888
0
LINE
8
BLACK
6
CONTINUOUS
10
105.325
20
-47.7888
11
105.517
21
-48.0184
0
LINE
8
BLACK
6
CONTINUOUS
10
105.517
20
-48.0184
11
105.62
21
-48.3001
0
LINE
8
BLACK
6
CONTINUOUS
10
105.62
20
-48.3001
11
105.62
21
-48.5999
0
LINE
8
BLACK
6
CONTINUOUS
10
105.62
20
-48.5999
11
105.517
21
-48.8816
0
LINE
8
BLACK
6
CONTINUOUS
10
105.517
20
-48.8816
11
105.325
21
-49.1112
0
LINE
8
BLACK
6
CONTINUOUS
10
105.325
20
-49.1112
11
105.065
21
-49.2611
0
LINE
8
BLACK
6
CONTINUOUS
10
105.065
20
-49.2611
11
104.844
21
-49.3
0
LINE
8
BLACK
6
CONTINUOUS
10
104.844
20
-49.3
11
104.696
21
-49.3
0
LINE
8
BLACK
6
CONTINUOUS
10
104.696
20
-49.3
11
104.475
21
-49.2611
0
LINE
8
BLACK
6
CONTINUOUS
10
104.475
20
-49.2611
11
104.215
21
-49.1112
0
LINE
8
BLACK
6
CONTINUOUS
10
104.215
20
-49.1112
11
104.023
21
-48.8816
0
LINE
8
BLACK
6
CONTINUOUS
10
104.023
20
-48.8816
11
103.92
21
-48.5999
0
LINE
8
BLACK
6
CONTINUOUS
10
103.92
20
-48.5999
11
103.92
21
-48.3001
0
LINE
8
BLACK
6
CONTINUOUS
10
103.92
20
-48.3001
11
104.023
21
-48.0184
0
LINE
8
BLACK
6
CONTINUOUS
10
104.023
20
-48.0184
11
104.215
21
-47.7888
0
LINE
8
BLACK
6
CONTINUOUS
10
104.215
20
-47.7888
11
104.475
21
-47.6389
0
LINE
8
BLACK
6
CONTINUOUS
10
104.475
20
-47.6389
11
104.696
21
-47.6
0
LINE
8
BLACK
6
CONTINUOUS
10
104.696
20
-47.6
11
104.844
21
-47.6
0
LINE
8
BLACK
6
CONTINUOUS
10
104.844
20
-47.6
11
105.065
21
-47.6389
0
LINE
8
BLACK
6
CONTINUOUS
10
102.525
20
-47.6389
11
102.785
21
-47.7888
0
LINE
8
BLACK
6
CONTINUOUS
10
102.785
20
-47.7888
11
102.977
21
-48.0184
0
LINE
8
BLACK
6
CONTINUOUS
10
102.977
20
-48.0184
11
103.08
21
-48.3001
0
LINE
8
BLACK
6
CONTINUOUS
10
103.08
20
-48.3001
11
103.08
21
-48.5999
0
LINE
8
BLACK
6
CONTINUOUS
10
103.08
20
-48.5999
11
102.977
21
-48.8816
0
LINE
8
BLACK
6
CONTINUOUS
10
102.977
20
-48.8816
11
102.785
21
-49.1112
0
LINE
8
BLACK
6
CONTINUOUS
10
102.785
20
-49.1112
11
102.525
21
-49.2611
0
LINE
8
BLACK
6
CONTINUOUS
10
102.525
20
-49.2611
11
102.304
21
-49.3
0
LINE
8
BLACK
6
CONTINUOUS
10
102.304
20
-49.3
11
102.156
21
-49.3
0
LINE
8
BLACK
6
CONTINUOUS
10
102.156
20
-49.3
11
101.935
21
-49.2611
0
LINE
8
BLACK
6
CONTINUOUS
10
101.935
20
-49.2611
11
101.675
21
-49.1112
0
LINE
8
BLACK
6
CONTINUOUS
10
101.675
20
-49.1112
11
101.483
21
-48.8816
0
LINE
8
BLACK
6
CONTINUOUS
10
101.483
20
-48.8816
11
101.38
21
-48.5999
0
LINE
8
BLACK
6
CONTINUOUS
10
101.38
20
-48.5999
11
101.38
21
-48.3001
0
LINE
8
BLACK
6
CONTINUOUS
10
101.38
20
-48.3001
11
101.483
21
-48.0184
0
LINE
8
BLACK
6
CONTINUOUS
10
101.483
20
-48.0184
11
101.675
21
-47.7888
0
LINE
8
BLACK
6
CONTINUOUS
10
101.675
20
-47.7888
11
101.935
21
-47.6389
0
LINE
8
BLACK
6
CONTINUOUS
10
101.935
20
-47.6389
11
102.156
21
-47.6
0
LINE
8
BLACK
6
CONTINUOUS
10
102.156
20
-47.6
11
102.304
21
-47.6
0
LINE
8
BLACK
6
CONTINUOUS
10
102.304
20
-47.6
11
102.525
21
-47.6389
0
LINE
8
BLACK
6
CONTINUOUS
10
151.739
20
-47.2197
11
152.036
21
-47.3916
0
LINE
8
BLACK
6
CONTINUOUS
10
152.036
20
-47.3916
11
152.257
21
-47.655
0
LINE
8
BLACK
6
CONTINUOUS
10
152.257
20
-47.655
11
152.375
21
-47.9781
0
LINE
8
BLACK
6
CONTINUOUS
10
152.375
20
-47.9781
11
152.375
21
-48.3219
0
LINE
8
BLACK
6
CONTINUOUS
10
152.375
20
-48.3219
11
152.257
21
-48.645
0
LINE
8
BLACK
6
CONTINUOUS
10
152.257
20
-48.645
11
152.036
21
-48.9084
0
LINE
8
BLACK
6
CONTINUOUS
10
152.036
20
-48.9084
11
151.739
21
-49.0803
0
LINE
8
BLACK
6
CONTINUOUS
10
151.739
20
-49.0803
11
151.4
21
-49.14
0
LINE
8
BLACK
6
CONTINUOUS
10
151.4
20
-49.14
11
151.061
21
-49.0803
0
LINE
8
BLACK
6
CONTINUOUS
10
151.061
20
-49.0803
11
150.764
21
-48.9084
0
LINE
8
BLACK
6
CONTINUOUS
10
150.764
20
-48.9084
11
150.543
21
-48.645
0
LINE
8
BLACK
6
CONTINUOUS
10
150.543
20
-48.645
11
150.425
21
-48.3219
0
LINE
8
BLACK
6
CONTINUOUS
10
150.425
20
-48.3219
11
150.425
21
-47.9781
0
LINE
8
BLACK
6
CONTINUOUS
10
150.425
20
-47.9781
11
150.543
21
-47.655
0
LINE
8
BLACK
6
CONTINUOUS
10
150.543
20
-47.655
11
150.764
21
-47.3916
0
LINE
8
BLACK
6
CONTINUOUS
10
150.764
20
-47.3916
11
151.061
21
-47.2197
0
LINE
8
BLACK
6
CONTINUOUS
10
151.061
20
-47.2197
11
151.4
21
-47.16
0
LINE
8
BLACK
6
CONTINUOUS
10
151.4
20
-47.16
11
151.739
21
-47.2197
0
LINE
8
BLACK
6
CONTINUOUS
10
111.744
20
-47.2183
11
111.994
21
-47.3625
0
LINE
8
BLACK
6
CONTINUOUS
10
111.994
20
-47.3625
11
112.179
21
-47.5833
0
LINE
8
BLACK
6
CONTINUOUS
10
112.179
20
-47.5833
11
112.277
21
-47.8542
0
LINE
8
BLACK
6
CONTINUOUS
10
112.277
20
-47.8542
11
112.277
21
-48.1425
0
LINE
8
BLACK
6
CONTINUOUS
10
112.277
20
-48.1425
11
112.179
21
-48.4134
0
LINE
8
BLACK
6
CONTINUOUS
10
112.179
20
-48.4134
11
111.994
21
-48.6343
0
LINE
8
BLACK
6
CONTINUOUS
10
111.994
20
-48.6343
11
111.744
21
-48.7784
0
LINE
8
BLACK
6
CONTINUOUS
10
111.744
20
-48.7784
11
111.46
21
-48.8285
0
LINE
8
BLACK
6
CONTINUOUS
10
111.46
20
-48.8285
11
111.176
21
-48.7784
0
LINE
8
BLACK
6
CONTINUOUS
10
111.176
20
-48.7784
11
110.926
21
-48.6343
0
LINE
8
BLACK
6
CONTINUOUS
10
110.926
20
-48.6343
11
110.741
21
-48.4134
0
LINE
8
BLACK
6
CONTINUOUS
10
110.741
20
-48.4134
11
110.642
21
-48.1425
0
LINE
8
BLACK
6
CONTINUOUS
10
110.642
20
-48.1425
11
110.642
21
-47.8542
0
LINE
8
BLACK
6
CONTINUOUS
10
110.642
20
-47.8542
11
110.741
21
-47.5833
0
LINE
8
BLACK
6
CONTINUOUS
10
110.741
20
-47.5833
11
110.926
21
-47.3625
0
LINE
8
BLACK
6
CONTINUOUS
10
110.926
20
-47.3625
11
111.176
21
-47.2183
0
LINE
8
BLACK
6
CONTINUOUS
10
111.176
20
-47.2183
11
111.46
21
-47.1683
0
LINE
8
BLACK
6
CONTINUOUS
10
111.46
20
-47.1683
11
111.744
21
-47.2183
0
LINE
8
BLACK
6
CONTINUOUS
10
114.817
20
-48.8159
11
113.182
21
-48.8159
0
LINE
8
BLACK
6
CONTINUOUS
10
113.182
20
-48.8159
11
113.182
21
-47.1809
0
LINE
8
BLACK
6
CONTINUOUS
10
113.182
20
-47.1809
11
114.817
21
-47.1809
0
LINE
8
BLACK
6
CONTINUOUS
10
114.817
20
-47.1809
11
114.817
21
-48.8159
0
LINE
8
BLACK
6
CONTINUOUS
10
105.065
20
-45.0989
11
105.325
21
-45.2488
0
LINE
8
BLACK
6
CONTINUOUS
10
105.325
20
-45.2488
11
105.517
21
-45.4784
0
LINE
8
BLACK
6
CONTINUOUS
10
105.517
20
-45.4784
11
105.62
21
-45.7601
0
LINE
8
BLACK
6
CONTINUOUS
10
105.62
20
-45.7601
11
105.62
21
-46.0599
0
LINE
8
BLACK
6
CONTINUOUS
10
105.62
20
-46.0599
11
105.517
21
-46.3416
0
LINE
8
BLACK
6
CONTINUOUS
10
105.517
20
-46.3416
11
105.325
21
-46.5712
0
LINE
8
BLACK
6
CONTINUOUS
10
105.325
20
-46.5712
11
105.065
21
-46.7211
0
LINE
8
BLACK
6
CONTINUOUS
10
105.065
20
-46.7211
11
104.844
21
-46.76
0
LINE
8
BLACK
6
CONTINUOUS
10
104.844
20
-46.76
11
104.696
21
-46.76
0
LINE
8
BLACK
6
CONTINUOUS
10
104.696
20
-46.76
11
104.475
21
-46.7211
0
LINE
8
BLACK
6
CONTINUOUS
10
104.475
20
-46.7211
11
104.215
21
-46.5712
0
LINE
8
BLACK
6
CONTINUOUS
10
104.215
20
-46.5712
11
104.023
21
-46.3416
0
LINE
8
BLACK
6
CONTINUOUS
10
104.023
20
-46.3416
11
103.92
21
-46.0599
0
LINE
8
BLACK
6
CONTINUOUS
10
103.92
20
-46.0599
11
103.92
21
-45.7601
0
LINE
8
BLACK
6
CONTINUOUS
10
103.92
20
-45.7601
11
104.023
21
-45.4784
0
LINE
8
BLACK
6
CONTINUOUS
10
104.023
20
-45.4784
11
104.215
21
-45.2488
0
LINE
8
BLACK
6
CONTINUOUS
10
104.215
20
-45.2488
11
104.475
21
-45.0989
0
LINE
8
BLACK
6
CONTINUOUS
10
104.475
20
-45.0989
11
104.696
21
-45.06
0
LINE
8
BLACK
6
CONTINUOUS
10
104.696
20
-45.06
11
104.844
21
-45.06
0
LINE
8
BLACK
6
CONTINUOUS
10
104.844
20
-45.06
11
105.065
21
-45.0989
0
LINE
8
BLACK
6
CONTINUOUS
10
102.525
20
-45.0989
11
102.785
21
-45.2488
0
LINE
8
BLACK
6
CONTINUOUS
10
102.785
20
-45.2488
11
102.977
21
-45.4784
0
LINE
8
BLACK
6
CONTINUOUS
10
102.977
20
-45.4784
11
103.08
21
-45.7601
0
LINE
8
BLACK
6
CONTINUOUS
10
103.08
20
-45.7601
11
103.08
21
-46.0599
0
LINE
8
BLACK
6
CONTINUOUS
10
103.08
20
-46.0599
11
102.977
21
-46.3416
0
LINE
8
BLACK
6
CONTINUOUS
10
102.977
20
-46.3416
11
102.785
21
-46.5712
0
LINE
8
BLACK
6
CONTINUOUS
10
102.785
20
-46.5712
11
102.525
21
-46.7211
0
LINE
8
BLACK
6
CONTINUOUS
10
102.525
20
-46.7211
11
102.304
21
-46.76
0
LINE
8
BLACK
6
CONTINUOUS
10
102.304
20
-46.76
11
102.156
21
-46.76
0
LINE
8
BLACK
6
CONTINUOUS
10
102.156
20
-46.76
11
101.935
21
-46.7211
0
LINE
8
BLACK
6
CONTINUOUS
10
101.935
20
-46.7211
11
101.675
21
-46.5712
0
LINE
8
BLACK
6
CONTINUOUS
10
101.675
20
-46.5712
11
101.483
21
-46.3416
0
LINE
8
BLACK
6
CONTINUOUS
10
101.483
20
-46.3416
11
101.38
21
-46.0599
0
LINE
8
BLACK
6
CONTINUOUS
10
101.38
20
-46.0599
11
101.38
21
-45.7601
0
LINE
8
BLACK
6
CONTINUOUS
10
101.38
20
-45.7601
11
101.483
21
-45.4784
0
LINE
8
BLACK
6
CONTINUOUS
10
101.483
20
-45.4784
11
101.675
21
-45.2488
0
LINE
8
BLACK
6
CONTINUOUS
10
101.675
20
-45.2488
11
101.935
21
-45.0989
0
LINE
8
BLACK
6
CONTINUOUS
10
101.935
20
-45.0989
11
102.156
21
-45.06
0
LINE
8
BLACK
6
CONTINUOUS
10
102.156
20
-45.06
11
102.304
21
-45.06
0
LINE
8
BLACK
6
CONTINUOUS
10
102.304
20
-45.06
11
102.525
21
-45.0989
0
LINE
8
BLACK
6
CONTINUOUS
10
105.065
20
-42.5589
11
105.325
21
-42.7088
0
LINE
8
BLACK
6
CONTINUOUS
10
105.325
20
-42.7088
11
105.517
21
-42.9384
0
LINE
8
BLACK
6
CONTINUOUS
10
105.517
20
-42.9384
11
105.62
21
-43.2201
0
LINE
8
BLACK
6
CONTINUOUS
10
105.62
20
-43.2201
11
105.62
21
-43.5199
0
LINE
8
BLACK
6
CONTINUOUS
10
105.62
20
-43.5199
11
105.517
21
-43.8016
0
LINE
8
BLACK
6
CONTINUOUS
10
105.517
20
-43.8016
11
105.325
21
-44.0312
0
LINE
8
BLACK
6
CONTINUOUS
10
105.325
20
-44.0312
11
105.065
21
-44.1811
0
LINE
8
BLACK
6
CONTINUOUS
10
105.065
20
-44.1811
11
104.844
21
-44.22
0
LINE
8
BLACK
6
CONTINUOUS
10
104.844
20
-44.22
11
104.696
21
-44.22
0
LINE
8
BLACK
6
CONTINUOUS
10
104.696
20
-44.22
11
104.475
21
-44.1811
0
LINE
8
BLACK
6
CONTINUOUS
10
104.475
20
-44.1811
11
104.215
21
-44.0312
0
LINE
8
BLACK
6
CONTINUOUS
10
104.215
20
-44.0312
11
104.023
21
-43.8016
0
LINE
8
BLACK
6
CONTINUOUS
10
104.023
20
-43.8016
11
103.92
21
-43.5199
0
LINE
8
BLACK
6
CONTINUOUS
10
103.92
20
-43.5199
11
103.92
21
-43.2201
0
LINE
8
BLACK
6
CONTINUOUS
10
103.92
20
-43.2201
11
104.023
21
-42.9384
0
LINE
8
BLACK
6
CONTINUOUS
10
104.023
20
-42.9384
11
104.215
21
-42.7088
0
LINE
8
BLACK
6
CONTINUOUS
10
104.215
20
-42.7088
11
104.475
21
-42.5589
0
LINE
8
BLACK
6
CONTINUOUS
10
104.475
20
-42.5589
11
104.696
21
-42.52
0
LINE
8
BLACK
6
CONTINUOUS
10
104.696
20
-42.52
11
104.844
21
-42.52
0
LINE
8
BLACK
6
CONTINUOUS
10
104.844
20
-42.52
11
105.065
21
-42.5589
0
LINE
8
BLACK
6
CONTINUOUS
10
103.08
20
-44.22
11
101.38
21
-44.22
0
LINE
8
BLACK
6
CONTINUOUS
10
101.38
20
-44.22
11
101.38
21
-42.52
0
LINE
8
BLACK
6
CONTINUOUS
10
101.38
20
-42.52
11
103.08
21
-42.52
0
LINE
8
BLACK
6
CONTINUOUS
10
103.08
20
-42.52
11
103.08
21
-44.22
  0
ENDSEC
  0
EOF
