G04 #@! TF.GenerationSoftware,KiCad,Pcbnew,(5.0.1)-3*
G04 #@! TF.CreationDate,2019-01-26T22:36:32-03:30*
G04 #@! TF.ProjectId,Battery Pack Side 2,42617474657279205061636B20536964,rev?*
G04 #@! TF.SameCoordinates,Original*
G04 #@! TF.FileFunction,Soldermask,Top*
G04 #@! TF.FilePolarity,Negative*
%FSLAX46Y46*%
G04 Gerber Fmt 4.6, Leading zero omitted, Abs format (unit mm)*
G04 Created by KiCad (PCBNEW (5.0.1)-3) date 2019-01-26 10:36:32 PM*
%MOMM*%
%LPD*%
G01*
G04 APERTURE LIST*
%ADD10C,0.100000*%
G04 APERTURE END LIST*
D10*
G36*
X110225331Y-117918211D02*
X110553092Y-118053974D01*
X110848073Y-118251074D01*
X111098926Y-118501927D01*
X111296026Y-118796908D01*
X111431789Y-119124669D01*
X111501000Y-119472616D01*
X111501000Y-119827384D01*
X111431789Y-120175331D01*
X111296026Y-120503092D01*
X111098926Y-120798073D01*
X110848073Y-121048926D01*
X110553092Y-121246026D01*
X110225331Y-121381789D01*
X109877384Y-121451000D01*
X109522616Y-121451000D01*
X109174669Y-121381789D01*
X108846908Y-121246026D01*
X108551927Y-121048926D01*
X108301074Y-120798073D01*
X108103974Y-120503092D01*
X107968211Y-120175331D01*
X107899000Y-119827384D01*
X107899000Y-119472616D01*
X107968211Y-119124669D01*
X108103974Y-118796908D01*
X108301074Y-118501927D01*
X108551927Y-118251074D01*
X108846908Y-118053974D01*
X109174669Y-117918211D01*
X109522616Y-117849000D01*
X109877384Y-117849000D01*
X110225331Y-117918211D01*
X110225331Y-117918211D01*
G37*
G36*
X90825331Y-117918211D02*
X91153092Y-118053974D01*
X91448073Y-118251074D01*
X91698926Y-118501927D01*
X91896026Y-118796908D01*
X92031789Y-119124669D01*
X92101000Y-119472616D01*
X92101000Y-119827384D01*
X92031789Y-120175331D01*
X91896026Y-120503092D01*
X91698926Y-120798073D01*
X91448073Y-121048926D01*
X91153092Y-121246026D01*
X90825331Y-121381789D01*
X90477384Y-121451000D01*
X90122616Y-121451000D01*
X89774669Y-121381789D01*
X89446908Y-121246026D01*
X89151927Y-121048926D01*
X88901074Y-120798073D01*
X88703974Y-120503092D01*
X88568211Y-120175331D01*
X88499000Y-119827384D01*
X88499000Y-119472616D01*
X88568211Y-119124669D01*
X88703974Y-118796908D01*
X88901074Y-118501927D01*
X89151927Y-118251074D01*
X89446908Y-118053974D01*
X89774669Y-117918211D01*
X90122616Y-117849000D01*
X90477384Y-117849000D01*
X90825331Y-117918211D01*
X90825331Y-117918211D01*
G37*
G36*
X121905331Y-102578211D02*
X122233092Y-102713974D01*
X122528073Y-102911074D01*
X122778926Y-103161927D01*
X122976026Y-103456908D01*
X123111789Y-103784669D01*
X123181000Y-104132616D01*
X123181000Y-104487384D01*
X123111789Y-104835331D01*
X122976026Y-105163092D01*
X122778926Y-105458073D01*
X122528073Y-105708926D01*
X122233092Y-105906026D01*
X121905331Y-106041789D01*
X121557384Y-106111000D01*
X121202616Y-106111000D01*
X120854669Y-106041789D01*
X120526908Y-105906026D01*
X120231927Y-105708926D01*
X119981074Y-105458073D01*
X119783974Y-105163092D01*
X119648211Y-104835331D01*
X119579000Y-104487384D01*
X119579000Y-104132616D01*
X119648211Y-103784669D01*
X119783974Y-103456908D01*
X119981074Y-103161927D01*
X120231927Y-102911074D01*
X120526908Y-102713974D01*
X120854669Y-102578211D01*
X121202616Y-102509000D01*
X121557384Y-102509000D01*
X121905331Y-102578211D01*
X121905331Y-102578211D01*
G37*
G36*
X79145331Y-102578211D02*
X79473092Y-102713974D01*
X79768073Y-102911074D01*
X80018926Y-103161927D01*
X80216026Y-103456908D01*
X80351789Y-103784669D01*
X80421000Y-104132616D01*
X80421000Y-104487384D01*
X80351789Y-104835331D01*
X80216026Y-105163092D01*
X80018926Y-105458073D01*
X79768073Y-105708926D01*
X79473092Y-105906026D01*
X79145331Y-106041789D01*
X78797384Y-106111000D01*
X78442616Y-106111000D01*
X78094669Y-106041789D01*
X77766908Y-105906026D01*
X77471927Y-105708926D01*
X77221074Y-105458073D01*
X77023974Y-105163092D01*
X76888211Y-104835331D01*
X76819000Y-104487384D01*
X76819000Y-104132616D01*
X76888211Y-103784669D01*
X77023974Y-103456908D01*
X77221074Y-103161927D01*
X77471927Y-102911074D01*
X77766908Y-102713974D01*
X78094669Y-102578211D01*
X78442616Y-102509000D01*
X78797384Y-102509000D01*
X79145331Y-102578211D01*
X79145331Y-102578211D01*
G37*
M02*
