G04 #@! TF.GenerationSoftware,KiCad,Pcbnew,(5.0.1)-3*
G04 #@! TF.CreationDate,2019-01-26T22:36:32-03:30*
G04 #@! TF.ProjectId,Battery Pack Side 2,42617474657279205061636B20536964,rev?*
G04 #@! TF.SameCoordinates,Original*
G04 #@! TF.FileFunction,Copper,L2,Bot,Signal*
G04 #@! TF.FilePolarity,Positive*
%FSLAX46Y46*%
G04 Gerber Fmt 4.6, Leading zero omitted, Abs format (unit mm)*
G04 Created by KiCad (PCBNEW (5.0.1)-3) date 2019-01-26 10:36:32 PM*
%MOMM*%
%LPD*%
G01*
G04 APERTURE LIST*
G04 #@! TA.AperFunction,ComponentPad*
%ADD10C,3.500000*%
G04 #@! TD*
G04 #@! TA.AperFunction,ComponentPad*
%ADD11C,10.000000*%
G04 #@! TD*
G04 #@! TA.AperFunction,BGAPad,CuDef*
%ADD12C,10.000000*%
G04 #@! TD*
G04 #@! TA.AperFunction,Conductor*
%ADD13C,0.250000*%
G04 #@! TD*
G04 #@! TA.AperFunction,Conductor*
%ADD14C,0.254000*%
G04 #@! TD*
G04 APERTURE END LIST*
D10*
G04 #@! TO.P,REF\002A\002A,1*
G04 #@! TO.N,N/C*
X109700000Y-119650000D03*
G04 #@! TD*
G04 #@! TO.P,REF\002A\002A,1*
G04 #@! TO.N,N/C*
X121380000Y-104310000D03*
G04 #@! TD*
G04 #@! TO.P,REF\002A\002A,1*
G04 #@! TO.N,N/C*
X90300000Y-119650000D03*
G04 #@! TD*
D11*
G04 #@! TO.P,BT1,1*
G04 #@! TO.N,Net-(BT1-Pad1)*
X82430000Y-95460000D03*
G04 #@! TD*
D12*
G04 #@! TO.P,BT2,1*
G04 #@! TO.N,Net-(BT1-Pad1)*
X100000000Y-101670000D03*
G04 #@! TD*
D11*
G04 #@! TO.P,BT3,1*
G04 #@! TO.N,Net-(BT3-Pad1)*
X117570000Y-95460000D03*
G04 #@! TD*
D12*
G04 #@! TO.P,BT4,1*
G04 #@! TO.N,Net-(BT3-Pad1)*
X114450000Y-110980000D03*
G04 #@! TD*
D11*
G04 #@! TO.P,BT5,1*
G04 #@! TO.N,Net-(BT5-Pad1)*
X100000000Y-118150000D03*
G04 #@! TD*
D12*
G04 #@! TO.P,BT6,1*
G04 #@! TO.N,Net-(BT5-Pad1)*
X85550000Y-110980000D03*
G04 #@! TD*
D10*
G04 #@! TO.P,REF\002A\002A,1*
G04 #@! TO.N,N/C*
X78620000Y-104310000D03*
G04 #@! TD*
D13*
G04 #@! TO.N,Net-(BT3-Pad1)*
X117570000Y-107860000D02*
X114450000Y-110980000D01*
G04 #@! TD*
D14*
G04 #@! TO.N,Net-(BT1-Pad1)*
G36*
X82603255Y-90237288D02*
X83237983Y-90404880D01*
X84975436Y-91056425D01*
X85766189Y-91460852D01*
X86439502Y-92028836D01*
X86971383Y-92740134D01*
X88648666Y-95615476D01*
X88655922Y-95626546D01*
X89148060Y-96298211D01*
X89165821Y-96317794D01*
X89786356Y-96873015D01*
X89807785Y-96888497D01*
X90529825Y-97303216D01*
X90553996Y-97313926D01*
X91346254Y-97570170D01*
X91372118Y-97575643D01*
X92200262Y-97662310D01*
X92213481Y-97663000D01*
X95671142Y-97663000D01*
X95684397Y-97662306D01*
X96514763Y-97575168D01*
X96540694Y-97569665D01*
X97334882Y-97312049D01*
X97347276Y-97307300D01*
X98851542Y-96638737D01*
X99518909Y-96421791D01*
X100210071Y-96347935D01*
X100901603Y-96418289D01*
X101563729Y-96629829D01*
X102167957Y-96973448D01*
X102693242Y-97438757D01*
X104338926Y-99234049D01*
X104801504Y-99851480D01*
X105130926Y-100542115D01*
X105318114Y-101284039D01*
X105355763Y-102048284D01*
X105242402Y-102805018D01*
X104982455Y-103524689D01*
X104582806Y-104184592D01*
X103695493Y-105367676D01*
X103155971Y-105952027D01*
X102514518Y-106411135D01*
X101793344Y-106730725D01*
X101022364Y-106897542D01*
X100233578Y-106904662D01*
X99453320Y-106750525D01*
X80255779Y-100873728D01*
X79571642Y-100590902D01*
X78958250Y-100187358D01*
X78432053Y-99675292D01*
X78011969Y-99073113D01*
X77713097Y-98402463D01*
X77546182Y-97687453D01*
X77516988Y-96947736D01*
X77816457Y-91557289D01*
X78018567Y-91129967D01*
X78035615Y-91113840D01*
X78258091Y-91056427D01*
X79242274Y-90896716D01*
X79262092Y-90891839D01*
X80156122Y-90593830D01*
X80446199Y-90509359D01*
X81304598Y-90294759D01*
X81954249Y-90200323D01*
X82603255Y-90237288D01*
X82603255Y-90237288D01*
G37*
X82603255Y-90237288D02*
X83237983Y-90404880D01*
X84975436Y-91056425D01*
X85766189Y-91460852D01*
X86439502Y-92028836D01*
X86971383Y-92740134D01*
X88648666Y-95615476D01*
X88655922Y-95626546D01*
X89148060Y-96298211D01*
X89165821Y-96317794D01*
X89786356Y-96873015D01*
X89807785Y-96888497D01*
X90529825Y-97303216D01*
X90553996Y-97313926D01*
X91346254Y-97570170D01*
X91372118Y-97575643D01*
X92200262Y-97662310D01*
X92213481Y-97663000D01*
X95671142Y-97663000D01*
X95684397Y-97662306D01*
X96514763Y-97575168D01*
X96540694Y-97569665D01*
X97334882Y-97312049D01*
X97347276Y-97307300D01*
X98851542Y-96638737D01*
X99518909Y-96421791D01*
X100210071Y-96347935D01*
X100901603Y-96418289D01*
X101563729Y-96629829D01*
X102167957Y-96973448D01*
X102693242Y-97438757D01*
X104338926Y-99234049D01*
X104801504Y-99851480D01*
X105130926Y-100542115D01*
X105318114Y-101284039D01*
X105355763Y-102048284D01*
X105242402Y-102805018D01*
X104982455Y-103524689D01*
X104582806Y-104184592D01*
X103695493Y-105367676D01*
X103155971Y-105952027D01*
X102514518Y-106411135D01*
X101793344Y-106730725D01*
X101022364Y-106897542D01*
X100233578Y-106904662D01*
X99453320Y-106750525D01*
X80255779Y-100873728D01*
X79571642Y-100590902D01*
X78958250Y-100187358D01*
X78432053Y-99675292D01*
X78011969Y-99073113D01*
X77713097Y-98402463D01*
X77546182Y-97687453D01*
X77516988Y-96947736D01*
X77816457Y-91557289D01*
X78018567Y-91129967D01*
X78035615Y-91113840D01*
X78258091Y-91056427D01*
X79242274Y-90896716D01*
X79262092Y-90891839D01*
X80156122Y-90593830D01*
X80446199Y-90509359D01*
X81304598Y-90294759D01*
X81954249Y-90200323D01*
X82603255Y-90237288D01*
G04 #@! TO.N,Net-(BT3-Pad1)*
G36*
X118620271Y-90165221D02*
X119336977Y-90447994D01*
X119988867Y-90870533D01*
X121594721Y-92155215D01*
X122166078Y-92717733D01*
X122606835Y-93379626D01*
X122903091Y-94117599D01*
X123042351Y-94900522D01*
X123018548Y-95701958D01*
X122589840Y-98917273D01*
X122408829Y-99655354D01*
X122076951Y-100331323D01*
X121607966Y-100920511D01*
X121023656Y-101395550D01*
X120344986Y-101737494D01*
X120050818Y-101847807D01*
X120033656Y-101855746D01*
X119513565Y-102145165D01*
X119483698Y-102168194D01*
X119071534Y-102597587D01*
X119049747Y-102628372D01*
X118781857Y-103159873D01*
X118770071Y-103195698D01*
X118670080Y-103782434D01*
X118669335Y-103820141D01*
X118746060Y-104410371D01*
X118749886Y-104428890D01*
X119251188Y-106183449D01*
X119263914Y-106229023D01*
X120286101Y-109977046D01*
X120419359Y-110820862D01*
X120366343Y-111666466D01*
X120130682Y-112480303D01*
X119730854Y-113210267D01*
X119698549Y-113260611D01*
X119203324Y-113968075D01*
X118310355Y-115140805D01*
X117422753Y-116130496D01*
X117080760Y-116383756D01*
X116322478Y-116724496D01*
X115502216Y-116896945D01*
X114700171Y-116977149D01*
X113843694Y-116968375D01*
X113016573Y-116774649D01*
X112251598Y-116405224D01*
X111585599Y-115877885D01*
X111046185Y-115212543D01*
X108821237Y-111751514D01*
X108440589Y-110986467D01*
X108237177Y-110163743D01*
X108217621Y-109316476D01*
X108384224Y-108478366D01*
X113297042Y-92921111D01*
X113583555Y-92243813D01*
X113988648Y-91637260D01*
X114500294Y-91117428D01*
X115100337Y-90702762D01*
X115773004Y-90405536D01*
X116333722Y-90218630D01*
X117091476Y-90047508D01*
X117861758Y-90029941D01*
X118620271Y-90165221D01*
X118620271Y-90165221D01*
G37*
X118620271Y-90165221D02*
X119336977Y-90447994D01*
X119988867Y-90870533D01*
X121594721Y-92155215D01*
X122166078Y-92717733D01*
X122606835Y-93379626D01*
X122903091Y-94117599D01*
X123042351Y-94900522D01*
X123018548Y-95701958D01*
X122589840Y-98917273D01*
X122408829Y-99655354D01*
X122076951Y-100331323D01*
X121607966Y-100920511D01*
X121023656Y-101395550D01*
X120344986Y-101737494D01*
X120050818Y-101847807D01*
X120033656Y-101855746D01*
X119513565Y-102145165D01*
X119483698Y-102168194D01*
X119071534Y-102597587D01*
X119049747Y-102628372D01*
X118781857Y-103159873D01*
X118770071Y-103195698D01*
X118670080Y-103782434D01*
X118669335Y-103820141D01*
X118746060Y-104410371D01*
X118749886Y-104428890D01*
X119251188Y-106183449D01*
X119263914Y-106229023D01*
X120286101Y-109977046D01*
X120419359Y-110820862D01*
X120366343Y-111666466D01*
X120130682Y-112480303D01*
X119730854Y-113210267D01*
X119698549Y-113260611D01*
X119203324Y-113968075D01*
X118310355Y-115140805D01*
X117422753Y-116130496D01*
X117080760Y-116383756D01*
X116322478Y-116724496D01*
X115502216Y-116896945D01*
X114700171Y-116977149D01*
X113843694Y-116968375D01*
X113016573Y-116774649D01*
X112251598Y-116405224D01*
X111585599Y-115877885D01*
X111046185Y-115212543D01*
X108821237Y-111751514D01*
X108440589Y-110986467D01*
X108237177Y-110163743D01*
X108217621Y-109316476D01*
X108384224Y-108478366D01*
X113297042Y-92921111D01*
X113583555Y-92243813D01*
X113988648Y-91637260D01*
X114500294Y-91117428D01*
X115100337Y-90702762D01*
X115773004Y-90405536D01*
X116333722Y-90218630D01*
X117091476Y-90047508D01*
X117861758Y-90029941D01*
X118620271Y-90165221D01*
G04 #@! TO.N,Net-(BT5-Pad1)*
G36*
X86283504Y-104758627D02*
X87091330Y-104941299D01*
X87848043Y-105294483D01*
X104250886Y-115212482D01*
X104871982Y-115678219D01*
X105384423Y-116252885D01*
X105773033Y-116917572D01*
X106022456Y-117646015D01*
X106122828Y-118409396D01*
X106070180Y-119177555D01*
X105864916Y-119926239D01*
X105517940Y-120828374D01*
X105165582Y-121526398D01*
X104685171Y-122135182D01*
X104093085Y-122636030D01*
X103413079Y-123008854D01*
X102672414Y-123238704D01*
X101894426Y-123317000D01*
X99129948Y-123317000D01*
X98380874Y-123244470D01*
X97665548Y-123031338D01*
X97004390Y-122684922D01*
X96421980Y-122218101D01*
X95935969Y-121643506D01*
X93888212Y-118685635D01*
X93880012Y-118675033D01*
X93329686Y-118036237D01*
X93310173Y-118017910D01*
X92638171Y-117508663D01*
X92615249Y-117494833D01*
X91851430Y-117137762D01*
X91826119Y-117129044D01*
X91004421Y-116940014D01*
X90977845Y-116936795D01*
X90134779Y-116924206D01*
X90121385Y-116924714D01*
X87850551Y-117131154D01*
X86905679Y-117102134D01*
X85995483Y-116846868D01*
X82632028Y-115445429D01*
X82004668Y-115114205D01*
X81452151Y-114678522D01*
X80987597Y-114150058D01*
X80626329Y-113546247D01*
X80378259Y-112881611D01*
X80014089Y-111546320D01*
X79880872Y-110703377D01*
X79933551Y-109858611D01*
X80168514Y-109045480D01*
X80574540Y-108302816D01*
X81136839Y-107660848D01*
X83216152Y-105754812D01*
X83888545Y-105259601D01*
X84644622Y-104921502D01*
X85455298Y-104751926D01*
X86283504Y-104758627D01*
X86283504Y-104758627D01*
G37*
X86283504Y-104758627D02*
X87091330Y-104941299D01*
X87848043Y-105294483D01*
X104250886Y-115212482D01*
X104871982Y-115678219D01*
X105384423Y-116252885D01*
X105773033Y-116917572D01*
X106022456Y-117646015D01*
X106122828Y-118409396D01*
X106070180Y-119177555D01*
X105864916Y-119926239D01*
X105517940Y-120828374D01*
X105165582Y-121526398D01*
X104685171Y-122135182D01*
X104093085Y-122636030D01*
X103413079Y-123008854D01*
X102672414Y-123238704D01*
X101894426Y-123317000D01*
X99129948Y-123317000D01*
X98380874Y-123244470D01*
X97665548Y-123031338D01*
X97004390Y-122684922D01*
X96421980Y-122218101D01*
X95935969Y-121643506D01*
X93888212Y-118685635D01*
X93880012Y-118675033D01*
X93329686Y-118036237D01*
X93310173Y-118017910D01*
X92638171Y-117508663D01*
X92615249Y-117494833D01*
X91851430Y-117137762D01*
X91826119Y-117129044D01*
X91004421Y-116940014D01*
X90977845Y-116936795D01*
X90134779Y-116924206D01*
X90121385Y-116924714D01*
X87850551Y-117131154D01*
X86905679Y-117102134D01*
X85995483Y-116846868D01*
X82632028Y-115445429D01*
X82004668Y-115114205D01*
X81452151Y-114678522D01*
X80987597Y-114150058D01*
X80626329Y-113546247D01*
X80378259Y-112881611D01*
X80014089Y-111546320D01*
X79880872Y-110703377D01*
X79933551Y-109858611D01*
X80168514Y-109045480D01*
X80574540Y-108302816D01*
X81136839Y-107660848D01*
X83216152Y-105754812D01*
X83888545Y-105259601D01*
X84644622Y-104921502D01*
X85455298Y-104751926D01*
X86283504Y-104758627D01*
G04 #@! TD*
M02*
