G04 #@! TF.GenerationSoftware,KiCad,Pcbnew,(5.0.1)-3*
G04 #@! TF.CreationDate,2019-01-26T22:39:22-03:30*
G04 #@! TF.ProjectId,Battery Pack,42617474657279205061636B2E6B6963,rev?*
G04 #@! TF.SameCoordinates,Original*
G04 #@! TF.FileFunction,Copper,L1,Top,Signal*
G04 #@! TF.FilePolarity,Positive*
%FSLAX46Y46*%
G04 Gerber Fmt 4.6, Leading zero omitted, Abs format (unit mm)*
G04 Created by KiCad (PCBNEW (5.0.1)-3) date 2019-01-26 10:39:22 PM*
%MOMM*%
%LPD*%
G01*
G04 APERTURE LIST*
G04 #@! TA.AperFunction,BGAPad,CuDef*
%ADD10C,10.000000*%
G04 #@! TD*
G04 #@! TA.AperFunction,ComponentPad*
%ADD11C,10.000000*%
G04 #@! TD*
G04 #@! TA.AperFunction,ComponentPad*
%ADD12C,3.500000*%
G04 #@! TD*
G04 #@! TA.AperFunction,ViaPad*
%ADD13C,0.800000*%
G04 #@! TD*
G04 #@! TA.AperFunction,Conductor*
%ADD14C,0.250000*%
G04 #@! TD*
G04 #@! TA.AperFunction,Conductor*
%ADD15C,0.254000*%
G04 #@! TD*
G04 APERTURE END LIST*
D10*
G04 #@! TO.P,BT1,1*
G04 #@! TO.N,Net-(BT1-Pad1)*
X82430000Y-95460000D03*
G04 #@! TD*
D11*
G04 #@! TO.P,BT4,1*
G04 #@! TO.N,Net-(BT4-Pad1)*
X100000000Y-101670000D03*
G04 #@! TD*
G04 #@! TO.P,BT2,1*
G04 #@! TO.N,Net-(BT2-Pad1)*
X114450000Y-110980000D03*
G04 #@! TD*
G04 #@! TO.P,BT6,1*
G04 #@! TO.N,Net-(BT6-Pad1)*
X85550000Y-110980000D03*
G04 #@! TD*
D12*
G04 #@! TO.P,REF\002A\002A,1*
G04 #@! TO.N,N/C*
X78620000Y-104310000D03*
G04 #@! TD*
G04 #@! TO.P,REF\002A\002A,1*
G04 #@! TO.N,N/C*
X90300000Y-119650000D03*
G04 #@! TD*
G04 #@! TO.P,REF\002A\002A,1*
G04 #@! TO.N,N/C*
X109700000Y-119650000D03*
G04 #@! TD*
G04 #@! TO.P,REF\002A\002A,1*
G04 #@! TO.N,N/C*
X121380000Y-104310000D03*
G04 #@! TD*
D10*
G04 #@! TO.P,BT3,1*
G04 #@! TO.N,Net-(BT2-Pad1)*
X100000000Y-118150000D03*
G04 #@! TD*
G04 #@! TO.P,BT5,1*
G04 #@! TO.N,Net-(BT4-Pad1)*
X117570000Y-95460000D03*
G04 #@! TD*
D13*
G04 #@! TO.N,Net-(BT1-Pad1)*
X87630000Y-98425000D03*
X86995000Y-99695000D03*
X85725000Y-100965000D03*
X84455000Y-101600000D03*
X87630000Y-97155000D03*
G04 #@! TO.N,Net-(BT6-Pad1)*
X82910000Y-115050000D03*
X85220000Y-115830000D03*
X84130000Y-115380000D03*
G04 #@! TD*
D14*
G04 #@! TO.N,Net-(BT4-Pad1)*
X100000000Y-101670000D02*
X100330000Y-101670000D01*
G04 #@! TO.N,Net-(BT6-Pad1)*
X85550000Y-113586000D02*
X85550000Y-113586000D01*
G04 #@! TD*
D15*
G04 #@! TO.N,Net-(BT4-Pad1)*
G36*
X116760220Y-89910099D02*
X117119223Y-89967171D01*
X117474182Y-90058393D01*
X121152753Y-91190262D01*
X121523243Y-91325083D01*
X121875357Y-91495183D01*
X122208516Y-91699918D01*
X122283395Y-91757084D01*
X122294427Y-91785186D01*
X122882828Y-93605527D01*
X123321948Y-95461298D01*
X123594180Y-97237708D01*
X123435543Y-98348171D01*
X123364163Y-98718815D01*
X123258191Y-99077911D01*
X123118041Y-99425093D01*
X122945016Y-99757128D01*
X122740754Y-100070884D01*
X122507136Y-100363464D01*
X122246369Y-100632110D01*
X121960862Y-100874334D01*
X121653320Y-101087844D01*
X121326581Y-101270671D01*
X120983726Y-101421088D01*
X120625027Y-101538653D01*
X100392917Y-107102483D01*
X100014493Y-107186144D01*
X99632773Y-107230624D01*
X99248487Y-107236169D01*
X98865630Y-107202718D01*
X98488138Y-107130617D01*
X98119902Y-107020609D01*
X97764713Y-106873827D01*
X97426253Y-106691792D01*
X97107977Y-106476362D01*
X96813202Y-106229782D01*
X96544943Y-105954573D01*
X96303973Y-105651064D01*
X95193407Y-104096271D01*
X94981934Y-103766381D01*
X94806040Y-103419815D01*
X94665761Y-103057349D01*
X94561676Y-102679601D01*
X94104754Y-100623451D01*
X94047341Y-100272639D01*
X94029993Y-99921171D01*
X94052353Y-99570000D01*
X94114134Y-99223578D01*
X94214550Y-98886322D01*
X94352324Y-98562524D01*
X94525699Y-98256311D01*
X94732466Y-97971582D01*
X94969999Y-97711958D01*
X95235265Y-97480750D01*
X95524901Y-97280893D01*
X95835192Y-97114947D01*
X96165552Y-96983686D01*
X100934912Y-95393899D01*
X100937135Y-95393135D01*
X101076718Y-95343719D01*
X101078927Y-95342914D01*
X101415412Y-95216732D01*
X102339018Y-95489956D01*
X103226848Y-95903569D01*
X104061236Y-96455407D01*
X104143758Y-96520463D01*
X104155404Y-96528318D01*
X104162773Y-96534887D01*
X104170029Y-96540103D01*
X104695600Y-96912409D01*
X104743355Y-96939663D01*
X104790449Y-96968024D01*
X104798544Y-96971809D01*
X105446746Y-97269368D01*
X105501573Y-97288308D01*
X105556130Y-97308012D01*
X105564806Y-97310152D01*
X106258458Y-97476141D01*
X106315927Y-97484072D01*
X106373264Y-97492803D01*
X106382191Y-97493217D01*
X107094874Y-97521314D01*
X107152777Y-97517933D01*
X107210731Y-97515360D01*
X107219568Y-97514032D01*
X107924136Y-97403166D01*
X107980267Y-97388605D01*
X108036630Y-97374821D01*
X108045041Y-97371802D01*
X108714656Y-97126196D01*
X108766865Y-97101022D01*
X108819501Y-97076542D01*
X108827165Y-97071947D01*
X109436322Y-96700957D01*
X109482692Y-96666088D01*
X109529526Y-96631883D01*
X109536152Y-96625887D01*
X110061650Y-96143643D01*
X110100365Y-96100430D01*
X110139662Y-96057781D01*
X110144997Y-96050612D01*
X110566818Y-95475481D01*
X110596388Y-95425594D01*
X110626667Y-95376103D01*
X110630508Y-95368034D01*
X110932584Y-94721927D01*
X110951912Y-94667218D01*
X110971991Y-94612815D01*
X110974192Y-94604154D01*
X111139753Y-93933027D01*
X111446876Y-92976080D01*
X111880745Y-92097967D01*
X112439644Y-91293624D01*
X112747008Y-90967383D01*
X114969662Y-90133888D01*
X115318466Y-90021455D01*
X115673384Y-89942861D01*
X116034101Y-89897889D01*
X116397443Y-89886937D01*
X116760220Y-89910099D01*
X116760220Y-89910099D01*
G37*
X116760220Y-89910099D02*
X117119223Y-89967171D01*
X117474182Y-90058393D01*
X121152753Y-91190262D01*
X121523243Y-91325083D01*
X121875357Y-91495183D01*
X122208516Y-91699918D01*
X122283395Y-91757084D01*
X122294427Y-91785186D01*
X122882828Y-93605527D01*
X123321948Y-95461298D01*
X123594180Y-97237708D01*
X123435543Y-98348171D01*
X123364163Y-98718815D01*
X123258191Y-99077911D01*
X123118041Y-99425093D01*
X122945016Y-99757128D01*
X122740754Y-100070884D01*
X122507136Y-100363464D01*
X122246369Y-100632110D01*
X121960862Y-100874334D01*
X121653320Y-101087844D01*
X121326581Y-101270671D01*
X120983726Y-101421088D01*
X120625027Y-101538653D01*
X100392917Y-107102483D01*
X100014493Y-107186144D01*
X99632773Y-107230624D01*
X99248487Y-107236169D01*
X98865630Y-107202718D01*
X98488138Y-107130617D01*
X98119902Y-107020609D01*
X97764713Y-106873827D01*
X97426253Y-106691792D01*
X97107977Y-106476362D01*
X96813202Y-106229782D01*
X96544943Y-105954573D01*
X96303973Y-105651064D01*
X95193407Y-104096271D01*
X94981934Y-103766381D01*
X94806040Y-103419815D01*
X94665761Y-103057349D01*
X94561676Y-102679601D01*
X94104754Y-100623451D01*
X94047341Y-100272639D01*
X94029993Y-99921171D01*
X94052353Y-99570000D01*
X94114134Y-99223578D01*
X94214550Y-98886322D01*
X94352324Y-98562524D01*
X94525699Y-98256311D01*
X94732466Y-97971582D01*
X94969999Y-97711958D01*
X95235265Y-97480750D01*
X95524901Y-97280893D01*
X95835192Y-97114947D01*
X96165552Y-96983686D01*
X100934912Y-95393899D01*
X100937135Y-95393135D01*
X101076718Y-95343719D01*
X101078927Y-95342914D01*
X101415412Y-95216732D01*
X102339018Y-95489956D01*
X103226848Y-95903569D01*
X104061236Y-96455407D01*
X104143758Y-96520463D01*
X104155404Y-96528318D01*
X104162773Y-96534887D01*
X104170029Y-96540103D01*
X104695600Y-96912409D01*
X104743355Y-96939663D01*
X104790449Y-96968024D01*
X104798544Y-96971809D01*
X105446746Y-97269368D01*
X105501573Y-97288308D01*
X105556130Y-97308012D01*
X105564806Y-97310152D01*
X106258458Y-97476141D01*
X106315927Y-97484072D01*
X106373264Y-97492803D01*
X106382191Y-97493217D01*
X107094874Y-97521314D01*
X107152777Y-97517933D01*
X107210731Y-97515360D01*
X107219568Y-97514032D01*
X107924136Y-97403166D01*
X107980267Y-97388605D01*
X108036630Y-97374821D01*
X108045041Y-97371802D01*
X108714656Y-97126196D01*
X108766865Y-97101022D01*
X108819501Y-97076542D01*
X108827165Y-97071947D01*
X109436322Y-96700957D01*
X109482692Y-96666088D01*
X109529526Y-96631883D01*
X109536152Y-96625887D01*
X110061650Y-96143643D01*
X110100365Y-96100430D01*
X110139662Y-96057781D01*
X110144997Y-96050612D01*
X110566818Y-95475481D01*
X110596388Y-95425594D01*
X110626667Y-95376103D01*
X110630508Y-95368034D01*
X110932584Y-94721927D01*
X110951912Y-94667218D01*
X110971991Y-94612815D01*
X110974192Y-94604154D01*
X111139753Y-93933027D01*
X111446876Y-92976080D01*
X111880745Y-92097967D01*
X112439644Y-91293624D01*
X112747008Y-90967383D01*
X114969662Y-90133888D01*
X115318466Y-90021455D01*
X115673384Y-89942861D01*
X116034101Y-89897889D01*
X116397443Y-89886937D01*
X116760220Y-89910099D01*
G04 #@! TO.N,Net-(BT1-Pad1)*
G36*
X83000546Y-90255224D02*
X83377348Y-90298314D01*
X83748102Y-90378044D01*
X84112274Y-90494614D01*
X85348147Y-90958066D01*
X85709405Y-91114744D01*
X86050257Y-91305452D01*
X86370167Y-91529518D01*
X86665874Y-91784663D01*
X86934385Y-92068297D01*
X87172967Y-92377540D01*
X87379181Y-92709230D01*
X87552351Y-93062886D01*
X88149379Y-94455953D01*
X88279644Y-94805029D01*
X88375258Y-95162004D01*
X88436413Y-95526461D01*
X88462552Y-95895094D01*
X88453437Y-96264526D01*
X88409150Y-96631425D01*
X88330096Y-96992421D01*
X88216067Y-97347124D01*
X87476934Y-99318147D01*
X87320256Y-99679405D01*
X87129548Y-100020257D01*
X86905482Y-100340167D01*
X86650337Y-100635874D01*
X86366703Y-100904385D01*
X86057460Y-101142967D01*
X85725770Y-101349181D01*
X85372114Y-101522351D01*
X83900844Y-102152896D01*
X83520675Y-102292957D01*
X83131232Y-102392059D01*
X82733636Y-102450271D01*
X82332143Y-102466971D01*
X81931075Y-102441978D01*
X81534762Y-102375562D01*
X81144285Y-102267559D01*
X80354941Y-102004443D01*
X79997815Y-101865584D01*
X79658788Y-101693790D01*
X79338239Y-101489598D01*
X79039243Y-101254966D01*
X78764693Y-100992165D01*
X78517213Y-100703706D01*
X78299210Y-100392394D01*
X78111221Y-100058463D01*
X76900470Y-97636959D01*
X76760611Y-97317823D01*
X76654710Y-96989254D01*
X76582553Y-96651655D01*
X76546292Y-96321327D01*
X76708220Y-95308935D01*
X76890458Y-94560642D01*
X76919945Y-94490258D01*
X77106977Y-94146173D01*
X77327794Y-93822750D01*
X77580153Y-93523272D01*
X77863793Y-93248559D01*
X80196728Y-91207241D01*
X80496463Y-90969849D01*
X80815368Y-90764592D01*
X81152816Y-90591511D01*
X81505580Y-90452264D01*
X81870265Y-90348190D01*
X82243370Y-90280285D01*
X82621354Y-90249195D01*
X83000546Y-90255224D01*
X83000546Y-90255224D01*
G37*
X83000546Y-90255224D02*
X83377348Y-90298314D01*
X83748102Y-90378044D01*
X84112274Y-90494614D01*
X85348147Y-90958066D01*
X85709405Y-91114744D01*
X86050257Y-91305452D01*
X86370167Y-91529518D01*
X86665874Y-91784663D01*
X86934385Y-92068297D01*
X87172967Y-92377540D01*
X87379181Y-92709230D01*
X87552351Y-93062886D01*
X88149379Y-94455953D01*
X88279644Y-94805029D01*
X88375258Y-95162004D01*
X88436413Y-95526461D01*
X88462552Y-95895094D01*
X88453437Y-96264526D01*
X88409150Y-96631425D01*
X88330096Y-96992421D01*
X88216067Y-97347124D01*
X87476934Y-99318147D01*
X87320256Y-99679405D01*
X87129548Y-100020257D01*
X86905482Y-100340167D01*
X86650337Y-100635874D01*
X86366703Y-100904385D01*
X86057460Y-101142967D01*
X85725770Y-101349181D01*
X85372114Y-101522351D01*
X83900844Y-102152896D01*
X83520675Y-102292957D01*
X83131232Y-102392059D01*
X82733636Y-102450271D01*
X82332143Y-102466971D01*
X81931075Y-102441978D01*
X81534762Y-102375562D01*
X81144285Y-102267559D01*
X80354941Y-102004443D01*
X79997815Y-101865584D01*
X79658788Y-101693790D01*
X79338239Y-101489598D01*
X79039243Y-101254966D01*
X78764693Y-100992165D01*
X78517213Y-100703706D01*
X78299210Y-100392394D01*
X78111221Y-100058463D01*
X76900470Y-97636959D01*
X76760611Y-97317823D01*
X76654710Y-96989254D01*
X76582553Y-96651655D01*
X76546292Y-96321327D01*
X76708220Y-95308935D01*
X76890458Y-94560642D01*
X76919945Y-94490258D01*
X77106977Y-94146173D01*
X77327794Y-93822750D01*
X77580153Y-93523272D01*
X77863793Y-93248559D01*
X80196728Y-91207241D01*
X80496463Y-90969849D01*
X80815368Y-90764592D01*
X81152816Y-90591511D01*
X81505580Y-90452264D01*
X81870265Y-90348190D01*
X82243370Y-90280285D01*
X82621354Y-90249195D01*
X83000546Y-90255224D01*
G04 #@! TO.N,Net-(BT2-Pad1)*
G36*
X113635018Y-105449640D02*
X114041448Y-105495660D01*
X116627578Y-105926681D01*
X117018358Y-106012593D01*
X117395191Y-106137021D01*
X117757318Y-106299360D01*
X118100919Y-106497898D01*
X118422412Y-106730566D01*
X118718408Y-106994913D01*
X118985785Y-107288148D01*
X119221761Y-107607220D01*
X119423844Y-107948762D01*
X119591270Y-108312135D01*
X119768894Y-108756195D01*
X119895055Y-109124380D01*
X119982802Y-109500264D01*
X120032288Y-109883070D01*
X120043009Y-110268910D01*
X120014855Y-110653880D01*
X119948115Y-111034054D01*
X119843464Y-111405585D01*
X119701959Y-111764715D01*
X119525051Y-112107767D01*
X119314515Y-112431296D01*
X119072502Y-112731997D01*
X118799230Y-113009087D01*
X116044269Y-115534469D01*
X115727448Y-115795605D01*
X115387720Y-116020201D01*
X115026311Y-116207869D01*
X114647177Y-116356556D01*
X114254539Y-116464604D01*
X113852707Y-116530827D01*
X113446161Y-116554488D01*
X113036041Y-116535171D01*
X110591929Y-116290759D01*
X110585258Y-116290269D01*
X110164498Y-116270483D01*
X110151124Y-116270559D01*
X109730617Y-116295129D01*
X109717326Y-116296611D01*
X109301734Y-116365265D01*
X109288671Y-116368137D01*
X108882604Y-116480115D01*
X108876205Y-116482062D01*
X108163839Y-116719517D01*
X108157976Y-116721633D01*
X107803251Y-116859560D01*
X107791870Y-116864641D01*
X107452372Y-117036673D01*
X107441545Y-117042845D01*
X107120544Y-117247325D01*
X107110373Y-117254529D01*
X106810960Y-117489488D01*
X106801545Y-117497654D01*
X106526604Y-117760829D01*
X106518034Y-117769878D01*
X106270213Y-118058735D01*
X106262572Y-118068581D01*
X106044257Y-118380338D01*
X106037617Y-118390886D01*
X105850911Y-118722540D01*
X105847988Y-118728045D01*
X104695177Y-121033667D01*
X104509872Y-121363327D01*
X104295308Y-121670991D01*
X104052005Y-121956435D01*
X103782205Y-122217029D01*
X103488485Y-122450283D01*
X103173563Y-122654040D01*
X102840420Y-122826371D01*
X102492164Y-122965668D01*
X102132062Y-123070625D01*
X101763492Y-123140255D01*
X101389927Y-123173904D01*
X101011759Y-123171236D01*
X95515493Y-122865888D01*
X95332528Y-122838197D01*
X95163753Y-122778568D01*
X95009221Y-122688226D01*
X94874468Y-122570409D01*
X94764303Y-122429323D01*
X94682675Y-122270024D01*
X94632499Y-122098197D01*
X94615000Y-121913980D01*
X94615000Y-116775329D01*
X94634761Y-116382991D01*
X94693362Y-115997795D01*
X94790375Y-115620419D01*
X94924811Y-115254718D01*
X95095316Y-114904364D01*
X95300161Y-114572915D01*
X95537272Y-114263733D01*
X95804244Y-113979945D01*
X96098393Y-113724406D01*
X96416722Y-113499723D01*
X96758797Y-113306591D01*
X111666401Y-105852789D01*
X112041321Y-105689280D01*
X112428101Y-105566898D01*
X112825568Y-105485644D01*
X113229353Y-105446415D01*
X113635018Y-105449640D01*
X113635018Y-105449640D01*
G37*
X113635018Y-105449640D02*
X114041448Y-105495660D01*
X116627578Y-105926681D01*
X117018358Y-106012593D01*
X117395191Y-106137021D01*
X117757318Y-106299360D01*
X118100919Y-106497898D01*
X118422412Y-106730566D01*
X118718408Y-106994913D01*
X118985785Y-107288148D01*
X119221761Y-107607220D01*
X119423844Y-107948762D01*
X119591270Y-108312135D01*
X119768894Y-108756195D01*
X119895055Y-109124380D01*
X119982802Y-109500264D01*
X120032288Y-109883070D01*
X120043009Y-110268910D01*
X120014855Y-110653880D01*
X119948115Y-111034054D01*
X119843464Y-111405585D01*
X119701959Y-111764715D01*
X119525051Y-112107767D01*
X119314515Y-112431296D01*
X119072502Y-112731997D01*
X118799230Y-113009087D01*
X116044269Y-115534469D01*
X115727448Y-115795605D01*
X115387720Y-116020201D01*
X115026311Y-116207869D01*
X114647177Y-116356556D01*
X114254539Y-116464604D01*
X113852707Y-116530827D01*
X113446161Y-116554488D01*
X113036041Y-116535171D01*
X110591929Y-116290759D01*
X110585258Y-116290269D01*
X110164498Y-116270483D01*
X110151124Y-116270559D01*
X109730617Y-116295129D01*
X109717326Y-116296611D01*
X109301734Y-116365265D01*
X109288671Y-116368137D01*
X108882604Y-116480115D01*
X108876205Y-116482062D01*
X108163839Y-116719517D01*
X108157976Y-116721633D01*
X107803251Y-116859560D01*
X107791870Y-116864641D01*
X107452372Y-117036673D01*
X107441545Y-117042845D01*
X107120544Y-117247325D01*
X107110373Y-117254529D01*
X106810960Y-117489488D01*
X106801545Y-117497654D01*
X106526604Y-117760829D01*
X106518034Y-117769878D01*
X106270213Y-118058735D01*
X106262572Y-118068581D01*
X106044257Y-118380338D01*
X106037617Y-118390886D01*
X105850911Y-118722540D01*
X105847988Y-118728045D01*
X104695177Y-121033667D01*
X104509872Y-121363327D01*
X104295308Y-121670991D01*
X104052005Y-121956435D01*
X103782205Y-122217029D01*
X103488485Y-122450283D01*
X103173563Y-122654040D01*
X102840420Y-122826371D01*
X102492164Y-122965668D01*
X102132062Y-123070625D01*
X101763492Y-123140255D01*
X101389927Y-123173904D01*
X101011759Y-123171236D01*
X95515493Y-122865888D01*
X95332528Y-122838197D01*
X95163753Y-122778568D01*
X95009221Y-122688226D01*
X94874468Y-122570409D01*
X94764303Y-122429323D01*
X94682675Y-122270024D01*
X94632499Y-122098197D01*
X94615000Y-121913980D01*
X94615000Y-116775329D01*
X94634761Y-116382991D01*
X94693362Y-115997795D01*
X94790375Y-115620419D01*
X94924811Y-115254718D01*
X95095316Y-114904364D01*
X95300161Y-114572915D01*
X95537272Y-114263733D01*
X95804244Y-113979945D01*
X96098393Y-113724406D01*
X96416722Y-113499723D01*
X96758797Y-113306591D01*
X111666401Y-105852789D01*
X112041321Y-105689280D01*
X112428101Y-105566898D01*
X112825568Y-105485644D01*
X113229353Y-105446415D01*
X113635018Y-105449640D01*
G04 #@! TO.N,Net-(BT6-Pad1)*
G36*
X85441606Y-112659186D02*
X85749264Y-112718231D01*
X86048661Y-112810424D01*
X86336246Y-112934672D01*
X86608592Y-113089494D01*
X86862449Y-113273042D01*
X87097389Y-113485470D01*
X87270809Y-113660378D01*
X87410893Y-113829601D01*
X87515758Y-114016120D01*
X87585675Y-114218351D01*
X87618403Y-114429799D01*
X87612897Y-114643702D01*
X87569330Y-114853193D01*
X87489101Y-115051555D01*
X87374778Y-115232433D01*
X87230037Y-115390014D01*
X87054947Y-115522718D01*
X86351682Y-115962544D01*
X86046273Y-116128987D01*
X85726707Y-116256318D01*
X85394214Y-116344537D01*
X85053554Y-116392383D01*
X84709628Y-116399166D01*
X84363568Y-116364411D01*
X83291903Y-116191462D01*
X83030322Y-116128824D01*
X82785453Y-116029570D01*
X82558191Y-115894831D01*
X82353615Y-115727622D01*
X82176342Y-115531716D01*
X82030348Y-115311506D01*
X81918920Y-115071949D01*
X81843205Y-114813819D01*
X81706240Y-114172111D01*
X81683820Y-113965120D01*
X81703327Y-113764427D01*
X81763244Y-113571878D01*
X81861058Y-113395548D01*
X81994156Y-113241088D01*
X82164863Y-113100267D01*
X82354850Y-112982487D01*
X82558947Y-112891306D01*
X82773440Y-112828384D01*
X82998701Y-112794215D01*
X84812729Y-112643046D01*
X85129342Y-112633991D01*
X85441606Y-112659186D01*
X85441606Y-112659186D01*
G37*
X85441606Y-112659186D02*
X85749264Y-112718231D01*
X86048661Y-112810424D01*
X86336246Y-112934672D01*
X86608592Y-113089494D01*
X86862449Y-113273042D01*
X87097389Y-113485470D01*
X87270809Y-113660378D01*
X87410893Y-113829601D01*
X87515758Y-114016120D01*
X87585675Y-114218351D01*
X87618403Y-114429799D01*
X87612897Y-114643702D01*
X87569330Y-114853193D01*
X87489101Y-115051555D01*
X87374778Y-115232433D01*
X87230037Y-115390014D01*
X87054947Y-115522718D01*
X86351682Y-115962544D01*
X86046273Y-116128987D01*
X85726707Y-116256318D01*
X85394214Y-116344537D01*
X85053554Y-116392383D01*
X84709628Y-116399166D01*
X84363568Y-116364411D01*
X83291903Y-116191462D01*
X83030322Y-116128824D01*
X82785453Y-116029570D01*
X82558191Y-115894831D01*
X82353615Y-115727622D01*
X82176342Y-115531716D01*
X82030348Y-115311506D01*
X81918920Y-115071949D01*
X81843205Y-114813819D01*
X81706240Y-114172111D01*
X81683820Y-113965120D01*
X81703327Y-113764427D01*
X81763244Y-113571878D01*
X81861058Y-113395548D01*
X81994156Y-113241088D01*
X82164863Y-113100267D01*
X82354850Y-112982487D01*
X82558947Y-112891306D01*
X82773440Y-112828384D01*
X82998701Y-112794215D01*
X84812729Y-112643046D01*
X85129342Y-112633991D01*
X85441606Y-112659186D01*
G04 #@! TD*
M02*
