G04 #@! TF.GenerationSoftware,KiCad,Pcbnew,(5.0.1)-3*
G04 #@! TF.CreationDate,2019-01-26T22:39:22-03:30*
G04 #@! TF.ProjectId,Battery Pack,42617474657279205061636B2E6B6963,rev?*
G04 #@! TF.SameCoordinates,Original*
G04 #@! TF.FileFunction,Legend,Top*
G04 #@! TF.FilePolarity,Positive*
%FSLAX46Y46*%
G04 Gerber Fmt 4.6, Leading zero omitted, Abs format (unit mm)*
G04 Created by KiCad (PCBNEW (5.0.1)-3) date 2019-01-26 10:39:22 PM*
%MOMM*%
%LPD*%
G01*
G04 APERTURE LIST*
%ADD10C,0.100000*%
G04 APERTURE END LIST*
D10*
X114713047Y-89494514D02*
X115094000Y-89494514D01*
X114903523Y-89684990D02*
X114903523Y-89304038D01*
X115284476Y-89351657D02*
X115403523Y-89684990D01*
X115522571Y-89351657D01*
X115903523Y-89661180D02*
X115855904Y-89684990D01*
X115760666Y-89684990D01*
X115713047Y-89661180D01*
X115689238Y-89613561D01*
X115689238Y-89423085D01*
X115713047Y-89375466D01*
X115760666Y-89351657D01*
X115855904Y-89351657D01*
X115903523Y-89375466D01*
X115927333Y-89423085D01*
X115927333Y-89470704D01*
X115689238Y-89518323D01*
X116451142Y-89184990D02*
X116736857Y-89184990D01*
X116594000Y-89684990D02*
X116594000Y-89184990D01*
X117094000Y-89661180D02*
X117046380Y-89684990D01*
X116951142Y-89684990D01*
X116903523Y-89661180D01*
X116879714Y-89613561D01*
X116879714Y-89423085D01*
X116903523Y-89375466D01*
X116951142Y-89351657D01*
X117046380Y-89351657D01*
X117094000Y-89375466D01*
X117117809Y-89423085D01*
X117117809Y-89470704D01*
X116879714Y-89518323D01*
X117332095Y-89684990D02*
X117332095Y-89351657D01*
X117332095Y-89446895D02*
X117355904Y-89399276D01*
X117379714Y-89375466D01*
X117427333Y-89351657D01*
X117474952Y-89351657D01*
X117641619Y-89684990D02*
X117641619Y-89351657D01*
X117641619Y-89399276D02*
X117665428Y-89375466D01*
X117713047Y-89351657D01*
X117784476Y-89351657D01*
X117832095Y-89375466D01*
X117855904Y-89423085D01*
X117855904Y-89684990D01*
X117855904Y-89423085D02*
X117879714Y-89375466D01*
X117927333Y-89351657D01*
X117998761Y-89351657D01*
X118046380Y-89375466D01*
X118070190Y-89423085D01*
X118070190Y-89684990D01*
X118308285Y-89684990D02*
X118308285Y-89351657D01*
X118308285Y-89184990D02*
X118284476Y-89208800D01*
X118308285Y-89232609D01*
X118332095Y-89208800D01*
X118308285Y-89184990D01*
X118308285Y-89232609D01*
X118546380Y-89351657D02*
X118546380Y-89684990D01*
X118546380Y-89399276D02*
X118570190Y-89375466D01*
X118617809Y-89351657D01*
X118689238Y-89351657D01*
X118736857Y-89375466D01*
X118760666Y-89423085D01*
X118760666Y-89684990D01*
X119213047Y-89684990D02*
X119213047Y-89423085D01*
X119189238Y-89375466D01*
X119141619Y-89351657D01*
X119046380Y-89351657D01*
X118998761Y-89375466D01*
X119213047Y-89661180D02*
X119165428Y-89684990D01*
X119046380Y-89684990D01*
X118998761Y-89661180D01*
X118974952Y-89613561D01*
X118974952Y-89565942D01*
X118998761Y-89518323D01*
X119046380Y-89494514D01*
X119165428Y-89494514D01*
X119213047Y-89470704D01*
X119522571Y-89684990D02*
X119474952Y-89661180D01*
X119451142Y-89613561D01*
X119451142Y-89184990D01*
X97339447Y-123530514D02*
X97720400Y-123530514D01*
X97529923Y-123720990D02*
X97529923Y-123340038D01*
X97910876Y-123387657D02*
X98029923Y-123720990D01*
X98148971Y-123387657D01*
X98529923Y-123697180D02*
X98482304Y-123720990D01*
X98387066Y-123720990D01*
X98339447Y-123697180D01*
X98315638Y-123649561D01*
X98315638Y-123459085D01*
X98339447Y-123411466D01*
X98387066Y-123387657D01*
X98482304Y-123387657D01*
X98529923Y-123411466D01*
X98553733Y-123459085D01*
X98553733Y-123506704D01*
X98315638Y-123554323D01*
X99077542Y-123220990D02*
X99363257Y-123220990D01*
X99220400Y-123720990D02*
X99220400Y-123220990D01*
X99720400Y-123697180D02*
X99672780Y-123720990D01*
X99577542Y-123720990D01*
X99529923Y-123697180D01*
X99506114Y-123649561D01*
X99506114Y-123459085D01*
X99529923Y-123411466D01*
X99577542Y-123387657D01*
X99672780Y-123387657D01*
X99720400Y-123411466D01*
X99744209Y-123459085D01*
X99744209Y-123506704D01*
X99506114Y-123554323D01*
X99958495Y-123720990D02*
X99958495Y-123387657D01*
X99958495Y-123482895D02*
X99982304Y-123435276D01*
X100006114Y-123411466D01*
X100053733Y-123387657D01*
X100101352Y-123387657D01*
X100268019Y-123720990D02*
X100268019Y-123387657D01*
X100268019Y-123435276D02*
X100291828Y-123411466D01*
X100339447Y-123387657D01*
X100410876Y-123387657D01*
X100458495Y-123411466D01*
X100482304Y-123459085D01*
X100482304Y-123720990D01*
X100482304Y-123459085D02*
X100506114Y-123411466D01*
X100553733Y-123387657D01*
X100625161Y-123387657D01*
X100672780Y-123411466D01*
X100696590Y-123459085D01*
X100696590Y-123720990D01*
X100934685Y-123720990D02*
X100934685Y-123387657D01*
X100934685Y-123220990D02*
X100910876Y-123244800D01*
X100934685Y-123268609D01*
X100958495Y-123244800D01*
X100934685Y-123220990D01*
X100934685Y-123268609D01*
X101172780Y-123387657D02*
X101172780Y-123720990D01*
X101172780Y-123435276D02*
X101196590Y-123411466D01*
X101244209Y-123387657D01*
X101315638Y-123387657D01*
X101363257Y-123411466D01*
X101387066Y-123459085D01*
X101387066Y-123720990D01*
X101839447Y-123720990D02*
X101839447Y-123459085D01*
X101815638Y-123411466D01*
X101768019Y-123387657D01*
X101672780Y-123387657D01*
X101625161Y-123411466D01*
X101839447Y-123697180D02*
X101791828Y-123720990D01*
X101672780Y-123720990D01*
X101625161Y-123697180D01*
X101601352Y-123649561D01*
X101601352Y-123601942D01*
X101625161Y-123554323D01*
X101672780Y-123530514D01*
X101791828Y-123530514D01*
X101839447Y-123506704D01*
X102148971Y-123720990D02*
X102101352Y-123697180D01*
X102077542Y-123649561D01*
X102077542Y-123220990D01*
X79305447Y-89596114D02*
X79686400Y-89596114D01*
X79495923Y-89786590D02*
X79495923Y-89405638D01*
X79876876Y-89453257D02*
X79995923Y-89786590D01*
X80114971Y-89453257D01*
X80495923Y-89762780D02*
X80448304Y-89786590D01*
X80353066Y-89786590D01*
X80305447Y-89762780D01*
X80281638Y-89715161D01*
X80281638Y-89524685D01*
X80305447Y-89477066D01*
X80353066Y-89453257D01*
X80448304Y-89453257D01*
X80495923Y-89477066D01*
X80519733Y-89524685D01*
X80519733Y-89572304D01*
X80281638Y-89619923D01*
X81043542Y-89286590D02*
X81329257Y-89286590D01*
X81186400Y-89786590D02*
X81186400Y-89286590D01*
X81686400Y-89762780D02*
X81638780Y-89786590D01*
X81543542Y-89786590D01*
X81495923Y-89762780D01*
X81472114Y-89715161D01*
X81472114Y-89524685D01*
X81495923Y-89477066D01*
X81543542Y-89453257D01*
X81638780Y-89453257D01*
X81686400Y-89477066D01*
X81710209Y-89524685D01*
X81710209Y-89572304D01*
X81472114Y-89619923D01*
X81924495Y-89786590D02*
X81924495Y-89453257D01*
X81924495Y-89548495D02*
X81948304Y-89500876D01*
X81972114Y-89477066D01*
X82019733Y-89453257D01*
X82067352Y-89453257D01*
X82234019Y-89786590D02*
X82234019Y-89453257D01*
X82234019Y-89500876D02*
X82257828Y-89477066D01*
X82305447Y-89453257D01*
X82376876Y-89453257D01*
X82424495Y-89477066D01*
X82448304Y-89524685D01*
X82448304Y-89786590D01*
X82448304Y-89524685D02*
X82472114Y-89477066D01*
X82519733Y-89453257D01*
X82591161Y-89453257D01*
X82638780Y-89477066D01*
X82662590Y-89524685D01*
X82662590Y-89786590D01*
X82900685Y-89786590D02*
X82900685Y-89453257D01*
X82900685Y-89286590D02*
X82876876Y-89310400D01*
X82900685Y-89334209D01*
X82924495Y-89310400D01*
X82900685Y-89286590D01*
X82900685Y-89334209D01*
X83138780Y-89453257D02*
X83138780Y-89786590D01*
X83138780Y-89500876D02*
X83162590Y-89477066D01*
X83210209Y-89453257D01*
X83281638Y-89453257D01*
X83329257Y-89477066D01*
X83353066Y-89524685D01*
X83353066Y-89786590D01*
X83805447Y-89786590D02*
X83805447Y-89524685D01*
X83781638Y-89477066D01*
X83734019Y-89453257D01*
X83638780Y-89453257D01*
X83591161Y-89477066D01*
X83805447Y-89762780D02*
X83757828Y-89786590D01*
X83638780Y-89786590D01*
X83591161Y-89762780D01*
X83567352Y-89715161D01*
X83567352Y-89667542D01*
X83591161Y-89619923D01*
X83638780Y-89596114D01*
X83757828Y-89596114D01*
X83805447Y-89572304D01*
X84114971Y-89786590D02*
X84067352Y-89762780D01*
X84043542Y-89715161D01*
X84043542Y-89286590D01*
X111563447Y-104988514D02*
X111944400Y-104988514D01*
X112134876Y-104845657D02*
X112253923Y-105178990D01*
X112372971Y-104845657D01*
X112753923Y-105155180D02*
X112706304Y-105178990D01*
X112611066Y-105178990D01*
X112563447Y-105155180D01*
X112539638Y-105107561D01*
X112539638Y-104917085D01*
X112563447Y-104869466D01*
X112611066Y-104845657D01*
X112706304Y-104845657D01*
X112753923Y-104869466D01*
X112777733Y-104917085D01*
X112777733Y-104964704D01*
X112539638Y-105012323D01*
X113301542Y-104678990D02*
X113587257Y-104678990D01*
X113444400Y-105178990D02*
X113444400Y-104678990D01*
X113944400Y-105155180D02*
X113896780Y-105178990D01*
X113801542Y-105178990D01*
X113753923Y-105155180D01*
X113730114Y-105107561D01*
X113730114Y-104917085D01*
X113753923Y-104869466D01*
X113801542Y-104845657D01*
X113896780Y-104845657D01*
X113944400Y-104869466D01*
X113968209Y-104917085D01*
X113968209Y-104964704D01*
X113730114Y-105012323D01*
X114182495Y-105178990D02*
X114182495Y-104845657D01*
X114182495Y-104940895D02*
X114206304Y-104893276D01*
X114230114Y-104869466D01*
X114277733Y-104845657D01*
X114325352Y-104845657D01*
X114492019Y-105178990D02*
X114492019Y-104845657D01*
X114492019Y-104893276D02*
X114515828Y-104869466D01*
X114563447Y-104845657D01*
X114634876Y-104845657D01*
X114682495Y-104869466D01*
X114706304Y-104917085D01*
X114706304Y-105178990D01*
X114706304Y-104917085D02*
X114730114Y-104869466D01*
X114777733Y-104845657D01*
X114849161Y-104845657D01*
X114896780Y-104869466D01*
X114920590Y-104917085D01*
X114920590Y-105178990D01*
X115158685Y-105178990D02*
X115158685Y-104845657D01*
X115158685Y-104678990D02*
X115134876Y-104702800D01*
X115158685Y-104726609D01*
X115182495Y-104702800D01*
X115158685Y-104678990D01*
X115158685Y-104726609D01*
X115396780Y-104845657D02*
X115396780Y-105178990D01*
X115396780Y-104893276D02*
X115420590Y-104869466D01*
X115468209Y-104845657D01*
X115539638Y-104845657D01*
X115587257Y-104869466D01*
X115611066Y-104917085D01*
X115611066Y-105178990D01*
X116063447Y-105178990D02*
X116063447Y-104917085D01*
X116039638Y-104869466D01*
X115992019Y-104845657D01*
X115896780Y-104845657D01*
X115849161Y-104869466D01*
X116063447Y-105155180D02*
X116015828Y-105178990D01*
X115896780Y-105178990D01*
X115849161Y-105155180D01*
X115825352Y-105107561D01*
X115825352Y-105059942D01*
X115849161Y-105012323D01*
X115896780Y-104988514D01*
X116015828Y-104988514D01*
X116063447Y-104964704D01*
X116372971Y-105178990D02*
X116325352Y-105155180D01*
X116301542Y-105107561D01*
X116301542Y-104678990D01*
X97085447Y-107630114D02*
X97466400Y-107630114D01*
X97656876Y-107487257D02*
X97775923Y-107820590D01*
X97894971Y-107487257D01*
X98275923Y-107796780D02*
X98228304Y-107820590D01*
X98133066Y-107820590D01*
X98085447Y-107796780D01*
X98061638Y-107749161D01*
X98061638Y-107558685D01*
X98085447Y-107511066D01*
X98133066Y-107487257D01*
X98228304Y-107487257D01*
X98275923Y-107511066D01*
X98299733Y-107558685D01*
X98299733Y-107606304D01*
X98061638Y-107653923D01*
X98823542Y-107320590D02*
X99109257Y-107320590D01*
X98966400Y-107820590D02*
X98966400Y-107320590D01*
X99466400Y-107796780D02*
X99418780Y-107820590D01*
X99323542Y-107820590D01*
X99275923Y-107796780D01*
X99252114Y-107749161D01*
X99252114Y-107558685D01*
X99275923Y-107511066D01*
X99323542Y-107487257D01*
X99418780Y-107487257D01*
X99466400Y-107511066D01*
X99490209Y-107558685D01*
X99490209Y-107606304D01*
X99252114Y-107653923D01*
X99704495Y-107820590D02*
X99704495Y-107487257D01*
X99704495Y-107582495D02*
X99728304Y-107534876D01*
X99752114Y-107511066D01*
X99799733Y-107487257D01*
X99847352Y-107487257D01*
X100014019Y-107820590D02*
X100014019Y-107487257D01*
X100014019Y-107534876D02*
X100037828Y-107511066D01*
X100085447Y-107487257D01*
X100156876Y-107487257D01*
X100204495Y-107511066D01*
X100228304Y-107558685D01*
X100228304Y-107820590D01*
X100228304Y-107558685D02*
X100252114Y-107511066D01*
X100299733Y-107487257D01*
X100371161Y-107487257D01*
X100418780Y-107511066D01*
X100442590Y-107558685D01*
X100442590Y-107820590D01*
X100680685Y-107820590D02*
X100680685Y-107487257D01*
X100680685Y-107320590D02*
X100656876Y-107344400D01*
X100680685Y-107368209D01*
X100704495Y-107344400D01*
X100680685Y-107320590D01*
X100680685Y-107368209D01*
X100918780Y-107487257D02*
X100918780Y-107820590D01*
X100918780Y-107534876D02*
X100942590Y-107511066D01*
X100990209Y-107487257D01*
X101061638Y-107487257D01*
X101109257Y-107511066D01*
X101133066Y-107558685D01*
X101133066Y-107820590D01*
X101585447Y-107820590D02*
X101585447Y-107558685D01*
X101561638Y-107511066D01*
X101514019Y-107487257D01*
X101418780Y-107487257D01*
X101371161Y-107511066D01*
X101585447Y-107796780D02*
X101537828Y-107820590D01*
X101418780Y-107820590D01*
X101371161Y-107796780D01*
X101347352Y-107749161D01*
X101347352Y-107701542D01*
X101371161Y-107653923D01*
X101418780Y-107630114D01*
X101537828Y-107630114D01*
X101585447Y-107606304D01*
X101894971Y-107820590D02*
X101847352Y-107796780D01*
X101823542Y-107749161D01*
X101823542Y-107320590D01*
X83115447Y-105242514D02*
X83496400Y-105242514D01*
X83686876Y-105099657D02*
X83805923Y-105432990D01*
X83924971Y-105099657D01*
X84305923Y-105409180D02*
X84258304Y-105432990D01*
X84163066Y-105432990D01*
X84115447Y-105409180D01*
X84091638Y-105361561D01*
X84091638Y-105171085D01*
X84115447Y-105123466D01*
X84163066Y-105099657D01*
X84258304Y-105099657D01*
X84305923Y-105123466D01*
X84329733Y-105171085D01*
X84329733Y-105218704D01*
X84091638Y-105266323D01*
X84853542Y-104932990D02*
X85139257Y-104932990D01*
X84996400Y-105432990D02*
X84996400Y-104932990D01*
X85496400Y-105409180D02*
X85448780Y-105432990D01*
X85353542Y-105432990D01*
X85305923Y-105409180D01*
X85282114Y-105361561D01*
X85282114Y-105171085D01*
X85305923Y-105123466D01*
X85353542Y-105099657D01*
X85448780Y-105099657D01*
X85496400Y-105123466D01*
X85520209Y-105171085D01*
X85520209Y-105218704D01*
X85282114Y-105266323D01*
X85734495Y-105432990D02*
X85734495Y-105099657D01*
X85734495Y-105194895D02*
X85758304Y-105147276D01*
X85782114Y-105123466D01*
X85829733Y-105099657D01*
X85877352Y-105099657D01*
X86044019Y-105432990D02*
X86044019Y-105099657D01*
X86044019Y-105147276D02*
X86067828Y-105123466D01*
X86115447Y-105099657D01*
X86186876Y-105099657D01*
X86234495Y-105123466D01*
X86258304Y-105171085D01*
X86258304Y-105432990D01*
X86258304Y-105171085D02*
X86282114Y-105123466D01*
X86329733Y-105099657D01*
X86401161Y-105099657D01*
X86448780Y-105123466D01*
X86472590Y-105171085D01*
X86472590Y-105432990D01*
X86710685Y-105432990D02*
X86710685Y-105099657D01*
X86710685Y-104932990D02*
X86686876Y-104956800D01*
X86710685Y-104980609D01*
X86734495Y-104956800D01*
X86710685Y-104932990D01*
X86710685Y-104980609D01*
X86948780Y-105099657D02*
X86948780Y-105432990D01*
X86948780Y-105147276D02*
X86972590Y-105123466D01*
X87020209Y-105099657D01*
X87091638Y-105099657D01*
X87139257Y-105123466D01*
X87163066Y-105171085D01*
X87163066Y-105432990D01*
X87615447Y-105432990D02*
X87615447Y-105171085D01*
X87591638Y-105123466D01*
X87544019Y-105099657D01*
X87448780Y-105099657D01*
X87401161Y-105123466D01*
X87615447Y-105409180D02*
X87567828Y-105432990D01*
X87448780Y-105432990D01*
X87401161Y-105409180D01*
X87377352Y-105361561D01*
X87377352Y-105313942D01*
X87401161Y-105266323D01*
X87448780Y-105242514D01*
X87567828Y-105242514D01*
X87615447Y-105218704D01*
X87924971Y-105432990D02*
X87877352Y-105409180D01*
X87853542Y-105361561D01*
X87853542Y-104932990D01*
M02*
