G04 #@! TF.GenerationSoftware,KiCad,Pcbnew,(5.0.1)-3*
G04 #@! TF.CreationDate,2019-01-26T22:39:22-03:30*
G04 #@! TF.ProjectId,Battery Pack,42617474657279205061636B2E6B6963,rev?*
G04 #@! TF.SameCoordinates,Original*
G04 #@! TF.FileFunction,Copper,L2,Bot,Signal*
G04 #@! TF.FilePolarity,Positive*
%FSLAX46Y46*%
G04 Gerber Fmt 4.6, Leading zero omitted, Abs format (unit mm)*
G04 Created by KiCad (PCBNEW (5.0.1)-3) date 2019-01-26 10:39:22 PM*
%MOMM*%
%LPD*%
G01*
G04 APERTURE LIST*
G04 #@! TA.AperFunction,SMDPad,CuDef*
%ADD10R,7.620000X7.620000*%
G04 #@! TD*
G04 #@! TA.AperFunction,SMDPad,CuDef*
%ADD11R,9.000000X9.000000*%
G04 #@! TD*
G04 #@! TA.AperFunction,BGAPad,CuDef*
%ADD12C,2.000000*%
G04 #@! TD*
G04 #@! TA.AperFunction,SMDPad,CuDef*
%ADD13R,1.425000X0.720000*%
G04 #@! TD*
G04 #@! TA.AperFunction,SMDPad,CuDef*
%ADD14R,0.620000X0.200000*%
G04 #@! TD*
G04 #@! TA.AperFunction,SMDPad,CuDef*
%ADD15R,0.400000X0.300000*%
G04 #@! TD*
G04 #@! TA.AperFunction,SMDPad,CuDef*
%ADD16R,0.475000X0.300000*%
G04 #@! TD*
G04 #@! TA.AperFunction,ComponentPad*
%ADD17C,3.500000*%
G04 #@! TD*
G04 #@! TA.AperFunction,SMDPad,CuDef*
%ADD18R,1.300000X0.700000*%
G04 #@! TD*
G04 #@! TA.AperFunction,ViaPad*
%ADD19C,0.800000*%
G04 #@! TD*
G04 #@! TA.AperFunction,Conductor*
%ADD20C,0.250000*%
G04 #@! TD*
G04 #@! TA.AperFunction,Conductor*
%ADD21C,0.254000*%
G04 #@! TD*
G04 APERTURE END LIST*
D10*
G04 #@! TO.P,F1,2*
G04 #@! TO.N,Net-(BT1-Pad1)*
X92710000Y-105410000D03*
G04 #@! TO.P,F1,1*
G04 #@! TO.N,Net-(F1-Pad1)*
X107950000Y-105410000D03*
G04 #@! TD*
D11*
G04 #@! TO.P,P1,1*
G04 #@! TO.N,Net-(F1-Pad1)*
X117570000Y-95460000D03*
G04 #@! TD*
G04 #@! TO.P,P2,1*
G04 #@! TO.N,Net-(P2-Pad1)*
X97790000Y-116840000D03*
G04 #@! TD*
D12*
G04 #@! TO.P,P3,1*
G04 #@! TO.N,Net-(P3-Pad1)*
X88036400Y-113944400D03*
G04 #@! TD*
D13*
G04 #@! TO.P,Q1,1*
G04 #@! TO.N,Net-(P2-Pad1)*
X85750400Y-117507200D03*
D14*
G04 #@! TO.P,Q1,3*
G04 #@! TO.N,Net-(BT6-Pad1)*
X85750400Y-116797200D03*
D15*
X85037900Y-116797200D03*
D16*
G04 #@! TO.P,Q1,1*
G04 #@! TO.N,Net-(P2-Pad1)*
X85037900Y-117297200D03*
X85037900Y-117797200D03*
D15*
G04 #@! TO.P,Q1,2*
G04 #@! TO.N,Net-(P3-Pad1)*
X86462900Y-116797200D03*
D16*
G04 #@! TO.P,Q1,1*
G04 #@! TO.N,Net-(P2-Pad1)*
X86462900Y-117297200D03*
X86462900Y-117797200D03*
G04 #@! TD*
D17*
G04 #@! TO.P,REF\002A\002A,1*
G04 #@! TO.N,N/C*
X78620000Y-104310000D03*
G04 #@! TD*
G04 #@! TO.P,REF\002A\002A,1*
G04 #@! TO.N,N/C*
X90300000Y-119650000D03*
G04 #@! TD*
G04 #@! TO.P,REF\002A\002A,1*
G04 #@! TO.N,N/C*
X109700000Y-119650000D03*
G04 #@! TD*
G04 #@! TO.P,REF\002A\002A,1*
G04 #@! TO.N,N/C*
X121380000Y-104310000D03*
G04 #@! TD*
D18*
G04 #@! TO.P,R1,2*
G04 #@! TO.N,Net-(BT6-Pad1)*
X78870000Y-109990000D03*
G04 #@! TO.P,R1,1*
G04 #@! TO.N,Net-(P3-Pad1)*
X78870000Y-108090000D03*
G04 #@! TD*
D19*
G04 #@! TO.N,Net-(BT1-Pad1)*
X87630000Y-98425000D03*
X86995000Y-99695000D03*
X85725000Y-100965000D03*
X84455000Y-101600000D03*
X87630000Y-97155000D03*
G04 #@! TO.N,Net-(BT6-Pad1)*
X82910000Y-115050000D03*
X85220000Y-115830000D03*
X84130000Y-115380000D03*
G04 #@! TD*
D20*
G04 #@! TO.N,Net-(BT6-Pad1)*
X82890000Y-115120000D02*
X82890000Y-113710000D01*
X79170000Y-109990000D02*
X78870000Y-109990000D01*
X82890000Y-113710000D02*
X79170000Y-109990000D01*
G04 #@! TO.N,Net-(F1-Pad1)*
X113840000Y-95460000D02*
X117570000Y-95460000D01*
G04 #@! TO.N,Net-(P2-Pad1)*
X95250000Y-114300000D02*
X97790000Y-116840000D01*
G04 #@! TO.N,Net-(P3-Pad1)*
X88036400Y-113944400D02*
X84724400Y-113944400D01*
X84724400Y-113944400D02*
X79770000Y-108990000D01*
X79770000Y-108990000D02*
X79770000Y-108690000D01*
X79770000Y-108690000D02*
X79170000Y-108090000D01*
X79170000Y-108090000D02*
X78870000Y-108090000D01*
G04 #@! TD*
D21*
G04 #@! TO.N,Net-(BT1-Pad1)*
G36*
X89388047Y-97027744D02*
X89771066Y-97092673D01*
X90145638Y-97195643D01*
X90508025Y-97335625D01*
X90857390Y-97512638D01*
X95569656Y-100205362D01*
X95908305Y-100422759D01*
X96220211Y-100671806D01*
X96504825Y-100951631D01*
X96759125Y-101259259D01*
X96980421Y-101591442D01*
X97166347Y-101944627D01*
X97314937Y-102315078D01*
X97425508Y-102702003D01*
X98066992Y-105481764D01*
X98130058Y-105836829D01*
X98156395Y-106193247D01*
X98146292Y-106550483D01*
X98099858Y-106904829D01*
X98017571Y-107252617D01*
X97900293Y-107590210D01*
X97749245Y-107914090D01*
X97565983Y-108220923D01*
X97352432Y-108507482D01*
X97110809Y-108770797D01*
X96843610Y-109008143D01*
X96553635Y-109217037D01*
X96243894Y-109395308D01*
X95917603Y-109541105D01*
X95578154Y-109652914D01*
X95225935Y-109730259D01*
X93277847Y-110054940D01*
X92899119Y-110099187D01*
X92520982Y-110106224D01*
X92143967Y-110076346D01*
X91771654Y-110009835D01*
X91407618Y-109907331D01*
X91055295Y-109769799D01*
X90718091Y-109598572D01*
X90399179Y-109395260D01*
X90099187Y-109159904D01*
X85247002Y-104954677D01*
X84958161Y-104677160D01*
X84701379Y-104373998D01*
X84477000Y-104046113D01*
X84287400Y-103696977D01*
X84134568Y-103330256D01*
X84020105Y-102949787D01*
X83945230Y-102559615D01*
X83910719Y-102163811D01*
X83916942Y-101766563D01*
X83963830Y-101372042D01*
X84050892Y-100984396D01*
X84177208Y-100607716D01*
X84341457Y-100245945D01*
X84541896Y-99902923D01*
X84776430Y-99582233D01*
X85044766Y-99284840D01*
X86192208Y-98137398D01*
X86482707Y-97874681D01*
X86795474Y-97644293D01*
X87129764Y-97446391D01*
X87482199Y-97282972D01*
X87849227Y-97155685D01*
X88227161Y-97065807D01*
X88612193Y-97014245D01*
X89000468Y-97001514D01*
X89388047Y-97027744D01*
X89388047Y-97027744D01*
G37*
X89388047Y-97027744D02*
X89771066Y-97092673D01*
X90145638Y-97195643D01*
X90508025Y-97335625D01*
X90857390Y-97512638D01*
X95569656Y-100205362D01*
X95908305Y-100422759D01*
X96220211Y-100671806D01*
X96504825Y-100951631D01*
X96759125Y-101259259D01*
X96980421Y-101591442D01*
X97166347Y-101944627D01*
X97314937Y-102315078D01*
X97425508Y-102702003D01*
X98066992Y-105481764D01*
X98130058Y-105836829D01*
X98156395Y-106193247D01*
X98146292Y-106550483D01*
X98099858Y-106904829D01*
X98017571Y-107252617D01*
X97900293Y-107590210D01*
X97749245Y-107914090D01*
X97565983Y-108220923D01*
X97352432Y-108507482D01*
X97110809Y-108770797D01*
X96843610Y-109008143D01*
X96553635Y-109217037D01*
X96243894Y-109395308D01*
X95917603Y-109541105D01*
X95578154Y-109652914D01*
X95225935Y-109730259D01*
X93277847Y-110054940D01*
X92899119Y-110099187D01*
X92520982Y-110106224D01*
X92143967Y-110076346D01*
X91771654Y-110009835D01*
X91407618Y-109907331D01*
X91055295Y-109769799D01*
X90718091Y-109598572D01*
X90399179Y-109395260D01*
X90099187Y-109159904D01*
X85247002Y-104954677D01*
X84958161Y-104677160D01*
X84701379Y-104373998D01*
X84477000Y-104046113D01*
X84287400Y-103696977D01*
X84134568Y-103330256D01*
X84020105Y-102949787D01*
X83945230Y-102559615D01*
X83910719Y-102163811D01*
X83916942Y-101766563D01*
X83963830Y-101372042D01*
X84050892Y-100984396D01*
X84177208Y-100607716D01*
X84341457Y-100245945D01*
X84541896Y-99902923D01*
X84776430Y-99582233D01*
X85044766Y-99284840D01*
X86192208Y-98137398D01*
X86482707Y-97874681D01*
X86795474Y-97644293D01*
X87129764Y-97446391D01*
X87482199Y-97282972D01*
X87849227Y-97155685D01*
X88227161Y-97065807D01*
X88612193Y-97014245D01*
X89000468Y-97001514D01*
X89388047Y-97027744D01*
G04 #@! TO.N,Net-(F1-Pad1)*
G36*
X118301403Y-89941155D02*
X118689934Y-89991419D01*
X119071414Y-90080683D01*
X119441925Y-90208032D01*
X119797656Y-90372153D01*
X120135000Y-90571385D01*
X120450487Y-90803676D01*
X120740886Y-91066648D01*
X121003241Y-91357625D01*
X121234847Y-91673609D01*
X121433343Y-92011373D01*
X121596704Y-92367476D01*
X121724283Y-92741280D01*
X122275814Y-94671638D01*
X122364868Y-95055820D01*
X122414307Y-95443824D01*
X122424357Y-95834848D01*
X122394911Y-96224903D01*
X122326275Y-96609974D01*
X122219141Y-96986180D01*
X122074612Y-97349642D01*
X121894148Y-97696691D01*
X121677848Y-98026433D01*
X114290466Y-108135483D01*
X114051287Y-108431364D01*
X113786626Y-108700349D01*
X113497027Y-108942313D01*
X113185266Y-109154934D01*
X112854287Y-109336208D01*
X112507245Y-109484406D01*
X112147420Y-109598128D01*
X111778233Y-109676290D01*
X111400128Y-109718493D01*
X108883488Y-109875784D01*
X108492317Y-109880597D01*
X108105786Y-109846519D01*
X107724611Y-109773936D01*
X107352604Y-109663573D01*
X106993516Y-109516540D01*
X106650934Y-109334308D01*
X106328313Y-109118715D01*
X106028888Y-108871921D01*
X105755652Y-108596395D01*
X105511365Y-108294919D01*
X105298475Y-107970515D01*
X105119109Y-107626422D01*
X104975077Y-107266115D01*
X104867823Y-106893204D01*
X104797853Y-106508299D01*
X104175618Y-101737828D01*
X104144913Y-101360620D01*
X104150822Y-100985292D01*
X104193038Y-100612304D01*
X104271169Y-100245139D01*
X104384472Y-99887281D01*
X104531889Y-99542067D01*
X104712038Y-99212740D01*
X104923218Y-98902408D01*
X105163450Y-98613977D01*
X105430483Y-98350153D01*
X105721796Y-98113423D01*
X106034657Y-97906011D01*
X106366136Y-97729855D01*
X106715969Y-97585439D01*
X106915338Y-97514236D01*
X107094874Y-97521314D01*
X107152777Y-97517933D01*
X107210731Y-97515360D01*
X107219568Y-97514032D01*
X107924136Y-97403166D01*
X107980267Y-97388605D01*
X108036630Y-97374821D01*
X108045041Y-97371802D01*
X108714656Y-97126196D01*
X108766865Y-97101022D01*
X108819501Y-97076542D01*
X108827165Y-97071947D01*
X109436322Y-96700957D01*
X109482692Y-96666088D01*
X109529526Y-96631883D01*
X109536152Y-96625887D01*
X109801257Y-96382602D01*
X110073905Y-96201157D01*
X110083880Y-96193792D01*
X110386335Y-95946768D01*
X110395543Y-95938465D01*
X110672469Y-95663126D01*
X110680824Y-95653966D01*
X110929582Y-95352936D01*
X110937004Y-95343004D01*
X111155222Y-95019151D01*
X111161641Y-95008542D01*
X111347240Y-94664954D01*
X111352593Y-94653771D01*
X111503803Y-94293723D01*
X111506064Y-94287948D01*
X112058360Y-92769132D01*
X112209554Y-92410193D01*
X112394232Y-92070896D01*
X112611796Y-91751679D01*
X112860076Y-91455730D01*
X113136606Y-91185984D01*
X113438624Y-90945138D01*
X113763152Y-90735564D01*
X114106932Y-90559370D01*
X114466556Y-90418299D01*
X114838442Y-90313759D01*
X115222033Y-90246234D01*
X117515836Y-89959508D01*
X117909774Y-89930402D01*
X118301403Y-89941155D01*
X118301403Y-89941155D01*
G37*
X118301403Y-89941155D02*
X118689934Y-89991419D01*
X119071414Y-90080683D01*
X119441925Y-90208032D01*
X119797656Y-90372153D01*
X120135000Y-90571385D01*
X120450487Y-90803676D01*
X120740886Y-91066648D01*
X121003241Y-91357625D01*
X121234847Y-91673609D01*
X121433343Y-92011373D01*
X121596704Y-92367476D01*
X121724283Y-92741280D01*
X122275814Y-94671638D01*
X122364868Y-95055820D01*
X122414307Y-95443824D01*
X122424357Y-95834848D01*
X122394911Y-96224903D01*
X122326275Y-96609974D01*
X122219141Y-96986180D01*
X122074612Y-97349642D01*
X121894148Y-97696691D01*
X121677848Y-98026433D01*
X114290466Y-108135483D01*
X114051287Y-108431364D01*
X113786626Y-108700349D01*
X113497027Y-108942313D01*
X113185266Y-109154934D01*
X112854287Y-109336208D01*
X112507245Y-109484406D01*
X112147420Y-109598128D01*
X111778233Y-109676290D01*
X111400128Y-109718493D01*
X108883488Y-109875784D01*
X108492317Y-109880597D01*
X108105786Y-109846519D01*
X107724611Y-109773936D01*
X107352604Y-109663573D01*
X106993516Y-109516540D01*
X106650934Y-109334308D01*
X106328313Y-109118715D01*
X106028888Y-108871921D01*
X105755652Y-108596395D01*
X105511365Y-108294919D01*
X105298475Y-107970515D01*
X105119109Y-107626422D01*
X104975077Y-107266115D01*
X104867823Y-106893204D01*
X104797853Y-106508299D01*
X104175618Y-101737828D01*
X104144913Y-101360620D01*
X104150822Y-100985292D01*
X104193038Y-100612304D01*
X104271169Y-100245139D01*
X104384472Y-99887281D01*
X104531889Y-99542067D01*
X104712038Y-99212740D01*
X104923218Y-98902408D01*
X105163450Y-98613977D01*
X105430483Y-98350153D01*
X105721796Y-98113423D01*
X106034657Y-97906011D01*
X106366136Y-97729855D01*
X106715969Y-97585439D01*
X106915338Y-97514236D01*
X107094874Y-97521314D01*
X107152777Y-97517933D01*
X107210731Y-97515360D01*
X107219568Y-97514032D01*
X107924136Y-97403166D01*
X107980267Y-97388605D01*
X108036630Y-97374821D01*
X108045041Y-97371802D01*
X108714656Y-97126196D01*
X108766865Y-97101022D01*
X108819501Y-97076542D01*
X108827165Y-97071947D01*
X109436322Y-96700957D01*
X109482692Y-96666088D01*
X109529526Y-96631883D01*
X109536152Y-96625887D01*
X109801257Y-96382602D01*
X110073905Y-96201157D01*
X110083880Y-96193792D01*
X110386335Y-95946768D01*
X110395543Y-95938465D01*
X110672469Y-95663126D01*
X110680824Y-95653966D01*
X110929582Y-95352936D01*
X110937004Y-95343004D01*
X111155222Y-95019151D01*
X111161641Y-95008542D01*
X111347240Y-94664954D01*
X111352593Y-94653771D01*
X111503803Y-94293723D01*
X111506064Y-94287948D01*
X112058360Y-92769132D01*
X112209554Y-92410193D01*
X112394232Y-92070896D01*
X112611796Y-91751679D01*
X112860076Y-91455730D01*
X113136606Y-91185984D01*
X113438624Y-90945138D01*
X113763152Y-90735564D01*
X114106932Y-90559370D01*
X114466556Y-90418299D01*
X114838442Y-90313759D01*
X115222033Y-90246234D01*
X117515836Y-89959508D01*
X117909774Y-89930402D01*
X118301403Y-89941155D01*
G04 #@! TO.N,Net-(P2-Pad1)*
G36*
X102692200Y-113943549D02*
X102592252Y-121489600D01*
X93747356Y-121588981D01*
X93283027Y-120799622D01*
X92474351Y-118474678D01*
X92449254Y-118431950D01*
X92416296Y-118405504D01*
X92350899Y-118369003D01*
X92321905Y-118299006D01*
X91650994Y-117628095D01*
X90774406Y-117265000D01*
X90372893Y-117265000D01*
X90231896Y-117186304D01*
X90184746Y-117171059D01*
X90135351Y-117175018D01*
X90106990Y-117186933D01*
X89970373Y-117265000D01*
X89825594Y-117265000D01*
X88949006Y-117628095D01*
X88783040Y-117794061D01*
X84738346Y-117975845D01*
X84815479Y-117590180D01*
X84837900Y-117594640D01*
X85237900Y-117594640D01*
X85485665Y-117545357D01*
X85486738Y-117544640D01*
X86014062Y-117544640D01*
X86015135Y-117545357D01*
X86262900Y-117594640D01*
X86662900Y-117594640D01*
X86910665Y-117545357D01*
X87120709Y-117405009D01*
X87187146Y-117305580D01*
X90577500Y-115787511D01*
X90630831Y-115742702D01*
X93134940Y-112036621D01*
X102692200Y-111638402D01*
X102692200Y-113943549D01*
X102692200Y-113943549D01*
G37*
X102692200Y-113943549D02*
X102592252Y-121489600D01*
X93747356Y-121588981D01*
X93283027Y-120799622D01*
X92474351Y-118474678D01*
X92449254Y-118431950D01*
X92416296Y-118405504D01*
X92350899Y-118369003D01*
X92321905Y-118299006D01*
X91650994Y-117628095D01*
X90774406Y-117265000D01*
X90372893Y-117265000D01*
X90231896Y-117186304D01*
X90184746Y-117171059D01*
X90135351Y-117175018D01*
X90106990Y-117186933D01*
X89970373Y-117265000D01*
X89825594Y-117265000D01*
X88949006Y-117628095D01*
X88783040Y-117794061D01*
X84738346Y-117975845D01*
X84815479Y-117590180D01*
X84837900Y-117594640D01*
X85237900Y-117594640D01*
X85485665Y-117545357D01*
X85486738Y-117544640D01*
X86014062Y-117544640D01*
X86015135Y-117545357D01*
X86262900Y-117594640D01*
X86662900Y-117594640D01*
X86910665Y-117545357D01*
X87120709Y-117405009D01*
X87187146Y-117305580D01*
X90577500Y-115787511D01*
X90630831Y-115742702D01*
X93134940Y-112036621D01*
X102692200Y-111638402D01*
X102692200Y-113943549D01*
G04 #@! TO.N,Net-(P3-Pad1)*
G36*
X88668194Y-113780833D02*
X88803308Y-114583069D01*
X86455254Y-116737867D01*
X86444785Y-116736297D01*
X86444785Y-116697200D01*
X86438590Y-116666053D01*
X86511665Y-116238719D01*
X86523978Y-116176463D01*
X86529635Y-116136994D01*
X86530268Y-116129931D01*
X86862059Y-114189677D01*
X87257306Y-113390399D01*
X88668194Y-113780833D01*
X88668194Y-113780833D01*
G37*
X88668194Y-113780833D02*
X88803308Y-114583069D01*
X86455254Y-116737867D01*
X86444785Y-116736297D01*
X86444785Y-116697200D01*
X86438590Y-116666053D01*
X86511665Y-116238719D01*
X86523978Y-116176463D01*
X86529635Y-116136994D01*
X86530268Y-116129931D01*
X86862059Y-114189677D01*
X87257306Y-113390399D01*
X88668194Y-113780833D01*
G04 #@! TO.N,Net-(BT6-Pad1)*
G36*
X83653172Y-114519384D02*
X85292825Y-114711941D01*
X85463073Y-114748827D01*
X85617438Y-114815237D01*
X85756206Y-114910010D01*
X85874228Y-115029627D01*
X85967127Y-115169653D01*
X86031458Y-115324899D01*
X86064830Y-115489588D01*
X86066052Y-115663790D01*
X86028251Y-116085271D01*
X85994970Y-116253547D01*
X85929762Y-116404867D01*
X85834230Y-116539108D01*
X85712625Y-116650295D01*
X85570385Y-116733455D01*
X85464093Y-116768376D01*
X84800400Y-116768376D01*
X84726495Y-116775655D01*
X84655430Y-116797212D01*
X84645430Y-116802557D01*
X84453059Y-116781414D01*
X84266037Y-116717688D01*
X82814820Y-116038255D01*
X82652240Y-115939073D01*
X82520251Y-115811705D01*
X82419210Y-115658624D01*
X82353980Y-115487197D01*
X82327713Y-115305783D01*
X82338411Y-115168482D01*
X82379215Y-115037065D01*
X82448104Y-114917949D01*
X82541662Y-114817043D01*
X82655241Y-114739361D01*
X82789847Y-114686129D01*
X83310866Y-114544767D01*
X83480806Y-114515688D01*
X83653172Y-114519384D01*
X83653172Y-114519384D01*
G37*
X83653172Y-114519384D02*
X85292825Y-114711941D01*
X85463073Y-114748827D01*
X85617438Y-114815237D01*
X85756206Y-114910010D01*
X85874228Y-115029627D01*
X85967127Y-115169653D01*
X86031458Y-115324899D01*
X86064830Y-115489588D01*
X86066052Y-115663790D01*
X86028251Y-116085271D01*
X85994970Y-116253547D01*
X85929762Y-116404867D01*
X85834230Y-116539108D01*
X85712625Y-116650295D01*
X85570385Y-116733455D01*
X85464093Y-116768376D01*
X84800400Y-116768376D01*
X84726495Y-116775655D01*
X84655430Y-116797212D01*
X84645430Y-116802557D01*
X84453059Y-116781414D01*
X84266037Y-116717688D01*
X82814820Y-116038255D01*
X82652240Y-115939073D01*
X82520251Y-115811705D01*
X82419210Y-115658624D01*
X82353980Y-115487197D01*
X82327713Y-115305783D01*
X82338411Y-115168482D01*
X82379215Y-115037065D01*
X82448104Y-114917949D01*
X82541662Y-114817043D01*
X82655241Y-114739361D01*
X82789847Y-114686129D01*
X83310866Y-114544767D01*
X83480806Y-114515688D01*
X83653172Y-114519384D01*
G04 #@! TD*
M02*
