G04 #@! TF.GenerationSoftware,KiCad,Pcbnew,(5.0.1)-3*
G04 #@! TF.CreationDate,2019-01-26T22:39:22-03:30*
G04 #@! TF.ProjectId,Battery Pack,42617474657279205061636B2E6B6963,rev?*
G04 #@! TF.SameCoordinates,Original*
G04 #@! TF.FileFunction,Legend,Bot*
G04 #@! TF.FilePolarity,Positive*
%FSLAX46Y46*%
G04 Gerber Fmt 4.6, Leading zero omitted, Abs format (unit mm)*
G04 Created by KiCad (PCBNEW (5.0.1)-3) date 2019-01-26 10:39:22 PM*
%MOMM*%
%LPD*%
G01*
G04 APERTURE LIST*
%ADD10C,0.100000*%
%ADD11C,0.300000*%
%ADD12C,0.150000*%
%ADD13C,0.050000*%
%ADD14C,0.120000*%
%ADD15C,0.010000*%
G04 APERTURE END LIST*
D10*
X101344990Y-96618085D02*
X101178323Y-96618085D01*
X101106895Y-96879990D02*
X101344990Y-96879990D01*
X101344990Y-96379990D01*
X101106895Y-96379990D01*
X100892609Y-96618085D02*
X100725942Y-96618085D01*
X100654514Y-96879990D02*
X100892609Y-96879990D01*
X100892609Y-96379990D01*
X100654514Y-96379990D01*
X100154514Y-96879990D02*
X100321180Y-96641895D01*
X100440228Y-96879990D02*
X100440228Y-96379990D01*
X100249752Y-96379990D01*
X100202133Y-96403800D01*
X100178323Y-96427609D01*
X100154514Y-96475228D01*
X100154514Y-96546657D01*
X100178323Y-96594276D01*
X100202133Y-96618085D01*
X100249752Y-96641895D01*
X100440228Y-96641895D01*
X99583085Y-96427609D02*
X99559276Y-96403800D01*
X99511657Y-96379990D01*
X99392609Y-96379990D01*
X99344990Y-96403800D01*
X99321180Y-96427609D01*
X99297371Y-96475228D01*
X99297371Y-96522847D01*
X99321180Y-96594276D01*
X99606895Y-96879990D01*
X99297371Y-96879990D01*
X98987847Y-96379990D02*
X98940228Y-96379990D01*
X98892609Y-96403800D01*
X98868800Y-96427609D01*
X98844990Y-96475228D01*
X98821180Y-96570466D01*
X98821180Y-96689514D01*
X98844990Y-96784752D01*
X98868800Y-96832371D01*
X98892609Y-96856180D01*
X98940228Y-96879990D01*
X98987847Y-96879990D01*
X99035466Y-96856180D01*
X99059276Y-96832371D01*
X99083085Y-96784752D01*
X99106895Y-96689514D01*
X99106895Y-96570466D01*
X99083085Y-96475228D01*
X99059276Y-96427609D01*
X99035466Y-96403800D01*
X98987847Y-96379990D01*
X98344990Y-96879990D02*
X98630704Y-96879990D01*
X98487847Y-96879990D02*
X98487847Y-96379990D01*
X98535466Y-96451419D01*
X98583085Y-96499038D01*
X98630704Y-96522847D01*
X98106895Y-96879990D02*
X98011657Y-96879990D01*
X97964038Y-96856180D01*
X97940228Y-96832371D01*
X97892609Y-96760942D01*
X97868800Y-96665704D01*
X97868800Y-96475228D01*
X97892609Y-96427609D01*
X97916419Y-96403800D01*
X97964038Y-96379990D01*
X98059276Y-96379990D01*
X98106895Y-96403800D01*
X98130704Y-96427609D01*
X98154514Y-96475228D01*
X98154514Y-96594276D01*
X98130704Y-96641895D01*
X98106895Y-96665704D01*
X98059276Y-96689514D01*
X97964038Y-96689514D01*
X97916419Y-96665704D01*
X97892609Y-96641895D01*
X97868800Y-96594276D01*
X105975942Y-97468085D02*
X105904514Y-97491895D01*
X105880704Y-97515704D01*
X105856895Y-97563323D01*
X105856895Y-97634752D01*
X105880704Y-97682371D01*
X105904514Y-97706180D01*
X105952133Y-97729990D01*
X106142609Y-97729990D01*
X106142609Y-97229990D01*
X105975942Y-97229990D01*
X105928323Y-97253800D01*
X105904514Y-97277609D01*
X105880704Y-97325228D01*
X105880704Y-97372847D01*
X105904514Y-97420466D01*
X105928323Y-97444276D01*
X105975942Y-97468085D01*
X106142609Y-97468085D01*
X105690228Y-97396657D02*
X105571180Y-97729990D01*
X105452133Y-97396657D02*
X105571180Y-97729990D01*
X105618800Y-97849038D01*
X105642609Y-97872847D01*
X105690228Y-97896657D01*
X105261657Y-97682371D02*
X105237847Y-97706180D01*
X105261657Y-97729990D01*
X105285466Y-97706180D01*
X105261657Y-97682371D01*
X105261657Y-97729990D01*
X105261657Y-97420466D02*
X105237847Y-97444276D01*
X105261657Y-97468085D01*
X105285466Y-97444276D01*
X105261657Y-97420466D01*
X105261657Y-97468085D01*
X104642609Y-97729990D02*
X104642609Y-97229990D01*
X104452133Y-97229990D01*
X104404514Y-97253800D01*
X104380704Y-97277609D01*
X104356895Y-97325228D01*
X104356895Y-97396657D01*
X104380704Y-97444276D01*
X104404514Y-97468085D01*
X104452133Y-97491895D01*
X104642609Y-97491895D01*
X103928323Y-97729990D02*
X103928323Y-97468085D01*
X103952133Y-97420466D01*
X103999752Y-97396657D01*
X104094990Y-97396657D01*
X104142609Y-97420466D01*
X103928323Y-97706180D02*
X103975942Y-97729990D01*
X104094990Y-97729990D01*
X104142609Y-97706180D01*
X104166419Y-97658561D01*
X104166419Y-97610942D01*
X104142609Y-97563323D01*
X104094990Y-97539514D01*
X103975942Y-97539514D01*
X103928323Y-97515704D01*
X103761657Y-97396657D02*
X103571180Y-97396657D01*
X103690228Y-97229990D02*
X103690228Y-97658561D01*
X103666419Y-97706180D01*
X103618800Y-97729990D01*
X103571180Y-97729990D01*
X103404514Y-97729990D02*
X103404514Y-97396657D01*
X103404514Y-97491895D02*
X103380704Y-97444276D01*
X103356895Y-97420466D01*
X103309276Y-97396657D01*
X103261657Y-97396657D01*
X103094990Y-97729990D02*
X103094990Y-97396657D01*
X103094990Y-97229990D02*
X103118800Y-97253800D01*
X103094990Y-97277609D01*
X103071180Y-97253800D01*
X103094990Y-97229990D01*
X103094990Y-97277609D01*
X102642609Y-97706180D02*
X102690228Y-97729990D01*
X102785466Y-97729990D01*
X102833085Y-97706180D01*
X102856895Y-97682371D01*
X102880704Y-97634752D01*
X102880704Y-97491895D01*
X102856895Y-97444276D01*
X102833085Y-97420466D01*
X102785466Y-97396657D01*
X102690228Y-97396657D01*
X102642609Y-97420466D01*
X102428323Y-97729990D02*
X102428323Y-97229990D01*
X102380704Y-97539514D02*
X102237847Y-97729990D01*
X102237847Y-97396657D02*
X102428323Y-97587133D01*
X101690228Y-97229990D02*
X101571180Y-97729990D01*
X101475942Y-97372847D01*
X101380704Y-97729990D01*
X101261657Y-97229990D01*
X101071180Y-97729990D02*
X101071180Y-97229990D01*
X100856895Y-97729990D02*
X100856895Y-97468085D01*
X100880704Y-97420466D01*
X100928323Y-97396657D01*
X100999752Y-97396657D01*
X101047371Y-97420466D01*
X101071180Y-97444276D01*
X100428323Y-97706180D02*
X100475942Y-97729990D01*
X100571180Y-97729990D01*
X100618800Y-97706180D01*
X100642609Y-97658561D01*
X100642609Y-97468085D01*
X100618800Y-97420466D01*
X100571180Y-97396657D01*
X100475942Y-97396657D01*
X100428323Y-97420466D01*
X100404514Y-97468085D01*
X100404514Y-97515704D01*
X100642609Y-97563323D01*
X100118800Y-97729990D02*
X100166419Y-97706180D01*
X100190228Y-97658561D01*
X100190228Y-97229990D01*
X99714038Y-97729990D02*
X99714038Y-97468085D01*
X99737847Y-97420466D01*
X99785466Y-97396657D01*
X99880704Y-97396657D01*
X99928323Y-97420466D01*
X99714038Y-97706180D02*
X99761657Y-97729990D01*
X99880704Y-97729990D01*
X99928323Y-97706180D01*
X99952133Y-97658561D01*
X99952133Y-97610942D01*
X99928323Y-97563323D01*
X99880704Y-97539514D01*
X99761657Y-97539514D01*
X99714038Y-97515704D01*
X99475942Y-97396657D02*
X99475942Y-97729990D01*
X99475942Y-97444276D02*
X99452133Y-97420466D01*
X99404514Y-97396657D01*
X99333085Y-97396657D01*
X99285466Y-97420466D01*
X99261657Y-97468085D01*
X99261657Y-97729990D01*
X98237847Y-97729990D02*
X98261657Y-97729990D01*
X98309276Y-97706180D01*
X98380704Y-97634752D01*
X98499752Y-97491895D01*
X98547371Y-97420466D01*
X98571180Y-97349038D01*
X98571180Y-97301419D01*
X98547371Y-97253800D01*
X98499752Y-97229990D01*
X98475942Y-97229990D01*
X98428323Y-97253800D01*
X98404514Y-97301419D01*
X98404514Y-97325228D01*
X98428323Y-97372847D01*
X98452133Y-97396657D01*
X98594990Y-97491895D01*
X98618800Y-97515704D01*
X98642609Y-97563323D01*
X98642609Y-97634752D01*
X98618800Y-97682371D01*
X98594990Y-97706180D01*
X98547371Y-97729990D01*
X98475942Y-97729990D01*
X98428323Y-97706180D01*
X98404514Y-97682371D01*
X98333085Y-97587133D01*
X98309276Y-97515704D01*
X98309276Y-97468085D01*
X97642609Y-97729990D02*
X97642609Y-97229990D01*
X97523561Y-97229990D01*
X97452133Y-97253800D01*
X97404514Y-97301419D01*
X97380704Y-97349038D01*
X97356895Y-97444276D01*
X97356895Y-97515704D01*
X97380704Y-97610942D01*
X97404514Y-97658561D01*
X97452133Y-97706180D01*
X97523561Y-97729990D01*
X97642609Y-97729990D01*
X96928323Y-97729990D02*
X96928323Y-97468085D01*
X96952133Y-97420466D01*
X96999752Y-97396657D01*
X97094990Y-97396657D01*
X97142609Y-97420466D01*
X96928323Y-97706180D02*
X96975942Y-97729990D01*
X97094990Y-97729990D01*
X97142609Y-97706180D01*
X97166419Y-97658561D01*
X97166419Y-97610942D01*
X97142609Y-97563323D01*
X97094990Y-97539514D01*
X96975942Y-97539514D01*
X96928323Y-97515704D01*
X96737847Y-97396657D02*
X96618800Y-97729990D01*
X96499752Y-97396657D01*
X96309276Y-97729990D02*
X96309276Y-97396657D01*
X96309276Y-97229990D02*
X96333085Y-97253800D01*
X96309276Y-97277609D01*
X96285466Y-97253800D01*
X96309276Y-97229990D01*
X96309276Y-97277609D01*
X95856895Y-97729990D02*
X95856895Y-97229990D01*
X95856895Y-97706180D02*
X95904514Y-97729990D01*
X95999752Y-97729990D01*
X96047371Y-97706180D01*
X96071180Y-97682371D01*
X96094990Y-97634752D01*
X96094990Y-97491895D01*
X96071180Y-97444276D01*
X96047371Y-97420466D01*
X95999752Y-97396657D01*
X95904514Y-97396657D01*
X95856895Y-97420466D01*
X95237847Y-97729990D02*
X95237847Y-97229990D01*
X95118800Y-97229990D01*
X95047371Y-97253800D01*
X94999752Y-97301419D01*
X94975942Y-97349038D01*
X94952133Y-97444276D01*
X94952133Y-97515704D01*
X94975942Y-97610942D01*
X94999752Y-97658561D01*
X95047371Y-97706180D01*
X95118800Y-97729990D01*
X95237847Y-97729990D01*
X94737847Y-97729990D02*
X94737847Y-97396657D01*
X94737847Y-97491895D02*
X94714038Y-97444276D01*
X94690228Y-97420466D01*
X94642609Y-97396657D01*
X94594990Y-97396657D01*
X94356895Y-97729990D02*
X94404514Y-97706180D01*
X94428323Y-97682371D01*
X94452133Y-97634752D01*
X94452133Y-97491895D01*
X94428323Y-97444276D01*
X94404514Y-97420466D01*
X94356895Y-97396657D01*
X94285466Y-97396657D01*
X94237847Y-97420466D01*
X94214038Y-97444276D01*
X94190228Y-97491895D01*
X94190228Y-97634752D01*
X94214038Y-97682371D01*
X94237847Y-97706180D01*
X94285466Y-97729990D01*
X94356895Y-97729990D01*
X94023561Y-97396657D02*
X93904514Y-97729990D01*
X93785466Y-97396657D01*
X93404514Y-97706180D02*
X93452133Y-97729990D01*
X93547371Y-97729990D01*
X93594990Y-97706180D01*
X93618800Y-97658561D01*
X93618800Y-97468085D01*
X93594990Y-97420466D01*
X93547371Y-97396657D01*
X93452133Y-97396657D01*
X93404514Y-97420466D01*
X93380704Y-97468085D01*
X93380704Y-97515704D01*
X93618800Y-97563323D01*
X93166419Y-97729990D02*
X93166419Y-97396657D01*
X93166419Y-97491895D02*
X93142609Y-97444276D01*
X93118800Y-97420466D01*
X93071180Y-97396657D01*
X93023561Y-97396657D01*
D11*
X122570914Y-101300742D02*
X121428057Y-101300742D01*
X121999485Y-101872171D02*
X121999485Y-100729314D01*
X120856628Y-100872171D02*
X120499485Y-101872171D01*
X120142342Y-100872171D01*
X118999485Y-101800742D02*
X119142342Y-101872171D01*
X119428057Y-101872171D01*
X119570914Y-101800742D01*
X119642342Y-101657885D01*
X119642342Y-101086457D01*
X119570914Y-100943600D01*
X119428057Y-100872171D01*
X119142342Y-100872171D01*
X118999485Y-100943600D01*
X118928057Y-101086457D01*
X118928057Y-101229314D01*
X119642342Y-101372171D01*
X117142342Y-101872171D02*
X117142342Y-100372171D01*
X116642342Y-101443600D01*
X116142342Y-100372171D01*
X116142342Y-101872171D01*
X114785200Y-101872171D02*
X114785200Y-101086457D01*
X114856628Y-100943600D01*
X114999485Y-100872171D01*
X115285200Y-100872171D01*
X115428057Y-100943600D01*
X114785200Y-101800742D02*
X114928057Y-101872171D01*
X115285200Y-101872171D01*
X115428057Y-101800742D01*
X115499485Y-101657885D01*
X115499485Y-101515028D01*
X115428057Y-101372171D01*
X115285200Y-101300742D01*
X114928057Y-101300742D01*
X114785200Y-101229314D01*
X114142342Y-101800742D02*
X113999485Y-101872171D01*
X113713771Y-101872171D01*
X113570914Y-101800742D01*
X113499485Y-101657885D01*
X113499485Y-101586457D01*
X113570914Y-101443600D01*
X113713771Y-101372171D01*
X113928057Y-101372171D01*
X114070914Y-101300742D01*
X114142342Y-101157885D01*
X114142342Y-101086457D01*
X114070914Y-100943600D01*
X113928057Y-100872171D01*
X113713771Y-100872171D01*
X113570914Y-100943600D01*
X113070914Y-100872171D02*
X112499485Y-100872171D01*
X112856628Y-100372171D02*
X112856628Y-101657885D01*
X112785200Y-101800742D01*
X112642342Y-101872171D01*
X112499485Y-101872171D01*
X111428057Y-101800742D02*
X111570914Y-101872171D01*
X111856628Y-101872171D01*
X111999485Y-101800742D01*
X112070914Y-101657885D01*
X112070914Y-101086457D01*
X111999485Y-100943600D01*
X111856628Y-100872171D01*
X111570914Y-100872171D01*
X111428057Y-100943600D01*
X111356628Y-101086457D01*
X111356628Y-101229314D01*
X112070914Y-101372171D01*
X110713771Y-101872171D02*
X110713771Y-100872171D01*
X110713771Y-101157885D02*
X110642342Y-101015028D01*
X110570914Y-100943600D01*
X110428057Y-100872171D01*
X110285200Y-100872171D01*
X104943314Y-110851142D02*
X103800457Y-110851142D01*
X103229028Y-110422571D02*
X102871885Y-111422571D01*
X102514742Y-110422571D01*
X101371885Y-111351142D02*
X101514742Y-111422571D01*
X101800457Y-111422571D01*
X101943314Y-111351142D01*
X102014742Y-111208285D01*
X102014742Y-110636857D01*
X101943314Y-110494000D01*
X101800457Y-110422571D01*
X101514742Y-110422571D01*
X101371885Y-110494000D01*
X101300457Y-110636857D01*
X101300457Y-110779714D01*
X102014742Y-110922571D01*
X99514742Y-111422571D02*
X99514742Y-109922571D01*
X99014742Y-110994000D01*
X98514742Y-109922571D01*
X98514742Y-111422571D01*
X97157600Y-111422571D02*
X97157600Y-110636857D01*
X97229028Y-110494000D01*
X97371885Y-110422571D01*
X97657600Y-110422571D01*
X97800457Y-110494000D01*
X97157600Y-111351142D02*
X97300457Y-111422571D01*
X97657600Y-111422571D01*
X97800457Y-111351142D01*
X97871885Y-111208285D01*
X97871885Y-111065428D01*
X97800457Y-110922571D01*
X97657600Y-110851142D01*
X97300457Y-110851142D01*
X97157600Y-110779714D01*
X96514742Y-111351142D02*
X96371885Y-111422571D01*
X96086171Y-111422571D01*
X95943314Y-111351142D01*
X95871885Y-111208285D01*
X95871885Y-111136857D01*
X95943314Y-110994000D01*
X96086171Y-110922571D01*
X96300457Y-110922571D01*
X96443314Y-110851142D01*
X96514742Y-110708285D01*
X96514742Y-110636857D01*
X96443314Y-110494000D01*
X96300457Y-110422571D01*
X96086171Y-110422571D01*
X95943314Y-110494000D01*
X95443314Y-110422571D02*
X94871885Y-110422571D01*
X95229028Y-109922571D02*
X95229028Y-111208285D01*
X95157600Y-111351142D01*
X95014742Y-111422571D01*
X94871885Y-111422571D01*
X93800457Y-111351142D02*
X93943314Y-111422571D01*
X94229028Y-111422571D01*
X94371885Y-111351142D01*
X94443314Y-111208285D01*
X94443314Y-110636857D01*
X94371885Y-110494000D01*
X94229028Y-110422571D01*
X93943314Y-110422571D01*
X93800457Y-110494000D01*
X93729028Y-110636857D01*
X93729028Y-110779714D01*
X94443314Y-110922571D01*
X93086171Y-111422571D02*
X93086171Y-110422571D01*
X93086171Y-110708285D02*
X93014742Y-110565428D01*
X92943314Y-110494000D01*
X92800457Y-110422571D01*
X92657600Y-110422571D01*
D12*
G04 #@! TO.C,F1*
X87630000Y-100330000D02*
X113030000Y-100330000D01*
X87630000Y-110490000D02*
X87630000Y-100330000D01*
X87630000Y-110490000D02*
X113030000Y-110490000D01*
X113030000Y-100330000D02*
X113030000Y-110490000D01*
D13*
G04 #@! TO.C,Q1*
X87000400Y-116297200D02*
X87000400Y-118297200D01*
X84500400Y-116297200D02*
X87000400Y-116297200D01*
X84500400Y-118297200D02*
X84500400Y-116297200D01*
X87000400Y-118297200D02*
X84500400Y-118297200D01*
D10*
X86900400Y-118197200D02*
G75*
G03X86900400Y-118197200I-50000J0D01*
G01*
D14*
G04 #@! TO.C,R1*
X77990000Y-108440000D02*
X77990000Y-109640000D01*
X79750000Y-109640000D02*
X79750000Y-108440000D01*
D15*
G04 #@! TO.C,G\002A\002A\002A*
G36*
X83035657Y-90908763D02*
X83031588Y-90915274D01*
X83031633Y-90915419D01*
X83034957Y-90926663D01*
X83040634Y-90946622D01*
X83045720Y-90964808D01*
X83052435Y-90987363D01*
X83058452Y-90999489D01*
X83066599Y-91004415D01*
X83079710Y-91005375D01*
X83081259Y-91005377D01*
X83098688Y-91003214D01*
X83102757Y-90996703D01*
X83102712Y-90996558D01*
X83099387Y-90985314D01*
X83093710Y-90965355D01*
X83088625Y-90947169D01*
X83081909Y-90924613D01*
X83075893Y-90912488D01*
X83067745Y-90907562D01*
X83054635Y-90906602D01*
X83053086Y-90906600D01*
X83035657Y-90908763D01*
X83035657Y-90908763D01*
G37*
X83035657Y-90908763D02*
X83031588Y-90915274D01*
X83031633Y-90915419D01*
X83034957Y-90926663D01*
X83040634Y-90946622D01*
X83045720Y-90964808D01*
X83052435Y-90987363D01*
X83058452Y-90999489D01*
X83066599Y-91004415D01*
X83079710Y-91005375D01*
X83081259Y-91005377D01*
X83098688Y-91003214D01*
X83102757Y-90996703D01*
X83102712Y-90996558D01*
X83099387Y-90985314D01*
X83093710Y-90965355D01*
X83088625Y-90947169D01*
X83081909Y-90924613D01*
X83075893Y-90912488D01*
X83067745Y-90907562D01*
X83054635Y-90906602D01*
X83053086Y-90906600D01*
X83035657Y-90908763D01*
G36*
X83552479Y-90709629D02*
X83546024Y-90713193D01*
X83544772Y-90722445D01*
X83548271Y-90740096D01*
X83555162Y-90765595D01*
X83562043Y-90788740D01*
X83568047Y-90801379D01*
X83575784Y-90806682D01*
X83587863Y-90807815D01*
X83589942Y-90807822D01*
X83612982Y-90807822D01*
X83599369Y-90760219D01*
X83592642Y-90736464D01*
X83587777Y-90718832D01*
X83585764Y-90710923D01*
X83585756Y-90710830D01*
X83579610Y-90709575D01*
X83564808Y-90709044D01*
X83564589Y-90709044D01*
X83552479Y-90709629D01*
X83552479Y-90709629D01*
G37*
X83552479Y-90709629D02*
X83546024Y-90713193D01*
X83544772Y-90722445D01*
X83548271Y-90740096D01*
X83555162Y-90765595D01*
X83562043Y-90788740D01*
X83568047Y-90801379D01*
X83575784Y-90806682D01*
X83587863Y-90807815D01*
X83589942Y-90807822D01*
X83612982Y-90807822D01*
X83599369Y-90760219D01*
X83592642Y-90736464D01*
X83587777Y-90718832D01*
X83585764Y-90710923D01*
X83585756Y-90710830D01*
X83579610Y-90709575D01*
X83564808Y-90709044D01*
X83564589Y-90709044D01*
X83552479Y-90709629D01*
G36*
X80707798Y-91669544D02*
X80702503Y-91674700D01*
X80704400Y-91687548D01*
X80704511Y-91688002D01*
X80712929Y-91721127D01*
X80719744Y-91743040D01*
X80726355Y-91756318D01*
X80734158Y-91763539D01*
X80744552Y-91767280D01*
X80747899Y-91768010D01*
X80763210Y-91769434D01*
X80770492Y-91766751D01*
X80770589Y-91766172D01*
X80768973Y-91756430D01*
X80764747Y-91737272D01*
X80759148Y-91714147D01*
X80752725Y-91689879D01*
X80747245Y-91676254D01*
X80740319Y-91670201D01*
X80729561Y-91668648D01*
X80723736Y-91668600D01*
X80707798Y-91669544D01*
X80707798Y-91669544D01*
G37*
X80707798Y-91669544D02*
X80702503Y-91674700D01*
X80704400Y-91687548D01*
X80704511Y-91688002D01*
X80712929Y-91721127D01*
X80719744Y-91743040D01*
X80726355Y-91756318D01*
X80734158Y-91763539D01*
X80744552Y-91767280D01*
X80747899Y-91768010D01*
X80763210Y-91769434D01*
X80770492Y-91766751D01*
X80770589Y-91766172D01*
X80768973Y-91756430D01*
X80764747Y-91737272D01*
X80759148Y-91714147D01*
X80752725Y-91689879D01*
X80747245Y-91676254D01*
X80740319Y-91670201D01*
X80729561Y-91668648D01*
X80723736Y-91668600D01*
X80707798Y-91669544D01*
G36*
X81376381Y-90710260D02*
X81368995Y-90712712D01*
X81368824Y-90720879D01*
X81371977Y-90738615D01*
X81377315Y-90760337D01*
X81384340Y-90784236D01*
X81390553Y-90797686D01*
X81398392Y-90803971D01*
X81410291Y-90806375D01*
X81411558Y-90806505D01*
X81426838Y-90806845D01*
X81433773Y-90804674D01*
X81433811Y-90804427D01*
X81432211Y-90795876D01*
X81428023Y-90777659D01*
X81422370Y-90754591D01*
X81415754Y-90730164D01*
X81410015Y-90716475D01*
X81403096Y-90710458D01*
X81392941Y-90709049D01*
X81391796Y-90709044D01*
X81376381Y-90710260D01*
X81376381Y-90710260D01*
G37*
X81376381Y-90710260D02*
X81368995Y-90712712D01*
X81368824Y-90720879D01*
X81371977Y-90738615D01*
X81377315Y-90760337D01*
X81384340Y-90784236D01*
X81390553Y-90797686D01*
X81398392Y-90803971D01*
X81410291Y-90806375D01*
X81411558Y-90806505D01*
X81426838Y-90806845D01*
X81433773Y-90804674D01*
X81433811Y-90804427D01*
X81432211Y-90795876D01*
X81428023Y-90777659D01*
X81422370Y-90754591D01*
X81415754Y-90730164D01*
X81410015Y-90716475D01*
X81403096Y-90710458D01*
X81392941Y-90709049D01*
X81391796Y-90709044D01*
X81376381Y-90710260D01*
G36*
X81829524Y-90377825D02*
X81793332Y-90378911D01*
X81764068Y-90380553D01*
X81744366Y-90382616D01*
X81737548Y-90384302D01*
X81726449Y-90394165D01*
X81720981Y-90410094D01*
X81721082Y-90433972D01*
X81726692Y-90467682D01*
X81733879Y-90498195D01*
X81741035Y-90528014D01*
X81746140Y-90552451D01*
X81748611Y-90568496D01*
X81748401Y-90573195D01*
X81740788Y-90573952D01*
X81720597Y-90574590D01*
X81689360Y-90575097D01*
X81648609Y-90575459D01*
X81599877Y-90575665D01*
X81544695Y-90575702D01*
X81484596Y-90575558D01*
X81467351Y-90575484D01*
X81383084Y-90575302D01*
X81312653Y-90575603D01*
X81256112Y-90576388D01*
X81213513Y-90577655D01*
X81184908Y-90579403D01*
X81170350Y-90581630D01*
X81169878Y-90581797D01*
X81149856Y-90585651D01*
X81141327Y-90582311D01*
X81132419Y-90580825D01*
X81109629Y-90579506D01*
X81073185Y-90578358D01*
X81023315Y-90577383D01*
X80960247Y-90576586D01*
X80884209Y-90575968D01*
X80795430Y-90575533D01*
X80694136Y-90575283D01*
X80601862Y-90575219D01*
X80500576Y-90575206D01*
X80412430Y-90575214D01*
X80336452Y-90575312D01*
X80271671Y-90575568D01*
X80217116Y-90576053D01*
X80171816Y-90576834D01*
X80134799Y-90577982D01*
X80105095Y-90579565D01*
X80081731Y-90581653D01*
X80063737Y-90584314D01*
X80050141Y-90587618D01*
X80039972Y-90591634D01*
X80032259Y-90596431D01*
X80026030Y-90602078D01*
X80020314Y-90608644D01*
X80014140Y-90616199D01*
X80013384Y-90617102D01*
X79997983Y-90641953D01*
X79990349Y-90671946D01*
X79990318Y-90709193D01*
X79997731Y-90755801D01*
X80001467Y-90772283D01*
X80016118Y-90832051D01*
X80031151Y-90890697D01*
X80046085Y-90946564D01*
X80060440Y-90998000D01*
X80073736Y-91043349D01*
X80085493Y-91080957D01*
X80095230Y-91109171D01*
X80102469Y-91126336D01*
X80105483Y-91130698D01*
X80111928Y-91133115D01*
X80124878Y-91135028D01*
X80145469Y-91136467D01*
X80174836Y-91137461D01*
X80214113Y-91138039D01*
X80264435Y-91138231D01*
X80326937Y-91138065D01*
X80378437Y-91137753D01*
X80639524Y-91135905D01*
X80650376Y-91116490D01*
X80653897Y-91109089D01*
X80655769Y-91100705D01*
X80655708Y-91092869D01*
X80615367Y-91092869D01*
X80608715Y-91094328D01*
X80590371Y-91095567D01*
X80562754Y-91096491D01*
X80528282Y-91097005D01*
X80507769Y-91097079D01*
X80400172Y-91097058D01*
X80362075Y-90954204D01*
X80344903Y-90889637D01*
X80331021Y-90837384D01*
X80319954Y-90796156D01*
X80311228Y-90764667D01*
X80304367Y-90741630D01*
X80298897Y-90725758D01*
X80294342Y-90715765D01*
X80290229Y-90710363D01*
X80286081Y-90708266D01*
X80281425Y-90708186D01*
X80275785Y-90708837D01*
X80271608Y-90709044D01*
X80254349Y-90710987D01*
X80250056Y-90716990D01*
X80250330Y-90717863D01*
X80253008Y-90726912D01*
X80258733Y-90747622D01*
X80266969Y-90778006D01*
X80277180Y-90816077D01*
X80288830Y-90859847D01*
X80297468Y-90892488D01*
X80310004Y-90939807D01*
X80321662Y-90983510D01*
X80331861Y-91021440D01*
X80340019Y-91051439D01*
X80345554Y-91071353D01*
X80347472Y-91077874D01*
X80353701Y-91097455D01*
X80243491Y-91095513D01*
X80133281Y-91093572D01*
X80084821Y-90913655D01*
X80068122Y-90850914D01*
X80055159Y-90800159D01*
X80045677Y-90759841D01*
X80039419Y-90728412D01*
X80036131Y-90704322D01*
X80035557Y-90686023D01*
X80037442Y-90671967D01*
X80041529Y-90660603D01*
X80042691Y-90658324D01*
X80048838Y-90647631D01*
X80055642Y-90638979D01*
X80064573Y-90632152D01*
X80077100Y-90626933D01*
X80094690Y-90623108D01*
X80118813Y-90620460D01*
X80150938Y-90618773D01*
X80192532Y-90617832D01*
X80245065Y-90617420D01*
X80310005Y-90617323D01*
X80321648Y-90617322D01*
X80551391Y-90617322D01*
X80538035Y-90640252D01*
X80528472Y-90658543D01*
X80522429Y-90676255D01*
X80520021Y-90695776D01*
X80521364Y-90719492D01*
X80526572Y-90749791D01*
X80535760Y-90789059D01*
X80547329Y-90833301D01*
X80565824Y-90902361D01*
X80580909Y-90958856D01*
X80592861Y-91003843D01*
X80601958Y-91038378D01*
X80608477Y-91063517D01*
X80612693Y-91080316D01*
X80614885Y-91089832D01*
X80615367Y-91092869D01*
X80655708Y-91092869D01*
X80655679Y-91089303D01*
X80653313Y-91072851D01*
X80648357Y-91049313D01*
X80640500Y-91016655D01*
X80629426Y-90972844D01*
X80626466Y-90961268D01*
X80615614Y-90918859D01*
X80605826Y-90880591D01*
X80597694Y-90848773D01*
X80591807Y-90825715D01*
X80588756Y-90813725D01*
X80588602Y-90813113D01*
X80588434Y-90808615D01*
X80591798Y-90805360D01*
X80600586Y-90803149D01*
X80616689Y-90801784D01*
X80641999Y-90801066D01*
X80678407Y-90800796D01*
X80705994Y-90800766D01*
X80826489Y-90800766D01*
X80834237Y-90830752D01*
X80839405Y-90850336D01*
X80847116Y-90879060D01*
X80856168Y-90912458D01*
X80862273Y-90934822D01*
X80872802Y-90973491D01*
X80883979Y-91014909D01*
X80894032Y-91052490D01*
X80897956Y-91067307D01*
X80908553Y-91102016D01*
X80918669Y-91124295D01*
X80926172Y-91132571D01*
X80938148Y-91135156D01*
X80961282Y-91137116D01*
X80992635Y-91138456D01*
X81029269Y-91139182D01*
X81068245Y-91139297D01*
X81106625Y-91138807D01*
X81141470Y-91137716D01*
X81169840Y-91136030D01*
X81188797Y-91133752D01*
X81194386Y-91132129D01*
X81205160Y-91119725D01*
X81208033Y-91100379D01*
X81209076Y-91090110D01*
X81165700Y-91090110D01*
X81158695Y-91093230D01*
X81137782Y-91095166D01*
X81103115Y-91095911D01*
X81058270Y-91095519D01*
X80950840Y-91093572D01*
X80907469Y-90931294D01*
X80894746Y-90883721D01*
X80882780Y-90839040D01*
X80872205Y-90799611D01*
X80863654Y-90767795D01*
X80857760Y-90745951D01*
X80855877Y-90739030D01*
X80849642Y-90720207D01*
X80842197Y-90711487D01*
X80829763Y-90709095D01*
X80825838Y-90709044D01*
X80811470Y-90710030D01*
X80806380Y-90715801D01*
X80807522Y-90730578D01*
X80808028Y-90733738D01*
X80812035Y-90758433D01*
X80703940Y-90758433D01*
X80660957Y-90758424D01*
X80630079Y-90757692D01*
X80609306Y-90755180D01*
X80596637Y-90749833D01*
X80590072Y-90740592D01*
X80587607Y-90726402D01*
X80587244Y-90706206D01*
X80587241Y-90696808D01*
X80590279Y-90671821D01*
X80601678Y-90651087D01*
X80607725Y-90643891D01*
X80628305Y-90620850D01*
X80870502Y-90618813D01*
X80936065Y-90618331D01*
X80988722Y-90618130D01*
X81029678Y-90618249D01*
X81060137Y-90618727D01*
X81081302Y-90619603D01*
X81094377Y-90620917D01*
X81100567Y-90622707D01*
X81101074Y-90625013D01*
X81099714Y-90626271D01*
X81090584Y-90638309D01*
X81081495Y-90658664D01*
X81077199Y-90672503D01*
X81074560Y-90681990D01*
X81072458Y-90689771D01*
X81071180Y-90697334D01*
X81071015Y-90706169D01*
X81072249Y-90717766D01*
X81075172Y-90733615D01*
X81080071Y-90755205D01*
X81087233Y-90784027D01*
X81096946Y-90821570D01*
X81109498Y-90869324D01*
X81125178Y-90928778D01*
X81130919Y-90950579D01*
X81141710Y-90991953D01*
X81151139Y-91028798D01*
X81158648Y-91058884D01*
X81163683Y-91079982D01*
X81165687Y-91089861D01*
X81165700Y-91090110D01*
X81209076Y-91090110D01*
X81209897Y-91082029D01*
X81216136Y-91076980D01*
X81227728Y-91084863D01*
X81233398Y-91090795D01*
X81253861Y-91109276D01*
X81278288Y-91122419D01*
X81309384Y-91131066D01*
X81349855Y-91136058D01*
X81384422Y-91137805D01*
X81465561Y-91140336D01*
X81433811Y-91118748D01*
X81409299Y-91104573D01*
X81386060Y-91098257D01*
X81364738Y-91097130D01*
X81320381Y-91090409D01*
X81280854Y-91071345D01*
X81248441Y-91041475D01*
X81226047Y-91003840D01*
X81218847Y-90986236D01*
X81215359Y-90973582D01*
X81217250Y-90965061D01*
X81226184Y-90959858D01*
X81243827Y-90957155D01*
X81271844Y-90956136D01*
X81311901Y-90955986D01*
X81323665Y-90955988D01*
X81432241Y-90955988D01*
X81436873Y-90980683D01*
X81441409Y-90997284D01*
X81449772Y-91004093D01*
X81466015Y-91005377D01*
X81477974Y-91005211D01*
X81484947Y-91003034D01*
X81487190Y-90996329D01*
X81484962Y-90982579D01*
X81478520Y-90959267D01*
X81472742Y-90939650D01*
X81465647Y-90915560D01*
X81191981Y-90915560D01*
X81186867Y-90920820D01*
X81172337Y-90927254D01*
X81165997Y-90922584D01*
X81165604Y-90918947D01*
X81163928Y-90905580D01*
X81161183Y-90892488D01*
X81156859Y-90874850D01*
X81177154Y-90894470D01*
X81189475Y-90907707D01*
X81191981Y-90915560D01*
X81465647Y-90915560D01*
X81464046Y-90910127D01*
X81366026Y-90906600D01*
X81324593Y-90904798D01*
X81294501Y-90902582D01*
X81272977Y-90899546D01*
X81257250Y-90895286D01*
X81244550Y-90889397D01*
X81243311Y-90888687D01*
X81216611Y-90866992D01*
X81193350Y-90836615D01*
X81174404Y-90800457D01*
X81160645Y-90761419D01*
X81152947Y-90722404D01*
X81152185Y-90686313D01*
X81159232Y-90656048D01*
X81168610Y-90640646D01*
X81185631Y-90620850D01*
X81426476Y-90618817D01*
X81667321Y-90616785D01*
X81655682Y-90634550D01*
X81646137Y-90650642D01*
X81639687Y-90666539D01*
X81636464Y-90684250D01*
X81636602Y-90705788D01*
X81640233Y-90733161D01*
X81647489Y-90768382D01*
X81658505Y-90813461D01*
X81670546Y-90859612D01*
X81684888Y-90914986D01*
X81695342Y-90958363D01*
X81702206Y-90991218D01*
X81705778Y-91015031D01*
X81706356Y-91031280D01*
X81705920Y-91035363D01*
X81703956Y-91052588D01*
X81707138Y-91060035D01*
X81717987Y-91061792D01*
X81722251Y-91061822D01*
X81735887Y-91059872D01*
X81745201Y-91053132D01*
X81750175Y-91040262D01*
X81750789Y-91019924D01*
X81747023Y-90990779D01*
X81738859Y-90951490D01*
X81726277Y-90900718D01*
X81719561Y-90875239D01*
X81709249Y-90836464D01*
X81700336Y-90802694D01*
X81693409Y-90776174D01*
X81689053Y-90759147D01*
X81687811Y-90753818D01*
X81694307Y-90752680D01*
X81711560Y-90751825D01*
X81736214Y-90751400D01*
X81743755Y-90751377D01*
X81799699Y-90751377D01*
X81810043Y-90788419D01*
X81815278Y-90807577D01*
X81823252Y-90837271D01*
X81833134Y-90874384D01*
X81844092Y-90915799D01*
X81852582Y-90948050D01*
X81863076Y-90987540D01*
X81872493Y-91022096D01*
X81880205Y-91049484D01*
X81885584Y-91067470D01*
X81887921Y-91073784D01*
X81896435Y-91075344D01*
X81912086Y-91074667D01*
X81933106Y-91072405D01*
X81889217Y-90910127D01*
X81876587Y-90863361D01*
X81864967Y-90820207D01*
X81854940Y-90782844D01*
X81847089Y-90753449D01*
X81841999Y-90734199D01*
X81840519Y-90728447D01*
X81835709Y-90709044D01*
X81701922Y-90709044D01*
X81701922Y-90687989D01*
X81708472Y-90661906D01*
X81726231Y-90639864D01*
X81752361Y-90624553D01*
X81774471Y-90619238D01*
X81793910Y-90615546D01*
X81805867Y-90610382D01*
X81807692Y-90607585D01*
X81805859Y-90598125D01*
X81800897Y-90577922D01*
X81793530Y-90549806D01*
X81784484Y-90516608D01*
X81783061Y-90511488D01*
X81773892Y-90478459D01*
X81766268Y-90450783D01*
X81760898Y-90431054D01*
X81758494Y-90421863D01*
X81758431Y-90421530D01*
X81765063Y-90420925D01*
X81783405Y-90420409D01*
X81811056Y-90420022D01*
X81845615Y-90419802D01*
X81867396Y-90419766D01*
X81976426Y-90419766D01*
X81982684Y-90442697D01*
X81987089Y-90458960D01*
X81994078Y-90484902D01*
X82002586Y-90516566D01*
X82009266Y-90541475D01*
X82029590Y-90617322D01*
X82145997Y-90617322D01*
X82128571Y-90643001D01*
X82117525Y-90663881D01*
X82111512Y-90684199D01*
X82111144Y-90688862D01*
X82109662Y-90702438D01*
X82102377Y-90708005D01*
X82086450Y-90709044D01*
X82069417Y-90710632D01*
X82062549Y-90716806D01*
X82061756Y-90723069D01*
X82063549Y-90734040D01*
X82068543Y-90756243D01*
X82076157Y-90787313D01*
X82085810Y-90824887D01*
X82096923Y-90866602D01*
X82097701Y-90869472D01*
X82111968Y-90923630D01*
X82121968Y-90966237D01*
X82127830Y-90999149D01*
X82129681Y-91024225D01*
X82127649Y-91043321D01*
X82121861Y-91058297D01*
X82112446Y-91071009D01*
X82111631Y-91071887D01*
X82096851Y-91087620D01*
X82121861Y-91095296D01*
X82139077Y-91099450D01*
X82149178Y-91096804D01*
X82158202Y-91085679D01*
X82158606Y-91085063D01*
X82168082Y-91065081D01*
X82172701Y-91040216D01*
X82172347Y-91008772D01*
X82166904Y-90969050D01*
X82156255Y-90919352D01*
X82143923Y-90871322D01*
X82132112Y-90826605D01*
X82124209Y-90793660D01*
X82120055Y-90770748D01*
X82119492Y-90756130D01*
X82122359Y-90748064D01*
X82128498Y-90744813D01*
X82132311Y-90744456D01*
X82137287Y-90750389D01*
X82144372Y-90765252D01*
X82151789Y-90784408D01*
X82157759Y-90803223D01*
X82160504Y-90817060D01*
X82160533Y-90818045D01*
X82162457Y-90831564D01*
X82167652Y-90855404D01*
X82175259Y-90886395D01*
X82184417Y-90921368D01*
X82194263Y-90957150D01*
X82203938Y-90990573D01*
X82212580Y-91018466D01*
X82219328Y-91037658D01*
X82221531Y-91042638D01*
X82232575Y-91059021D01*
X82249507Y-91079045D01*
X82260503Y-91090383D01*
X82276387Y-91104592D01*
X82292668Y-91115794D01*
X82311223Y-91124337D01*
X82333928Y-91130572D01*
X82362661Y-91134847D01*
X82399298Y-91137512D01*
X82445716Y-91138917D01*
X82503793Y-91139410D01*
X82523979Y-91139433D01*
X82576203Y-91139387D01*
X82616381Y-91139126D01*
X82646577Y-91138468D01*
X82668859Y-91137228D01*
X82685289Y-91135223D01*
X82697935Y-91132269D01*
X82708860Y-91128182D01*
X82720130Y-91122779D01*
X82722018Y-91121823D01*
X82743204Y-91111105D01*
X82754669Y-91106001D01*
X82759378Y-91105943D01*
X82760294Y-91110363D01*
X82760256Y-91114490D01*
X82761351Y-91120895D01*
X82765499Y-91126111D01*
X82773988Y-91130255D01*
X82788107Y-91133447D01*
X82809147Y-91135805D01*
X82838398Y-91137448D01*
X82877149Y-91138495D01*
X82926690Y-91139064D01*
X82988310Y-91139274D01*
X83029667Y-91139278D01*
X83095162Y-91139185D01*
X83148114Y-91138947D01*
X83190090Y-91138486D01*
X83222657Y-91137723D01*
X83247382Y-91136581D01*
X83265834Y-91134980D01*
X83279578Y-91132844D01*
X83290184Y-91130092D01*
X83299218Y-91126648D01*
X83301302Y-91125721D01*
X83327557Y-91108383D01*
X83345499Y-91082768D01*
X83355757Y-91052354D01*
X83360572Y-91032303D01*
X83380814Y-91060246D01*
X83414133Y-91096354D01*
X83454938Y-91121648D01*
X83473288Y-91128998D01*
X83490823Y-91132574D01*
X83519477Y-91135446D01*
X83556706Y-91137612D01*
X83599968Y-91139069D01*
X83646719Y-91139813D01*
X83694417Y-91139841D01*
X83740518Y-91139150D01*
X83782480Y-91137737D01*
X83817759Y-91135599D01*
X83843813Y-91132732D01*
X83857394Y-91129473D01*
X83887101Y-91108958D01*
X83909351Y-91078763D01*
X83922134Y-91042227D01*
X83923983Y-91022849D01*
X83879519Y-91022849D01*
X83877529Y-91042137D01*
X83871647Y-91057293D01*
X83861930Y-91070186D01*
X83853802Y-91078044D01*
X83831700Y-91097794D01*
X83660479Y-91095683D01*
X83489259Y-91093572D01*
X83459450Y-91072900D01*
X83430587Y-91046267D01*
X83420005Y-91030954D01*
X83315761Y-91030954D01*
X83311097Y-91057137D01*
X83309035Y-91061683D01*
X83303627Y-91070878D01*
X83297217Y-91078318D01*
X83288351Y-91084188D01*
X83275576Y-91088674D01*
X83257439Y-91091965D01*
X83232488Y-91094245D01*
X83199269Y-91095702D01*
X83156329Y-91096521D01*
X83102215Y-91096890D01*
X83035475Y-91096995D01*
X83033896Y-91096995D01*
X82803065Y-91097100D01*
X82816254Y-91074169D01*
X82824654Y-91058445D01*
X82830383Y-91043571D01*
X82833276Y-91027503D01*
X82833232Y-91019698D01*
X82787901Y-91019698D01*
X82787156Y-91034482D01*
X82782924Y-91040437D01*
X82781422Y-91040655D01*
X82777391Y-91034311D01*
X82775725Y-91023728D01*
X82734634Y-91023728D01*
X82726137Y-91055750D01*
X82706003Y-91080927D01*
X82705681Y-91081189D01*
X82698982Y-91086232D01*
X82691653Y-91090072D01*
X82681798Y-91092876D01*
X82667522Y-91094806D01*
X82646928Y-91096026D01*
X82618120Y-91096699D01*
X82579202Y-91096990D01*
X82528278Y-91097063D01*
X82521850Y-91097064D01*
X82468702Y-91096982D01*
X82427682Y-91096615D01*
X82396806Y-91095822D01*
X82374092Y-91094461D01*
X82357557Y-91092390D01*
X82345218Y-91089467D01*
X82335091Y-91085552D01*
X82330682Y-91083404D01*
X82298702Y-91061842D01*
X82273456Y-91032275D01*
X82253320Y-90992455D01*
X82242695Y-90961649D01*
X82233162Y-90929269D01*
X82223696Y-90895702D01*
X82215121Y-90864045D01*
X82208262Y-90837394D01*
X82203943Y-90818845D01*
X82202867Y-90812095D01*
X82209556Y-90810747D01*
X82228160Y-90809574D01*
X82256483Y-90808648D01*
X82292328Y-90808040D01*
X82333394Y-90807822D01*
X82374556Y-90807625D01*
X82410385Y-90807077D01*
X82438687Y-90806244D01*
X82457265Y-90805189D01*
X82463922Y-90803980D01*
X82462325Y-90795671D01*
X82458145Y-90777645D01*
X82452481Y-90754591D01*
X82446054Y-90730322D01*
X82440569Y-90716696D01*
X82433647Y-90710643D01*
X82422908Y-90709092D01*
X82417203Y-90709044D01*
X82400511Y-90710451D01*
X82394325Y-90716777D01*
X82396950Y-90731182D01*
X82400316Y-90740513D01*
X82407264Y-90758790D01*
X82296246Y-90756848D01*
X82185228Y-90754905D01*
X82178855Y-90721934D01*
X82177212Y-90685114D01*
X82187628Y-90655128D01*
X82209897Y-90632530D01*
X82212888Y-90630625D01*
X82219730Y-90626982D01*
X82228058Y-90624072D01*
X82239429Y-90621812D01*
X82255401Y-90620122D01*
X82277530Y-90618919D01*
X82307376Y-90618122D01*
X82346494Y-90617649D01*
X82396442Y-90617419D01*
X82458778Y-90617349D01*
X82466198Y-90617348D01*
X82697780Y-90617322D01*
X82683514Y-90635457D01*
X82671828Y-90654629D01*
X82665580Y-90677042D01*
X82664763Y-90704992D01*
X82669368Y-90740775D01*
X82679389Y-90786689D01*
X82682945Y-90800824D01*
X82691735Y-90834718D01*
X82699490Y-90864012D01*
X82705427Y-90885796D01*
X82708767Y-90897159D01*
X82708955Y-90897683D01*
X82707286Y-90900922D01*
X82698454Y-90903322D01*
X82680975Y-90904985D01*
X82653365Y-90906014D01*
X82614138Y-90906512D01*
X82580212Y-90906600D01*
X82448047Y-90906600D01*
X82452557Y-90929146D01*
X82459708Y-90962754D01*
X82465939Y-90984801D01*
X82472522Y-90997666D01*
X82480729Y-91003728D01*
X82491833Y-91005365D01*
X82493340Y-91005377D01*
X82507707Y-91004391D01*
X82512798Y-90998620D01*
X82511656Y-90983843D01*
X82511150Y-90980683D01*
X82507143Y-90955988D01*
X82723303Y-90955988D01*
X82731020Y-90986635D01*
X82734634Y-91023728D01*
X82775725Y-91023728D01*
X82774837Y-91018096D01*
X82774367Y-91005520D01*
X82772198Y-90978143D01*
X82766760Y-90951480D01*
X82764252Y-90943784D01*
X82758991Y-90927523D01*
X82751342Y-90900740D01*
X82742181Y-90866642D01*
X82732382Y-90828435D01*
X82728289Y-90811944D01*
X82718054Y-90769023D01*
X82711348Y-90737349D01*
X82707826Y-90714603D01*
X82707144Y-90698464D01*
X82708958Y-90686610D01*
X82709461Y-90684944D01*
X82716482Y-90663183D01*
X82717202Y-90688657D01*
X82719131Y-90703226D01*
X82724085Y-90728901D01*
X82731509Y-90763141D01*
X82740850Y-90803402D01*
X82751553Y-90847142D01*
X82753200Y-90853683D01*
X82767808Y-90913077D01*
X82778367Y-90959924D01*
X82785018Y-90995155D01*
X82787901Y-91019698D01*
X82833232Y-91019698D01*
X82833167Y-91008198D01*
X82829892Y-90983612D01*
X82823284Y-90951704D01*
X82813178Y-90910430D01*
X82799409Y-90857747D01*
X82798428Y-90854051D01*
X82785281Y-90804144D01*
X82775520Y-90765844D01*
X82768793Y-90737151D01*
X82764747Y-90716065D01*
X82763030Y-90700588D01*
X82763290Y-90688718D01*
X82765175Y-90678457D01*
X82766595Y-90673373D01*
X82781048Y-90645360D01*
X82797682Y-90631122D01*
X82806247Y-90626559D01*
X82816299Y-90623126D01*
X82829859Y-90620664D01*
X82848950Y-90619015D01*
X82875593Y-90618019D01*
X82911811Y-90617519D01*
X82959625Y-90617355D01*
X82973227Y-90617348D01*
X83024548Y-90617690D01*
X83069377Y-90618680D01*
X83105818Y-90620236D01*
X83131976Y-90622278D01*
X83145957Y-90624723D01*
X83146088Y-90624772D01*
X83188198Y-90647449D01*
X83220825Y-90680442D01*
X83244183Y-90723994D01*
X83250439Y-90742558D01*
X83255095Y-90758433D01*
X83036062Y-90758433D01*
X83031429Y-90733738D01*
X83026869Y-90717121D01*
X83018514Y-90710310D01*
X83002887Y-90709044D01*
X82989321Y-90709771D01*
X82981951Y-90713677D01*
X82980297Y-90723353D01*
X82983882Y-90741389D01*
X82991823Y-90769016D01*
X83004476Y-90811350D01*
X83106380Y-90814877D01*
X83150240Y-90816687D01*
X83182670Y-90819146D01*
X83206353Y-90823043D01*
X83223970Y-90829166D01*
X83238201Y-90838304D01*
X83251728Y-90851244D01*
X83259509Y-90859890D01*
X83278421Y-90887441D01*
X83294386Y-90921926D01*
X83306521Y-90959744D01*
X83313941Y-90997288D01*
X83315761Y-91030954D01*
X83420005Y-91030954D01*
X83406966Y-91012086D01*
X83392628Y-90976236D01*
X83392428Y-90975391D01*
X83387931Y-90955988D01*
X83606519Y-90955988D01*
X83612419Y-90978919D01*
X83619088Y-90995415D01*
X83630936Y-91002519D01*
X83640843Y-91004060D01*
X83653191Y-91005200D01*
X83660034Y-91003818D01*
X83661947Y-90997215D01*
X83659506Y-90982693D01*
X83653288Y-90957553D01*
X83651926Y-90952147D01*
X83644035Y-90920731D01*
X83362707Y-90920731D01*
X83356077Y-90927435D01*
X83352331Y-90927766D01*
X83345295Y-90921882D01*
X83338396Y-90908363D01*
X83324835Y-90876530D01*
X83309022Y-90847174D01*
X83293360Y-90824444D01*
X83284335Y-90815134D01*
X83273786Y-90805572D01*
X83273870Y-90798713D01*
X83281855Y-90790646D01*
X83289719Y-90784630D01*
X83295214Y-90785799D01*
X83300630Y-90796347D01*
X83307032Y-90814789D01*
X83318930Y-90842491D01*
X83335312Y-90871254D01*
X83343234Y-90882599D01*
X83358402Y-90905669D01*
X83362707Y-90920731D01*
X83644035Y-90920731D01*
X83640485Y-90906600D01*
X83554912Y-90906560D01*
X83507123Y-90905809D01*
X83470807Y-90903206D01*
X83443378Y-90898149D01*
X83422254Y-90890036D01*
X83404850Y-90878267D01*
X83395336Y-90869420D01*
X83369938Y-90837393D01*
X83349447Y-90799335D01*
X83334791Y-90758553D01*
X83326897Y-90718355D01*
X83326696Y-90682048D01*
X83334754Y-90653623D01*
X83340150Y-90644218D01*
X83346586Y-90636593D01*
X83355497Y-90630562D01*
X83368324Y-90625939D01*
X83386502Y-90622537D01*
X83411470Y-90620170D01*
X83444665Y-90618651D01*
X83487525Y-90617794D01*
X83541488Y-90617413D01*
X83607992Y-90617322D01*
X83614814Y-90617322D01*
X83678261Y-90617362D01*
X83728924Y-90617529D01*
X83768128Y-90617892D01*
X83797199Y-90618523D01*
X83817463Y-90619489D01*
X83830247Y-90620863D01*
X83836877Y-90622713D01*
X83838678Y-90625110D01*
X83836976Y-90628124D01*
X83836141Y-90629000D01*
X83824336Y-90643367D01*
X83816513Y-90660073D01*
X83812752Y-90680826D01*
X83813135Y-90707338D01*
X83817743Y-90741319D01*
X83826656Y-90784480D01*
X83839957Y-90838529D01*
X83847429Y-90866986D01*
X83861572Y-90921498D01*
X83871596Y-90964399D01*
X83877560Y-90997559D01*
X83879519Y-91022849D01*
X83923983Y-91022849D01*
X83924422Y-91018250D01*
X83922734Y-91005357D01*
X83918026Y-90981234D01*
X83910831Y-90948310D01*
X83901684Y-90909012D01*
X83891119Y-90865768D01*
X83889144Y-90857898D01*
X83878402Y-90814395D01*
X83868978Y-90774591D01*
X83861404Y-90740867D01*
X83856210Y-90715600D01*
X83853927Y-90701172D01*
X83853867Y-90699875D01*
X83858342Y-90682626D01*
X83869332Y-90663662D01*
X83871506Y-90660942D01*
X83883782Y-90639486D01*
X83889115Y-90615481D01*
X83886899Y-90594045D01*
X83880678Y-90583455D01*
X83874284Y-90581070D01*
X83859699Y-90579127D01*
X83835968Y-90577597D01*
X83802134Y-90576450D01*
X83757244Y-90575653D01*
X83700340Y-90575178D01*
X83630467Y-90574993D01*
X83615397Y-90574988D01*
X83543052Y-90575038D01*
X83483458Y-90575337D01*
X83435254Y-90576108D01*
X83397078Y-90577573D01*
X83367571Y-90579956D01*
X83345371Y-90583480D01*
X83329117Y-90588368D01*
X83317449Y-90594842D01*
X83309007Y-90603126D01*
X83302429Y-90613442D01*
X83296354Y-90626014D01*
X83295738Y-90627370D01*
X83287609Y-90647986D01*
X83282944Y-90665072D01*
X83282522Y-90669023D01*
X83279684Y-90673169D01*
X83270969Y-90665970D01*
X83259193Y-90651535D01*
X83238881Y-90629517D01*
X83213657Y-90608146D01*
X83201560Y-90599834D01*
X83167101Y-90578516D01*
X82988394Y-90576413D01*
X82932967Y-90575832D01*
X82889718Y-90575625D01*
X82856719Y-90575901D01*
X82832039Y-90576770D01*
X82813749Y-90578341D01*
X82799918Y-90580724D01*
X82788617Y-90584028D01*
X82777944Y-90588351D01*
X82758914Y-90596458D01*
X82748628Y-90598843D01*
X82742926Y-90595497D01*
X82738645Y-90588269D01*
X82736343Y-90584710D01*
X82732730Y-90581811D01*
X82726470Y-90579509D01*
X82716225Y-90577743D01*
X82700658Y-90576450D01*
X82678431Y-90575567D01*
X82648208Y-90575032D01*
X82608652Y-90574783D01*
X82558424Y-90574757D01*
X82496189Y-90574892D01*
X82454630Y-90575018D01*
X82390851Y-90575203D01*
X82329249Y-90575350D01*
X82271779Y-90575459D01*
X82220396Y-90575525D01*
X82177056Y-90575547D01*
X82143713Y-90575523D01*
X82122324Y-90575449D01*
X82120870Y-90575438D01*
X82063567Y-90574988D01*
X82041041Y-90488558D01*
X82028261Y-90443286D01*
X82017037Y-90411629D01*
X82007223Y-90393196D01*
X82004076Y-90389780D01*
X81997061Y-90385177D01*
X81986987Y-90381861D01*
X81971661Y-90379630D01*
X81948894Y-90378283D01*
X81916496Y-90377618D01*
X81872277Y-90377433D01*
X81870010Y-90377433D01*
X81829524Y-90377825D01*
X81829524Y-90377825D01*
G37*
X81829524Y-90377825D02*
X81793332Y-90378911D01*
X81764068Y-90380553D01*
X81744366Y-90382616D01*
X81737548Y-90384302D01*
X81726449Y-90394165D01*
X81720981Y-90410094D01*
X81721082Y-90433972D01*
X81726692Y-90467682D01*
X81733879Y-90498195D01*
X81741035Y-90528014D01*
X81746140Y-90552451D01*
X81748611Y-90568496D01*
X81748401Y-90573195D01*
X81740788Y-90573952D01*
X81720597Y-90574590D01*
X81689360Y-90575097D01*
X81648609Y-90575459D01*
X81599877Y-90575665D01*
X81544695Y-90575702D01*
X81484596Y-90575558D01*
X81467351Y-90575484D01*
X81383084Y-90575302D01*
X81312653Y-90575603D01*
X81256112Y-90576388D01*
X81213513Y-90577655D01*
X81184908Y-90579403D01*
X81170350Y-90581630D01*
X81169878Y-90581797D01*
X81149856Y-90585651D01*
X81141327Y-90582311D01*
X81132419Y-90580825D01*
X81109629Y-90579506D01*
X81073185Y-90578358D01*
X81023315Y-90577383D01*
X80960247Y-90576586D01*
X80884209Y-90575968D01*
X80795430Y-90575533D01*
X80694136Y-90575283D01*
X80601862Y-90575219D01*
X80500576Y-90575206D01*
X80412430Y-90575214D01*
X80336452Y-90575312D01*
X80271671Y-90575568D01*
X80217116Y-90576053D01*
X80171816Y-90576834D01*
X80134799Y-90577982D01*
X80105095Y-90579565D01*
X80081731Y-90581653D01*
X80063737Y-90584314D01*
X80050141Y-90587618D01*
X80039972Y-90591634D01*
X80032259Y-90596431D01*
X80026030Y-90602078D01*
X80020314Y-90608644D01*
X80014140Y-90616199D01*
X80013384Y-90617102D01*
X79997983Y-90641953D01*
X79990349Y-90671946D01*
X79990318Y-90709193D01*
X79997731Y-90755801D01*
X80001467Y-90772283D01*
X80016118Y-90832051D01*
X80031151Y-90890697D01*
X80046085Y-90946564D01*
X80060440Y-90998000D01*
X80073736Y-91043349D01*
X80085493Y-91080957D01*
X80095230Y-91109171D01*
X80102469Y-91126336D01*
X80105483Y-91130698D01*
X80111928Y-91133115D01*
X80124878Y-91135028D01*
X80145469Y-91136467D01*
X80174836Y-91137461D01*
X80214113Y-91138039D01*
X80264435Y-91138231D01*
X80326937Y-91138065D01*
X80378437Y-91137753D01*
X80639524Y-91135905D01*
X80650376Y-91116490D01*
X80653897Y-91109089D01*
X80655769Y-91100705D01*
X80655708Y-91092869D01*
X80615367Y-91092869D01*
X80608715Y-91094328D01*
X80590371Y-91095567D01*
X80562754Y-91096491D01*
X80528282Y-91097005D01*
X80507769Y-91097079D01*
X80400172Y-91097058D01*
X80362075Y-90954204D01*
X80344903Y-90889637D01*
X80331021Y-90837384D01*
X80319954Y-90796156D01*
X80311228Y-90764667D01*
X80304367Y-90741630D01*
X80298897Y-90725758D01*
X80294342Y-90715765D01*
X80290229Y-90710363D01*
X80286081Y-90708266D01*
X80281425Y-90708186D01*
X80275785Y-90708837D01*
X80271608Y-90709044D01*
X80254349Y-90710987D01*
X80250056Y-90716990D01*
X80250330Y-90717863D01*
X80253008Y-90726912D01*
X80258733Y-90747622D01*
X80266969Y-90778006D01*
X80277180Y-90816077D01*
X80288830Y-90859847D01*
X80297468Y-90892488D01*
X80310004Y-90939807D01*
X80321662Y-90983510D01*
X80331861Y-91021440D01*
X80340019Y-91051439D01*
X80345554Y-91071353D01*
X80347472Y-91077874D01*
X80353701Y-91097455D01*
X80243491Y-91095513D01*
X80133281Y-91093572D01*
X80084821Y-90913655D01*
X80068122Y-90850914D01*
X80055159Y-90800159D01*
X80045677Y-90759841D01*
X80039419Y-90728412D01*
X80036131Y-90704322D01*
X80035557Y-90686023D01*
X80037442Y-90671967D01*
X80041529Y-90660603D01*
X80042691Y-90658324D01*
X80048838Y-90647631D01*
X80055642Y-90638979D01*
X80064573Y-90632152D01*
X80077100Y-90626933D01*
X80094690Y-90623108D01*
X80118813Y-90620460D01*
X80150938Y-90618773D01*
X80192532Y-90617832D01*
X80245065Y-90617420D01*
X80310005Y-90617323D01*
X80321648Y-90617322D01*
X80551391Y-90617322D01*
X80538035Y-90640252D01*
X80528472Y-90658543D01*
X80522429Y-90676255D01*
X80520021Y-90695776D01*
X80521364Y-90719492D01*
X80526572Y-90749791D01*
X80535760Y-90789059D01*
X80547329Y-90833301D01*
X80565824Y-90902361D01*
X80580909Y-90958856D01*
X80592861Y-91003843D01*
X80601958Y-91038378D01*
X80608477Y-91063517D01*
X80612693Y-91080316D01*
X80614885Y-91089832D01*
X80615367Y-91092869D01*
X80655708Y-91092869D01*
X80655679Y-91089303D01*
X80653313Y-91072851D01*
X80648357Y-91049313D01*
X80640500Y-91016655D01*
X80629426Y-90972844D01*
X80626466Y-90961268D01*
X80615614Y-90918859D01*
X80605826Y-90880591D01*
X80597694Y-90848773D01*
X80591807Y-90825715D01*
X80588756Y-90813725D01*
X80588602Y-90813113D01*
X80588434Y-90808615D01*
X80591798Y-90805360D01*
X80600586Y-90803149D01*
X80616689Y-90801784D01*
X80641999Y-90801066D01*
X80678407Y-90800796D01*
X80705994Y-90800766D01*
X80826489Y-90800766D01*
X80834237Y-90830752D01*
X80839405Y-90850336D01*
X80847116Y-90879060D01*
X80856168Y-90912458D01*
X80862273Y-90934822D01*
X80872802Y-90973491D01*
X80883979Y-91014909D01*
X80894032Y-91052490D01*
X80897956Y-91067307D01*
X80908553Y-91102016D01*
X80918669Y-91124295D01*
X80926172Y-91132571D01*
X80938148Y-91135156D01*
X80961282Y-91137116D01*
X80992635Y-91138456D01*
X81029269Y-91139182D01*
X81068245Y-91139297D01*
X81106625Y-91138807D01*
X81141470Y-91137716D01*
X81169840Y-91136030D01*
X81188797Y-91133752D01*
X81194386Y-91132129D01*
X81205160Y-91119725D01*
X81208033Y-91100379D01*
X81209076Y-91090110D01*
X81165700Y-91090110D01*
X81158695Y-91093230D01*
X81137782Y-91095166D01*
X81103115Y-91095911D01*
X81058270Y-91095519D01*
X80950840Y-91093572D01*
X80907469Y-90931294D01*
X80894746Y-90883721D01*
X80882780Y-90839040D01*
X80872205Y-90799611D01*
X80863654Y-90767795D01*
X80857760Y-90745951D01*
X80855877Y-90739030D01*
X80849642Y-90720207D01*
X80842197Y-90711487D01*
X80829763Y-90709095D01*
X80825838Y-90709044D01*
X80811470Y-90710030D01*
X80806380Y-90715801D01*
X80807522Y-90730578D01*
X80808028Y-90733738D01*
X80812035Y-90758433D01*
X80703940Y-90758433D01*
X80660957Y-90758424D01*
X80630079Y-90757692D01*
X80609306Y-90755180D01*
X80596637Y-90749833D01*
X80590072Y-90740592D01*
X80587607Y-90726402D01*
X80587244Y-90706206D01*
X80587241Y-90696808D01*
X80590279Y-90671821D01*
X80601678Y-90651087D01*
X80607725Y-90643891D01*
X80628305Y-90620850D01*
X80870502Y-90618813D01*
X80936065Y-90618331D01*
X80988722Y-90618130D01*
X81029678Y-90618249D01*
X81060137Y-90618727D01*
X81081302Y-90619603D01*
X81094377Y-90620917D01*
X81100567Y-90622707D01*
X81101074Y-90625013D01*
X81099714Y-90626271D01*
X81090584Y-90638309D01*
X81081495Y-90658664D01*
X81077199Y-90672503D01*
X81074560Y-90681990D01*
X81072458Y-90689771D01*
X81071180Y-90697334D01*
X81071015Y-90706169D01*
X81072249Y-90717766D01*
X81075172Y-90733615D01*
X81080071Y-90755205D01*
X81087233Y-90784027D01*
X81096946Y-90821570D01*
X81109498Y-90869324D01*
X81125178Y-90928778D01*
X81130919Y-90950579D01*
X81141710Y-90991953D01*
X81151139Y-91028798D01*
X81158648Y-91058884D01*
X81163683Y-91079982D01*
X81165687Y-91089861D01*
X81165700Y-91090110D01*
X81209076Y-91090110D01*
X81209897Y-91082029D01*
X81216136Y-91076980D01*
X81227728Y-91084863D01*
X81233398Y-91090795D01*
X81253861Y-91109276D01*
X81278288Y-91122419D01*
X81309384Y-91131066D01*
X81349855Y-91136058D01*
X81384422Y-91137805D01*
X81465561Y-91140336D01*
X81433811Y-91118748D01*
X81409299Y-91104573D01*
X81386060Y-91098257D01*
X81364738Y-91097130D01*
X81320381Y-91090409D01*
X81280854Y-91071345D01*
X81248441Y-91041475D01*
X81226047Y-91003840D01*
X81218847Y-90986236D01*
X81215359Y-90973582D01*
X81217250Y-90965061D01*
X81226184Y-90959858D01*
X81243827Y-90957155D01*
X81271844Y-90956136D01*
X81311901Y-90955986D01*
X81323665Y-90955988D01*
X81432241Y-90955988D01*
X81436873Y-90980683D01*
X81441409Y-90997284D01*
X81449772Y-91004093D01*
X81466015Y-91005377D01*
X81477974Y-91005211D01*
X81484947Y-91003034D01*
X81487190Y-90996329D01*
X81484962Y-90982579D01*
X81478520Y-90959267D01*
X81472742Y-90939650D01*
X81465647Y-90915560D01*
X81191981Y-90915560D01*
X81186867Y-90920820D01*
X81172337Y-90927254D01*
X81165997Y-90922584D01*
X81165604Y-90918947D01*
X81163928Y-90905580D01*
X81161183Y-90892488D01*
X81156859Y-90874850D01*
X81177154Y-90894470D01*
X81189475Y-90907707D01*
X81191981Y-90915560D01*
X81465647Y-90915560D01*
X81464046Y-90910127D01*
X81366026Y-90906600D01*
X81324593Y-90904798D01*
X81294501Y-90902582D01*
X81272977Y-90899546D01*
X81257250Y-90895286D01*
X81244550Y-90889397D01*
X81243311Y-90888687D01*
X81216611Y-90866992D01*
X81193350Y-90836615D01*
X81174404Y-90800457D01*
X81160645Y-90761419D01*
X81152947Y-90722404D01*
X81152185Y-90686313D01*
X81159232Y-90656048D01*
X81168610Y-90640646D01*
X81185631Y-90620850D01*
X81426476Y-90618817D01*
X81667321Y-90616785D01*
X81655682Y-90634550D01*
X81646137Y-90650642D01*
X81639687Y-90666539D01*
X81636464Y-90684250D01*
X81636602Y-90705788D01*
X81640233Y-90733161D01*
X81647489Y-90768382D01*
X81658505Y-90813461D01*
X81670546Y-90859612D01*
X81684888Y-90914986D01*
X81695342Y-90958363D01*
X81702206Y-90991218D01*
X81705778Y-91015031D01*
X81706356Y-91031280D01*
X81705920Y-91035363D01*
X81703956Y-91052588D01*
X81707138Y-91060035D01*
X81717987Y-91061792D01*
X81722251Y-91061822D01*
X81735887Y-91059872D01*
X81745201Y-91053132D01*
X81750175Y-91040262D01*
X81750789Y-91019924D01*
X81747023Y-90990779D01*
X81738859Y-90951490D01*
X81726277Y-90900718D01*
X81719561Y-90875239D01*
X81709249Y-90836464D01*
X81700336Y-90802694D01*
X81693409Y-90776174D01*
X81689053Y-90759147D01*
X81687811Y-90753818D01*
X81694307Y-90752680D01*
X81711560Y-90751825D01*
X81736214Y-90751400D01*
X81743755Y-90751377D01*
X81799699Y-90751377D01*
X81810043Y-90788419D01*
X81815278Y-90807577D01*
X81823252Y-90837271D01*
X81833134Y-90874384D01*
X81844092Y-90915799D01*
X81852582Y-90948050D01*
X81863076Y-90987540D01*
X81872493Y-91022096D01*
X81880205Y-91049484D01*
X81885584Y-91067470D01*
X81887921Y-91073784D01*
X81896435Y-91075344D01*
X81912086Y-91074667D01*
X81933106Y-91072405D01*
X81889217Y-90910127D01*
X81876587Y-90863361D01*
X81864967Y-90820207D01*
X81854940Y-90782844D01*
X81847089Y-90753449D01*
X81841999Y-90734199D01*
X81840519Y-90728447D01*
X81835709Y-90709044D01*
X81701922Y-90709044D01*
X81701922Y-90687989D01*
X81708472Y-90661906D01*
X81726231Y-90639864D01*
X81752361Y-90624553D01*
X81774471Y-90619238D01*
X81793910Y-90615546D01*
X81805867Y-90610382D01*
X81807692Y-90607585D01*
X81805859Y-90598125D01*
X81800897Y-90577922D01*
X81793530Y-90549806D01*
X81784484Y-90516608D01*
X81783061Y-90511488D01*
X81773892Y-90478459D01*
X81766268Y-90450783D01*
X81760898Y-90431054D01*
X81758494Y-90421863D01*
X81758431Y-90421530D01*
X81765063Y-90420925D01*
X81783405Y-90420409D01*
X81811056Y-90420022D01*
X81845615Y-90419802D01*
X81867396Y-90419766D01*
X81976426Y-90419766D01*
X81982684Y-90442697D01*
X81987089Y-90458960D01*
X81994078Y-90484902D01*
X82002586Y-90516566D01*
X82009266Y-90541475D01*
X82029590Y-90617322D01*
X82145997Y-90617322D01*
X82128571Y-90643001D01*
X82117525Y-90663881D01*
X82111512Y-90684199D01*
X82111144Y-90688862D01*
X82109662Y-90702438D01*
X82102377Y-90708005D01*
X82086450Y-90709044D01*
X82069417Y-90710632D01*
X82062549Y-90716806D01*
X82061756Y-90723069D01*
X82063549Y-90734040D01*
X82068543Y-90756243D01*
X82076157Y-90787313D01*
X82085810Y-90824887D01*
X82096923Y-90866602D01*
X82097701Y-90869472D01*
X82111968Y-90923630D01*
X82121968Y-90966237D01*
X82127830Y-90999149D01*
X82129681Y-91024225D01*
X82127649Y-91043321D01*
X82121861Y-91058297D01*
X82112446Y-91071009D01*
X82111631Y-91071887D01*
X82096851Y-91087620D01*
X82121861Y-91095296D01*
X82139077Y-91099450D01*
X82149178Y-91096804D01*
X82158202Y-91085679D01*
X82158606Y-91085063D01*
X82168082Y-91065081D01*
X82172701Y-91040216D01*
X82172347Y-91008772D01*
X82166904Y-90969050D01*
X82156255Y-90919352D01*
X82143923Y-90871322D01*
X82132112Y-90826605D01*
X82124209Y-90793660D01*
X82120055Y-90770748D01*
X82119492Y-90756130D01*
X82122359Y-90748064D01*
X82128498Y-90744813D01*
X82132311Y-90744456D01*
X82137287Y-90750389D01*
X82144372Y-90765252D01*
X82151789Y-90784408D01*
X82157759Y-90803223D01*
X82160504Y-90817060D01*
X82160533Y-90818045D01*
X82162457Y-90831564D01*
X82167652Y-90855404D01*
X82175259Y-90886395D01*
X82184417Y-90921368D01*
X82194263Y-90957150D01*
X82203938Y-90990573D01*
X82212580Y-91018466D01*
X82219328Y-91037658D01*
X82221531Y-91042638D01*
X82232575Y-91059021D01*
X82249507Y-91079045D01*
X82260503Y-91090383D01*
X82276387Y-91104592D01*
X82292668Y-91115794D01*
X82311223Y-91124337D01*
X82333928Y-91130572D01*
X82362661Y-91134847D01*
X82399298Y-91137512D01*
X82445716Y-91138917D01*
X82503793Y-91139410D01*
X82523979Y-91139433D01*
X82576203Y-91139387D01*
X82616381Y-91139126D01*
X82646577Y-91138468D01*
X82668859Y-91137228D01*
X82685289Y-91135223D01*
X82697935Y-91132269D01*
X82708860Y-91128182D01*
X82720130Y-91122779D01*
X82722018Y-91121823D01*
X82743204Y-91111105D01*
X82754669Y-91106001D01*
X82759378Y-91105943D01*
X82760294Y-91110363D01*
X82760256Y-91114490D01*
X82761351Y-91120895D01*
X82765499Y-91126111D01*
X82773988Y-91130255D01*
X82788107Y-91133447D01*
X82809147Y-91135805D01*
X82838398Y-91137448D01*
X82877149Y-91138495D01*
X82926690Y-91139064D01*
X82988310Y-91139274D01*
X83029667Y-91139278D01*
X83095162Y-91139185D01*
X83148114Y-91138947D01*
X83190090Y-91138486D01*
X83222657Y-91137723D01*
X83247382Y-91136581D01*
X83265834Y-91134980D01*
X83279578Y-91132844D01*
X83290184Y-91130092D01*
X83299218Y-91126648D01*
X83301302Y-91125721D01*
X83327557Y-91108383D01*
X83345499Y-91082768D01*
X83355757Y-91052354D01*
X83360572Y-91032303D01*
X83380814Y-91060246D01*
X83414133Y-91096354D01*
X83454938Y-91121648D01*
X83473288Y-91128998D01*
X83490823Y-91132574D01*
X83519477Y-91135446D01*
X83556706Y-91137612D01*
X83599968Y-91139069D01*
X83646719Y-91139813D01*
X83694417Y-91139841D01*
X83740518Y-91139150D01*
X83782480Y-91137737D01*
X83817759Y-91135599D01*
X83843813Y-91132732D01*
X83857394Y-91129473D01*
X83887101Y-91108958D01*
X83909351Y-91078763D01*
X83922134Y-91042227D01*
X83923983Y-91022849D01*
X83879519Y-91022849D01*
X83877529Y-91042137D01*
X83871647Y-91057293D01*
X83861930Y-91070186D01*
X83853802Y-91078044D01*
X83831700Y-91097794D01*
X83660479Y-91095683D01*
X83489259Y-91093572D01*
X83459450Y-91072900D01*
X83430587Y-91046267D01*
X83420005Y-91030954D01*
X83315761Y-91030954D01*
X83311097Y-91057137D01*
X83309035Y-91061683D01*
X83303627Y-91070878D01*
X83297217Y-91078318D01*
X83288351Y-91084188D01*
X83275576Y-91088674D01*
X83257439Y-91091965D01*
X83232488Y-91094245D01*
X83199269Y-91095702D01*
X83156329Y-91096521D01*
X83102215Y-91096890D01*
X83035475Y-91096995D01*
X83033896Y-91096995D01*
X82803065Y-91097100D01*
X82816254Y-91074169D01*
X82824654Y-91058445D01*
X82830383Y-91043571D01*
X82833276Y-91027503D01*
X82833232Y-91019698D01*
X82787901Y-91019698D01*
X82787156Y-91034482D01*
X82782924Y-91040437D01*
X82781422Y-91040655D01*
X82777391Y-91034311D01*
X82775725Y-91023728D01*
X82734634Y-91023728D01*
X82726137Y-91055750D01*
X82706003Y-91080927D01*
X82705681Y-91081189D01*
X82698982Y-91086232D01*
X82691653Y-91090072D01*
X82681798Y-91092876D01*
X82667522Y-91094806D01*
X82646928Y-91096026D01*
X82618120Y-91096699D01*
X82579202Y-91096990D01*
X82528278Y-91097063D01*
X82521850Y-91097064D01*
X82468702Y-91096982D01*
X82427682Y-91096615D01*
X82396806Y-91095822D01*
X82374092Y-91094461D01*
X82357557Y-91092390D01*
X82345218Y-91089467D01*
X82335091Y-91085552D01*
X82330682Y-91083404D01*
X82298702Y-91061842D01*
X82273456Y-91032275D01*
X82253320Y-90992455D01*
X82242695Y-90961649D01*
X82233162Y-90929269D01*
X82223696Y-90895702D01*
X82215121Y-90864045D01*
X82208262Y-90837394D01*
X82203943Y-90818845D01*
X82202867Y-90812095D01*
X82209556Y-90810747D01*
X82228160Y-90809574D01*
X82256483Y-90808648D01*
X82292328Y-90808040D01*
X82333394Y-90807822D01*
X82374556Y-90807625D01*
X82410385Y-90807077D01*
X82438687Y-90806244D01*
X82457265Y-90805189D01*
X82463922Y-90803980D01*
X82462325Y-90795671D01*
X82458145Y-90777645D01*
X82452481Y-90754591D01*
X82446054Y-90730322D01*
X82440569Y-90716696D01*
X82433647Y-90710643D01*
X82422908Y-90709092D01*
X82417203Y-90709044D01*
X82400511Y-90710451D01*
X82394325Y-90716777D01*
X82396950Y-90731182D01*
X82400316Y-90740513D01*
X82407264Y-90758790D01*
X82296246Y-90756848D01*
X82185228Y-90754905D01*
X82178855Y-90721934D01*
X82177212Y-90685114D01*
X82187628Y-90655128D01*
X82209897Y-90632530D01*
X82212888Y-90630625D01*
X82219730Y-90626982D01*
X82228058Y-90624072D01*
X82239429Y-90621812D01*
X82255401Y-90620122D01*
X82277530Y-90618919D01*
X82307376Y-90618122D01*
X82346494Y-90617649D01*
X82396442Y-90617419D01*
X82458778Y-90617349D01*
X82466198Y-90617348D01*
X82697780Y-90617322D01*
X82683514Y-90635457D01*
X82671828Y-90654629D01*
X82665580Y-90677042D01*
X82664763Y-90704992D01*
X82669368Y-90740775D01*
X82679389Y-90786689D01*
X82682945Y-90800824D01*
X82691735Y-90834718D01*
X82699490Y-90864012D01*
X82705427Y-90885796D01*
X82708767Y-90897159D01*
X82708955Y-90897683D01*
X82707286Y-90900922D01*
X82698454Y-90903322D01*
X82680975Y-90904985D01*
X82653365Y-90906014D01*
X82614138Y-90906512D01*
X82580212Y-90906600D01*
X82448047Y-90906600D01*
X82452557Y-90929146D01*
X82459708Y-90962754D01*
X82465939Y-90984801D01*
X82472522Y-90997666D01*
X82480729Y-91003728D01*
X82491833Y-91005365D01*
X82493340Y-91005377D01*
X82507707Y-91004391D01*
X82512798Y-90998620D01*
X82511656Y-90983843D01*
X82511150Y-90980683D01*
X82507143Y-90955988D01*
X82723303Y-90955988D01*
X82731020Y-90986635D01*
X82734634Y-91023728D01*
X82775725Y-91023728D01*
X82774837Y-91018096D01*
X82774367Y-91005520D01*
X82772198Y-90978143D01*
X82766760Y-90951480D01*
X82764252Y-90943784D01*
X82758991Y-90927523D01*
X82751342Y-90900740D01*
X82742181Y-90866642D01*
X82732382Y-90828435D01*
X82728289Y-90811944D01*
X82718054Y-90769023D01*
X82711348Y-90737349D01*
X82707826Y-90714603D01*
X82707144Y-90698464D01*
X82708958Y-90686610D01*
X82709461Y-90684944D01*
X82716482Y-90663183D01*
X82717202Y-90688657D01*
X82719131Y-90703226D01*
X82724085Y-90728901D01*
X82731509Y-90763141D01*
X82740850Y-90803402D01*
X82751553Y-90847142D01*
X82753200Y-90853683D01*
X82767808Y-90913077D01*
X82778367Y-90959924D01*
X82785018Y-90995155D01*
X82787901Y-91019698D01*
X82833232Y-91019698D01*
X82833167Y-91008198D01*
X82829892Y-90983612D01*
X82823284Y-90951704D01*
X82813178Y-90910430D01*
X82799409Y-90857747D01*
X82798428Y-90854051D01*
X82785281Y-90804144D01*
X82775520Y-90765844D01*
X82768793Y-90737151D01*
X82764747Y-90716065D01*
X82763030Y-90700588D01*
X82763290Y-90688718D01*
X82765175Y-90678457D01*
X82766595Y-90673373D01*
X82781048Y-90645360D01*
X82797682Y-90631122D01*
X82806247Y-90626559D01*
X82816299Y-90623126D01*
X82829859Y-90620664D01*
X82848950Y-90619015D01*
X82875593Y-90618019D01*
X82911811Y-90617519D01*
X82959625Y-90617355D01*
X82973227Y-90617348D01*
X83024548Y-90617690D01*
X83069377Y-90618680D01*
X83105818Y-90620236D01*
X83131976Y-90622278D01*
X83145957Y-90624723D01*
X83146088Y-90624772D01*
X83188198Y-90647449D01*
X83220825Y-90680442D01*
X83244183Y-90723994D01*
X83250439Y-90742558D01*
X83255095Y-90758433D01*
X83036062Y-90758433D01*
X83031429Y-90733738D01*
X83026869Y-90717121D01*
X83018514Y-90710310D01*
X83002887Y-90709044D01*
X82989321Y-90709771D01*
X82981951Y-90713677D01*
X82980297Y-90723353D01*
X82983882Y-90741389D01*
X82991823Y-90769016D01*
X83004476Y-90811350D01*
X83106380Y-90814877D01*
X83150240Y-90816687D01*
X83182670Y-90819146D01*
X83206353Y-90823043D01*
X83223970Y-90829166D01*
X83238201Y-90838304D01*
X83251728Y-90851244D01*
X83259509Y-90859890D01*
X83278421Y-90887441D01*
X83294386Y-90921926D01*
X83306521Y-90959744D01*
X83313941Y-90997288D01*
X83315761Y-91030954D01*
X83420005Y-91030954D01*
X83406966Y-91012086D01*
X83392628Y-90976236D01*
X83392428Y-90975391D01*
X83387931Y-90955988D01*
X83606519Y-90955988D01*
X83612419Y-90978919D01*
X83619088Y-90995415D01*
X83630936Y-91002519D01*
X83640843Y-91004060D01*
X83653191Y-91005200D01*
X83660034Y-91003818D01*
X83661947Y-90997215D01*
X83659506Y-90982693D01*
X83653288Y-90957553D01*
X83651926Y-90952147D01*
X83644035Y-90920731D01*
X83362707Y-90920731D01*
X83356077Y-90927435D01*
X83352331Y-90927766D01*
X83345295Y-90921882D01*
X83338396Y-90908363D01*
X83324835Y-90876530D01*
X83309022Y-90847174D01*
X83293360Y-90824444D01*
X83284335Y-90815134D01*
X83273786Y-90805572D01*
X83273870Y-90798713D01*
X83281855Y-90790646D01*
X83289719Y-90784630D01*
X83295214Y-90785799D01*
X83300630Y-90796347D01*
X83307032Y-90814789D01*
X83318930Y-90842491D01*
X83335312Y-90871254D01*
X83343234Y-90882599D01*
X83358402Y-90905669D01*
X83362707Y-90920731D01*
X83644035Y-90920731D01*
X83640485Y-90906600D01*
X83554912Y-90906560D01*
X83507123Y-90905809D01*
X83470807Y-90903206D01*
X83443378Y-90898149D01*
X83422254Y-90890036D01*
X83404850Y-90878267D01*
X83395336Y-90869420D01*
X83369938Y-90837393D01*
X83349447Y-90799335D01*
X83334791Y-90758553D01*
X83326897Y-90718355D01*
X83326696Y-90682048D01*
X83334754Y-90653623D01*
X83340150Y-90644218D01*
X83346586Y-90636593D01*
X83355497Y-90630562D01*
X83368324Y-90625939D01*
X83386502Y-90622537D01*
X83411470Y-90620170D01*
X83444665Y-90618651D01*
X83487525Y-90617794D01*
X83541488Y-90617413D01*
X83607992Y-90617322D01*
X83614814Y-90617322D01*
X83678261Y-90617362D01*
X83728924Y-90617529D01*
X83768128Y-90617892D01*
X83797199Y-90618523D01*
X83817463Y-90619489D01*
X83830247Y-90620863D01*
X83836877Y-90622713D01*
X83838678Y-90625110D01*
X83836976Y-90628124D01*
X83836141Y-90629000D01*
X83824336Y-90643367D01*
X83816513Y-90660073D01*
X83812752Y-90680826D01*
X83813135Y-90707338D01*
X83817743Y-90741319D01*
X83826656Y-90784480D01*
X83839957Y-90838529D01*
X83847429Y-90866986D01*
X83861572Y-90921498D01*
X83871596Y-90964399D01*
X83877560Y-90997559D01*
X83879519Y-91022849D01*
X83923983Y-91022849D01*
X83924422Y-91018250D01*
X83922734Y-91005357D01*
X83918026Y-90981234D01*
X83910831Y-90948310D01*
X83901684Y-90909012D01*
X83891119Y-90865768D01*
X83889144Y-90857898D01*
X83878402Y-90814395D01*
X83868978Y-90774591D01*
X83861404Y-90740867D01*
X83856210Y-90715600D01*
X83853927Y-90701172D01*
X83853867Y-90699875D01*
X83858342Y-90682626D01*
X83869332Y-90663662D01*
X83871506Y-90660942D01*
X83883782Y-90639486D01*
X83889115Y-90615481D01*
X83886899Y-90594045D01*
X83880678Y-90583455D01*
X83874284Y-90581070D01*
X83859699Y-90579127D01*
X83835968Y-90577597D01*
X83802134Y-90576450D01*
X83757244Y-90575653D01*
X83700340Y-90575178D01*
X83630467Y-90574993D01*
X83615397Y-90574988D01*
X83543052Y-90575038D01*
X83483458Y-90575337D01*
X83435254Y-90576108D01*
X83397078Y-90577573D01*
X83367571Y-90579956D01*
X83345371Y-90583480D01*
X83329117Y-90588368D01*
X83317449Y-90594842D01*
X83309007Y-90603126D01*
X83302429Y-90613442D01*
X83296354Y-90626014D01*
X83295738Y-90627370D01*
X83287609Y-90647986D01*
X83282944Y-90665072D01*
X83282522Y-90669023D01*
X83279684Y-90673169D01*
X83270969Y-90665970D01*
X83259193Y-90651535D01*
X83238881Y-90629517D01*
X83213657Y-90608146D01*
X83201560Y-90599834D01*
X83167101Y-90578516D01*
X82988394Y-90576413D01*
X82932967Y-90575832D01*
X82889718Y-90575625D01*
X82856719Y-90575901D01*
X82832039Y-90576770D01*
X82813749Y-90578341D01*
X82799918Y-90580724D01*
X82788617Y-90584028D01*
X82777944Y-90588351D01*
X82758914Y-90596458D01*
X82748628Y-90598843D01*
X82742926Y-90595497D01*
X82738645Y-90588269D01*
X82736343Y-90584710D01*
X82732730Y-90581811D01*
X82726470Y-90579509D01*
X82716225Y-90577743D01*
X82700658Y-90576450D01*
X82678431Y-90575567D01*
X82648208Y-90575032D01*
X82608652Y-90574783D01*
X82558424Y-90574757D01*
X82496189Y-90574892D01*
X82454630Y-90575018D01*
X82390851Y-90575203D01*
X82329249Y-90575350D01*
X82271779Y-90575459D01*
X82220396Y-90575525D01*
X82177056Y-90575547D01*
X82143713Y-90575523D01*
X82122324Y-90575449D01*
X82120870Y-90575438D01*
X82063567Y-90574988D01*
X82041041Y-90488558D01*
X82028261Y-90443286D01*
X82017037Y-90411629D01*
X82007223Y-90393196D01*
X82004076Y-90389780D01*
X81997061Y-90385177D01*
X81986987Y-90381861D01*
X81971661Y-90379630D01*
X81948894Y-90378283D01*
X81916496Y-90377618D01*
X81872277Y-90377433D01*
X81870010Y-90377433D01*
X81829524Y-90377825D01*
G36*
X82789157Y-91760690D02*
X82747507Y-91761789D01*
X82719599Y-91763613D01*
X82705574Y-91766153D01*
X82703811Y-91767691D01*
X82705434Y-91777921D01*
X82709675Y-91797463D01*
X82715252Y-91820608D01*
X82726693Y-91866155D01*
X83050334Y-91866155D01*
X83039350Y-91850474D01*
X83031007Y-91834721D01*
X83028367Y-91823859D01*
X83024118Y-91812224D01*
X83013354Y-91795244D01*
X83006686Y-91786624D01*
X82985006Y-91760322D01*
X82844409Y-91760322D01*
X82789157Y-91760690D01*
X82789157Y-91760690D01*
G37*
X82789157Y-91760690D02*
X82747507Y-91761789D01*
X82719599Y-91763613D01*
X82705574Y-91766153D01*
X82703811Y-91767691D01*
X82705434Y-91777921D01*
X82709675Y-91797463D01*
X82715252Y-91820608D01*
X82726693Y-91866155D01*
X83050334Y-91866155D01*
X83039350Y-91850474D01*
X83031007Y-91834721D01*
X83028367Y-91823859D01*
X83024118Y-91812224D01*
X83013354Y-91795244D01*
X83006686Y-91786624D01*
X82985006Y-91760322D01*
X82844409Y-91760322D01*
X82789157Y-91760690D01*
G36*
X83667546Y-91787513D02*
X83651647Y-91808477D01*
X83630767Y-91830841D01*
X83620326Y-91840429D01*
X83590271Y-91866155D01*
X84001134Y-91866155D01*
X83987473Y-91816855D01*
X83980798Y-91792303D01*
X83975931Y-91773518D01*
X83973832Y-91764214D01*
X83973811Y-91763939D01*
X83967104Y-91762852D01*
X83948372Y-91761896D01*
X83919703Y-91761122D01*
X83883184Y-91760584D01*
X83840902Y-91760333D01*
X83829261Y-91760322D01*
X83684710Y-91760322D01*
X83667546Y-91787513D01*
X83667546Y-91787513D01*
G37*
X83667546Y-91787513D02*
X83651647Y-91808477D01*
X83630767Y-91830841D01*
X83620326Y-91840429D01*
X83590271Y-91866155D01*
X84001134Y-91866155D01*
X83987473Y-91816855D01*
X83980798Y-91792303D01*
X83975931Y-91773518D01*
X83973832Y-91764214D01*
X83973811Y-91763939D01*
X83967104Y-91762852D01*
X83948372Y-91761896D01*
X83919703Y-91761122D01*
X83883184Y-91760584D01*
X83840902Y-91760333D01*
X83829261Y-91760322D01*
X83684710Y-91760322D01*
X83667546Y-91787513D01*
G36*
X82622130Y-91734846D02*
X82626202Y-91752273D01*
X82632477Y-91776919D01*
X82640095Y-91805614D01*
X82648199Y-91835193D01*
X82655928Y-91862485D01*
X82662424Y-91884323D01*
X82666826Y-91897539D01*
X82667687Y-91899495D01*
X82674383Y-91903432D01*
X82687532Y-91898703D01*
X82695175Y-91894307D01*
X82709790Y-91884963D01*
X82717467Y-91879161D01*
X82717813Y-91878606D01*
X82716047Y-91871435D01*
X82711420Y-91853848D01*
X82704777Y-91829045D01*
X82701459Y-91816766D01*
X82693363Y-91787877D01*
X82686702Y-91769280D01*
X82679354Y-91757613D01*
X82669193Y-91749512D01*
X82654096Y-91741617D01*
X82653944Y-91741543D01*
X82635673Y-91733048D01*
X82623642Y-91728243D01*
X82621121Y-91727806D01*
X82622130Y-91734846D01*
X82622130Y-91734846D01*
G37*
X82622130Y-91734846D02*
X82626202Y-91752273D01*
X82632477Y-91776919D01*
X82640095Y-91805614D01*
X82648199Y-91835193D01*
X82655928Y-91862485D01*
X82662424Y-91884323D01*
X82666826Y-91897539D01*
X82667687Y-91899495D01*
X82674383Y-91903432D01*
X82687532Y-91898703D01*
X82695175Y-91894307D01*
X82709790Y-91884963D01*
X82717467Y-91879161D01*
X82717813Y-91878606D01*
X82716047Y-91871435D01*
X82711420Y-91853848D01*
X82704777Y-91829045D01*
X82701459Y-91816766D01*
X82693363Y-91787877D01*
X82686702Y-91769280D01*
X82679354Y-91757613D01*
X82669193Y-91749512D01*
X82654096Y-91741617D01*
X82653944Y-91741543D01*
X82635673Y-91733048D01*
X82623642Y-91728243D01*
X82621121Y-91727806D01*
X82622130Y-91734846D01*
G36*
X81307193Y-91670797D02*
X81306811Y-91671682D01*
X81308559Y-91679107D01*
X81313446Y-91698120D01*
X81320936Y-91726685D01*
X81330496Y-91762766D01*
X81341589Y-91804326D01*
X81345617Y-91819350D01*
X81357117Y-91862380D01*
X81367263Y-91900692D01*
X81375519Y-91932233D01*
X81381350Y-91954948D01*
X81384217Y-91966785D01*
X81384422Y-91967963D01*
X81390641Y-91970605D01*
X81405965Y-91971946D01*
X81409592Y-91971988D01*
X81426153Y-91970801D01*
X81431783Y-91966054D01*
X81430856Y-91959641D01*
X81427878Y-91949207D01*
X81421898Y-91927463D01*
X81413548Y-91896732D01*
X81403459Y-91859340D01*
X81392263Y-91817611D01*
X81391239Y-91813786D01*
X81380046Y-91772313D01*
X81369916Y-91735486D01*
X81361467Y-91705491D01*
X81355315Y-91684515D01*
X81352078Y-91674745D01*
X81351920Y-91674438D01*
X81344065Y-91670883D01*
X81329830Y-91668837D01*
X81315458Y-91668681D01*
X81307193Y-91670797D01*
X81307193Y-91670797D01*
G37*
X81307193Y-91670797D02*
X81306811Y-91671682D01*
X81308559Y-91679107D01*
X81313446Y-91698120D01*
X81320936Y-91726685D01*
X81330496Y-91762766D01*
X81341589Y-91804326D01*
X81345617Y-91819350D01*
X81357117Y-91862380D01*
X81367263Y-91900692D01*
X81375519Y-91932233D01*
X81381350Y-91954948D01*
X81384217Y-91966785D01*
X81384422Y-91967963D01*
X81390641Y-91970605D01*
X81405965Y-91971946D01*
X81409592Y-91971988D01*
X81426153Y-91970801D01*
X81431783Y-91966054D01*
X81430856Y-91959641D01*
X81427878Y-91949207D01*
X81421898Y-91927463D01*
X81413548Y-91896732D01*
X81403459Y-91859340D01*
X81392263Y-91817611D01*
X81391239Y-91813786D01*
X81380046Y-91772313D01*
X81369916Y-91735486D01*
X81361467Y-91705491D01*
X81355315Y-91684515D01*
X81352078Y-91674745D01*
X81351920Y-91674438D01*
X81344065Y-91670883D01*
X81329830Y-91668837D01*
X81315458Y-91668681D01*
X81307193Y-91670797D01*
G36*
X81934716Y-91716123D02*
X81940888Y-91740003D01*
X81944675Y-91757924D01*
X81945305Y-91766204D01*
X81945227Y-91766313D01*
X81937170Y-91765987D01*
X81919288Y-91761669D01*
X81894924Y-91754436D01*
X81867421Y-91745368D01*
X81840123Y-91735543D01*
X81816373Y-91726038D01*
X81806484Y-91721556D01*
X81772395Y-91705111D01*
X81703645Y-91733351D01*
X81668439Y-91747584D01*
X81631919Y-91761976D01*
X81599868Y-91774260D01*
X81587824Y-91778723D01*
X81559396Y-91789282D01*
X81532130Y-91799758D01*
X81514033Y-91807021D01*
X81487312Y-91818185D01*
X81661478Y-91874520D01*
X81835643Y-91930854D01*
X81855790Y-91916509D01*
X81875908Y-91904599D01*
X81901844Y-91892376D01*
X81928728Y-91881809D01*
X81951691Y-91874864D01*
X81962967Y-91873211D01*
X81973234Y-91877440D01*
X81980929Y-91891885D01*
X81984253Y-91903197D01*
X81992231Y-91933381D01*
X81998461Y-91952534D01*
X82004597Y-91963318D01*
X82012293Y-91968398D01*
X82023204Y-91970437D01*
X82026216Y-91970743D01*
X82041845Y-91971123D01*
X82046929Y-91966802D01*
X82045985Y-91960160D01*
X82043121Y-91949643D01*
X82037207Y-91927771D01*
X82028855Y-91896819D01*
X82018680Y-91859058D01*
X82007294Y-91816762D01*
X82004922Y-91807947D01*
X81967435Y-91668600D01*
X81921538Y-91668600D01*
X81934716Y-91716123D01*
X81934716Y-91716123D01*
G37*
X81934716Y-91716123D02*
X81940888Y-91740003D01*
X81944675Y-91757924D01*
X81945305Y-91766204D01*
X81945227Y-91766313D01*
X81937170Y-91765987D01*
X81919288Y-91761669D01*
X81894924Y-91754436D01*
X81867421Y-91745368D01*
X81840123Y-91735543D01*
X81816373Y-91726038D01*
X81806484Y-91721556D01*
X81772395Y-91705111D01*
X81703645Y-91733351D01*
X81668439Y-91747584D01*
X81631919Y-91761976D01*
X81599868Y-91774260D01*
X81587824Y-91778723D01*
X81559396Y-91789282D01*
X81532130Y-91799758D01*
X81514033Y-91807021D01*
X81487312Y-91818185D01*
X81661478Y-91874520D01*
X81835643Y-91930854D01*
X81855790Y-91916509D01*
X81875908Y-91904599D01*
X81901844Y-91892376D01*
X81928728Y-91881809D01*
X81951691Y-91874864D01*
X81962967Y-91873211D01*
X81973234Y-91877440D01*
X81980929Y-91891885D01*
X81984253Y-91903197D01*
X81992231Y-91933381D01*
X81998461Y-91952534D01*
X82004597Y-91963318D01*
X82012293Y-91968398D01*
X82023204Y-91970437D01*
X82026216Y-91970743D01*
X82041845Y-91971123D01*
X82046929Y-91966802D01*
X82045985Y-91960160D01*
X82043121Y-91949643D01*
X82037207Y-91927771D01*
X82028855Y-91896819D01*
X82018680Y-91859058D01*
X82007294Y-91816762D01*
X82004922Y-91807947D01*
X81967435Y-91668600D01*
X81921538Y-91668600D01*
X81934716Y-91716123D01*
G36*
X83258907Y-91489225D02*
X83255690Y-91514457D01*
X83251571Y-91534446D01*
X83247701Y-91544390D01*
X83243488Y-91555689D01*
X83240037Y-91575812D01*
X83238692Y-91591031D01*
X83236199Y-91614986D01*
X83231180Y-91628840D01*
X83222145Y-91636568D01*
X83221502Y-91636894D01*
X83212435Y-91642434D01*
X83210095Y-91649646D01*
X83213952Y-91663182D01*
X83217478Y-91672344D01*
X83225835Y-91690816D01*
X83233456Y-91703143D01*
X83235352Y-91704977D01*
X83239785Y-91714353D01*
X83242556Y-91732231D01*
X83242903Y-91739328D01*
X83240089Y-91764818D01*
X83229973Y-91778308D01*
X83212142Y-91780114D01*
X83196116Y-91775128D01*
X83175363Y-91769226D01*
X83148451Y-91764952D01*
X83134200Y-91763835D01*
X83108054Y-91760322D01*
X83074101Y-91752418D01*
X83037474Y-91741363D01*
X83028367Y-91738205D01*
X82961339Y-91714279D01*
X83005436Y-91758336D01*
X83031557Y-91786655D01*
X83046209Y-91807901D01*
X83049533Y-91819006D01*
X83055590Y-91835768D01*
X83072609Y-91856147D01*
X83077756Y-91860954D01*
X83096381Y-91880397D01*
X83104817Y-91897334D01*
X83105978Y-91907556D01*
X83103818Y-91924068D01*
X83098807Y-91933254D01*
X83093982Y-91940596D01*
X83100549Y-91947102D01*
X83115847Y-91950647D01*
X83120786Y-91950822D01*
X83140768Y-91954097D01*
X83163818Y-91962211D01*
X83168885Y-91964631D01*
X83186483Y-91972028D01*
X83198683Y-91974281D01*
X83200931Y-91973461D01*
X83208164Y-91973733D01*
X83216448Y-91983444D01*
X83223198Y-91998397D01*
X83225837Y-92013906D01*
X83222311Y-92030849D01*
X83213509Y-92052626D01*
X83208607Y-92061947D01*
X83199264Y-92079150D01*
X83194319Y-92089996D01*
X83194165Y-92091933D01*
X83199797Y-92087052D01*
X83200892Y-92085420D01*
X83210026Y-92079655D01*
X83226673Y-92074568D01*
X83227767Y-92074343D01*
X83273632Y-92062957D01*
X83313240Y-92048767D01*
X83343857Y-92032915D01*
X83361089Y-92018622D01*
X83379839Y-91996683D01*
X83383745Y-92014322D01*
X83389164Y-92037743D01*
X83392160Y-92047658D01*
X83392961Y-92044420D01*
X83391795Y-92028383D01*
X83391616Y-92026479D01*
X83390229Y-92006566D01*
X83391703Y-91997830D01*
X83396968Y-91997471D01*
X83400656Y-91999208D01*
X83419121Y-92005504D01*
X83443827Y-92009839D01*
X83469324Y-92011713D01*
X83490162Y-92010629D01*
X83498535Y-92008154D01*
X83512188Y-92003747D01*
X83534770Y-91999465D01*
X83558512Y-91996540D01*
X83605352Y-91992200D01*
X83577674Y-91966219D01*
X83555147Y-91939319D01*
X83545972Y-91914925D01*
X83544737Y-91902756D01*
X83546638Y-91892407D01*
X83553409Y-91881120D01*
X83566780Y-91866134D01*
X83588486Y-91844688D01*
X83592465Y-91840842D01*
X83615424Y-91817741D01*
X83635323Y-91796017D01*
X83649285Y-91778892D01*
X83653355Y-91772669D01*
X83659734Y-91759239D01*
X83658305Y-91754067D01*
X83650301Y-91753266D01*
X83632658Y-91747720D01*
X83623777Y-91731445D01*
X83623934Y-91704986D01*
X83624414Y-91702046D01*
X83627602Y-91677482D01*
X83628852Y-91654761D01*
X83628783Y-91650961D01*
X83628005Y-91615744D01*
X83629361Y-91590814D01*
X83633362Y-91572441D01*
X83640517Y-91556896D01*
X83641975Y-91554444D01*
X83652816Y-91535222D01*
X83655122Y-91526880D01*
X83648702Y-91529370D01*
X83633366Y-91542644D01*
X83625377Y-91550295D01*
X83589889Y-91584257D01*
X83562692Y-91608853D01*
X83542526Y-91625101D01*
X83528129Y-91634024D01*
X83518728Y-91636643D01*
X83506048Y-91642839D01*
X83492159Y-91661688D01*
X83486863Y-91671431D01*
X83469019Y-91700509D01*
X83452632Y-91715632D01*
X83437881Y-91716804D01*
X83424943Y-91704029D01*
X83413998Y-91677311D01*
X83411873Y-91669555D01*
X83406509Y-91640772D01*
X83408046Y-91622236D01*
X83409384Y-91619178D01*
X83414407Y-91604776D01*
X83416361Y-91589373D01*
X83414834Y-91578680D01*
X83412431Y-91576877D01*
X83403692Y-91579841D01*
X83394745Y-91584206D01*
X83383591Y-91587162D01*
X83372428Y-91581233D01*
X83363060Y-91571859D01*
X83346552Y-91554090D01*
X83327148Y-91533581D01*
X83321309Y-91527488D01*
X83302348Y-91504944D01*
X83284429Y-91479253D01*
X83280420Y-91472537D01*
X83263291Y-91442280D01*
X83258907Y-91489225D01*
X83258907Y-91489225D01*
G37*
X83258907Y-91489225D02*
X83255690Y-91514457D01*
X83251571Y-91534446D01*
X83247701Y-91544390D01*
X83243488Y-91555689D01*
X83240037Y-91575812D01*
X83238692Y-91591031D01*
X83236199Y-91614986D01*
X83231180Y-91628840D01*
X83222145Y-91636568D01*
X83221502Y-91636894D01*
X83212435Y-91642434D01*
X83210095Y-91649646D01*
X83213952Y-91663182D01*
X83217478Y-91672344D01*
X83225835Y-91690816D01*
X83233456Y-91703143D01*
X83235352Y-91704977D01*
X83239785Y-91714353D01*
X83242556Y-91732231D01*
X83242903Y-91739328D01*
X83240089Y-91764818D01*
X83229973Y-91778308D01*
X83212142Y-91780114D01*
X83196116Y-91775128D01*
X83175363Y-91769226D01*
X83148451Y-91764952D01*
X83134200Y-91763835D01*
X83108054Y-91760322D01*
X83074101Y-91752418D01*
X83037474Y-91741363D01*
X83028367Y-91738205D01*
X82961339Y-91714279D01*
X83005436Y-91758336D01*
X83031557Y-91786655D01*
X83046209Y-91807901D01*
X83049533Y-91819006D01*
X83055590Y-91835768D01*
X83072609Y-91856147D01*
X83077756Y-91860954D01*
X83096381Y-91880397D01*
X83104817Y-91897334D01*
X83105978Y-91907556D01*
X83103818Y-91924068D01*
X83098807Y-91933254D01*
X83093982Y-91940596D01*
X83100549Y-91947102D01*
X83115847Y-91950647D01*
X83120786Y-91950822D01*
X83140768Y-91954097D01*
X83163818Y-91962211D01*
X83168885Y-91964631D01*
X83186483Y-91972028D01*
X83198683Y-91974281D01*
X83200931Y-91973461D01*
X83208164Y-91973733D01*
X83216448Y-91983444D01*
X83223198Y-91998397D01*
X83225837Y-92013906D01*
X83222311Y-92030849D01*
X83213509Y-92052626D01*
X83208607Y-92061947D01*
X83199264Y-92079150D01*
X83194319Y-92089996D01*
X83194165Y-92091933D01*
X83199797Y-92087052D01*
X83200892Y-92085420D01*
X83210026Y-92079655D01*
X83226673Y-92074568D01*
X83227767Y-92074343D01*
X83273632Y-92062957D01*
X83313240Y-92048767D01*
X83343857Y-92032915D01*
X83361089Y-92018622D01*
X83379839Y-91996683D01*
X83383745Y-92014322D01*
X83389164Y-92037743D01*
X83392160Y-92047658D01*
X83392961Y-92044420D01*
X83391795Y-92028383D01*
X83391616Y-92026479D01*
X83390229Y-92006566D01*
X83391703Y-91997830D01*
X83396968Y-91997471D01*
X83400656Y-91999208D01*
X83419121Y-92005504D01*
X83443827Y-92009839D01*
X83469324Y-92011713D01*
X83490162Y-92010629D01*
X83498535Y-92008154D01*
X83512188Y-92003747D01*
X83534770Y-91999465D01*
X83558512Y-91996540D01*
X83605352Y-91992200D01*
X83577674Y-91966219D01*
X83555147Y-91939319D01*
X83545972Y-91914925D01*
X83544737Y-91902756D01*
X83546638Y-91892407D01*
X83553409Y-91881120D01*
X83566780Y-91866134D01*
X83588486Y-91844688D01*
X83592465Y-91840842D01*
X83615424Y-91817741D01*
X83635323Y-91796017D01*
X83649285Y-91778892D01*
X83653355Y-91772669D01*
X83659734Y-91759239D01*
X83658305Y-91754067D01*
X83650301Y-91753266D01*
X83632658Y-91747720D01*
X83623777Y-91731445D01*
X83623934Y-91704986D01*
X83624414Y-91702046D01*
X83627602Y-91677482D01*
X83628852Y-91654761D01*
X83628783Y-91650961D01*
X83628005Y-91615744D01*
X83629361Y-91590814D01*
X83633362Y-91572441D01*
X83640517Y-91556896D01*
X83641975Y-91554444D01*
X83652816Y-91535222D01*
X83655122Y-91526880D01*
X83648702Y-91529370D01*
X83633366Y-91542644D01*
X83625377Y-91550295D01*
X83589889Y-91584257D01*
X83562692Y-91608853D01*
X83542526Y-91625101D01*
X83528129Y-91634024D01*
X83518728Y-91636643D01*
X83506048Y-91642839D01*
X83492159Y-91661688D01*
X83486863Y-91671431D01*
X83469019Y-91700509D01*
X83452632Y-91715632D01*
X83437881Y-91716804D01*
X83424943Y-91704029D01*
X83413998Y-91677311D01*
X83411873Y-91669555D01*
X83406509Y-91640772D01*
X83408046Y-91622236D01*
X83409384Y-91619178D01*
X83414407Y-91604776D01*
X83416361Y-91589373D01*
X83414834Y-91578680D01*
X83412431Y-91576877D01*
X83403692Y-91579841D01*
X83394745Y-91584206D01*
X83383591Y-91587162D01*
X83372428Y-91581233D01*
X83363060Y-91571859D01*
X83346552Y-91554090D01*
X83327148Y-91533581D01*
X83321309Y-91527488D01*
X83302348Y-91504944D01*
X83284429Y-91479253D01*
X83280420Y-91472537D01*
X83263291Y-91442280D01*
X83258907Y-91489225D01*
G36*
X81272429Y-90991841D02*
X81275170Y-90994881D01*
X81284086Y-91001564D01*
X81300208Y-91012608D01*
X81324567Y-91028727D01*
X81358195Y-91050637D01*
X81402123Y-91079056D01*
X81430283Y-91097227D01*
X81585506Y-91197334D01*
X81631367Y-91182925D01*
X81663419Y-91173790D01*
X81697878Y-91165373D01*
X81719093Y-91161030D01*
X81747686Y-91157553D01*
X81786093Y-91155181D01*
X81831028Y-91153887D01*
X81879204Y-91153644D01*
X81927335Y-91154423D01*
X81972134Y-91156197D01*
X82010314Y-91158937D01*
X82038589Y-91162618D01*
X82044117Y-91163773D01*
X82120920Y-91187859D01*
X82194156Y-91222237D01*
X82260732Y-91265160D01*
X82317559Y-91314882D01*
X82324398Y-91322110D01*
X82366607Y-91375620D01*
X82396465Y-91430653D01*
X82413854Y-91486036D01*
X82418656Y-91540598D01*
X82410754Y-91593168D01*
X82390029Y-91642573D01*
X82360648Y-91682995D01*
X82343293Y-91700100D01*
X82321839Y-91718222D01*
X82299732Y-91734804D01*
X82280418Y-91747289D01*
X82267342Y-91753120D01*
X82265951Y-91753266D01*
X82261605Y-91747084D01*
X82255079Y-91731024D01*
X82249068Y-91712697D01*
X82240965Y-91685773D01*
X82233275Y-91660340D01*
X82229530Y-91648026D01*
X82217291Y-91623616D01*
X82196352Y-91596582D01*
X82170449Y-91570972D01*
X82143315Y-91550836D01*
X82136156Y-91546808D01*
X82120633Y-91540151D01*
X82101939Y-91535336D01*
X82077039Y-91531885D01*
X82042902Y-91529322D01*
X82016421Y-91527999D01*
X81925226Y-91523961D01*
X81901995Y-91436245D01*
X81892341Y-91402104D01*
X81882784Y-91372334D01*
X81874373Y-91349950D01*
X81868153Y-91337966D01*
X81867702Y-91337467D01*
X81861648Y-91333466D01*
X81851350Y-91330532D01*
X81834858Y-91328510D01*
X81810218Y-91327250D01*
X81775480Y-91326599D01*
X81728691Y-91326405D01*
X81725796Y-91326405D01*
X81679554Y-91326501D01*
X81645387Y-91326920D01*
X81621260Y-91327862D01*
X81605136Y-91329522D01*
X81594981Y-91332100D01*
X81588759Y-91335793D01*
X81584937Y-91340101D01*
X81576784Y-91358361D01*
X81574922Y-91370682D01*
X81576659Y-91382090D01*
X81581469Y-91404367D01*
X81588752Y-91435217D01*
X81597909Y-91472347D01*
X81608339Y-91513461D01*
X81619444Y-91556264D01*
X81630622Y-91598460D01*
X81641274Y-91637754D01*
X81650801Y-91671852D01*
X81658603Y-91698458D01*
X81664078Y-91715276D01*
X81666222Y-91720014D01*
X81675912Y-91721889D01*
X81689284Y-91718770D01*
X81707166Y-91711971D01*
X81662486Y-91547410D01*
X81650023Y-91501338D01*
X81638876Y-91459806D01*
X81629557Y-91424746D01*
X81622578Y-91398092D01*
X81618449Y-91381779D01*
X81617531Y-91377558D01*
X81624095Y-91375770D01*
X81642414Y-91374240D01*
X81670130Y-91373079D01*
X81704887Y-91372398D01*
X81729873Y-91372266D01*
X81842489Y-91372266D01*
X81849296Y-91398725D01*
X81854056Y-91417111D01*
X81861216Y-91444629D01*
X81869598Y-91476759D01*
X81874263Y-91494603D01*
X81881858Y-91523905D01*
X81887893Y-91547696D01*
X81891608Y-91562953D01*
X81892422Y-91566923D01*
X81899037Y-91568022D01*
X81917117Y-91568955D01*
X81944017Y-91569632D01*
X81977092Y-91569963D01*
X81982381Y-91569977D01*
X82032233Y-91571220D01*
X82071020Y-91575290D01*
X82101642Y-91582986D01*
X82126999Y-91595109D01*
X82149991Y-91612460D01*
X82155872Y-91617863D01*
X82165934Y-91627975D01*
X82174429Y-91638542D01*
X82182088Y-91651446D01*
X82189646Y-91668566D01*
X82197833Y-91691782D01*
X82207384Y-91722977D01*
X82219031Y-91764029D01*
X82233506Y-91816820D01*
X82233780Y-91817828D01*
X82248465Y-91872564D01*
X82259386Y-91915613D01*
X82266792Y-91948817D01*
X82270929Y-91974018D01*
X82272045Y-91993059D01*
X82270387Y-92007781D01*
X82266204Y-92020027D01*
X82262017Y-92027924D01*
X82255944Y-92037926D01*
X82249763Y-92046071D01*
X82242043Y-92052560D01*
X82231351Y-92057592D01*
X82216255Y-92061367D01*
X82195323Y-92064086D01*
X82167124Y-92065948D01*
X82130225Y-92067155D01*
X82083194Y-92067906D01*
X82024600Y-92068401D01*
X81970033Y-92068738D01*
X81907617Y-92068950D01*
X81853031Y-92068810D01*
X81807377Y-92068341D01*
X81771755Y-92067563D01*
X81747265Y-92066499D01*
X81735010Y-92065171D01*
X81734314Y-92064089D01*
X81749397Y-92050952D01*
X81760661Y-92025369D01*
X81768368Y-91986728D01*
X81768898Y-91982572D01*
X81769624Y-91953015D01*
X81762345Y-91933548D01*
X81745884Y-91921914D01*
X81735635Y-91918743D01*
X81716431Y-91914114D01*
X81720764Y-91960521D01*
X81722299Y-91991303D01*
X81719838Y-92010558D01*
X81716174Y-92017680D01*
X81706560Y-92026663D01*
X81700171Y-92025380D01*
X81696467Y-92012721D01*
X81694905Y-91987575D01*
X81694759Y-91973752D01*
X81694054Y-91946565D01*
X81692287Y-91924507D01*
X81689814Y-91911697D01*
X81689323Y-91910694D01*
X81680658Y-91903524D01*
X81666099Y-91895770D01*
X81651312Y-91889982D01*
X81641961Y-91888713D01*
X81641364Y-91889083D01*
X81641837Y-91896477D01*
X81645191Y-91913663D01*
X81650219Y-91934953D01*
X81657178Y-91975123D01*
X81654943Y-92006807D01*
X81643066Y-92032594D01*
X81630826Y-92046600D01*
X81621839Y-92054820D01*
X81613182Y-92060568D01*
X81602170Y-92064364D01*
X81586122Y-92066730D01*
X81562352Y-92068184D01*
X81528178Y-92069248D01*
X81511912Y-92069658D01*
X81414531Y-92072077D01*
X81426379Y-92119046D01*
X81438228Y-92166016D01*
X81575694Y-92167924D01*
X81713159Y-92169833D01*
X81725180Y-92214944D01*
X81731306Y-92238516D01*
X81735636Y-92256287D01*
X81737200Y-92264188D01*
X81730437Y-92265240D01*
X81711315Y-92266193D01*
X81681589Y-92267012D01*
X81643009Y-92267662D01*
X81597331Y-92268107D01*
X81546305Y-92268312D01*
X81532308Y-92268322D01*
X81472880Y-92268275D01*
X81425819Y-92268062D01*
X81389381Y-92267570D01*
X81361822Y-92266688D01*
X81341398Y-92265303D01*
X81326365Y-92263304D01*
X81314978Y-92260579D01*
X81305495Y-92257017D01*
X81297711Y-92253289D01*
X81270148Y-92238566D01*
X81249750Y-92224727D01*
X81234541Y-92208979D01*
X81222543Y-92188531D01*
X81211779Y-92160593D01*
X81200274Y-92122373D01*
X81197176Y-92111336D01*
X81185865Y-92070766D01*
X81145797Y-92070319D01*
X81124323Y-92069535D01*
X81115890Y-92067636D01*
X81119453Y-92064351D01*
X81120719Y-92063818D01*
X81135595Y-92050525D01*
X81145957Y-92025603D01*
X81151127Y-91991000D01*
X81151275Y-91985948D01*
X81108925Y-91985948D01*
X81107405Y-92001826D01*
X81104973Y-92010217D01*
X81098537Y-92021025D01*
X81093187Y-92018823D01*
X81089510Y-92004704D01*
X81088474Y-91986478D01*
X81052811Y-91986478D01*
X81046887Y-92019110D01*
X81029004Y-92044419D01*
X80998994Y-92062615D01*
X80989311Y-92066165D01*
X80976472Y-92067951D01*
X80952196Y-92069220D01*
X80919147Y-92069997D01*
X80879987Y-92070309D01*
X80837382Y-92070180D01*
X80793995Y-92069638D01*
X80752488Y-92068708D01*
X80715526Y-92067416D01*
X80685773Y-92065788D01*
X80665892Y-92063849D01*
X80661237Y-92062977D01*
X80622430Y-92046245D01*
X80588950Y-92018185D01*
X80563091Y-91981250D01*
X80548118Y-91942002D01*
X80543281Y-91922600D01*
X80768548Y-91922600D01*
X80775082Y-91945530D01*
X80782307Y-91962066D01*
X80794617Y-91969185D01*
X80804325Y-91970672D01*
X80816647Y-91971641D01*
X80823489Y-91969860D01*
X80825293Y-91962735D01*
X80822503Y-91947671D01*
X80815560Y-91922075D01*
X80813735Y-91915544D01*
X80800931Y-91869683D01*
X80695802Y-91866155D01*
X80651074Y-91864074D01*
X80614835Y-91861201D01*
X80588967Y-91857730D01*
X80575420Y-91853893D01*
X80549453Y-91832704D01*
X80525915Y-91801943D01*
X80505923Y-91764764D01*
X80490594Y-91724320D01*
X80481048Y-91683764D01*
X80478402Y-91646250D01*
X80483774Y-91614932D01*
X80487620Y-91606266D01*
X80493448Y-91596984D01*
X80500796Y-91589419D01*
X80511069Y-91583398D01*
X80525668Y-91578747D01*
X80545996Y-91575290D01*
X80573457Y-91572853D01*
X80609453Y-91571262D01*
X80655386Y-91570343D01*
X80712660Y-91569921D01*
X80780733Y-91569822D01*
X81017108Y-91569822D01*
X81000656Y-91594066D01*
X80990675Y-91610276D01*
X80983888Y-91626249D01*
X80980417Y-91643999D01*
X80980382Y-91665545D01*
X80983904Y-91692903D01*
X80991102Y-91728090D01*
X81002098Y-91773123D01*
X81014115Y-91819118D01*
X81025676Y-91863686D01*
X81035860Y-91904828D01*
X81044116Y-91940169D01*
X81049898Y-91967339D01*
X81052655Y-91983962D01*
X81052811Y-91986478D01*
X81088474Y-91986478D01*
X81088091Y-91979759D01*
X81088089Y-91978763D01*
X81085777Y-91950723D01*
X81078768Y-91911023D01*
X81066955Y-91859128D01*
X81052817Y-91804138D01*
X81041801Y-91762113D01*
X81032191Y-91723926D01*
X81024560Y-91691990D01*
X81019486Y-91668719D01*
X81017544Y-91656523D01*
X81017539Y-91656252D01*
X81018487Y-91643231D01*
X81021471Y-91641093D01*
X81026676Y-91650342D01*
X81034292Y-91671480D01*
X81044505Y-91705010D01*
X81057504Y-91751434D01*
X81068881Y-91793836D01*
X81084147Y-91852711D01*
X81095513Y-91899732D01*
X81103250Y-91936528D01*
X81107630Y-91964724D01*
X81108925Y-91985948D01*
X81151275Y-91985948D01*
X81151589Y-91975270D01*
X81149808Y-91960109D01*
X81144832Y-91933593D01*
X81137210Y-91897973D01*
X81127490Y-91855498D01*
X81116222Y-91808421D01*
X81103954Y-91758990D01*
X81091236Y-91709456D01*
X81078617Y-91662070D01*
X81066645Y-91619083D01*
X81055870Y-91582744D01*
X81055692Y-91582169D01*
X81055344Y-91578592D01*
X81057762Y-91575780D01*
X81064420Y-91573642D01*
X81076792Y-91572088D01*
X81096353Y-91571028D01*
X81124578Y-91570369D01*
X81162941Y-91570023D01*
X81212918Y-91569896D01*
X81255183Y-91569891D01*
X81314180Y-91569945D01*
X81360860Y-91570147D01*
X81397018Y-91570622D01*
X81424447Y-91571496D01*
X81444942Y-91572894D01*
X81460298Y-91574942D01*
X81472308Y-91577766D01*
X81482767Y-91581490D01*
X81493469Y-91586240D01*
X81494283Y-91586619D01*
X81533449Y-91611835D01*
X81563052Y-91646875D01*
X81583720Y-91692511D01*
X81585702Y-91698984D01*
X81593879Y-91725915D01*
X81600148Y-91741581D01*
X81606355Y-91748322D01*
X81614344Y-91748476D01*
X81622547Y-91745701D01*
X81632109Y-91740752D01*
X81636832Y-91733260D01*
X81636763Y-91720448D01*
X81631952Y-91699540D01*
X81623812Y-91672171D01*
X81602172Y-91623900D01*
X81570124Y-91582432D01*
X81529984Y-91550639D01*
X81522323Y-91546296D01*
X81516558Y-91543320D01*
X81510495Y-91540753D01*
X81503094Y-91538561D01*
X81493314Y-91536708D01*
X81480113Y-91535160D01*
X81462451Y-91533881D01*
X81439287Y-91532837D01*
X81409579Y-91531994D01*
X81372287Y-91531315D01*
X81326370Y-91530766D01*
X81270787Y-91530313D01*
X81204496Y-91529919D01*
X81126457Y-91529551D01*
X81035629Y-91529173D01*
X81008800Y-91529065D01*
X80914311Y-91528693D01*
X80832891Y-91528409D01*
X80763499Y-91528240D01*
X80705094Y-91528210D01*
X80656633Y-91528346D01*
X80617075Y-91528672D01*
X80585379Y-91529216D01*
X80560503Y-91530001D01*
X80541406Y-91531054D01*
X80527045Y-91532401D01*
X80516380Y-91534067D01*
X80508368Y-91536077D01*
X80501969Y-91538458D01*
X80496141Y-91541234D01*
X80495231Y-91541697D01*
X80464335Y-91564433D01*
X80444414Y-91595628D01*
X80435406Y-91635477D01*
X80437247Y-91684175D01*
X80441454Y-91708341D01*
X80457734Y-91768404D01*
X80478739Y-91815877D01*
X80504287Y-91850354D01*
X80505772Y-91851817D01*
X80529294Y-91874616D01*
X80515007Y-91888903D01*
X80506232Y-91900707D01*
X80503278Y-91915612D01*
X80504729Y-91937039D01*
X80516875Y-91985150D01*
X80540248Y-92028479D01*
X80572884Y-92064420D01*
X80612818Y-92090363D01*
X80623597Y-92094937D01*
X80634864Y-92098583D01*
X80648354Y-92101349D01*
X80665925Y-92103317D01*
X80689431Y-92104572D01*
X80720729Y-92105197D01*
X80761673Y-92105276D01*
X80814120Y-92104891D01*
X80838959Y-92104623D01*
X80894825Y-92103944D01*
X80938368Y-92103233D01*
X80971376Y-92102331D01*
X80995638Y-92101081D01*
X81012941Y-92099326D01*
X81025073Y-92096906D01*
X81033823Y-92093666D01*
X81040978Y-92089447D01*
X81045182Y-92086430D01*
X81058856Y-92077827D01*
X81066403Y-92076023D01*
X81066922Y-92077107D01*
X81073365Y-92090999D01*
X81090501Y-92101198D01*
X81115040Y-92105915D01*
X81120146Y-92106044D01*
X81151195Y-92106044D01*
X81162150Y-92146613D01*
X81179809Y-92197926D01*
X81202734Y-92237504D01*
X81232694Y-92267283D01*
X81271458Y-92289201D01*
X81302481Y-92300227D01*
X81319048Y-92303081D01*
X81346760Y-92305534D01*
X81383421Y-92307573D01*
X81426839Y-92309182D01*
X81474822Y-92310346D01*
X81525174Y-92311050D01*
X81575704Y-92311279D01*
X81624218Y-92311018D01*
X81668523Y-92310252D01*
X81706426Y-92308967D01*
X81735733Y-92307146D01*
X81754250Y-92304775D01*
X81758831Y-92303351D01*
X81768115Y-92290914D01*
X81772377Y-92268081D01*
X81771556Y-92237669D01*
X81765587Y-92202494D01*
X81761412Y-92186567D01*
X81755221Y-92166894D01*
X81748330Y-92152130D01*
X81738759Y-92141572D01*
X81724528Y-92134514D01*
X81703659Y-92130253D01*
X81674170Y-92128086D01*
X81634084Y-92127307D01*
X81594519Y-92127211D01*
X81548945Y-92127059D01*
X81515663Y-92126503D01*
X81492856Y-92125388D01*
X81478707Y-92123561D01*
X81471398Y-92120870D01*
X81469112Y-92117160D01*
X81469089Y-92116627D01*
X81471429Y-92111678D01*
X81480000Y-92108507D01*
X81497128Y-92106761D01*
X81525140Y-92106090D01*
X81539185Y-92106044D01*
X81581561Y-92105050D01*
X81612977Y-92101586D01*
X81636476Y-92094928D01*
X81655100Y-92084350D01*
X81664881Y-92076122D01*
X81676024Y-92067135D01*
X81680397Y-92068409D01*
X81680756Y-92071971D01*
X81685630Y-92084758D01*
X81693658Y-92094367D01*
X81698227Y-92097423D01*
X81705422Y-92099901D01*
X81716627Y-92101860D01*
X81733227Y-92103359D01*
X81756608Y-92104458D01*
X81788154Y-92105216D01*
X81829250Y-92105691D01*
X81881280Y-92105942D01*
X81945630Y-92106030D01*
X81967061Y-92106033D01*
X82035428Y-92105977D01*
X82091142Y-92105771D01*
X82135661Y-92105354D01*
X82170443Y-92104662D01*
X82196947Y-92103631D01*
X82216631Y-92102199D01*
X82230952Y-92100301D01*
X82241369Y-92097876D01*
X82249340Y-92094859D01*
X82251754Y-92093686D01*
X82281111Y-92071224D01*
X82300870Y-92039395D01*
X82310751Y-91999430D01*
X82310476Y-91952559D01*
X82299764Y-91900014D01*
X82297491Y-91892517D01*
X82296412Y-91885965D01*
X82300623Y-91884353D01*
X82312849Y-91887871D01*
X82331125Y-91894859D01*
X82400659Y-91929454D01*
X82465909Y-91976312D01*
X82499402Y-92007060D01*
X82544889Y-92059041D01*
X82577101Y-92111327D01*
X82596808Y-92165590D01*
X82604778Y-92223504D01*
X82605033Y-92236702D01*
X82598446Y-92290904D01*
X82579153Y-92340010D01*
X82547858Y-92383314D01*
X82505266Y-92420115D01*
X82452079Y-92449709D01*
X82389001Y-92471394D01*
X82364427Y-92477043D01*
X82314349Y-92483729D01*
X82254598Y-92486104D01*
X82188849Y-92484428D01*
X82120781Y-92478959D01*
X82054069Y-92469959D01*
X81992391Y-92457686D01*
X81957406Y-92448280D01*
X81920084Y-92436942D01*
X81812767Y-92543002D01*
X81781387Y-92574150D01*
X81753954Y-92601639D01*
X81731862Y-92624050D01*
X81716510Y-92639962D01*
X81709292Y-92647953D01*
X81708978Y-92648617D01*
X81717162Y-92645762D01*
X81732840Y-92639292D01*
X81736473Y-92637719D01*
X81769606Y-92625657D01*
X81814298Y-92612942D01*
X81868044Y-92600093D01*
X81928339Y-92587629D01*
X81992681Y-92576069D01*
X82058564Y-92565932D01*
X82121728Y-92557931D01*
X82149711Y-92555259D01*
X82188119Y-92552231D01*
X82233281Y-92549104D01*
X82281525Y-92546134D01*
X82322811Y-92543894D01*
X82381447Y-92540493D01*
X82428610Y-92536513D01*
X82466940Y-92531418D01*
X82499073Y-92524674D01*
X82527649Y-92515744D01*
X82555306Y-92504093D01*
X82579961Y-92491705D01*
X82633709Y-92455729D01*
X82677250Y-92410628D01*
X82709672Y-92357638D01*
X82730064Y-92297997D01*
X82732830Y-92284191D01*
X82735537Y-92264765D01*
X82736367Y-92245180D01*
X82734974Y-92223339D01*
X82731016Y-92197142D01*
X82724149Y-92164489D01*
X82714027Y-92123282D01*
X82700308Y-92071422D01*
X82694384Y-92049600D01*
X82686881Y-92021959D01*
X82676336Y-91982932D01*
X82663353Y-91934760D01*
X82648535Y-91879690D01*
X82632487Y-91819964D01*
X82615812Y-91757828D01*
X82601352Y-91703877D01*
X82578148Y-91618560D01*
X82557804Y-91546532D01*
X82540353Y-91487904D01*
X82525828Y-91442782D01*
X82514263Y-91411276D01*
X82508972Y-91399382D01*
X82469671Y-91335637D01*
X82418339Y-91276672D01*
X82356604Y-91223711D01*
X82286089Y-91177976D01*
X82208421Y-91140690D01*
X82130105Y-91114374D01*
X82103549Y-91107841D01*
X82076274Y-91102669D01*
X82045488Y-91098534D01*
X82008399Y-91095115D01*
X81962213Y-91092087D01*
X81917117Y-91089744D01*
X81847749Y-91086143D01*
X81788577Y-91082389D01*
X81735686Y-91078102D01*
X81685164Y-91072905D01*
X81633097Y-91066421D01*
X81575570Y-91058269D01*
X81547166Y-91054004D01*
X81505509Y-91046950D01*
X81458741Y-91037861D01*
X81410383Y-91027532D01*
X81363956Y-91016761D01*
X81322981Y-91006346D01*
X81290980Y-90997082D01*
X81281344Y-90993829D01*
X81274831Y-90991729D01*
X81272429Y-90991841D01*
X81272429Y-90991841D01*
G37*
X81272429Y-90991841D02*
X81275170Y-90994881D01*
X81284086Y-91001564D01*
X81300208Y-91012608D01*
X81324567Y-91028727D01*
X81358195Y-91050637D01*
X81402123Y-91079056D01*
X81430283Y-91097227D01*
X81585506Y-91197334D01*
X81631367Y-91182925D01*
X81663419Y-91173790D01*
X81697878Y-91165373D01*
X81719093Y-91161030D01*
X81747686Y-91157553D01*
X81786093Y-91155181D01*
X81831028Y-91153887D01*
X81879204Y-91153644D01*
X81927335Y-91154423D01*
X81972134Y-91156197D01*
X82010314Y-91158937D01*
X82038589Y-91162618D01*
X82044117Y-91163773D01*
X82120920Y-91187859D01*
X82194156Y-91222237D01*
X82260732Y-91265160D01*
X82317559Y-91314882D01*
X82324398Y-91322110D01*
X82366607Y-91375620D01*
X82396465Y-91430653D01*
X82413854Y-91486036D01*
X82418656Y-91540598D01*
X82410754Y-91593168D01*
X82390029Y-91642573D01*
X82360648Y-91682995D01*
X82343293Y-91700100D01*
X82321839Y-91718222D01*
X82299732Y-91734804D01*
X82280418Y-91747289D01*
X82267342Y-91753120D01*
X82265951Y-91753266D01*
X82261605Y-91747084D01*
X82255079Y-91731024D01*
X82249068Y-91712697D01*
X82240965Y-91685773D01*
X82233275Y-91660340D01*
X82229530Y-91648026D01*
X82217291Y-91623616D01*
X82196352Y-91596582D01*
X82170449Y-91570972D01*
X82143315Y-91550836D01*
X82136156Y-91546808D01*
X82120633Y-91540151D01*
X82101939Y-91535336D01*
X82077039Y-91531885D01*
X82042902Y-91529322D01*
X82016421Y-91527999D01*
X81925226Y-91523961D01*
X81901995Y-91436245D01*
X81892341Y-91402104D01*
X81882784Y-91372334D01*
X81874373Y-91349950D01*
X81868153Y-91337966D01*
X81867702Y-91337467D01*
X81861648Y-91333466D01*
X81851350Y-91330532D01*
X81834858Y-91328510D01*
X81810218Y-91327250D01*
X81775480Y-91326599D01*
X81728691Y-91326405D01*
X81725796Y-91326405D01*
X81679554Y-91326501D01*
X81645387Y-91326920D01*
X81621260Y-91327862D01*
X81605136Y-91329522D01*
X81594981Y-91332100D01*
X81588759Y-91335793D01*
X81584937Y-91340101D01*
X81576784Y-91358361D01*
X81574922Y-91370682D01*
X81576659Y-91382090D01*
X81581469Y-91404367D01*
X81588752Y-91435217D01*
X81597909Y-91472347D01*
X81608339Y-91513461D01*
X81619444Y-91556264D01*
X81630622Y-91598460D01*
X81641274Y-91637754D01*
X81650801Y-91671852D01*
X81658603Y-91698458D01*
X81664078Y-91715276D01*
X81666222Y-91720014D01*
X81675912Y-91721889D01*
X81689284Y-91718770D01*
X81707166Y-91711971D01*
X81662486Y-91547410D01*
X81650023Y-91501338D01*
X81638876Y-91459806D01*
X81629557Y-91424746D01*
X81622578Y-91398092D01*
X81618449Y-91381779D01*
X81617531Y-91377558D01*
X81624095Y-91375770D01*
X81642414Y-91374240D01*
X81670130Y-91373079D01*
X81704887Y-91372398D01*
X81729873Y-91372266D01*
X81842489Y-91372266D01*
X81849296Y-91398725D01*
X81854056Y-91417111D01*
X81861216Y-91444629D01*
X81869598Y-91476759D01*
X81874263Y-91494603D01*
X81881858Y-91523905D01*
X81887893Y-91547696D01*
X81891608Y-91562953D01*
X81892422Y-91566923D01*
X81899037Y-91568022D01*
X81917117Y-91568955D01*
X81944017Y-91569632D01*
X81977092Y-91569963D01*
X81982381Y-91569977D01*
X82032233Y-91571220D01*
X82071020Y-91575290D01*
X82101642Y-91582986D01*
X82126999Y-91595109D01*
X82149991Y-91612460D01*
X82155872Y-91617863D01*
X82165934Y-91627975D01*
X82174429Y-91638542D01*
X82182088Y-91651446D01*
X82189646Y-91668566D01*
X82197833Y-91691782D01*
X82207384Y-91722977D01*
X82219031Y-91764029D01*
X82233506Y-91816820D01*
X82233780Y-91817828D01*
X82248465Y-91872564D01*
X82259386Y-91915613D01*
X82266792Y-91948817D01*
X82270929Y-91974018D01*
X82272045Y-91993059D01*
X82270387Y-92007781D01*
X82266204Y-92020027D01*
X82262017Y-92027924D01*
X82255944Y-92037926D01*
X82249763Y-92046071D01*
X82242043Y-92052560D01*
X82231351Y-92057592D01*
X82216255Y-92061367D01*
X82195323Y-92064086D01*
X82167124Y-92065948D01*
X82130225Y-92067155D01*
X82083194Y-92067906D01*
X82024600Y-92068401D01*
X81970033Y-92068738D01*
X81907617Y-92068950D01*
X81853031Y-92068810D01*
X81807377Y-92068341D01*
X81771755Y-92067563D01*
X81747265Y-92066499D01*
X81735010Y-92065171D01*
X81734314Y-92064089D01*
X81749397Y-92050952D01*
X81760661Y-92025369D01*
X81768368Y-91986728D01*
X81768898Y-91982572D01*
X81769624Y-91953015D01*
X81762345Y-91933548D01*
X81745884Y-91921914D01*
X81735635Y-91918743D01*
X81716431Y-91914114D01*
X81720764Y-91960521D01*
X81722299Y-91991303D01*
X81719838Y-92010558D01*
X81716174Y-92017680D01*
X81706560Y-92026663D01*
X81700171Y-92025380D01*
X81696467Y-92012721D01*
X81694905Y-91987575D01*
X81694759Y-91973752D01*
X81694054Y-91946565D01*
X81692287Y-91924507D01*
X81689814Y-91911697D01*
X81689323Y-91910694D01*
X81680658Y-91903524D01*
X81666099Y-91895770D01*
X81651312Y-91889982D01*
X81641961Y-91888713D01*
X81641364Y-91889083D01*
X81641837Y-91896477D01*
X81645191Y-91913663D01*
X81650219Y-91934953D01*
X81657178Y-91975123D01*
X81654943Y-92006807D01*
X81643066Y-92032594D01*
X81630826Y-92046600D01*
X81621839Y-92054820D01*
X81613182Y-92060568D01*
X81602170Y-92064364D01*
X81586122Y-92066730D01*
X81562352Y-92068184D01*
X81528178Y-92069248D01*
X81511912Y-92069658D01*
X81414531Y-92072077D01*
X81426379Y-92119046D01*
X81438228Y-92166016D01*
X81575694Y-92167924D01*
X81713159Y-92169833D01*
X81725180Y-92214944D01*
X81731306Y-92238516D01*
X81735636Y-92256287D01*
X81737200Y-92264188D01*
X81730437Y-92265240D01*
X81711315Y-92266193D01*
X81681589Y-92267012D01*
X81643009Y-92267662D01*
X81597331Y-92268107D01*
X81546305Y-92268312D01*
X81532308Y-92268322D01*
X81472880Y-92268275D01*
X81425819Y-92268062D01*
X81389381Y-92267570D01*
X81361822Y-92266688D01*
X81341398Y-92265303D01*
X81326365Y-92263304D01*
X81314978Y-92260579D01*
X81305495Y-92257017D01*
X81297711Y-92253289D01*
X81270148Y-92238566D01*
X81249750Y-92224727D01*
X81234541Y-92208979D01*
X81222543Y-92188531D01*
X81211779Y-92160593D01*
X81200274Y-92122373D01*
X81197176Y-92111336D01*
X81185865Y-92070766D01*
X81145797Y-92070319D01*
X81124323Y-92069535D01*
X81115890Y-92067636D01*
X81119453Y-92064351D01*
X81120719Y-92063818D01*
X81135595Y-92050525D01*
X81145957Y-92025603D01*
X81151127Y-91991000D01*
X81151275Y-91985948D01*
X81108925Y-91985948D01*
X81107405Y-92001826D01*
X81104973Y-92010217D01*
X81098537Y-92021025D01*
X81093187Y-92018823D01*
X81089510Y-92004704D01*
X81088474Y-91986478D01*
X81052811Y-91986478D01*
X81046887Y-92019110D01*
X81029004Y-92044419D01*
X80998994Y-92062615D01*
X80989311Y-92066165D01*
X80976472Y-92067951D01*
X80952196Y-92069220D01*
X80919147Y-92069997D01*
X80879987Y-92070309D01*
X80837382Y-92070180D01*
X80793995Y-92069638D01*
X80752488Y-92068708D01*
X80715526Y-92067416D01*
X80685773Y-92065788D01*
X80665892Y-92063849D01*
X80661237Y-92062977D01*
X80622430Y-92046245D01*
X80588950Y-92018185D01*
X80563091Y-91981250D01*
X80548118Y-91942002D01*
X80543281Y-91922600D01*
X80768548Y-91922600D01*
X80775082Y-91945530D01*
X80782307Y-91962066D01*
X80794617Y-91969185D01*
X80804325Y-91970672D01*
X80816647Y-91971641D01*
X80823489Y-91969860D01*
X80825293Y-91962735D01*
X80822503Y-91947671D01*
X80815560Y-91922075D01*
X80813735Y-91915544D01*
X80800931Y-91869683D01*
X80695802Y-91866155D01*
X80651074Y-91864074D01*
X80614835Y-91861201D01*
X80588967Y-91857730D01*
X80575420Y-91853893D01*
X80549453Y-91832704D01*
X80525915Y-91801943D01*
X80505923Y-91764764D01*
X80490594Y-91724320D01*
X80481048Y-91683764D01*
X80478402Y-91646250D01*
X80483774Y-91614932D01*
X80487620Y-91606266D01*
X80493448Y-91596984D01*
X80500796Y-91589419D01*
X80511069Y-91583398D01*
X80525668Y-91578747D01*
X80545996Y-91575290D01*
X80573457Y-91572853D01*
X80609453Y-91571262D01*
X80655386Y-91570343D01*
X80712660Y-91569921D01*
X80780733Y-91569822D01*
X81017108Y-91569822D01*
X81000656Y-91594066D01*
X80990675Y-91610276D01*
X80983888Y-91626249D01*
X80980417Y-91643999D01*
X80980382Y-91665545D01*
X80983904Y-91692903D01*
X80991102Y-91728090D01*
X81002098Y-91773123D01*
X81014115Y-91819118D01*
X81025676Y-91863686D01*
X81035860Y-91904828D01*
X81044116Y-91940169D01*
X81049898Y-91967339D01*
X81052655Y-91983962D01*
X81052811Y-91986478D01*
X81088474Y-91986478D01*
X81088091Y-91979759D01*
X81088089Y-91978763D01*
X81085777Y-91950723D01*
X81078768Y-91911023D01*
X81066955Y-91859128D01*
X81052817Y-91804138D01*
X81041801Y-91762113D01*
X81032191Y-91723926D01*
X81024560Y-91691990D01*
X81019486Y-91668719D01*
X81017544Y-91656523D01*
X81017539Y-91656252D01*
X81018487Y-91643231D01*
X81021471Y-91641093D01*
X81026676Y-91650342D01*
X81034292Y-91671480D01*
X81044505Y-91705010D01*
X81057504Y-91751434D01*
X81068881Y-91793836D01*
X81084147Y-91852711D01*
X81095513Y-91899732D01*
X81103250Y-91936528D01*
X81107630Y-91964724D01*
X81108925Y-91985948D01*
X81151275Y-91985948D01*
X81151589Y-91975270D01*
X81149808Y-91960109D01*
X81144832Y-91933593D01*
X81137210Y-91897973D01*
X81127490Y-91855498D01*
X81116222Y-91808421D01*
X81103954Y-91758990D01*
X81091236Y-91709456D01*
X81078617Y-91662070D01*
X81066645Y-91619083D01*
X81055870Y-91582744D01*
X81055692Y-91582169D01*
X81055344Y-91578592D01*
X81057762Y-91575780D01*
X81064420Y-91573642D01*
X81076792Y-91572088D01*
X81096353Y-91571028D01*
X81124578Y-91570369D01*
X81162941Y-91570023D01*
X81212918Y-91569896D01*
X81255183Y-91569891D01*
X81314180Y-91569945D01*
X81360860Y-91570147D01*
X81397018Y-91570622D01*
X81424447Y-91571496D01*
X81444942Y-91572894D01*
X81460298Y-91574942D01*
X81472308Y-91577766D01*
X81482767Y-91581490D01*
X81493469Y-91586240D01*
X81494283Y-91586619D01*
X81533449Y-91611835D01*
X81563052Y-91646875D01*
X81583720Y-91692511D01*
X81585702Y-91698984D01*
X81593879Y-91725915D01*
X81600148Y-91741581D01*
X81606355Y-91748322D01*
X81614344Y-91748476D01*
X81622547Y-91745701D01*
X81632109Y-91740752D01*
X81636832Y-91733260D01*
X81636763Y-91720448D01*
X81631952Y-91699540D01*
X81623812Y-91672171D01*
X81602172Y-91623900D01*
X81570124Y-91582432D01*
X81529984Y-91550639D01*
X81522323Y-91546296D01*
X81516558Y-91543320D01*
X81510495Y-91540753D01*
X81503094Y-91538561D01*
X81493314Y-91536708D01*
X81480113Y-91535160D01*
X81462451Y-91533881D01*
X81439287Y-91532837D01*
X81409579Y-91531994D01*
X81372287Y-91531315D01*
X81326370Y-91530766D01*
X81270787Y-91530313D01*
X81204496Y-91529919D01*
X81126457Y-91529551D01*
X81035629Y-91529173D01*
X81008800Y-91529065D01*
X80914311Y-91528693D01*
X80832891Y-91528409D01*
X80763499Y-91528240D01*
X80705094Y-91528210D01*
X80656633Y-91528346D01*
X80617075Y-91528672D01*
X80585379Y-91529216D01*
X80560503Y-91530001D01*
X80541406Y-91531054D01*
X80527045Y-91532401D01*
X80516380Y-91534067D01*
X80508368Y-91536077D01*
X80501969Y-91538458D01*
X80496141Y-91541234D01*
X80495231Y-91541697D01*
X80464335Y-91564433D01*
X80444414Y-91595628D01*
X80435406Y-91635477D01*
X80437247Y-91684175D01*
X80441454Y-91708341D01*
X80457734Y-91768404D01*
X80478739Y-91815877D01*
X80504287Y-91850354D01*
X80505772Y-91851817D01*
X80529294Y-91874616D01*
X80515007Y-91888903D01*
X80506232Y-91900707D01*
X80503278Y-91915612D01*
X80504729Y-91937039D01*
X80516875Y-91985150D01*
X80540248Y-92028479D01*
X80572884Y-92064420D01*
X80612818Y-92090363D01*
X80623597Y-92094937D01*
X80634864Y-92098583D01*
X80648354Y-92101349D01*
X80665925Y-92103317D01*
X80689431Y-92104572D01*
X80720729Y-92105197D01*
X80761673Y-92105276D01*
X80814120Y-92104891D01*
X80838959Y-92104623D01*
X80894825Y-92103944D01*
X80938368Y-92103233D01*
X80971376Y-92102331D01*
X80995638Y-92101081D01*
X81012941Y-92099326D01*
X81025073Y-92096906D01*
X81033823Y-92093666D01*
X81040978Y-92089447D01*
X81045182Y-92086430D01*
X81058856Y-92077827D01*
X81066403Y-92076023D01*
X81066922Y-92077107D01*
X81073365Y-92090999D01*
X81090501Y-92101198D01*
X81115040Y-92105915D01*
X81120146Y-92106044D01*
X81151195Y-92106044D01*
X81162150Y-92146613D01*
X81179809Y-92197926D01*
X81202734Y-92237504D01*
X81232694Y-92267283D01*
X81271458Y-92289201D01*
X81302481Y-92300227D01*
X81319048Y-92303081D01*
X81346760Y-92305534D01*
X81383421Y-92307573D01*
X81426839Y-92309182D01*
X81474822Y-92310346D01*
X81525174Y-92311050D01*
X81575704Y-92311279D01*
X81624218Y-92311018D01*
X81668523Y-92310252D01*
X81706426Y-92308967D01*
X81735733Y-92307146D01*
X81754250Y-92304775D01*
X81758831Y-92303351D01*
X81768115Y-92290914D01*
X81772377Y-92268081D01*
X81771556Y-92237669D01*
X81765587Y-92202494D01*
X81761412Y-92186567D01*
X81755221Y-92166894D01*
X81748330Y-92152130D01*
X81738759Y-92141572D01*
X81724528Y-92134514D01*
X81703659Y-92130253D01*
X81674170Y-92128086D01*
X81634084Y-92127307D01*
X81594519Y-92127211D01*
X81548945Y-92127059D01*
X81515663Y-92126503D01*
X81492856Y-92125388D01*
X81478707Y-92123561D01*
X81471398Y-92120870D01*
X81469112Y-92117160D01*
X81469089Y-92116627D01*
X81471429Y-92111678D01*
X81480000Y-92108507D01*
X81497128Y-92106761D01*
X81525140Y-92106090D01*
X81539185Y-92106044D01*
X81581561Y-92105050D01*
X81612977Y-92101586D01*
X81636476Y-92094928D01*
X81655100Y-92084350D01*
X81664881Y-92076122D01*
X81676024Y-92067135D01*
X81680397Y-92068409D01*
X81680756Y-92071971D01*
X81685630Y-92084758D01*
X81693658Y-92094367D01*
X81698227Y-92097423D01*
X81705422Y-92099901D01*
X81716627Y-92101860D01*
X81733227Y-92103359D01*
X81756608Y-92104458D01*
X81788154Y-92105216D01*
X81829250Y-92105691D01*
X81881280Y-92105942D01*
X81945630Y-92106030D01*
X81967061Y-92106033D01*
X82035428Y-92105977D01*
X82091142Y-92105771D01*
X82135661Y-92105354D01*
X82170443Y-92104662D01*
X82196947Y-92103631D01*
X82216631Y-92102199D01*
X82230952Y-92100301D01*
X82241369Y-92097876D01*
X82249340Y-92094859D01*
X82251754Y-92093686D01*
X82281111Y-92071224D01*
X82300870Y-92039395D01*
X82310751Y-91999430D01*
X82310476Y-91952559D01*
X82299764Y-91900014D01*
X82297491Y-91892517D01*
X82296412Y-91885965D01*
X82300623Y-91884353D01*
X82312849Y-91887871D01*
X82331125Y-91894859D01*
X82400659Y-91929454D01*
X82465909Y-91976312D01*
X82499402Y-92007060D01*
X82544889Y-92059041D01*
X82577101Y-92111327D01*
X82596808Y-92165590D01*
X82604778Y-92223504D01*
X82605033Y-92236702D01*
X82598446Y-92290904D01*
X82579153Y-92340010D01*
X82547858Y-92383314D01*
X82505266Y-92420115D01*
X82452079Y-92449709D01*
X82389001Y-92471394D01*
X82364427Y-92477043D01*
X82314349Y-92483729D01*
X82254598Y-92486104D01*
X82188849Y-92484428D01*
X82120781Y-92478959D01*
X82054069Y-92469959D01*
X81992391Y-92457686D01*
X81957406Y-92448280D01*
X81920084Y-92436942D01*
X81812767Y-92543002D01*
X81781387Y-92574150D01*
X81753954Y-92601639D01*
X81731862Y-92624050D01*
X81716510Y-92639962D01*
X81709292Y-92647953D01*
X81708978Y-92648617D01*
X81717162Y-92645762D01*
X81732840Y-92639292D01*
X81736473Y-92637719D01*
X81769606Y-92625657D01*
X81814298Y-92612942D01*
X81868044Y-92600093D01*
X81928339Y-92587629D01*
X81992681Y-92576069D01*
X82058564Y-92565932D01*
X82121728Y-92557931D01*
X82149711Y-92555259D01*
X82188119Y-92552231D01*
X82233281Y-92549104D01*
X82281525Y-92546134D01*
X82322811Y-92543894D01*
X82381447Y-92540493D01*
X82428610Y-92536513D01*
X82466940Y-92531418D01*
X82499073Y-92524674D01*
X82527649Y-92515744D01*
X82555306Y-92504093D01*
X82579961Y-92491705D01*
X82633709Y-92455729D01*
X82677250Y-92410628D01*
X82709672Y-92357638D01*
X82730064Y-92297997D01*
X82732830Y-92284191D01*
X82735537Y-92264765D01*
X82736367Y-92245180D01*
X82734974Y-92223339D01*
X82731016Y-92197142D01*
X82724149Y-92164489D01*
X82714027Y-92123282D01*
X82700308Y-92071422D01*
X82694384Y-92049600D01*
X82686881Y-92021959D01*
X82676336Y-91982932D01*
X82663353Y-91934760D01*
X82648535Y-91879690D01*
X82632487Y-91819964D01*
X82615812Y-91757828D01*
X82601352Y-91703877D01*
X82578148Y-91618560D01*
X82557804Y-91546532D01*
X82540353Y-91487904D01*
X82525828Y-91442782D01*
X82514263Y-91411276D01*
X82508972Y-91399382D01*
X82469671Y-91335637D01*
X82418339Y-91276672D01*
X82356604Y-91223711D01*
X82286089Y-91177976D01*
X82208421Y-91140690D01*
X82130105Y-91114374D01*
X82103549Y-91107841D01*
X82076274Y-91102669D01*
X82045488Y-91098534D01*
X82008399Y-91095115D01*
X81962213Y-91092087D01*
X81917117Y-91089744D01*
X81847749Y-91086143D01*
X81788577Y-91082389D01*
X81735686Y-91078102D01*
X81685164Y-91072905D01*
X81633097Y-91066421D01*
X81575570Y-91058269D01*
X81547166Y-91054004D01*
X81505509Y-91046950D01*
X81458741Y-91037861D01*
X81410383Y-91027532D01*
X81363956Y-91016761D01*
X81322981Y-91006346D01*
X81290980Y-90997082D01*
X81281344Y-90993829D01*
X81274831Y-90991729D01*
X81272429Y-90991841D01*
G36*
X84604158Y-93428309D02*
X84523752Y-93428463D01*
X84448674Y-93428709D01*
X84380019Y-93429039D01*
X84318882Y-93429445D01*
X84266358Y-93429917D01*
X84223544Y-93430447D01*
X84191534Y-93431028D01*
X84171426Y-93431650D01*
X84164313Y-93432304D01*
X84164311Y-93432316D01*
X84167175Y-93439878D01*
X84174997Y-93457603D01*
X84186621Y-93482938D01*
X84200890Y-93513327D01*
X84202626Y-93516983D01*
X84240941Y-93597589D01*
X84285529Y-93597729D01*
X84356154Y-93601770D01*
X84417363Y-93613235D01*
X84468267Y-93631840D01*
X84507977Y-93657302D01*
X84524522Y-93673885D01*
X84535363Y-93689450D01*
X84550506Y-93714782D01*
X84568256Y-93746873D01*
X84586919Y-93782718D01*
X84594869Y-93798673D01*
X84611846Y-93833721D01*
X84632807Y-93877783D01*
X84657199Y-93929646D01*
X84684470Y-93988096D01*
X84714069Y-94051920D01*
X84745444Y-94119903D01*
X84778044Y-94190833D01*
X84811316Y-94263497D01*
X84844708Y-94336680D01*
X84877669Y-94409170D01*
X84909648Y-94479752D01*
X84940092Y-94547214D01*
X84968449Y-94610342D01*
X84994168Y-94667923D01*
X85016697Y-94718742D01*
X85035485Y-94761588D01*
X85049978Y-94795246D01*
X85059627Y-94818502D01*
X85063847Y-94830022D01*
X85069401Y-94865233D01*
X85065132Y-94893438D01*
X85050298Y-94915288D01*
X85024158Y-94931432D01*
X84985972Y-94942521D01*
X84934998Y-94949205D01*
X84927374Y-94949786D01*
X84863574Y-94954315D01*
X84877719Y-94982041D01*
X84897589Y-95008215D01*
X84917907Y-95020683D01*
X84963467Y-95034808D01*
X85021935Y-95044380D01*
X85093406Y-95049402D01*
X85177975Y-95049880D01*
X85275738Y-95045816D01*
X85360111Y-95039592D01*
X85413910Y-95035304D01*
X85457117Y-95032723D01*
X85493137Y-95031790D01*
X85525377Y-95032444D01*
X85557244Y-95034625D01*
X85570200Y-95035865D01*
X85625387Y-95044072D01*
X85682120Y-95057067D01*
X85736060Y-95073588D01*
X85782867Y-95092376D01*
X85805984Y-95104365D01*
X85820595Y-95112086D01*
X85835085Y-95117099D01*
X85853010Y-95119974D01*
X85877925Y-95121280D01*
X85913388Y-95121589D01*
X85991343Y-95121589D01*
X85966574Y-95066909D01*
X85952718Y-95036661D01*
X85938815Y-95006867D01*
X85927555Y-94983282D01*
X85926182Y-94980478D01*
X85910561Y-94948728D01*
X85818839Y-94945050D01*
X85780308Y-94943285D01*
X85752543Y-94941181D01*
X85732200Y-94938103D01*
X85715936Y-94933417D01*
X85700410Y-94926489D01*
X85689026Y-94920427D01*
X85652144Y-94893909D01*
X85623033Y-94862526D01*
X85614154Y-94848088D01*
X85599680Y-94820932D01*
X85579704Y-94781251D01*
X85554319Y-94729242D01*
X85523620Y-94665099D01*
X85487698Y-94589017D01*
X85446648Y-94501192D01*
X85400563Y-94401818D01*
X85349535Y-94291090D01*
X85347852Y-94287427D01*
X85302938Y-94189589D01*
X85263619Y-94103712D01*
X85229537Y-94028967D01*
X85200330Y-93964522D01*
X85175639Y-93909548D01*
X85155104Y-93863213D01*
X85138364Y-93824687D01*
X85125058Y-93793139D01*
X85114828Y-93767740D01*
X85107313Y-93747657D01*
X85102152Y-93732061D01*
X85098986Y-93720121D01*
X85097454Y-93711007D01*
X85097332Y-93709702D01*
X85096888Y-93683308D01*
X85099647Y-93662086D01*
X85102159Y-93655044D01*
X85118839Y-93637399D01*
X85147740Y-93622242D01*
X85187080Y-93610321D01*
X85224428Y-93603677D01*
X85251322Y-93599933D01*
X85272179Y-93596693D01*
X85283592Y-93594500D01*
X85284712Y-93594092D01*
X85282788Y-93587341D01*
X85276029Y-93570232D01*
X85265460Y-93545241D01*
X85252105Y-93514848D01*
X85250043Y-93510239D01*
X85213277Y-93428256D01*
X84688794Y-93428256D01*
X84604158Y-93428309D01*
X84604158Y-93428309D01*
G37*
X84604158Y-93428309D02*
X84523752Y-93428463D01*
X84448674Y-93428709D01*
X84380019Y-93429039D01*
X84318882Y-93429445D01*
X84266358Y-93429917D01*
X84223544Y-93430447D01*
X84191534Y-93431028D01*
X84171426Y-93431650D01*
X84164313Y-93432304D01*
X84164311Y-93432316D01*
X84167175Y-93439878D01*
X84174997Y-93457603D01*
X84186621Y-93482938D01*
X84200890Y-93513327D01*
X84202626Y-93516983D01*
X84240941Y-93597589D01*
X84285529Y-93597729D01*
X84356154Y-93601770D01*
X84417363Y-93613235D01*
X84468267Y-93631840D01*
X84507977Y-93657302D01*
X84524522Y-93673885D01*
X84535363Y-93689450D01*
X84550506Y-93714782D01*
X84568256Y-93746873D01*
X84586919Y-93782718D01*
X84594869Y-93798673D01*
X84611846Y-93833721D01*
X84632807Y-93877783D01*
X84657199Y-93929646D01*
X84684470Y-93988096D01*
X84714069Y-94051920D01*
X84745444Y-94119903D01*
X84778044Y-94190833D01*
X84811316Y-94263497D01*
X84844708Y-94336680D01*
X84877669Y-94409170D01*
X84909648Y-94479752D01*
X84940092Y-94547214D01*
X84968449Y-94610342D01*
X84994168Y-94667923D01*
X85016697Y-94718742D01*
X85035485Y-94761588D01*
X85049978Y-94795246D01*
X85059627Y-94818502D01*
X85063847Y-94830022D01*
X85069401Y-94865233D01*
X85065132Y-94893438D01*
X85050298Y-94915288D01*
X85024158Y-94931432D01*
X84985972Y-94942521D01*
X84934998Y-94949205D01*
X84927374Y-94949786D01*
X84863574Y-94954315D01*
X84877719Y-94982041D01*
X84897589Y-95008215D01*
X84917907Y-95020683D01*
X84963467Y-95034808D01*
X85021935Y-95044380D01*
X85093406Y-95049402D01*
X85177975Y-95049880D01*
X85275738Y-95045816D01*
X85360111Y-95039592D01*
X85413910Y-95035304D01*
X85457117Y-95032723D01*
X85493137Y-95031790D01*
X85525377Y-95032444D01*
X85557244Y-95034625D01*
X85570200Y-95035865D01*
X85625387Y-95044072D01*
X85682120Y-95057067D01*
X85736060Y-95073588D01*
X85782867Y-95092376D01*
X85805984Y-95104365D01*
X85820595Y-95112086D01*
X85835085Y-95117099D01*
X85853010Y-95119974D01*
X85877925Y-95121280D01*
X85913388Y-95121589D01*
X85991343Y-95121589D01*
X85966574Y-95066909D01*
X85952718Y-95036661D01*
X85938815Y-95006867D01*
X85927555Y-94983282D01*
X85926182Y-94980478D01*
X85910561Y-94948728D01*
X85818839Y-94945050D01*
X85780308Y-94943285D01*
X85752543Y-94941181D01*
X85732200Y-94938103D01*
X85715936Y-94933417D01*
X85700410Y-94926489D01*
X85689026Y-94920427D01*
X85652144Y-94893909D01*
X85623033Y-94862526D01*
X85614154Y-94848088D01*
X85599680Y-94820932D01*
X85579704Y-94781251D01*
X85554319Y-94729242D01*
X85523620Y-94665099D01*
X85487698Y-94589017D01*
X85446648Y-94501192D01*
X85400563Y-94401818D01*
X85349535Y-94291090D01*
X85347852Y-94287427D01*
X85302938Y-94189589D01*
X85263619Y-94103712D01*
X85229537Y-94028967D01*
X85200330Y-93964522D01*
X85175639Y-93909548D01*
X85155104Y-93863213D01*
X85138364Y-93824687D01*
X85125058Y-93793139D01*
X85114828Y-93767740D01*
X85107313Y-93747657D01*
X85102152Y-93732061D01*
X85098986Y-93720121D01*
X85097454Y-93711007D01*
X85097332Y-93709702D01*
X85096888Y-93683308D01*
X85099647Y-93662086D01*
X85102159Y-93655044D01*
X85118839Y-93637399D01*
X85147740Y-93622242D01*
X85187080Y-93610321D01*
X85224428Y-93603677D01*
X85251322Y-93599933D01*
X85272179Y-93596693D01*
X85283592Y-93594500D01*
X85284712Y-93594092D01*
X85282788Y-93587341D01*
X85276029Y-93570232D01*
X85265460Y-93545241D01*
X85252105Y-93514848D01*
X85250043Y-93510239D01*
X85213277Y-93428256D01*
X84688794Y-93428256D01*
X84604158Y-93428309D01*
G36*
X86493536Y-93407107D02*
X86419042Y-93407180D01*
X86356558Y-93407341D01*
X86305033Y-93407620D01*
X86263415Y-93408050D01*
X86230655Y-93408662D01*
X86205702Y-93409487D01*
X86187504Y-93410556D01*
X86175011Y-93411902D01*
X86167173Y-93413555D01*
X86162938Y-93415547D01*
X86161255Y-93417910D01*
X86161033Y-93419666D01*
X86162208Y-93428247D01*
X86165551Y-93449149D01*
X86170789Y-93480794D01*
X86177650Y-93521603D01*
X86185860Y-93569999D01*
X86195147Y-93624404D01*
X86205238Y-93683239D01*
X86215861Y-93744928D01*
X86226741Y-93807891D01*
X86237607Y-93870552D01*
X86248185Y-93931332D01*
X86258203Y-93988653D01*
X86267388Y-94040938D01*
X86275467Y-94086608D01*
X86282168Y-94124085D01*
X86287217Y-94151792D01*
X86290341Y-94168151D01*
X86290918Y-94170853D01*
X86292196Y-94181230D01*
X86291338Y-94183200D01*
X86286719Y-94177773D01*
X86274156Y-94162087D01*
X86254349Y-94137038D01*
X86227999Y-94103521D01*
X86195807Y-94062431D01*
X86158473Y-94014663D01*
X86116698Y-93961111D01*
X86071182Y-93902671D01*
X86022626Y-93840238D01*
X85987596Y-93795145D01*
X85686285Y-93407089D01*
X85486214Y-93407089D01*
X85434724Y-93407292D01*
X85388142Y-93407864D01*
X85348245Y-93408752D01*
X85316804Y-93409904D01*
X85295594Y-93411266D01*
X85286390Y-93412785D01*
X85286144Y-93413083D01*
X85289025Y-93421301D01*
X85296936Y-93439774D01*
X85308784Y-93466043D01*
X85323473Y-93497650D01*
X85329129Y-93509613D01*
X85350684Y-93556519D01*
X85365555Y-93592741D01*
X85374174Y-93619779D01*
X85376979Y-93639131D01*
X85374404Y-93652297D01*
X85371742Y-93656440D01*
X85359638Y-93662061D01*
X85333483Y-93666677D01*
X85293267Y-93670289D01*
X85287001Y-93670685D01*
X85252960Y-93673348D01*
X85221924Y-93676839D01*
X85197993Y-93680641D01*
X85187591Y-93683235D01*
X85172421Y-93690028D01*
X85167593Y-93699203D01*
X85169235Y-93713860D01*
X85175847Y-93738182D01*
X85188762Y-93774631D01*
X85207796Y-93822803D01*
X85232768Y-93882292D01*
X85263495Y-93952694D01*
X85299793Y-94033603D01*
X85341480Y-94124616D01*
X85388374Y-94225326D01*
X85440291Y-94335329D01*
X85497050Y-94454220D01*
X85558466Y-94581594D01*
X85591145Y-94648913D01*
X85619127Y-94705796D01*
X85642355Y-94751235D01*
X85661820Y-94786675D01*
X85678511Y-94813562D01*
X85693420Y-94833340D01*
X85707537Y-94847454D01*
X85721852Y-94857351D01*
X85737357Y-94864473D01*
X85739443Y-94865246D01*
X85755410Y-94868541D01*
X85781788Y-94871315D01*
X85814876Y-94873271D01*
X85850033Y-94874108D01*
X85889286Y-94874735D01*
X85916807Y-94876237D01*
X85934958Y-94878887D01*
X85946107Y-94882960D01*
X85949853Y-94885668D01*
X85956386Y-94895315D01*
X85967458Y-94915742D01*
X85981988Y-94944787D01*
X85998901Y-94980286D01*
X86017116Y-95020073D01*
X86019824Y-95026120D01*
X86041000Y-95072858D01*
X86057676Y-95107929D01*
X86070628Y-95132752D01*
X86080633Y-95148746D01*
X86088467Y-95157331D01*
X86092865Y-95159639D01*
X86123317Y-95163487D01*
X86160569Y-95159994D01*
X86206566Y-95148897D01*
X86232509Y-95140730D01*
X86300457Y-95118062D01*
X86089699Y-94688196D01*
X86054158Y-94615630D01*
X86020549Y-94546865D01*
X85989375Y-94482934D01*
X85961135Y-94424871D01*
X85936331Y-94373712D01*
X85915464Y-94330490D01*
X85899034Y-94296240D01*
X85887543Y-94271995D01*
X85881492Y-94258792D01*
X85880668Y-94256602D01*
X85885071Y-94261785D01*
X85897329Y-94277006D01*
X85916598Y-94301193D01*
X85942036Y-94333274D01*
X85972798Y-94372175D01*
X86008043Y-94416823D01*
X86046926Y-94466146D01*
X86088605Y-94519070D01*
X86132236Y-94574524D01*
X86176976Y-94631433D01*
X86221982Y-94688726D01*
X86266410Y-94745329D01*
X86309418Y-94800170D01*
X86350163Y-94852176D01*
X86387800Y-94900273D01*
X86421487Y-94943389D01*
X86450380Y-94980452D01*
X86473637Y-95010388D01*
X86490415Y-95032124D01*
X86497390Y-95041275D01*
X86502853Y-95046469D01*
X86511146Y-95048432D01*
X86525484Y-95047084D01*
X86549080Y-95042344D01*
X86560890Y-95039694D01*
X86625511Y-95029442D01*
X86694150Y-95026381D01*
X86763421Y-95030155D01*
X86829937Y-95040407D01*
X86890311Y-95056783D01*
X86941157Y-95078925D01*
X86942783Y-95079834D01*
X86973343Y-95094303D01*
X86995382Y-95098621D01*
X87008449Y-95092850D01*
X87012092Y-95077054D01*
X87011255Y-95070231D01*
X86994808Y-94978090D01*
X86978528Y-94886591D01*
X86962597Y-94796785D01*
X86947201Y-94709723D01*
X86932521Y-94626454D01*
X86918742Y-94548028D01*
X86906048Y-94475497D01*
X86894621Y-94409909D01*
X86884646Y-94352316D01*
X86876306Y-94303766D01*
X86869784Y-94265311D01*
X86865264Y-94238001D01*
X86862930Y-94222886D01*
X86862660Y-94220100D01*
X86866269Y-94225784D01*
X86875777Y-94243737D01*
X86890965Y-94273514D01*
X86911611Y-94314670D01*
X86937496Y-94366759D01*
X86968398Y-94429336D01*
X87004098Y-94501956D01*
X87044375Y-94584173D01*
X87089009Y-94675541D01*
X87137779Y-94775617D01*
X87149115Y-94798909D01*
X87178289Y-94858692D01*
X87202059Y-94906907D01*
X87221082Y-94944729D01*
X87236014Y-94973332D01*
X87247514Y-94993892D01*
X87256237Y-95007584D01*
X87262840Y-95015581D01*
X87267981Y-95019061D01*
X87272283Y-95019206D01*
X87327193Y-95004450D01*
X87370933Y-94993140D01*
X87405897Y-94984822D01*
X87434476Y-94979040D01*
X87459061Y-94975337D01*
X87482045Y-94973260D01*
X87505820Y-94972353D01*
X87519227Y-94972192D01*
X87599491Y-94977767D01*
X87672883Y-94995465D01*
X87739144Y-95025204D01*
X87786545Y-95057369D01*
X87802716Y-95069947D01*
X87813676Y-95077861D01*
X87816206Y-95079256D01*
X87815562Y-95076607D01*
X87812085Y-95068321D01*
X87805528Y-95053893D01*
X87795646Y-95032815D01*
X87782193Y-95004582D01*
X87764922Y-94968688D01*
X87743587Y-94924625D01*
X87717941Y-94871887D01*
X87687740Y-94809968D01*
X87652736Y-94738362D01*
X87612683Y-94656562D01*
X87567336Y-94564062D01*
X87516447Y-94460356D01*
X87459771Y-94344936D01*
X87406310Y-94236117D01*
X87362571Y-94147081D01*
X87319601Y-94059562D01*
X87277941Y-93974668D01*
X87238135Y-93893507D01*
X87200724Y-93817185D01*
X87166251Y-93746810D01*
X87135258Y-93683488D01*
X87108288Y-93628328D01*
X87085882Y-93582437D01*
X87068584Y-93546921D01*
X87056936Y-93522888D01*
X87056384Y-93521742D01*
X87001148Y-93407089D01*
X86581090Y-93407089D01*
X86493536Y-93407107D01*
X86493536Y-93407107D01*
G37*
X86493536Y-93407107D02*
X86419042Y-93407180D01*
X86356558Y-93407341D01*
X86305033Y-93407620D01*
X86263415Y-93408050D01*
X86230655Y-93408662D01*
X86205702Y-93409487D01*
X86187504Y-93410556D01*
X86175011Y-93411902D01*
X86167173Y-93413555D01*
X86162938Y-93415547D01*
X86161255Y-93417910D01*
X86161033Y-93419666D01*
X86162208Y-93428247D01*
X86165551Y-93449149D01*
X86170789Y-93480794D01*
X86177650Y-93521603D01*
X86185860Y-93569999D01*
X86195147Y-93624404D01*
X86205238Y-93683239D01*
X86215861Y-93744928D01*
X86226741Y-93807891D01*
X86237607Y-93870552D01*
X86248185Y-93931332D01*
X86258203Y-93988653D01*
X86267388Y-94040938D01*
X86275467Y-94086608D01*
X86282168Y-94124085D01*
X86287217Y-94151792D01*
X86290341Y-94168151D01*
X86290918Y-94170853D01*
X86292196Y-94181230D01*
X86291338Y-94183200D01*
X86286719Y-94177773D01*
X86274156Y-94162087D01*
X86254349Y-94137038D01*
X86227999Y-94103521D01*
X86195807Y-94062431D01*
X86158473Y-94014663D01*
X86116698Y-93961111D01*
X86071182Y-93902671D01*
X86022626Y-93840238D01*
X85987596Y-93795145D01*
X85686285Y-93407089D01*
X85486214Y-93407089D01*
X85434724Y-93407292D01*
X85388142Y-93407864D01*
X85348245Y-93408752D01*
X85316804Y-93409904D01*
X85295594Y-93411266D01*
X85286390Y-93412785D01*
X85286144Y-93413083D01*
X85289025Y-93421301D01*
X85296936Y-93439774D01*
X85308784Y-93466043D01*
X85323473Y-93497650D01*
X85329129Y-93509613D01*
X85350684Y-93556519D01*
X85365555Y-93592741D01*
X85374174Y-93619779D01*
X85376979Y-93639131D01*
X85374404Y-93652297D01*
X85371742Y-93656440D01*
X85359638Y-93662061D01*
X85333483Y-93666677D01*
X85293267Y-93670289D01*
X85287001Y-93670685D01*
X85252960Y-93673348D01*
X85221924Y-93676839D01*
X85197993Y-93680641D01*
X85187591Y-93683235D01*
X85172421Y-93690028D01*
X85167593Y-93699203D01*
X85169235Y-93713860D01*
X85175847Y-93738182D01*
X85188762Y-93774631D01*
X85207796Y-93822803D01*
X85232768Y-93882292D01*
X85263495Y-93952694D01*
X85299793Y-94033603D01*
X85341480Y-94124616D01*
X85388374Y-94225326D01*
X85440291Y-94335329D01*
X85497050Y-94454220D01*
X85558466Y-94581594D01*
X85591145Y-94648913D01*
X85619127Y-94705796D01*
X85642355Y-94751235D01*
X85661820Y-94786675D01*
X85678511Y-94813562D01*
X85693420Y-94833340D01*
X85707537Y-94847454D01*
X85721852Y-94857351D01*
X85737357Y-94864473D01*
X85739443Y-94865246D01*
X85755410Y-94868541D01*
X85781788Y-94871315D01*
X85814876Y-94873271D01*
X85850033Y-94874108D01*
X85889286Y-94874735D01*
X85916807Y-94876237D01*
X85934958Y-94878887D01*
X85946107Y-94882960D01*
X85949853Y-94885668D01*
X85956386Y-94895315D01*
X85967458Y-94915742D01*
X85981988Y-94944787D01*
X85998901Y-94980286D01*
X86017116Y-95020073D01*
X86019824Y-95026120D01*
X86041000Y-95072858D01*
X86057676Y-95107929D01*
X86070628Y-95132752D01*
X86080633Y-95148746D01*
X86088467Y-95157331D01*
X86092865Y-95159639D01*
X86123317Y-95163487D01*
X86160569Y-95159994D01*
X86206566Y-95148897D01*
X86232509Y-95140730D01*
X86300457Y-95118062D01*
X86089699Y-94688196D01*
X86054158Y-94615630D01*
X86020549Y-94546865D01*
X85989375Y-94482934D01*
X85961135Y-94424871D01*
X85936331Y-94373712D01*
X85915464Y-94330490D01*
X85899034Y-94296240D01*
X85887543Y-94271995D01*
X85881492Y-94258792D01*
X85880668Y-94256602D01*
X85885071Y-94261785D01*
X85897329Y-94277006D01*
X85916598Y-94301193D01*
X85942036Y-94333274D01*
X85972798Y-94372175D01*
X86008043Y-94416823D01*
X86046926Y-94466146D01*
X86088605Y-94519070D01*
X86132236Y-94574524D01*
X86176976Y-94631433D01*
X86221982Y-94688726D01*
X86266410Y-94745329D01*
X86309418Y-94800170D01*
X86350163Y-94852176D01*
X86387800Y-94900273D01*
X86421487Y-94943389D01*
X86450380Y-94980452D01*
X86473637Y-95010388D01*
X86490415Y-95032124D01*
X86497390Y-95041275D01*
X86502853Y-95046469D01*
X86511146Y-95048432D01*
X86525484Y-95047084D01*
X86549080Y-95042344D01*
X86560890Y-95039694D01*
X86625511Y-95029442D01*
X86694150Y-95026381D01*
X86763421Y-95030155D01*
X86829937Y-95040407D01*
X86890311Y-95056783D01*
X86941157Y-95078925D01*
X86942783Y-95079834D01*
X86973343Y-95094303D01*
X86995382Y-95098621D01*
X87008449Y-95092850D01*
X87012092Y-95077054D01*
X87011255Y-95070231D01*
X86994808Y-94978090D01*
X86978528Y-94886591D01*
X86962597Y-94796785D01*
X86947201Y-94709723D01*
X86932521Y-94626454D01*
X86918742Y-94548028D01*
X86906048Y-94475497D01*
X86894621Y-94409909D01*
X86884646Y-94352316D01*
X86876306Y-94303766D01*
X86869784Y-94265311D01*
X86865264Y-94238001D01*
X86862930Y-94222886D01*
X86862660Y-94220100D01*
X86866269Y-94225784D01*
X86875777Y-94243737D01*
X86890965Y-94273514D01*
X86911611Y-94314670D01*
X86937496Y-94366759D01*
X86968398Y-94429336D01*
X87004098Y-94501956D01*
X87044375Y-94584173D01*
X87089009Y-94675541D01*
X87137779Y-94775617D01*
X87149115Y-94798909D01*
X87178289Y-94858692D01*
X87202059Y-94906907D01*
X87221082Y-94944729D01*
X87236014Y-94973332D01*
X87247514Y-94993892D01*
X87256237Y-95007584D01*
X87262840Y-95015581D01*
X87267981Y-95019061D01*
X87272283Y-95019206D01*
X87327193Y-95004450D01*
X87370933Y-94993140D01*
X87405897Y-94984822D01*
X87434476Y-94979040D01*
X87459061Y-94975337D01*
X87482045Y-94973260D01*
X87505820Y-94972353D01*
X87519227Y-94972192D01*
X87599491Y-94977767D01*
X87672883Y-94995465D01*
X87739144Y-95025204D01*
X87786545Y-95057369D01*
X87802716Y-95069947D01*
X87813676Y-95077861D01*
X87816206Y-95079256D01*
X87815562Y-95076607D01*
X87812085Y-95068321D01*
X87805528Y-95053893D01*
X87795646Y-95032815D01*
X87782193Y-95004582D01*
X87764922Y-94968688D01*
X87743587Y-94924625D01*
X87717941Y-94871887D01*
X87687740Y-94809968D01*
X87652736Y-94738362D01*
X87612683Y-94656562D01*
X87567336Y-94564062D01*
X87516447Y-94460356D01*
X87459771Y-94344936D01*
X87406310Y-94236117D01*
X87362571Y-94147081D01*
X87319601Y-94059562D01*
X87277941Y-93974668D01*
X87238135Y-93893507D01*
X87200724Y-93817185D01*
X87166251Y-93746810D01*
X87135258Y-93683488D01*
X87108288Y-93628328D01*
X87085882Y-93582437D01*
X87068584Y-93546921D01*
X87056936Y-93522888D01*
X87056384Y-93521742D01*
X87001148Y-93407089D01*
X86581090Y-93407089D01*
X86493536Y-93407107D01*
G36*
X84723372Y-95055226D02*
X84733525Y-95112389D01*
X84755242Y-95165124D01*
X84787138Y-95211000D01*
X84827829Y-95247585D01*
X84835923Y-95252960D01*
X84855801Y-95263463D01*
X84883589Y-95275612D01*
X84913691Y-95286981D01*
X84917361Y-95288234D01*
X84964632Y-95299904D01*
X85022461Y-95307182D01*
X85087953Y-95309942D01*
X85158213Y-95308055D01*
X85226172Y-95301910D01*
X85261543Y-95297337D01*
X85306009Y-95291209D01*
X85354736Y-95284212D01*
X85402886Y-95277032D01*
X85420200Y-95274371D01*
X85502456Y-95262512D01*
X85578460Y-95253355D01*
X85646560Y-95247037D01*
X85705103Y-95243700D01*
X85752439Y-95243483D01*
X85771951Y-95244638D01*
X85823841Y-95249311D01*
X85809285Y-95228868D01*
X85784923Y-95200649D01*
X85752786Y-95171643D01*
X85718138Y-95146461D01*
X85708593Y-95140660D01*
X85654219Y-95115818D01*
X85590061Y-95098617D01*
X85515652Y-95089017D01*
X85430525Y-95086978D01*
X85334215Y-95092457D01*
X85257922Y-95101004D01*
X85195396Y-95108109D01*
X85131254Y-95113332D01*
X85068015Y-95116625D01*
X85008200Y-95117938D01*
X84954330Y-95117223D01*
X84908926Y-95114433D01*
X84874508Y-95109518D01*
X84869866Y-95108452D01*
X84815014Y-95088598D01*
X84769249Y-95058247D01*
X84746151Y-95035208D01*
X84720030Y-95005173D01*
X84723372Y-95055226D01*
X84723372Y-95055226D01*
G37*
X84723372Y-95055226D02*
X84733525Y-95112389D01*
X84755242Y-95165124D01*
X84787138Y-95211000D01*
X84827829Y-95247585D01*
X84835923Y-95252960D01*
X84855801Y-95263463D01*
X84883589Y-95275612D01*
X84913691Y-95286981D01*
X84917361Y-95288234D01*
X84964632Y-95299904D01*
X85022461Y-95307182D01*
X85087953Y-95309942D01*
X85158213Y-95308055D01*
X85226172Y-95301910D01*
X85261543Y-95297337D01*
X85306009Y-95291209D01*
X85354736Y-95284212D01*
X85402886Y-95277032D01*
X85420200Y-95274371D01*
X85502456Y-95262512D01*
X85578460Y-95253355D01*
X85646560Y-95247037D01*
X85705103Y-95243700D01*
X85752439Y-95243483D01*
X85771951Y-95244638D01*
X85823841Y-95249311D01*
X85809285Y-95228868D01*
X85784923Y-95200649D01*
X85752786Y-95171643D01*
X85718138Y-95146461D01*
X85708593Y-95140660D01*
X85654219Y-95115818D01*
X85590061Y-95098617D01*
X85515652Y-95089017D01*
X85430525Y-95086978D01*
X85334215Y-95092457D01*
X85257922Y-95101004D01*
X85195396Y-95108109D01*
X85131254Y-95113332D01*
X85068015Y-95116625D01*
X85008200Y-95117938D01*
X84954330Y-95117223D01*
X84908926Y-95114433D01*
X84874508Y-95109518D01*
X84869866Y-95108452D01*
X84815014Y-95088598D01*
X84769249Y-95058247D01*
X84746151Y-95035208D01*
X84720030Y-95005173D01*
X84723372Y-95055226D01*
G36*
X87498204Y-95040192D02*
X87454168Y-95046256D01*
X87406290Y-95056458D01*
X87352752Y-95071238D01*
X87291738Y-95091034D01*
X87221432Y-95116285D01*
X87153390Y-95142216D01*
X87086117Y-95168149D01*
X87030370Y-95189131D01*
X86984659Y-95205665D01*
X86947496Y-95218250D01*
X86917389Y-95227388D01*
X86892850Y-95233580D01*
X86872389Y-95237326D01*
X86869228Y-95237753D01*
X86842891Y-95241265D01*
X86817953Y-95244811D01*
X86810962Y-95245869D01*
X86787085Y-95249584D01*
X86814489Y-95277740D01*
X86834599Y-95294821D01*
X86862100Y-95313638D01*
X86891398Y-95330399D01*
X86894426Y-95331923D01*
X86916847Y-95342763D01*
X86934864Y-95350132D01*
X86952215Y-95354760D01*
X86972640Y-95357376D01*
X86999877Y-95358711D01*
X87035537Y-95359458D01*
X87085184Y-95359373D01*
X87125513Y-95356963D01*
X87161180Y-95351854D01*
X87180561Y-95347741D01*
X87206114Y-95341020D01*
X87241492Y-95330698D01*
X87283203Y-95317846D01*
X87327756Y-95303533D01*
X87362305Y-95292020D01*
X87423816Y-95271499D01*
X87474641Y-95255497D01*
X87517274Y-95243490D01*
X87554210Y-95234954D01*
X87587941Y-95229362D01*
X87620962Y-95226192D01*
X87655765Y-95224918D01*
X87681505Y-95224866D01*
X87752645Y-95228458D01*
X87814183Y-95238608D01*
X87869414Y-95256137D01*
X87921628Y-95281868D01*
X87930214Y-95286978D01*
X87953228Y-95300376D01*
X87970871Y-95309464D01*
X87980422Y-95312891D01*
X87981366Y-95312362D01*
X87976959Y-95302260D01*
X87965138Y-95284402D01*
X87948004Y-95261451D01*
X87927660Y-95236074D01*
X87906208Y-95210933D01*
X87885748Y-95188692D01*
X87876568Y-95179512D01*
X87810869Y-95124076D01*
X87743313Y-95082502D01*
X87673547Y-95054620D01*
X87601216Y-95040263D01*
X87582011Y-95038728D01*
X87540212Y-95037829D01*
X87498204Y-95040192D01*
X87498204Y-95040192D01*
G37*
X87498204Y-95040192D02*
X87454168Y-95046256D01*
X87406290Y-95056458D01*
X87352752Y-95071238D01*
X87291738Y-95091034D01*
X87221432Y-95116285D01*
X87153390Y-95142216D01*
X87086117Y-95168149D01*
X87030370Y-95189131D01*
X86984659Y-95205665D01*
X86947496Y-95218250D01*
X86917389Y-95227388D01*
X86892850Y-95233580D01*
X86872389Y-95237326D01*
X86869228Y-95237753D01*
X86842891Y-95241265D01*
X86817953Y-95244811D01*
X86810962Y-95245869D01*
X86787085Y-95249584D01*
X86814489Y-95277740D01*
X86834599Y-95294821D01*
X86862100Y-95313638D01*
X86891398Y-95330399D01*
X86894426Y-95331923D01*
X86916847Y-95342763D01*
X86934864Y-95350132D01*
X86952215Y-95354760D01*
X86972640Y-95357376D01*
X86999877Y-95358711D01*
X87035537Y-95359458D01*
X87085184Y-95359373D01*
X87125513Y-95356963D01*
X87161180Y-95351854D01*
X87180561Y-95347741D01*
X87206114Y-95341020D01*
X87241492Y-95330698D01*
X87283203Y-95317846D01*
X87327756Y-95303533D01*
X87362305Y-95292020D01*
X87423816Y-95271499D01*
X87474641Y-95255497D01*
X87517274Y-95243490D01*
X87554210Y-95234954D01*
X87587941Y-95229362D01*
X87620962Y-95226192D01*
X87655765Y-95224918D01*
X87681505Y-95224866D01*
X87752645Y-95228458D01*
X87814183Y-95238608D01*
X87869414Y-95256137D01*
X87921628Y-95281868D01*
X87930214Y-95286978D01*
X87953228Y-95300376D01*
X87970871Y-95309464D01*
X87980422Y-95312891D01*
X87981366Y-95312362D01*
X87976959Y-95302260D01*
X87965138Y-95284402D01*
X87948004Y-95261451D01*
X87927660Y-95236074D01*
X87906208Y-95210933D01*
X87885748Y-95188692D01*
X87876568Y-95179512D01*
X87810869Y-95124076D01*
X87743313Y-95082502D01*
X87673547Y-95054620D01*
X87601216Y-95040263D01*
X87582011Y-95038728D01*
X87540212Y-95037829D01*
X87498204Y-95040192D01*
G36*
X86669514Y-95074083D02*
X86608074Y-95086802D01*
X86537303Y-95106304D01*
X86456173Y-95132788D01*
X86396427Y-95154198D01*
X86335779Y-95176337D01*
X86286048Y-95193796D01*
X86245042Y-95207118D01*
X86210568Y-95216843D01*
X86180433Y-95223515D01*
X86152446Y-95227674D01*
X86124412Y-95229862D01*
X86094141Y-95230621D01*
X86086950Y-95230650D01*
X86007324Y-95225814D01*
X85936687Y-95211193D01*
X85875606Y-95186944D01*
X85834139Y-95160823D01*
X85818338Y-95149613D01*
X85807275Y-95143280D01*
X85805375Y-95142756D01*
X85804836Y-95147558D01*
X85812249Y-95160560D01*
X85825928Y-95179651D01*
X85844187Y-95202723D01*
X85865341Y-95227667D01*
X85887703Y-95252375D01*
X85909589Y-95274737D01*
X85915023Y-95279934D01*
X85979621Y-95332776D01*
X86046554Y-95371767D01*
X86116265Y-95397043D01*
X86189197Y-95408737D01*
X86265793Y-95406984D01*
X86311869Y-95399899D01*
X86349039Y-95391541D01*
X86386415Y-95380927D01*
X86426080Y-95367234D01*
X86470116Y-95349644D01*
X86520604Y-95327336D01*
X86579625Y-95299488D01*
X86633320Y-95273198D01*
X86699742Y-95240666D01*
X86755337Y-95214316D01*
X86801636Y-95193520D01*
X86840171Y-95177648D01*
X86872472Y-95166071D01*
X86900070Y-95158158D01*
X86924496Y-95153281D01*
X86925229Y-95153170D01*
X86944581Y-95149140D01*
X86956492Y-95144485D01*
X86958311Y-95142276D01*
X86952167Y-95135977D01*
X86935727Y-95126261D01*
X86911978Y-95114475D01*
X86883906Y-95101964D01*
X86854501Y-95090074D01*
X86826747Y-95080150D01*
X86808148Y-95074635D01*
X86768522Y-95068198D01*
X86722654Y-95067948D01*
X86669514Y-95074083D01*
X86669514Y-95074083D01*
G37*
X86669514Y-95074083D02*
X86608074Y-95086802D01*
X86537303Y-95106304D01*
X86456173Y-95132788D01*
X86396427Y-95154198D01*
X86335779Y-95176337D01*
X86286048Y-95193796D01*
X86245042Y-95207118D01*
X86210568Y-95216843D01*
X86180433Y-95223515D01*
X86152446Y-95227674D01*
X86124412Y-95229862D01*
X86094141Y-95230621D01*
X86086950Y-95230650D01*
X86007324Y-95225814D01*
X85936687Y-95211193D01*
X85875606Y-95186944D01*
X85834139Y-95160823D01*
X85818338Y-95149613D01*
X85807275Y-95143280D01*
X85805375Y-95142756D01*
X85804836Y-95147558D01*
X85812249Y-95160560D01*
X85825928Y-95179651D01*
X85844187Y-95202723D01*
X85865341Y-95227667D01*
X85887703Y-95252375D01*
X85909589Y-95274737D01*
X85915023Y-95279934D01*
X85979621Y-95332776D01*
X86046554Y-95371767D01*
X86116265Y-95397043D01*
X86189197Y-95408737D01*
X86265793Y-95406984D01*
X86311869Y-95399899D01*
X86349039Y-95391541D01*
X86386415Y-95380927D01*
X86426080Y-95367234D01*
X86470116Y-95349644D01*
X86520604Y-95327336D01*
X86579625Y-95299488D01*
X86633320Y-95273198D01*
X86699742Y-95240666D01*
X86755337Y-95214316D01*
X86801636Y-95193520D01*
X86840171Y-95177648D01*
X86872472Y-95166071D01*
X86900070Y-95158158D01*
X86924496Y-95153281D01*
X86925229Y-95153170D01*
X86944581Y-95149140D01*
X86956492Y-95144485D01*
X86958311Y-95142276D01*
X86952167Y-95135977D01*
X86935727Y-95126261D01*
X86911978Y-95114475D01*
X86883906Y-95101964D01*
X86854501Y-95090074D01*
X86826747Y-95080150D01*
X86808148Y-95074635D01*
X86768522Y-95068198D01*
X86722654Y-95067948D01*
X86669514Y-95074083D01*
G36*
X78919181Y-94656004D02*
X78880125Y-94660956D01*
X78851675Y-94669990D01*
X78833915Y-94683073D01*
X78828173Y-94693633D01*
X78824791Y-94722981D01*
X78831132Y-94751868D01*
X78838279Y-94765243D01*
X78844925Y-94774087D01*
X78851950Y-94779929D01*
X78861842Y-94783520D01*
X78877088Y-94785615D01*
X78900176Y-94786965D01*
X78911657Y-94787445D01*
X78971423Y-94789851D01*
X78971423Y-94652589D01*
X78919181Y-94656004D01*
X78919181Y-94656004D01*
G37*
X78919181Y-94656004D02*
X78880125Y-94660956D01*
X78851675Y-94669990D01*
X78833915Y-94683073D01*
X78828173Y-94693633D01*
X78824791Y-94722981D01*
X78831132Y-94751868D01*
X78838279Y-94765243D01*
X78844925Y-94774087D01*
X78851950Y-94779929D01*
X78861842Y-94783520D01*
X78877088Y-94785615D01*
X78900176Y-94786965D01*
X78911657Y-94787445D01*
X78971423Y-94789851D01*
X78971423Y-94652589D01*
X78919181Y-94656004D01*
G36*
X78026054Y-94727645D02*
X78019898Y-94742375D01*
X78011625Y-94764481D01*
X78002220Y-94791075D01*
X77992672Y-94819269D01*
X77983966Y-94846174D01*
X77977090Y-94868903D01*
X77973031Y-94884568D01*
X77972356Y-94889221D01*
X77977591Y-94891447D01*
X77991662Y-94893193D01*
X78012118Y-94894224D01*
X78025978Y-94894400D01*
X78053732Y-94893621D01*
X78071766Y-94891350D01*
X78079387Y-94887684D01*
X78079600Y-94886813D01*
X78077617Y-94877204D01*
X78072348Y-94857865D01*
X78064816Y-94832109D01*
X78056043Y-94803249D01*
X78047053Y-94774599D01*
X78038866Y-94749473D01*
X78032507Y-94731182D01*
X78029104Y-94723178D01*
X78026054Y-94727645D01*
X78026054Y-94727645D01*
G37*
X78026054Y-94727645D02*
X78019898Y-94742375D01*
X78011625Y-94764481D01*
X78002220Y-94791075D01*
X77992672Y-94819269D01*
X77983966Y-94846174D01*
X77977090Y-94868903D01*
X77973031Y-94884568D01*
X77972356Y-94889221D01*
X77977591Y-94891447D01*
X77991662Y-94893193D01*
X78012118Y-94894224D01*
X78025978Y-94894400D01*
X78053732Y-94893621D01*
X78071766Y-94891350D01*
X78079387Y-94887684D01*
X78079600Y-94886813D01*
X78077617Y-94877204D01*
X78072348Y-94857865D01*
X78064816Y-94832109D01*
X78056043Y-94803249D01*
X78047053Y-94774599D01*
X78038866Y-94749473D01*
X78032507Y-94731182D01*
X78029104Y-94723178D01*
X78026054Y-94727645D01*
G36*
X79498523Y-94654666D02*
X79461002Y-94661061D01*
X79428506Y-94678666D01*
X79401715Y-94705667D01*
X79381305Y-94740252D01*
X79367957Y-94780608D01*
X79362347Y-94824922D01*
X79365155Y-94871381D01*
X79377057Y-94918172D01*
X79389319Y-94946589D01*
X79411347Y-94977475D01*
X79440769Y-95000354D01*
X79475113Y-95014071D01*
X79511904Y-95017472D01*
X79534025Y-95014107D01*
X79566499Y-95001638D01*
X79592796Y-94980674D01*
X79610594Y-94958139D01*
X79629748Y-94920208D01*
X79640735Y-94876494D01*
X79643728Y-94830056D01*
X79638901Y-94783954D01*
X79626425Y-94741246D01*
X79606475Y-94704993D01*
X79595544Y-94692051D01*
X79568488Y-94670506D01*
X79537170Y-94658388D01*
X79498917Y-94654665D01*
X79498523Y-94654666D01*
X79498523Y-94654666D01*
G37*
X79498523Y-94654666D02*
X79461002Y-94661061D01*
X79428506Y-94678666D01*
X79401715Y-94705667D01*
X79381305Y-94740252D01*
X79367957Y-94780608D01*
X79362347Y-94824922D01*
X79365155Y-94871381D01*
X79377057Y-94918172D01*
X79389319Y-94946589D01*
X79411347Y-94977475D01*
X79440769Y-95000354D01*
X79475113Y-95014071D01*
X79511904Y-95017472D01*
X79534025Y-95014107D01*
X79566499Y-95001638D01*
X79592796Y-94980674D01*
X79610594Y-94958139D01*
X79629748Y-94920208D01*
X79640735Y-94876494D01*
X79643728Y-94830056D01*
X79638901Y-94783954D01*
X79626425Y-94741246D01*
X79606475Y-94704993D01*
X79595544Y-94692051D01*
X79568488Y-94670506D01*
X79537170Y-94658388D01*
X79498917Y-94654665D01*
X79498523Y-94654666D01*
G36*
X77921068Y-95043942D02*
X77912599Y-95068694D01*
X77906292Y-95087486D01*
X77903258Y-95101129D01*
X77904608Y-95110432D01*
X77911451Y-95116205D01*
X77924898Y-95119257D01*
X77946059Y-95120400D01*
X77976045Y-95120441D01*
X78015965Y-95120192D01*
X78025598Y-95120178D01*
X78062157Y-95120086D01*
X78094616Y-95119830D01*
X78121386Y-95119436D01*
X78140874Y-95118931D01*
X78151492Y-95118342D01*
X78152978Y-95118012D01*
X78151010Y-95110960D01*
X78145735Y-95093878D01*
X78138101Y-95069804D01*
X78133753Y-95056276D01*
X78114528Y-94996706D01*
X77936556Y-94996706D01*
X77921068Y-95043942D01*
X77921068Y-95043942D01*
G37*
X77921068Y-95043942D02*
X77912599Y-95068694D01*
X77906292Y-95087486D01*
X77903258Y-95101129D01*
X77904608Y-95110432D01*
X77911451Y-95116205D01*
X77924898Y-95119257D01*
X77946059Y-95120400D01*
X77976045Y-95120441D01*
X78015965Y-95120192D01*
X78025598Y-95120178D01*
X78062157Y-95120086D01*
X78094616Y-95119830D01*
X78121386Y-95119436D01*
X78140874Y-95118931D01*
X78151492Y-95118342D01*
X78152978Y-95118012D01*
X78151010Y-95110960D01*
X78145735Y-95093878D01*
X78138101Y-95069804D01*
X78133753Y-95056276D01*
X78114528Y-94996706D01*
X77936556Y-94996706D01*
X77921068Y-95043942D01*
G36*
X78944612Y-94887522D02*
X78917800Y-94887700D01*
X78869199Y-95003939D01*
X78820597Y-95120178D01*
X78971423Y-95120178D01*
X78971423Y-94887345D01*
X78944612Y-94887522D01*
X78944612Y-94887522D01*
G37*
X78944612Y-94887522D02*
X78917800Y-94887700D01*
X78869199Y-95003939D01*
X78820597Y-95120178D01*
X78971423Y-95120178D01*
X78971423Y-94887345D01*
X78944612Y-94887522D01*
G36*
X80040164Y-94689560D02*
X80039588Y-94707974D01*
X80039089Y-94737181D01*
X80038685Y-94775521D01*
X80038396Y-94821336D01*
X80038243Y-94872966D01*
X80038223Y-94900280D01*
X80038223Y-95120178D01*
X80161812Y-95120178D01*
X80102591Y-94903497D01*
X80088201Y-94851032D01*
X80074917Y-94802950D01*
X80063188Y-94760851D01*
X80053465Y-94726339D01*
X80046197Y-94701014D01*
X80041835Y-94686479D01*
X80040796Y-94683598D01*
X80040164Y-94689560D01*
X80040164Y-94689560D01*
G37*
X80040164Y-94689560D02*
X80039588Y-94707974D01*
X80039089Y-94737181D01*
X80038685Y-94775521D01*
X80038396Y-94821336D01*
X80038243Y-94872966D01*
X80038223Y-94900280D01*
X80038223Y-95120178D01*
X80161812Y-95120178D01*
X80102591Y-94903497D01*
X80088201Y-94851032D01*
X80074917Y-94802950D01*
X80063188Y-94760851D01*
X80053465Y-94726339D01*
X80046197Y-94701014D01*
X80041835Y-94686479D01*
X80040796Y-94683598D01*
X80040164Y-94689560D01*
G36*
X80341856Y-94705973D02*
X80336219Y-94726763D01*
X80327942Y-94757489D01*
X80317488Y-94796424D01*
X80305322Y-94841841D01*
X80291908Y-94892016D01*
X80286090Y-94913803D01*
X80231005Y-95120178D01*
X80351489Y-95120186D01*
X80349547Y-94903223D01*
X80348969Y-94850118D01*
X80348252Y-94802391D01*
X80347436Y-94761635D01*
X80346560Y-94729445D01*
X80345664Y-94707415D01*
X80344789Y-94697139D01*
X80344390Y-94696845D01*
X80341856Y-94705973D01*
X80341856Y-94705973D01*
G37*
X80341856Y-94705973D02*
X80336219Y-94726763D01*
X80327942Y-94757489D01*
X80317488Y-94796424D01*
X80305322Y-94841841D01*
X80291908Y-94892016D01*
X80286090Y-94913803D01*
X80231005Y-95120178D01*
X80351489Y-95120186D01*
X80349547Y-94903223D01*
X80348969Y-94850118D01*
X80348252Y-94802391D01*
X80347436Y-94761635D01*
X80346560Y-94729445D01*
X80345664Y-94707415D01*
X80344789Y-94697139D01*
X80344390Y-94696845D01*
X80341856Y-94705973D01*
G36*
X81294914Y-94698707D02*
X81293810Y-94716310D01*
X81292862Y-94744933D01*
X81292106Y-94783029D01*
X81291578Y-94829054D01*
X81291313Y-94881462D01*
X81291289Y-94903572D01*
X81291289Y-95120178D01*
X81415151Y-95120178D01*
X81358070Y-94910275D01*
X81343879Y-94858436D01*
X81330668Y-94810828D01*
X81318914Y-94769117D01*
X81309092Y-94734972D01*
X81301680Y-94710059D01*
X81297154Y-94696045D01*
X81296139Y-94693670D01*
X81294914Y-94698707D01*
X81294914Y-94698707D01*
G37*
X81294914Y-94698707D02*
X81293810Y-94716310D01*
X81292862Y-94744933D01*
X81292106Y-94783029D01*
X81291578Y-94829054D01*
X81291313Y-94881462D01*
X81291289Y-94903572D01*
X81291289Y-95120178D01*
X81415151Y-95120178D01*
X81358070Y-94910275D01*
X81343879Y-94858436D01*
X81330668Y-94810828D01*
X81318914Y-94769117D01*
X81309092Y-94734972D01*
X81301680Y-94710059D01*
X81297154Y-94696045D01*
X81296139Y-94693670D01*
X81294914Y-94698707D01*
G36*
X81594923Y-94705973D02*
X81589286Y-94726763D01*
X81581008Y-94757489D01*
X81570555Y-94796424D01*
X81558389Y-94841841D01*
X81544974Y-94892016D01*
X81539157Y-94913803D01*
X81484072Y-95120178D01*
X81604556Y-95120186D01*
X81602613Y-94903223D01*
X81602035Y-94850118D01*
X81601319Y-94802391D01*
X81600502Y-94761635D01*
X81599626Y-94729445D01*
X81598731Y-94707415D01*
X81597856Y-94697139D01*
X81597456Y-94696845D01*
X81594923Y-94705973D01*
X81594923Y-94705973D01*
G37*
X81594923Y-94705973D02*
X81589286Y-94726763D01*
X81581008Y-94757489D01*
X81570555Y-94796424D01*
X81558389Y-94841841D01*
X81544974Y-94892016D01*
X81539157Y-94913803D01*
X81484072Y-95120178D01*
X81604556Y-95120186D01*
X81602613Y-94903223D01*
X81602035Y-94850118D01*
X81601319Y-94802391D01*
X81600502Y-94761635D01*
X81599626Y-94729445D01*
X81598731Y-94707415D01*
X81597856Y-94697139D01*
X81597456Y-94696845D01*
X81594923Y-94705973D01*
G36*
X77232934Y-95120178D02*
X77282323Y-95120195D01*
X77331712Y-95120211D01*
X77328030Y-95007289D01*
X77515156Y-95007289D01*
X77515156Y-94555734D01*
X77611112Y-94555734D01*
X77611112Y-95120178D01*
X77788912Y-95120160D01*
X77887108Y-94837659D01*
X77985304Y-94555157D01*
X78025092Y-94557209D01*
X78064879Y-94559261D01*
X78156842Y-94823845D01*
X78176893Y-94881671D01*
X78195607Y-94935908D01*
X78212485Y-94985091D01*
X78227029Y-95027756D01*
X78238742Y-95062441D01*
X78247124Y-95087681D01*
X78251678Y-95102012D01*
X78252304Y-95104303D01*
X78254000Y-95110293D01*
X78257166Y-95114548D01*
X78263515Y-95117364D01*
X78274763Y-95119040D01*
X78292622Y-95119870D01*
X78318809Y-95120151D01*
X78344090Y-95120180D01*
X78432378Y-95120183D01*
X78430841Y-94837958D01*
X78429304Y-94555734D01*
X78525512Y-94555734D01*
X78525512Y-95120527D01*
X78616886Y-95118589D01*
X78708261Y-95116650D01*
X78763642Y-95001583D01*
X78780940Y-94965352D01*
X78796031Y-94933192D01*
X78808010Y-94907075D01*
X78815973Y-94888974D01*
X78819016Y-94880861D01*
X78819023Y-94880756D01*
X78814165Y-94875434D01*
X78802877Y-94870961D01*
X78777632Y-94857905D01*
X78756593Y-94834022D01*
X78740494Y-94801911D01*
X78730066Y-94764170D01*
X78726042Y-94723399D01*
X78729152Y-94682196D01*
X78739302Y-94645226D01*
X78751596Y-94619624D01*
X78767037Y-94599129D01*
X78786859Y-94583252D01*
X78812295Y-94571505D01*
X78844576Y-94563398D01*
X78884935Y-94558442D01*
X78934606Y-94556147D01*
X78964493Y-94555844D01*
X79067630Y-94555734D01*
X79066093Y-94837958D01*
X79064556Y-95120183D01*
X79425800Y-95119817D01*
X79390896Y-95098655D01*
X79348281Y-95065265D01*
X79313285Y-95021732D01*
X79286702Y-94969055D01*
X79285737Y-94966542D01*
X79278054Y-94945466D01*
X79272940Y-94927932D01*
X79269875Y-94910114D01*
X79268338Y-94888184D01*
X79267807Y-94858317D01*
X79267756Y-94834428D01*
X79267976Y-94797183D01*
X79268932Y-94770347D01*
X79271074Y-94750223D01*
X79274847Y-94733114D01*
X79280700Y-94715322D01*
X79282883Y-94709417D01*
X79308797Y-94656020D01*
X79342322Y-94612203D01*
X79382363Y-94578566D01*
X79427825Y-94555707D01*
X79477614Y-94544224D01*
X79530633Y-94544714D01*
X79569761Y-94552694D01*
X79617169Y-94573013D01*
X79658514Y-94604646D01*
X79692809Y-94646347D01*
X79719073Y-94696873D01*
X79736322Y-94754980D01*
X79738365Y-94765984D01*
X79744534Y-94832342D01*
X79740422Y-94895364D01*
X79726520Y-94953738D01*
X79703320Y-95006154D01*
X79671311Y-95051301D01*
X79630987Y-95087868D01*
X79613449Y-95099323D01*
X79578200Y-95120167D01*
X79760234Y-95120172D01*
X79942267Y-95120178D01*
X79942267Y-94555734D01*
X80087955Y-94555734D01*
X80104672Y-94613942D01*
X80112157Y-94640101D01*
X80122400Y-94676031D01*
X80134394Y-94718197D01*
X80147135Y-94763066D01*
X80156936Y-94797635D01*
X80168204Y-94836452D01*
X80178410Y-94869806D01*
X80186915Y-94895754D01*
X80193083Y-94912354D01*
X80196274Y-94917666D01*
X80196359Y-94917580D01*
X80199189Y-94909686D01*
X80205188Y-94890258D01*
X80213831Y-94861094D01*
X80224590Y-94823994D01*
X80236939Y-94780756D01*
X80250153Y-94733886D01*
X80300070Y-94555734D01*
X80444623Y-94555734D01*
X80444623Y-95120178D01*
X80550456Y-95120195D01*
X80656289Y-95120211D01*
X80654448Y-95063750D01*
X80652608Y-95007289D01*
X80873600Y-95007289D01*
X80873600Y-94887345D01*
X80681689Y-94887345D01*
X80681689Y-94774456D01*
X80873600Y-94774456D01*
X80873600Y-94668622D01*
X80670400Y-94668622D01*
X80670400Y-94555734D01*
X80969556Y-94555734D01*
X80969556Y-95120178D01*
X81195334Y-95120178D01*
X81195334Y-94555734D01*
X81341278Y-94555734D01*
X81352169Y-94592775D01*
X81357308Y-94610538D01*
X81365449Y-94639021D01*
X81375855Y-94675629D01*
X81387789Y-94717768D01*
X81400515Y-94762843D01*
X81404340Y-94776423D01*
X81416464Y-94818647D01*
X81427533Y-94855618D01*
X81436965Y-94885523D01*
X81444179Y-94906549D01*
X81448596Y-94916883D01*
X81449536Y-94917535D01*
X81452380Y-94909655D01*
X81458402Y-94890244D01*
X81467073Y-94861098D01*
X81477865Y-94824016D01*
X81490250Y-94780794D01*
X81503515Y-94733886D01*
X81553577Y-94555734D01*
X81703586Y-94555734D01*
X81702049Y-94837958D01*
X81700512Y-95120183D01*
X81795056Y-95120180D01*
X81826299Y-95119950D01*
X81853187Y-95119315D01*
X81873874Y-95118353D01*
X81886513Y-95117144D01*
X81889600Y-95116115D01*
X81886607Y-95108854D01*
X81878613Y-95092938D01*
X81867097Y-95071267D01*
X81861725Y-95061435D01*
X81848206Y-95035286D01*
X81837846Y-95010547D01*
X81829136Y-94982778D01*
X81820564Y-94947543D01*
X81816400Y-94928308D01*
X81798952Y-94845798D01*
X81805319Y-94670291D01*
X81807260Y-94615694D01*
X81808595Y-94572482D01*
X81809247Y-94537944D01*
X81809142Y-94509371D01*
X81808205Y-94484051D01*
X81806361Y-94459276D01*
X81803535Y-94432333D01*
X81799651Y-94400514D01*
X81797347Y-94382384D01*
X81791838Y-94339078D01*
X81786371Y-94295891D01*
X81781455Y-94256868D01*
X81777602Y-94226056D01*
X81776438Y-94216655D01*
X81769867Y-94163327D01*
X81796986Y-94096711D01*
X81808608Y-94067112D01*
X81817102Y-94041946D01*
X81823490Y-94016972D01*
X81828798Y-93987951D01*
X81834049Y-93950640D01*
X81836061Y-93934845D01*
X81848018Y-93839595D01*
X81832541Y-93797261D01*
X81817065Y-93754928D01*
X81844279Y-93719650D01*
X81853888Y-93706375D01*
X81862551Y-93692063D01*
X81871127Y-93674654D01*
X81880479Y-93652088D01*
X81891468Y-93622307D01*
X81904955Y-93583251D01*
X81919521Y-93539734D01*
X81939865Y-93477865D01*
X81955783Y-93428050D01*
X81967507Y-93389488D01*
X81975265Y-93361378D01*
X81979289Y-93342919D01*
X81979808Y-93333309D01*
X81979238Y-93331929D01*
X81973116Y-93330100D01*
X81957583Y-93326883D01*
X81934434Y-93322609D01*
X81905463Y-93317609D01*
X81872501Y-93312221D01*
X81834313Y-93306390D01*
X81802140Y-93302241D01*
X81772849Y-93299598D01*
X81743309Y-93298290D01*
X81710384Y-93298142D01*
X81670944Y-93298982D01*
X81646889Y-93299749D01*
X81605700Y-93301043D01*
X81573224Y-93301639D01*
X81546891Y-93301352D01*
X81524135Y-93299999D01*
X81502385Y-93297393D01*
X81479073Y-93293351D01*
X81451632Y-93287688D01*
X81438045Y-93284735D01*
X81398235Y-93275494D01*
X81353166Y-93264190D01*
X81308170Y-93252206D01*
X81268580Y-93240922D01*
X81265889Y-93240116D01*
X81238842Y-93232272D01*
X81213574Y-93225722D01*
X81188114Y-93220133D01*
X81160489Y-93215175D01*
X81128725Y-93210513D01*
X81090850Y-93205817D01*
X81044891Y-93200753D01*
X81011889Y-93197326D01*
X80953427Y-93191818D01*
X80894710Y-93187159D01*
X80838465Y-93183521D01*
X80787416Y-93181074D01*
X80744290Y-93179991D01*
X80736508Y-93179953D01*
X80630459Y-93179900D01*
X80304708Y-93073653D01*
X80242469Y-93053355D01*
X80180676Y-93033205D01*
X80120696Y-93013650D01*
X80063895Y-92995134D01*
X80011639Y-92978102D01*
X79965294Y-92963001D01*
X79926227Y-92950274D01*
X79895804Y-92940368D01*
X79880970Y-92935542D01*
X79839895Y-92921319D01*
X79794034Y-92903970D01*
X79745562Y-92884445D01*
X79696657Y-92863696D01*
X79649495Y-92842675D01*
X79606255Y-92822333D01*
X79569112Y-92803620D01*
X79540245Y-92787488D01*
X79535642Y-92784647D01*
X79523586Y-92777503D01*
X79511103Y-92771404D01*
X79496589Y-92765915D01*
X79478438Y-92760604D01*
X79455046Y-92755036D01*
X79424808Y-92748780D01*
X79386119Y-92741400D01*
X79352788Y-92735269D01*
X79329552Y-92730858D01*
X79295972Y-92724229D01*
X79252833Y-92715544D01*
X79200918Y-92704967D01*
X79141011Y-92692659D01*
X79073896Y-92678786D01*
X79000355Y-92663508D01*
X78921173Y-92646990D01*
X78837133Y-92629395D01*
X78749020Y-92610885D01*
X78657616Y-92591623D01*
X78563706Y-92571773D01*
X78468073Y-92551498D01*
X78406800Y-92538475D01*
X77607932Y-92368511D01*
X77232934Y-92368511D01*
X77232934Y-95120178D01*
X77232934Y-95120178D01*
G37*
X77232934Y-95120178D02*
X77282323Y-95120195D01*
X77331712Y-95120211D01*
X77328030Y-95007289D01*
X77515156Y-95007289D01*
X77515156Y-94555734D01*
X77611112Y-94555734D01*
X77611112Y-95120178D01*
X77788912Y-95120160D01*
X77887108Y-94837659D01*
X77985304Y-94555157D01*
X78025092Y-94557209D01*
X78064879Y-94559261D01*
X78156842Y-94823845D01*
X78176893Y-94881671D01*
X78195607Y-94935908D01*
X78212485Y-94985091D01*
X78227029Y-95027756D01*
X78238742Y-95062441D01*
X78247124Y-95087681D01*
X78251678Y-95102012D01*
X78252304Y-95104303D01*
X78254000Y-95110293D01*
X78257166Y-95114548D01*
X78263515Y-95117364D01*
X78274763Y-95119040D01*
X78292622Y-95119870D01*
X78318809Y-95120151D01*
X78344090Y-95120180D01*
X78432378Y-95120183D01*
X78430841Y-94837958D01*
X78429304Y-94555734D01*
X78525512Y-94555734D01*
X78525512Y-95120527D01*
X78616886Y-95118589D01*
X78708261Y-95116650D01*
X78763642Y-95001583D01*
X78780940Y-94965352D01*
X78796031Y-94933192D01*
X78808010Y-94907075D01*
X78815973Y-94888974D01*
X78819016Y-94880861D01*
X78819023Y-94880756D01*
X78814165Y-94875434D01*
X78802877Y-94870961D01*
X78777632Y-94857905D01*
X78756593Y-94834022D01*
X78740494Y-94801911D01*
X78730066Y-94764170D01*
X78726042Y-94723399D01*
X78729152Y-94682196D01*
X78739302Y-94645226D01*
X78751596Y-94619624D01*
X78767037Y-94599129D01*
X78786859Y-94583252D01*
X78812295Y-94571505D01*
X78844576Y-94563398D01*
X78884935Y-94558442D01*
X78934606Y-94556147D01*
X78964493Y-94555844D01*
X79067630Y-94555734D01*
X79066093Y-94837958D01*
X79064556Y-95120183D01*
X79425800Y-95119817D01*
X79390896Y-95098655D01*
X79348281Y-95065265D01*
X79313285Y-95021732D01*
X79286702Y-94969055D01*
X79285737Y-94966542D01*
X79278054Y-94945466D01*
X79272940Y-94927932D01*
X79269875Y-94910114D01*
X79268338Y-94888184D01*
X79267807Y-94858317D01*
X79267756Y-94834428D01*
X79267976Y-94797183D01*
X79268932Y-94770347D01*
X79271074Y-94750223D01*
X79274847Y-94733114D01*
X79280700Y-94715322D01*
X79282883Y-94709417D01*
X79308797Y-94656020D01*
X79342322Y-94612203D01*
X79382363Y-94578566D01*
X79427825Y-94555707D01*
X79477614Y-94544224D01*
X79530633Y-94544714D01*
X79569761Y-94552694D01*
X79617169Y-94573013D01*
X79658514Y-94604646D01*
X79692809Y-94646347D01*
X79719073Y-94696873D01*
X79736322Y-94754980D01*
X79738365Y-94765984D01*
X79744534Y-94832342D01*
X79740422Y-94895364D01*
X79726520Y-94953738D01*
X79703320Y-95006154D01*
X79671311Y-95051301D01*
X79630987Y-95087868D01*
X79613449Y-95099323D01*
X79578200Y-95120167D01*
X79760234Y-95120172D01*
X79942267Y-95120178D01*
X79942267Y-94555734D01*
X80087955Y-94555734D01*
X80104672Y-94613942D01*
X80112157Y-94640101D01*
X80122400Y-94676031D01*
X80134394Y-94718197D01*
X80147135Y-94763066D01*
X80156936Y-94797635D01*
X80168204Y-94836452D01*
X80178410Y-94869806D01*
X80186915Y-94895754D01*
X80193083Y-94912354D01*
X80196274Y-94917666D01*
X80196359Y-94917580D01*
X80199189Y-94909686D01*
X80205188Y-94890258D01*
X80213831Y-94861094D01*
X80224590Y-94823994D01*
X80236939Y-94780756D01*
X80250153Y-94733886D01*
X80300070Y-94555734D01*
X80444623Y-94555734D01*
X80444623Y-95120178D01*
X80550456Y-95120195D01*
X80656289Y-95120211D01*
X80654448Y-95063750D01*
X80652608Y-95007289D01*
X80873600Y-95007289D01*
X80873600Y-94887345D01*
X80681689Y-94887345D01*
X80681689Y-94774456D01*
X80873600Y-94774456D01*
X80873600Y-94668622D01*
X80670400Y-94668622D01*
X80670400Y-94555734D01*
X80969556Y-94555734D01*
X80969556Y-95120178D01*
X81195334Y-95120178D01*
X81195334Y-94555734D01*
X81341278Y-94555734D01*
X81352169Y-94592775D01*
X81357308Y-94610538D01*
X81365449Y-94639021D01*
X81375855Y-94675629D01*
X81387789Y-94717768D01*
X81400515Y-94762843D01*
X81404340Y-94776423D01*
X81416464Y-94818647D01*
X81427533Y-94855618D01*
X81436965Y-94885523D01*
X81444179Y-94906549D01*
X81448596Y-94916883D01*
X81449536Y-94917535D01*
X81452380Y-94909655D01*
X81458402Y-94890244D01*
X81467073Y-94861098D01*
X81477865Y-94824016D01*
X81490250Y-94780794D01*
X81503515Y-94733886D01*
X81553577Y-94555734D01*
X81703586Y-94555734D01*
X81702049Y-94837958D01*
X81700512Y-95120183D01*
X81795056Y-95120180D01*
X81826299Y-95119950D01*
X81853187Y-95119315D01*
X81873874Y-95118353D01*
X81886513Y-95117144D01*
X81889600Y-95116115D01*
X81886607Y-95108854D01*
X81878613Y-95092938D01*
X81867097Y-95071267D01*
X81861725Y-95061435D01*
X81848206Y-95035286D01*
X81837846Y-95010547D01*
X81829136Y-94982778D01*
X81820564Y-94947543D01*
X81816400Y-94928308D01*
X81798952Y-94845798D01*
X81805319Y-94670291D01*
X81807260Y-94615694D01*
X81808595Y-94572482D01*
X81809247Y-94537944D01*
X81809142Y-94509371D01*
X81808205Y-94484051D01*
X81806361Y-94459276D01*
X81803535Y-94432333D01*
X81799651Y-94400514D01*
X81797347Y-94382384D01*
X81791838Y-94339078D01*
X81786371Y-94295891D01*
X81781455Y-94256868D01*
X81777602Y-94226056D01*
X81776438Y-94216655D01*
X81769867Y-94163327D01*
X81796986Y-94096711D01*
X81808608Y-94067112D01*
X81817102Y-94041946D01*
X81823490Y-94016972D01*
X81828798Y-93987951D01*
X81834049Y-93950640D01*
X81836061Y-93934845D01*
X81848018Y-93839595D01*
X81832541Y-93797261D01*
X81817065Y-93754928D01*
X81844279Y-93719650D01*
X81853888Y-93706375D01*
X81862551Y-93692063D01*
X81871127Y-93674654D01*
X81880479Y-93652088D01*
X81891468Y-93622307D01*
X81904955Y-93583251D01*
X81919521Y-93539734D01*
X81939865Y-93477865D01*
X81955783Y-93428050D01*
X81967507Y-93389488D01*
X81975265Y-93361378D01*
X81979289Y-93342919D01*
X81979808Y-93333309D01*
X81979238Y-93331929D01*
X81973116Y-93330100D01*
X81957583Y-93326883D01*
X81934434Y-93322609D01*
X81905463Y-93317609D01*
X81872501Y-93312221D01*
X81834313Y-93306390D01*
X81802140Y-93302241D01*
X81772849Y-93299598D01*
X81743309Y-93298290D01*
X81710384Y-93298142D01*
X81670944Y-93298982D01*
X81646889Y-93299749D01*
X81605700Y-93301043D01*
X81573224Y-93301639D01*
X81546891Y-93301352D01*
X81524135Y-93299999D01*
X81502385Y-93297393D01*
X81479073Y-93293351D01*
X81451632Y-93287688D01*
X81438045Y-93284735D01*
X81398235Y-93275494D01*
X81353166Y-93264190D01*
X81308170Y-93252206D01*
X81268580Y-93240922D01*
X81265889Y-93240116D01*
X81238842Y-93232272D01*
X81213574Y-93225722D01*
X81188114Y-93220133D01*
X81160489Y-93215175D01*
X81128725Y-93210513D01*
X81090850Y-93205817D01*
X81044891Y-93200753D01*
X81011889Y-93197326D01*
X80953427Y-93191818D01*
X80894710Y-93187159D01*
X80838465Y-93183521D01*
X80787416Y-93181074D01*
X80744290Y-93179991D01*
X80736508Y-93179953D01*
X80630459Y-93179900D01*
X80304708Y-93073653D01*
X80242469Y-93053355D01*
X80180676Y-93033205D01*
X80120696Y-93013650D01*
X80063895Y-92995134D01*
X80011639Y-92978102D01*
X79965294Y-92963001D01*
X79926227Y-92950274D01*
X79895804Y-92940368D01*
X79880970Y-92935542D01*
X79839895Y-92921319D01*
X79794034Y-92903970D01*
X79745562Y-92884445D01*
X79696657Y-92863696D01*
X79649495Y-92842675D01*
X79606255Y-92822333D01*
X79569112Y-92803620D01*
X79540245Y-92787488D01*
X79535642Y-92784647D01*
X79523586Y-92777503D01*
X79511103Y-92771404D01*
X79496589Y-92765915D01*
X79478438Y-92760604D01*
X79455046Y-92755036D01*
X79424808Y-92748780D01*
X79386119Y-92741400D01*
X79352788Y-92735269D01*
X79329552Y-92730858D01*
X79295972Y-92724229D01*
X79252833Y-92715544D01*
X79200918Y-92704967D01*
X79141011Y-92692659D01*
X79073896Y-92678786D01*
X79000355Y-92663508D01*
X78921173Y-92646990D01*
X78837133Y-92629395D01*
X78749020Y-92610885D01*
X78657616Y-92591623D01*
X78563706Y-92571773D01*
X78468073Y-92551498D01*
X78406800Y-92538475D01*
X77607932Y-92368511D01*
X77232934Y-92368511D01*
X77232934Y-95120178D01*
G36*
X77363063Y-95360776D02*
X77350201Y-95362628D01*
X77345823Y-95364982D01*
X77348812Y-95372000D01*
X77357208Y-95389080D01*
X77370152Y-95414544D01*
X77386787Y-95446716D01*
X77406253Y-95483918D01*
X77420612Y-95511124D01*
X77495400Y-95652351D01*
X77498223Y-95769029D01*
X77501045Y-95885706D01*
X77530678Y-95887838D01*
X77560312Y-95889971D01*
X77560312Y-95667693D01*
X77639334Y-95518571D01*
X77660840Y-95477808D01*
X77680120Y-95440926D01*
X77696338Y-95409548D01*
X77708659Y-95385301D01*
X77716248Y-95369810D01*
X77718356Y-95364758D01*
X77713198Y-95362422D01*
X77699661Y-95360775D01*
X77680654Y-95360168D01*
X77680256Y-95360168D01*
X77642156Y-95360270D01*
X77588534Y-95469508D01*
X77571277Y-95504316D01*
X77555967Y-95534545D01*
X77543593Y-95558293D01*
X77535143Y-95573660D01*
X77531659Y-95578767D01*
X77527745Y-95573111D01*
X77518835Y-95557375D01*
X77505935Y-95533427D01*
X77490053Y-95503137D01*
X77472732Y-95469428D01*
X77417058Y-95360067D01*
X77381440Y-95360067D01*
X77363063Y-95360776D01*
X77363063Y-95360776D01*
G37*
X77363063Y-95360776D02*
X77350201Y-95362628D01*
X77345823Y-95364982D01*
X77348812Y-95372000D01*
X77357208Y-95389080D01*
X77370152Y-95414544D01*
X77386787Y-95446716D01*
X77406253Y-95483918D01*
X77420612Y-95511124D01*
X77495400Y-95652351D01*
X77498223Y-95769029D01*
X77501045Y-95885706D01*
X77530678Y-95887838D01*
X77560312Y-95889971D01*
X77560312Y-95667693D01*
X77639334Y-95518571D01*
X77660840Y-95477808D01*
X77680120Y-95440926D01*
X77696338Y-95409548D01*
X77708659Y-95385301D01*
X77716248Y-95369810D01*
X77718356Y-95364758D01*
X77713198Y-95362422D01*
X77699661Y-95360775D01*
X77680654Y-95360168D01*
X77680256Y-95360168D01*
X77642156Y-95360270D01*
X77588534Y-95469508D01*
X77571277Y-95504316D01*
X77555967Y-95534545D01*
X77543593Y-95558293D01*
X77535143Y-95573660D01*
X77531659Y-95578767D01*
X77527745Y-95573111D01*
X77518835Y-95557375D01*
X77505935Y-95533427D01*
X77490053Y-95503137D01*
X77472732Y-95469428D01*
X77417058Y-95360067D01*
X77381440Y-95360067D01*
X77363063Y-95360776D01*
G36*
X77836889Y-95430622D02*
X77966555Y-95430622D01*
X77968045Y-95658164D01*
X77969534Y-95885706D01*
X77999167Y-95887838D01*
X78028800Y-95889971D01*
X78028800Y-95430622D01*
X78164267Y-95430622D01*
X78164267Y-95360067D01*
X77836889Y-95360067D01*
X77836889Y-95430622D01*
X77836889Y-95430622D01*
G37*
X77836889Y-95430622D02*
X77966555Y-95430622D01*
X77968045Y-95658164D01*
X77969534Y-95885706D01*
X77999167Y-95887838D01*
X78028800Y-95889971D01*
X78028800Y-95430622D01*
X78164267Y-95430622D01*
X78164267Y-95360067D01*
X77836889Y-95360067D01*
X77836889Y-95430622D01*
G36*
X78339245Y-95889234D02*
X78401334Y-95889234D01*
X78401334Y-95360067D01*
X78339245Y-95360067D01*
X78339245Y-95889234D01*
X78339245Y-95889234D01*
G37*
X78339245Y-95889234D02*
X78401334Y-95889234D01*
X78401334Y-95360067D01*
X78339245Y-95360067D01*
X78339245Y-95889234D01*
G36*
X79224012Y-95361270D02*
X79187404Y-95362172D01*
X79160155Y-95363197D01*
X79140336Y-95364667D01*
X79126017Y-95366902D01*
X79115269Y-95370222D01*
X79106164Y-95374949D01*
X79096772Y-95381403D01*
X79094990Y-95382708D01*
X79072055Y-95403171D01*
X79056799Y-95426929D01*
X79046814Y-95458335D01*
X79043443Y-95475853D01*
X79041516Y-95517868D01*
X79048961Y-95558272D01*
X79064531Y-95594272D01*
X79086975Y-95623071D01*
X79115048Y-95641876D01*
X79118137Y-95643107D01*
X79139425Y-95651080D01*
X79083646Y-95762178D01*
X79066001Y-95797734D01*
X79050653Y-95829448D01*
X79038550Y-95855296D01*
X79030639Y-95873256D01*
X79027867Y-95881255D01*
X79033289Y-95886075D01*
X79048869Y-95888752D01*
X79063294Y-95889234D01*
X79098720Y-95889234D01*
X79152194Y-95772826D01*
X79205667Y-95656419D01*
X79235300Y-95656410D01*
X79264934Y-95656400D01*
X79264934Y-95889234D01*
X79292215Y-95889234D01*
X79308936Y-95888333D01*
X79320581Y-95886047D01*
X79323260Y-95884530D01*
X79324115Y-95876638D01*
X79324901Y-95856228D01*
X79325597Y-95824891D01*
X79326180Y-95784221D01*
X79326627Y-95735809D01*
X79326915Y-95681248D01*
X79327023Y-95622131D01*
X79327023Y-95430622D01*
X79264934Y-95430622D01*
X79264934Y-95585845D01*
X79208209Y-95585845D01*
X79174742Y-95584775D01*
X79151029Y-95581429D01*
X79135656Y-95575601D01*
X79134999Y-95575188D01*
X79117564Y-95558695D01*
X79108724Y-95535833D01*
X79106889Y-95512557D01*
X79109465Y-95482597D01*
X79117929Y-95460348D01*
X79133385Y-95444938D01*
X79156936Y-95435497D01*
X79189686Y-95431155D01*
X79210754Y-95430622D01*
X79264934Y-95430622D01*
X79327023Y-95430622D01*
X79327023Y-95358946D01*
X79224012Y-95361270D01*
X79224012Y-95361270D01*
G37*
X79224012Y-95361270D02*
X79187404Y-95362172D01*
X79160155Y-95363197D01*
X79140336Y-95364667D01*
X79126017Y-95366902D01*
X79115269Y-95370222D01*
X79106164Y-95374949D01*
X79096772Y-95381403D01*
X79094990Y-95382708D01*
X79072055Y-95403171D01*
X79056799Y-95426929D01*
X79046814Y-95458335D01*
X79043443Y-95475853D01*
X79041516Y-95517868D01*
X79048961Y-95558272D01*
X79064531Y-95594272D01*
X79086975Y-95623071D01*
X79115048Y-95641876D01*
X79118137Y-95643107D01*
X79139425Y-95651080D01*
X79083646Y-95762178D01*
X79066001Y-95797734D01*
X79050653Y-95829448D01*
X79038550Y-95855296D01*
X79030639Y-95873256D01*
X79027867Y-95881255D01*
X79033289Y-95886075D01*
X79048869Y-95888752D01*
X79063294Y-95889234D01*
X79098720Y-95889234D01*
X79152194Y-95772826D01*
X79205667Y-95656419D01*
X79235300Y-95656410D01*
X79264934Y-95656400D01*
X79264934Y-95889234D01*
X79292215Y-95889234D01*
X79308936Y-95888333D01*
X79320581Y-95886047D01*
X79323260Y-95884530D01*
X79324115Y-95876638D01*
X79324901Y-95856228D01*
X79325597Y-95824891D01*
X79326180Y-95784221D01*
X79326627Y-95735809D01*
X79326915Y-95681248D01*
X79327023Y-95622131D01*
X79327023Y-95430622D01*
X79264934Y-95430622D01*
X79264934Y-95585845D01*
X79208209Y-95585845D01*
X79174742Y-95584775D01*
X79151029Y-95581429D01*
X79135656Y-95575601D01*
X79134999Y-95575188D01*
X79117564Y-95558695D01*
X79108724Y-95535833D01*
X79106889Y-95512557D01*
X79109465Y-95482597D01*
X79117929Y-95460348D01*
X79133385Y-95444938D01*
X79156936Y-95435497D01*
X79189686Y-95431155D01*
X79210754Y-95430622D01*
X79264934Y-95430622D01*
X79327023Y-95430622D01*
X79327023Y-95358946D01*
X79224012Y-95361270D01*
G36*
X79530223Y-95430622D02*
X79744712Y-95430622D01*
X79744712Y-95578789D01*
X79547156Y-95578789D01*
X79547156Y-95656400D01*
X79744712Y-95656400D01*
X79744712Y-95811622D01*
X79518934Y-95811622D01*
X79518934Y-95889234D01*
X79659104Y-95889234D01*
X79697797Y-95889052D01*
X79732699Y-95888540D01*
X79762241Y-95887750D01*
X79784850Y-95886732D01*
X79798956Y-95885540D01*
X79803038Y-95884530D01*
X79803893Y-95876637D01*
X79804681Y-95856228D01*
X79805377Y-95824896D01*
X79805960Y-95784235D01*
X79806407Y-95735840D01*
X79806694Y-95681306D01*
X79806800Y-95622225D01*
X79806800Y-95360067D01*
X79530223Y-95360067D01*
X79530223Y-95430622D01*
X79530223Y-95430622D01*
G37*
X79530223Y-95430622D02*
X79744712Y-95430622D01*
X79744712Y-95578789D01*
X79547156Y-95578789D01*
X79547156Y-95656400D01*
X79744712Y-95656400D01*
X79744712Y-95811622D01*
X79518934Y-95811622D01*
X79518934Y-95889234D01*
X79659104Y-95889234D01*
X79697797Y-95889052D01*
X79732699Y-95888540D01*
X79762241Y-95887750D01*
X79784850Y-95886732D01*
X79798956Y-95885540D01*
X79803038Y-95884530D01*
X79803893Y-95876637D01*
X79804681Y-95856228D01*
X79805377Y-95824896D01*
X79805960Y-95784235D01*
X79806407Y-95735840D01*
X79806694Y-95681306D01*
X79806800Y-95622225D01*
X79806800Y-95360067D01*
X79530223Y-95360067D01*
X79530223Y-95430622D01*
G36*
X79982433Y-95361358D02*
X79972256Y-95365246D01*
X79970784Y-95368886D01*
X79972865Y-95377215D01*
X79978670Y-95397177D01*
X79987747Y-95427297D01*
X79999642Y-95466100D01*
X80013903Y-95512109D01*
X80030076Y-95563849D01*
X80047708Y-95619844D01*
X80051459Y-95631706D01*
X80131839Y-95885706D01*
X80188719Y-95889888D01*
X80266635Y-95637964D01*
X80284159Y-95581193D01*
X80300451Y-95528201D01*
X80315048Y-95480512D01*
X80327486Y-95439652D01*
X80337300Y-95407145D01*
X80344027Y-95384517D01*
X80347202Y-95373293D01*
X80347342Y-95372692D01*
X80347865Y-95365479D01*
X80344028Y-95361744D01*
X80333510Y-95360689D01*
X80314726Y-95361470D01*
X80279316Y-95363595D01*
X80221004Y-95564678D01*
X80206376Y-95615118D01*
X80192987Y-95661283D01*
X80181322Y-95701499D01*
X80171866Y-95734096D01*
X80165103Y-95757402D01*
X80161519Y-95769744D01*
X80161093Y-95771210D01*
X80158819Y-95766219D01*
X80153123Y-95749512D01*
X80144484Y-95722616D01*
X80133381Y-95687055D01*
X80120293Y-95644357D01*
X80105700Y-95596047D01*
X80097448Y-95568452D01*
X80035400Y-95360247D01*
X80002945Y-95360157D01*
X79982433Y-95361358D01*
X79982433Y-95361358D01*
G37*
X79982433Y-95361358D02*
X79972256Y-95365246D01*
X79970784Y-95368886D01*
X79972865Y-95377215D01*
X79978670Y-95397177D01*
X79987747Y-95427297D01*
X79999642Y-95466100D01*
X80013903Y-95512109D01*
X80030076Y-95563849D01*
X80047708Y-95619844D01*
X80051459Y-95631706D01*
X80131839Y-95885706D01*
X80188719Y-95889888D01*
X80266635Y-95637964D01*
X80284159Y-95581193D01*
X80300451Y-95528201D01*
X80315048Y-95480512D01*
X80327486Y-95439652D01*
X80337300Y-95407145D01*
X80344027Y-95384517D01*
X80347202Y-95373293D01*
X80347342Y-95372692D01*
X80347865Y-95365479D01*
X80344028Y-95361744D01*
X80333510Y-95360689D01*
X80314726Y-95361470D01*
X80279316Y-95363595D01*
X80221004Y-95564678D01*
X80206376Y-95615118D01*
X80192987Y-95661283D01*
X80181322Y-95701499D01*
X80171866Y-95734096D01*
X80165103Y-95757402D01*
X80161519Y-95769744D01*
X80161093Y-95771210D01*
X80158819Y-95766219D01*
X80153123Y-95749512D01*
X80144484Y-95722616D01*
X80133381Y-95687055D01*
X80120293Y-95644357D01*
X80105700Y-95596047D01*
X80097448Y-95568452D01*
X80035400Y-95360247D01*
X80002945Y-95360157D01*
X79982433Y-95361358D01*
G36*
X80513698Y-95622886D02*
X80515178Y-95885706D01*
X80544812Y-95887838D01*
X80574445Y-95889971D01*
X80574445Y-95360067D01*
X80512219Y-95360067D01*
X80513698Y-95622886D01*
X80513698Y-95622886D01*
G37*
X80513698Y-95622886D02*
X80515178Y-95885706D01*
X80544812Y-95887838D01*
X80574445Y-95889971D01*
X80574445Y-95360067D01*
X80512219Y-95360067D01*
X80513698Y-95622886D01*
G36*
X80970462Y-95573497D02*
X80856689Y-95786928D01*
X80856678Y-95573497D01*
X80856667Y-95360067D01*
X80794441Y-95360067D01*
X80795921Y-95622886D01*
X80797400Y-95885706D01*
X80835029Y-95887779D01*
X80872658Y-95889851D01*
X80984607Y-95682435D01*
X81096556Y-95475018D01*
X81102200Y-95885706D01*
X81131834Y-95887838D01*
X81161467Y-95889971D01*
X81161467Y-95360067D01*
X81084236Y-95360067D01*
X80970462Y-95573497D01*
X80970462Y-95573497D01*
G37*
X80970462Y-95573497D02*
X80856689Y-95786928D01*
X80856678Y-95573497D01*
X80856667Y-95360067D01*
X80794441Y-95360067D01*
X80795921Y-95622886D01*
X80797400Y-95885706D01*
X80835029Y-95887779D01*
X80872658Y-95889851D01*
X80984607Y-95682435D01*
X81096556Y-95475018D01*
X81102200Y-95885706D01*
X81131834Y-95887838D01*
X81161467Y-95889971D01*
X81161467Y-95360067D01*
X81084236Y-95360067D01*
X80970462Y-95573497D01*
G36*
X78702592Y-95348266D02*
X78667147Y-95356638D01*
X78636470Y-95372417D01*
X78613321Y-95394891D01*
X78607559Y-95403687D01*
X78606496Y-95410958D01*
X78611159Y-95420248D01*
X78622576Y-95435101D01*
X78626315Y-95439739D01*
X78639993Y-95455900D01*
X78648404Y-95462986D01*
X78653852Y-95462392D01*
X78657038Y-95458314D01*
X78675850Y-95436804D01*
X78698846Y-95424420D01*
X78723827Y-95420555D01*
X78748597Y-95424605D01*
X78770956Y-95435963D01*
X78788708Y-95454024D01*
X78799654Y-95478180D01*
X78802089Y-95498304D01*
X78798510Y-95521827D01*
X78787087Y-95541934D01*
X78766798Y-95559710D01*
X78736618Y-95576241D01*
X78723002Y-95582152D01*
X78682209Y-95600481D01*
X78651295Y-95618384D01*
X78628955Y-95637332D01*
X78613880Y-95658798D01*
X78604766Y-95684253D01*
X78600304Y-95715171D01*
X78599928Y-95720833D01*
X78602120Y-95769851D01*
X78614227Y-95813173D01*
X78635624Y-95849446D01*
X78665684Y-95877315D01*
X78674964Y-95883088D01*
X78695139Y-95890349D01*
X78722407Y-95894686D01*
X78752800Y-95896000D01*
X78782352Y-95894190D01*
X78807095Y-95889159D01*
X78814027Y-95886555D01*
X78838023Y-95872504D01*
X78860653Y-95853660D01*
X78875569Y-95836164D01*
X78878777Y-95828556D01*
X78876559Y-95820211D01*
X78867558Y-95808129D01*
X78858134Y-95797617D01*
X78833134Y-95770466D01*
X78816200Y-95790612D01*
X78789001Y-95813883D01*
X78758053Y-95825120D01*
X78725915Y-95823794D01*
X78702331Y-95814096D01*
X78680244Y-95794672D01*
X78667907Y-95768217D01*
X78664953Y-95744949D01*
X78667652Y-95722285D01*
X78677671Y-95703358D01*
X78696193Y-95686867D01*
X78724402Y-95671513D01*
X78736565Y-95666256D01*
X78770988Y-95651224D01*
X78796701Y-95637694D01*
X78816017Y-95624125D01*
X78831248Y-95608975D01*
X78840416Y-95597036D01*
X78859332Y-95560575D01*
X78868305Y-95521245D01*
X78867920Y-95481267D01*
X78858762Y-95442862D01*
X78841418Y-95408253D01*
X78816472Y-95379661D01*
X78784509Y-95359309D01*
X78776984Y-95356298D01*
X78740106Y-95347941D01*
X78702592Y-95348266D01*
X78702592Y-95348266D01*
G37*
X78702592Y-95348266D02*
X78667147Y-95356638D01*
X78636470Y-95372417D01*
X78613321Y-95394891D01*
X78607559Y-95403687D01*
X78606496Y-95410958D01*
X78611159Y-95420248D01*
X78622576Y-95435101D01*
X78626315Y-95439739D01*
X78639993Y-95455900D01*
X78648404Y-95462986D01*
X78653852Y-95462392D01*
X78657038Y-95458314D01*
X78675850Y-95436804D01*
X78698846Y-95424420D01*
X78723827Y-95420555D01*
X78748597Y-95424605D01*
X78770956Y-95435963D01*
X78788708Y-95454024D01*
X78799654Y-95478180D01*
X78802089Y-95498304D01*
X78798510Y-95521827D01*
X78787087Y-95541934D01*
X78766798Y-95559710D01*
X78736618Y-95576241D01*
X78723002Y-95582152D01*
X78682209Y-95600481D01*
X78651295Y-95618384D01*
X78628955Y-95637332D01*
X78613880Y-95658798D01*
X78604766Y-95684253D01*
X78600304Y-95715171D01*
X78599928Y-95720833D01*
X78602120Y-95769851D01*
X78614227Y-95813173D01*
X78635624Y-95849446D01*
X78665684Y-95877315D01*
X78674964Y-95883088D01*
X78695139Y-95890349D01*
X78722407Y-95894686D01*
X78752800Y-95896000D01*
X78782352Y-95894190D01*
X78807095Y-95889159D01*
X78814027Y-95886555D01*
X78838023Y-95872504D01*
X78860653Y-95853660D01*
X78875569Y-95836164D01*
X78878777Y-95828556D01*
X78876559Y-95820211D01*
X78867558Y-95808129D01*
X78858134Y-95797617D01*
X78833134Y-95770466D01*
X78816200Y-95790612D01*
X78789001Y-95813883D01*
X78758053Y-95825120D01*
X78725915Y-95823794D01*
X78702331Y-95814096D01*
X78680244Y-95794672D01*
X78667907Y-95768217D01*
X78664953Y-95744949D01*
X78667652Y-95722285D01*
X78677671Y-95703358D01*
X78696193Y-95686867D01*
X78724402Y-95671513D01*
X78736565Y-95666256D01*
X78770988Y-95651224D01*
X78796701Y-95637694D01*
X78816017Y-95624125D01*
X78831248Y-95608975D01*
X78840416Y-95597036D01*
X78859332Y-95560575D01*
X78868305Y-95521245D01*
X78867920Y-95481267D01*
X78858762Y-95442862D01*
X78841418Y-95408253D01*
X78816472Y-95379661D01*
X78784509Y-95359309D01*
X78776984Y-95356298D01*
X78740106Y-95347941D01*
X78702592Y-95348266D01*
G36*
X81641121Y-95541747D02*
X81641006Y-95598269D01*
X81640687Y-95642546D01*
X81640070Y-95676446D01*
X81639062Y-95701834D01*
X81637570Y-95720577D01*
X81635501Y-95734542D01*
X81632762Y-95745593D01*
X81630635Y-95751942D01*
X81612250Y-95787392D01*
X81587395Y-95811531D01*
X81556918Y-95823798D01*
X81522618Y-95823790D01*
X81493682Y-95812070D01*
X81469245Y-95788052D01*
X81453439Y-95759875D01*
X81449622Y-95750291D01*
X81446639Y-95740291D01*
X81444364Y-95728017D01*
X81442674Y-95711609D01*
X81441444Y-95689209D01*
X81440549Y-95658957D01*
X81439864Y-95618996D01*
X81439264Y-95567465D01*
X81439041Y-95545275D01*
X81437214Y-95360067D01*
X81375160Y-95360067D01*
X81377179Y-95555859D01*
X81377886Y-95617870D01*
X81378777Y-95667600D01*
X81380131Y-95706877D01*
X81382230Y-95737533D01*
X81385354Y-95761394D01*
X81389783Y-95780292D01*
X81395797Y-95796055D01*
X81403678Y-95810512D01*
X81413705Y-95825493D01*
X81419829Y-95834053D01*
X81447813Y-95865085D01*
X81479785Y-95884977D01*
X81517668Y-95894700D01*
X81542467Y-95896065D01*
X81575336Y-95894084D01*
X81600084Y-95887926D01*
X81610570Y-95882951D01*
X81645988Y-95855436D01*
X81674304Y-95817891D01*
X81686550Y-95792874D01*
X81690632Y-95782518D01*
X81693846Y-95772554D01*
X81696311Y-95761178D01*
X81698149Y-95746589D01*
X81699480Y-95726983D01*
X81700424Y-95700559D01*
X81701103Y-95665514D01*
X81701637Y-95620045D01*
X81702146Y-95562351D01*
X81702171Y-95559386D01*
X81703830Y-95360067D01*
X81641245Y-95360067D01*
X81641121Y-95541747D01*
X81641121Y-95541747D01*
G37*
X81641121Y-95541747D02*
X81641006Y-95598269D01*
X81640687Y-95642546D01*
X81640070Y-95676446D01*
X81639062Y-95701834D01*
X81637570Y-95720577D01*
X81635501Y-95734542D01*
X81632762Y-95745593D01*
X81630635Y-95751942D01*
X81612250Y-95787392D01*
X81587395Y-95811531D01*
X81556918Y-95823798D01*
X81522618Y-95823790D01*
X81493682Y-95812070D01*
X81469245Y-95788052D01*
X81453439Y-95759875D01*
X81449622Y-95750291D01*
X81446639Y-95740291D01*
X81444364Y-95728017D01*
X81442674Y-95711609D01*
X81441444Y-95689209D01*
X81440549Y-95658957D01*
X81439864Y-95618996D01*
X81439264Y-95567465D01*
X81439041Y-95545275D01*
X81437214Y-95360067D01*
X81375160Y-95360067D01*
X81377179Y-95555859D01*
X81377886Y-95617870D01*
X81378777Y-95667600D01*
X81380131Y-95706877D01*
X81382230Y-95737533D01*
X81385354Y-95761394D01*
X81389783Y-95780292D01*
X81395797Y-95796055D01*
X81403678Y-95810512D01*
X81413705Y-95825493D01*
X81419829Y-95834053D01*
X81447813Y-95865085D01*
X81479785Y-95884977D01*
X81517668Y-95894700D01*
X81542467Y-95896065D01*
X81575336Y-95894084D01*
X81600084Y-95887926D01*
X81610570Y-95882951D01*
X81645988Y-95855436D01*
X81674304Y-95817891D01*
X81686550Y-95792874D01*
X81690632Y-95782518D01*
X81693846Y-95772554D01*
X81696311Y-95761178D01*
X81698149Y-95746589D01*
X81699480Y-95726983D01*
X81700424Y-95700559D01*
X81701103Y-95665514D01*
X81701637Y-95620045D01*
X81702146Y-95562351D01*
X81702171Y-95559386D01*
X81703830Y-95360067D01*
X81641245Y-95360067D01*
X81641121Y-95541747D01*
G04 #@! TO.C,Q1*
D13*
X85826970Y-118865902D02*
X85872715Y-118843030D01*
X85918460Y-118797285D01*
X85987077Y-118728668D01*
X86032822Y-118705795D01*
X86078566Y-118705795D01*
X86055694Y-118820157D02*
X86101439Y-118797285D01*
X86147184Y-118751540D01*
X86170056Y-118660050D01*
X86170056Y-118499944D01*
X86147184Y-118408454D01*
X86101439Y-118362710D01*
X86055694Y-118339837D01*
X85964205Y-118339837D01*
X85918460Y-118362710D01*
X85872715Y-118408454D01*
X85849843Y-118499944D01*
X85849843Y-118660050D01*
X85872715Y-118751540D01*
X85918460Y-118797285D01*
X85964205Y-118820157D01*
X86055694Y-118820157D01*
X85392395Y-118820157D02*
X85666864Y-118820157D01*
X85529629Y-118820157D02*
X85529629Y-118339837D01*
X85575374Y-118408454D01*
X85621119Y-118454199D01*
X85666864Y-118477071D01*
X87374387Y-116114244D02*
X87420126Y-116091375D01*
X87465864Y-116045637D01*
X87534471Y-115977030D01*
X87580209Y-115954160D01*
X87625947Y-115954160D01*
X87603078Y-116068506D02*
X87648817Y-116045637D01*
X87694555Y-115999899D01*
X87717424Y-115908422D01*
X87717424Y-115748339D01*
X87694555Y-115656862D01*
X87648817Y-115611124D01*
X87603078Y-115588255D01*
X87511602Y-115588255D01*
X87465864Y-115611124D01*
X87420126Y-115656862D01*
X87397257Y-115748339D01*
X87397257Y-115908422D01*
X87420126Y-115999899D01*
X87465864Y-116045637D01*
X87511602Y-116068506D01*
X87603078Y-116068506D01*
X87305780Y-116114244D02*
X86939875Y-116114244D01*
X86825529Y-116068506D02*
X86825529Y-115588255D01*
X86551100Y-116068506D01*
X86551100Y-115588255D01*
X86322409Y-116068506D02*
X86322409Y-115588255D01*
X86162325Y-115931291D01*
X86002242Y-115588255D01*
X86002242Y-116068506D01*
X85682074Y-115588255D02*
X85590598Y-115588255D01*
X85544860Y-115611124D01*
X85499122Y-115656862D01*
X85476253Y-115748339D01*
X85476253Y-115908422D01*
X85499122Y-115999899D01*
X85544860Y-116045637D01*
X85590598Y-116068506D01*
X85682074Y-116068506D01*
X85727813Y-116045637D01*
X85773551Y-115999899D01*
X85796420Y-115908422D01*
X85796420Y-115748339D01*
X85773551Y-115656862D01*
X85727813Y-115611124D01*
X85682074Y-115588255D01*
X85293300Y-116045637D02*
X85224692Y-116068506D01*
X85110347Y-116068506D01*
X85064609Y-116045637D01*
X85041740Y-116022768D01*
X85018871Y-115977030D01*
X85018871Y-115931291D01*
X85041740Y-115885553D01*
X85064609Y-115862684D01*
X85110347Y-115839815D01*
X85201823Y-115816946D01*
X85247562Y-115794077D01*
X85270431Y-115771208D01*
X85293300Y-115725469D01*
X85293300Y-115679731D01*
X85270431Y-115633993D01*
X85247562Y-115611124D01*
X85201823Y-115588255D01*
X85087478Y-115588255D01*
X85018871Y-115611124D01*
X84927394Y-116114244D02*
X84561489Y-116114244D01*
X84447143Y-116068506D02*
X84447143Y-115588255D01*
X84332798Y-115588255D01*
X84264190Y-115611124D01*
X84218452Y-115656862D01*
X84195583Y-115702600D01*
X84172714Y-115794077D01*
X84172714Y-115862684D01*
X84195583Y-115954160D01*
X84218452Y-115999899D01*
X84264190Y-116045637D01*
X84332798Y-116068506D01*
X84447143Y-116068506D01*
X83715332Y-115611124D02*
X83761070Y-115588255D01*
X83829678Y-115588255D01*
X83898285Y-115611124D01*
X83944023Y-115656862D01*
X83966892Y-115702600D01*
X83989761Y-115794077D01*
X83989761Y-115862684D01*
X83966892Y-115954160D01*
X83944023Y-115999899D01*
X83898285Y-116045637D01*
X83829678Y-116068506D01*
X83783939Y-116068506D01*
X83715332Y-116045637D01*
X83692463Y-116022768D01*
X83692463Y-115862684D01*
X83783939Y-115862684D01*
X83509510Y-116045637D02*
X83440903Y-116068506D01*
X83326558Y-116068506D01*
X83280819Y-116045637D01*
X83257950Y-116022768D01*
X83235081Y-115977030D01*
X83235081Y-115931291D01*
X83257950Y-115885553D01*
X83280819Y-115862684D01*
X83326558Y-115839815D01*
X83418034Y-115816946D01*
X83463772Y-115794077D01*
X83486641Y-115771208D01*
X83509510Y-115725469D01*
X83509510Y-115679731D01*
X83486641Y-115633993D01*
X83463772Y-115611124D01*
X83418034Y-115588255D01*
X83303688Y-115588255D01*
X83235081Y-115611124D01*
G04 #@! TO.C,R1*
D12*
X77922380Y-106868933D02*
X77446190Y-106535600D01*
X77922380Y-106297504D02*
X76922380Y-106297504D01*
X76922380Y-106678457D01*
X76970000Y-106773695D01*
X77017619Y-106821314D01*
X77112857Y-106868933D01*
X77255714Y-106868933D01*
X77350952Y-106821314D01*
X77398571Y-106773695D01*
X77446190Y-106678457D01*
X77446190Y-106297504D01*
X77922380Y-107821314D02*
X77922380Y-107249885D01*
X77922380Y-107535600D02*
X76922380Y-107535600D01*
X77065238Y-107440361D01*
X77160476Y-107345123D01*
X77208095Y-107249885D01*
G04 #@! TD*
M02*
