G04 #@! TF.GenerationSoftware,KiCad,Pcbnew,(5.0.1)-3*
G04 #@! TF.CreationDate,2019-01-26T22:39:22-03:30*
G04 #@! TF.ProjectId,Battery Pack,42617474657279205061636B2E6B6963,rev?*
G04 #@! TF.SameCoordinates,Original*
G04 #@! TF.FileFunction,Soldermask,Top*
G04 #@! TF.FilePolarity,Negative*
%FSLAX46Y46*%
G04 Gerber Fmt 4.6, Leading zero omitted, Abs format (unit mm)*
G04 Created by KiCad (PCBNEW (5.0.1)-3) date 2019-01-26 10:39:22 PM*
%MOMM*%
%LPD*%
G01*
G04 APERTURE LIST*
%ADD10C,0.100000*%
G04 APERTURE END LIST*
D10*
G36*
X100985401Y-113196054D02*
X101473322Y-113293107D01*
X102392546Y-113673862D01*
X103219825Y-114226632D01*
X103923368Y-114930175D01*
X104476138Y-115757454D01*
X104856893Y-116676678D01*
X105051000Y-117652520D01*
X105051000Y-118647480D01*
X104856893Y-119623322D01*
X104476138Y-120542546D01*
X103923368Y-121369825D01*
X103219825Y-122073368D01*
X102392546Y-122626138D01*
X101473322Y-123006893D01*
X100985401Y-123103946D01*
X100497481Y-123201000D01*
X99502519Y-123201000D01*
X99014599Y-123103946D01*
X98526678Y-123006893D01*
X97607454Y-122626138D01*
X96780175Y-122073368D01*
X96076632Y-121369825D01*
X95523862Y-120542546D01*
X95143107Y-119623322D01*
X94949000Y-118647480D01*
X94949000Y-117652520D01*
X95143107Y-116676678D01*
X95523862Y-115757454D01*
X96076632Y-114930175D01*
X96780175Y-114226632D01*
X97607454Y-113673862D01*
X98526678Y-113293107D01*
X99014599Y-113196054D01*
X99502519Y-113099000D01*
X100497481Y-113099000D01*
X100985401Y-113196054D01*
X100985401Y-113196054D01*
G37*
G36*
X110225331Y-117918211D02*
X110553092Y-118053974D01*
X110848073Y-118251074D01*
X111098926Y-118501927D01*
X111296026Y-118796908D01*
X111431789Y-119124669D01*
X111501000Y-119472616D01*
X111501000Y-119827384D01*
X111431789Y-120175331D01*
X111296026Y-120503092D01*
X111098926Y-120798073D01*
X110848073Y-121048926D01*
X110553092Y-121246026D01*
X110225331Y-121381789D01*
X109877384Y-121451000D01*
X109522616Y-121451000D01*
X109174669Y-121381789D01*
X108846908Y-121246026D01*
X108551927Y-121048926D01*
X108301074Y-120798073D01*
X108103974Y-120503092D01*
X107968211Y-120175331D01*
X107899000Y-119827384D01*
X107899000Y-119472616D01*
X107968211Y-119124669D01*
X108103974Y-118796908D01*
X108301074Y-118501927D01*
X108551927Y-118251074D01*
X108846908Y-118053974D01*
X109174669Y-117918211D01*
X109522616Y-117849000D01*
X109877384Y-117849000D01*
X110225331Y-117918211D01*
X110225331Y-117918211D01*
G37*
G36*
X90825331Y-117918211D02*
X91153092Y-118053974D01*
X91448073Y-118251074D01*
X91698926Y-118501927D01*
X91896026Y-118796908D01*
X92031789Y-119124669D01*
X92101000Y-119472616D01*
X92101000Y-119827384D01*
X92031789Y-120175331D01*
X91896026Y-120503092D01*
X91698926Y-120798073D01*
X91448073Y-121048926D01*
X91153092Y-121246026D01*
X90825331Y-121381789D01*
X90477384Y-121451000D01*
X90122616Y-121451000D01*
X89774669Y-121381789D01*
X89446908Y-121246026D01*
X89151927Y-121048926D01*
X88901074Y-120798073D01*
X88703974Y-120503092D01*
X88568211Y-120175331D01*
X88499000Y-119827384D01*
X88499000Y-119472616D01*
X88568211Y-119124669D01*
X88703974Y-118796908D01*
X88901074Y-118501927D01*
X89151927Y-118251074D01*
X89446908Y-118053974D01*
X89774669Y-117918211D01*
X90122616Y-117849000D01*
X90477384Y-117849000D01*
X90825331Y-117918211D01*
X90825331Y-117918211D01*
G37*
G36*
X86535401Y-106026053D02*
X87023322Y-106123107D01*
X87942546Y-106503862D01*
X88769825Y-107056632D01*
X89473368Y-107760175D01*
X90026138Y-108587454D01*
X90406893Y-109506678D01*
X90601000Y-110482520D01*
X90601000Y-111477480D01*
X90406893Y-112453322D01*
X90026138Y-113372546D01*
X89473368Y-114199825D01*
X88769825Y-114903368D01*
X87942546Y-115456138D01*
X87023322Y-115836893D01*
X86535401Y-115933947D01*
X86047481Y-116031000D01*
X85052519Y-116031000D01*
X84564599Y-115933947D01*
X84076678Y-115836893D01*
X83157454Y-115456138D01*
X82330175Y-114903368D01*
X81626632Y-114199825D01*
X81073862Y-113372546D01*
X80693107Y-112453322D01*
X80499000Y-111477480D01*
X80499000Y-110482520D01*
X80693107Y-109506678D01*
X81073862Y-108587454D01*
X81626632Y-107760175D01*
X82330175Y-107056632D01*
X83157454Y-106503862D01*
X84076678Y-106123107D01*
X84564599Y-106026053D01*
X85052519Y-105929000D01*
X86047481Y-105929000D01*
X86535401Y-106026053D01*
X86535401Y-106026053D01*
G37*
G36*
X115435401Y-106026053D02*
X115923322Y-106123107D01*
X116842546Y-106503862D01*
X117669825Y-107056632D01*
X118373368Y-107760175D01*
X118926138Y-108587454D01*
X119306893Y-109506678D01*
X119501000Y-110482520D01*
X119501000Y-111477480D01*
X119306893Y-112453322D01*
X118926138Y-113372546D01*
X118373368Y-114199825D01*
X117669825Y-114903368D01*
X116842546Y-115456138D01*
X115923322Y-115836893D01*
X115435401Y-115933947D01*
X114947481Y-116031000D01*
X113952519Y-116031000D01*
X113464599Y-115933947D01*
X112976678Y-115836893D01*
X112057454Y-115456138D01*
X111230175Y-114903368D01*
X110526632Y-114199825D01*
X109973862Y-113372546D01*
X109593107Y-112453322D01*
X109399000Y-111477480D01*
X109399000Y-110482520D01*
X109593107Y-109506678D01*
X109973862Y-108587454D01*
X110526632Y-107760175D01*
X111230175Y-107056632D01*
X112057454Y-106503862D01*
X112976678Y-106123107D01*
X113464599Y-106026053D01*
X113952519Y-105929000D01*
X114947481Y-105929000D01*
X115435401Y-106026053D01*
X115435401Y-106026053D01*
G37*
G36*
X100985401Y-96716053D02*
X101473322Y-96813107D01*
X102392546Y-97193862D01*
X103219825Y-97746632D01*
X103923368Y-98450175D01*
X104476138Y-99277454D01*
X104856893Y-100196678D01*
X104953946Y-100684599D01*
X105051000Y-101172519D01*
X105051000Y-102167481D01*
X104969301Y-102578211D01*
X104856893Y-103143322D01*
X104476138Y-104062546D01*
X103923368Y-104889825D01*
X103219825Y-105593368D01*
X102392546Y-106146138D01*
X101473322Y-106526893D01*
X100985401Y-106623947D01*
X100497481Y-106721000D01*
X99502519Y-106721000D01*
X99014599Y-106623947D01*
X98526678Y-106526893D01*
X97607454Y-106146138D01*
X96780175Y-105593368D01*
X96076632Y-104889825D01*
X95523862Y-104062546D01*
X95143107Y-103143322D01*
X95030699Y-102578211D01*
X94949000Y-102167481D01*
X94949000Y-101172519D01*
X95046054Y-100684599D01*
X95143107Y-100196678D01*
X95523862Y-99277454D01*
X96076632Y-98450175D01*
X96780175Y-97746632D01*
X97607454Y-97193862D01*
X98526678Y-96813107D01*
X99014599Y-96716054D01*
X99502519Y-96619000D01*
X100497481Y-96619000D01*
X100985401Y-96716053D01*
X100985401Y-96716053D01*
G37*
G36*
X121905331Y-102578211D02*
X122233092Y-102713974D01*
X122528073Y-102911074D01*
X122778926Y-103161927D01*
X122976026Y-103456908D01*
X123111789Y-103784669D01*
X123181000Y-104132616D01*
X123181000Y-104487384D01*
X123111789Y-104835331D01*
X122976026Y-105163092D01*
X122778926Y-105458073D01*
X122528073Y-105708926D01*
X122233092Y-105906026D01*
X121905331Y-106041789D01*
X121557384Y-106111000D01*
X121202616Y-106111000D01*
X120854669Y-106041789D01*
X120526908Y-105906026D01*
X120231927Y-105708926D01*
X119981074Y-105458073D01*
X119783974Y-105163092D01*
X119648211Y-104835331D01*
X119579000Y-104487384D01*
X119579000Y-104132616D01*
X119648211Y-103784669D01*
X119783974Y-103456908D01*
X119981074Y-103161927D01*
X120231927Y-102911074D01*
X120526908Y-102713974D01*
X120854669Y-102578211D01*
X121202616Y-102509000D01*
X121557384Y-102509000D01*
X121905331Y-102578211D01*
X121905331Y-102578211D01*
G37*
G36*
X79145331Y-102578211D02*
X79473092Y-102713974D01*
X79768073Y-102911074D01*
X80018926Y-103161927D01*
X80216026Y-103456908D01*
X80351789Y-103784669D01*
X80421000Y-104132616D01*
X80421000Y-104487384D01*
X80351789Y-104835331D01*
X80216026Y-105163092D01*
X80018926Y-105458073D01*
X79768073Y-105708926D01*
X79473092Y-105906026D01*
X79145331Y-106041789D01*
X78797384Y-106111000D01*
X78442616Y-106111000D01*
X78094669Y-106041789D01*
X77766908Y-105906026D01*
X77471927Y-105708926D01*
X77221074Y-105458073D01*
X77023974Y-105163092D01*
X76888211Y-104835331D01*
X76819000Y-104487384D01*
X76819000Y-104132616D01*
X76888211Y-103784669D01*
X77023974Y-103456908D01*
X77221074Y-103161927D01*
X77471927Y-102911074D01*
X77766908Y-102713974D01*
X78094669Y-102578211D01*
X78442616Y-102509000D01*
X78797384Y-102509000D01*
X79145331Y-102578211D01*
X79145331Y-102578211D01*
G37*
G36*
X118555401Y-90506054D02*
X119043322Y-90603107D01*
X119962546Y-90983862D01*
X120789825Y-91536632D01*
X121493368Y-92240175D01*
X122046138Y-93067454D01*
X122426893Y-93986678D01*
X122621000Y-94962520D01*
X122621000Y-95957480D01*
X122426893Y-96933322D01*
X122046138Y-97852546D01*
X121493368Y-98679825D01*
X120789825Y-99383368D01*
X119962546Y-99936138D01*
X119043322Y-100316893D01*
X118555401Y-100413946D01*
X118067481Y-100511000D01*
X117072519Y-100511000D01*
X116584599Y-100413947D01*
X116096678Y-100316893D01*
X115177454Y-99936138D01*
X114350175Y-99383368D01*
X113646632Y-98679825D01*
X113093862Y-97852546D01*
X112713107Y-96933322D01*
X112519000Y-95957480D01*
X112519000Y-94962520D01*
X112713107Y-93986678D01*
X113093862Y-93067454D01*
X113646632Y-92240175D01*
X114350175Y-91536632D01*
X115177454Y-90983862D01*
X116096678Y-90603107D01*
X116584599Y-90506054D01*
X117072519Y-90409000D01*
X118067481Y-90409000D01*
X118555401Y-90506054D01*
X118555401Y-90506054D01*
G37*
G36*
X83415401Y-90506054D02*
X83903322Y-90603107D01*
X84822546Y-90983862D01*
X85649825Y-91536632D01*
X86353368Y-92240175D01*
X86906138Y-93067454D01*
X87286893Y-93986678D01*
X87481000Y-94962520D01*
X87481000Y-95957480D01*
X87286893Y-96933322D01*
X86906138Y-97852546D01*
X86353368Y-98679825D01*
X85649825Y-99383368D01*
X84822546Y-99936138D01*
X83903322Y-100316893D01*
X83415401Y-100413946D01*
X82927481Y-100511000D01*
X81932519Y-100511000D01*
X81444599Y-100413947D01*
X80956678Y-100316893D01*
X80037454Y-99936138D01*
X79210175Y-99383368D01*
X78506632Y-98679825D01*
X77953862Y-97852546D01*
X77573107Y-96933322D01*
X77379000Y-95957480D01*
X77379000Y-94962520D01*
X77573107Y-93986678D01*
X77953862Y-93067454D01*
X78506632Y-92240175D01*
X79210175Y-91536632D01*
X80037454Y-90983862D01*
X80956678Y-90603107D01*
X81444599Y-90506054D01*
X81932519Y-90409000D01*
X82927481Y-90409000D01*
X83415401Y-90506054D01*
X83415401Y-90506054D01*
G37*
M02*
