G04 #@! TF.GenerationSoftware,KiCad,Pcbnew,(5.0.0)*
G04 #@! TF.CreationDate,2019-02-11T21:57:58-03:30*
G04 #@! TF.ProjectId,Tooling Board,546F6F6C696E6720426F6172642E6B69,rev?*
G04 #@! TF.SameCoordinates,Original*
G04 #@! TF.FileFunction,Copper,L1,Top,Signal*
G04 #@! TF.FilePolarity,Positive*
%FSLAX46Y46*%
G04 Gerber Fmt 4.6, Leading zero omitted, Abs format (unit mm)*
G04 Created by KiCad (PCBNEW (5.0.0)) date 02/11/19 21:57:58*
%MOMM*%
%LPD*%
G01*
G04 APERTURE LIST*
G04 #@! TA.AperFunction,SMDPad,CuDef*
%ADD10R,0.850000X0.280000*%
G04 #@! TD*
G04 #@! TA.AperFunction,SMDPad,CuDef*
%ADD11R,0.280000X0.850000*%
G04 #@! TD*
G04 #@! TA.AperFunction,ComponentPad*
%ADD12C,0.300000*%
G04 #@! TD*
G04 #@! TA.AperFunction,SMDPad,CuDef*
%ADD13R,3.450000X3.450000*%
G04 #@! TD*
G04 #@! TA.AperFunction,SMDPad,CuDef*
%ADD14R,0.720000X1.425000*%
G04 #@! TD*
G04 #@! TA.AperFunction,SMDPad,CuDef*
%ADD15R,0.200000X0.620000*%
G04 #@! TD*
G04 #@! TA.AperFunction,SMDPad,CuDef*
%ADD16R,0.300000X0.400000*%
G04 #@! TD*
G04 #@! TA.AperFunction,SMDPad,CuDef*
%ADD17R,0.300000X0.475000*%
G04 #@! TD*
G04 #@! TA.AperFunction,ComponentPad*
%ADD18C,1.524000*%
G04 #@! TD*
G04 #@! TA.AperFunction,SMDPad,CuDef*
%ADD19R,2.921000X3.048000*%
G04 #@! TD*
G04 #@! TA.AperFunction,SMDPad,CuDef*
%ADD20R,6.197600X9.804400*%
G04 #@! TD*
G04 #@! TA.AperFunction,SMDPad,CuDef*
%ADD21R,1.778000X0.635000*%
G04 #@! TD*
G04 #@! TA.AperFunction,SMDPad,CuDef*
%ADD22R,1.651000X0.635000*%
G04 #@! TD*
G04 #@! TA.AperFunction,SMDPad,CuDef*
%ADD23R,0.300000X0.300000*%
G04 #@! TD*
G04 #@! TA.AperFunction,ComponentPad*
%ADD24R,1.000000X1.000000*%
G04 #@! TD*
G04 #@! TA.AperFunction,ComponentPad*
%ADD25O,1.000000X1.000000*%
G04 #@! TD*
G04 #@! TA.AperFunction,SMDPad,CuDef*
%ADD26R,1.300000X0.700000*%
G04 #@! TD*
G04 #@! TA.AperFunction,SMDPad,CuDef*
%ADD27R,0.700000X1.300000*%
G04 #@! TD*
G04 #@! TA.AperFunction,SMDPad,CuDef*
%ADD28R,1.600000X2.000000*%
G04 #@! TD*
G04 #@! TA.AperFunction,SMDPad,CuDef*
%ADD29R,1.800000X1.000000*%
G04 #@! TD*
G04 #@! TA.AperFunction,ComponentPad*
%ADD30R,1.600000X1.600000*%
G04 #@! TD*
G04 #@! TA.AperFunction,ComponentPad*
%ADD31C,1.600000*%
G04 #@! TD*
G04 #@! TA.AperFunction,SMDPad,CuDef*
%ADD32R,1.140000X2.030000*%
G04 #@! TD*
G04 #@! TA.AperFunction,ComponentPad*
%ADD33C,3.200000*%
G04 #@! TD*
G04 #@! TA.AperFunction,SMDPad,CuDef*
%ADD34R,3.100000X0.500000*%
G04 #@! TD*
G04 #@! TA.AperFunction,SMDPad,CuDef*
%ADD35R,3.300000X2.000000*%
G04 #@! TD*
G04 #@! TA.AperFunction,SMDPad,CuDef*
%ADD36R,2.500000X2.000000*%
G04 #@! TD*
G04 #@! TA.AperFunction,SMDPad,CuDef*
%ADD37R,0.508000X1.143000*%
G04 #@! TD*
G04 #@! TA.AperFunction,SMDPad,CuDef*
%ADD38R,1.143000X0.508000*%
G04 #@! TD*
G04 #@! TA.AperFunction,SMDPad,CuDef*
%ADD39R,0.650000X1.060000*%
G04 #@! TD*
G04 #@! TA.AperFunction,SMDPad,CuDef*
%ADD40R,1.060000X0.650000*%
G04 #@! TD*
G04 #@! TA.AperFunction,ComponentPad*
%ADD41R,1.724000X1.724000*%
G04 #@! TD*
G04 #@! TA.AperFunction,ComponentPad*
%ADD42C,1.824000*%
G04 #@! TD*
G04 #@! TA.AperFunction,ComponentPad*
%ADD43C,1.440000*%
G04 #@! TD*
G04 #@! TA.AperFunction,SMDPad,CuDef*
%ADD44R,1.250000X1.000000*%
G04 #@! TD*
G04 #@! TA.AperFunction,SMDPad,CuDef*
%ADD45R,1.000000X1.250000*%
G04 #@! TD*
G04 #@! TA.AperFunction,SMDPad,CuDef*
%ADD46R,0.800000X0.750000*%
G04 #@! TD*
G04 #@! TA.AperFunction,SMDPad,CuDef*
%ADD47R,1.200000X1.200000*%
G04 #@! TD*
G04 #@! TA.AperFunction,SMDPad,CuDef*
%ADD48R,1.700000X0.900000*%
G04 #@! TD*
G04 #@! TA.AperFunction,ViaPad*
%ADD49C,6.000000*%
G04 #@! TD*
G04 #@! TA.AperFunction,ViaPad*
%ADD50C,0.600000*%
G04 #@! TD*
G04 #@! TA.AperFunction,ViaPad*
%ADD51C,0.800000*%
G04 #@! TD*
G04 #@! TA.AperFunction,Conductor*
%ADD52C,0.250000*%
G04 #@! TD*
G04 #@! TA.AperFunction,Conductor*
%ADD53C,0.200000*%
G04 #@! TD*
G04 #@! TA.AperFunction,Conductor*
%ADD54C,0.500000*%
G04 #@! TD*
G04 #@! TA.AperFunction,Conductor*
%ADD55C,1.000000*%
G04 #@! TD*
G04 #@! TA.AperFunction,Conductor*
%ADD56C,0.750000*%
G04 #@! TD*
G04 #@! TA.AperFunction,Conductor*
%ADD57C,0.254000*%
G04 #@! TD*
G04 APERTURE END LIST*
D10*
G04 #@! TO.P,U201,32*
G04 #@! TO.N,SWDIO*
X152805000Y-77000000D03*
G04 #@! TO.P,U201,31*
G04 #@! TO.N,SWCLK*
X152805000Y-76500000D03*
G04 #@! TO.P,U201,30*
G04 #@! TO.N,+3V3*
X152805000Y-76000000D03*
G04 #@! TO.P,U201,29*
G04 #@! TO.N,Net-(C207-Pad1)*
X152805000Y-75500000D03*
G04 #@! TO.P,U201,28*
G04 #@! TO.N,GND*
X152805000Y-75000000D03*
G04 #@! TO.P,U201,27*
G04 #@! TO.N,DirB2*
X152805000Y-74500000D03*
G04 #@! TO.P,U201,26*
G04 #@! TO.N,~RESET~*
X152805000Y-74000000D03*
D11*
G04 #@! TO.P,U201,24*
G04 #@! TO.N,USB+*
X153530000Y-72775000D03*
G04 #@! TO.P,U201,23*
G04 #@! TO.N,USB-*
X154030000Y-72775000D03*
G04 #@! TO.P,U201,22*
G04 #@! TO.N,SCL*
X154530000Y-72775000D03*
G04 #@! TO.P,U201,21*
G04 #@! TO.N,SDA*
X155030000Y-72775000D03*
G04 #@! TO.P,U201,20*
G04 #@! TO.N,EnableB2*
X155530000Y-72775000D03*
G04 #@! TO.P,U201,19*
G04 #@! TO.N,LED*
X156030000Y-72775000D03*
G04 #@! TO.P,U201,18*
G04 #@! TO.N,DirA2*
X156530000Y-72775000D03*
D10*
G04 #@! TO.P,U201,16*
G04 #@! TO.N,EnableA2*
X157755000Y-73500000D03*
G04 #@! TO.P,U201,15*
G04 #@! TO.N,DirA1*
X157755000Y-74000000D03*
G04 #@! TO.P,U201,14*
G04 #@! TO.N,Net-(R203-Pad1)*
X157755000Y-74500000D03*
G04 #@! TO.P,U201,13*
G04 #@! TO.N,T_DATA*
X157755000Y-75000000D03*
G04 #@! TO.P,U201,12*
G04 #@! TO.N,EnableA1*
X157755000Y-75500000D03*
G04 #@! TO.P,U201,11*
G04 #@! TO.N,EnableB1*
X157755000Y-76000000D03*
G04 #@! TO.P,U201,10*
G04 #@! TO.N,GND*
X157755000Y-76500000D03*
D11*
G04 #@! TO.P,U201,8*
G04 #@! TO.N,Net-(U201-Pad8)*
X157030000Y-77725000D03*
G04 #@! TO.P,U201,7*
G04 #@! TO.N,Net-(U201-Pad7)*
X156530000Y-77725000D03*
G04 #@! TO.P,U201,6*
G04 #@! TO.N,V_PH*
X156030000Y-77725000D03*
G04 #@! TO.P,U201,5*
G04 #@! TO.N,V_METAL*
X155530000Y-77725000D03*
G04 #@! TO.P,U201,4*
G04 #@! TO.N,Net-(U201-Pad4)*
X155030000Y-77725000D03*
G04 #@! TO.P,U201,3*
G04 #@! TO.N,Net-(U201-Pad3)*
X154530000Y-77725000D03*
G04 #@! TO.P,U201,2*
G04 #@! TO.N,Net-(C206-Pad1)*
X154030000Y-77725000D03*
G04 #@! TO.P,U201,1*
G04 #@! TO.N,Net-(C205-Pad1)*
X153530000Y-77725000D03*
D12*
G04 #@! TO.P,U201,33*
G04 #@! TO.N,GND*
X156280000Y-76250000D03*
X155280000Y-76250000D03*
X154280000Y-76250000D03*
X156280000Y-75250000D03*
X155279999Y-75250000D03*
X154280000Y-75250000D03*
X156280000Y-74250000D03*
X155280000Y-74250000D03*
X154280000Y-74250000D03*
D13*
X155279999Y-75250000D03*
D10*
G04 #@! TO.P,U201,9*
G04 #@! TO.N,3V3_FILT*
X157755000Y-77000000D03*
D11*
G04 #@! TO.P,U201,17*
G04 #@! TO.N,DirB1*
X157030000Y-72775000D03*
D10*
G04 #@! TO.P,U201,25*
G04 #@! TO.N,Net-(U201-Pad25)*
X152805000Y-73500000D03*
G04 #@! TD*
D14*
G04 #@! TO.P,Q301,1*
G04 #@! TO.N,Net-(J301-Pad2)*
X112750000Y-75760000D03*
D15*
G04 #@! TO.P,Q301,3*
G04 #@! TO.N,GND*
X113460000Y-75760000D03*
D16*
X113460000Y-75047500D03*
D17*
G04 #@! TO.P,Q301,1*
G04 #@! TO.N,Net-(J301-Pad2)*
X112960000Y-75047500D03*
X112460000Y-75047500D03*
D16*
G04 #@! TO.P,Q301,2*
G04 #@! TO.N,LED*
X113460000Y-76472500D03*
D17*
G04 #@! TO.P,Q301,1*
G04 #@! TO.N,Net-(J301-Pad2)*
X112960000Y-76472500D03*
X112460000Y-76472500D03*
G04 #@! TD*
D14*
G04 #@! TO.P,Q302,1*
G04 #@! TO.N,Net-(J302-Pad2)*
X115850000Y-77450000D03*
D15*
G04 #@! TO.P,Q302,3*
G04 #@! TO.N,GND*
X115140000Y-77450000D03*
D16*
X115140000Y-78162500D03*
D17*
G04 #@! TO.P,Q302,1*
G04 #@! TO.N,Net-(J302-Pad2)*
X115640000Y-78162500D03*
X116140000Y-78162500D03*
D16*
G04 #@! TO.P,Q302,2*
G04 #@! TO.N,LED*
X115140000Y-76737500D03*
D17*
G04 #@! TO.P,Q302,1*
G04 #@! TO.N,Net-(J302-Pad2)*
X115640000Y-76737500D03*
X116140000Y-76737500D03*
G04 #@! TD*
D18*
G04 #@! TO.P,U701,10*
G04 #@! TO.N,+3V3*
X171670000Y-80350000D03*
G04 #@! TO.P,U701,9*
G04 #@! TO.N,Net-(U701-Pad9)*
X169130000Y-80350000D03*
G04 #@! TO.P,U701,8*
G04 #@! TO.N,Net-(U701-Pad8)*
X166590000Y-80350000D03*
G04 #@! TO.P,U701,7*
G04 #@! TO.N,Net-(U701-Pad7)*
X164050000Y-80350000D03*
G04 #@! TO.P,U701,6*
G04 #@! TO.N,GND*
X174210000Y-98130000D03*
G04 #@! TO.P,U701,5*
G04 #@! TO.N,SCL*
X171670000Y-98130000D03*
G04 #@! TO.P,U701,4*
G04 #@! TO.N,SDA*
X169130000Y-98130000D03*
G04 #@! TO.P,U701,3*
G04 #@! TO.N,GND*
X166590000Y-98130000D03*
G04 #@! TO.P,U701,2*
G04 #@! TO.N,Net-(U701-Pad2)*
X164050000Y-98130000D03*
G04 #@! TO.P,U701,1*
G04 #@! TO.N,+3V3*
X161510000Y-98130000D03*
G04 #@! TD*
D19*
G04 #@! TO.P,U502,10*
G04 #@! TO.N,GND*
X139290000Y-67536200D03*
X139290000Y-54683800D03*
D20*
X139290000Y-61110000D03*
D21*
G04 #@! TO.P,U502,20*
X146071800Y-55395000D03*
G04 #@! TO.P,U502,19*
G04 #@! TO.N,Net-(R502-Pad2)*
X146071800Y-56665000D03*
G04 #@! TO.P,U502,18*
G04 #@! TO.N,Net-(U502-Pad18)*
X146071800Y-57935000D03*
G04 #@! TO.P,U502,17*
G04 #@! TO.N,Net-(J503-Pad1)*
X146071800Y-59205000D03*
D22*
G04 #@! TO.P,U502,16*
G04 #@! TO.N,Net-(J504-Pad1)*
X146122600Y-60475000D03*
D21*
G04 #@! TO.P,U502,15*
G04 #@! TO.N,/Actuators/DCMotor3-4/Input4*
X146071800Y-61745000D03*
G04 #@! TO.P,U502,14*
G04 #@! TO.N,EnableB2*
X146071800Y-63015000D03*
G04 #@! TO.P,U502,13*
G04 #@! TO.N,DirB2*
X146071800Y-64285000D03*
G04 #@! TO.P,U502,12*
G04 #@! TO.N,+5V*
X146071800Y-65555000D03*
G04 #@! TO.P,U502,11*
G04 #@! TO.N,GND*
X146071800Y-66825000D03*
G04 #@! TO.P,U502,10*
X132508200Y-66825000D03*
G04 #@! TO.P,U502,9*
G04 #@! TO.N,/Actuators/DCMotor3-4/Input2*
X132508200Y-65555000D03*
G04 #@! TO.P,U502,8*
G04 #@! TO.N,EnableA2*
X132508200Y-64285000D03*
G04 #@! TO.P,U502,7*
G04 #@! TO.N,DirA2*
X132508200Y-63015000D03*
G04 #@! TO.P,U502,6*
G04 #@! TO.N,+12V*
X132508200Y-61745000D03*
G04 #@! TO.P,U502,5*
G04 #@! TO.N,Net-(J502-Pad1)*
X132508200Y-60475000D03*
G04 #@! TO.P,U502,4*
G04 #@! TO.N,Net-(J501-Pad1)*
X132508200Y-59205000D03*
G04 #@! TO.P,U502,3*
G04 #@! TO.N,Net-(U502-Pad3)*
X132508200Y-57935000D03*
G04 #@! TO.P,U502,2*
G04 #@! TO.N,Net-(R501-Pad1)*
X132508200Y-56665000D03*
G04 #@! TO.P,U502,1*
G04 #@! TO.N,GND*
X132508200Y-55395000D03*
G04 #@! TD*
D19*
G04 #@! TO.P,U402,10*
G04 #@! TO.N,GND*
X171780000Y-67676200D03*
X171780000Y-54823800D03*
D20*
X171780000Y-61250000D03*
D21*
G04 #@! TO.P,U402,20*
X178561800Y-55535000D03*
G04 #@! TO.P,U402,19*
G04 #@! TO.N,Net-(R402-Pad2)*
X178561800Y-56805000D03*
G04 #@! TO.P,U402,18*
G04 #@! TO.N,Net-(U402-Pad18)*
X178561800Y-58075000D03*
G04 #@! TO.P,U402,17*
G04 #@! TO.N,Net-(J403-Pad1)*
X178561800Y-59345000D03*
D22*
G04 #@! TO.P,U402,16*
G04 #@! TO.N,Net-(J404-Pad1)*
X178612600Y-60615000D03*
D21*
G04 #@! TO.P,U402,15*
G04 #@! TO.N,/Actuators/DCMotor1-2/Input4*
X178561800Y-61885000D03*
G04 #@! TO.P,U402,14*
G04 #@! TO.N,EnableB1*
X178561800Y-63155000D03*
G04 #@! TO.P,U402,13*
G04 #@! TO.N,DirB1*
X178561800Y-64425000D03*
G04 #@! TO.P,U402,12*
G04 #@! TO.N,+5V*
X178561800Y-65695000D03*
G04 #@! TO.P,U402,11*
G04 #@! TO.N,GND*
X178561800Y-66965000D03*
G04 #@! TO.P,U402,10*
X164998200Y-66965000D03*
G04 #@! TO.P,U402,9*
G04 #@! TO.N,/Actuators/DCMotor1-2/Input2*
X164998200Y-65695000D03*
G04 #@! TO.P,U402,8*
G04 #@! TO.N,EnableA1*
X164998200Y-64425000D03*
G04 #@! TO.P,U402,7*
G04 #@! TO.N,DirA1*
X164998200Y-63155000D03*
G04 #@! TO.P,U402,6*
G04 #@! TO.N,+12V*
X164998200Y-61885000D03*
G04 #@! TO.P,U402,5*
G04 #@! TO.N,Net-(J402-Pad1)*
X164998200Y-60615000D03*
G04 #@! TO.P,U402,4*
G04 #@! TO.N,Net-(J401-Pad1)*
X164998200Y-59345000D03*
G04 #@! TO.P,U402,3*
G04 #@! TO.N,Net-(U402-Pad3)*
X164998200Y-58075000D03*
G04 #@! TO.P,U402,2*
G04 #@! TO.N,Net-(R401-Pad1)*
X164998200Y-56805000D03*
G04 #@! TO.P,U402,1*
G04 #@! TO.N,GND*
X164998200Y-55535000D03*
G04 #@! TD*
D23*
G04 #@! TO.P,U501,1*
G04 #@! TO.N,DirA2*
X145550000Y-70379000D03*
G04 #@! TO.P,U501,2*
G04 #@! TO.N,GND*
X146050000Y-70379000D03*
G04 #@! TO.P,U501,3*
G04 #@! TO.N,DirB2*
X146550000Y-70379000D03*
G04 #@! TO.P,U501,4*
G04 #@! TO.N,/Actuators/DCMotor3-4/Input4*
X146550000Y-69829000D03*
G04 #@! TO.P,U501,5*
G04 #@! TO.N,+5V*
X146050000Y-69829000D03*
G04 #@! TO.P,U501,6*
G04 #@! TO.N,/Actuators/DCMotor3-4/Input2*
X145550000Y-69829000D03*
G04 #@! TD*
G04 #@! TO.P,U401,1*
G04 #@! TO.N,DirA1*
X165190000Y-70840000D03*
G04 #@! TO.P,U401,2*
G04 #@! TO.N,GND*
X165690000Y-70840000D03*
G04 #@! TO.P,U401,3*
G04 #@! TO.N,DirB1*
X166190000Y-70840000D03*
G04 #@! TO.P,U401,4*
G04 #@! TO.N,/Actuators/DCMotor1-2/Input4*
X166190000Y-70290000D03*
G04 #@! TO.P,U401,5*
G04 #@! TO.N,+5V*
X165690000Y-70290000D03*
G04 #@! TO.P,U401,6*
G04 #@! TO.N,/Actuators/DCMotor1-2/Input2*
X165190000Y-70290000D03*
G04 #@! TD*
D24*
G04 #@! TO.P,J201,1*
G04 #@! TO.N,+3V3*
X151200000Y-90400000D03*
D25*
G04 #@! TO.P,J201,2*
G04 #@! TO.N,SWDIO*
X149930000Y-90400000D03*
G04 #@! TO.P,J201,3*
G04 #@! TO.N,GND*
X151200000Y-89130000D03*
G04 #@! TO.P,J201,4*
G04 #@! TO.N,SWCLK*
X149930000Y-89130000D03*
G04 #@! TO.P,J201,5*
G04 #@! TO.N,GND*
X151200000Y-87860000D03*
G04 #@! TO.P,J201,6*
G04 #@! TO.N,Net-(J201-Pad6)*
X149930000Y-87860000D03*
G04 #@! TO.P,J201,7*
G04 #@! TO.N,Net-(J201-Pad7)*
X151200000Y-86590000D03*
G04 #@! TO.P,J201,8*
G04 #@! TO.N,Net-(J201-Pad8)*
X149930000Y-86590000D03*
G04 #@! TO.P,J201,9*
G04 #@! TO.N,Net-(J201-Pad9)*
X151200000Y-85320000D03*
G04 #@! TO.P,J201,10*
G04 #@! TO.N,~RESET~*
X149930000Y-85320000D03*
G04 #@! TD*
D26*
G04 #@! TO.P,L201,1*
G04 #@! TO.N,3V3_FILT*
X129000000Y-76720000D03*
G04 #@! TO.P,L201,2*
G04 #@! TO.N,+3V3*
X129000000Y-74820000D03*
G04 #@! TD*
D27*
G04 #@! TO.P,L202,1*
G04 #@! TO.N,+5V*
X121810000Y-66140000D03*
G04 #@! TO.P,L202,2*
G04 #@! TO.N,/MicroController/+5V_IN*
X119910000Y-66140000D03*
G04 #@! TD*
D28*
G04 #@! TO.P,SW201,2*
G04 #@! TO.N,~RESET~*
X145800000Y-85100000D03*
G04 #@! TO.P,SW201,1*
G04 #@! TO.N,GND*
X145800000Y-90500000D03*
G04 #@! TD*
D29*
G04 #@! TO.P,Y201,2*
G04 #@! TO.N,Net-(C206-Pad1)*
X149800000Y-82400000D03*
G04 #@! TO.P,Y201,1*
G04 #@! TO.N,Net-(C205-Pad1)*
X149800000Y-79900000D03*
G04 #@! TD*
D30*
G04 #@! TO.P,C101,1*
G04 #@! TO.N,+12V*
X113430000Y-55730000D03*
D31*
G04 #@! TO.P,C101,2*
G04 #@! TO.N,GND*
X113430000Y-58230000D03*
G04 #@! TD*
D30*
G04 #@! TO.P,C102,1*
G04 #@! TO.N,+12V*
X106330000Y-49470000D03*
D31*
G04 #@! TO.P,C102,2*
G04 #@! TO.N,GND*
X103830000Y-49470000D03*
G04 #@! TD*
D30*
G04 #@! TO.P,C104,1*
G04 #@! TO.N,+12V*
X105270000Y-55720000D03*
D31*
G04 #@! TO.P,C104,2*
G04 #@! TO.N,GND*
X105270000Y-58220000D03*
G04 #@! TD*
D32*
G04 #@! TO.P,F101,2*
G04 #@! TO.N,Net-(F101-Pad2)*
X112890000Y-65330000D03*
G04 #@! TO.P,F101,1*
G04 #@! TO.N,/MicroController/+5V_IN*
X115290000Y-65330000D03*
G04 #@! TD*
D33*
G04 #@! TO.P,J101,1*
G04 #@! TO.N,+12V*
X112355000Y-45480000D03*
X119365000Y-45480000D03*
X119365000Y-50480000D03*
X112355000Y-50480000D03*
G04 #@! TD*
G04 #@! TO.P,J102,1*
G04 #@! TO.N,GND*
X115275000Y-34850000D03*
X122285000Y-34850000D03*
X122285000Y-39850000D03*
X115275000Y-39850000D03*
G04 #@! TD*
D34*
G04 #@! TO.P,J103,5*
G04 #@! TO.N,GND*
X108990000Y-68470000D03*
G04 #@! TO.P,J103,4*
G04 #@! TO.N,Net-(J103-Pad4)*
X108990000Y-67670000D03*
G04 #@! TO.P,J103,3*
G04 #@! TO.N,USB+*
X108990000Y-66870000D03*
G04 #@! TO.P,J103,2*
G04 #@! TO.N,USB-*
X108990000Y-66070000D03*
G04 #@! TO.P,J103,1*
G04 #@! TO.N,Net-(F101-Pad2)*
X108990000Y-65270000D03*
D35*
G04 #@! TO.P,J103,6*
G04 #@! TO.N,GND*
X108890000Y-62420000D03*
X108890000Y-71320000D03*
D36*
X102990000Y-62420000D03*
X102990000Y-71320000D03*
G04 #@! TD*
D33*
G04 #@! TO.P,J401,1*
G04 #@! TO.N,Net-(J401-Pad1)*
X161145000Y-35040000D03*
X168155000Y-35040000D03*
X168155000Y-40040000D03*
X161145000Y-40040000D03*
G04 #@! TD*
G04 #@! TO.P,J402,1*
G04 #@! TO.N,Net-(J402-Pad1)*
X161125000Y-44910000D03*
X168135000Y-44910000D03*
X168135000Y-49910000D03*
X161125000Y-49910000D03*
G04 #@! TD*
G04 #@! TO.P,J403,1*
G04 #@! TO.N,Net-(J403-Pad1)*
X174485000Y-35100000D03*
X181495000Y-35100000D03*
X181495000Y-40100000D03*
X174485000Y-40100000D03*
G04 #@! TD*
G04 #@! TO.P,J404,1*
G04 #@! TO.N,Net-(J404-Pad1)*
X174415000Y-44900000D03*
X181425000Y-44900000D03*
X181425000Y-49900000D03*
X174415000Y-49900000D03*
G04 #@! TD*
G04 #@! TO.P,J501,1*
G04 #@! TO.N,Net-(J501-Pad1)*
X128915000Y-34890000D03*
X135925000Y-34890000D03*
X135925000Y-39890000D03*
X128915000Y-39890000D03*
G04 #@! TD*
G04 #@! TO.P,J502,1*
G04 #@! TO.N,Net-(J502-Pad1)*
X128829000Y-44490000D03*
X135839000Y-44490000D03*
X135839000Y-49490000D03*
X128829000Y-49490000D03*
G04 #@! TD*
G04 #@! TO.P,J503,1*
G04 #@! TO.N,Net-(J503-Pad1)*
X142037000Y-34838000D03*
X149047000Y-34838000D03*
X149047000Y-39838000D03*
X142037000Y-39838000D03*
G04 #@! TD*
G04 #@! TO.P,J504,1*
G04 #@! TO.N,Net-(J504-Pad1)*
X141995000Y-44340000D03*
X149005000Y-44340000D03*
X149005000Y-49340000D03*
X141995000Y-49340000D03*
G04 #@! TD*
D37*
G04 #@! TO.P,U801,8*
G04 #@! TO.N,Net-(U801-Pad8)*
X192345000Y-51595000D03*
G04 #@! TO.P,U801,7*
G04 #@! TO.N,+5V*
X191075000Y-51595000D03*
G04 #@! TO.P,U801,6*
G04 #@! TO.N,Net-(C806-Pad1)*
X189805000Y-51595000D03*
G04 #@! TO.P,U801,5*
G04 #@! TO.N,Net-(U801-Pad5)*
X188535000Y-51595000D03*
G04 #@! TO.P,U801,4*
G04 #@! TO.N,-5V*
X188535000Y-45245000D03*
G04 #@! TO.P,U801,3*
G04 #@! TO.N,Net-(C802-Pad1)*
X189805000Y-45245000D03*
G04 #@! TO.P,U801,2*
G04 #@! TO.N,Net-(C806-Pad2)*
X191075000Y-45245000D03*
G04 #@! TO.P,U801,1*
G04 #@! TO.N,Net-(U801-Pad1)*
X192345000Y-45245000D03*
G04 #@! TD*
D38*
G04 #@! TO.P,U803,8*
G04 #@! TO.N,Net-(U803-Pad8)*
X195295000Y-59195000D03*
G04 #@! TO.P,U803,7*
G04 #@! TO.N,+5V*
X195295000Y-57925000D03*
G04 #@! TO.P,U803,6*
G04 #@! TO.N,Net-(R806-Pad1)*
X195295000Y-56655000D03*
G04 #@! TO.P,U803,5*
G04 #@! TO.N,Net-(U803-Pad5)*
X195295000Y-55385000D03*
G04 #@! TO.P,U803,4*
G04 #@! TO.N,-5V*
X201645000Y-55385000D03*
G04 #@! TO.P,U803,3*
G04 #@! TO.N,GND*
X201645000Y-56655000D03*
G04 #@! TO.P,U803,2*
G04 #@! TO.N,Net-(R804-Pad1)*
X201645000Y-57925000D03*
G04 #@! TO.P,U803,1*
G04 #@! TO.N,Net-(U803-Pad1)*
X201645000Y-59195000D03*
G04 #@! TD*
D39*
G04 #@! TO.P,U101,1*
G04 #@! TO.N,/MicroController/+5V_IN*
X120180000Y-68580000D03*
G04 #@! TO.P,U101,2*
G04 #@! TO.N,GND*
X119230000Y-68580000D03*
G04 #@! TO.P,U101,3*
G04 #@! TO.N,/MicroController/+5V_IN*
X118280000Y-68580000D03*
G04 #@! TO.P,U101,4*
G04 #@! TO.N,Net-(U101-Pad4)*
X118280000Y-70780000D03*
G04 #@! TO.P,U101,5*
G04 #@! TO.N,+3V3*
X120180000Y-70780000D03*
G04 #@! TD*
D40*
G04 #@! TO.P,U802,1*
G04 #@! TO.N,-5V*
X190420000Y-61080000D03*
G04 #@! TO.P,U802,2*
G04 #@! TO.N,GND*
X190420000Y-62030000D03*
G04 #@! TO.P,U802,3*
G04 #@! TO.N,+5V*
X190420000Y-62980000D03*
G04 #@! TO.P,U802,4*
X192620000Y-62980000D03*
G04 #@! TO.P,U802,6*
G04 #@! TO.N,Net-(C808-Pad2)*
X192620000Y-61080000D03*
G04 #@! TO.P,U802,5*
G04 #@! TO.N,Net-(C808-Pad1)*
X192620000Y-62030000D03*
G04 #@! TD*
D41*
G04 #@! TO.P,J301,1*
G04 #@! TO.N,+12V*
X106640000Y-76860000D03*
D42*
G04 #@! TO.P,J301,2*
G04 #@! TO.N,Net-(J301-Pad2)*
X109180000Y-76860000D03*
G04 #@! TD*
D41*
G04 #@! TO.P,J302,1*
G04 #@! TO.N,+12V*
X122150000Y-78260000D03*
D42*
G04 #@! TO.P,J302,2*
G04 #@! TO.N,Net-(J302-Pad2)*
X119610000Y-78260000D03*
G04 #@! TD*
G04 #@! TO.P,J701,2*
G04 #@! TO.N,T_DATA*
X187800000Y-96620000D03*
G04 #@! TO.P,J701,1*
G04 #@! TO.N,+3V3*
X190340000Y-96620000D03*
G04 #@! TO.P,J701,3*
G04 #@! TO.N,GND*
X185260000Y-96620000D03*
G04 #@! TD*
G04 #@! TO.P,J702,2*
G04 #@! TO.N,SDA*
X199820000Y-81630000D03*
G04 #@! TO.P,J702,1*
G04 #@! TO.N,+5V*
X199820000Y-84170000D03*
G04 #@! TO.P,J702,3*
G04 #@! TO.N,SCL*
X199820000Y-79090000D03*
G04 #@! TO.P,J702,4*
G04 #@! TO.N,GND*
X199820000Y-76550000D03*
G04 #@! TD*
G04 #@! TO.P,J703,2*
G04 #@! TO.N,Net-(C701-Pad1)*
X200040000Y-68320000D03*
G04 #@! TO.P,J703,1*
G04 #@! TO.N,+12V*
X200040000Y-70860000D03*
G04 #@! TO.P,J703,3*
G04 #@! TO.N,GND*
X200040000Y-65780000D03*
G04 #@! TD*
D41*
G04 #@! TO.P,J801,1*
G04 #@! TO.N,GND*
X190640000Y-37440000D03*
D42*
G04 #@! TO.P,J801,2*
G04 #@! TO.N,Net-(J801-Pad2)*
X188100000Y-37440000D03*
G04 #@! TD*
D43*
G04 #@! TO.P,RV801,1*
G04 #@! TO.N,Net-(R802-Pad1)*
X201830000Y-50040000D03*
G04 #@! TO.P,RV801,2*
G04 #@! TO.N,Net-(C806-Pad2)*
X201830000Y-47500000D03*
G04 #@! TO.P,RV801,3*
G04 #@! TO.N,Net-(R803-Pad2)*
X201830000Y-44960000D03*
G04 #@! TD*
D44*
G04 #@! TO.P,C103,1*
G04 #@! TO.N,/MicroController/+5V_IN*
X117160000Y-64560000D03*
G04 #@! TO.P,C103,2*
G04 #@! TO.N,GND*
X117160000Y-62560000D03*
G04 #@! TD*
G04 #@! TO.P,C105,1*
G04 #@! TO.N,+3V3*
X125960000Y-74720000D03*
G04 #@! TO.P,C105,2*
G04 #@! TO.N,GND*
X125960000Y-76720000D03*
G04 #@! TD*
G04 #@! TO.P,C106,1*
G04 #@! TO.N,+3V3*
X122490000Y-70870000D03*
G04 #@! TO.P,C106,2*
G04 #@! TO.N,GND*
X122490000Y-68870000D03*
G04 #@! TD*
D45*
G04 #@! TO.P,C107,1*
G04 #@! TO.N,+3V3*
X120020000Y-72940000D03*
G04 #@! TO.P,C107,2*
G04 #@! TO.N,GND*
X118020000Y-72940000D03*
G04 #@! TD*
D44*
G04 #@! TO.P,C201,1*
G04 #@! TO.N,3V3_FILT*
X130990000Y-78910000D03*
G04 #@! TO.P,C201,2*
G04 #@! TO.N,GND*
X130990000Y-80910000D03*
G04 #@! TD*
G04 #@! TO.P,C202,1*
G04 #@! TO.N,3V3_FILT*
X127670000Y-78770000D03*
G04 #@! TO.P,C202,2*
G04 #@! TO.N,GND*
X127670000Y-80770000D03*
G04 #@! TD*
G04 #@! TO.P,C203,1*
G04 #@! TO.N,+5V*
X123690000Y-64690000D03*
G04 #@! TO.P,C203,2*
G04 #@! TO.N,GND*
X123690000Y-62690000D03*
G04 #@! TD*
G04 #@! TO.P,C204,1*
G04 #@! TO.N,+5V*
X125950000Y-64640000D03*
G04 #@! TO.P,C204,2*
G04 #@! TO.N,GND*
X125950000Y-62640000D03*
G04 #@! TD*
D46*
G04 #@! TO.P,C205,2*
G04 #@! TO.N,GND*
X146330000Y-79850000D03*
G04 #@! TO.P,C205,1*
G04 #@! TO.N,Net-(C205-Pad1)*
X147830000Y-79850000D03*
G04 #@! TD*
G04 #@! TO.P,C206,2*
G04 #@! TO.N,GND*
X146290000Y-82320000D03*
G04 #@! TO.P,C206,1*
G04 #@! TO.N,Net-(C206-Pad1)*
X147790000Y-82320000D03*
G04 #@! TD*
D45*
G04 #@! TO.P,C207,1*
G04 #@! TO.N,Net-(C207-Pad1)*
X146480000Y-74680000D03*
G04 #@! TO.P,C207,2*
G04 #@! TO.N,GND*
X144480000Y-74680000D03*
G04 #@! TD*
D44*
G04 #@! TO.P,C401,1*
G04 #@! TO.N,+12V*
X159830000Y-61970000D03*
G04 #@! TO.P,C401,2*
G04 #@! TO.N,GND*
X159830000Y-63970000D03*
G04 #@! TD*
G04 #@! TO.P,C402,1*
G04 #@! TO.N,+5V*
X181270000Y-65830000D03*
G04 #@! TO.P,C402,2*
G04 #@! TO.N,GND*
X181270000Y-67830000D03*
G04 #@! TD*
G04 #@! TO.P,C501,1*
G04 #@! TO.N,+12V*
X128890000Y-61820000D03*
G04 #@! TO.P,C501,2*
G04 #@! TO.N,GND*
X128890000Y-63820000D03*
G04 #@! TD*
G04 #@! TO.P,C502,1*
G04 #@! TO.N,+5V*
X150940000Y-65360000D03*
G04 #@! TO.P,C502,2*
G04 #@! TO.N,GND*
X150940000Y-63360000D03*
G04 #@! TD*
G04 #@! TO.P,C701,1*
G04 #@! TO.N,Net-(C701-Pad1)*
X196310000Y-71740000D03*
G04 #@! TO.P,C701,2*
G04 #@! TO.N,GND*
X196310000Y-73740000D03*
G04 #@! TD*
G04 #@! TO.P,C801,1*
G04 #@! TO.N,-5V*
X186390000Y-44020000D03*
G04 #@! TO.P,C801,2*
G04 #@! TO.N,GND*
X186390000Y-42020000D03*
G04 #@! TD*
D45*
G04 #@! TO.P,C802,1*
G04 #@! TO.N,Net-(C802-Pad1)*
X190310000Y-41080000D03*
G04 #@! TO.P,C802,2*
G04 #@! TO.N,GND*
X192310000Y-41080000D03*
G04 #@! TD*
D44*
G04 #@! TO.P,C803,1*
G04 #@! TO.N,-5V*
X186380000Y-45620000D03*
G04 #@! TO.P,C803,2*
G04 #@! TO.N,GND*
X186380000Y-47620000D03*
G04 #@! TD*
G04 #@! TO.P,C804,1*
G04 #@! TO.N,GND*
X186360000Y-49600000D03*
G04 #@! TO.P,C804,2*
G04 #@! TO.N,+5V*
X186360000Y-51600000D03*
G04 #@! TD*
G04 #@! TO.P,C805,1*
G04 #@! TO.N,GND*
X186400000Y-55310000D03*
G04 #@! TO.P,C805,2*
G04 #@! TO.N,+5V*
X186400000Y-53310000D03*
G04 #@! TD*
D45*
G04 #@! TO.P,C806,1*
G04 #@! TO.N,Net-(C806-Pad1)*
X193420000Y-43010000D03*
G04 #@! TO.P,C806,2*
G04 #@! TO.N,Net-(C806-Pad2)*
X191420000Y-43010000D03*
G04 #@! TD*
D44*
G04 #@! TO.P,C807,1*
G04 #@! TO.N,+5V*
X193460000Y-57880000D03*
G04 #@! TO.P,C807,2*
G04 #@! TO.N,GND*
X193460000Y-55880000D03*
G04 #@! TD*
G04 #@! TO.P,C808,1*
G04 #@! TO.N,Net-(C808-Pad1)*
X194560000Y-63190000D03*
G04 #@! TO.P,C808,2*
G04 #@! TO.N,Net-(C808-Pad2)*
X194560000Y-61190000D03*
G04 #@! TD*
G04 #@! TO.P,C809,1*
G04 #@! TO.N,+5V*
X191620000Y-57890000D03*
G04 #@! TO.P,C809,2*
G04 #@! TO.N,GND*
X191620000Y-55890000D03*
G04 #@! TD*
G04 #@! TO.P,C810,1*
G04 #@! TO.N,-5V*
X203410000Y-57870000D03*
G04 #@! TO.P,C810,2*
G04 #@! TO.N,GND*
X203410000Y-59870000D03*
G04 #@! TD*
G04 #@! TO.P,C811,1*
G04 #@! TO.N,+5V*
X191420000Y-64570000D03*
G04 #@! TO.P,C811,2*
G04 #@! TO.N,GND*
X191420000Y-66570000D03*
G04 #@! TD*
G04 #@! TO.P,C812,1*
G04 #@! TO.N,-5V*
X188450000Y-61180000D03*
G04 #@! TO.P,C812,2*
G04 #@! TO.N,GND*
X188450000Y-63180000D03*
G04 #@! TD*
G04 #@! TO.P,C813,1*
G04 #@! TO.N,-5V*
X203440000Y-55320000D03*
G04 #@! TO.P,C813,2*
G04 #@! TO.N,GND*
X203440000Y-53320000D03*
G04 #@! TD*
D47*
G04 #@! TO.P,D101,2*
G04 #@! TO.N,Net-(D101-Pad2)*
X118160000Y-58090000D03*
G04 #@! TO.P,D101,1*
G04 #@! TO.N,GND*
X118160000Y-60290000D03*
G04 #@! TD*
G04 #@! TO.P,D201,2*
G04 #@! TO.N,Net-(D201-Pad2)*
X125770000Y-70960000D03*
G04 #@! TO.P,D201,1*
G04 #@! TO.N,GND*
X127970000Y-70960000D03*
G04 #@! TD*
G04 #@! TO.P,D202,2*
G04 #@! TO.N,+3V3*
X169770000Y-77770000D03*
G04 #@! TO.P,D202,1*
G04 #@! TO.N,Net-(D202-Pad1)*
X167570000Y-77770000D03*
G04 #@! TD*
D26*
G04 #@! TO.P,R101,1*
G04 #@! TO.N,+12V*
X118190000Y-54580000D03*
G04 #@! TO.P,R101,2*
G04 #@! TO.N,Net-(D101-Pad2)*
X118190000Y-56480000D03*
G04 #@! TD*
G04 #@! TO.P,R201,1*
G04 #@! TO.N,+5V*
X125830000Y-67590000D03*
G04 #@! TO.P,R201,2*
G04 #@! TO.N,Net-(D201-Pad2)*
X125830000Y-69490000D03*
G04 #@! TD*
G04 #@! TO.P,R202,1*
G04 #@! TO.N,+3V3*
X143620000Y-81550000D03*
G04 #@! TO.P,R202,2*
G04 #@! TO.N,~RESET~*
X143620000Y-83450000D03*
G04 #@! TD*
D27*
G04 #@! TO.P,R203,1*
G04 #@! TO.N,Net-(R203-Pad1)*
X164080000Y-77680000D03*
G04 #@! TO.P,R203,2*
G04 #@! TO.N,Net-(D202-Pad1)*
X165980000Y-77680000D03*
G04 #@! TD*
D26*
G04 #@! TO.P,R204,1*
G04 #@! TO.N,+3V3*
X194540000Y-83580000D03*
G04 #@! TO.P,R204,2*
G04 #@! TO.N,SDA*
X194540000Y-81680000D03*
G04 #@! TD*
G04 #@! TO.P,R205,1*
G04 #@! TO.N,+3V3*
X194590000Y-77170000D03*
G04 #@! TO.P,R205,2*
G04 #@! TO.N,SCL*
X194590000Y-79070000D03*
G04 #@! TD*
D48*
G04 #@! TO.P,R401,1*
G04 #@! TO.N,Net-(R401-Pad1)*
X159800000Y-56920000D03*
G04 #@! TO.P,R401,2*
G04 #@! TO.N,GND*
X159800000Y-59820000D03*
G04 #@! TD*
G04 #@! TO.P,R402,1*
G04 #@! TO.N,GND*
X181580000Y-59720000D03*
G04 #@! TO.P,R402,2*
G04 #@! TO.N,Net-(R402-Pad2)*
X181580000Y-56820000D03*
G04 #@! TD*
G04 #@! TO.P,R501,1*
G04 #@! TO.N,Net-(R501-Pad1)*
X129070000Y-56410000D03*
G04 #@! TO.P,R501,2*
G04 #@! TO.N,GND*
X129070000Y-59310000D03*
G04 #@! TD*
G04 #@! TO.P,R502,1*
G04 #@! TO.N,GND*
X151000000Y-59660000D03*
G04 #@! TO.P,R502,2*
G04 #@! TO.N,Net-(R502-Pad2)*
X151000000Y-56760000D03*
G04 #@! TD*
D26*
G04 #@! TO.P,R701,1*
G04 #@! TO.N,V_METAL*
X196260000Y-68280000D03*
G04 #@! TO.P,R701,2*
G04 #@! TO.N,Net-(C701-Pad1)*
X196260000Y-70180000D03*
G04 #@! TD*
G04 #@! TO.P,R702,1*
G04 #@! TO.N,GND*
X196290000Y-65170000D03*
G04 #@! TO.P,R702,2*
G04 #@! TO.N,V_METAL*
X196290000Y-67070000D03*
G04 #@! TD*
D27*
G04 #@! TO.P,R703,1*
G04 #@! TO.N,+3V3*
X190010000Y-91220000D03*
G04 #@! TO.P,R703,2*
G04 #@! TO.N,T_DATA*
X188110000Y-91220000D03*
G04 #@! TD*
D26*
G04 #@! TO.P,R801,1*
G04 #@! TO.N,Net-(C802-Pad1)*
X188270000Y-42860000D03*
G04 #@! TO.P,R801,2*
G04 #@! TO.N,Net-(J801-Pad2)*
X188270000Y-40960000D03*
G04 #@! TD*
G04 #@! TO.P,R802,1*
G04 #@! TO.N,Net-(R802-Pad1)*
X198050000Y-51220000D03*
G04 #@! TO.P,R802,2*
G04 #@! TO.N,GND*
X198050000Y-53120000D03*
G04 #@! TD*
G04 #@! TO.P,R803,1*
G04 #@! TO.N,Net-(C806-Pad1)*
X197620000Y-43820000D03*
G04 #@! TO.P,R803,2*
G04 #@! TO.N,Net-(R803-Pad2)*
X197620000Y-45720000D03*
G04 #@! TD*
G04 #@! TO.P,R804,1*
G04 #@! TO.N,Net-(R804-Pad1)*
X195370000Y-45560000D03*
G04 #@! TO.P,R804,2*
G04 #@! TO.N,Net-(C806-Pad1)*
X195370000Y-43660000D03*
G04 #@! TD*
G04 #@! TO.P,R805,1*
G04 #@! TO.N,Net-(R804-Pad1)*
X194310000Y-47120000D03*
G04 #@! TO.P,R805,2*
G04 #@! TO.N,-5V*
X194310000Y-49020000D03*
G04 #@! TD*
G04 #@! TO.P,R806,1*
G04 #@! TO.N,Net-(R806-Pad1)*
X196260000Y-49010000D03*
G04 #@! TO.P,R806,2*
G04 #@! TO.N,Net-(R804-Pad1)*
X196260000Y-47110000D03*
G04 #@! TD*
G04 #@! TO.P,R807,1*
G04 #@! TO.N,Net-(R806-Pad1)*
X186270000Y-58010000D03*
G04 #@! TO.P,R807,2*
G04 #@! TO.N,V_PH*
X186270000Y-59910000D03*
G04 #@! TD*
G04 #@! TO.P,R808,1*
G04 #@! TO.N,V_PH*
X186300000Y-61150000D03*
G04 #@! TO.P,R808,2*
G04 #@! TO.N,GND*
X186300000Y-63050000D03*
G04 #@! TD*
D49*
G04 #@! TO.N,*
X197460000Y-92560000D03*
X197460000Y-40060000D03*
X107450000Y-40060000D03*
D50*
G04 #@! TO.N,3V3_FILT*
X149080000Y-78740000D03*
X155050000Y-82180000D03*
D51*
G04 #@! TO.N,GND*
X169610000Y-57270000D03*
X174220000Y-57900000D03*
X170940000Y-56510000D03*
X172810000Y-57020000D03*
X171320000Y-58200000D03*
X172730000Y-58960000D03*
X170560000Y-59440000D03*
X137170000Y-56320000D03*
X138760000Y-58210000D03*
X139220000Y-56560000D03*
X141040000Y-57360000D03*
X136950000Y-58240000D03*
X140340000Y-59160000D03*
X137680000Y-59710000D03*
X132550000Y-54210000D03*
X116510000Y-60190000D03*
X108890000Y-60680000D03*
X108230000Y-73000000D03*
X105670000Y-72000000D03*
X105540000Y-60980000D03*
X113460000Y-74020000D03*
X115140000Y-79180000D03*
X129440000Y-65110000D03*
X130090000Y-60480000D03*
X124780000Y-61520000D03*
X116980000Y-72940000D03*
X119240000Y-69680000D03*
X124030000Y-69170000D03*
X129220000Y-70930000D03*
X125510000Y-77890000D03*
X129260000Y-81650000D03*
X146280000Y-81150000D03*
X145810000Y-92490000D03*
X139290000Y-54683800D03*
X139290000Y-61110000D03*
X171780000Y-54823800D03*
X172080000Y-60370000D03*
X150920000Y-62110000D03*
X150960000Y-60980000D03*
X146050000Y-71120000D03*
X146050000Y-67818000D03*
D50*
X159850000Y-65080000D03*
X158430000Y-59840000D03*
X178570000Y-67850000D03*
X181250000Y-69100000D03*
X166560000Y-67000000D03*
X197910000Y-73350000D03*
X186630000Y-63960000D03*
X185450000Y-40730000D03*
X203000000Y-51940000D03*
X199600000Y-52470000D03*
X203370000Y-61100000D03*
X186360000Y-48670000D03*
X200550000Y-54270000D03*
X191660000Y-54910000D03*
X188380000Y-64210000D03*
X190120000Y-67080000D03*
X143260000Y-74760000D03*
X168150000Y-71890000D03*
X181560000Y-60970000D03*
X184790000Y-55380000D03*
D51*
X180640000Y-55130000D03*
X163260000Y-54600000D03*
X147750000Y-54650000D03*
D50*
X159015390Y-77089403D03*
D51*
G04 #@! TO.N,+5V*
X133220000Y-69550000D03*
X143880000Y-66350000D03*
D50*
X150940000Y-65360000D03*
X166300000Y-68640000D03*
X191420000Y-64570000D03*
X193020000Y-58920000D03*
X190030000Y-57650000D03*
X189970000Y-56060000D03*
X181240000Y-65750000D03*
G04 #@! TO.N,Net-(C207-Pad1)*
X151550000Y-75500000D03*
X146480000Y-74680000D03*
D51*
G04 #@! TO.N,+3V3*
X143770000Y-85470000D03*
X142130000Y-81890000D03*
X136180000Y-79440000D03*
X133950000Y-76850000D03*
D50*
X179540000Y-87460000D03*
X186450000Y-87460000D03*
X192780000Y-82850000D03*
X193350000Y-77460000D03*
X143620000Y-81550000D03*
X161880000Y-92700000D03*
X163670000Y-90970000D03*
X151420000Y-76550000D03*
X146970000Y-76580000D03*
G04 #@! TO.N,~RESET~*
X153950000Y-82060000D03*
X150570000Y-78610000D03*
G04 #@! TO.N,SWCLK*
X148720000Y-86090000D03*
X148900000Y-84260000D03*
X154080000Y-80860000D03*
X151680000Y-77820000D03*
G04 #@! TO.N,SWDIO*
X147730000Y-86050000D03*
X147990000Y-84240000D03*
X153830000Y-79710000D03*
X152760000Y-77750000D03*
G04 #@! TO.N,Net-(R203-Pad1)*
X160910000Y-73790000D03*
X159093866Y-73879466D03*
D51*
G04 #@! TO.N,DirB2*
X147574000Y-70554000D03*
D50*
X151694265Y-74634265D03*
D51*
X147557937Y-68381150D03*
G04 #@! TO.N,USB+*
X120740000Y-75465000D03*
X132520000Y-73620000D03*
G04 #@! TO.N,USB-*
X120740000Y-74415000D03*
X132480000Y-72550000D03*
D50*
G04 #@! TO.N,EnableB2*
X155517354Y-71462518D03*
X148690000Y-68580000D03*
G04 #@! TO.N,LED*
X156360779Y-71427191D03*
X152290000Y-72770000D03*
D51*
G04 #@! TO.N,DirA2*
X144520000Y-71190000D03*
X143510000Y-68330000D03*
D50*
X157160769Y-71433087D03*
X156660000Y-69290000D03*
D51*
G04 #@! TO.N,EnableA2*
X141150000Y-70140000D03*
X142560000Y-71890000D03*
D50*
X158489019Y-72446609D03*
X159540000Y-71159998D03*
G04 #@! TO.N,DirA1*
X158964510Y-73089981D03*
X160800000Y-72870000D03*
G04 #@! TO.N,T_DATA*
X177710000Y-88900000D03*
X184290000Y-89620000D03*
X160810000Y-75050000D03*
X159099977Y-74679454D03*
G04 #@! TO.N,EnableA1*
X163470000Y-64990000D03*
X161540000Y-66110000D03*
X159099977Y-75479467D03*
X160510000Y-71860000D03*
G04 #@! TO.N,EnableB1*
X172380000Y-71060000D03*
X164370000Y-75860000D03*
X171270000Y-72260001D03*
X158998616Y-76273031D03*
G04 #@! TO.N,V_PH*
X183960000Y-64840000D03*
X156388668Y-78682802D03*
X160970000Y-78760000D03*
X183930000Y-67180010D03*
G04 #@! TO.N,V_METAL*
X155650000Y-78990000D03*
X161600000Y-79660000D03*
G04 #@! TO.N,DirB1*
X157725031Y-72000209D03*
X167110000Y-71290000D03*
D51*
G04 #@! TO.N,+12V*
X134650000Y-61740000D03*
X159820000Y-61960000D03*
D50*
X182750000Y-66950000D03*
G04 #@! TO.N,Net-(C701-Pad1)*
X196260000Y-70180000D03*
G04 #@! TO.N,-5V*
X190120000Y-47810000D03*
X191290000Y-48810000D03*
X200170000Y-53380000D03*
X196340000Y-53040000D03*
G04 #@! TO.N,Net-(C806-Pad1)*
X192060000Y-47020000D03*
X195370000Y-43660000D03*
G04 #@! TO.N,Net-(J402-Pad1)*
X167070000Y-60200000D03*
G04 #@! TO.N,Net-(J404-Pad1)*
X176370000Y-60100000D03*
D51*
G04 #@! TO.N,Net-(J502-Pad1)*
X134620000Y-59690000D03*
G04 #@! TO.N,Net-(J504-Pad1)*
X143764000Y-59944000D03*
D50*
G04 #@! TO.N,Net-(R804-Pad1)*
X193970000Y-45610000D03*
X194310000Y-47120000D03*
X196260000Y-47110000D03*
X195370000Y-45560000D03*
G04 #@! TO.N,Net-(R806-Pad1)*
X194620000Y-52440000D03*
X195560339Y-51129661D03*
G04 #@! TD*
D52*
G04 #@! TO.N,3V3_FILT*
X130990000Y-78910000D02*
X131190000Y-78710000D01*
D53*
X130990000Y-78910000D02*
X134920000Y-78910000D01*
X134920000Y-78910000D02*
X135300000Y-78530000D01*
X135300000Y-78530000D02*
X148850000Y-78530000D01*
X148850000Y-78530000D02*
X148870000Y-78530000D01*
X148870000Y-78530000D02*
X149080000Y-78740000D01*
X157755000Y-77340000D02*
X157755000Y-77000000D01*
X157755000Y-78165000D02*
X157755000Y-77340000D01*
X155050000Y-80870000D02*
X157755000Y-78165000D01*
X155050000Y-82180000D02*
X155050000Y-80870000D01*
D52*
G04 #@! TO.N,GND*
X132508200Y-55395000D02*
X132508200Y-54251800D01*
X132508200Y-54251800D02*
X132550000Y-54210000D01*
X117160000Y-61810000D02*
X117160000Y-62560000D01*
X117160000Y-60440000D02*
X117160000Y-61810000D01*
X117310000Y-60290000D02*
X117160000Y-60440000D01*
X118160000Y-60290000D02*
X117310000Y-60290000D01*
X117160000Y-60440000D02*
X116760000Y-60440000D01*
X116760000Y-60440000D02*
X116510000Y-60190000D01*
X108890000Y-62420000D02*
X108890000Y-60680000D01*
X108890000Y-72570000D02*
X108690000Y-72770000D01*
X108890000Y-71320000D02*
X108890000Y-72570000D01*
X108690000Y-72770000D02*
X108460000Y-72770000D01*
X108460000Y-72770000D02*
X108230000Y-73000000D01*
X103320000Y-71480000D02*
X102990000Y-71320000D01*
X105670000Y-72000000D02*
X104800000Y-71550000D01*
X104800000Y-71550000D02*
X103320000Y-71480000D01*
X105420000Y-61160000D02*
X102990000Y-62420000D01*
X105540000Y-60980000D02*
X105610000Y-61060000D01*
X113460000Y-75047500D02*
X113460000Y-75760000D01*
X113460000Y-75047500D02*
X113460000Y-74020000D01*
X115140000Y-77450000D02*
X115140000Y-78162500D01*
X115140000Y-78162500D02*
X115140000Y-79180000D01*
X108990000Y-71220000D02*
X108890000Y-71320000D01*
X108990000Y-68470000D02*
X108990000Y-71220000D01*
X128890000Y-63820000D02*
X128890000Y-64560000D01*
X128890000Y-64560000D02*
X129440000Y-65110000D01*
X128890000Y-59520000D02*
X129130000Y-59520000D01*
X129130000Y-59520000D02*
X130090000Y-60480000D01*
X123740000Y-62640000D02*
X123690000Y-62690000D01*
X124800000Y-61540000D02*
X124780000Y-61520000D01*
X124800000Y-62640000D02*
X124800000Y-61540000D01*
X124800000Y-62640000D02*
X123740000Y-62640000D01*
X125950000Y-62640000D02*
X124800000Y-62640000D01*
X131155000Y-66825000D02*
X129440000Y-65110000D01*
X132508200Y-66825000D02*
X131155000Y-66825000D01*
X118020000Y-72940000D02*
X116980000Y-72940000D01*
X119230000Y-68580000D02*
X119230000Y-69670000D01*
X119230000Y-69670000D02*
X119240000Y-69680000D01*
X122490000Y-68870000D02*
X123730000Y-68870000D01*
X123730000Y-68870000D02*
X124030000Y-69170000D01*
X127970000Y-70960000D02*
X129190000Y-70960000D01*
X129190000Y-70960000D02*
X129220000Y-70930000D01*
X125960000Y-76720000D02*
X125960000Y-77440000D01*
X125960000Y-77440000D02*
X125510000Y-77890000D01*
X130850000Y-80770000D02*
X130990000Y-80910000D01*
X129270000Y-81640000D02*
X129260000Y-81650000D01*
X129270000Y-80770000D02*
X129270000Y-81640000D01*
X129270000Y-80770000D02*
X130850000Y-80770000D01*
X127670000Y-80770000D02*
X129270000Y-80770000D01*
X146290000Y-82320000D02*
X146290000Y-81160000D01*
X146290000Y-81160000D02*
X146280000Y-81150000D01*
X146280000Y-79900000D02*
X146330000Y-79850000D01*
X146280000Y-81150000D02*
X146280000Y-79900000D01*
X145800000Y-90500000D02*
X145800000Y-92480000D01*
X145800000Y-92480000D02*
X145810000Y-92490000D01*
X150940000Y-63360000D02*
X150940000Y-62130000D01*
X150940000Y-62130000D02*
X150920000Y-62110000D01*
X151020000Y-59970000D02*
X151020000Y-60920000D01*
X151020000Y-60920000D02*
X150960000Y-60980000D01*
X146050000Y-70379000D02*
X146050000Y-71120000D01*
X146050000Y-67056000D02*
X146071800Y-66825000D01*
X146050000Y-67818000D02*
X146050000Y-67056000D01*
D53*
X159830000Y-63970000D02*
X159830000Y-65060000D01*
X159830000Y-65060000D02*
X159850000Y-65080000D01*
X159800000Y-59820000D02*
X158450000Y-59820000D01*
X158450000Y-59820000D02*
X158430000Y-59840000D01*
X178561800Y-66965000D02*
X178561800Y-67841800D01*
X178561800Y-67841800D02*
X178570000Y-67850000D01*
X181270000Y-67830000D02*
X181270000Y-69080000D01*
X181270000Y-69080000D02*
X181250000Y-69100000D01*
X171780000Y-66020000D02*
X171710000Y-65950000D01*
X171780000Y-67676200D02*
X171780000Y-66020000D01*
X165250000Y-67020000D02*
X164998200Y-66965000D01*
X166560000Y-67000000D02*
X165250000Y-67020000D01*
X186300000Y-62500000D02*
X186300000Y-63050000D01*
X186770000Y-62030000D02*
X186300000Y-62500000D01*
X190420000Y-62030000D02*
X186770000Y-62030000D01*
X186430000Y-63180000D02*
X186300000Y-63050000D01*
X188450000Y-63180000D02*
X186430000Y-63180000D01*
X186300000Y-63050000D02*
X186300000Y-63630000D01*
X186300000Y-63630000D02*
X186630000Y-63960000D01*
X186390000Y-42020000D02*
X186390000Y-41670000D01*
D54*
X186390000Y-41670000D02*
X185450000Y-40730000D01*
D53*
X203440000Y-53320000D02*
X203440000Y-52380000D01*
X203440000Y-52380000D02*
X203000000Y-51940000D01*
X198050000Y-53120000D02*
X198950000Y-53120000D01*
X198950000Y-53120000D02*
X199600000Y-52470000D01*
X203410000Y-59870000D02*
X203410000Y-61060000D01*
X203410000Y-61060000D02*
X203370000Y-61100000D01*
X186360000Y-47640000D02*
X186380000Y-47620000D01*
D54*
X186360000Y-48670000D02*
X186360000Y-47640000D01*
X186360000Y-49600000D02*
X186360000Y-48670000D01*
D53*
X200600010Y-54320010D02*
X200550000Y-54270000D01*
X200600010Y-55927510D02*
X200600010Y-54320010D01*
X201645000Y-56655000D02*
X201327500Y-56655000D01*
X201327500Y-56655000D02*
X200600010Y-55927510D01*
X193450000Y-55890000D02*
X193460000Y-55880000D01*
X191620000Y-55890000D02*
X193450000Y-55890000D01*
X191620000Y-55890000D02*
X191620000Y-54950000D01*
X191620000Y-54950000D02*
X191660000Y-54910000D01*
X188450000Y-63180000D02*
X188450000Y-64140000D01*
X188450000Y-64140000D02*
X188380000Y-64210000D01*
X191420000Y-66570000D02*
X190630000Y-66570000D01*
X190630000Y-66570000D02*
X190120000Y-67080000D01*
X197520000Y-73740000D02*
X197910000Y-73350000D01*
X196310000Y-73740000D02*
X197520000Y-73740000D01*
X199430000Y-65170000D02*
X200040000Y-65780000D01*
X196290000Y-65170000D02*
X199430000Y-65170000D01*
X155829998Y-75799999D02*
X155613000Y-75583001D01*
X156496001Y-75799999D02*
X155829998Y-75799999D01*
X157196002Y-76500000D02*
X156496001Y-75799999D01*
X157755000Y-76500000D02*
X157196002Y-76500000D01*
X153863998Y-75000000D02*
X154063999Y-74799999D01*
X152805000Y-75000000D02*
X153863998Y-75000000D01*
X144480000Y-74680000D02*
X143340000Y-74680000D01*
X143340000Y-74680000D02*
X143260000Y-74760000D01*
X166390000Y-71890000D02*
X168150000Y-71890000D01*
X165690000Y-70840000D02*
X165690000Y-71190000D01*
X165690000Y-71190000D02*
X166390000Y-71890000D01*
X181580000Y-59720000D02*
X181580000Y-60950000D01*
X181580000Y-60950000D02*
X181560000Y-60970000D01*
X186440000Y-55320000D02*
X184760000Y-55540000D01*
D54*
X185240000Y-55310000D02*
X186400000Y-55310000D01*
X186350000Y-55290000D02*
X185240000Y-55310000D01*
X186290000Y-55260000D02*
X184790000Y-55380000D01*
D52*
X180260000Y-55260000D02*
X178561800Y-55535000D01*
X180640000Y-55130000D02*
X180260000Y-55260000D01*
X164100000Y-55080000D02*
X164998200Y-55535000D01*
X163260000Y-54600000D02*
X164100000Y-55080000D01*
X147670000Y-54720000D02*
X146071800Y-55395000D01*
X147750000Y-54650000D02*
X147670000Y-54720000D01*
D53*
X139290000Y-67536200D02*
X139290000Y-61110000D01*
X171780000Y-67676200D02*
X171780000Y-61250000D01*
X158430000Y-64210000D02*
X158430000Y-59840000D01*
X159850000Y-65080000D02*
X159300000Y-65080000D01*
X159300000Y-65080000D02*
X158430000Y-64210000D01*
X157755000Y-76500000D02*
X158337583Y-76500000D01*
X158926986Y-77089403D02*
X159015390Y-77089403D01*
X158337583Y-76500000D02*
X158926986Y-77089403D01*
X192310000Y-40190000D02*
X192310000Y-41080000D01*
X190640000Y-37440000D02*
X190640000Y-38520000D01*
X190640000Y-38520000D02*
X192310000Y-40190000D01*
D52*
G04 #@! TO.N,+5V*
X125950000Y-65390000D02*
X126000000Y-65440000D01*
X125950000Y-64640000D02*
X125950000Y-65390000D01*
X126000000Y-65440000D02*
X126000000Y-65690000D01*
D55*
X126000000Y-65690000D02*
X128330000Y-68020000D01*
X128330000Y-68020000D02*
X130560000Y-68020000D01*
X130560000Y-68020000D02*
X132090000Y-69550000D01*
X132090000Y-69550000D02*
X133220000Y-69550000D01*
D52*
X144635000Y-65555000D02*
X146071800Y-65555000D01*
X143880000Y-66350000D02*
X143880000Y-66310000D01*
X143880000Y-66310000D02*
X144635000Y-65555000D01*
X144279999Y-66749999D02*
X144279999Y-67317999D01*
X143880000Y-66350000D02*
X144279999Y-66749999D01*
X146050000Y-69088000D02*
X146050000Y-69829000D01*
X144279999Y-67317999D02*
X146050000Y-69088000D01*
D53*
X178696800Y-65830000D02*
X178561800Y-65695000D01*
D54*
X190420000Y-63695000D02*
X191295000Y-64570000D01*
X190420000Y-62980000D02*
X190420000Y-63695000D01*
D53*
X191555000Y-64570000D02*
X191420000Y-64570000D01*
D54*
X192620000Y-63505000D02*
X191555000Y-64570000D01*
X192620000Y-62980000D02*
X192620000Y-63505000D01*
D53*
X186360000Y-53270000D02*
X186400000Y-53310000D01*
D55*
X186360000Y-51600000D02*
X186360000Y-53270000D01*
D53*
X193020000Y-58320000D02*
X193460000Y-57880000D01*
X193020000Y-58920000D02*
X193020000Y-58320000D01*
D54*
X191075000Y-52366500D02*
X191075000Y-51595000D01*
X190470000Y-52971500D02*
X191075000Y-52366500D01*
X190131500Y-53310000D02*
X190470000Y-52971500D01*
X186400000Y-53310000D02*
X190131500Y-53310000D01*
D53*
X189990000Y-53451500D02*
X190470000Y-52971500D01*
X191620000Y-57890000D02*
X190795000Y-57890000D01*
D54*
X190270000Y-57890000D02*
X190030000Y-57650000D01*
D53*
X189970000Y-53471500D02*
X189990000Y-53451500D01*
D54*
X189970000Y-56060000D02*
X189970000Y-53471500D01*
D53*
X192245000Y-64570000D02*
X191420000Y-64570000D01*
D54*
X199233762Y-63180000D02*
X196530000Y-63180000D01*
X196530000Y-63180000D02*
X195140000Y-64570000D01*
X195140000Y-64570000D02*
X192245000Y-64570000D01*
D53*
X165730000Y-69210000D02*
X166300000Y-68640000D01*
X165730000Y-69900000D02*
X165730000Y-69210000D01*
X165690000Y-69940000D02*
X165730000Y-69900000D01*
X165690000Y-70290000D02*
X165690000Y-69940000D01*
X191295000Y-64570000D02*
X191420000Y-64570000D01*
D54*
X190129989Y-65735011D02*
X191295000Y-64570000D01*
D53*
X190129989Y-65799989D02*
X190129989Y-65735011D01*
D54*
X190110011Y-65799989D02*
X191370000Y-64540000D01*
X182425011Y-65799989D02*
X190110011Y-65799989D01*
X181270000Y-65830000D02*
X182395000Y-65830000D01*
X182395000Y-65830000D02*
X182425011Y-65799989D01*
X200080000Y-63180000D02*
X199233762Y-63180000D01*
X201810000Y-64910000D02*
X200080000Y-63180000D01*
X199820000Y-84170000D02*
X201810000Y-82180000D01*
X201810000Y-82180000D02*
X201810000Y-64910000D01*
D56*
X181270000Y-65830000D02*
X178770000Y-65720000D01*
D54*
X191590000Y-57930000D02*
X190270000Y-57890000D01*
D52*
G04 #@! TO.N,Net-(C205-Pad1)*
X150000000Y-79850000D02*
X150080000Y-79930000D01*
X147830000Y-79850000D02*
X150000000Y-79850000D01*
D53*
X153530000Y-78010000D02*
X153530000Y-77725000D01*
X151640000Y-79900000D02*
X153530000Y-78010000D01*
X149800000Y-79900000D02*
X151640000Y-79900000D01*
D52*
G04 #@! TO.N,Net-(C206-Pad1)*
X149970000Y-82320000D02*
X150080000Y-82430000D01*
X147790000Y-82320000D02*
X149970000Y-82320000D01*
D53*
X154030000Y-78350000D02*
X154030000Y-77725000D01*
X154030000Y-78570000D02*
X154030000Y-78350000D01*
X150200000Y-82400000D02*
X154030000Y-78570000D01*
X149800000Y-82400000D02*
X150200000Y-82400000D01*
G04 #@! TO.N,Net-(C207-Pad1)*
X152805000Y-75500000D02*
X151550000Y-75500000D01*
D52*
G04 #@! TO.N,Net-(D201-Pad2)*
X125830000Y-70900000D02*
X125770000Y-70960000D01*
X125830000Y-69490000D02*
X125830000Y-70900000D01*
D53*
G04 #@! TO.N,Net-(D202-Pad1)*
X167480000Y-77680000D02*
X167570000Y-77770000D01*
X165980000Y-77680000D02*
X167480000Y-77680000D01*
D54*
G04 #@! TO.N,+3V3*
X151200000Y-91150000D02*
X148820000Y-93530000D01*
D52*
X151200000Y-90400000D02*
X151200000Y-91150000D01*
D54*
X148820000Y-93530000D02*
X144640000Y-93530000D01*
X144640000Y-93530000D02*
X143770000Y-92660000D01*
X143770000Y-92660000D02*
X143770000Y-85470000D01*
D52*
X143620000Y-80950000D02*
X143620000Y-81550000D01*
X143470000Y-80800000D02*
X143620000Y-80950000D01*
X142654315Y-80800000D02*
X143470000Y-80800000D01*
X142130000Y-81890000D02*
X142130000Y-81324315D01*
X142130000Y-81324315D02*
X142654315Y-80800000D01*
D54*
X142130000Y-81890000D02*
X138630000Y-81890000D01*
X138630000Y-81890000D02*
X136180000Y-79440000D01*
D52*
X129050000Y-74770000D02*
X129000000Y-74820000D01*
D54*
X131210000Y-74800000D02*
X129050000Y-74770000D01*
X131900000Y-74800000D02*
X133950000Y-76850000D01*
X131210000Y-74800000D02*
X131900000Y-74800000D01*
D53*
X151200000Y-91100000D02*
X151200000Y-90400000D01*
D54*
X158230000Y-98130000D02*
X151200000Y-91100000D01*
X161510000Y-98130000D02*
X158230000Y-98130000D01*
X171670000Y-79272370D02*
X170217630Y-77820000D01*
X171670000Y-80350000D02*
X171670000Y-79272370D01*
D53*
X190010000Y-96290000D02*
X190340000Y-96620000D01*
X190010000Y-91220000D02*
X190010000Y-96290000D01*
X194540000Y-84130000D02*
X194540000Y-83580000D01*
D54*
X194540000Y-87240000D02*
X194540000Y-84130000D01*
X190560000Y-91220000D02*
X194540000Y-87240000D01*
X190010000Y-91220000D02*
X190560000Y-91220000D01*
X179115736Y-87460000D02*
X179540000Y-87460000D01*
X178780000Y-87460000D02*
X179115736Y-87460000D01*
X171670000Y-80350000D02*
X178780000Y-87460000D01*
X190010000Y-90920000D02*
X186550000Y-87460000D01*
D53*
X186550000Y-87460000D02*
X186450000Y-87460000D01*
X190010000Y-91220000D02*
X190010000Y-90920000D01*
D54*
X194540000Y-83580000D02*
X193510000Y-83580000D01*
X193510000Y-83580000D02*
X192780000Y-82850000D01*
D53*
X194300000Y-77460000D02*
X194590000Y-77170000D01*
D54*
X193350000Y-77460000D02*
X194300000Y-77460000D01*
X161510000Y-98130000D02*
X161510000Y-93070000D01*
X161510000Y-93070000D02*
X161880000Y-92700000D01*
X163670000Y-90970000D02*
X177240000Y-90970000D01*
X179540000Y-88670000D02*
X179540000Y-87460000D01*
X177240000Y-90970000D02*
X179540000Y-88670000D01*
D53*
X152805000Y-76000000D02*
X151970000Y-76000000D01*
X151719999Y-76250001D02*
X151420000Y-76550000D01*
X151970000Y-76000000D02*
X151719999Y-76250001D01*
X146545736Y-76580000D02*
X146970000Y-76580000D01*
X139330000Y-76580000D02*
X146545736Y-76580000D01*
D52*
X139310000Y-76590000D02*
X139330000Y-76610000D01*
X133950000Y-76850000D02*
X134210000Y-76590000D01*
X134210000Y-76590000D02*
X139310000Y-76590000D01*
G04 #@! TO.N,~RESET~*
X144750000Y-85100000D02*
X145800000Y-85100000D01*
X144670000Y-85100000D02*
X144750000Y-85100000D01*
X143620000Y-84050000D02*
X144670000Y-85100000D01*
X143620000Y-83450000D02*
X143620000Y-84050000D01*
X149710000Y-85100000D02*
X149930000Y-85320000D01*
X145800000Y-85100000D02*
X149710000Y-85100000D01*
D53*
X150570000Y-74910000D02*
X150570000Y-78185736D01*
X151480000Y-74000000D02*
X150570000Y-74910000D01*
X150570000Y-78185736D02*
X150570000Y-78610000D01*
X152805000Y-74000000D02*
X151480000Y-74000000D01*
X152459989Y-84320011D02*
X153950000Y-82830000D01*
X153950000Y-82484264D02*
X153950000Y-82060000D01*
X150929989Y-84320011D02*
X152459989Y-84320011D01*
X149930000Y-85320000D02*
X150929989Y-84320011D01*
X153950000Y-82830000D02*
X153950000Y-82484264D01*
D52*
G04 #@! TO.N,SWCLK*
X148720000Y-87920000D02*
X148720000Y-86090000D01*
X149930000Y-89130000D02*
X148720000Y-87920000D01*
D53*
X152805000Y-76500000D02*
X152180000Y-76500000D01*
X152040002Y-76639998D02*
X152040002Y-77459998D01*
X152040002Y-77459998D02*
X151979999Y-77520001D01*
X152180000Y-76500000D02*
X152040002Y-76639998D01*
X151979999Y-77520001D02*
X151680000Y-77820000D01*
X152174302Y-82765698D02*
X154080000Y-80860000D01*
X151020000Y-83920000D02*
X152174302Y-82765698D01*
X149664264Y-83920000D02*
X151020000Y-83920000D01*
X149324264Y-84260000D02*
X149664264Y-83920000D01*
X148900000Y-84260000D02*
X149324264Y-84260000D01*
D52*
G04 #@! TO.N,SWDIO*
X147730000Y-88200000D02*
X147730000Y-86474264D01*
X147730000Y-86474264D02*
X147730000Y-86050000D01*
X149930000Y-90400000D02*
X147730000Y-88200000D01*
D53*
X152760000Y-77045000D02*
X152805000Y-77000000D01*
X152760000Y-77750000D02*
X152760000Y-77045000D01*
X153830000Y-80150000D02*
X153830000Y-79710000D01*
X151400000Y-82580000D02*
X153830000Y-80150000D01*
X151400000Y-82770000D02*
X151400000Y-82580000D01*
X150780000Y-83390000D02*
X151400000Y-82770000D01*
X147990000Y-84240000D02*
X148840000Y-83390000D01*
X148840000Y-83390000D02*
X150780000Y-83390000D01*
G04 #@! TO.N,Net-(R203-Pad1)*
X164080000Y-77680000D02*
X164080000Y-76830000D01*
X164080000Y-76830000D02*
X161040000Y-73790000D01*
X161040000Y-73790000D02*
X160910000Y-73790000D01*
X157755000Y-74500000D02*
X158382013Y-74500000D01*
X159002547Y-73879466D02*
X159093866Y-73879466D01*
X158382013Y-74500000D02*
X159002547Y-73879466D01*
D52*
G04 #@! TO.N,DirB2*
X146550000Y-70379000D02*
X147399000Y-70379000D01*
X147399000Y-70379000D02*
X147574000Y-70554000D01*
D53*
X152805000Y-74500000D02*
X151828530Y-74500000D01*
X151828530Y-74500000D02*
X151694265Y-74634265D01*
D52*
X147557937Y-67815465D02*
X147557937Y-68381150D01*
X146643300Y-64285000D02*
X147557937Y-65199637D01*
X147557937Y-65199637D02*
X147557937Y-67815465D01*
X146071800Y-64285000D02*
X146643300Y-64285000D01*
G04 #@! TO.N,USB+*
X108990000Y-66870000D02*
X111070000Y-66870000D01*
D53*
X117386800Y-75165000D02*
X120440000Y-75165000D01*
X111070000Y-66870000D02*
X111581800Y-66870000D01*
X115435000Y-70723200D02*
X115435000Y-73213200D01*
X111581800Y-66870000D02*
X115435000Y-70723200D01*
X115435000Y-73213200D02*
X117386800Y-75165000D01*
X120440000Y-75165000D02*
X120740000Y-75465000D01*
X149558200Y-73620000D02*
X132520000Y-73620000D01*
X149558200Y-73620000D02*
X150296412Y-73619998D01*
X150296412Y-73619998D02*
X151876400Y-72040010D01*
X151876400Y-72040010D02*
X153353602Y-72040010D01*
X153353602Y-72040010D02*
X153353602Y-72053602D01*
X153530000Y-72230000D02*
X153530000Y-72775000D01*
X153353602Y-72053602D02*
X153530000Y-72230000D01*
D52*
G04 #@! TO.N,USB-*
X108990000Y-66070000D02*
X111110000Y-66070000D01*
D53*
X111418200Y-66070000D02*
X115885000Y-70536800D01*
X115885000Y-70536800D02*
X115885000Y-73026800D01*
X120440000Y-74715000D02*
X120740000Y-74415000D01*
X111110000Y-66070000D02*
X111418200Y-66070000D01*
X117573200Y-74715000D02*
X120440000Y-74715000D01*
X115885000Y-73026800D02*
X117573200Y-74715000D01*
X154030000Y-72775000D02*
X154030000Y-72079998D01*
X154030000Y-72079998D02*
X153540002Y-71590000D01*
X133075685Y-72550000D02*
X133045685Y-72550000D01*
X153540002Y-71590000D02*
X151690000Y-71590000D01*
X133045685Y-72550000D02*
X132480000Y-72550000D01*
X133695674Y-73169989D02*
X133075685Y-72550000D01*
X150110011Y-73169989D02*
X133695674Y-73169989D01*
X151690000Y-71590000D02*
X150110011Y-73169989D01*
G04 #@! TO.N,SCL*
X171670000Y-98130000D02*
X171440000Y-98130000D01*
X199800000Y-79070000D02*
X199820000Y-79090000D01*
X194590000Y-79070000D02*
X199800000Y-79070000D01*
X190730000Y-79070000D02*
X194590000Y-79070000D01*
X171670000Y-98130000D02*
X190730000Y-79070000D01*
X157915287Y-70427178D02*
X155098990Y-70427178D01*
X160099998Y-77625702D02*
X160099998Y-72611889D01*
X170110000Y-96570000D02*
X167770000Y-96570000D01*
X167770000Y-96570000D02*
X157450011Y-86250011D01*
X157450011Y-80275689D02*
X160099998Y-77625702D01*
X157450011Y-86250011D02*
X157450011Y-80275689D01*
X160099998Y-72611889D02*
X157915287Y-70427178D01*
X155098990Y-70427178D02*
X154517341Y-71008827D01*
X171670000Y-98130000D02*
X170110000Y-96570000D01*
X154530000Y-72150000D02*
X154530000Y-72775000D01*
X154517341Y-71008827D02*
X154517341Y-72137341D01*
X154517341Y-72137341D02*
X154530000Y-72150000D01*
G04 #@! TO.N,SDA*
X199770000Y-81680000D02*
X199820000Y-81630000D01*
X194540000Y-81680000D02*
X199770000Y-81680000D01*
X190100000Y-81680000D02*
X194540000Y-81680000D01*
X175540000Y-96240000D02*
X190100000Y-81680000D01*
X175540000Y-98510000D02*
X175540000Y-96240000D01*
X174660000Y-99390000D02*
X175540000Y-98510000D01*
X169130000Y-98130000D02*
X170390000Y-99390000D01*
X170390000Y-99390000D02*
X174660000Y-99390000D01*
X157050000Y-80110000D02*
X159699987Y-77460013D01*
X154917352Y-71174516D02*
X154917352Y-71750520D01*
X157050000Y-86415700D02*
X157050000Y-80110000D01*
X169130000Y-98130000D02*
X168368001Y-97368001D01*
X157749598Y-70827189D02*
X155264679Y-70827189D01*
X168368001Y-97368001D02*
X168002301Y-97368001D01*
X168002301Y-97368001D02*
X157050000Y-86415700D01*
X159699987Y-77460013D02*
X159699987Y-72777578D01*
X155030000Y-72150000D02*
X155030000Y-72775000D01*
X159699987Y-72777578D02*
X157749598Y-70827189D01*
X155264679Y-70827189D02*
X154917352Y-71174516D01*
X154917352Y-71750520D02*
X155030000Y-71863168D01*
X155030000Y-71863168D02*
X155030000Y-72150000D01*
G04 #@! TO.N,EnableB2*
X155530000Y-72775000D02*
X155530000Y-71475164D01*
X155530000Y-71475164D02*
X155517354Y-71462518D01*
D52*
X148580000Y-68410000D02*
X148720000Y-68550000D01*
X148580000Y-64951700D02*
X148580000Y-68410000D01*
X146071800Y-63015000D02*
X146643300Y-63015000D01*
X146643300Y-63015000D02*
X148580000Y-64951700D01*
G04 #@! TO.N,LED*
X114875000Y-76472500D02*
X115140000Y-76737500D01*
X113460000Y-76472500D02*
X114875000Y-76472500D01*
D53*
X156030000Y-72775000D02*
X156030000Y-72150000D01*
X156060831Y-71727139D02*
X156360779Y-71427191D01*
X156030000Y-72150000D02*
X156060831Y-72119169D01*
X156060831Y-72119169D02*
X156060831Y-71727139D01*
D52*
X130920000Y-75760000D02*
X132820000Y-77660000D01*
X137190000Y-77660000D02*
X146960000Y-77640000D01*
X123700000Y-75760000D02*
X130920000Y-75760000D01*
X115140000Y-76287500D02*
X115447500Y-75980000D01*
X115140000Y-76737500D02*
X115140000Y-76287500D01*
X132820000Y-77660000D02*
X137190000Y-77660000D01*
X115447500Y-75980000D02*
X119050000Y-75980000D01*
X119050000Y-75980000D02*
X119650000Y-76580000D01*
X119650000Y-76580000D02*
X122880000Y-76580000D01*
X122880000Y-76580000D02*
X123700000Y-75760000D01*
D53*
X151865736Y-72770000D02*
X152290000Y-72770000D01*
X146960000Y-77640000D02*
X146995736Y-77640000D01*
X146995736Y-77640000D02*
X151865736Y-72770000D01*
D52*
G04 #@! TO.N,DirA2*
X133647200Y-63015000D02*
X135250000Y-64617800D01*
X132508200Y-63015000D02*
X133647200Y-63015000D01*
X135250000Y-64617800D02*
X135250000Y-66940000D01*
X135250000Y-66940000D02*
X135250000Y-67460000D01*
X135250000Y-67460000D02*
X137175201Y-69385201D01*
X145550000Y-70379000D02*
X145288000Y-70641000D01*
X144640000Y-71070000D02*
X144520000Y-71190000D01*
X145288000Y-71070000D02*
X144640000Y-71070000D01*
X145288000Y-70641000D02*
X145288000Y-71070000D01*
X143020484Y-69385201D02*
X142460000Y-69385201D01*
X143510000Y-68895685D02*
X143020484Y-69385201D01*
X143510000Y-68330000D02*
X143510000Y-68895685D01*
X137175201Y-69385201D02*
X142460000Y-69385201D01*
D53*
X156530000Y-72128845D02*
X157160769Y-71498076D01*
X157160769Y-71498076D02*
X157160769Y-71433087D01*
X156530000Y-72775000D02*
X156530000Y-72128845D01*
D52*
X146644999Y-71845001D02*
X146745012Y-71744988D01*
X145701999Y-71845001D02*
X146644999Y-71845001D01*
X145288000Y-71070000D02*
X145288000Y-71431002D01*
X145288000Y-71431002D02*
X145701999Y-71845001D01*
D53*
X152180000Y-69290000D02*
X156660000Y-69290000D01*
X149800000Y-71670000D02*
X152180000Y-69290000D01*
X146820000Y-71670000D02*
X146644999Y-71845001D01*
X149800000Y-71670000D02*
X146820000Y-71670000D01*
D52*
G04 #@! TO.N,EnableA2*
X133079700Y-64285000D02*
X134560000Y-65765300D01*
X132508200Y-64285000D02*
X133079700Y-64285000D01*
X134560000Y-65765300D02*
X134560000Y-67000000D01*
X134560000Y-67406410D02*
X137023590Y-69870000D01*
X134560000Y-67000000D02*
X134560000Y-67406410D01*
X137023590Y-69870000D02*
X140880000Y-69870000D01*
X140880000Y-69870000D02*
X141150000Y-70140000D01*
X148759989Y-72480000D02*
X148770000Y-72469989D01*
X144460000Y-72480000D02*
X148759989Y-72480000D01*
X142560000Y-71890000D02*
X143870000Y-71890000D01*
X143870000Y-71890000D02*
X144460000Y-72480000D01*
D53*
X157755000Y-73500000D02*
X157755000Y-73160000D01*
X158468391Y-72446609D02*
X158489019Y-72446609D01*
X157755000Y-73160000D02*
X158468391Y-72446609D01*
X158407170Y-70027168D02*
X159240001Y-70859999D01*
X159240001Y-70859999D02*
X159540000Y-71159998D01*
X152263886Y-70027168D02*
X158407170Y-70027168D01*
X149821065Y-72469989D02*
X152263886Y-70027168D01*
X148770000Y-72469989D02*
X149821065Y-72469989D01*
G04 #@! TO.N,DirA1*
X164745000Y-70840000D02*
X165190000Y-70840000D01*
X164045000Y-63155000D02*
X164998200Y-63155000D01*
X162730000Y-64470000D02*
X164045000Y-63155000D01*
X162730000Y-69140000D02*
X162730000Y-64470000D01*
X164745000Y-70840000D02*
X164430000Y-70840000D01*
X164430000Y-70840000D02*
X162730000Y-69140000D01*
X158480001Y-73574490D02*
X158664511Y-73389980D01*
X157755000Y-74000000D02*
X158281413Y-74000000D01*
X158480001Y-73801412D02*
X158480001Y-73574490D01*
X158281413Y-74000000D02*
X158480001Y-73801412D01*
X158664511Y-73389980D02*
X158964510Y-73089981D01*
X164745000Y-70840000D02*
X162830000Y-70840000D01*
X162830000Y-70840000D02*
X161099999Y-72570001D01*
X161099999Y-72570001D02*
X160800000Y-72870000D01*
G04 #@! TO.N,T_DATA*
X187800000Y-91530000D02*
X188110000Y-91220000D01*
X187800000Y-96620000D02*
X187800000Y-91530000D01*
X184589999Y-89919999D02*
X184290000Y-89620000D01*
X185890000Y-91220000D02*
X184589999Y-89919999D01*
X188110000Y-91220000D02*
X185890000Y-91220000D01*
X163540000Y-88900000D02*
X158810000Y-84170000D01*
X159012542Y-74679454D02*
X159099977Y-74679454D01*
X160810000Y-75474264D02*
X160810000Y-75050000D01*
X158810000Y-80000000D02*
X160810000Y-78000000D01*
X157755000Y-75000000D02*
X158691996Y-75000000D01*
X160810000Y-78000000D02*
X160810000Y-75474264D01*
X158691996Y-75000000D02*
X159012542Y-74679454D01*
X177710000Y-88900000D02*
X163540000Y-88900000D01*
X158810000Y-84170000D02*
X158810000Y-80000000D01*
G04 #@! TO.N,EnableA1*
X164998200Y-64425000D02*
X164426700Y-64425000D01*
X164998200Y-64425000D02*
X165569700Y-64425000D01*
X164998200Y-64425000D02*
X164035000Y-64425000D01*
X164035000Y-64425000D02*
X163470000Y-64990000D01*
X159079444Y-75500000D02*
X159099977Y-75479467D01*
X157755000Y-75500000D02*
X159079444Y-75500000D01*
X160560000Y-71810000D02*
X160510000Y-71860000D01*
X160560000Y-67060000D02*
X160560000Y-71810000D01*
X161540000Y-66110000D02*
X161510000Y-66110000D01*
X161510000Y-66110000D02*
X160560000Y-67060000D01*
G04 #@! TO.N,EnableB1*
X176480000Y-64147800D02*
X176480000Y-67280000D01*
X177472800Y-63155000D02*
X176480000Y-64147800D01*
X172700000Y-71060000D02*
X172380000Y-71060000D01*
X176480000Y-67280000D02*
X172700000Y-71060000D01*
X178561800Y-63155000D02*
X177472800Y-63155000D01*
X164370000Y-75860000D02*
X167430000Y-72800000D01*
X170730001Y-72800000D02*
X171270000Y-72260001D01*
X167430000Y-72800000D02*
X170730001Y-72800000D01*
X158725585Y-76000000D02*
X158998616Y-76273031D01*
X157755000Y-76000000D02*
X158725585Y-76000000D01*
G04 #@! TO.N,V_PH*
X186300000Y-59940000D02*
X186270000Y-59910000D01*
D55*
X186300000Y-61150000D02*
X186300000Y-59940000D01*
D53*
X183960000Y-63490000D02*
X183960000Y-64840000D01*
X183960000Y-63190000D02*
X183960000Y-63490000D01*
X186300000Y-61150000D02*
X186000000Y-61150000D01*
X186000000Y-61150000D02*
X183960000Y-63190000D01*
X156030000Y-77725000D02*
X156030000Y-78324134D01*
X156030000Y-78324134D02*
X156388668Y-78682802D01*
X160970000Y-78760000D02*
X164540002Y-78760000D01*
X164540002Y-78760000D02*
X164750000Y-78550002D01*
X164750000Y-76980000D02*
X168370000Y-73360000D01*
X164750000Y-78550002D02*
X164750000Y-76980000D01*
X178174274Y-73360000D02*
X183930000Y-67604274D01*
X168370000Y-73360000D02*
X178174274Y-73360000D01*
X183930000Y-67604274D02*
X183930000Y-67180010D01*
G04 #@! TO.N,V_METAL*
X196290000Y-68250000D02*
X196260000Y-68280000D01*
D54*
X196290000Y-67070000D02*
X196290000Y-68250000D01*
D53*
X155530000Y-77725000D02*
X155530000Y-78870000D01*
X155530000Y-78870000D02*
X155650000Y-78990000D01*
X161700000Y-79660000D02*
X161600000Y-79660000D01*
X162072001Y-79287999D02*
X161700000Y-79660000D01*
X167792001Y-79287999D02*
X162072001Y-79287999D01*
X168660000Y-76230000D02*
X168660000Y-78420000D01*
X168660000Y-78420000D02*
X167792001Y-79287999D01*
X188510000Y-68280000D02*
X182520000Y-74270000D01*
X196260000Y-68280000D02*
X188510000Y-68280000D01*
X174010000Y-74270000D02*
X170900000Y-74250000D01*
X170900000Y-74250000D02*
X170640000Y-74250000D01*
X182520000Y-74270000D02*
X174010000Y-74270000D01*
X170640000Y-74250000D02*
X168660000Y-76230000D01*
G04 #@! TO.N,DirB1*
X157030000Y-72775000D02*
X157030000Y-72490000D01*
X157030000Y-72490000D02*
X157519791Y-72000209D01*
X157519791Y-72000209D02*
X157725031Y-72000209D01*
X177472800Y-64425000D02*
X176880010Y-65017790D01*
X178561800Y-64425000D02*
X177472800Y-64425000D01*
X176880010Y-65017790D02*
X176880010Y-67819990D01*
X176880010Y-67819990D02*
X173039999Y-71660001D01*
X173039999Y-71660001D02*
X170860001Y-71660001D01*
X170860001Y-71660001D02*
X170040000Y-70840000D01*
X167180000Y-71220000D02*
X167110000Y-71290000D01*
X167180000Y-70840000D02*
X167180000Y-71220000D01*
X167180000Y-70840000D02*
X166190000Y-70840000D01*
X170040000Y-70840000D02*
X167180000Y-70840000D01*
D52*
G04 #@! TO.N,+12V*
X132433200Y-61820000D02*
X132508200Y-61745000D01*
D55*
X128890000Y-61820000D02*
X132433200Y-61820000D01*
X128765000Y-61820000D02*
X126585000Y-59640000D01*
D52*
X128890000Y-61820000D02*
X128765000Y-61820000D01*
X126585000Y-59640000D02*
X125710000Y-59640000D01*
D55*
X106640000Y-78750000D02*
X106640000Y-76860000D01*
X108650000Y-80760000D02*
X106640000Y-78750000D01*
X117810000Y-80760000D02*
X108650000Y-80760000D01*
X122180000Y-78240000D02*
X121000000Y-80700000D01*
X121000000Y-80700000D02*
X117810000Y-80760000D01*
X132508200Y-61745000D02*
X134645000Y-61745000D01*
D52*
X134645000Y-61745000D02*
X134650000Y-61740000D01*
D53*
X159915000Y-61885000D02*
X159830000Y-61970000D01*
D54*
X164998200Y-61885000D02*
X159915000Y-61885000D01*
D53*
X188731998Y-66580000D02*
X183120000Y-66580000D01*
X189831999Y-67680001D02*
X188731998Y-66580000D01*
X191975001Y-67680001D02*
X189831999Y-67680001D01*
X193465002Y-66190000D02*
X191975001Y-67680001D01*
X196950002Y-66190000D02*
X193465002Y-66190000D01*
X198400000Y-67639998D02*
X196950002Y-66190000D01*
X200040000Y-70860000D02*
X198400000Y-69220000D01*
X183120000Y-66580000D02*
X182750000Y-66950000D01*
X198400000Y-69220000D02*
X198400000Y-67639998D01*
G04 #@! TO.N,Net-(C701-Pad1)*
X196260000Y-71690000D02*
X196310000Y-71740000D01*
X196260000Y-70180000D02*
X196260000Y-71690000D01*
G04 #@! TO.N,-5V*
X186390000Y-45610000D02*
X186380000Y-45620000D01*
D54*
X188535000Y-45245000D02*
X188535000Y-46225000D01*
X188535000Y-46225000D02*
X190120000Y-47810000D01*
X201645000Y-55385000D02*
X201645000Y-54135000D01*
X201645000Y-54135000D02*
X200890000Y-53380000D01*
X200890000Y-53380000D02*
X200170000Y-53380000D01*
D53*
X203410000Y-57870000D02*
X203285000Y-57870000D01*
X194290000Y-49000000D02*
X194310000Y-49020000D01*
D54*
X191290000Y-48810000D02*
X191480000Y-49000000D01*
X191480000Y-49000000D02*
X194290000Y-49000000D01*
X196340000Y-53040000D02*
X196040001Y-52740001D01*
X196040001Y-52740001D02*
X196040001Y-52669999D01*
X194310000Y-50939998D02*
X194310000Y-49870000D01*
X196040001Y-52669999D02*
X194310000Y-50939998D01*
X194310000Y-49870000D02*
X194310000Y-49020000D01*
X190890000Y-61080000D02*
X190420000Y-61080000D01*
X195975502Y-60150000D02*
X191820000Y-60150000D01*
X191820000Y-60150000D02*
X190890000Y-61080000D01*
X196380000Y-53080000D02*
X196340000Y-53080000D01*
X196340000Y-53040000D02*
X196380000Y-53080000D01*
X196340000Y-53080000D02*
X196340000Y-54840000D01*
X196340000Y-54840000D02*
X196810010Y-55310010D01*
X196810010Y-55310010D02*
X196810010Y-59315492D01*
X196810010Y-59315492D02*
X195975502Y-60150000D01*
D53*
G04 #@! TO.N,Net-(C802-Pad1)*
X190310000Y-41205000D02*
X190310000Y-41080000D01*
X188655000Y-42860000D02*
X190310000Y-41205000D01*
X188270000Y-42860000D02*
X188655000Y-42860000D01*
X189805000Y-44473500D02*
X189805000Y-45245000D01*
X189805000Y-44095000D02*
X189805000Y-44473500D01*
X188570000Y-42860000D02*
X189805000Y-44095000D01*
X188270000Y-42860000D02*
X188570000Y-42860000D01*
G04 #@! TO.N,Net-(C806-Pad2)*
X191420000Y-44900000D02*
X191075000Y-45245000D01*
X191420000Y-43010000D02*
X191420000Y-44900000D01*
X191075000Y-45562500D02*
X191075000Y-45245000D01*
X191882501Y-46370001D02*
X191075000Y-45562500D01*
X200700001Y-46370001D02*
X191882501Y-46370001D01*
X201830000Y-47500000D02*
X200700001Y-46370001D01*
G04 #@! TO.N,Net-(C806-Pad1)*
X193420000Y-43010000D02*
X193810000Y-43010000D01*
X194460000Y-43660000D02*
X195370000Y-43660000D01*
X193810000Y-43010000D02*
X194460000Y-43660000D01*
X197460000Y-43660000D02*
X197620000Y-43820000D01*
X195370000Y-43660000D02*
X197460000Y-43660000D01*
X189805000Y-51595000D02*
X189805000Y-49275000D01*
X189805000Y-49275000D02*
X192060000Y-47020000D01*
G04 #@! TO.N,Net-(C808-Pad2)*
X194450000Y-61080000D02*
X194560000Y-61190000D01*
X192620000Y-61080000D02*
X194450000Y-61080000D01*
G04 #@! TO.N,Net-(C808-Pad1)*
X194560000Y-62490000D02*
X194560000Y-63190000D01*
X194100000Y-62030000D02*
X194560000Y-62490000D01*
X192620000Y-62030000D02*
X194100000Y-62030000D01*
D52*
G04 #@! TO.N,Net-(D101-Pad2)*
X118160000Y-56510000D02*
X118190000Y-56480000D01*
D55*
X118160000Y-58090000D02*
X118160000Y-56510000D01*
D52*
G04 #@! TO.N,Net-(F101-Pad2)*
X112830000Y-65270000D02*
X112890000Y-65330000D01*
X108990000Y-65270000D02*
X112830000Y-65270000D01*
D54*
G04 #@! TO.N,Net-(J401-Pad1)*
X166087200Y-59345000D02*
X167250000Y-58182200D01*
X164998200Y-59345000D02*
X166087200Y-59345000D01*
D53*
X167250000Y-58182200D02*
X167250000Y-57440000D01*
D54*
G04 #@! TO.N,Net-(J402-Pad1)*
X164998200Y-60615000D02*
X166655000Y-60615000D01*
X166655000Y-60615000D02*
X167070000Y-60200000D01*
G04 #@! TO.N,Net-(J403-Pad1)*
X178561800Y-59345000D02*
X176905000Y-59345000D01*
X176905000Y-59345000D02*
X176240000Y-58680000D01*
X176240000Y-58680000D02*
X176240000Y-57020000D01*
G04 #@! TO.N,Net-(J404-Pad1)*
X178612600Y-60615000D02*
X176885000Y-60615000D01*
X176885000Y-60615000D02*
X176370000Y-60100000D01*
G04 #@! TO.N,Net-(J501-Pad1)*
X134620000Y-58090000D02*
X134620000Y-57664700D01*
X132508200Y-59205000D02*
X133505000Y-59205000D01*
X133505000Y-59205000D02*
X134620000Y-58090000D01*
G04 #@! TO.N,Net-(J502-Pad1)*
X132508200Y-60475000D02*
X133835000Y-60475000D01*
X133835000Y-60475000D02*
X134620000Y-59690000D01*
G04 #@! TO.N,Net-(J503-Pad1)*
X144932800Y-59205000D02*
X143764000Y-58036200D01*
X146071800Y-59205000D02*
X144932800Y-59205000D01*
X143764000Y-58036200D02*
X143764000Y-56896000D01*
G04 #@! TO.N,Net-(J504-Pad1)*
X146122600Y-60475000D02*
X144295000Y-60475000D01*
X144295000Y-60475000D02*
X143764000Y-59944000D01*
D53*
G04 #@! TO.N,Net-(J801-Pad2)*
X188100000Y-40790000D02*
X188270000Y-40960000D01*
X188100000Y-37440000D02*
X188100000Y-40790000D01*
G04 #@! TO.N,Net-(R401-Pad1)*
X164883200Y-56920000D02*
X164998200Y-56805000D01*
D55*
X159800000Y-56920000D02*
X164883200Y-56920000D01*
D53*
G04 #@! TO.N,Net-(R402-Pad2)*
X178566800Y-56800000D02*
X178561800Y-56805000D01*
X181060000Y-56990000D02*
X180870000Y-56800000D01*
D56*
X180870000Y-56800000D02*
X178566800Y-56800000D01*
D52*
G04 #@! TO.N,Net-(R501-Pad1)*
X132463200Y-56620000D02*
X132508200Y-56665000D01*
X128890000Y-56620000D02*
X132463200Y-56620000D01*
G04 #@! TO.N,Net-(R502-Pad2)*
X150615000Y-56665000D02*
X151020000Y-57070000D01*
D55*
X146071800Y-56665000D02*
X150615000Y-56665000D01*
D53*
G04 #@! TO.N,Net-(R802-Pad1)*
X198050000Y-50670000D02*
X198050000Y-51220000D01*
X198680000Y-50040000D02*
X198050000Y-50670000D01*
X201830000Y-50040000D02*
X198680000Y-50040000D01*
G04 #@! TO.N,Net-(R803-Pad2)*
X201070000Y-45720000D02*
X201830000Y-44960000D01*
X197620000Y-45720000D02*
X201070000Y-45720000D01*
G04 #@! TO.N,Net-(R804-Pad1)*
X195370000Y-45560000D02*
X194020000Y-45560000D01*
X194020000Y-45560000D02*
X193970000Y-45610000D01*
X196560000Y-47110000D02*
X197490000Y-48040000D01*
X196260000Y-47110000D02*
X196560000Y-47110000D01*
X197490000Y-50239998D02*
X196940000Y-50789998D01*
X197490000Y-48040000D02*
X197490000Y-50239998D01*
X196940000Y-53550002D02*
X197489998Y-54100000D01*
X196940000Y-50789998D02*
X196940000Y-53550002D01*
X197489998Y-54100000D02*
X198750000Y-54100000D01*
X198750000Y-54100000D02*
X200200000Y-55550000D01*
X201327500Y-57925000D02*
X201645000Y-57925000D01*
X200200000Y-56797500D02*
X201327500Y-57925000D01*
X200200000Y-55550000D02*
X200200000Y-56797500D01*
G04 #@! TO.N,Net-(R806-Pad1)*
X186570000Y-58010000D02*
X187650000Y-56930000D01*
X186270000Y-58010000D02*
X186570000Y-58010000D01*
X194523500Y-56655000D02*
X195295000Y-56655000D01*
X194248500Y-56930000D02*
X194523500Y-56655000D01*
X187650000Y-56930000D02*
X194248500Y-56930000D01*
X194977500Y-56655000D02*
X194420001Y-56097501D01*
X194420001Y-56097501D02*
X194420001Y-53064263D01*
X194420001Y-53064263D02*
X194620000Y-52864264D01*
X194620000Y-52864264D02*
X194620000Y-52440000D01*
X196260000Y-49010000D02*
X196260000Y-50430000D01*
X195860338Y-50829662D02*
X195560339Y-51129661D01*
X196260000Y-50430000D02*
X195860338Y-50829662D01*
X195295000Y-56655000D02*
X194977500Y-56655000D01*
G04 #@! TO.N,/Actuators/DCMotor1-2/Input2*
X166585000Y-65695000D02*
X164998200Y-65695000D01*
X165190000Y-70290000D02*
X165190000Y-68861998D01*
X166231998Y-67820000D02*
X166628002Y-67820000D01*
X166628002Y-67820000D02*
X167160001Y-67288001D01*
X167160001Y-67288001D02*
X167160001Y-66270001D01*
X165190000Y-68861998D02*
X166231998Y-67820000D01*
X167160001Y-66270001D02*
X166585000Y-65695000D01*
G04 #@! TO.N,/Actuators/DCMotor1-2/Input4*
X173320702Y-69660000D02*
X175750000Y-67230702D01*
X175750000Y-67230702D02*
X175750000Y-62770000D01*
X176635000Y-61885000D02*
X178561800Y-61885000D01*
X175750000Y-62770000D02*
X176635000Y-61885000D01*
X173320702Y-69660000D02*
X171870000Y-69660000D01*
X171240000Y-70290000D02*
X166190000Y-70290000D01*
X171870000Y-69660000D02*
X171240000Y-70290000D01*
D52*
G04 #@! TO.N,/Actuators/DCMotor3-4/Input4*
X148345998Y-69829000D02*
X149352000Y-68822998D01*
X146643300Y-61745000D02*
X146071800Y-61745000D01*
X146550000Y-69829000D02*
X148345998Y-69829000D01*
X149352000Y-68822998D02*
X149352000Y-63712000D01*
X147400000Y-61760000D02*
X146658300Y-61760000D01*
X149352000Y-63712000D02*
X147400000Y-61760000D01*
X146658300Y-61760000D02*
X146643300Y-61745000D01*
G04 #@! TO.N,/Actuators/DCMotor3-4/Input2*
X133079700Y-65555000D02*
X134010000Y-66485300D01*
X143691000Y-69829000D02*
X145550000Y-69829000D01*
X132508200Y-65555000D02*
X133079700Y-65555000D01*
X134010000Y-66485300D02*
X134010000Y-67492820D01*
X134010000Y-67492820D02*
X137382181Y-70865001D01*
X137382181Y-70865001D02*
X142654999Y-70865001D01*
X142654999Y-70865001D02*
X143691000Y-69829000D01*
G04 #@! TD*
D57*
G04 #@! TO.N,+12V*
G36*
X124499228Y-43164577D02*
X124954491Y-43350330D01*
X125345680Y-43648229D01*
X125645799Y-44037713D01*
X125834142Y-44491913D01*
X125898806Y-44987864D01*
X125884573Y-51869377D01*
X125885472Y-51884722D01*
X125942856Y-52364526D01*
X125950153Y-52394330D01*
X126120939Y-52846367D01*
X126135173Y-52873551D01*
X126409392Y-53271431D01*
X126418864Y-53283536D01*
X126715094Y-53618208D01*
X126976458Y-53997570D01*
X127136326Y-54421330D01*
X127190664Y-54878793D01*
X127179302Y-58616768D01*
X127110269Y-59119064D01*
X126914487Y-59577452D01*
X126604675Y-59967914D01*
X126202791Y-60262776D01*
X125737340Y-60441120D01*
X125232807Y-60491146D01*
X121986144Y-60378414D01*
X121424874Y-60273235D01*
X120928601Y-60010865D01*
X120532460Y-59613130D01*
X120272086Y-59115806D01*
X120169160Y-58554113D01*
X120140457Y-57619243D01*
X120138597Y-57601139D01*
X120039553Y-57038054D01*
X120028217Y-57003564D01*
X119773906Y-56491509D01*
X119753276Y-56461636D01*
X119364480Y-56042456D01*
X119336240Y-56019640D01*
X119142918Y-55904769D01*
X119111801Y-55858199D01*
X118987098Y-55774875D01*
X118892718Y-55756101D01*
X118844733Y-55727589D01*
X118811192Y-55713695D01*
X118257136Y-55572638D01*
X118239223Y-55569423D01*
X116584162Y-55393545D01*
X116566379Y-55392909D01*
X116007607Y-55412118D01*
X115989908Y-55413974D01*
X108546231Y-56727008D01*
X108246868Y-56756096D01*
X101496321Y-56885184D01*
X100912002Y-56804980D01*
X100389300Y-56554118D01*
X100387000Y-56551938D01*
X100387000Y-49235880D01*
X102653000Y-49235880D01*
X102653000Y-49704120D01*
X102832187Y-50136717D01*
X103163283Y-50467813D01*
X103595880Y-50647000D01*
X104064120Y-50647000D01*
X104496717Y-50467813D01*
X104827813Y-50136717D01*
X105007000Y-49704120D01*
X105007000Y-49235880D01*
X104827813Y-48803283D01*
X104496717Y-48472187D01*
X104064120Y-48293000D01*
X103595880Y-48293000D01*
X103163283Y-48472187D01*
X102832187Y-48803283D01*
X102653000Y-49235880D01*
X100387000Y-49235880D01*
X100387000Y-46191638D01*
X100692407Y-46057812D01*
X110333116Y-43280410D01*
X110854087Y-43204799D01*
X124002908Y-43102738D01*
X124499228Y-43164577D01*
X124499228Y-43164577D01*
G37*
X124499228Y-43164577D02*
X124954491Y-43350330D01*
X125345680Y-43648229D01*
X125645799Y-44037713D01*
X125834142Y-44491913D01*
X125898806Y-44987864D01*
X125884573Y-51869377D01*
X125885472Y-51884722D01*
X125942856Y-52364526D01*
X125950153Y-52394330D01*
X126120939Y-52846367D01*
X126135173Y-52873551D01*
X126409392Y-53271431D01*
X126418864Y-53283536D01*
X126715094Y-53618208D01*
X126976458Y-53997570D01*
X127136326Y-54421330D01*
X127190664Y-54878793D01*
X127179302Y-58616768D01*
X127110269Y-59119064D01*
X126914487Y-59577452D01*
X126604675Y-59967914D01*
X126202791Y-60262776D01*
X125737340Y-60441120D01*
X125232807Y-60491146D01*
X121986144Y-60378414D01*
X121424874Y-60273235D01*
X120928601Y-60010865D01*
X120532460Y-59613130D01*
X120272086Y-59115806D01*
X120169160Y-58554113D01*
X120140457Y-57619243D01*
X120138597Y-57601139D01*
X120039553Y-57038054D01*
X120028217Y-57003564D01*
X119773906Y-56491509D01*
X119753276Y-56461636D01*
X119364480Y-56042456D01*
X119336240Y-56019640D01*
X119142918Y-55904769D01*
X119111801Y-55858199D01*
X118987098Y-55774875D01*
X118892718Y-55756101D01*
X118844733Y-55727589D01*
X118811192Y-55713695D01*
X118257136Y-55572638D01*
X118239223Y-55569423D01*
X116584162Y-55393545D01*
X116566379Y-55392909D01*
X116007607Y-55412118D01*
X115989908Y-55413974D01*
X108546231Y-56727008D01*
X108246868Y-56756096D01*
X101496321Y-56885184D01*
X100912002Y-56804980D01*
X100389300Y-56554118D01*
X100387000Y-56551938D01*
X100387000Y-49235880D01*
X102653000Y-49235880D01*
X102653000Y-49704120D01*
X102832187Y-50136717D01*
X103163283Y-50467813D01*
X103595880Y-50647000D01*
X104064120Y-50647000D01*
X104496717Y-50467813D01*
X104827813Y-50136717D01*
X105007000Y-49704120D01*
X105007000Y-49235880D01*
X104827813Y-48803283D01*
X104496717Y-48472187D01*
X104064120Y-48293000D01*
X103595880Y-48293000D01*
X103163283Y-48472187D01*
X102832187Y-48803283D01*
X102653000Y-49235880D01*
X100387000Y-49235880D01*
X100387000Y-46191638D01*
X100692407Y-46057812D01*
X110333116Y-43280410D01*
X110854087Y-43204799D01*
X124002908Y-43102738D01*
X124499228Y-43164577D01*
G04 #@! TO.N,Net-(J301-Pad2)*
G36*
X112821445Y-74995305D02*
X112896804Y-75183478D01*
X112878827Y-76328049D01*
X112804581Y-76501487D01*
X112619677Y-76577227D01*
X111963424Y-76690899D01*
X111942384Y-76696435D01*
X110202019Y-77317994D01*
X109898823Y-77359559D01*
X109617436Y-77279458D01*
X109391959Y-77093024D01*
X109259817Y-76830504D01*
X109236635Y-76513290D01*
X109331092Y-76208186D01*
X109530284Y-75958521D01*
X109817263Y-75792608D01*
X112000326Y-75026282D01*
X112636533Y-74917860D01*
X112821445Y-74995305D01*
X112821445Y-74995305D01*
G37*
X112821445Y-74995305D02*
X112896804Y-75183478D01*
X112878827Y-76328049D01*
X112804581Y-76501487D01*
X112619677Y-76577227D01*
X111963424Y-76690899D01*
X111942384Y-76696435D01*
X110202019Y-77317994D01*
X109898823Y-77359559D01*
X109617436Y-77279458D01*
X109391959Y-77093024D01*
X109259817Y-76830504D01*
X109236635Y-76513290D01*
X109331092Y-76208186D01*
X109530284Y-75958521D01*
X109817263Y-75792608D01*
X112000326Y-75026282D01*
X112636533Y-74917860D01*
X112821445Y-74995305D01*
G04 #@! TO.N,Net-(J302-Pad2)*
G36*
X116517359Y-76694406D02*
X118706765Y-77254790D01*
X119032504Y-77397739D01*
X119287559Y-77630383D01*
X119454694Y-77932443D01*
X119515566Y-78268010D01*
X119460101Y-78527985D01*
X119298978Y-78734073D01*
X119063872Y-78848770D01*
X118787440Y-78848915D01*
X116506664Y-78324135D01*
X116493358Y-78321810D01*
X116071563Y-78271061D01*
X116058085Y-78270163D01*
X115921733Y-78268345D01*
X115727247Y-78185498D01*
X115674385Y-78056665D01*
X115674385Y-77962500D01*
X115647000Y-77824828D01*
X115647000Y-77075172D01*
X115674385Y-76937500D01*
X115674385Y-76852576D01*
X115727456Y-76721997D01*
X115923197Y-76636293D01*
X115985648Y-76634628D01*
X116517359Y-76694406D01*
X116517359Y-76694406D01*
G37*
X116517359Y-76694406D02*
X118706765Y-77254790D01*
X119032504Y-77397739D01*
X119287559Y-77630383D01*
X119454694Y-77932443D01*
X119515566Y-78268010D01*
X119460101Y-78527985D01*
X119298978Y-78734073D01*
X119063872Y-78848770D01*
X118787440Y-78848915D01*
X116506664Y-78324135D01*
X116493358Y-78321810D01*
X116071563Y-78271061D01*
X116058085Y-78270163D01*
X115921733Y-78268345D01*
X115727247Y-78185498D01*
X115674385Y-78056665D01*
X115674385Y-77962500D01*
X115647000Y-77824828D01*
X115647000Y-77075172D01*
X115674385Y-76937500D01*
X115674385Y-76852576D01*
X115727456Y-76721997D01*
X115923197Y-76636293D01*
X115985648Y-76634628D01*
X116517359Y-76694406D01*
G04 #@! TO.N,/MicroController/+5V_IN*
G36*
X117301643Y-64154651D02*
X117777048Y-64226515D01*
X118219296Y-64415171D01*
X119337401Y-65069998D01*
X119816946Y-65469399D01*
X120136031Y-65993352D01*
X120270814Y-66602712D01*
X120334921Y-67810609D01*
X120267930Y-68253992D01*
X120038263Y-68623667D01*
X119939385Y-68692618D01*
X119939385Y-68050000D01*
X119910125Y-67902902D01*
X119826801Y-67778199D01*
X119702098Y-67694875D01*
X119555000Y-67665615D01*
X118905000Y-67665615D01*
X118757902Y-67694875D01*
X118633199Y-67778199D01*
X118549875Y-67902902D01*
X118520615Y-68050000D01*
X118520615Y-68926429D01*
X118069599Y-68846183D01*
X117493616Y-68510069D01*
X115537434Y-66847914D01*
X115166735Y-66423499D01*
X114940414Y-65917879D01*
X114870834Y-65358676D01*
X114874375Y-65215614D01*
X114941457Y-64880936D01*
X115112317Y-64598435D01*
X115368886Y-64390658D01*
X115691297Y-64278575D01*
X116381563Y-64166116D01*
X116738319Y-64141449D01*
X117301643Y-64154651D01*
X117301643Y-64154651D01*
G37*
X117301643Y-64154651D02*
X117777048Y-64226515D01*
X118219296Y-64415171D01*
X119337401Y-65069998D01*
X119816946Y-65469399D01*
X120136031Y-65993352D01*
X120270814Y-66602712D01*
X120334921Y-67810609D01*
X120267930Y-68253992D01*
X120038263Y-68623667D01*
X119939385Y-68692618D01*
X119939385Y-68050000D01*
X119910125Y-67902902D01*
X119826801Y-67778199D01*
X119702098Y-67694875D01*
X119555000Y-67665615D01*
X118905000Y-67665615D01*
X118757902Y-67694875D01*
X118633199Y-67778199D01*
X118549875Y-67902902D01*
X118520615Y-68050000D01*
X118520615Y-68926429D01*
X118069599Y-68846183D01*
X117493616Y-68510069D01*
X115537434Y-66847914D01*
X115166735Y-66423499D01*
X114940414Y-65917879D01*
X114870834Y-65358676D01*
X114874375Y-65215614D01*
X114941457Y-64880936D01*
X115112317Y-64598435D01*
X115368886Y-64390658D01*
X115691297Y-64278575D01*
X116381563Y-64166116D01*
X116738319Y-64141449D01*
X117301643Y-64154651D01*
G04 #@! TO.N,+5V*
G36*
X125259745Y-64410628D02*
X125709935Y-64630344D01*
X126068212Y-64980459D01*
X126298242Y-65425466D01*
X126378305Y-65930407D01*
X126374684Y-67288067D01*
X126304792Y-67549417D01*
X126126798Y-67729848D01*
X125866421Y-67803286D01*
X125300926Y-67812480D01*
X125238996Y-67812498D01*
X122624267Y-67771428D01*
X122212153Y-67684478D01*
X121873081Y-67456270D01*
X121644353Y-67117549D01*
X121556770Y-66705567D01*
X121553923Y-66540440D01*
X121630259Y-65972954D01*
X121867783Y-65462635D01*
X122252834Y-65038833D01*
X122553237Y-64794755D01*
X123093746Y-64486596D01*
X123704746Y-64369177D01*
X124753091Y-64342220D01*
X125259745Y-64410628D01*
X125259745Y-64410628D01*
G37*
X125259745Y-64410628D02*
X125709935Y-64630344D01*
X126068212Y-64980459D01*
X126298242Y-65425466D01*
X126378305Y-65930407D01*
X126374684Y-67288067D01*
X126304792Y-67549417D01*
X126126798Y-67729848D01*
X125866421Y-67803286D01*
X125300926Y-67812480D01*
X125238996Y-67812498D01*
X122624267Y-67771428D01*
X122212153Y-67684478D01*
X121873081Y-67456270D01*
X121644353Y-67117549D01*
X121556770Y-66705567D01*
X121553923Y-66540440D01*
X121630259Y-65972954D01*
X121867783Y-65462635D01*
X122252834Y-65038833D01*
X122553237Y-64794755D01*
X123093746Y-64486596D01*
X123704746Y-64369177D01*
X124753091Y-64342220D01*
X125259745Y-64410628D01*
G04 #@! TO.N,+3V3*
G36*
X122223634Y-70448483D02*
X122702232Y-70539066D01*
X123116056Y-70775101D01*
X123444225Y-71148406D01*
X123786391Y-71544952D01*
X123816592Y-71570518D01*
X124264688Y-71842810D01*
X124301292Y-71857840D01*
X124811441Y-71979008D01*
X124831049Y-71982071D01*
X126196700Y-72087121D01*
X126204549Y-72087481D01*
X126451897Y-72091164D01*
X126459754Y-72091038D01*
X128606388Y-71990083D01*
X129105202Y-72049314D01*
X129548224Y-72262535D01*
X129898120Y-72607941D01*
X130117045Y-73048171D01*
X130181405Y-73536238D01*
X130084598Y-74040736D01*
X129837748Y-74491956D01*
X129464661Y-74845987D01*
X129001127Y-75068864D01*
X128481709Y-75140566D01*
X125612231Y-75087969D01*
X125115372Y-75013674D01*
X121365094Y-73941250D01*
X121180135Y-73756291D01*
X120894555Y-73638000D01*
X120620100Y-73638000D01*
X120256191Y-73334290D01*
X119969062Y-72912209D01*
X119808772Y-72427539D01*
X119787494Y-71914278D01*
X119907712Y-71437534D01*
X120160766Y-71021010D01*
X120525265Y-70697480D01*
X120968872Y-70495646D01*
X121461787Y-70432174D01*
X122223634Y-70448483D01*
X122223634Y-70448483D01*
G37*
X122223634Y-70448483D02*
X122702232Y-70539066D01*
X123116056Y-70775101D01*
X123444225Y-71148406D01*
X123786391Y-71544952D01*
X123816592Y-71570518D01*
X124264688Y-71842810D01*
X124301292Y-71857840D01*
X124811441Y-71979008D01*
X124831049Y-71982071D01*
X126196700Y-72087121D01*
X126204549Y-72087481D01*
X126451897Y-72091164D01*
X126459754Y-72091038D01*
X128606388Y-71990083D01*
X129105202Y-72049314D01*
X129548224Y-72262535D01*
X129898120Y-72607941D01*
X130117045Y-73048171D01*
X130181405Y-73536238D01*
X130084598Y-74040736D01*
X129837748Y-74491956D01*
X129464661Y-74845987D01*
X129001127Y-75068864D01*
X128481709Y-75140566D01*
X125612231Y-75087969D01*
X125115372Y-75013674D01*
X121365094Y-73941250D01*
X121180135Y-73756291D01*
X120894555Y-73638000D01*
X120620100Y-73638000D01*
X120256191Y-73334290D01*
X119969062Y-72912209D01*
X119808772Y-72427539D01*
X119787494Y-71914278D01*
X119907712Y-71437534D01*
X120160766Y-71021010D01*
X120525265Y-70697480D01*
X120968872Y-70495646D01*
X121461787Y-70432174D01*
X122223634Y-70448483D01*
G04 #@! TO.N,3V3_FILT*
G36*
X129391213Y-76554714D02*
X129730635Y-76694603D01*
X130022830Y-76932001D01*
X131153970Y-78163819D01*
X131382193Y-78521827D01*
X131469727Y-78918977D01*
X131428994Y-79090919D01*
X131309298Y-79211641D01*
X131126532Y-79256591D01*
X128658856Y-79174880D01*
X128301094Y-79091359D01*
X128012846Y-78884775D01*
X127825533Y-78583648D01*
X127767643Y-78233774D01*
X127850866Y-77875946D01*
X128212749Y-77075845D01*
X128413707Y-76787139D01*
X128694977Y-76596328D01*
X129028355Y-76518467D01*
X129391213Y-76554714D01*
X129391213Y-76554714D01*
G37*
X129391213Y-76554714D02*
X129730635Y-76694603D01*
X130022830Y-76932001D01*
X131153970Y-78163819D01*
X131382193Y-78521827D01*
X131469727Y-78918977D01*
X131428994Y-79090919D01*
X131309298Y-79211641D01*
X131126532Y-79256591D01*
X128658856Y-79174880D01*
X128301094Y-79091359D01*
X128012846Y-78884775D01*
X127825533Y-78583648D01*
X127767643Y-78233774D01*
X127850866Y-77875946D01*
X128212749Y-77075845D01*
X128413707Y-76787139D01*
X128694977Y-76596328D01*
X129028355Y-76518467D01*
X129391213Y-76554714D01*
G04 #@! TO.N,Net-(J501-Pad1)*
G36*
X137222120Y-33519515D02*
X137287000Y-34012328D01*
X137287000Y-42788546D01*
X137100494Y-42602040D01*
X136281978Y-42263000D01*
X135396022Y-42263000D01*
X134577506Y-42602040D01*
X133951040Y-43228506D01*
X133612000Y-44047022D01*
X133612000Y-44932978D01*
X133951040Y-45751494D01*
X134116258Y-45916712D01*
X134095389Y-48084157D01*
X133951040Y-48228506D01*
X133612000Y-49047022D01*
X133612000Y-49932978D01*
X133951040Y-50751494D01*
X134577506Y-51377960D01*
X135396022Y-51717000D01*
X136281978Y-51717000D01*
X136560220Y-51601749D01*
X136300188Y-54072047D01*
X136181768Y-54564422D01*
X135702406Y-55810764D01*
X135600580Y-55963157D01*
X135554292Y-56195860D01*
X135158681Y-57224449D01*
X134975902Y-57498832D01*
X134693504Y-57668962D01*
X134530454Y-57723312D01*
X134331453Y-57676334D01*
X134239000Y-57453132D01*
X134239000Y-54999653D01*
X134237513Y-54980278D01*
X134144418Y-54377193D01*
X134132734Y-54340248D01*
X133862117Y-53793306D01*
X133839835Y-53761603D01*
X133416888Y-53321723D01*
X133386084Y-53298215D01*
X132850182Y-53006347D01*
X132832456Y-52998385D01*
X129272477Y-51716793D01*
X130090494Y-51377960D01*
X130716960Y-50751494D01*
X131056000Y-49932978D01*
X131056000Y-49047022D01*
X130716960Y-48228506D01*
X130404976Y-47916522D01*
X130448307Y-46020147D01*
X130716960Y-45751494D01*
X131056000Y-44932978D01*
X131056000Y-44047022D01*
X130716960Y-43228506D01*
X130090494Y-42602040D01*
X129271978Y-42263000D01*
X128386022Y-42263000D01*
X127658943Y-42564166D01*
X127435195Y-34061736D01*
X127489053Y-33559279D01*
X127629213Y-33201071D01*
X137090216Y-33201071D01*
X137222120Y-33519515D01*
X137222120Y-33519515D01*
G37*
X137222120Y-33519515D02*
X137287000Y-34012328D01*
X137287000Y-42788546D01*
X137100494Y-42602040D01*
X136281978Y-42263000D01*
X135396022Y-42263000D01*
X134577506Y-42602040D01*
X133951040Y-43228506D01*
X133612000Y-44047022D01*
X133612000Y-44932978D01*
X133951040Y-45751494D01*
X134116258Y-45916712D01*
X134095389Y-48084157D01*
X133951040Y-48228506D01*
X133612000Y-49047022D01*
X133612000Y-49932978D01*
X133951040Y-50751494D01*
X134577506Y-51377960D01*
X135396022Y-51717000D01*
X136281978Y-51717000D01*
X136560220Y-51601749D01*
X136300188Y-54072047D01*
X136181768Y-54564422D01*
X135702406Y-55810764D01*
X135600580Y-55963157D01*
X135554292Y-56195860D01*
X135158681Y-57224449D01*
X134975902Y-57498832D01*
X134693504Y-57668962D01*
X134530454Y-57723312D01*
X134331453Y-57676334D01*
X134239000Y-57453132D01*
X134239000Y-54999653D01*
X134237513Y-54980278D01*
X134144418Y-54377193D01*
X134132734Y-54340248D01*
X133862117Y-53793306D01*
X133839835Y-53761603D01*
X133416888Y-53321723D01*
X133386084Y-53298215D01*
X132850182Y-53006347D01*
X132832456Y-52998385D01*
X129272477Y-51716793D01*
X130090494Y-51377960D01*
X130716960Y-50751494D01*
X131056000Y-49932978D01*
X131056000Y-49047022D01*
X130716960Y-48228506D01*
X130404976Y-47916522D01*
X130448307Y-46020147D01*
X130716960Y-45751494D01*
X131056000Y-44932978D01*
X131056000Y-44047022D01*
X130716960Y-43228506D01*
X130090494Y-42602040D01*
X129271978Y-42263000D01*
X128386022Y-42263000D01*
X127658943Y-42564166D01*
X127435195Y-34061736D01*
X127489053Y-33559279D01*
X127629213Y-33201071D01*
X137090216Y-33201071D01*
X137222120Y-33519515D01*
G04 #@! TO.N,Net-(J503-Pad1)*
G36*
X149900529Y-33317996D02*
X149959877Y-33815723D01*
X149847043Y-42278298D01*
X149447978Y-42113000D01*
X148562022Y-42113000D01*
X147743506Y-42452040D01*
X147117040Y-43078506D01*
X146778000Y-43897022D01*
X146778000Y-44782978D01*
X147117040Y-45601494D01*
X147356792Y-45841246D01*
X147337372Y-47858174D01*
X147117040Y-48078506D01*
X146778000Y-48897022D01*
X146778000Y-49782978D01*
X147117040Y-50601494D01*
X147743506Y-51227960D01*
X148459517Y-51524541D01*
X145530942Y-53281686D01*
X145515590Y-53292519D01*
X145059870Y-53667493D01*
X145034761Y-53695312D01*
X144708317Y-54186963D01*
X144692421Y-54220900D01*
X144523677Y-54786419D01*
X144519651Y-54804771D01*
X144239706Y-56764386D01*
X144126220Y-57078057D01*
X143906164Y-57310677D01*
X143616168Y-57434192D01*
X143364412Y-57413287D01*
X143166370Y-57264808D01*
X143070872Y-57016371D01*
X143028083Y-56524297D01*
X143028083Y-56207800D01*
X142979420Y-55963157D01*
X142979269Y-55962930D01*
X142670041Y-52406812D01*
X142667290Y-52389365D01*
X142542971Y-51848502D01*
X142530388Y-51815584D01*
X142393191Y-51567000D01*
X142437978Y-51567000D01*
X143256494Y-51227960D01*
X143882960Y-50601494D01*
X144222000Y-49782978D01*
X144222000Y-48897022D01*
X143882960Y-48078506D01*
X143463323Y-47658869D01*
X143501619Y-45982835D01*
X143882960Y-45601494D01*
X144222000Y-44782978D01*
X144222000Y-43897022D01*
X143882960Y-43078506D01*
X143256494Y-42452040D01*
X142437978Y-42113000D01*
X141552022Y-42113000D01*
X140991783Y-42345058D01*
X140871671Y-33817136D01*
X140930705Y-33319134D01*
X140978153Y-33201071D01*
X149853461Y-33201071D01*
X149900529Y-33317996D01*
X149900529Y-33317996D01*
G37*
X149900529Y-33317996D02*
X149959877Y-33815723D01*
X149847043Y-42278298D01*
X149447978Y-42113000D01*
X148562022Y-42113000D01*
X147743506Y-42452040D01*
X147117040Y-43078506D01*
X146778000Y-43897022D01*
X146778000Y-44782978D01*
X147117040Y-45601494D01*
X147356792Y-45841246D01*
X147337372Y-47858174D01*
X147117040Y-48078506D01*
X146778000Y-48897022D01*
X146778000Y-49782978D01*
X147117040Y-50601494D01*
X147743506Y-51227960D01*
X148459517Y-51524541D01*
X145530942Y-53281686D01*
X145515590Y-53292519D01*
X145059870Y-53667493D01*
X145034761Y-53695312D01*
X144708317Y-54186963D01*
X144692421Y-54220900D01*
X144523677Y-54786419D01*
X144519651Y-54804771D01*
X144239706Y-56764386D01*
X144126220Y-57078057D01*
X143906164Y-57310677D01*
X143616168Y-57434192D01*
X143364412Y-57413287D01*
X143166370Y-57264808D01*
X143070872Y-57016371D01*
X143028083Y-56524297D01*
X143028083Y-56207800D01*
X142979420Y-55963157D01*
X142979269Y-55962930D01*
X142670041Y-52406812D01*
X142667290Y-52389365D01*
X142542971Y-51848502D01*
X142530388Y-51815584D01*
X142393191Y-51567000D01*
X142437978Y-51567000D01*
X143256494Y-51227960D01*
X143882960Y-50601494D01*
X144222000Y-49782978D01*
X144222000Y-48897022D01*
X143882960Y-48078506D01*
X143463323Y-47658869D01*
X143501619Y-45982835D01*
X143882960Y-45601494D01*
X144222000Y-44782978D01*
X144222000Y-43897022D01*
X143882960Y-43078506D01*
X143256494Y-42452040D01*
X142437978Y-42113000D01*
X141552022Y-42113000D01*
X140991783Y-42345058D01*
X140871671Y-33817136D01*
X140930705Y-33319134D01*
X140978153Y-33201071D01*
X149853461Y-33201071D01*
X149900529Y-33317996D01*
G04 #@! TO.N,Net-(J401-Pad1)*
G36*
X169292655Y-33588323D02*
X169348469Y-34089101D01*
X169156624Y-42922683D01*
X168577978Y-42683000D01*
X167692022Y-42683000D01*
X166873506Y-43022040D01*
X166247040Y-43648506D01*
X165908000Y-44467022D01*
X165908000Y-45352978D01*
X166247040Y-46171494D01*
X166508604Y-46433058D01*
X166489608Y-48405938D01*
X166247040Y-48648506D01*
X165908000Y-49467022D01*
X165908000Y-50352978D01*
X166247040Y-51171494D01*
X166873506Y-51797960D01*
X167692022Y-52137000D01*
X168577978Y-52137000D01*
X168959946Y-51978784D01*
X168957475Y-52092556D01*
X168911464Y-52472169D01*
X168106734Y-56078981D01*
X168090580Y-56103157D01*
X168041917Y-56347800D01*
X168041917Y-56369491D01*
X167666544Y-58051918D01*
X167508835Y-58306572D01*
X167242761Y-58402595D01*
X167083254Y-58364048D01*
X166957028Y-58250156D01*
X166894915Y-58074431D01*
X166652120Y-55421891D01*
X166649229Y-55404192D01*
X166519350Y-54855934D01*
X166506281Y-54822628D01*
X166228642Y-54332350D01*
X166206802Y-54304011D01*
X165803438Y-53910624D01*
X165774561Y-53889501D01*
X165277485Y-53624225D01*
X165261107Y-53616920D01*
X161198166Y-52138924D01*
X161194650Y-52137000D01*
X161567978Y-52137000D01*
X162386494Y-51797960D01*
X163012960Y-51171494D01*
X163352000Y-50352978D01*
X163352000Y-49467022D01*
X163012960Y-48648506D01*
X162570195Y-48205741D01*
X162607410Y-46577044D01*
X163012960Y-46171494D01*
X163352000Y-45352978D01*
X163352000Y-44467022D01*
X163012960Y-43648506D01*
X162386494Y-43022040D01*
X161567978Y-42683000D01*
X160682022Y-42683000D01*
X159900338Y-43006784D01*
X159832373Y-34062599D01*
X159894114Y-33566977D01*
X160043240Y-33201071D01*
X169139590Y-33201071D01*
X169292655Y-33588323D01*
X169292655Y-33588323D01*
G37*
X169292655Y-33588323D02*
X169348469Y-34089101D01*
X169156624Y-42922683D01*
X168577978Y-42683000D01*
X167692022Y-42683000D01*
X166873506Y-43022040D01*
X166247040Y-43648506D01*
X165908000Y-44467022D01*
X165908000Y-45352978D01*
X166247040Y-46171494D01*
X166508604Y-46433058D01*
X166489608Y-48405938D01*
X166247040Y-48648506D01*
X165908000Y-49467022D01*
X165908000Y-50352978D01*
X166247040Y-51171494D01*
X166873506Y-51797960D01*
X167692022Y-52137000D01*
X168577978Y-52137000D01*
X168959946Y-51978784D01*
X168957475Y-52092556D01*
X168911464Y-52472169D01*
X168106734Y-56078981D01*
X168090580Y-56103157D01*
X168041917Y-56347800D01*
X168041917Y-56369491D01*
X167666544Y-58051918D01*
X167508835Y-58306572D01*
X167242761Y-58402595D01*
X167083254Y-58364048D01*
X166957028Y-58250156D01*
X166894915Y-58074431D01*
X166652120Y-55421891D01*
X166649229Y-55404192D01*
X166519350Y-54855934D01*
X166506281Y-54822628D01*
X166228642Y-54332350D01*
X166206802Y-54304011D01*
X165803438Y-53910624D01*
X165774561Y-53889501D01*
X165277485Y-53624225D01*
X165261107Y-53616920D01*
X161198166Y-52138924D01*
X161194650Y-52137000D01*
X161567978Y-52137000D01*
X162386494Y-51797960D01*
X163012960Y-51171494D01*
X163352000Y-50352978D01*
X163352000Y-49467022D01*
X163012960Y-48648506D01*
X162570195Y-48205741D01*
X162607410Y-46577044D01*
X163012960Y-46171494D01*
X163352000Y-45352978D01*
X163352000Y-44467022D01*
X163012960Y-43648506D01*
X162386494Y-43022040D01*
X161567978Y-42683000D01*
X160682022Y-42683000D01*
X159900338Y-43006784D01*
X159832373Y-34062599D01*
X159894114Y-33566977D01*
X160043240Y-33201071D01*
X169139590Y-33201071D01*
X169292655Y-33588323D01*
G04 #@! TO.N,Net-(J403-Pad1)*
G36*
X183078261Y-33585634D02*
X183140023Y-34079109D01*
X183079794Y-43405340D01*
X182686494Y-43012040D01*
X181867978Y-42673000D01*
X180982022Y-42673000D01*
X180163506Y-43012040D01*
X179537040Y-43638506D01*
X179198000Y-44457022D01*
X179198000Y-45342978D01*
X179537040Y-46161494D01*
X179679653Y-46304107D01*
X179658344Y-48517202D01*
X179537040Y-48638506D01*
X179198000Y-49457022D01*
X179198000Y-50342978D01*
X179537040Y-51161494D01*
X180163506Y-51787960D01*
X180982022Y-52127000D01*
X181867978Y-52127000D01*
X182686494Y-51787960D01*
X182694837Y-51779617D01*
X182663522Y-51839827D01*
X182243873Y-52251477D01*
X181708119Y-52517148D01*
X179009171Y-53359833D01*
X178994650Y-53365362D01*
X178549635Y-53566802D01*
X178523150Y-53582949D01*
X178140241Y-53886258D01*
X178128674Y-53896633D01*
X177584876Y-54448036D01*
X177574743Y-54459642D01*
X177448920Y-54622750D01*
X177428157Y-54626880D01*
X177220759Y-54765459D01*
X177082180Y-54972857D01*
X177033517Y-55217500D01*
X177033517Y-55491530D01*
X176976674Y-55819709D01*
X176974970Y-55835022D01*
X176888028Y-57568419D01*
X176795535Y-57866256D01*
X176583038Y-58071357D01*
X176298124Y-58148892D01*
X176011782Y-58079708D01*
X175794405Y-57880979D01*
X175694579Y-57586304D01*
X175476360Y-54676719D01*
X175474147Y-54660803D01*
X175373070Y-54165919D01*
X175362735Y-54135556D01*
X175140899Y-53681777D01*
X175123286Y-53654971D01*
X174794840Y-53271240D01*
X174783640Y-53259718D01*
X173474691Y-52073484D01*
X173279744Y-51840250D01*
X173972022Y-52127000D01*
X174857978Y-52127000D01*
X175676494Y-51787960D01*
X176302960Y-51161494D01*
X176642000Y-50342978D01*
X176642000Y-49457022D01*
X176302960Y-48638506D01*
X176049078Y-48384624D01*
X176095127Y-46369327D01*
X176302960Y-46161494D01*
X176642000Y-45342978D01*
X176642000Y-44457022D01*
X176302960Y-43638506D01*
X175676494Y-43012040D01*
X174857978Y-42673000D01*
X173972022Y-42673000D01*
X173153506Y-43012040D01*
X172819163Y-43346383D01*
X172776335Y-34038359D01*
X172839775Y-33542117D01*
X172980226Y-33201071D01*
X182921780Y-33201071D01*
X183078261Y-33585634D01*
X183078261Y-33585634D01*
G37*
X183078261Y-33585634D02*
X183140023Y-34079109D01*
X183079794Y-43405340D01*
X182686494Y-43012040D01*
X181867978Y-42673000D01*
X180982022Y-42673000D01*
X180163506Y-43012040D01*
X179537040Y-43638506D01*
X179198000Y-44457022D01*
X179198000Y-45342978D01*
X179537040Y-46161494D01*
X179679653Y-46304107D01*
X179658344Y-48517202D01*
X179537040Y-48638506D01*
X179198000Y-49457022D01*
X179198000Y-50342978D01*
X179537040Y-51161494D01*
X180163506Y-51787960D01*
X180982022Y-52127000D01*
X181867978Y-52127000D01*
X182686494Y-51787960D01*
X182694837Y-51779617D01*
X182663522Y-51839827D01*
X182243873Y-52251477D01*
X181708119Y-52517148D01*
X179009171Y-53359833D01*
X178994650Y-53365362D01*
X178549635Y-53566802D01*
X178523150Y-53582949D01*
X178140241Y-53886258D01*
X178128674Y-53896633D01*
X177584876Y-54448036D01*
X177574743Y-54459642D01*
X177448920Y-54622750D01*
X177428157Y-54626880D01*
X177220759Y-54765459D01*
X177082180Y-54972857D01*
X177033517Y-55217500D01*
X177033517Y-55491530D01*
X176976674Y-55819709D01*
X176974970Y-55835022D01*
X176888028Y-57568419D01*
X176795535Y-57866256D01*
X176583038Y-58071357D01*
X176298124Y-58148892D01*
X176011782Y-58079708D01*
X175794405Y-57880979D01*
X175694579Y-57586304D01*
X175476360Y-54676719D01*
X175474147Y-54660803D01*
X175373070Y-54165919D01*
X175362735Y-54135556D01*
X175140899Y-53681777D01*
X175123286Y-53654971D01*
X174794840Y-53271240D01*
X174783640Y-53259718D01*
X173474691Y-52073484D01*
X173279744Y-51840250D01*
X173972022Y-52127000D01*
X174857978Y-52127000D01*
X175676494Y-51787960D01*
X176302960Y-51161494D01*
X176642000Y-50342978D01*
X176642000Y-49457022D01*
X176302960Y-48638506D01*
X176049078Y-48384624D01*
X176095127Y-46369327D01*
X176302960Y-46161494D01*
X176642000Y-45342978D01*
X176642000Y-44457022D01*
X176302960Y-43638506D01*
X175676494Y-43012040D01*
X174857978Y-42673000D01*
X173972022Y-42673000D01*
X173153506Y-43012040D01*
X172819163Y-43346383D01*
X172776335Y-34038359D01*
X172839775Y-33542117D01*
X172980226Y-33201071D01*
X182921780Y-33201071D01*
X183078261Y-33585634D01*
G04 #@! TO.N,-5V*
G36*
X203742595Y-54773841D02*
X203961281Y-54917523D01*
X204075852Y-55093210D01*
X204075852Y-57274743D01*
X204060830Y-57654296D01*
X203970675Y-57952547D01*
X203758864Y-58157633D01*
X203474508Y-58233670D01*
X203195926Y-58161416D01*
X202990845Y-57960189D01*
X202908800Y-57666874D01*
X202896982Y-56654395D01*
X202894441Y-56630556D01*
X202855783Y-56440553D01*
X202855783Y-56401000D01*
X202807120Y-56156357D01*
X202668541Y-55948959D01*
X202461143Y-55810380D01*
X202397576Y-55797736D01*
X202309786Y-55735868D01*
X202266297Y-55716193D01*
X201934670Y-55636514D01*
X201910935Y-55633139D01*
X201349682Y-55606881D01*
X201327010Y-55596797D01*
X201327010Y-55221230D01*
X201346086Y-55206806D01*
X202404382Y-54847508D01*
X202956893Y-54745990D01*
X203471481Y-54727391D01*
X203742595Y-54773841D01*
X203742595Y-54773841D01*
G37*
X203742595Y-54773841D02*
X203961281Y-54917523D01*
X204075852Y-55093210D01*
X204075852Y-57274743D01*
X204060830Y-57654296D01*
X203970675Y-57952547D01*
X203758864Y-58157633D01*
X203474508Y-58233670D01*
X203195926Y-58161416D01*
X202990845Y-57960189D01*
X202908800Y-57666874D01*
X202896982Y-56654395D01*
X202894441Y-56630556D01*
X202855783Y-56440553D01*
X202855783Y-56401000D01*
X202807120Y-56156357D01*
X202668541Y-55948959D01*
X202461143Y-55810380D01*
X202397576Y-55797736D01*
X202309786Y-55735868D01*
X202266297Y-55716193D01*
X201934670Y-55636514D01*
X201910935Y-55633139D01*
X201349682Y-55606881D01*
X201327010Y-55596797D01*
X201327010Y-55221230D01*
X201346086Y-55206806D01*
X202404382Y-54847508D01*
X202956893Y-54745990D01*
X203471481Y-54727391D01*
X203742595Y-54773841D01*
G36*
X186926039Y-43729771D02*
X187433021Y-43970885D01*
X188211244Y-44494097D01*
X188436597Y-44708060D01*
X188574082Y-44974627D01*
X188615669Y-45267552D01*
X188550502Y-45516435D01*
X188384496Y-45707557D01*
X188137120Y-45811132D01*
X187108142Y-45984555D01*
X186769340Y-46011410D01*
X186397368Y-46008148D01*
X186155497Y-45942933D01*
X185988128Y-45779811D01*
X185916721Y-45539697D01*
X185869398Y-44167325D01*
X185932327Y-43902235D01*
X186109325Y-43719029D01*
X186371628Y-43647127D01*
X186926039Y-43729771D01*
X186926039Y-43729771D01*
G37*
X186926039Y-43729771D02*
X187433021Y-43970885D01*
X188211244Y-44494097D01*
X188436597Y-44708060D01*
X188574082Y-44974627D01*
X188615669Y-45267552D01*
X188550502Y-45516435D01*
X188384496Y-45707557D01*
X188137120Y-45811132D01*
X187108142Y-45984555D01*
X186769340Y-46011410D01*
X186397368Y-46008148D01*
X186155497Y-45942933D01*
X185988128Y-45779811D01*
X185916721Y-45539697D01*
X185869398Y-44167325D01*
X185932327Y-43902235D01*
X186109325Y-43719029D01*
X186371628Y-43647127D01*
X186926039Y-43729771D01*
G04 #@! TO.N,+5V*
G36*
X195551102Y-57741457D02*
X195678682Y-57812918D01*
X195719616Y-57928250D01*
X195673959Y-58047049D01*
X195541211Y-58120791D01*
X194527084Y-58283051D01*
X194513276Y-58286057D01*
X194084967Y-58404589D01*
X194058774Y-58415091D01*
X193667213Y-58625280D01*
X193655152Y-58632646D01*
X193536225Y-58714706D01*
X193227937Y-58861563D01*
X192899349Y-58903091D01*
X192564221Y-58837550D01*
X191505365Y-58447971D01*
X191294109Y-58316330D01*
X191160284Y-58122437D01*
X191115409Y-57894885D01*
X191167709Y-57705601D01*
X191216637Y-57657000D01*
X194176905Y-57657000D01*
X194248500Y-57671241D01*
X194320095Y-57657000D01*
X194320099Y-57657000D01*
X194532161Y-57614818D01*
X194566802Y-57591672D01*
X195551102Y-57741457D01*
X195551102Y-57741457D01*
G37*
X195551102Y-57741457D02*
X195678682Y-57812918D01*
X195719616Y-57928250D01*
X195673959Y-58047049D01*
X195541211Y-58120791D01*
X194527084Y-58283051D01*
X194513276Y-58286057D01*
X194084967Y-58404589D01*
X194058774Y-58415091D01*
X193667213Y-58625280D01*
X193655152Y-58632646D01*
X193536225Y-58714706D01*
X193227937Y-58861563D01*
X192899349Y-58903091D01*
X192564221Y-58837550D01*
X191505365Y-58447971D01*
X191294109Y-58316330D01*
X191160284Y-58122437D01*
X191115409Y-57894885D01*
X191167709Y-57705601D01*
X191216637Y-57657000D01*
X194176905Y-57657000D01*
X194248500Y-57671241D01*
X194320095Y-57657000D01*
X194320099Y-57657000D01*
X194532161Y-57614818D01*
X194566802Y-57591672D01*
X195551102Y-57741457D01*
G04 #@! TO.N,-5V*
G36*
X190560200Y-60885674D02*
X190710402Y-60954347D01*
X190750983Y-61065717D01*
X189890000Y-61065717D01*
X189645357Y-61114380D01*
X189437959Y-61252959D01*
X189404523Y-61303000D01*
X188048284Y-61303000D01*
X188001448Y-61158626D01*
X188039457Y-60986047D01*
X188161502Y-60860540D01*
X188349223Y-60813655D01*
X190560200Y-60885674D01*
X190560200Y-60885674D01*
G37*
X190560200Y-60885674D02*
X190710402Y-60954347D01*
X190750983Y-61065717D01*
X189890000Y-61065717D01*
X189645357Y-61114380D01*
X189437959Y-61252959D01*
X189404523Y-61303000D01*
X188048284Y-61303000D01*
X188001448Y-61158626D01*
X188039457Y-60986047D01*
X188161502Y-60860540D01*
X188349223Y-60813655D01*
X190560200Y-60885674D01*
G04 #@! TD*
M02*
