G04 #@! TF.GenerationSoftware,KiCad,Pcbnew,(5.0.0)*
G04 #@! TF.CreationDate,2019-01-27T01:54:26-03:30*
G04 #@! TF.ProjectId,Tooling Board,546F6F6C696E6720426F6172642E6B69,rev?*
G04 #@! TF.SameCoordinates,Original*
G04 #@! TF.FileFunction,Soldermask,Top*
G04 #@! TF.FilePolarity,Negative*
%FSLAX46Y46*%
G04 Gerber Fmt 4.6, Leading zero omitted, Abs format (unit mm)*
G04 Created by KiCad (PCBNEW (5.0.0)) date 01/27/19 01:54:26*
%MOMM*%
%LPD*%
G01*
G04 APERTURE LIST*
%ADD10R,0.990000X0.420000*%
%ADD11R,0.420000X0.990000*%
%ADD12C,0.500000*%
%ADD13R,3.850000X3.850000*%
%ADD14R,1.120000X1.825000*%
%ADD15R,0.600000X1.020000*%
%ADD16R,0.700000X0.800000*%
%ADD17R,0.700000X0.875000*%
%ADD18R,0.700000X0.700000*%
%ADD19R,3.321000X3.448000*%
%ADD20R,6.597600X10.204400*%
%ADD21R,2.178000X1.035000*%
%ADD22R,2.051000X1.035000*%
%ADD23O,1.400000X1.400000*%
%ADD24R,1.400000X1.400000*%
%ADD25R,1.700000X1.100000*%
%ADD26R,1.100000X1.700000*%
%ADD27R,2.000000X2.400000*%
%ADD28R,2.200000X1.400000*%
%ADD29C,2.000000*%
%ADD30R,2.000000X2.000000*%
%ADD31R,1.540000X2.430000*%
%ADD32C,3.600000*%
%ADD33R,2.703200X2.203200*%
%ADD34R,3.503200X2.203200*%
%ADD35R,3.303200X0.703200*%
%ADD36C,1.924000*%
%ADD37R,0.908000X1.543000*%
%ADD38R,1.543000X0.908000*%
%ADD39R,1.050000X1.460000*%
%ADD40R,1.460000X1.050000*%
%ADD41R,2.124000X2.124000*%
%ADD42C,2.224000*%
%ADD43C,1.840000*%
%ADD44R,1.650000X1.400000*%
%ADD45R,1.400000X1.650000*%
%ADD46R,1.200000X1.150000*%
%ADD47R,1.600000X1.600000*%
%ADD48R,2.100000X1.300000*%
G04 APERTURE END LIST*
D10*
G04 #@! TO.C,U201*
X152805000Y-77000000D03*
X152805000Y-76500000D03*
X152805000Y-76000000D03*
X152805000Y-75500000D03*
X152805000Y-75000000D03*
X152805000Y-74500000D03*
X152805000Y-74000000D03*
D11*
X153530000Y-72775000D03*
X154030000Y-72775000D03*
X154530000Y-72775000D03*
X155030000Y-72775000D03*
X155530000Y-72775000D03*
X156030000Y-72775000D03*
X156530000Y-72775000D03*
D10*
X157755000Y-73500000D03*
X157755000Y-74000000D03*
X157755000Y-74500000D03*
X157755000Y-75000000D03*
X157755000Y-75500000D03*
X157755000Y-76000000D03*
X157755000Y-76500000D03*
D11*
X157030000Y-77725000D03*
X156530000Y-77725000D03*
X156030000Y-77725000D03*
X155530000Y-77725000D03*
X155030000Y-77725000D03*
X154530000Y-77725000D03*
X154030000Y-77725000D03*
X153530000Y-77725000D03*
D12*
X156280000Y-76250000D03*
X155280000Y-76250000D03*
X154280000Y-76250000D03*
X156280000Y-75250000D03*
X155279999Y-75250000D03*
X154280000Y-75250000D03*
X156280000Y-74250000D03*
X155280000Y-74250000D03*
X154280000Y-74250000D03*
D13*
X155279999Y-75250000D03*
D10*
X157755000Y-77000000D03*
D11*
X157030000Y-72775000D03*
D10*
X152805000Y-73500000D03*
G04 #@! TD*
D14*
G04 #@! TO.C,Q301*
X112750000Y-75760000D03*
D15*
X113460000Y-75760000D03*
D16*
X113460000Y-75047500D03*
D17*
X112960000Y-75047500D03*
X112460000Y-75047500D03*
D16*
X113460000Y-76472500D03*
D17*
X112960000Y-76472500D03*
X112460000Y-76472500D03*
G04 #@! TD*
D14*
G04 #@! TO.C,Q302*
X115850000Y-77450000D03*
D15*
X115140000Y-77450000D03*
D16*
X115140000Y-78162500D03*
D17*
X115640000Y-78162500D03*
X116140000Y-78162500D03*
D16*
X115140000Y-76737500D03*
D17*
X115640000Y-76737500D03*
X116140000Y-76737500D03*
G04 #@! TD*
D18*
G04 #@! TO.C,U501*
X145550000Y-70379000D03*
X146050000Y-70379000D03*
X146550000Y-70379000D03*
X146550000Y-69829000D03*
X146050000Y-69829000D03*
X145550000Y-69829000D03*
G04 #@! TD*
G04 #@! TO.C,U401*
X165190000Y-70840000D03*
X165690000Y-70840000D03*
X166190000Y-70840000D03*
X166190000Y-70290000D03*
X165690000Y-70290000D03*
X165190000Y-70290000D03*
G04 #@! TD*
D19*
G04 #@! TO.C,U502*
X139290000Y-67536200D03*
X139290000Y-54683800D03*
D20*
X139290000Y-61110000D03*
D21*
X146071800Y-55395000D03*
X146071800Y-56665000D03*
X146071800Y-57935000D03*
X146071800Y-59205000D03*
D22*
X146122600Y-60475000D03*
D21*
X146071800Y-61745000D03*
X146071800Y-63015000D03*
X146071800Y-64285000D03*
X146071800Y-65555000D03*
X146071800Y-66825000D03*
X132508200Y-66825000D03*
X132508200Y-65555000D03*
X132508200Y-64285000D03*
X132508200Y-63015000D03*
X132508200Y-61745000D03*
X132508200Y-60475000D03*
X132508200Y-59205000D03*
X132508200Y-57935000D03*
X132508200Y-56665000D03*
X132508200Y-55395000D03*
G04 #@! TD*
D23*
G04 #@! TO.C,J201*
X149930000Y-85320000D03*
X151200000Y-85320000D03*
X149930000Y-86590000D03*
X151200000Y-86590000D03*
X149930000Y-87860000D03*
X151200000Y-87860000D03*
X149930000Y-89130000D03*
X151200000Y-89130000D03*
X149930000Y-90400000D03*
D24*
X151200000Y-90400000D03*
G04 #@! TD*
D25*
G04 #@! TO.C,L201*
X129000000Y-74820000D03*
X129000000Y-76720000D03*
G04 #@! TD*
D26*
G04 #@! TO.C,L202*
X121810000Y-66140000D03*
X119910000Y-66140000D03*
G04 #@! TD*
D27*
G04 #@! TO.C,SW201*
X145800000Y-90500000D03*
X145800000Y-85100000D03*
G04 #@! TD*
D28*
G04 #@! TO.C,Y201*
X149800000Y-79900000D03*
X149800000Y-82400000D03*
G04 #@! TD*
D29*
G04 #@! TO.C,C101*
X113430000Y-58230000D03*
D30*
X113430000Y-55730000D03*
G04 #@! TD*
G04 #@! TO.C,C102*
X106330000Y-49470000D03*
D29*
X103830000Y-49470000D03*
G04 #@! TD*
G04 #@! TO.C,C104*
X105270000Y-58220000D03*
D30*
X105270000Y-55720000D03*
G04 #@! TD*
D31*
G04 #@! TO.C,F101*
X115290000Y-65330000D03*
X112890000Y-65330000D03*
G04 #@! TD*
D32*
G04 #@! TO.C,J101*
X112355000Y-45480000D03*
X119365000Y-45480000D03*
X119365000Y-50480000D03*
X112355000Y-50480000D03*
G04 #@! TD*
G04 #@! TO.C,J102*
X115275000Y-39850000D03*
X122285000Y-39850000D03*
X122285000Y-34850000D03*
X115275000Y-34850000D03*
G04 #@! TD*
D33*
G04 #@! TO.C,J103*
X102990000Y-71320000D03*
X102990000Y-62420000D03*
D34*
X108890000Y-71320000D03*
X108890000Y-62420000D03*
D35*
X108990000Y-65270000D03*
X108990000Y-66070000D03*
X108990000Y-66870000D03*
X108990000Y-67670000D03*
X108990000Y-68470000D03*
G04 #@! TD*
D32*
G04 #@! TO.C,J401*
X161145000Y-40040000D03*
X168155000Y-40040000D03*
X168155000Y-35040000D03*
X161145000Y-35040000D03*
G04 #@! TD*
G04 #@! TO.C,J402*
X161125000Y-44910000D03*
X168135000Y-44910000D03*
X168135000Y-49910000D03*
X161125000Y-49910000D03*
G04 #@! TD*
G04 #@! TO.C,J403*
X174485000Y-35100000D03*
X181495000Y-35100000D03*
X181495000Y-40100000D03*
X174485000Y-40100000D03*
G04 #@! TD*
G04 #@! TO.C,J404*
X174415000Y-49900000D03*
X181425000Y-49900000D03*
X181425000Y-44900000D03*
X174415000Y-44900000D03*
G04 #@! TD*
G04 #@! TO.C,J501*
X128915000Y-34890000D03*
X135925000Y-34890000D03*
X135925000Y-39890000D03*
X128915000Y-39890000D03*
G04 #@! TD*
G04 #@! TO.C,J502*
X128829000Y-44490000D03*
X135839000Y-44490000D03*
X135839000Y-49490000D03*
X128829000Y-49490000D03*
G04 #@! TD*
G04 #@! TO.C,J503*
X142037000Y-39838000D03*
X149047000Y-39838000D03*
X149047000Y-34838000D03*
X142037000Y-34838000D03*
G04 #@! TD*
G04 #@! TO.C,J504*
X141995000Y-49340000D03*
X149005000Y-49340000D03*
X149005000Y-44340000D03*
X141995000Y-44340000D03*
G04 #@! TD*
D21*
G04 #@! TO.C,U402*
X164998200Y-55535000D03*
X164998200Y-56805000D03*
X164998200Y-58075000D03*
X164998200Y-59345000D03*
X164998200Y-60615000D03*
X164998200Y-61885000D03*
X164998200Y-63155000D03*
X164998200Y-64425000D03*
X164998200Y-65695000D03*
X164998200Y-66965000D03*
X178561800Y-66965000D03*
X178561800Y-65695000D03*
X178561800Y-64425000D03*
X178561800Y-63155000D03*
X178561800Y-61885000D03*
D22*
X178612600Y-60615000D03*
D21*
X178561800Y-59345000D03*
X178561800Y-58075000D03*
X178561800Y-56805000D03*
X178561800Y-55535000D03*
D20*
X171780000Y-61250000D03*
D19*
X171780000Y-54823800D03*
X171780000Y-67676200D03*
G04 #@! TD*
D36*
G04 #@! TO.C,U701*
X161510000Y-98130000D03*
X164050000Y-98130000D03*
X166590000Y-98130000D03*
X169130000Y-98130000D03*
X171670000Y-98130000D03*
X174210000Y-98130000D03*
X164050000Y-80350000D03*
X166590000Y-80350000D03*
X169130000Y-80350000D03*
X171670000Y-80350000D03*
G04 #@! TD*
D37*
G04 #@! TO.C,U801*
X192345000Y-45245000D03*
X191075000Y-45245000D03*
X189805000Y-45245000D03*
X188535000Y-45245000D03*
X188535000Y-51595000D03*
X189805000Y-51595000D03*
X191075000Y-51595000D03*
X192345000Y-51595000D03*
G04 #@! TD*
D38*
G04 #@! TO.C,U803*
X195295000Y-59195000D03*
X195295000Y-57925000D03*
X195295000Y-56655000D03*
X195295000Y-55385000D03*
X201645000Y-55385000D03*
X201645000Y-56655000D03*
X201645000Y-57925000D03*
X201645000Y-59195000D03*
G04 #@! TD*
D39*
G04 #@! TO.C,U101*
X120180000Y-70780000D03*
X118280000Y-70780000D03*
X118280000Y-68580000D03*
X119230000Y-68580000D03*
X120180000Y-68580000D03*
G04 #@! TD*
D40*
G04 #@! TO.C,U802*
X192620000Y-62030000D03*
X192620000Y-61080000D03*
X192620000Y-62980000D03*
X190420000Y-62980000D03*
X190420000Y-62030000D03*
X190420000Y-61080000D03*
G04 #@! TD*
D41*
G04 #@! TO.C,J301*
X106640000Y-76860000D03*
D42*
X109180000Y-76860000D03*
G04 #@! TD*
G04 #@! TO.C,J302*
X119610000Y-78260000D03*
D41*
X122150000Y-78260000D03*
G04 #@! TD*
D42*
G04 #@! TO.C,J701*
X187800000Y-96620000D03*
X190340000Y-96620000D03*
X185260000Y-96620000D03*
G04 #@! TD*
G04 #@! TO.C,J702*
X199820000Y-76550000D03*
X199820000Y-79090000D03*
X199820000Y-84170000D03*
X199820000Y-81630000D03*
G04 #@! TD*
G04 #@! TO.C,J703*
X200040000Y-65780000D03*
X200040000Y-70860000D03*
X200040000Y-68320000D03*
G04 #@! TD*
G04 #@! TO.C,J801*
X188100000Y-37440000D03*
D41*
X190640000Y-37440000D03*
G04 #@! TD*
D43*
G04 #@! TO.C,RV801*
X201830000Y-44960000D03*
X201830000Y-47500000D03*
X201830000Y-50040000D03*
G04 #@! TD*
D44*
G04 #@! TO.C,C103*
X117160000Y-64560000D03*
X117160000Y-62560000D03*
G04 #@! TD*
G04 #@! TO.C,C105*
X125960000Y-76720000D03*
X125960000Y-74720000D03*
G04 #@! TD*
G04 #@! TO.C,C106*
X122490000Y-70870000D03*
X122490000Y-68870000D03*
G04 #@! TD*
D45*
G04 #@! TO.C,C107*
X120020000Y-72940000D03*
X118020000Y-72940000D03*
G04 #@! TD*
D44*
G04 #@! TO.C,C201*
X130990000Y-78910000D03*
X130990000Y-80910000D03*
G04 #@! TD*
G04 #@! TO.C,C202*
X127670000Y-78770000D03*
X127670000Y-80770000D03*
G04 #@! TD*
G04 #@! TO.C,C203*
X123690000Y-62690000D03*
X123690000Y-64690000D03*
G04 #@! TD*
G04 #@! TO.C,C204*
X125950000Y-64640000D03*
X125950000Y-62640000D03*
G04 #@! TD*
D46*
G04 #@! TO.C,C205*
X147830000Y-79850000D03*
X146330000Y-79850000D03*
G04 #@! TD*
G04 #@! TO.C,C206*
X146290000Y-82320000D03*
X147790000Y-82320000D03*
G04 #@! TD*
D45*
G04 #@! TO.C,C207*
X144480000Y-74680000D03*
X146480000Y-74680000D03*
G04 #@! TD*
D44*
G04 #@! TO.C,C401*
X159830000Y-63970000D03*
X159830000Y-61970000D03*
G04 #@! TD*
G04 #@! TO.C,C402*
X181270000Y-65830000D03*
X181270000Y-67830000D03*
G04 #@! TD*
G04 #@! TO.C,C501*
X128890000Y-63820000D03*
X128890000Y-61820000D03*
G04 #@! TD*
G04 #@! TO.C,C502*
X150940000Y-65360000D03*
X150940000Y-63360000D03*
G04 #@! TD*
G04 #@! TO.C,C701*
X196310000Y-71740000D03*
X196310000Y-73740000D03*
G04 #@! TD*
G04 #@! TO.C,C801*
X186390000Y-42020000D03*
X186390000Y-44020000D03*
G04 #@! TD*
D45*
G04 #@! TO.C,C802*
X190310000Y-41080000D03*
X192310000Y-41080000D03*
G04 #@! TD*
D44*
G04 #@! TO.C,C803*
X186380000Y-47620000D03*
X186380000Y-45620000D03*
G04 #@! TD*
G04 #@! TO.C,C804*
X186360000Y-51600000D03*
X186360000Y-49600000D03*
G04 #@! TD*
G04 #@! TO.C,C805*
X186400000Y-53310000D03*
X186400000Y-55310000D03*
G04 #@! TD*
D45*
G04 #@! TO.C,C806*
X193420000Y-43010000D03*
X191420000Y-43010000D03*
G04 #@! TD*
D44*
G04 #@! TO.C,C807*
X193460000Y-55880000D03*
X193460000Y-57880000D03*
G04 #@! TD*
G04 #@! TO.C,C808*
X194560000Y-63190000D03*
X194560000Y-61190000D03*
G04 #@! TD*
G04 #@! TO.C,C809*
X191620000Y-55890000D03*
X191620000Y-57890000D03*
G04 #@! TD*
G04 #@! TO.C,C810*
X203410000Y-59870000D03*
X203410000Y-57870000D03*
G04 #@! TD*
G04 #@! TO.C,C811*
X191420000Y-66570000D03*
X191420000Y-64570000D03*
G04 #@! TD*
G04 #@! TO.C,C812*
X188450000Y-63180000D03*
X188450000Y-61180000D03*
G04 #@! TD*
G04 #@! TO.C,C813*
X203440000Y-55320000D03*
X203440000Y-53320000D03*
G04 #@! TD*
D47*
G04 #@! TO.C,D101*
X118160000Y-58090000D03*
X118160000Y-60290000D03*
G04 #@! TD*
G04 #@! TO.C,D201*
X127970000Y-70960000D03*
X125770000Y-70960000D03*
G04 #@! TD*
G04 #@! TO.C,D202*
X167570000Y-77770000D03*
X169770000Y-77770000D03*
G04 #@! TD*
D25*
G04 #@! TO.C,R101*
X118190000Y-56480000D03*
X118190000Y-54580000D03*
G04 #@! TD*
G04 #@! TO.C,R201*
X125830000Y-67590000D03*
X125830000Y-69490000D03*
G04 #@! TD*
G04 #@! TO.C,R202*
X143620000Y-81550000D03*
X143620000Y-83450000D03*
G04 #@! TD*
D26*
G04 #@! TO.C,R203*
X164080000Y-77680000D03*
X165980000Y-77680000D03*
G04 #@! TD*
D25*
G04 #@! TO.C,R204*
X194540000Y-81680000D03*
X194540000Y-83580000D03*
G04 #@! TD*
G04 #@! TO.C,R205*
X194590000Y-77170000D03*
X194590000Y-79070000D03*
G04 #@! TD*
D48*
G04 #@! TO.C,R401*
X159800000Y-56920000D03*
X159800000Y-59820000D03*
G04 #@! TD*
G04 #@! TO.C,R402*
X181580000Y-56820000D03*
X181580000Y-59720000D03*
G04 #@! TD*
G04 #@! TO.C,R501*
X129070000Y-56410000D03*
X129070000Y-59310000D03*
G04 #@! TD*
G04 #@! TO.C,R502*
X151000000Y-56760000D03*
X151000000Y-59660000D03*
G04 #@! TD*
D25*
G04 #@! TO.C,R701*
X196260000Y-68280000D03*
X196260000Y-70180000D03*
G04 #@! TD*
G04 #@! TO.C,R702*
X196290000Y-67070000D03*
X196290000Y-65170000D03*
G04 #@! TD*
D26*
G04 #@! TO.C,R703*
X188110000Y-91220000D03*
X190010000Y-91220000D03*
G04 #@! TD*
D25*
G04 #@! TO.C,R801*
X188270000Y-40960000D03*
X188270000Y-42860000D03*
G04 #@! TD*
G04 #@! TO.C,R802*
X198050000Y-53120000D03*
X198050000Y-51220000D03*
G04 #@! TD*
G04 #@! TO.C,R803*
X197620000Y-43820000D03*
X197620000Y-45720000D03*
G04 #@! TD*
G04 #@! TO.C,R804*
X195370000Y-45560000D03*
X195370000Y-43660000D03*
G04 #@! TD*
G04 #@! TO.C,R805*
X194310000Y-49020000D03*
X194310000Y-47120000D03*
G04 #@! TD*
G04 #@! TO.C,R806*
X196260000Y-49010000D03*
X196260000Y-47110000D03*
G04 #@! TD*
G04 #@! TO.C,R807*
X186270000Y-58010000D03*
X186270000Y-59910000D03*
G04 #@! TD*
G04 #@! TO.C,R808*
X186300000Y-63050000D03*
X186300000Y-61150000D03*
G04 #@! TD*
M02*
