G04 #@! TF.GenerationSoftware,KiCad,Pcbnew,(5.0.0)*
G04 #@! TF.CreationDate,2019-01-27T01:54:26-03:30*
G04 #@! TF.ProjectId,Tooling Board,546F6F6C696E6720426F6172642E6B69,rev?*
G04 #@! TF.SameCoordinates,Original*
G04 #@! TF.FileFunction,Soldermask,Bot*
G04 #@! TF.FilePolarity,Negative*
%FSLAX46Y46*%
G04 Gerber Fmt 4.6, Leading zero omitted, Abs format (unit mm)*
G04 Created by KiCad (PCBNEW (5.0.0)) date 01/27/19 01:54:26*
%MOMM*%
%LPD*%
G01*
G04 APERTURE LIST*
%ADD10C,0.500000*%
%ADD11O,1.400000X1.400000*%
%ADD12R,1.400000X1.400000*%
%ADD13C,2.000000*%
%ADD14R,2.000000X2.000000*%
%ADD15C,3.600000*%
%ADD16C,1.924000*%
%ADD17R,2.124000X2.124000*%
%ADD18C,2.224000*%
%ADD19C,1.840000*%
G04 APERTURE END LIST*
D10*
G04 #@! TO.C,U201*
X156280000Y-76250000D03*
X155280000Y-76250000D03*
X154280000Y-76250000D03*
X156280000Y-75250000D03*
X155279999Y-75250000D03*
X154280000Y-75250000D03*
X156280000Y-74250000D03*
X155280000Y-74250000D03*
X154280000Y-74250000D03*
G04 #@! TD*
D11*
G04 #@! TO.C,J201*
X149930000Y-85320000D03*
X151200000Y-85320000D03*
X149930000Y-86590000D03*
X151200000Y-86590000D03*
X149930000Y-87860000D03*
X151200000Y-87860000D03*
X149930000Y-89130000D03*
X151200000Y-89130000D03*
X149930000Y-90400000D03*
D12*
X151200000Y-90400000D03*
G04 #@! TD*
D13*
G04 #@! TO.C,C101*
X113430000Y-58230000D03*
D14*
X113430000Y-55730000D03*
G04 #@! TD*
G04 #@! TO.C,C102*
X106330000Y-49470000D03*
D13*
X103830000Y-49470000D03*
G04 #@! TD*
G04 #@! TO.C,C104*
X105270000Y-58220000D03*
D14*
X105270000Y-55720000D03*
G04 #@! TD*
D15*
G04 #@! TO.C,J101*
X112355000Y-45480000D03*
X119365000Y-45480000D03*
X119365000Y-50480000D03*
X112355000Y-50480000D03*
G04 #@! TD*
G04 #@! TO.C,J102*
X115275000Y-39850000D03*
X122285000Y-39850000D03*
X122285000Y-34850000D03*
X115275000Y-34850000D03*
G04 #@! TD*
G04 #@! TO.C,J401*
X161145000Y-40040000D03*
X168155000Y-40040000D03*
X168155000Y-35040000D03*
X161145000Y-35040000D03*
G04 #@! TD*
G04 #@! TO.C,J402*
X161125000Y-44910000D03*
X168135000Y-44910000D03*
X168135000Y-49910000D03*
X161125000Y-49910000D03*
G04 #@! TD*
G04 #@! TO.C,J403*
X174485000Y-35100000D03*
X181495000Y-35100000D03*
X181495000Y-40100000D03*
X174485000Y-40100000D03*
G04 #@! TD*
G04 #@! TO.C,J404*
X174415000Y-49900000D03*
X181425000Y-49900000D03*
X181425000Y-44900000D03*
X174415000Y-44900000D03*
G04 #@! TD*
G04 #@! TO.C,J501*
X128915000Y-34890000D03*
X135925000Y-34890000D03*
X135925000Y-39890000D03*
X128915000Y-39890000D03*
G04 #@! TD*
G04 #@! TO.C,J502*
X128829000Y-44490000D03*
X135839000Y-44490000D03*
X135839000Y-49490000D03*
X128829000Y-49490000D03*
G04 #@! TD*
G04 #@! TO.C,J503*
X142037000Y-39838000D03*
X149047000Y-39838000D03*
X149047000Y-34838000D03*
X142037000Y-34838000D03*
G04 #@! TD*
G04 #@! TO.C,J504*
X141995000Y-49340000D03*
X149005000Y-49340000D03*
X149005000Y-44340000D03*
X141995000Y-44340000D03*
G04 #@! TD*
D16*
G04 #@! TO.C,U701*
X161510000Y-98130000D03*
X164050000Y-98130000D03*
X166590000Y-98130000D03*
X169130000Y-98130000D03*
X171670000Y-98130000D03*
X174210000Y-98130000D03*
X164050000Y-80350000D03*
X166590000Y-80350000D03*
X169130000Y-80350000D03*
X171670000Y-80350000D03*
G04 #@! TD*
D17*
G04 #@! TO.C,J301*
X106640000Y-76860000D03*
D18*
X109180000Y-76860000D03*
G04 #@! TD*
G04 #@! TO.C,J302*
X119610000Y-78260000D03*
D17*
X122150000Y-78260000D03*
G04 #@! TD*
D18*
G04 #@! TO.C,J701*
X187800000Y-96620000D03*
X190340000Y-96620000D03*
X185260000Y-96620000D03*
G04 #@! TD*
G04 #@! TO.C,J702*
X199820000Y-76550000D03*
X199820000Y-79090000D03*
X199820000Y-84170000D03*
X199820000Y-81630000D03*
G04 #@! TD*
G04 #@! TO.C,J703*
X200040000Y-65780000D03*
X200040000Y-70860000D03*
X200040000Y-68320000D03*
G04 #@! TD*
G04 #@! TO.C,J801*
X188100000Y-37440000D03*
D17*
X190640000Y-37440000D03*
G04 #@! TD*
D19*
G04 #@! TO.C,RV801*
X201830000Y-44960000D03*
X201830000Y-47500000D03*
X201830000Y-50040000D03*
G04 #@! TD*
M02*
