M48
INCH,TZ
T1C0.0118
T2C0.0157
T3C0.0256
T4C0.0300
T5C0.0315
T6C0.0472
T7C0.0748
T8C0.1181
%
G90
G05
T1
X56402Y-29433
X56543Y-32106
X57669Y-29402
X57862Y-30150
X58161Y-33878
X58264Y-33165
X58539Y-27000
X58551Y-33894
X58622Y-33173
X58693Y-31000
X59280Y-30949
X59425Y-25732
X59614Y-30138
X59665Y-29724
X59717Y-30638
X59722Y-29384
X59957Y-28650
X60142Y-30610
X60563Y-31382
X60610Y-32307
X60661Y-31835
X61043Y-32354
X61227Y-28135
X61280Y-31098
X61559Y-28121
X61570Y-30977
X61677Y-27280
X61874Y-28123
X62096Y-28347
X62374Y-23559
X62397Y-28522
X62584Y-28776
X62598Y-30029
X62604Y-30350
X62635Y-29086
X62638Y-29401
X62638Y-29716
X62811Y-28016
X62933Y-25622
X63193Y-28291
X63307Y-28689
X63311Y-29547
X63350Y-29051
X63374Y-31008
X63598Y-26028
X63622Y-31362
X63732Y-36496
X64358Y-25587
X64437Y-35815
X64713Y-29866
X65472Y-27024
X65575Y-26378
X65776Y-23701
X65791Y-28067
X66201Y-28303
X67429Y-28449
X67866Y-27976
X69437Y-23661
X69965Y-35000
X70303Y-26713
X70685Y-34433
X71354Y-25886
X71358Y-27205
X71480Y-24004
X71949Y-26358
X72413Y-26449
X72425Y-25528
X72555Y-35283
X72752Y-21803
X73012Y-16035
X73370Y-19161
X73406Y-34433
X73476Y-25181
X74165Y-25280
X74791Y-22071
X74815Y-22697
X74850Y-18823
X74850Y-26409
X75311Y-19217
X75362Y-25421
X75457Y-21618
X75614Y-18512
X75898Y-32618
X75992Y-23197
X76122Y-30496
X76366Y-17957
X76500Y-18551
X76622Y-20646
X76917Y-17189
X76917Y-17937
X76992Y-20130
X77268Y-18547
X77268Y-27630
X77299Y-20882
X77917Y-28878
X78583Y-20657
X78807Y-21016
X78957Y-21366
X79921Y-20449
X80067Y-24055
X60740Y-29232
X60740Y-29626
X60740Y-30020
X61134Y-29626
X61134Y-29232
X61134Y-30020
X61528Y-29232
X61528Y-29626
X61528Y-30020
T2
X41551Y-24008
X41602Y-28346
X42610Y-28740
X42870Y-23890
X44669Y-29142
X45331Y-31173
X45870Y-23697
X46055Y-28717
X46945Y-27433
X47535Y-29297
X47535Y-29711
X48831Y-27232
X49126Y-24220
X49413Y-30665
X50874Y-27925
X50890Y-32146
X50961Y-25634
X51217Y-23811
X52157Y-28563
X52173Y-28984
X52185Y-21343
X52449Y-27382
X52736Y-30256
X53000Y-23500
X53012Y-24307
X53614Y-31276
X53917Y-22929
X54004Y-22173
X54205Y-23508
X54630Y-22917
X54811Y-22268
X54839Y-21529
X54839Y-24059
X55252Y-23291
X55528Y-22583
X55571Y-27614
X55957Y-32240
X56126Y-28303
X56500Y-26902
X56600Y-23600
X56602Y-33650
X56646Y-26122
X56898Y-28028
X57406Y-36413
X57500Y-26700
X57500Y-28000
X57591Y-31949
X58094Y-26922
X58100Y-27777
X58169Y-21516
X59417Y-24453
X59433Y-24008
X62921Y-24394
X64276Y-21496
X66776Y-22547
X67150Y-23402
X67299Y-22248
X67449Y-22913
X67630Y-21584
X67748Y-23768
X68004Y-23213
X68035Y-22449
X68591Y-22795
X71118Y-21705
T3
X59028Y-33591
X59028Y-34091
X59028Y-34591
X59028Y-35091
X59028Y-35591
X59528Y-33591
X59528Y-34091
X59528Y-34591
X59528Y-35091
X59528Y-35591
T4
X63587Y-38634
X64587Y-31634
X64587Y-38634
X65587Y-31634
X65587Y-38634
X66587Y-31634
X66587Y-38634
X67587Y-31634
X67587Y-38634
X68587Y-38634
T5
X40878Y-19476
X41862Y-19476
X41445Y-21937
X41445Y-22921
X44657Y-21941
X44657Y-22925
X79461Y-17701
X79461Y-18701
X79461Y-19701
T6
X47091Y-30811
X48091Y-30811
X78669Y-30138
X78669Y-31138
X78669Y-32138
X78669Y-33138
X74055Y-14740
X75055Y-14740
X41984Y-30260
X42984Y-30260
X78756Y-25898
X78756Y-26898
X78756Y-27898
X72937Y-38039
X73937Y-38039
X74937Y-38039
T7
X63443Y-13795
X63443Y-15764
X66203Y-13795
X66203Y-15764
X45384Y-13720
X45384Y-15689
X48144Y-13720
X48144Y-15689
X44234Y-17906
X44234Y-19874
X46994Y-17906
X46994Y-19874
X50720Y-17516
X50720Y-19484
X53480Y-17516
X53480Y-19484
X63435Y-17681
X63435Y-19650
X66195Y-17681
X66195Y-19650
X55920Y-13716
X55920Y-15684
X58680Y-13716
X58680Y-15684
X68695Y-13819
X68695Y-15787
X71455Y-13819
X71455Y-15787
X68667Y-17677
X68667Y-19646
X71427Y-17677
X71427Y-19646
X50754Y-13736
X50754Y-15705
X53514Y-13736
X53514Y-15705
X55904Y-17457
X55904Y-19425
X58663Y-17457
X58663Y-19425
T8
X42303Y-15772
X77740Y-15772
X77740Y-36441
T0
M30
