G04 #@! TF.GenerationSoftware,KiCad,Pcbnew,(5.0.0)*
G04 #@! TF.CreationDate,2019-01-27T01:54:26-03:30*
G04 #@! TF.ProjectId,Tooling Board,546F6F6C696E6720426F6172642E6B69,rev?*
G04 #@! TF.SameCoordinates,Original*
G04 #@! TF.FileFunction,Copper,L2,Bot,Signal*
G04 #@! TF.FilePolarity,Positive*
%FSLAX46Y46*%
G04 Gerber Fmt 4.6, Leading zero omitted, Abs format (unit mm)*
G04 Created by KiCad (PCBNEW (5.0.0)) date 01/27/19 01:54:26*
%MOMM*%
%LPD*%
G01*
G04 APERTURE LIST*
G04 #@! TA.AperFunction,ComponentPad*
%ADD10C,0.300000*%
G04 #@! TD*
G04 #@! TA.AperFunction,ComponentPad*
%ADD11O,1.000000X1.000000*%
G04 #@! TD*
G04 #@! TA.AperFunction,ComponentPad*
%ADD12R,1.000000X1.000000*%
G04 #@! TD*
G04 #@! TA.AperFunction,ComponentPad*
%ADD13C,1.600000*%
G04 #@! TD*
G04 #@! TA.AperFunction,ComponentPad*
%ADD14R,1.600000X1.600000*%
G04 #@! TD*
G04 #@! TA.AperFunction,ComponentPad*
%ADD15C,3.200000*%
G04 #@! TD*
G04 #@! TA.AperFunction,ComponentPad*
%ADD16C,1.524000*%
G04 #@! TD*
G04 #@! TA.AperFunction,ComponentPad*
%ADD17R,1.724000X1.724000*%
G04 #@! TD*
G04 #@! TA.AperFunction,ComponentPad*
%ADD18C,1.824000*%
G04 #@! TD*
G04 #@! TA.AperFunction,ComponentPad*
%ADD19C,1.440000*%
G04 #@! TD*
G04 #@! TA.AperFunction,ViaPad*
%ADD20C,6.000000*%
G04 #@! TD*
G04 #@! TA.AperFunction,ViaPad*
%ADD21C,0.800000*%
G04 #@! TD*
G04 #@! TA.AperFunction,ViaPad*
%ADD22C,0.600000*%
G04 #@! TD*
G04 #@! TA.AperFunction,Conductor*
%ADD23C,0.200000*%
G04 #@! TD*
G04 #@! TA.AperFunction,Conductor*
%ADD24C,1.000000*%
G04 #@! TD*
G04 #@! TA.AperFunction,Conductor*
%ADD25C,0.500000*%
G04 #@! TD*
G04 #@! TA.AperFunction,Conductor*
%ADD26C,0.250000*%
G04 #@! TD*
G04 #@! TA.AperFunction,Conductor*
%ADD27C,0.254000*%
G04 #@! TD*
G04 APERTURE END LIST*
D10*
G04 #@! TO.P,U201,33*
G04 #@! TO.N,N/C*
X156280000Y-76250000D03*
X155280000Y-76250000D03*
X154280000Y-76250000D03*
X156280000Y-75250000D03*
X155279999Y-75250000D03*
X154280000Y-75250000D03*
X156280000Y-74250000D03*
X155280000Y-74250000D03*
X154280000Y-74250000D03*
G04 #@! TD*
D11*
G04 #@! TO.P,J201,10*
G04 #@! TO.N,~RESET~*
X149930000Y-85320000D03*
G04 #@! TO.P,J201,9*
G04 #@! TO.N,Net-(J201-Pad9)*
X151200000Y-85320000D03*
G04 #@! TO.P,J201,8*
G04 #@! TO.N,Net-(J201-Pad8)*
X149930000Y-86590000D03*
G04 #@! TO.P,J201,7*
G04 #@! TO.N,Net-(J201-Pad7)*
X151200000Y-86590000D03*
G04 #@! TO.P,J201,6*
G04 #@! TO.N,Net-(J201-Pad6)*
X149930000Y-87860000D03*
G04 #@! TO.P,J201,5*
G04 #@! TO.N,GND*
X151200000Y-87860000D03*
G04 #@! TO.P,J201,4*
G04 #@! TO.N,SWCLK*
X149930000Y-89130000D03*
G04 #@! TO.P,J201,3*
G04 #@! TO.N,GND*
X151200000Y-89130000D03*
G04 #@! TO.P,J201,2*
G04 #@! TO.N,SWDIO*
X149930000Y-90400000D03*
D12*
G04 #@! TO.P,J201,1*
G04 #@! TO.N,+3V3*
X151200000Y-90400000D03*
G04 #@! TD*
D13*
G04 #@! TO.P,C101,2*
G04 #@! TO.N,GND*
X113430000Y-58230000D03*
D14*
G04 #@! TO.P,C101,1*
G04 #@! TO.N,+12V*
X113430000Y-55730000D03*
G04 #@! TD*
G04 #@! TO.P,C102,1*
G04 #@! TO.N,+12V*
X106330000Y-49470000D03*
D13*
G04 #@! TO.P,C102,2*
G04 #@! TO.N,GND*
X103830000Y-49470000D03*
G04 #@! TD*
G04 #@! TO.P,C104,2*
G04 #@! TO.N,GND*
X105270000Y-58220000D03*
D14*
G04 #@! TO.P,C104,1*
G04 #@! TO.N,+12V*
X105270000Y-55720000D03*
G04 #@! TD*
D15*
G04 #@! TO.P,J101,1*
G04 #@! TO.N,+12V*
X112355000Y-45480000D03*
X119365000Y-45480000D03*
X119365000Y-50480000D03*
X112355000Y-50480000D03*
G04 #@! TD*
G04 #@! TO.P,J102,1*
G04 #@! TO.N,GND*
X115275000Y-39850000D03*
X122285000Y-39850000D03*
X122285000Y-34850000D03*
X115275000Y-34850000D03*
G04 #@! TD*
G04 #@! TO.P,J401,1*
G04 #@! TO.N,Net-(J401-Pad1)*
X161145000Y-40040000D03*
X168155000Y-40040000D03*
X168155000Y-35040000D03*
X161145000Y-35040000D03*
G04 #@! TD*
G04 #@! TO.P,J402,1*
G04 #@! TO.N,Net-(J402-Pad1)*
X161125000Y-44910000D03*
X168135000Y-44910000D03*
X168135000Y-49910000D03*
X161125000Y-49910000D03*
G04 #@! TD*
G04 #@! TO.P,J403,1*
G04 #@! TO.N,Net-(J403-Pad1)*
X174485000Y-35100000D03*
X181495000Y-35100000D03*
X181495000Y-40100000D03*
X174485000Y-40100000D03*
G04 #@! TD*
G04 #@! TO.P,J404,1*
G04 #@! TO.N,Net-(J404-Pad1)*
X174415000Y-49900000D03*
X181425000Y-49900000D03*
X181425000Y-44900000D03*
X174415000Y-44900000D03*
G04 #@! TD*
G04 #@! TO.P,J501,1*
G04 #@! TO.N,Net-(J501-Pad1)*
X128915000Y-34890000D03*
X135925000Y-34890000D03*
X135925000Y-39890000D03*
X128915000Y-39890000D03*
G04 #@! TD*
G04 #@! TO.P,J502,1*
G04 #@! TO.N,Net-(J502-Pad1)*
X128829000Y-44490000D03*
X135839000Y-44490000D03*
X135839000Y-49490000D03*
X128829000Y-49490000D03*
G04 #@! TD*
G04 #@! TO.P,J503,1*
G04 #@! TO.N,Net-(J503-Pad1)*
X142037000Y-39838000D03*
X149047000Y-39838000D03*
X149047000Y-34838000D03*
X142037000Y-34838000D03*
G04 #@! TD*
G04 #@! TO.P,J504,1*
G04 #@! TO.N,Net-(J504-Pad1)*
X141995000Y-49340000D03*
X149005000Y-49340000D03*
X149005000Y-44340000D03*
X141995000Y-44340000D03*
G04 #@! TD*
D16*
G04 #@! TO.P,U701,1*
G04 #@! TO.N,+3V3*
X161510000Y-98130000D03*
G04 #@! TO.P,U701,2*
G04 #@! TO.N,Net-(U701-Pad2)*
X164050000Y-98130000D03*
G04 #@! TO.P,U701,3*
G04 #@! TO.N,GND*
X166590000Y-98130000D03*
G04 #@! TO.P,U701,4*
G04 #@! TO.N,SDA*
X169130000Y-98130000D03*
G04 #@! TO.P,U701,5*
G04 #@! TO.N,SCL*
X171670000Y-98130000D03*
G04 #@! TO.P,U701,6*
G04 #@! TO.N,GND*
X174210000Y-98130000D03*
G04 #@! TO.P,U701,7*
G04 #@! TO.N,Net-(U701-Pad7)*
X164050000Y-80350000D03*
G04 #@! TO.P,U701,8*
G04 #@! TO.N,Net-(U701-Pad8)*
X166590000Y-80350000D03*
G04 #@! TO.P,U701,9*
G04 #@! TO.N,Net-(U701-Pad9)*
X169130000Y-80350000D03*
G04 #@! TO.P,U701,10*
G04 #@! TO.N,+3V3*
X171670000Y-80350000D03*
G04 #@! TD*
D17*
G04 #@! TO.P,J301,1*
G04 #@! TO.N,+12V*
X106640000Y-76860000D03*
D18*
G04 #@! TO.P,J301,2*
G04 #@! TO.N,Net-(J301-Pad2)*
X109180000Y-76860000D03*
G04 #@! TD*
G04 #@! TO.P,J302,2*
G04 #@! TO.N,Net-(J302-Pad2)*
X119610000Y-78260000D03*
D17*
G04 #@! TO.P,J302,1*
G04 #@! TO.N,+12V*
X122150000Y-78260000D03*
G04 #@! TD*
D18*
G04 #@! TO.P,J701,2*
G04 #@! TO.N,T_DATA*
X187800000Y-96620000D03*
G04 #@! TO.P,J701,1*
G04 #@! TO.N,+3V3*
X190340000Y-96620000D03*
G04 #@! TO.P,J701,3*
G04 #@! TO.N,GND*
X185260000Y-96620000D03*
G04 #@! TD*
G04 #@! TO.P,J702,4*
G04 #@! TO.N,GND*
X199820000Y-76550000D03*
G04 #@! TO.P,J702,3*
G04 #@! TO.N,SCL*
X199820000Y-79090000D03*
G04 #@! TO.P,J702,1*
G04 #@! TO.N,+5V*
X199820000Y-84170000D03*
G04 #@! TO.P,J702,2*
G04 #@! TO.N,SDA*
X199820000Y-81630000D03*
G04 #@! TD*
G04 #@! TO.P,J703,3*
G04 #@! TO.N,GND*
X200040000Y-65780000D03*
G04 #@! TO.P,J703,1*
G04 #@! TO.N,+12V*
X200040000Y-70860000D03*
G04 #@! TO.P,J703,2*
G04 #@! TO.N,Net-(C701-Pad1)*
X200040000Y-68320000D03*
G04 #@! TD*
G04 #@! TO.P,J801,2*
G04 #@! TO.N,Net-(J801-Pad2)*
X188100000Y-37440000D03*
D17*
G04 #@! TO.P,J801,1*
G04 #@! TO.N,GND*
X190640000Y-37440000D03*
G04 #@! TD*
D19*
G04 #@! TO.P,RV801,3*
G04 #@! TO.N,Net-(R803-Pad2)*
X201830000Y-44960000D03*
G04 #@! TO.P,RV801,2*
G04 #@! TO.N,Net-(C806-Pad2)*
X201830000Y-47500000D03*
G04 #@! TO.P,RV801,1*
G04 #@! TO.N,Net-(R802-Pad1)*
X201830000Y-50040000D03*
G04 #@! TD*
D20*
G04 #@! TO.N,*
X197460000Y-92560000D03*
X197460000Y-40060000D03*
D21*
G04 #@! TO.N,GND*
X132550000Y-54210000D03*
X146060000Y-54310000D03*
X116510000Y-60190000D03*
X108890000Y-60680000D03*
X108230000Y-73000000D03*
X105670000Y-72000000D03*
X105540000Y-60980000D03*
X113460000Y-74020000D03*
X115140000Y-79180000D03*
X129440000Y-65110000D03*
X130090000Y-60480000D03*
X124780000Y-61520000D03*
D20*
G04 #@! TO.N,*
X107450000Y-40060000D03*
D22*
G04 #@! TO.N,3V3_FILT*
X149080000Y-78740000D03*
X155050000Y-82180000D03*
D21*
G04 #@! TO.N,GND*
X116980000Y-72940000D03*
X119240000Y-69680000D03*
X124030000Y-69170000D03*
X129220000Y-70930000D03*
X125510000Y-77890000D03*
X129260000Y-81650000D03*
X146280000Y-81150000D03*
X145810000Y-92490000D03*
X139290000Y-54683800D03*
X139290000Y-61110000D03*
X139290000Y-67536200D03*
X171780000Y-54823800D03*
X171780000Y-61250000D03*
X171710000Y-65950000D03*
X150920000Y-62110000D03*
X150960000Y-60980000D03*
X165030000Y-54550000D03*
X178560000Y-54480000D03*
X146050000Y-71120000D03*
X146050000Y-67818000D03*
D22*
X159850000Y-65080000D03*
X158430000Y-59840000D03*
X178570000Y-67850000D03*
X181250000Y-69100000D03*
X184540000Y-55320000D03*
X166560000Y-67000000D03*
X197910000Y-73350000D03*
X186630000Y-63960000D03*
X185450000Y-40730000D03*
X192770000Y-36690000D03*
X203000000Y-51940000D03*
X199600000Y-52470000D03*
X203370000Y-61100000D03*
X186360000Y-48670000D03*
X200550000Y-54270000D03*
X191660000Y-54910000D03*
X188380000Y-64210000D03*
X190120000Y-67080000D03*
X143260000Y-74760000D03*
X168150000Y-71890000D03*
X159017105Y-77085797D03*
X181560000Y-60970000D03*
D21*
G04 #@! TO.N,+5V*
X133220000Y-69550000D03*
X143880000Y-66350000D03*
D22*
X150940000Y-65360000D03*
X181240000Y-65750000D03*
X166300000Y-68640000D03*
X191420000Y-64570000D03*
X193020000Y-58920000D03*
X190030000Y-57650000D03*
X189970000Y-56060000D03*
G04 #@! TO.N,Net-(C207-Pad1)*
X151550000Y-75500000D03*
X146480000Y-74680000D03*
D21*
G04 #@! TO.N,+3V3*
X143770000Y-85470000D03*
X142130000Y-81890000D03*
X136180000Y-79440000D03*
X133950000Y-76850000D03*
D22*
X179540000Y-87460000D03*
X186450000Y-87460000D03*
X192780000Y-82850000D03*
X193350000Y-77460000D03*
X143620000Y-81550000D03*
X161880000Y-92700000D03*
X163670000Y-90970000D03*
X151420000Y-76550000D03*
X146970000Y-76580000D03*
G04 #@! TO.N,~RESET~*
X153950000Y-82060000D03*
X150570000Y-78610000D03*
G04 #@! TO.N,SWCLK*
X148720000Y-86090000D03*
X148900000Y-84260000D03*
X154080000Y-80860000D03*
X151680000Y-77820000D03*
G04 #@! TO.N,SWDIO*
X147730000Y-86050000D03*
X147990000Y-84240000D03*
X153830000Y-79710000D03*
X152760000Y-77750000D03*
G04 #@! TO.N,Net-(R203-Pad1)*
X160910000Y-73790000D03*
X159093875Y-73880758D03*
D21*
G04 #@! TO.N,DirB2*
X147574000Y-70554000D03*
D22*
X151694265Y-74634265D03*
D21*
X147557937Y-68381150D03*
G04 #@! TO.N,USB+*
X120740000Y-75465000D03*
X132520000Y-73620000D03*
G04 #@! TO.N,USB-*
X120740000Y-74415000D03*
X132480000Y-72370000D03*
D22*
G04 #@! TO.N,EnableB2*
X155517354Y-71462518D03*
X148690000Y-68580000D03*
G04 #@! TO.N,LED*
X156360779Y-71427191D03*
X152290000Y-72770000D03*
D21*
G04 #@! TO.N,DirA2*
X144520000Y-71190000D03*
X143510000Y-68330000D03*
D22*
X157160769Y-71433087D03*
X156660000Y-69290000D03*
D21*
G04 #@! TO.N,EnableA2*
X141150000Y-70140000D03*
X142560000Y-71890000D03*
D22*
X160150000Y-71230000D03*
X158489694Y-72447523D03*
G04 #@! TO.N,DirA1*
X161110000Y-71900000D03*
X158964716Y-73091241D03*
G04 #@! TO.N,T_DATA*
X177710000Y-88900000D03*
X184290000Y-89620000D03*
X161180000Y-75320000D03*
X159139755Y-74679454D03*
G04 #@! TO.N,EnableA1*
X161440000Y-71060000D03*
X159151219Y-75479384D03*
X163470000Y-64990000D03*
X161540000Y-66110000D03*
G04 #@! TO.N,EnableB1*
X172380000Y-71060000D03*
X164370000Y-75860000D03*
X171270000Y-72260001D03*
X158999653Y-76264908D03*
G04 #@! TO.N,V_PH*
X183960000Y-64840000D03*
X183930000Y-66970000D03*
X156388668Y-78682802D03*
X160970000Y-78760000D03*
G04 #@! TO.N,V_METAL*
X155650000Y-78990000D03*
X161600000Y-79660000D03*
G04 #@! TO.N,DirB1*
X157725031Y-72000209D03*
X167110000Y-71290000D03*
D21*
G04 #@! TO.N,+12V*
X134650000Y-61740000D03*
X159820000Y-61960000D03*
D22*
X182750000Y-66950000D03*
G04 #@! TO.N,Net-(C701-Pad1)*
X196260000Y-70180000D03*
G04 #@! TO.N,-5V*
X190120000Y-47810000D03*
X191290000Y-48810000D03*
X200170000Y-53380000D03*
X196340000Y-53040000D03*
G04 #@! TO.N,Net-(C806-Pad1)*
X192060000Y-47020000D03*
X195370000Y-43660000D03*
G04 #@! TO.N,Net-(J402-Pad1)*
X167070000Y-60200000D03*
G04 #@! TO.N,Net-(J404-Pad1)*
X176370000Y-60100000D03*
D21*
G04 #@! TO.N,Net-(J502-Pad1)*
X134620000Y-59690000D03*
G04 #@! TO.N,Net-(J504-Pad1)*
X143764000Y-59944000D03*
D22*
G04 #@! TO.N,Net-(R804-Pad1)*
X193970000Y-45610000D03*
X194310000Y-47120000D03*
X196260000Y-47110000D03*
X195370000Y-45560000D03*
G04 #@! TO.N,Net-(R806-Pad1)*
X194720000Y-52350000D03*
X195510000Y-51180000D03*
G04 #@! TD*
D23*
G04 #@! TO.N,3V3_FILT*
X154569999Y-82660001D02*
X155050000Y-82180000D01*
X149080000Y-78740000D02*
X153000001Y-82660001D01*
X153000001Y-82660001D02*
X154569999Y-82660001D01*
D24*
G04 #@! TO.N,+5V*
X133220000Y-69550000D02*
X134930000Y-69550000D01*
X134930000Y-69550000D02*
X138130000Y-66350000D01*
X138130000Y-66350000D02*
X143880000Y-66350000D01*
X143880000Y-66350000D02*
X144920000Y-65310000D01*
X144920000Y-65310000D02*
X150940000Y-65310000D01*
X181190000Y-65800000D02*
X176910000Y-65800000D01*
D23*
X181240000Y-65750000D02*
X181190000Y-65800000D01*
D24*
X176910000Y-65800000D02*
X174070000Y-68640000D01*
D23*
X151885000Y-65480000D02*
X151765000Y-65360000D01*
D24*
X174070000Y-68640000D02*
X166300000Y-68640000D01*
D23*
X193060000Y-58960000D02*
X193020000Y-58920000D01*
X191420000Y-64570000D02*
X193060000Y-62930000D01*
X193060000Y-62930000D02*
X193060000Y-58960000D01*
X190030000Y-57650000D02*
X190030000Y-56120000D01*
X190030000Y-56120000D02*
X189970000Y-56060000D01*
D24*
X166300000Y-68640000D02*
X160980000Y-68640000D01*
X157700000Y-65360000D02*
X152005000Y-65360000D01*
X160980000Y-68640000D02*
X157700000Y-65360000D01*
X152000000Y-65360000D02*
X150940000Y-65360000D01*
X152020000Y-65380000D02*
X152000000Y-65360000D01*
D23*
G04 #@! TO.N,Net-(C207-Pad1)*
X147690000Y-75890000D02*
X146480000Y-74680000D01*
X151550000Y-75500000D02*
X151160000Y-75890000D01*
X151160000Y-75890000D02*
X147690000Y-75890000D01*
D25*
G04 #@! TO.N,+3V3*
X143770000Y-85470000D02*
X143770000Y-83530000D01*
X143770000Y-83530000D02*
X142130000Y-81890000D01*
D26*
X136180000Y-79235000D02*
X136180000Y-79440000D01*
D25*
X133950000Y-76850000D02*
X136180000Y-79235000D01*
X179540000Y-87460000D02*
X186450000Y-87460000D01*
X192780000Y-82850000D02*
X192780000Y-78000000D01*
X192780000Y-78000000D02*
X193320000Y-77460000D01*
D23*
X193320000Y-77460000D02*
X193350000Y-77460000D01*
D25*
X161880000Y-92700000D02*
X163610000Y-90970000D01*
D23*
X163610000Y-90970000D02*
X163670000Y-90970000D01*
X147000000Y-76550000D02*
X146970000Y-76580000D01*
X151420000Y-76550000D02*
X147000000Y-76550000D01*
G04 #@! TO.N,~RESET~*
X153950000Y-82060000D02*
X150570000Y-78680000D01*
X150570000Y-78680000D02*
X150570000Y-78610000D01*
G04 #@! TO.N,SWCLK*
X148720000Y-86090000D02*
X148720000Y-84440000D01*
X148720000Y-84440000D02*
X148900000Y-84260000D01*
X151680000Y-78244264D02*
X151680000Y-77820000D01*
X151680000Y-78460000D02*
X151680000Y-78244264D01*
X154080000Y-80860000D02*
X151680000Y-78460000D01*
G04 #@! TO.N,SWDIO*
X147990000Y-84240000D02*
X147750000Y-84480000D01*
X147750000Y-84480000D02*
X147750000Y-86030000D01*
X147750000Y-86030000D02*
X147730000Y-86050000D01*
X153830000Y-79710000D02*
X152760000Y-78640000D01*
X152760000Y-78640000D02*
X152760000Y-77750000D01*
G04 #@! TO.N,Net-(R203-Pad1)*
X159184633Y-73790000D02*
X159093875Y-73880758D01*
X160910000Y-73790000D02*
X159184633Y-73790000D01*
D26*
G04 #@! TO.N,DirB2*
X147574000Y-70554000D02*
X147574000Y-68397213D01*
X147574000Y-68397213D02*
X147557937Y-68381150D01*
D23*
X151694265Y-74634265D02*
X147614000Y-70554000D01*
X147614000Y-70554000D02*
X147574000Y-70554000D01*
G04 #@! TO.N,USB+*
X130675000Y-75465000D02*
X132120001Y-74019999D01*
X132120001Y-74019999D02*
X132520000Y-73620000D01*
X120740000Y-75465000D02*
X130675000Y-75465000D01*
G04 #@! TO.N,USB-*
X132230000Y-72370000D02*
X132480000Y-72370000D01*
X132220000Y-72360000D02*
X132230000Y-72370000D01*
X132050000Y-72360000D02*
X132220000Y-72360000D01*
X120740000Y-74415000D02*
X129995000Y-74415000D01*
X129995000Y-74415000D02*
X132050000Y-72360000D01*
G04 #@! TO.N,EnableB2*
X148370000Y-68900000D02*
X148690000Y-68580000D01*
X148370000Y-70170000D02*
X148370000Y-68900000D01*
X155517354Y-71462518D02*
X149662518Y-71462518D01*
X149662518Y-71462518D02*
X148370000Y-70170000D01*
G04 #@! TO.N,LED*
X156360779Y-71851455D02*
X156360779Y-71427191D01*
X155442234Y-72770000D02*
X156360779Y-71851455D01*
X152290000Y-72770000D02*
X155442234Y-72770000D01*
D26*
G04 #@! TO.N,DirA2*
X144520000Y-71190000D02*
X144520000Y-69060000D01*
X144520000Y-69060000D02*
X143790000Y-68330000D01*
X143790000Y-68330000D02*
X143510000Y-68330000D01*
D23*
X157160769Y-71008823D02*
X157160769Y-71433087D01*
X157160769Y-70215033D02*
X157160769Y-71008823D01*
X156660000Y-69714264D02*
X157160769Y-70215033D01*
X156660000Y-69290000D02*
X156660000Y-69714264D01*
D26*
G04 #@! TO.N,EnableA2*
X141150000Y-70140000D02*
X141150000Y-70480000D01*
X141150000Y-70480000D02*
X142560000Y-71890000D01*
D23*
X160150000Y-71230000D02*
X159707217Y-71230000D01*
X159707217Y-71230000D02*
X158789693Y-72147524D01*
X158789693Y-72147524D02*
X158489694Y-72447523D01*
G04 #@! TO.N,DirA1*
X161110000Y-71900000D02*
X160155957Y-71900000D01*
X160155957Y-71900000D02*
X159264715Y-72791242D01*
X159264715Y-72791242D02*
X158964716Y-73091241D01*
G04 #@! TO.N,T_DATA*
X183865736Y-89620000D02*
X184290000Y-89620000D01*
X183740000Y-89620000D02*
X183865736Y-89620000D01*
X177710000Y-88900000D02*
X183020000Y-88900000D01*
X183020000Y-88900000D02*
X183740000Y-89620000D01*
X161180000Y-75320000D02*
X160539454Y-74679454D01*
X160539454Y-74679454D02*
X159564019Y-74679454D01*
X159564019Y-74679454D02*
X159139755Y-74679454D01*
G04 #@! TO.N,EnableA1*
X161440000Y-71060000D02*
X161780000Y-71400000D01*
X159591836Y-75920001D02*
X159451218Y-75779383D01*
X161780000Y-75608002D02*
X161468001Y-75920001D01*
X159451218Y-75779383D02*
X159151219Y-75479384D01*
X161468001Y-75920001D02*
X159591836Y-75920001D01*
X161780000Y-71400000D02*
X161780000Y-75608002D01*
X163470000Y-64990000D02*
X162660000Y-64990000D01*
X162660000Y-64990000D02*
X161839999Y-65810001D01*
X161839999Y-65810001D02*
X161540000Y-66110000D01*
G04 #@! TO.N,EnableB1*
X171380000Y-72060000D02*
X172380000Y-71060000D01*
X163720001Y-76509999D02*
X164370000Y-75860000D01*
X163520000Y-76509999D02*
X163720001Y-76509999D01*
X163520000Y-76509999D02*
X163640001Y-76509999D01*
X171270000Y-72260001D02*
X171380000Y-72060000D01*
X163520000Y-76509999D02*
X163482406Y-76547593D01*
X159282338Y-76547593D02*
X158999653Y-76264908D01*
X163482406Y-76547593D02*
X159282338Y-76547593D01*
G04 #@! TO.N,V_PH*
X183960000Y-64840000D02*
X183960000Y-66940000D01*
X183960000Y-66940000D02*
X183930000Y-66970000D01*
X156688667Y-78982801D02*
X160667199Y-78982801D01*
X156388668Y-78682802D02*
X156688667Y-78982801D01*
X160667199Y-78982801D02*
X160780000Y-78870000D01*
X160780000Y-78870000D02*
X160860000Y-78870000D01*
X160860000Y-78870000D02*
X160970000Y-78760000D01*
G04 #@! TO.N,V_METAL*
X155650000Y-78990000D02*
X156310000Y-79650000D01*
X156310000Y-79650000D02*
X160750000Y-79650000D01*
X160760000Y-79660000D02*
X160750000Y-79650000D01*
X161600000Y-79660000D02*
X160760000Y-79660000D01*
G04 #@! TO.N,DirB1*
X159770000Y-70320000D02*
X158089791Y-72000209D01*
X167110000Y-71290000D02*
X166140000Y-70320000D01*
X166140000Y-70320000D02*
X159770000Y-70320000D01*
X158089791Y-72000209D02*
X157725031Y-72000209D01*
D24*
G04 #@! TO.N,+12V*
X102845001Y-74177001D02*
X102845001Y-56545001D01*
D26*
X106640000Y-76860000D02*
X105528000Y-76860000D01*
D24*
X105528000Y-76860000D02*
X102845001Y-74177001D01*
X103670002Y-55720000D02*
X105270000Y-55720000D01*
X102845001Y-56545001D02*
X103670002Y-55720000D01*
X158340000Y-63440000D02*
X159820000Y-61960000D01*
D23*
X158310000Y-63440000D02*
X158340000Y-63440000D01*
D24*
X157930000Y-63820000D02*
X158310000Y-63440000D01*
X135049999Y-62139999D02*
X138469999Y-62139999D01*
X134650000Y-61740000D02*
X135049999Y-62139999D01*
X138469999Y-62139999D02*
X139165001Y-62835001D01*
X139165001Y-62835001D02*
X148445001Y-62835001D01*
X148445001Y-62835001D02*
X149430000Y-63820000D01*
X149430000Y-63820000D02*
X157930000Y-63820000D01*
D23*
X162380000Y-61960000D02*
X159820000Y-61960000D01*
X171910020Y-61960000D02*
X162380000Y-61960000D01*
X174950010Y-64999990D02*
X171910020Y-61960000D01*
X181521374Y-64999990D02*
X174950010Y-64999990D01*
X182750000Y-66950000D02*
X182750000Y-66228616D01*
X182750000Y-66228616D02*
X181521374Y-64999990D01*
G04 #@! TO.N,Net-(C701-Pad1)*
X198180000Y-70180000D02*
X196260000Y-70180000D01*
X200040000Y-68320000D02*
X198180000Y-70180000D01*
G04 #@! TO.N,-5V*
X190120000Y-47810000D02*
X190290000Y-47810000D01*
X190290000Y-47810000D02*
X191290000Y-48810000D01*
X200170000Y-53380000D02*
X196680000Y-53380000D01*
X196680000Y-53380000D02*
X196340000Y-53040000D01*
G04 #@! TO.N,Net-(C806-Pad1)*
X194690000Y-43660000D02*
X195370000Y-43660000D01*
X192060000Y-46290000D02*
X194690000Y-43660000D01*
X192060000Y-47020000D02*
X192060000Y-46290000D01*
G04 #@! TO.N,Net-(R804-Pad1)*
X193970000Y-45610000D02*
X193970000Y-46780000D01*
X193970000Y-46780000D02*
X194310000Y-47120000D01*
X195670000Y-45560000D02*
X195370000Y-45560000D01*
X196260000Y-46150000D02*
X195670000Y-45560000D01*
X196260000Y-47110000D02*
X196260000Y-46150000D01*
G04 #@! TO.N,Net-(R806-Pad1)*
X194720000Y-52350000D02*
X194720000Y-51970000D01*
X194720000Y-51970000D02*
X195510000Y-51180000D01*
G04 #@! TD*
D27*
G04 #@! TO.N,GND*
G36*
X127795119Y-33213980D02*
X127238980Y-33770119D01*
X126938000Y-34496750D01*
X126938000Y-35283250D01*
X127238980Y-36009881D01*
X127795119Y-36566020D01*
X128521750Y-36867000D01*
X129308250Y-36867000D01*
X130034881Y-36566020D01*
X130591020Y-36009881D01*
X130892000Y-35283250D01*
X130892000Y-34496750D01*
X130591020Y-33770119D01*
X130034881Y-33213980D01*
X129400162Y-32951071D01*
X135439838Y-32951071D01*
X134805119Y-33213980D01*
X134248980Y-33770119D01*
X133948000Y-34496750D01*
X133948000Y-35283250D01*
X134248980Y-36009881D01*
X134805119Y-36566020D01*
X135531750Y-36867000D01*
X136318250Y-36867000D01*
X137044881Y-36566020D01*
X137601020Y-36009881D01*
X137902000Y-35283250D01*
X137902000Y-34496750D01*
X137601020Y-33770119D01*
X137044881Y-33213980D01*
X136410162Y-32951071D01*
X141426299Y-32951071D01*
X140917119Y-33161980D01*
X140360980Y-33718119D01*
X140060000Y-34444750D01*
X140060000Y-35231250D01*
X140360980Y-35957881D01*
X140917119Y-36514020D01*
X141643750Y-36815000D01*
X142430250Y-36815000D01*
X143156881Y-36514020D01*
X143713020Y-35957881D01*
X144014000Y-35231250D01*
X144014000Y-34444750D01*
X143713020Y-33718119D01*
X143156881Y-33161980D01*
X142647701Y-32951071D01*
X148436299Y-32951071D01*
X147927119Y-33161980D01*
X147370980Y-33718119D01*
X147070000Y-34444750D01*
X147070000Y-35231250D01*
X147370980Y-35957881D01*
X147927119Y-36514020D01*
X148653750Y-36815000D01*
X149440250Y-36815000D01*
X150166881Y-36514020D01*
X150723020Y-35957881D01*
X151024000Y-35231250D01*
X151024000Y-34646750D01*
X159168000Y-34646750D01*
X159168000Y-35433250D01*
X159468980Y-36159881D01*
X160025119Y-36716020D01*
X160751750Y-37017000D01*
X161538250Y-37017000D01*
X162264881Y-36716020D01*
X162821020Y-36159881D01*
X163122000Y-35433250D01*
X163122000Y-34646750D01*
X166178000Y-34646750D01*
X166178000Y-35433250D01*
X166478980Y-36159881D01*
X167035119Y-36716020D01*
X167761750Y-37017000D01*
X168548250Y-37017000D01*
X169274881Y-36716020D01*
X169831020Y-36159881D01*
X170132000Y-35433250D01*
X170132000Y-34706750D01*
X172508000Y-34706750D01*
X172508000Y-35493250D01*
X172808980Y-36219881D01*
X173365119Y-36776020D01*
X174091750Y-37077000D01*
X174878250Y-37077000D01*
X175604881Y-36776020D01*
X176161020Y-36219881D01*
X176462000Y-35493250D01*
X176462000Y-34706750D01*
X179518000Y-34706750D01*
X179518000Y-35493250D01*
X179818980Y-36219881D01*
X180375119Y-36776020D01*
X181101750Y-37077000D01*
X181888250Y-37077000D01*
X182614881Y-36776020D01*
X183171020Y-36219881D01*
X183472000Y-35493250D01*
X183472000Y-34706750D01*
X183171020Y-33980119D01*
X182614881Y-33423980D01*
X181888250Y-33123000D01*
X181101750Y-33123000D01*
X180375119Y-33423980D01*
X179818980Y-33980119D01*
X179518000Y-34706750D01*
X176462000Y-34706750D01*
X176161020Y-33980119D01*
X175604881Y-33423980D01*
X174878250Y-33123000D01*
X174091750Y-33123000D01*
X173365119Y-33423980D01*
X172808980Y-33980119D01*
X172508000Y-34706750D01*
X170132000Y-34706750D01*
X170132000Y-34646750D01*
X169831020Y-33920119D01*
X169274881Y-33363980D01*
X168548250Y-33063000D01*
X167761750Y-33063000D01*
X167035119Y-33363980D01*
X166478980Y-33920119D01*
X166178000Y-34646750D01*
X163122000Y-34646750D01*
X162821020Y-33920119D01*
X162264881Y-33363980D01*
X161538250Y-33063000D01*
X160751750Y-33063000D01*
X160025119Y-33363980D01*
X159468980Y-33920119D01*
X159168000Y-34646750D01*
X151024000Y-34646750D01*
X151024000Y-34444750D01*
X150723020Y-33718119D01*
X150166881Y-33161980D01*
X149657701Y-32951071D01*
X194700694Y-32951071D01*
X195917583Y-33027631D01*
X197103313Y-33253821D01*
X198251350Y-33626840D01*
X199343581Y-34140805D01*
X200362780Y-34787609D01*
X201292874Y-35557049D01*
X202119204Y-36437001D01*
X202828726Y-37413573D01*
X203410259Y-38471375D01*
X203854629Y-39593728D01*
X204154828Y-40762923D01*
X204306882Y-41966558D01*
X204325852Y-42570181D01*
X204325851Y-97451612D01*
X204184585Y-98007756D01*
X203917661Y-98519372D01*
X203540200Y-98955859D01*
X203072447Y-99293806D01*
X202539496Y-99515082D01*
X201951943Y-99610747D01*
X201852602Y-99613000D01*
X145852279Y-99613000D01*
X145229282Y-99540366D01*
X144660978Y-99334082D01*
X144155369Y-99002589D01*
X143739587Y-98563680D01*
X143435925Y-98040887D01*
X143394296Y-97903439D01*
X160371000Y-97903439D01*
X160371000Y-98356561D01*
X160544403Y-98775191D01*
X160864809Y-99095597D01*
X161283439Y-99269000D01*
X161736561Y-99269000D01*
X162155191Y-99095597D01*
X162475597Y-98775191D01*
X162649000Y-98356561D01*
X162649000Y-97903439D01*
X162911000Y-97903439D01*
X162911000Y-98356561D01*
X163084403Y-98775191D01*
X163404809Y-99095597D01*
X163823439Y-99269000D01*
X164276561Y-99269000D01*
X164695191Y-99095597D01*
X165015597Y-98775191D01*
X165189000Y-98356561D01*
X165189000Y-97903439D01*
X167991000Y-97903439D01*
X167991000Y-98356561D01*
X168164403Y-98775191D01*
X168484809Y-99095597D01*
X168903439Y-99269000D01*
X169356561Y-99269000D01*
X169775191Y-99095597D01*
X170095597Y-98775191D01*
X170269000Y-98356561D01*
X170269000Y-97903439D01*
X170531000Y-97903439D01*
X170531000Y-98356561D01*
X170704403Y-98775191D01*
X171024809Y-99095597D01*
X171443439Y-99269000D01*
X171896561Y-99269000D01*
X172315191Y-99095597D01*
X172635597Y-98775191D01*
X172809000Y-98356561D01*
X172809000Y-97903439D01*
X172635597Y-97484809D01*
X172315191Y-97164403D01*
X171896561Y-96991000D01*
X171443439Y-96991000D01*
X171024809Y-97164403D01*
X170704403Y-97484809D01*
X170531000Y-97903439D01*
X170269000Y-97903439D01*
X170095597Y-97484809D01*
X169775191Y-97164403D01*
X169356561Y-96991000D01*
X168903439Y-96991000D01*
X168484809Y-97164403D01*
X168164403Y-97484809D01*
X167991000Y-97903439D01*
X165189000Y-97903439D01*
X165015597Y-97484809D01*
X164695191Y-97164403D01*
X164276561Y-96991000D01*
X163823439Y-96991000D01*
X163404809Y-97164403D01*
X163084403Y-97484809D01*
X162911000Y-97903439D01*
X162649000Y-97903439D01*
X162475597Y-97484809D01*
X162155191Y-97164403D01*
X161736561Y-96991000D01*
X161283439Y-96991000D01*
X160864809Y-97164403D01*
X160544403Y-97484809D01*
X160371000Y-97903439D01*
X143394296Y-97903439D01*
X143259139Y-97457187D01*
X143216798Y-96982764D01*
X143216798Y-96363602D01*
X186511000Y-96363602D01*
X186511000Y-96876398D01*
X186707239Y-97350160D01*
X187069840Y-97712761D01*
X187543602Y-97909000D01*
X188056398Y-97909000D01*
X188530160Y-97712761D01*
X188892761Y-97350160D01*
X189070000Y-96922268D01*
X189247239Y-97350160D01*
X189609840Y-97712761D01*
X190083602Y-97909000D01*
X190596398Y-97909000D01*
X191070160Y-97712761D01*
X191432761Y-97350160D01*
X191629000Y-96876398D01*
X191629000Y-96363602D01*
X191432761Y-95889840D01*
X191070160Y-95527239D01*
X190596398Y-95331000D01*
X190083602Y-95331000D01*
X189609840Y-95527239D01*
X189247239Y-95889840D01*
X189070000Y-96317732D01*
X188892761Y-95889840D01*
X188530160Y-95527239D01*
X188056398Y-95331000D01*
X187543602Y-95331000D01*
X187069840Y-95527239D01*
X186707239Y-95889840D01*
X186511000Y-96363602D01*
X143216798Y-96363602D01*
X143216798Y-92565336D01*
X161203000Y-92565336D01*
X161203000Y-92834664D01*
X161306067Y-93083490D01*
X161496510Y-93273933D01*
X161745336Y-93377000D01*
X162014664Y-93377000D01*
X162263490Y-93273933D01*
X162453933Y-93083490D01*
X162503934Y-92962777D01*
X163578438Y-91888273D01*
X194083000Y-91888273D01*
X194083000Y-93231727D01*
X194597118Y-94472917D01*
X195547083Y-95422882D01*
X196788273Y-95937000D01*
X198131727Y-95937000D01*
X199372917Y-95422882D01*
X200322882Y-94472917D01*
X200837000Y-93231727D01*
X200837000Y-91888273D01*
X200322882Y-90647083D01*
X199372917Y-89697118D01*
X198131727Y-89183000D01*
X196788273Y-89183000D01*
X195547083Y-89697118D01*
X194597118Y-90647083D01*
X194083000Y-91888273D01*
X163578438Y-91888273D01*
X163830352Y-91636360D01*
X164053490Y-91543933D01*
X164243933Y-91353490D01*
X164347000Y-91104664D01*
X164347000Y-90835336D01*
X164243933Y-90586510D01*
X164053490Y-90396067D01*
X163804664Y-90293000D01*
X163535336Y-90293000D01*
X163286510Y-90396067D01*
X163096067Y-90586510D01*
X163088493Y-90604795D01*
X161617223Y-92076066D01*
X161496510Y-92126067D01*
X161306067Y-92316510D01*
X161203000Y-92565336D01*
X143216798Y-92565336D01*
X143216798Y-86054370D01*
X143213419Y-86037381D01*
X143210957Y-86009801D01*
X143329865Y-86128709D01*
X143615445Y-86247000D01*
X143924555Y-86247000D01*
X144210135Y-86128709D01*
X144423508Y-85915336D01*
X147053000Y-85915336D01*
X147053000Y-86184664D01*
X147156067Y-86433490D01*
X147346510Y-86623933D01*
X147595336Y-86727000D01*
X147864664Y-86727000D01*
X148113490Y-86623933D01*
X148205000Y-86532423D01*
X148336510Y-86663933D01*
X148585336Y-86767000D01*
X148854664Y-86767000D01*
X149054557Y-86684202D01*
X149103884Y-86932188D01*
X149297719Y-87222281D01*
X149301788Y-87225000D01*
X149297719Y-87227719D01*
X149103884Y-87517812D01*
X149035819Y-87860000D01*
X149103884Y-88202188D01*
X149297719Y-88492281D01*
X149301788Y-88495000D01*
X149297719Y-88497719D01*
X149103884Y-88787812D01*
X149035819Y-89130000D01*
X149103884Y-89472188D01*
X149297719Y-89762281D01*
X149301788Y-89765000D01*
X149297719Y-89767719D01*
X149103884Y-90057812D01*
X149035819Y-90400000D01*
X149103884Y-90742188D01*
X149297719Y-91032281D01*
X149587812Y-91226116D01*
X149843625Y-91277000D01*
X150016375Y-91277000D01*
X150272188Y-91226116D01*
X150405135Y-91137283D01*
X150428199Y-91171801D01*
X150552902Y-91255125D01*
X150700000Y-91284385D01*
X151700000Y-91284385D01*
X151847098Y-91255125D01*
X151971801Y-91171801D01*
X152055125Y-91047098D01*
X152084385Y-90900000D01*
X152084385Y-89900000D01*
X152055125Y-89752902D01*
X151971801Y-89628199D01*
X151847098Y-89544875D01*
X151700000Y-89515615D01*
X150727099Y-89515615D01*
X150756116Y-89472188D01*
X150824181Y-89130000D01*
X150756116Y-88787812D01*
X150741098Y-88765336D01*
X177033000Y-88765336D01*
X177033000Y-89034664D01*
X177136067Y-89283490D01*
X177326510Y-89473933D01*
X177575336Y-89577000D01*
X177844664Y-89577000D01*
X178093490Y-89473933D01*
X178190423Y-89377000D01*
X182822421Y-89377000D01*
X183369494Y-89924074D01*
X183396103Y-89963897D01*
X183553884Y-90069323D01*
X183693025Y-90097000D01*
X183693029Y-90097000D01*
X183740000Y-90106343D01*
X183786971Y-90097000D01*
X183809577Y-90097000D01*
X183906510Y-90193933D01*
X184155336Y-90297000D01*
X184424664Y-90297000D01*
X184673490Y-90193933D01*
X184863933Y-90003490D01*
X184967000Y-89754664D01*
X184967000Y-89485336D01*
X184863933Y-89236510D01*
X184673490Y-89046067D01*
X184424664Y-88943000D01*
X184155336Y-88943000D01*
X183906510Y-89046067D01*
X183873578Y-89078999D01*
X183390508Y-88595928D01*
X183363897Y-88556103D01*
X183206116Y-88450677D01*
X183066975Y-88423000D01*
X183066971Y-88423000D01*
X183020000Y-88413657D01*
X182973029Y-88423000D01*
X178190423Y-88423000D01*
X178093490Y-88326067D01*
X177844664Y-88223000D01*
X177575336Y-88223000D01*
X177326510Y-88326067D01*
X177136067Y-88516510D01*
X177033000Y-88765336D01*
X150741098Y-88765336D01*
X150562281Y-88497719D01*
X150558212Y-88495000D01*
X150562281Y-88492281D01*
X150756116Y-88202188D01*
X150824181Y-87860000D01*
X150756116Y-87517812D01*
X150562281Y-87227719D01*
X150558212Y-87225000D01*
X150562281Y-87222281D01*
X150565000Y-87218212D01*
X150567719Y-87222281D01*
X150857812Y-87416116D01*
X151113625Y-87467000D01*
X151286375Y-87467000D01*
X151542188Y-87416116D01*
X151678049Y-87325336D01*
X178863000Y-87325336D01*
X178863000Y-87594664D01*
X178966067Y-87843490D01*
X179156510Y-88033933D01*
X179405336Y-88137000D01*
X179674664Y-88137000D01*
X179795375Y-88087000D01*
X186194625Y-88087000D01*
X186315336Y-88137000D01*
X186584664Y-88137000D01*
X186833490Y-88033933D01*
X187023933Y-87843490D01*
X187127000Y-87594664D01*
X187127000Y-87325336D01*
X187023933Y-87076510D01*
X186833490Y-86886067D01*
X186584664Y-86783000D01*
X186315336Y-86783000D01*
X186194625Y-86833000D01*
X179795375Y-86833000D01*
X179674664Y-86783000D01*
X179405336Y-86783000D01*
X179156510Y-86886067D01*
X178966067Y-87076510D01*
X178863000Y-87325336D01*
X151678049Y-87325336D01*
X151832281Y-87222281D01*
X152026116Y-86932188D01*
X152094181Y-86590000D01*
X152026116Y-86247812D01*
X151832281Y-85957719D01*
X151828212Y-85955000D01*
X151832281Y-85952281D01*
X152026116Y-85662188D01*
X152094181Y-85320000D01*
X152026116Y-84977812D01*
X151832281Y-84687719D01*
X151542188Y-84493884D01*
X151286375Y-84443000D01*
X151113625Y-84443000D01*
X150857812Y-84493884D01*
X150567719Y-84687719D01*
X150565000Y-84691788D01*
X150562281Y-84687719D01*
X150272188Y-84493884D01*
X150016375Y-84443000D01*
X149843625Y-84443000D01*
X149587812Y-84493884D01*
X149516036Y-84541843D01*
X149577000Y-84394664D01*
X149577000Y-84125336D01*
X149473933Y-83876510D01*
X149283490Y-83686067D01*
X149034664Y-83583000D01*
X148765336Y-83583000D01*
X148516510Y-83686067D01*
X148455000Y-83747577D01*
X148373490Y-83666067D01*
X148124664Y-83563000D01*
X147855336Y-83563000D01*
X147606510Y-83666067D01*
X147416067Y-83856510D01*
X147313000Y-84105336D01*
X147313000Y-84275442D01*
X147300677Y-84293885D01*
X147273000Y-84433026D01*
X147273000Y-84433029D01*
X147263657Y-84480000D01*
X147273000Y-84526971D01*
X147273001Y-85549576D01*
X147156067Y-85666510D01*
X147053000Y-85915336D01*
X144423508Y-85915336D01*
X144428709Y-85910135D01*
X144547000Y-85624555D01*
X144547000Y-85315445D01*
X144428709Y-85029865D01*
X144397000Y-84998156D01*
X144397000Y-83591744D01*
X144409282Y-83529999D01*
X144397000Y-83468254D01*
X144397000Y-83468250D01*
X144360620Y-83285357D01*
X144222041Y-83077959D01*
X144169693Y-83042981D01*
X143260639Y-82133928D01*
X143485336Y-82227000D01*
X143754664Y-82227000D01*
X144003490Y-82123933D01*
X144193933Y-81933490D01*
X144297000Y-81684664D01*
X144297000Y-81415336D01*
X144193933Y-81166510D01*
X144003490Y-80976067D01*
X143754664Y-80873000D01*
X143485336Y-80873000D01*
X143236510Y-80976067D01*
X143046067Y-81166510D01*
X142943000Y-81415336D01*
X142943000Y-81684664D01*
X143036073Y-81909361D01*
X142907000Y-81780289D01*
X142907000Y-81735445D01*
X142788709Y-81449865D01*
X142570135Y-81231291D01*
X142284555Y-81113000D01*
X141975445Y-81113000D01*
X141689865Y-81231291D01*
X141471291Y-81449865D01*
X141353000Y-81735445D01*
X141353000Y-82044555D01*
X141471291Y-82330135D01*
X141689865Y-82548709D01*
X141975445Y-82667000D01*
X142020289Y-82667000D01*
X143143001Y-83789713D01*
X143143000Y-84998156D01*
X143111291Y-85029865D01*
X143061915Y-85149069D01*
X142951363Y-84784056D01*
X142943000Y-84764822D01*
X142937081Y-84744712D01*
X142915622Y-84701858D01*
X142566636Y-84101034D01*
X142554074Y-84084243D01*
X142543686Y-84066030D01*
X142512944Y-84029263D01*
X142035099Y-83524839D01*
X142019014Y-83511390D01*
X142004713Y-83496054D01*
X141966337Y-83467345D01*
X141385265Y-83086376D01*
X141366512Y-83076985D01*
X141349070Y-83065353D01*
X141305120Y-83046243D01*
X140651991Y-82809169D01*
X140631587Y-82804346D01*
X140611932Y-82797036D01*
X140564763Y-82788549D01*
X139890046Y-82709885D01*
X139867910Y-82705482D01*
X107798441Y-82705482D01*
X106705684Y-82562053D01*
X105645222Y-82268409D01*
X104635957Y-81830038D01*
X103697518Y-81255468D01*
X102848184Y-80555889D01*
X102104472Y-79744910D01*
X101480866Y-78838318D01*
X100989502Y-77853762D01*
X100639944Y-76810401D01*
X100438537Y-75726079D01*
X100387000Y-74821611D01*
X100387000Y-56545001D01*
X101950821Y-56545001D01*
X101968002Y-56631376D01*
X101968001Y-74090631D01*
X101950821Y-74177001D01*
X101968001Y-74263371D01*
X101968001Y-74263375D01*
X102018885Y-74519188D01*
X102212720Y-74809282D01*
X102285947Y-74858211D01*
X104968944Y-77541209D01*
X105185811Y-77686115D01*
X105394744Y-77727674D01*
X105422875Y-77869098D01*
X105506199Y-77993801D01*
X105630902Y-78077125D01*
X105778000Y-78106385D01*
X107502000Y-78106385D01*
X107649098Y-78077125D01*
X107773801Y-77993801D01*
X107857125Y-77869098D01*
X107886385Y-77722000D01*
X107886385Y-76603602D01*
X107891000Y-76603602D01*
X107891000Y-77116398D01*
X108087239Y-77590160D01*
X108449840Y-77952761D01*
X108923602Y-78149000D01*
X109436398Y-78149000D01*
X109787419Y-78003602D01*
X118321000Y-78003602D01*
X118321000Y-78516398D01*
X118517239Y-78990160D01*
X118879840Y-79352761D01*
X119353602Y-79549000D01*
X119866398Y-79549000D01*
X120340160Y-79352761D01*
X120702761Y-78990160D01*
X120899000Y-78516398D01*
X120899000Y-78003602D01*
X120702761Y-77529840D01*
X120570921Y-77398000D01*
X120903615Y-77398000D01*
X120903615Y-79122000D01*
X120932875Y-79269098D01*
X121016199Y-79393801D01*
X121140902Y-79477125D01*
X121288000Y-79506385D01*
X123012000Y-79506385D01*
X123159098Y-79477125D01*
X123283801Y-79393801D01*
X123367125Y-79269098D01*
X123396385Y-79122000D01*
X123396385Y-77398000D01*
X123367125Y-77250902D01*
X123283801Y-77126199D01*
X123159098Y-77042875D01*
X123012000Y-77013615D01*
X121288000Y-77013615D01*
X121140902Y-77042875D01*
X121016199Y-77126199D01*
X120932875Y-77250902D01*
X120903615Y-77398000D01*
X120570921Y-77398000D01*
X120340160Y-77167239D01*
X119866398Y-76971000D01*
X119353602Y-76971000D01*
X118879840Y-77167239D01*
X118517239Y-77529840D01*
X118321000Y-78003602D01*
X109787419Y-78003602D01*
X109910160Y-77952761D01*
X110272761Y-77590160D01*
X110469000Y-77116398D01*
X110469000Y-76695445D01*
X133173000Y-76695445D01*
X133173000Y-77004555D01*
X133291291Y-77290135D01*
X133509865Y-77508709D01*
X133795445Y-77627000D01*
X133818123Y-77627000D01*
X135403000Y-79322038D01*
X135403000Y-79594555D01*
X135521291Y-79880135D01*
X135739865Y-80098709D01*
X136025445Y-80217000D01*
X136334555Y-80217000D01*
X136620135Y-80098709D01*
X136838709Y-79880135D01*
X136957000Y-79594555D01*
X136957000Y-79285445D01*
X136838709Y-78999865D01*
X136620135Y-78781291D01*
X136610382Y-78777251D01*
X134727000Y-76762963D01*
X134727000Y-76695445D01*
X134608709Y-76409865D01*
X134390135Y-76191291D01*
X134104555Y-76073000D01*
X133795445Y-76073000D01*
X133509865Y-76191291D01*
X133291291Y-76409865D01*
X133173000Y-76695445D01*
X110469000Y-76695445D01*
X110469000Y-76603602D01*
X110272761Y-76129840D01*
X109910160Y-75767239D01*
X109436398Y-75571000D01*
X108923602Y-75571000D01*
X108449840Y-75767239D01*
X108087239Y-76129840D01*
X107891000Y-76603602D01*
X107886385Y-76603602D01*
X107886385Y-75998000D01*
X107857125Y-75850902D01*
X107773801Y-75726199D01*
X107649098Y-75642875D01*
X107502000Y-75613615D01*
X105778000Y-75613615D01*
X105630902Y-75642875D01*
X105583088Y-75674823D01*
X104168710Y-74260445D01*
X119963000Y-74260445D01*
X119963000Y-74569555D01*
X120081291Y-74855135D01*
X120166156Y-74940000D01*
X120081291Y-75024865D01*
X119963000Y-75310445D01*
X119963000Y-75619555D01*
X120081291Y-75905135D01*
X120299865Y-76123709D01*
X120585445Y-76242000D01*
X120894555Y-76242000D01*
X121180135Y-76123709D01*
X121361844Y-75942000D01*
X130628029Y-75942000D01*
X130675000Y-75951343D01*
X130721971Y-75942000D01*
X130721975Y-75942000D01*
X130861116Y-75914323D01*
X131018897Y-75808897D01*
X131045508Y-75769071D01*
X132269243Y-74545336D01*
X145803000Y-74545336D01*
X145803000Y-74814664D01*
X145906067Y-75063490D01*
X146096510Y-75253933D01*
X146345336Y-75357000D01*
X146482421Y-75357000D01*
X147028421Y-75903000D01*
X146835336Y-75903000D01*
X146586510Y-76006067D01*
X146396067Y-76196510D01*
X146293000Y-76445336D01*
X146293000Y-76714664D01*
X146396067Y-76963490D01*
X146586510Y-77153933D01*
X146835336Y-77257000D01*
X147104664Y-77257000D01*
X147353490Y-77153933D01*
X147480423Y-77027000D01*
X150939577Y-77027000D01*
X151036510Y-77123933D01*
X151285336Y-77227000D01*
X151342542Y-77227000D01*
X151296510Y-77246067D01*
X151106067Y-77436510D01*
X151003000Y-77685336D01*
X151003000Y-77954664D01*
X151095569Y-78178146D01*
X150953490Y-78036067D01*
X150704664Y-77933000D01*
X150435336Y-77933000D01*
X150186510Y-78036067D01*
X149996067Y-78226510D01*
X149893000Y-78475336D01*
X149893000Y-78744664D01*
X149987580Y-78973001D01*
X149757000Y-78742421D01*
X149757000Y-78605336D01*
X149653933Y-78356510D01*
X149463490Y-78166067D01*
X149214664Y-78063000D01*
X148945336Y-78063000D01*
X148696510Y-78166067D01*
X148506067Y-78356510D01*
X148403000Y-78605336D01*
X148403000Y-78874664D01*
X148506067Y-79123490D01*
X148696510Y-79313933D01*
X148945336Y-79417000D01*
X149082421Y-79417000D01*
X152629495Y-82964075D01*
X152656104Y-83003898D01*
X152695927Y-83030507D01*
X152813885Y-83109324D01*
X153000001Y-83146345D01*
X153046976Y-83137001D01*
X154523028Y-83137001D01*
X154569999Y-83146344D01*
X154616970Y-83137001D01*
X154616974Y-83137001D01*
X154756115Y-83109324D01*
X154913896Y-83003898D01*
X154940506Y-82964073D01*
X155047579Y-82857000D01*
X155184664Y-82857000D01*
X155433490Y-82753933D01*
X155472087Y-82715336D01*
X192103000Y-82715336D01*
X192103000Y-82984664D01*
X192206067Y-83233490D01*
X192396510Y-83423933D01*
X192645336Y-83527000D01*
X192914664Y-83527000D01*
X193163490Y-83423933D01*
X193353933Y-83233490D01*
X193457000Y-82984664D01*
X193457000Y-82715336D01*
X193407000Y-82594625D01*
X193407000Y-78833602D01*
X198531000Y-78833602D01*
X198531000Y-79346398D01*
X198727239Y-79820160D01*
X199089840Y-80182761D01*
X199517732Y-80360000D01*
X199089840Y-80537239D01*
X198727239Y-80899840D01*
X198531000Y-81373602D01*
X198531000Y-81886398D01*
X198727239Y-82360160D01*
X199089840Y-82722761D01*
X199517732Y-82900000D01*
X199089840Y-83077239D01*
X198727239Y-83439840D01*
X198531000Y-83913602D01*
X198531000Y-84426398D01*
X198727239Y-84900160D01*
X199089840Y-85262761D01*
X199563602Y-85459000D01*
X200076398Y-85459000D01*
X200550160Y-85262761D01*
X200912761Y-84900160D01*
X201109000Y-84426398D01*
X201109000Y-83913602D01*
X200912761Y-83439840D01*
X200550160Y-83077239D01*
X200122268Y-82900000D01*
X200550160Y-82722761D01*
X200912761Y-82360160D01*
X201109000Y-81886398D01*
X201109000Y-81373602D01*
X200912761Y-80899840D01*
X200550160Y-80537239D01*
X200122268Y-80360000D01*
X200550160Y-80182761D01*
X200912761Y-79820160D01*
X201109000Y-79346398D01*
X201109000Y-78833602D01*
X200912761Y-78359840D01*
X200550160Y-77997239D01*
X200076398Y-77801000D01*
X199563602Y-77801000D01*
X199089840Y-77997239D01*
X198727239Y-78359840D01*
X198531000Y-78833602D01*
X193407000Y-78833602D01*
X193407000Y-78259711D01*
X193561565Y-78105147D01*
X193733490Y-78033933D01*
X193923933Y-77843490D01*
X194027000Y-77594664D01*
X194027000Y-77325336D01*
X193923933Y-77076510D01*
X193733490Y-76886067D01*
X193484664Y-76783000D01*
X193215336Y-76783000D01*
X192966510Y-76886067D01*
X192776067Y-77076510D01*
X192747280Y-77146008D01*
X192380307Y-77512982D01*
X192327960Y-77547959D01*
X192292982Y-77600307D01*
X192292981Y-77600308D01*
X192189380Y-77755358D01*
X192140718Y-78000000D01*
X192153001Y-78061751D01*
X192153000Y-82594625D01*
X192103000Y-82715336D01*
X155472087Y-82715336D01*
X155623933Y-82563490D01*
X155727000Y-82314664D01*
X155727000Y-82045336D01*
X155623933Y-81796510D01*
X155433490Y-81606067D01*
X155184664Y-81503000D01*
X154915336Y-81503000D01*
X154666510Y-81606067D01*
X154545061Y-81727516D01*
X154523933Y-81676510D01*
X154334702Y-81487279D01*
X154463490Y-81433933D01*
X154653933Y-81243490D01*
X154757000Y-80994664D01*
X154757000Y-80725336D01*
X154653933Y-80476510D01*
X154463490Y-80286067D01*
X154285204Y-80212219D01*
X154403933Y-80093490D01*
X154507000Y-79844664D01*
X154507000Y-79575336D01*
X154403933Y-79326510D01*
X154213490Y-79136067D01*
X153964664Y-79033000D01*
X153827580Y-79033000D01*
X153649916Y-78855336D01*
X154973000Y-78855336D01*
X154973000Y-79124664D01*
X155076067Y-79373490D01*
X155266510Y-79563933D01*
X155515336Y-79667000D01*
X155652420Y-79667000D01*
X155939493Y-79954073D01*
X155966103Y-79993897D01*
X156123884Y-80099323D01*
X156263025Y-80127000D01*
X156263029Y-80127000D01*
X156310000Y-80136343D01*
X156356971Y-80127000D01*
X160662752Y-80127000D01*
X160713025Y-80137000D01*
X160713028Y-80137000D01*
X160759999Y-80146343D01*
X160806970Y-80137000D01*
X161119577Y-80137000D01*
X161216510Y-80233933D01*
X161465336Y-80337000D01*
X161734664Y-80337000D01*
X161983490Y-80233933D01*
X162093984Y-80123439D01*
X162911000Y-80123439D01*
X162911000Y-80576561D01*
X163084403Y-80995191D01*
X163404809Y-81315597D01*
X163823439Y-81489000D01*
X164276561Y-81489000D01*
X164695191Y-81315597D01*
X165015597Y-80995191D01*
X165189000Y-80576561D01*
X165189000Y-80123439D01*
X165451000Y-80123439D01*
X165451000Y-80576561D01*
X165624403Y-80995191D01*
X165944809Y-81315597D01*
X166363439Y-81489000D01*
X166816561Y-81489000D01*
X167235191Y-81315597D01*
X167555597Y-80995191D01*
X167729000Y-80576561D01*
X167729000Y-80123439D01*
X167991000Y-80123439D01*
X167991000Y-80576561D01*
X168164403Y-80995191D01*
X168484809Y-81315597D01*
X168903439Y-81489000D01*
X169356561Y-81489000D01*
X169775191Y-81315597D01*
X170095597Y-80995191D01*
X170269000Y-80576561D01*
X170269000Y-80123439D01*
X170531000Y-80123439D01*
X170531000Y-80576561D01*
X170704403Y-80995191D01*
X171024809Y-81315597D01*
X171443439Y-81489000D01*
X171896561Y-81489000D01*
X172315191Y-81315597D01*
X172635597Y-80995191D01*
X172809000Y-80576561D01*
X172809000Y-80123439D01*
X172635597Y-79704809D01*
X172315191Y-79384403D01*
X171896561Y-79211000D01*
X171443439Y-79211000D01*
X171024809Y-79384403D01*
X170704403Y-79704809D01*
X170531000Y-80123439D01*
X170269000Y-80123439D01*
X170095597Y-79704809D01*
X169775191Y-79384403D01*
X169356561Y-79211000D01*
X168903439Y-79211000D01*
X168484809Y-79384403D01*
X168164403Y-79704809D01*
X167991000Y-80123439D01*
X167729000Y-80123439D01*
X167555597Y-79704809D01*
X167235191Y-79384403D01*
X166816561Y-79211000D01*
X166363439Y-79211000D01*
X165944809Y-79384403D01*
X165624403Y-79704809D01*
X165451000Y-80123439D01*
X165189000Y-80123439D01*
X165015597Y-79704809D01*
X164695191Y-79384403D01*
X164276561Y-79211000D01*
X163823439Y-79211000D01*
X163404809Y-79384403D01*
X163084403Y-79704809D01*
X162911000Y-80123439D01*
X162093984Y-80123439D01*
X162173933Y-80043490D01*
X162277000Y-79794664D01*
X162277000Y-79525336D01*
X162173933Y-79276510D01*
X161983490Y-79086067D01*
X161734664Y-78983000D01*
X161610410Y-78983000D01*
X161647000Y-78894664D01*
X161647000Y-78625336D01*
X161543933Y-78376510D01*
X161353490Y-78186067D01*
X161104664Y-78083000D01*
X160835336Y-78083000D01*
X160586510Y-78186067D01*
X160396067Y-78376510D01*
X160342513Y-78505801D01*
X157048131Y-78505801D01*
X156962601Y-78299312D01*
X156772158Y-78108869D01*
X156523332Y-78005802D01*
X156254004Y-78005802D01*
X156005178Y-78108869D01*
X155814735Y-78299312D01*
X155805492Y-78321627D01*
X155784664Y-78313000D01*
X155515336Y-78313000D01*
X155266510Y-78416067D01*
X155076067Y-78606510D01*
X154973000Y-78855336D01*
X153649916Y-78855336D01*
X153237000Y-78442421D01*
X153237000Y-78230423D01*
X153333933Y-78133490D01*
X153437000Y-77884664D01*
X153437000Y-77615336D01*
X153333933Y-77366510D01*
X153143490Y-77176067D01*
X152894664Y-77073000D01*
X152625336Y-77073000D01*
X152376510Y-77176067D01*
X152186067Y-77366510D01*
X152185442Y-77368019D01*
X152063490Y-77246067D01*
X151814664Y-77143000D01*
X151757458Y-77143000D01*
X151803490Y-77123933D01*
X151993933Y-76933490D01*
X152097000Y-76684664D01*
X152097000Y-76415336D01*
X151993933Y-76166510D01*
X151910768Y-76083345D01*
X151933490Y-76073933D01*
X152123933Y-75883490D01*
X152227000Y-75634664D01*
X152227000Y-75365336D01*
X152137263Y-75148690D01*
X152268198Y-75017755D01*
X152371265Y-74768929D01*
X152371265Y-74499601D01*
X152268198Y-74250775D01*
X152162596Y-74145173D01*
X153753000Y-74145173D01*
X153753000Y-74354827D01*
X153833231Y-74548522D01*
X153981478Y-74696769D01*
X154109989Y-74750000D01*
X153981478Y-74803231D01*
X153833231Y-74951478D01*
X153753000Y-75145173D01*
X153753000Y-75354827D01*
X153833231Y-75548522D01*
X153981478Y-75696769D01*
X154109989Y-75750000D01*
X153981478Y-75803231D01*
X153833231Y-75951478D01*
X153753000Y-76145173D01*
X153753000Y-76354827D01*
X153833231Y-76548522D01*
X153981478Y-76696769D01*
X154175173Y-76777000D01*
X154384827Y-76777000D01*
X154578522Y-76696769D01*
X154726769Y-76548522D01*
X154780000Y-76420011D01*
X154833231Y-76548522D01*
X154981478Y-76696769D01*
X155175173Y-76777000D01*
X155384827Y-76777000D01*
X155578522Y-76696769D01*
X155726769Y-76548522D01*
X155780000Y-76420011D01*
X155833231Y-76548522D01*
X155981478Y-76696769D01*
X156175173Y-76777000D01*
X156384827Y-76777000D01*
X156578522Y-76696769D01*
X156726769Y-76548522D01*
X156807000Y-76354827D01*
X156807000Y-76145173D01*
X156726769Y-75951478D01*
X156578522Y-75803231D01*
X156450011Y-75750000D01*
X156578522Y-75696769D01*
X156726769Y-75548522D01*
X156807000Y-75354827D01*
X156807000Y-75145173D01*
X156726769Y-74951478D01*
X156578522Y-74803231D01*
X156450011Y-74750000D01*
X156578522Y-74696769D01*
X156726769Y-74548522D01*
X156807000Y-74354827D01*
X156807000Y-74145173D01*
X156726769Y-73951478D01*
X156578522Y-73803231D01*
X156384827Y-73723000D01*
X156175173Y-73723000D01*
X155981478Y-73803231D01*
X155833231Y-73951478D01*
X155780000Y-74079989D01*
X155726769Y-73951478D01*
X155578522Y-73803231D01*
X155384827Y-73723000D01*
X155175173Y-73723000D01*
X154981478Y-73803231D01*
X154833231Y-73951478D01*
X154780000Y-74079989D01*
X154726769Y-73951478D01*
X154578522Y-73803231D01*
X154384827Y-73723000D01*
X154175173Y-73723000D01*
X153981478Y-73803231D01*
X153833231Y-73951478D01*
X153753000Y-74145173D01*
X152162596Y-74145173D01*
X152077755Y-74060332D01*
X151828929Y-73957265D01*
X151691845Y-73957265D01*
X149679969Y-71945390D01*
X149709487Y-71939518D01*
X155036931Y-71939518D01*
X155133864Y-72036451D01*
X155382690Y-72139518D01*
X155398137Y-72139518D01*
X155244655Y-72293000D01*
X152770423Y-72293000D01*
X152673490Y-72196067D01*
X152424664Y-72093000D01*
X152155336Y-72093000D01*
X151906510Y-72196067D01*
X151716067Y-72386510D01*
X151613000Y-72635336D01*
X151613000Y-72904664D01*
X151716067Y-73153490D01*
X151906510Y-73343933D01*
X152155336Y-73447000D01*
X152424664Y-73447000D01*
X152673490Y-73343933D01*
X152770423Y-73247000D01*
X155395263Y-73247000D01*
X155442234Y-73256343D01*
X155489205Y-73247000D01*
X155489209Y-73247000D01*
X155628350Y-73219323D01*
X155786131Y-73113897D01*
X155812742Y-73074071D01*
X156664854Y-72221960D01*
X156704676Y-72195352D01*
X156735648Y-72149000D01*
X156810102Y-72037571D01*
X156813218Y-72021906D01*
X157026105Y-72110087D01*
X157048031Y-72110087D01*
X157048031Y-72134873D01*
X157151098Y-72383699D01*
X157341541Y-72574142D01*
X157590367Y-72677209D01*
X157852053Y-72677209D01*
X157915761Y-72831013D01*
X158106204Y-73021456D01*
X158287716Y-73096641D01*
X158287716Y-73225905D01*
X158390783Y-73474731D01*
X158488713Y-73572661D01*
X158416875Y-73746094D01*
X158416875Y-74015422D01*
X158519942Y-74264248D01*
X158561673Y-74305979D01*
X158462755Y-74544790D01*
X158462755Y-74814118D01*
X158565822Y-75062944D01*
X158588029Y-75085151D01*
X158577286Y-75095894D01*
X158474219Y-75344720D01*
X158474219Y-75614048D01*
X158538325Y-75768813D01*
X158425720Y-75881418D01*
X158322653Y-76130244D01*
X158322653Y-76399572D01*
X158425720Y-76648398D01*
X158616163Y-76838841D01*
X158864989Y-76941908D01*
X159013897Y-76941908D01*
X159096222Y-76996916D01*
X159235363Y-77024593D01*
X159235367Y-77024593D01*
X159282338Y-77033936D01*
X159329309Y-77024593D01*
X163435435Y-77024593D01*
X163482406Y-77033936D01*
X163529377Y-77024593D01*
X163529381Y-77024593D01*
X163668522Y-76996916D01*
X163680993Y-76988583D01*
X163720001Y-76996342D01*
X163766972Y-76986999D01*
X163766976Y-76986999D01*
X163906117Y-76959322D01*
X164063898Y-76853896D01*
X164090509Y-76814070D01*
X164367579Y-76537000D01*
X164504664Y-76537000D01*
X164753490Y-76433933D01*
X164943933Y-76243490D01*
X165047000Y-75994664D01*
X165047000Y-75725336D01*
X164943933Y-75476510D01*
X164753490Y-75286067D01*
X164504664Y-75183000D01*
X164235336Y-75183000D01*
X163986510Y-75286067D01*
X163796067Y-75476510D01*
X163693000Y-75725336D01*
X163693000Y-75862421D01*
X163529813Y-76025608D01*
X163520000Y-76023656D01*
X163473029Y-76032999D01*
X163473025Y-76032999D01*
X163333884Y-76060676D01*
X163319042Y-76070593D01*
X161991989Y-76070593D01*
X162084074Y-75978508D01*
X162123897Y-75951899D01*
X162169607Y-75883490D01*
X162229323Y-75794118D01*
X162234255Y-75769323D01*
X162257000Y-75654977D01*
X162257000Y-75654974D01*
X162266343Y-75608003D01*
X162257000Y-75561032D01*
X162257000Y-72125337D01*
X170593000Y-72125337D01*
X170593000Y-72394665D01*
X170696067Y-72643491D01*
X170886510Y-72833934D01*
X171135336Y-72937001D01*
X171404664Y-72937001D01*
X171653490Y-72833934D01*
X171843933Y-72643491D01*
X171947000Y-72394665D01*
X171947000Y-72167579D01*
X172377580Y-71737000D01*
X172514664Y-71737000D01*
X172763490Y-71633933D01*
X172953933Y-71443490D01*
X173057000Y-71194664D01*
X173057000Y-70925336D01*
X172953933Y-70676510D01*
X172763490Y-70486067D01*
X172514664Y-70383000D01*
X172245336Y-70383000D01*
X171996510Y-70486067D01*
X171806067Y-70676510D01*
X171703000Y-70925336D01*
X171703000Y-71062420D01*
X171182420Y-71583001D01*
X171135336Y-71583001D01*
X170886510Y-71686068D01*
X170696067Y-71876511D01*
X170593000Y-72125337D01*
X162257000Y-72125337D01*
X162257000Y-71446975D01*
X162266344Y-71400000D01*
X162229323Y-71213884D01*
X162150506Y-71095926D01*
X162123897Y-71056103D01*
X162117000Y-71051495D01*
X162117000Y-70925336D01*
X162063842Y-70797000D01*
X165942421Y-70797000D01*
X166433000Y-71287580D01*
X166433000Y-71424664D01*
X166536067Y-71673490D01*
X166726510Y-71863933D01*
X166975336Y-71967000D01*
X167244664Y-71967000D01*
X167493490Y-71863933D01*
X167683933Y-71673490D01*
X167787000Y-71424664D01*
X167787000Y-71155336D01*
X167683933Y-70906510D01*
X167493490Y-70716067D01*
X167244664Y-70613000D01*
X167107580Y-70613000D01*
X166539916Y-70045336D01*
X195583000Y-70045336D01*
X195583000Y-70314664D01*
X195686067Y-70563490D01*
X195876510Y-70753933D01*
X196125336Y-70857000D01*
X196394664Y-70857000D01*
X196643490Y-70753933D01*
X196740423Y-70657000D01*
X198133029Y-70657000D01*
X198180000Y-70666343D01*
X198226971Y-70657000D01*
X198226975Y-70657000D01*
X198366116Y-70629323D01*
X198523897Y-70523897D01*
X198550508Y-70484071D01*
X199530442Y-69504138D01*
X199737732Y-69590000D01*
X199309840Y-69767239D01*
X198947239Y-70129840D01*
X198751000Y-70603602D01*
X198751000Y-71116398D01*
X198947239Y-71590160D01*
X199309840Y-71952761D01*
X199783602Y-72149000D01*
X200296398Y-72149000D01*
X200770160Y-71952761D01*
X201132761Y-71590160D01*
X201329000Y-71116398D01*
X201329000Y-70603602D01*
X201132761Y-70129840D01*
X200770160Y-69767239D01*
X200342268Y-69590000D01*
X200770160Y-69412761D01*
X201132761Y-69050160D01*
X201329000Y-68576398D01*
X201329000Y-68063602D01*
X201132761Y-67589840D01*
X200770160Y-67227239D01*
X200296398Y-67031000D01*
X199783602Y-67031000D01*
X199309840Y-67227239D01*
X198947239Y-67589840D01*
X198751000Y-68063602D01*
X198751000Y-68576398D01*
X198855862Y-68829558D01*
X197982421Y-69703000D01*
X196740423Y-69703000D01*
X196643490Y-69606067D01*
X196394664Y-69503000D01*
X196125336Y-69503000D01*
X195876510Y-69606067D01*
X195686067Y-69796510D01*
X195583000Y-70045336D01*
X166539916Y-70045336D01*
X166510508Y-70015929D01*
X166483897Y-69976103D01*
X166326116Y-69870677D01*
X166186975Y-69843000D01*
X166186971Y-69843000D01*
X166140000Y-69833657D01*
X166093029Y-69843000D01*
X159816969Y-69843000D01*
X159769999Y-69833657D01*
X159723029Y-69843000D01*
X159723025Y-69843000D01*
X159583884Y-69870677D01*
X159426103Y-69976103D01*
X159399494Y-70015926D01*
X158024109Y-71391312D01*
X157859695Y-71323209D01*
X157837769Y-71323209D01*
X157837769Y-71298423D01*
X157734702Y-71049597D01*
X157637769Y-70952664D01*
X157637769Y-70262003D01*
X157647112Y-70215032D01*
X157637769Y-70168059D01*
X157637769Y-70168058D01*
X157610092Y-70028917D01*
X157504666Y-69871136D01*
X157464843Y-69844528D01*
X157251469Y-69631154D01*
X157337000Y-69424664D01*
X157337000Y-69155336D01*
X157233933Y-68906510D01*
X157043490Y-68716067D01*
X156794664Y-68613000D01*
X156525336Y-68613000D01*
X156276510Y-68716067D01*
X156086067Y-68906510D01*
X155983000Y-69155336D01*
X155983000Y-69424664D01*
X156086067Y-69673490D01*
X156185281Y-69772704D01*
X156186350Y-69778079D01*
X156210677Y-69900379D01*
X156282005Y-70007128D01*
X156316104Y-70058161D01*
X156355926Y-70084769D01*
X156683769Y-70412613D01*
X156683770Y-70828198D01*
X156495443Y-70750191D01*
X156226115Y-70750191D01*
X155977289Y-70853258D01*
X155921403Y-70909144D01*
X155900844Y-70888585D01*
X155652018Y-70785518D01*
X155382690Y-70785518D01*
X155133864Y-70888585D01*
X155036931Y-70985518D01*
X149860097Y-70985518D01*
X148847000Y-69972421D01*
X148847000Y-69247748D01*
X149073490Y-69153933D01*
X149263933Y-68963490D01*
X149367000Y-68714664D01*
X149367000Y-68445336D01*
X149263933Y-68196510D01*
X149073490Y-68006067D01*
X148824664Y-67903000D01*
X148555336Y-67903000D01*
X148306510Y-68006067D01*
X148262020Y-68050557D01*
X148216646Y-67941015D01*
X147998072Y-67722441D01*
X147712492Y-67604150D01*
X147403382Y-67604150D01*
X147117802Y-67722441D01*
X146899228Y-67941015D01*
X146780937Y-68226595D01*
X146780937Y-68535705D01*
X146899228Y-68821285D01*
X147072001Y-68994058D01*
X147072000Y-69957156D01*
X146915291Y-70113865D01*
X146797000Y-70399445D01*
X146797000Y-70708555D01*
X146915291Y-70994135D01*
X147133865Y-71212709D01*
X147419445Y-71331000D01*
X147716421Y-71331000D01*
X151017265Y-74631845D01*
X151017265Y-74768929D01*
X151107002Y-74985575D01*
X150976067Y-75116510D01*
X150873000Y-75365336D01*
X150873000Y-75413000D01*
X147887579Y-75413000D01*
X147157000Y-74682421D01*
X147157000Y-74545336D01*
X147053933Y-74296510D01*
X146863490Y-74106067D01*
X146614664Y-74003000D01*
X146345336Y-74003000D01*
X146096510Y-74106067D01*
X145906067Y-74296510D01*
X145803000Y-74545336D01*
X132269243Y-74545336D01*
X132417580Y-74397000D01*
X132674555Y-74397000D01*
X132960135Y-74278709D01*
X133178709Y-74060135D01*
X133297000Y-73774555D01*
X133297000Y-73465445D01*
X133178709Y-73179865D01*
X132973844Y-72975000D01*
X133138709Y-72810135D01*
X133257000Y-72524555D01*
X133257000Y-72215445D01*
X133138709Y-71929865D01*
X132920135Y-71711291D01*
X132634555Y-71593000D01*
X132325445Y-71593000D01*
X132039865Y-71711291D01*
X131821291Y-71929865D01*
X131815981Y-71942685D01*
X131706103Y-72016103D01*
X131679494Y-72055926D01*
X129797421Y-73938000D01*
X121361844Y-73938000D01*
X121180135Y-73756291D01*
X120894555Y-73638000D01*
X120585445Y-73638000D01*
X120299865Y-73756291D01*
X120081291Y-73974865D01*
X119963000Y-74260445D01*
X104168710Y-74260445D01*
X103722001Y-73813737D01*
X103722001Y-68905499D01*
X105163000Y-68905499D01*
X105163000Y-69234501D01*
X105288903Y-69538458D01*
X105521542Y-69771097D01*
X105825499Y-69897000D01*
X106154501Y-69897000D01*
X106458458Y-69771097D01*
X106691097Y-69538458D01*
X106817000Y-69234501D01*
X106817000Y-68905499D01*
X106691097Y-68601542D01*
X106458458Y-68368903D01*
X106154501Y-68243000D01*
X105825499Y-68243000D01*
X105521542Y-68368903D01*
X105288903Y-68601542D01*
X105163000Y-68905499D01*
X103722001Y-68905499D01*
X103722001Y-64505499D01*
X105163000Y-64505499D01*
X105163000Y-64834501D01*
X105288903Y-65138458D01*
X105521542Y-65371097D01*
X105825499Y-65497000D01*
X106154501Y-65497000D01*
X106458458Y-65371097D01*
X106691097Y-65138458D01*
X106817000Y-64834501D01*
X106817000Y-64505499D01*
X106691097Y-64201542D01*
X106458458Y-63968903D01*
X106154501Y-63843000D01*
X105825499Y-63843000D01*
X105521542Y-63968903D01*
X105288903Y-64201542D01*
X105163000Y-64505499D01*
X103722001Y-64505499D01*
X103722001Y-56908266D01*
X104033267Y-56597000D01*
X104100931Y-56597000D01*
X104114875Y-56667098D01*
X104198199Y-56791801D01*
X104322902Y-56875125D01*
X104470000Y-56904385D01*
X106070000Y-56904385D01*
X106217098Y-56875125D01*
X106341801Y-56791801D01*
X106425125Y-56667098D01*
X106454385Y-56520000D01*
X106454385Y-54930000D01*
X112245615Y-54930000D01*
X112245615Y-56530000D01*
X112274875Y-56677098D01*
X112358199Y-56801801D01*
X112482902Y-56885125D01*
X112630000Y-56914385D01*
X114230000Y-56914385D01*
X114377098Y-56885125D01*
X114501801Y-56801801D01*
X114585125Y-56677098D01*
X114614385Y-56530000D01*
X114614385Y-54930000D01*
X114585125Y-54782902D01*
X114501801Y-54658199D01*
X114377098Y-54574875D01*
X114230000Y-54545615D01*
X112630000Y-54545615D01*
X112482902Y-54574875D01*
X112358199Y-54658199D01*
X112274875Y-54782902D01*
X112245615Y-54930000D01*
X106454385Y-54930000D01*
X106454385Y-54920000D01*
X106425125Y-54772902D01*
X106341801Y-54648199D01*
X106217098Y-54564875D01*
X106070000Y-54535615D01*
X104470000Y-54535615D01*
X104322902Y-54564875D01*
X104198199Y-54648199D01*
X104114875Y-54772902D01*
X104100931Y-54843000D01*
X103756372Y-54843000D01*
X103670002Y-54825820D01*
X103583632Y-54843000D01*
X103583627Y-54843000D01*
X103327814Y-54893884D01*
X103327812Y-54893885D01*
X103327813Y-54893885D01*
X103110945Y-55038791D01*
X103110942Y-55038794D01*
X103037721Y-55087719D01*
X102988796Y-55160941D01*
X102285944Y-55863794D01*
X102212721Y-55912720D01*
X102163794Y-55985944D01*
X102163793Y-55985945D01*
X102018886Y-56202813D01*
X101950821Y-56545001D01*
X100387000Y-56545001D01*
X100387000Y-48670000D01*
X105145615Y-48670000D01*
X105145615Y-50270000D01*
X105174875Y-50417098D01*
X105258199Y-50541801D01*
X105382902Y-50625125D01*
X105530000Y-50654385D01*
X107130000Y-50654385D01*
X107277098Y-50625125D01*
X107401801Y-50541801D01*
X107485125Y-50417098D01*
X107514385Y-50270000D01*
X107514385Y-50086750D01*
X110378000Y-50086750D01*
X110378000Y-50873250D01*
X110678980Y-51599881D01*
X111235119Y-52156020D01*
X111961750Y-52457000D01*
X112748250Y-52457000D01*
X113474881Y-52156020D01*
X114031020Y-51599881D01*
X114332000Y-50873250D01*
X114332000Y-50086750D01*
X117388000Y-50086750D01*
X117388000Y-50873250D01*
X117688980Y-51599881D01*
X118245119Y-52156020D01*
X118971750Y-52457000D01*
X119758250Y-52457000D01*
X120484881Y-52156020D01*
X121041020Y-51599881D01*
X121342000Y-50873250D01*
X121342000Y-50086750D01*
X121041020Y-49360119D01*
X120484881Y-48803980D01*
X119758250Y-48503000D01*
X118971750Y-48503000D01*
X118245119Y-48803980D01*
X117688980Y-49360119D01*
X117388000Y-50086750D01*
X114332000Y-50086750D01*
X114031020Y-49360119D01*
X113474881Y-48803980D01*
X112748250Y-48503000D01*
X111961750Y-48503000D01*
X111235119Y-48803980D01*
X110678980Y-49360119D01*
X110378000Y-50086750D01*
X107514385Y-50086750D01*
X107514385Y-48670000D01*
X107485125Y-48522902D01*
X107401801Y-48398199D01*
X107277098Y-48314875D01*
X107130000Y-48285615D01*
X105530000Y-48285615D01*
X105382902Y-48314875D01*
X105258199Y-48398199D01*
X105174875Y-48522902D01*
X105145615Y-48670000D01*
X100387000Y-48670000D01*
X100387000Y-45086750D01*
X110378000Y-45086750D01*
X110378000Y-45873250D01*
X110678980Y-46599881D01*
X111235119Y-47156020D01*
X111961750Y-47457000D01*
X112748250Y-47457000D01*
X113474881Y-47156020D01*
X114031020Y-46599881D01*
X114332000Y-45873250D01*
X114332000Y-45086750D01*
X117388000Y-45086750D01*
X117388000Y-45873250D01*
X117688980Y-46599881D01*
X118245119Y-47156020D01*
X118971750Y-47457000D01*
X119758250Y-47457000D01*
X120484881Y-47156020D01*
X121041020Y-46599881D01*
X121342000Y-45873250D01*
X121342000Y-45086750D01*
X121170206Y-44672000D01*
X126627000Y-44672000D01*
X126627000Y-50292000D01*
X126639048Y-50414322D01*
X126735721Y-50900330D01*
X126829341Y-51126350D01*
X127104642Y-51538368D01*
X127277632Y-51711358D01*
X127689650Y-51986659D01*
X127915670Y-52080279D01*
X128401678Y-52176952D01*
X128524000Y-52189000D01*
X129310768Y-52189000D01*
X129985401Y-52330118D01*
X132463810Y-53414423D01*
X132815895Y-53629304D01*
X133068244Y-53899251D01*
X133239084Y-54226918D01*
X133324866Y-54630381D01*
X133711045Y-59843805D01*
X133753373Y-60028331D01*
X133822089Y-60201863D01*
X133884237Y-60320141D01*
X134041814Y-60477247D01*
X133989327Y-60673130D01*
X133989327Y-60738870D01*
X134057386Y-60992870D01*
X134090256Y-61049803D01*
X134095920Y-61055467D01*
X134017719Y-61107719D01*
X133823885Y-61397812D01*
X133755820Y-61740000D01*
X133823885Y-62082188D01*
X133968792Y-62299056D01*
X134368789Y-62699053D01*
X134417718Y-62772280D01*
X134707811Y-62966115D01*
X134963624Y-63016999D01*
X134963628Y-63016999D01*
X135049998Y-63034179D01*
X135136368Y-63016999D01*
X138106735Y-63016999D01*
X138483792Y-63394057D01*
X138532720Y-63467282D01*
X138822813Y-63661117D01*
X139078626Y-63712001D01*
X139078630Y-63712001D01*
X139165000Y-63729181D01*
X139251370Y-63712001D01*
X148081736Y-63712001D01*
X148748794Y-64379059D01*
X148784836Y-64433000D01*
X145006369Y-64433000D01*
X144919999Y-64415820D01*
X144833629Y-64433000D01*
X144833625Y-64433000D01*
X144577812Y-64483884D01*
X144287719Y-64677719D01*
X144238792Y-64750943D01*
X143516736Y-65473000D01*
X138216369Y-65473000D01*
X138129999Y-65455820D01*
X138043629Y-65473000D01*
X138043625Y-65473000D01*
X137787812Y-65523884D01*
X137787811Y-65523885D01*
X137787810Y-65523885D01*
X137595791Y-65652189D01*
X137497719Y-65717719D01*
X137448792Y-65790943D01*
X134566736Y-68673000D01*
X133133625Y-68673000D01*
X132877812Y-68723884D01*
X132587719Y-68917719D01*
X132393884Y-69207812D01*
X132325819Y-69550000D01*
X132393884Y-69892188D01*
X132587719Y-70182281D01*
X132877812Y-70376116D01*
X133133625Y-70427000D01*
X134843630Y-70427000D01*
X134930000Y-70444180D01*
X135016370Y-70427000D01*
X135016375Y-70427000D01*
X135272188Y-70376116D01*
X135562281Y-70182281D01*
X135611210Y-70109054D01*
X135734819Y-69985445D01*
X140373000Y-69985445D01*
X140373000Y-70294555D01*
X140491291Y-70580135D01*
X140709865Y-70798709D01*
X140778089Y-70826968D01*
X140788080Y-70841921D01*
X140829991Y-70869925D01*
X141783000Y-71822935D01*
X141783000Y-72044555D01*
X141901291Y-72330135D01*
X142119865Y-72548709D01*
X142405445Y-72667000D01*
X142714555Y-72667000D01*
X143000135Y-72548709D01*
X143218709Y-72330135D01*
X143337000Y-72044555D01*
X143337000Y-71735445D01*
X143218709Y-71449865D01*
X143000135Y-71231291D01*
X142714555Y-71113000D01*
X142492935Y-71113000D01*
X141853041Y-70473107D01*
X141927000Y-70294555D01*
X141927000Y-69985445D01*
X141808709Y-69699865D01*
X141590135Y-69481291D01*
X141304555Y-69363000D01*
X140995445Y-69363000D01*
X140709865Y-69481291D01*
X140491291Y-69699865D01*
X140373000Y-69985445D01*
X135734819Y-69985445D01*
X137544819Y-68175445D01*
X142733000Y-68175445D01*
X142733000Y-68484555D01*
X142851291Y-68770135D01*
X143069865Y-68988709D01*
X143355445Y-69107000D01*
X143664555Y-69107000D01*
X143800681Y-69050615D01*
X144018001Y-69267936D01*
X144018000Y-70593156D01*
X143861291Y-70749865D01*
X143743000Y-71035445D01*
X143743000Y-71344555D01*
X143861291Y-71630135D01*
X144079865Y-71848709D01*
X144365445Y-71967000D01*
X144674555Y-71967000D01*
X144960135Y-71848709D01*
X145178709Y-71630135D01*
X145297000Y-71344555D01*
X145297000Y-71035445D01*
X145178709Y-70749865D01*
X145022000Y-70593156D01*
X145022000Y-69109434D01*
X145031833Y-69060000D01*
X145022000Y-69010566D01*
X145022000Y-69010561D01*
X144992873Y-68864130D01*
X144881921Y-68698079D01*
X144840009Y-68670075D01*
X144245720Y-68075786D01*
X144168709Y-67889865D01*
X143950135Y-67671291D01*
X143664555Y-67553000D01*
X143355445Y-67553000D01*
X143069865Y-67671291D01*
X142851291Y-67889865D01*
X142733000Y-68175445D01*
X137544819Y-68175445D01*
X138493265Y-67227000D01*
X143793630Y-67227000D01*
X143880000Y-67244180D01*
X143966370Y-67227000D01*
X143966375Y-67227000D01*
X144222188Y-67176116D01*
X144512281Y-66982281D01*
X144561210Y-66909054D01*
X145283265Y-66187000D01*
X150602256Y-66187000D01*
X150853625Y-66237000D01*
X151833082Y-66237000D01*
X152019999Y-66274180D01*
X152206917Y-66237000D01*
X157336736Y-66237000D01*
X160298792Y-69199057D01*
X160347719Y-69272281D01*
X160420943Y-69321208D01*
X160637810Y-69466115D01*
X160637811Y-69466115D01*
X160637812Y-69466116D01*
X160893625Y-69517000D01*
X160893629Y-69517000D01*
X160979999Y-69534180D01*
X161066369Y-69517000D01*
X173983630Y-69517000D01*
X174070000Y-69534180D01*
X174156370Y-69517000D01*
X174156375Y-69517000D01*
X174412188Y-69466116D01*
X174702281Y-69272281D01*
X174751210Y-69199054D01*
X177273265Y-66677000D01*
X181276375Y-66677000D01*
X181532188Y-66626116D01*
X181822281Y-66432281D01*
X182005252Y-66158447D01*
X182273001Y-66426197D01*
X182273001Y-66469576D01*
X182176067Y-66566510D01*
X182073000Y-66815336D01*
X182073000Y-67084664D01*
X182176067Y-67333490D01*
X182366510Y-67523933D01*
X182615336Y-67627000D01*
X182884664Y-67627000D01*
X183133490Y-67523933D01*
X183323933Y-67333490D01*
X183335858Y-67304701D01*
X183356067Y-67353490D01*
X183546510Y-67543933D01*
X183795336Y-67647000D01*
X184064664Y-67647000D01*
X184313490Y-67543933D01*
X184503933Y-67353490D01*
X184607000Y-67104664D01*
X184607000Y-66835336D01*
X184503933Y-66586510D01*
X184437000Y-66519577D01*
X184437000Y-65320423D01*
X184533933Y-65223490D01*
X184637000Y-64974664D01*
X184637000Y-64705336D01*
X184533933Y-64456510D01*
X184512759Y-64435336D01*
X190743000Y-64435336D01*
X190743000Y-64704664D01*
X190846067Y-64953490D01*
X191036510Y-65143933D01*
X191285336Y-65247000D01*
X191554664Y-65247000D01*
X191803490Y-65143933D01*
X191993933Y-64953490D01*
X192097000Y-64704664D01*
X192097000Y-64567579D01*
X193364075Y-63300505D01*
X193403897Y-63273897D01*
X193509323Y-63116116D01*
X193537000Y-62976975D01*
X193537000Y-62976972D01*
X193546343Y-62930001D01*
X193537000Y-62883030D01*
X193537000Y-59360423D01*
X193593933Y-59303490D01*
X193697000Y-59054664D01*
X193697000Y-58785336D01*
X193593933Y-58536510D01*
X193403490Y-58346067D01*
X193154664Y-58243000D01*
X192885336Y-58243000D01*
X192636510Y-58346067D01*
X192446067Y-58536510D01*
X192343000Y-58785336D01*
X192343000Y-59054664D01*
X192446067Y-59303490D01*
X192583001Y-59440424D01*
X192583000Y-62732420D01*
X191422421Y-63893000D01*
X191285336Y-63893000D01*
X191036510Y-63996067D01*
X190846067Y-64186510D01*
X190743000Y-64435336D01*
X184512759Y-64435336D01*
X184343490Y-64266067D01*
X184094664Y-64163000D01*
X183825336Y-64163000D01*
X183576510Y-64266067D01*
X183386067Y-64456510D01*
X183283000Y-64705336D01*
X183283000Y-64974664D01*
X183386067Y-65223490D01*
X183483000Y-65320423D01*
X183483001Y-66459576D01*
X183356067Y-66586510D01*
X183344142Y-66615299D01*
X183323933Y-66566510D01*
X183227000Y-66469577D01*
X183227000Y-66275591D01*
X183236344Y-66228616D01*
X183199323Y-66042500D01*
X183120506Y-65924542D01*
X183093897Y-65884719D01*
X183054074Y-65858110D01*
X181891882Y-64695919D01*
X181865271Y-64656093D01*
X181707490Y-64550667D01*
X181568349Y-64522990D01*
X181568345Y-64522990D01*
X181521374Y-64513647D01*
X181474403Y-64522990D01*
X175147590Y-64522990D01*
X172280528Y-61655929D01*
X172253917Y-61616103D01*
X172096136Y-61510677D01*
X171956995Y-61483000D01*
X171956991Y-61483000D01*
X171910020Y-61473657D01*
X171863049Y-61483000D01*
X160556036Y-61483000D01*
X160452281Y-61327719D01*
X160162188Y-61133885D01*
X159819999Y-61065820D01*
X159477811Y-61133885D01*
X159260943Y-61278792D01*
X157841355Y-62698381D01*
X157750944Y-62758792D01*
X157566736Y-62943000D01*
X149793265Y-62943000D01*
X149126211Y-62275946D01*
X149077282Y-62202720D01*
X148787189Y-62008885D01*
X148531376Y-61958001D01*
X148531371Y-61958001D01*
X148445001Y-61940821D01*
X148358631Y-61958001D01*
X144934122Y-61958001D01*
X145071926Y-61751763D01*
X145090889Y-61705982D01*
X145158560Y-61365776D01*
X145158560Y-61316224D01*
X145090889Y-60976018D01*
X145071926Y-60930237D01*
X144879215Y-60641825D01*
X144844175Y-60606785D01*
X144754610Y-60546940D01*
X144904542Y-60408524D01*
X145072739Y-60150011D01*
X145160019Y-59893800D01*
X145191514Y-59741618D01*
X145575349Y-54943670D01*
X145684456Y-54486832D01*
X145901985Y-54126928D01*
X146255736Y-53817961D01*
X149295920Y-51897845D01*
X149377446Y-51836541D01*
X149862401Y-51405870D01*
X149990530Y-51247990D01*
X150122423Y-51017038D01*
X150124881Y-51016020D01*
X150681020Y-50459881D01*
X150982000Y-49733250D01*
X150982000Y-48946750D01*
X150681020Y-48220119D01*
X150568864Y-48107963D01*
X150648112Y-45492789D01*
X150681020Y-45459881D01*
X150884520Y-44968586D01*
X158971283Y-44968586D01*
X159075347Y-50575788D01*
X159082002Y-50655996D01*
X159157056Y-51162860D01*
X159200746Y-51317438D01*
X159402123Y-51788597D01*
X159483657Y-51927003D01*
X159798141Y-52331533D01*
X159912164Y-52444678D01*
X160319111Y-52756027D01*
X160458141Y-52836489D01*
X160930842Y-53034221D01*
X161006932Y-53060450D01*
X164176078Y-53929808D01*
X164526410Y-54074721D01*
X164830223Y-54301481D01*
X165384892Y-54834680D01*
X165625753Y-55133004D01*
X165768167Y-55445667D01*
X165835147Y-55823193D01*
X166033430Y-59810889D01*
X166059495Y-59961234D01*
X166154602Y-60275751D01*
X166309720Y-60535930D01*
X166541175Y-60769157D01*
X166800159Y-60926253D01*
X167113941Y-61023758D01*
X167411356Y-61042032D01*
X167739904Y-60982739D01*
X168008136Y-60864748D01*
X168273858Y-60662631D01*
X168459177Y-60435636D01*
X168604032Y-60134843D01*
X168651964Y-59995303D01*
X170242477Y-52639180D01*
X170252298Y-52580322D01*
X170296962Y-52202709D01*
X170301143Y-52143185D01*
X170461206Y-45039454D01*
X170457728Y-44959462D01*
X172143334Y-44959462D01*
X172204949Y-51038800D01*
X172210760Y-51117843D01*
X172279488Y-51617752D01*
X172320633Y-51770503D01*
X172512295Y-52237298D01*
X172590362Y-52374890D01*
X172892758Y-52778856D01*
X172944168Y-52839175D01*
X174232703Y-54170484D01*
X174458865Y-54470673D01*
X174589677Y-54781054D01*
X174646610Y-55152567D01*
X174786721Y-60039971D01*
X174804622Y-60171806D01*
X174911158Y-60604802D01*
X175057096Y-60877905D01*
X175191871Y-61025427D01*
X175495004Y-61208824D01*
X175688225Y-61259741D01*
X175866032Y-61280180D01*
X176333036Y-61266741D01*
X176484484Y-61243659D01*
X176843761Y-61142788D01*
X177107866Y-60992042D01*
X177377424Y-60733985D01*
X177539535Y-60476700D01*
X177655966Y-60122160D01*
X177685625Y-59971861D01*
X177978938Y-55925336D01*
X189293000Y-55925336D01*
X189293000Y-56194664D01*
X189396067Y-56443490D01*
X189553001Y-56600424D01*
X189553000Y-57169577D01*
X189456067Y-57266510D01*
X189353000Y-57515336D01*
X189353000Y-57784664D01*
X189456067Y-58033490D01*
X189646510Y-58223933D01*
X189895336Y-58327000D01*
X190164664Y-58327000D01*
X190413490Y-58223933D01*
X190603933Y-58033490D01*
X190707000Y-57784664D01*
X190707000Y-57515336D01*
X190603933Y-57266510D01*
X190507000Y-57169577D01*
X190507000Y-56480423D01*
X190543933Y-56443490D01*
X190647000Y-56194664D01*
X190647000Y-55925336D01*
X190543933Y-55676510D01*
X190353490Y-55486067D01*
X190104664Y-55383000D01*
X189835336Y-55383000D01*
X189586510Y-55486067D01*
X189396067Y-55676510D01*
X189293000Y-55925336D01*
X177978938Y-55925336D01*
X178022234Y-55328038D01*
X178123783Y-54880798D01*
X178329653Y-54525456D01*
X178631848Y-54247374D01*
X179046377Y-54051188D01*
X181835034Y-53215597D01*
X181926436Y-53180212D01*
X182488395Y-52910413D01*
X182649236Y-52799409D01*
X183100833Y-52369701D01*
X183219098Y-52215336D01*
X194043000Y-52215336D01*
X194043000Y-52484664D01*
X194146067Y-52733490D01*
X194336510Y-52923933D01*
X194585336Y-53027000D01*
X194854664Y-53027000D01*
X195103490Y-52923933D01*
X195122087Y-52905336D01*
X195663000Y-52905336D01*
X195663000Y-53174664D01*
X195766067Y-53423490D01*
X195956510Y-53613933D01*
X196205336Y-53717000D01*
X196331495Y-53717000D01*
X196336103Y-53723897D01*
X196375926Y-53750506D01*
X196493884Y-53829323D01*
X196680000Y-53866344D01*
X196726975Y-53857000D01*
X199689577Y-53857000D01*
X199786510Y-53953933D01*
X200035336Y-54057000D01*
X200304664Y-54057000D01*
X200553490Y-53953933D01*
X200743933Y-53763490D01*
X200847000Y-53514664D01*
X200847000Y-53245336D01*
X200743933Y-52996510D01*
X200553490Y-52806067D01*
X200304664Y-52703000D01*
X200035336Y-52703000D01*
X199786510Y-52806067D01*
X199689577Y-52903000D01*
X197016032Y-52903000D01*
X196913933Y-52656510D01*
X196723490Y-52466067D01*
X196474664Y-52363000D01*
X196205336Y-52363000D01*
X195956510Y-52466067D01*
X195766067Y-52656510D01*
X195663000Y-52905336D01*
X195122087Y-52905336D01*
X195293933Y-52733490D01*
X195397000Y-52484664D01*
X195397000Y-52215336D01*
X195324434Y-52040146D01*
X195507580Y-51857000D01*
X195644664Y-51857000D01*
X195893490Y-51753933D01*
X196083933Y-51563490D01*
X196187000Y-51314664D01*
X196187000Y-51045336D01*
X196083933Y-50796510D01*
X195893490Y-50606067D01*
X195644664Y-50503000D01*
X195375336Y-50503000D01*
X195126510Y-50606067D01*
X194936067Y-50796510D01*
X194833000Y-51045336D01*
X194833000Y-51182420D01*
X194415926Y-51599494D01*
X194376104Y-51626103D01*
X194349495Y-51665926D01*
X194349494Y-51665927D01*
X194270677Y-51783885D01*
X194269740Y-51788597D01*
X194256272Y-51856305D01*
X194146067Y-51966510D01*
X194043000Y-52215336D01*
X183219098Y-52215336D01*
X183219685Y-52214570D01*
X183517050Y-51666698D01*
X183582367Y-51482510D01*
X183696611Y-50869699D01*
X183706988Y-50772237D01*
X183733445Y-49821793D01*
X200733000Y-49821793D01*
X200733000Y-50258207D01*
X200900008Y-50661401D01*
X201208599Y-50969992D01*
X201611793Y-51137000D01*
X202048207Y-51137000D01*
X202451401Y-50969992D01*
X202759992Y-50661401D01*
X202927000Y-50258207D01*
X202927000Y-49821793D01*
X202759992Y-49418599D01*
X202451401Y-49110008D01*
X202048207Y-48943000D01*
X201611793Y-48943000D01*
X201208599Y-49110008D01*
X200900008Y-49418599D01*
X200733000Y-49821793D01*
X183733445Y-49821793D01*
X183793197Y-47675336D01*
X189443000Y-47675336D01*
X189443000Y-47944664D01*
X189546067Y-48193490D01*
X189736510Y-48383933D01*
X189985336Y-48487000D01*
X190254664Y-48487000D01*
X190281362Y-48475941D01*
X190613000Y-48807580D01*
X190613000Y-48944664D01*
X190716067Y-49193490D01*
X190906510Y-49383933D01*
X191155336Y-49487000D01*
X191424664Y-49487000D01*
X191673490Y-49383933D01*
X191863933Y-49193490D01*
X191967000Y-48944664D01*
X191967000Y-48675336D01*
X191863933Y-48426510D01*
X191673490Y-48236067D01*
X191424664Y-48133000D01*
X191287580Y-48133000D01*
X190773726Y-47619146D01*
X190693933Y-47426510D01*
X190503490Y-47236067D01*
X190254664Y-47133000D01*
X189985336Y-47133000D01*
X189736510Y-47236067D01*
X189546067Y-47426510D01*
X189443000Y-47675336D01*
X183793197Y-47675336D01*
X183815188Y-46885336D01*
X191383000Y-46885336D01*
X191383000Y-47154664D01*
X191486067Y-47403490D01*
X191676510Y-47593933D01*
X191925336Y-47697000D01*
X192194664Y-47697000D01*
X192443490Y-47593933D01*
X192633933Y-47403490D01*
X192737000Y-47154664D01*
X192737000Y-46885336D01*
X192633933Y-46636510D01*
X192537000Y-46539577D01*
X192537000Y-46487579D01*
X193293000Y-45731579D01*
X193293000Y-45744664D01*
X193396067Y-45993490D01*
X193493000Y-46090423D01*
X193493001Y-46733024D01*
X193483657Y-46780000D01*
X193520677Y-46966115D01*
X193588070Y-47066975D01*
X193626104Y-47123897D01*
X193633000Y-47128505D01*
X193633000Y-47254664D01*
X193736067Y-47503490D01*
X193926510Y-47693933D01*
X194175336Y-47797000D01*
X194444664Y-47797000D01*
X194693490Y-47693933D01*
X194883933Y-47503490D01*
X194987000Y-47254664D01*
X194987000Y-46985336D01*
X194883933Y-46736510D01*
X194693490Y-46546067D01*
X194447000Y-46443968D01*
X194447000Y-46090423D01*
X194543933Y-45993490D01*
X194647000Y-45744664D01*
X194647000Y-45475336D01*
X194626290Y-45425336D01*
X194693000Y-45425336D01*
X194693000Y-45694664D01*
X194796067Y-45943490D01*
X194986510Y-46133933D01*
X195235336Y-46237000D01*
X195504664Y-46237000D01*
X195623286Y-46187865D01*
X195783001Y-46347581D01*
X195783001Y-46629576D01*
X195686067Y-46726510D01*
X195583000Y-46975336D01*
X195583000Y-47244664D01*
X195686067Y-47493490D01*
X195876510Y-47683933D01*
X196125336Y-47787000D01*
X196394664Y-47787000D01*
X196643490Y-47683933D01*
X196833933Y-47493490D01*
X196921620Y-47281793D01*
X200733000Y-47281793D01*
X200733000Y-47718207D01*
X200900008Y-48121401D01*
X201208599Y-48429992D01*
X201611793Y-48597000D01*
X202048207Y-48597000D01*
X202451401Y-48429992D01*
X202759992Y-48121401D01*
X202927000Y-47718207D01*
X202927000Y-47281793D01*
X202759992Y-46878599D01*
X202451401Y-46570008D01*
X202048207Y-46403000D01*
X201611793Y-46403000D01*
X201208599Y-46570008D01*
X200900008Y-46878599D01*
X200733000Y-47281793D01*
X196921620Y-47281793D01*
X196937000Y-47244664D01*
X196937000Y-46975336D01*
X196833933Y-46726510D01*
X196737000Y-46629577D01*
X196737000Y-46196970D01*
X196746343Y-46149999D01*
X196737000Y-46103028D01*
X196737000Y-46103025D01*
X196709323Y-45963884D01*
X196603897Y-45806103D01*
X196564074Y-45779494D01*
X196040508Y-45255928D01*
X196013897Y-45216103D01*
X195922369Y-45154946D01*
X195753490Y-44986067D01*
X195504664Y-44883000D01*
X195235336Y-44883000D01*
X194986510Y-44986067D01*
X194796067Y-45176510D01*
X194693000Y-45425336D01*
X194626290Y-45425336D01*
X194543933Y-45226510D01*
X194353490Y-45036067D01*
X194104664Y-44933000D01*
X194091580Y-44933000D01*
X194282787Y-44741793D01*
X200733000Y-44741793D01*
X200733000Y-45178207D01*
X200900008Y-45581401D01*
X201208599Y-45889992D01*
X201611793Y-46057000D01*
X202048207Y-46057000D01*
X202451401Y-45889992D01*
X202759992Y-45581401D01*
X202927000Y-45178207D01*
X202927000Y-44741793D01*
X202759992Y-44338599D01*
X202451401Y-44030008D01*
X202048207Y-43863000D01*
X201611793Y-43863000D01*
X201208599Y-44030008D01*
X200900008Y-44338599D01*
X200733000Y-44741793D01*
X194282787Y-44741793D01*
X194887580Y-44137000D01*
X194889577Y-44137000D01*
X194986510Y-44233933D01*
X195235336Y-44337000D01*
X195504664Y-44337000D01*
X195753490Y-44233933D01*
X195943933Y-44043490D01*
X196047000Y-43794664D01*
X196047000Y-43525336D01*
X195943933Y-43276510D01*
X195753490Y-43086067D01*
X195504664Y-42983000D01*
X195235336Y-42983000D01*
X194986510Y-43086067D01*
X194889577Y-43183000D01*
X194736975Y-43183000D01*
X194690000Y-43173656D01*
X194643025Y-43183000D01*
X194503884Y-43210677D01*
X194346103Y-43316103D01*
X194319494Y-43355926D01*
X191755927Y-45919494D01*
X191716104Y-45946103D01*
X191689495Y-45985926D01*
X191689494Y-45985927D01*
X191610677Y-46103885D01*
X191573657Y-46290000D01*
X191583001Y-46336976D01*
X191583001Y-46539576D01*
X191486067Y-46636510D01*
X191383000Y-46885336D01*
X183815188Y-46885336D01*
X183869043Y-44950720D01*
X183865760Y-44866873D01*
X183809196Y-44335758D01*
X183769389Y-44173113D01*
X183574274Y-43675908D01*
X183492839Y-43529598D01*
X183173087Y-43101764D01*
X183055833Y-42982224D01*
X182634249Y-42654275D01*
X182489537Y-42570032D01*
X181996190Y-42365358D01*
X181834344Y-42322419D01*
X181304419Y-42255616D01*
X181220650Y-42250716D01*
X174747789Y-42305935D01*
X174665916Y-42312008D01*
X174148363Y-42384712D01*
X173990479Y-42428510D01*
X173509433Y-42632818D01*
X173368286Y-42716024D01*
X172956596Y-43037985D01*
X172841826Y-43154917D01*
X172527605Y-43572544D01*
X172447047Y-43715220D01*
X172251753Y-44199996D01*
X172210911Y-44358669D01*
X172147879Y-44877489D01*
X172143334Y-44959462D01*
X170457728Y-44959462D01*
X170457614Y-44956848D01*
X170400125Y-44433649D01*
X170360676Y-44273424D01*
X170168683Y-43783342D01*
X170088799Y-43638956D01*
X169775599Y-43215934D01*
X169660813Y-43097390D01*
X169248099Y-42770727D01*
X169106364Y-42686235D01*
X168622721Y-42478554D01*
X168463849Y-42433963D01*
X167942774Y-42359651D01*
X167860326Y-42353400D01*
X161623284Y-42292963D01*
X161539931Y-42297715D01*
X161012545Y-42363215D01*
X160851404Y-42405533D01*
X160359886Y-42607614D01*
X160215577Y-42690878D01*
X159794633Y-43015274D01*
X159677349Y-43133602D01*
X159356699Y-43557406D01*
X159274719Y-43702447D01*
X159077004Y-44195737D01*
X159036116Y-44357247D01*
X158975295Y-44885194D01*
X158971283Y-44968586D01*
X150884520Y-44968586D01*
X150982000Y-44733250D01*
X150982000Y-43946750D01*
X150681020Y-43220119D01*
X150124881Y-42663980D01*
X149921384Y-42579689D01*
X149875889Y-42532794D01*
X149457857Y-42203560D01*
X149314238Y-42118696D01*
X148824184Y-41911347D01*
X148663269Y-41867359D01*
X148135884Y-41796573D01*
X148052476Y-41791000D01*
X142970000Y-41791000D01*
X142888160Y-41796364D01*
X142370522Y-41864512D01*
X142212419Y-41906876D01*
X141730057Y-42106677D01*
X141588307Y-42188516D01*
X141174093Y-42506353D01*
X141116413Y-42564033D01*
X140875119Y-42663980D01*
X140318980Y-43220119D01*
X140018000Y-43946750D01*
X140018000Y-44733250D01*
X140318980Y-45459881D01*
X140343000Y-45483901D01*
X140343000Y-48196099D01*
X140318980Y-48220119D01*
X140018000Y-48946750D01*
X140018000Y-49733250D01*
X140318980Y-50459881D01*
X140343000Y-50483901D01*
X140343000Y-51109961D01*
X140346051Y-51171745D01*
X140384890Y-51563977D01*
X140394015Y-51625158D01*
X142058456Y-59947364D01*
X142135737Y-60147163D01*
X142296814Y-60415426D01*
X142413411Y-60557349D01*
X142621816Y-60682187D01*
X142456074Y-60930237D01*
X142437111Y-60976018D01*
X142369440Y-61316224D01*
X142369440Y-61365776D01*
X142437111Y-61705982D01*
X142456074Y-61751763D01*
X142593878Y-61958001D01*
X139528266Y-61958001D01*
X139151209Y-61580944D01*
X139102280Y-61507718D01*
X138812187Y-61313883D01*
X138556374Y-61262999D01*
X138556369Y-61262999D01*
X138469999Y-61245819D01*
X138383629Y-61262999D01*
X135413263Y-61262999D01*
X135301906Y-61151642D01*
X135403744Y-61049803D01*
X135436614Y-60992870D01*
X135504673Y-60738870D01*
X135504673Y-60673130D01*
X135436614Y-60419130D01*
X135410324Y-60373593D01*
X135610269Y-60143055D01*
X135765197Y-59819984D01*
X135816728Y-59661030D01*
X137241771Y-51823295D01*
X137248484Y-51776354D01*
X137279928Y-51475703D01*
X137283073Y-51428390D01*
X137300325Y-50824576D01*
X137515020Y-50609881D01*
X137816000Y-49883250D01*
X137816000Y-49096750D01*
X137515020Y-48370119D01*
X137374468Y-48229567D01*
X137447384Y-45677517D01*
X137515020Y-45609881D01*
X137816000Y-44883250D01*
X137816000Y-44096750D01*
X137515020Y-43370119D01*
X136958881Y-42813980D01*
X136425412Y-42593010D01*
X136252074Y-42456695D01*
X136108559Y-42372005D01*
X135618942Y-42165091D01*
X135458190Y-42121196D01*
X134931361Y-42050561D01*
X134848041Y-42045000D01*
X129254000Y-42045000D01*
X129172160Y-42050364D01*
X128654522Y-42118512D01*
X128496419Y-42160876D01*
X128014057Y-42360677D01*
X127872307Y-42442516D01*
X127458093Y-42760353D01*
X127342353Y-42876093D01*
X127024516Y-43290307D01*
X126942677Y-43432057D01*
X126742876Y-43914419D01*
X126700512Y-44072522D01*
X126632364Y-44590160D01*
X126627000Y-44672000D01*
X121170206Y-44672000D01*
X121041020Y-44360119D01*
X120484881Y-43803980D01*
X119758250Y-43503000D01*
X118971750Y-43503000D01*
X118245119Y-43803980D01*
X117688980Y-44360119D01*
X117388000Y-45086750D01*
X114332000Y-45086750D01*
X114031020Y-44360119D01*
X113474881Y-43803980D01*
X112748250Y-43503000D01*
X111961750Y-43503000D01*
X111235119Y-43803980D01*
X110678980Y-44360119D01*
X110378000Y-45086750D01*
X100387000Y-45086750D01*
X100387000Y-42576227D01*
X100463560Y-41359339D01*
X100689750Y-40173609D01*
X100944920Y-39388273D01*
X104073000Y-39388273D01*
X104073000Y-40731727D01*
X104587118Y-41972917D01*
X105537083Y-42922882D01*
X106778273Y-43437000D01*
X108121727Y-43437000D01*
X109362917Y-42922882D01*
X110312882Y-41972917D01*
X110827000Y-40731727D01*
X110827000Y-39496750D01*
X126938000Y-39496750D01*
X126938000Y-40283250D01*
X127238980Y-41009881D01*
X127795119Y-41566020D01*
X128521750Y-41867000D01*
X129308250Y-41867000D01*
X130034881Y-41566020D01*
X130591020Y-41009881D01*
X130892000Y-40283250D01*
X130892000Y-39496750D01*
X133948000Y-39496750D01*
X133948000Y-40283250D01*
X134248980Y-41009881D01*
X134805119Y-41566020D01*
X135531750Y-41867000D01*
X136318250Y-41867000D01*
X137044881Y-41566020D01*
X137601020Y-41009881D01*
X137902000Y-40283250D01*
X137902000Y-39496750D01*
X137880461Y-39444750D01*
X140060000Y-39444750D01*
X140060000Y-40231250D01*
X140360980Y-40957881D01*
X140917119Y-41514020D01*
X141643750Y-41815000D01*
X142430250Y-41815000D01*
X143156881Y-41514020D01*
X143713020Y-40957881D01*
X144014000Y-40231250D01*
X144014000Y-39444750D01*
X147070000Y-39444750D01*
X147070000Y-40231250D01*
X147370980Y-40957881D01*
X147927119Y-41514020D01*
X148653750Y-41815000D01*
X149440250Y-41815000D01*
X150166881Y-41514020D01*
X150723020Y-40957881D01*
X151024000Y-40231250D01*
X151024000Y-39646750D01*
X159168000Y-39646750D01*
X159168000Y-40433250D01*
X159468980Y-41159881D01*
X160025119Y-41716020D01*
X160751750Y-42017000D01*
X161538250Y-42017000D01*
X162264881Y-41716020D01*
X162821020Y-41159881D01*
X163122000Y-40433250D01*
X163122000Y-39646750D01*
X166178000Y-39646750D01*
X166178000Y-40433250D01*
X166478980Y-41159881D01*
X167035119Y-41716020D01*
X167761750Y-42017000D01*
X168548250Y-42017000D01*
X169274881Y-41716020D01*
X169831020Y-41159881D01*
X170132000Y-40433250D01*
X170132000Y-39706750D01*
X172508000Y-39706750D01*
X172508000Y-40493250D01*
X172808980Y-41219881D01*
X173365119Y-41776020D01*
X174091750Y-42077000D01*
X174878250Y-42077000D01*
X175604881Y-41776020D01*
X176161020Y-41219881D01*
X176462000Y-40493250D01*
X176462000Y-39706750D01*
X179518000Y-39706750D01*
X179518000Y-40493250D01*
X179818980Y-41219881D01*
X180375119Y-41776020D01*
X181101750Y-42077000D01*
X181888250Y-42077000D01*
X182614881Y-41776020D01*
X183171020Y-41219881D01*
X183472000Y-40493250D01*
X183472000Y-39706750D01*
X183340083Y-39388273D01*
X194083000Y-39388273D01*
X194083000Y-40731727D01*
X194597118Y-41972917D01*
X195547083Y-42922882D01*
X196788273Y-43437000D01*
X198131727Y-43437000D01*
X199372917Y-42922882D01*
X200322882Y-41972917D01*
X200837000Y-40731727D01*
X200837000Y-39388273D01*
X200322882Y-38147083D01*
X199372917Y-37197118D01*
X198131727Y-36683000D01*
X196788273Y-36683000D01*
X195547083Y-37197118D01*
X194597118Y-38147083D01*
X194083000Y-39388273D01*
X183340083Y-39388273D01*
X183171020Y-38980119D01*
X182614881Y-38423980D01*
X181888250Y-38123000D01*
X181101750Y-38123000D01*
X180375119Y-38423980D01*
X179818980Y-38980119D01*
X179518000Y-39706750D01*
X176462000Y-39706750D01*
X176161020Y-38980119D01*
X175604881Y-38423980D01*
X174878250Y-38123000D01*
X174091750Y-38123000D01*
X173365119Y-38423980D01*
X172808980Y-38980119D01*
X172508000Y-39706750D01*
X170132000Y-39706750D01*
X170132000Y-39646750D01*
X169831020Y-38920119D01*
X169274881Y-38363980D01*
X168548250Y-38063000D01*
X167761750Y-38063000D01*
X167035119Y-38363980D01*
X166478980Y-38920119D01*
X166178000Y-39646750D01*
X163122000Y-39646750D01*
X162821020Y-38920119D01*
X162264881Y-38363980D01*
X161538250Y-38063000D01*
X160751750Y-38063000D01*
X160025119Y-38363980D01*
X159468980Y-38920119D01*
X159168000Y-39646750D01*
X151024000Y-39646750D01*
X151024000Y-39444750D01*
X150723020Y-38718119D01*
X150166881Y-38161980D01*
X149440250Y-37861000D01*
X148653750Y-37861000D01*
X147927119Y-38161980D01*
X147370980Y-38718119D01*
X147070000Y-39444750D01*
X144014000Y-39444750D01*
X143713020Y-38718119D01*
X143156881Y-38161980D01*
X142430250Y-37861000D01*
X141643750Y-37861000D01*
X140917119Y-38161980D01*
X140360980Y-38718119D01*
X140060000Y-39444750D01*
X137880461Y-39444750D01*
X137601020Y-38770119D01*
X137044881Y-38213980D01*
X136318250Y-37913000D01*
X135531750Y-37913000D01*
X134805119Y-38213980D01*
X134248980Y-38770119D01*
X133948000Y-39496750D01*
X130892000Y-39496750D01*
X130591020Y-38770119D01*
X130034881Y-38213980D01*
X129308250Y-37913000D01*
X128521750Y-37913000D01*
X127795119Y-38213980D01*
X127238980Y-38770119D01*
X126938000Y-39496750D01*
X110827000Y-39496750D01*
X110827000Y-39388273D01*
X110312882Y-38147083D01*
X109362917Y-37197118D01*
X109330287Y-37183602D01*
X186811000Y-37183602D01*
X186811000Y-37696398D01*
X187007239Y-38170160D01*
X187369840Y-38532761D01*
X187843602Y-38729000D01*
X188356398Y-38729000D01*
X188830160Y-38532761D01*
X189192761Y-38170160D01*
X189389000Y-37696398D01*
X189389000Y-37183602D01*
X189192761Y-36709840D01*
X188830160Y-36347239D01*
X188356398Y-36151000D01*
X187843602Y-36151000D01*
X187369840Y-36347239D01*
X187007239Y-36709840D01*
X186811000Y-37183602D01*
X109330287Y-37183602D01*
X108121727Y-36683000D01*
X106778273Y-36683000D01*
X105537083Y-37197118D01*
X104587118Y-38147083D01*
X104073000Y-39388273D01*
X100944920Y-39388273D01*
X101062769Y-39025572D01*
X101576734Y-37933341D01*
X102223538Y-36914142D01*
X102992978Y-35984048D01*
X103872930Y-35157718D01*
X104849502Y-34448196D01*
X105907304Y-33866663D01*
X107029657Y-33422293D01*
X108198852Y-33122094D01*
X109402487Y-32970040D01*
X110006078Y-32951071D01*
X128429838Y-32951071D01*
X127795119Y-33213980D01*
X127795119Y-33213980D01*
G37*
X127795119Y-33213980D02*
X127238980Y-33770119D01*
X126938000Y-34496750D01*
X126938000Y-35283250D01*
X127238980Y-36009881D01*
X127795119Y-36566020D01*
X128521750Y-36867000D01*
X129308250Y-36867000D01*
X130034881Y-36566020D01*
X130591020Y-36009881D01*
X130892000Y-35283250D01*
X130892000Y-34496750D01*
X130591020Y-33770119D01*
X130034881Y-33213980D01*
X129400162Y-32951071D01*
X135439838Y-32951071D01*
X134805119Y-33213980D01*
X134248980Y-33770119D01*
X133948000Y-34496750D01*
X133948000Y-35283250D01*
X134248980Y-36009881D01*
X134805119Y-36566020D01*
X135531750Y-36867000D01*
X136318250Y-36867000D01*
X137044881Y-36566020D01*
X137601020Y-36009881D01*
X137902000Y-35283250D01*
X137902000Y-34496750D01*
X137601020Y-33770119D01*
X137044881Y-33213980D01*
X136410162Y-32951071D01*
X141426299Y-32951071D01*
X140917119Y-33161980D01*
X140360980Y-33718119D01*
X140060000Y-34444750D01*
X140060000Y-35231250D01*
X140360980Y-35957881D01*
X140917119Y-36514020D01*
X141643750Y-36815000D01*
X142430250Y-36815000D01*
X143156881Y-36514020D01*
X143713020Y-35957881D01*
X144014000Y-35231250D01*
X144014000Y-34444750D01*
X143713020Y-33718119D01*
X143156881Y-33161980D01*
X142647701Y-32951071D01*
X148436299Y-32951071D01*
X147927119Y-33161980D01*
X147370980Y-33718119D01*
X147070000Y-34444750D01*
X147070000Y-35231250D01*
X147370980Y-35957881D01*
X147927119Y-36514020D01*
X148653750Y-36815000D01*
X149440250Y-36815000D01*
X150166881Y-36514020D01*
X150723020Y-35957881D01*
X151024000Y-35231250D01*
X151024000Y-34646750D01*
X159168000Y-34646750D01*
X159168000Y-35433250D01*
X159468980Y-36159881D01*
X160025119Y-36716020D01*
X160751750Y-37017000D01*
X161538250Y-37017000D01*
X162264881Y-36716020D01*
X162821020Y-36159881D01*
X163122000Y-35433250D01*
X163122000Y-34646750D01*
X166178000Y-34646750D01*
X166178000Y-35433250D01*
X166478980Y-36159881D01*
X167035119Y-36716020D01*
X167761750Y-37017000D01*
X168548250Y-37017000D01*
X169274881Y-36716020D01*
X169831020Y-36159881D01*
X170132000Y-35433250D01*
X170132000Y-34706750D01*
X172508000Y-34706750D01*
X172508000Y-35493250D01*
X172808980Y-36219881D01*
X173365119Y-36776020D01*
X174091750Y-37077000D01*
X174878250Y-37077000D01*
X175604881Y-36776020D01*
X176161020Y-36219881D01*
X176462000Y-35493250D01*
X176462000Y-34706750D01*
X179518000Y-34706750D01*
X179518000Y-35493250D01*
X179818980Y-36219881D01*
X180375119Y-36776020D01*
X181101750Y-37077000D01*
X181888250Y-37077000D01*
X182614881Y-36776020D01*
X183171020Y-36219881D01*
X183472000Y-35493250D01*
X183472000Y-34706750D01*
X183171020Y-33980119D01*
X182614881Y-33423980D01*
X181888250Y-33123000D01*
X181101750Y-33123000D01*
X180375119Y-33423980D01*
X179818980Y-33980119D01*
X179518000Y-34706750D01*
X176462000Y-34706750D01*
X176161020Y-33980119D01*
X175604881Y-33423980D01*
X174878250Y-33123000D01*
X174091750Y-33123000D01*
X173365119Y-33423980D01*
X172808980Y-33980119D01*
X172508000Y-34706750D01*
X170132000Y-34706750D01*
X170132000Y-34646750D01*
X169831020Y-33920119D01*
X169274881Y-33363980D01*
X168548250Y-33063000D01*
X167761750Y-33063000D01*
X167035119Y-33363980D01*
X166478980Y-33920119D01*
X166178000Y-34646750D01*
X163122000Y-34646750D01*
X162821020Y-33920119D01*
X162264881Y-33363980D01*
X161538250Y-33063000D01*
X160751750Y-33063000D01*
X160025119Y-33363980D01*
X159468980Y-33920119D01*
X159168000Y-34646750D01*
X151024000Y-34646750D01*
X151024000Y-34444750D01*
X150723020Y-33718119D01*
X150166881Y-33161980D01*
X149657701Y-32951071D01*
X194700694Y-32951071D01*
X195917583Y-33027631D01*
X197103313Y-33253821D01*
X198251350Y-33626840D01*
X199343581Y-34140805D01*
X200362780Y-34787609D01*
X201292874Y-35557049D01*
X202119204Y-36437001D01*
X202828726Y-37413573D01*
X203410259Y-38471375D01*
X203854629Y-39593728D01*
X204154828Y-40762923D01*
X204306882Y-41966558D01*
X204325852Y-42570181D01*
X204325851Y-97451612D01*
X204184585Y-98007756D01*
X203917661Y-98519372D01*
X203540200Y-98955859D01*
X203072447Y-99293806D01*
X202539496Y-99515082D01*
X201951943Y-99610747D01*
X201852602Y-99613000D01*
X145852279Y-99613000D01*
X145229282Y-99540366D01*
X144660978Y-99334082D01*
X144155369Y-99002589D01*
X143739587Y-98563680D01*
X143435925Y-98040887D01*
X143394296Y-97903439D01*
X160371000Y-97903439D01*
X160371000Y-98356561D01*
X160544403Y-98775191D01*
X160864809Y-99095597D01*
X161283439Y-99269000D01*
X161736561Y-99269000D01*
X162155191Y-99095597D01*
X162475597Y-98775191D01*
X162649000Y-98356561D01*
X162649000Y-97903439D01*
X162911000Y-97903439D01*
X162911000Y-98356561D01*
X163084403Y-98775191D01*
X163404809Y-99095597D01*
X163823439Y-99269000D01*
X164276561Y-99269000D01*
X164695191Y-99095597D01*
X165015597Y-98775191D01*
X165189000Y-98356561D01*
X165189000Y-97903439D01*
X167991000Y-97903439D01*
X167991000Y-98356561D01*
X168164403Y-98775191D01*
X168484809Y-99095597D01*
X168903439Y-99269000D01*
X169356561Y-99269000D01*
X169775191Y-99095597D01*
X170095597Y-98775191D01*
X170269000Y-98356561D01*
X170269000Y-97903439D01*
X170531000Y-97903439D01*
X170531000Y-98356561D01*
X170704403Y-98775191D01*
X171024809Y-99095597D01*
X171443439Y-99269000D01*
X171896561Y-99269000D01*
X172315191Y-99095597D01*
X172635597Y-98775191D01*
X172809000Y-98356561D01*
X172809000Y-97903439D01*
X172635597Y-97484809D01*
X172315191Y-97164403D01*
X171896561Y-96991000D01*
X171443439Y-96991000D01*
X171024809Y-97164403D01*
X170704403Y-97484809D01*
X170531000Y-97903439D01*
X170269000Y-97903439D01*
X170095597Y-97484809D01*
X169775191Y-97164403D01*
X169356561Y-96991000D01*
X168903439Y-96991000D01*
X168484809Y-97164403D01*
X168164403Y-97484809D01*
X167991000Y-97903439D01*
X165189000Y-97903439D01*
X165015597Y-97484809D01*
X164695191Y-97164403D01*
X164276561Y-96991000D01*
X163823439Y-96991000D01*
X163404809Y-97164403D01*
X163084403Y-97484809D01*
X162911000Y-97903439D01*
X162649000Y-97903439D01*
X162475597Y-97484809D01*
X162155191Y-97164403D01*
X161736561Y-96991000D01*
X161283439Y-96991000D01*
X160864809Y-97164403D01*
X160544403Y-97484809D01*
X160371000Y-97903439D01*
X143394296Y-97903439D01*
X143259139Y-97457187D01*
X143216798Y-96982764D01*
X143216798Y-96363602D01*
X186511000Y-96363602D01*
X186511000Y-96876398D01*
X186707239Y-97350160D01*
X187069840Y-97712761D01*
X187543602Y-97909000D01*
X188056398Y-97909000D01*
X188530160Y-97712761D01*
X188892761Y-97350160D01*
X189070000Y-96922268D01*
X189247239Y-97350160D01*
X189609840Y-97712761D01*
X190083602Y-97909000D01*
X190596398Y-97909000D01*
X191070160Y-97712761D01*
X191432761Y-97350160D01*
X191629000Y-96876398D01*
X191629000Y-96363602D01*
X191432761Y-95889840D01*
X191070160Y-95527239D01*
X190596398Y-95331000D01*
X190083602Y-95331000D01*
X189609840Y-95527239D01*
X189247239Y-95889840D01*
X189070000Y-96317732D01*
X188892761Y-95889840D01*
X188530160Y-95527239D01*
X188056398Y-95331000D01*
X187543602Y-95331000D01*
X187069840Y-95527239D01*
X186707239Y-95889840D01*
X186511000Y-96363602D01*
X143216798Y-96363602D01*
X143216798Y-92565336D01*
X161203000Y-92565336D01*
X161203000Y-92834664D01*
X161306067Y-93083490D01*
X161496510Y-93273933D01*
X161745336Y-93377000D01*
X162014664Y-93377000D01*
X162263490Y-93273933D01*
X162453933Y-93083490D01*
X162503934Y-92962777D01*
X163578438Y-91888273D01*
X194083000Y-91888273D01*
X194083000Y-93231727D01*
X194597118Y-94472917D01*
X195547083Y-95422882D01*
X196788273Y-95937000D01*
X198131727Y-95937000D01*
X199372917Y-95422882D01*
X200322882Y-94472917D01*
X200837000Y-93231727D01*
X200837000Y-91888273D01*
X200322882Y-90647083D01*
X199372917Y-89697118D01*
X198131727Y-89183000D01*
X196788273Y-89183000D01*
X195547083Y-89697118D01*
X194597118Y-90647083D01*
X194083000Y-91888273D01*
X163578438Y-91888273D01*
X163830352Y-91636360D01*
X164053490Y-91543933D01*
X164243933Y-91353490D01*
X164347000Y-91104664D01*
X164347000Y-90835336D01*
X164243933Y-90586510D01*
X164053490Y-90396067D01*
X163804664Y-90293000D01*
X163535336Y-90293000D01*
X163286510Y-90396067D01*
X163096067Y-90586510D01*
X163088493Y-90604795D01*
X161617223Y-92076066D01*
X161496510Y-92126067D01*
X161306067Y-92316510D01*
X161203000Y-92565336D01*
X143216798Y-92565336D01*
X143216798Y-86054370D01*
X143213419Y-86037381D01*
X143210957Y-86009801D01*
X143329865Y-86128709D01*
X143615445Y-86247000D01*
X143924555Y-86247000D01*
X144210135Y-86128709D01*
X144423508Y-85915336D01*
X147053000Y-85915336D01*
X147053000Y-86184664D01*
X147156067Y-86433490D01*
X147346510Y-86623933D01*
X147595336Y-86727000D01*
X147864664Y-86727000D01*
X148113490Y-86623933D01*
X148205000Y-86532423D01*
X148336510Y-86663933D01*
X148585336Y-86767000D01*
X148854664Y-86767000D01*
X149054557Y-86684202D01*
X149103884Y-86932188D01*
X149297719Y-87222281D01*
X149301788Y-87225000D01*
X149297719Y-87227719D01*
X149103884Y-87517812D01*
X149035819Y-87860000D01*
X149103884Y-88202188D01*
X149297719Y-88492281D01*
X149301788Y-88495000D01*
X149297719Y-88497719D01*
X149103884Y-88787812D01*
X149035819Y-89130000D01*
X149103884Y-89472188D01*
X149297719Y-89762281D01*
X149301788Y-89765000D01*
X149297719Y-89767719D01*
X149103884Y-90057812D01*
X149035819Y-90400000D01*
X149103884Y-90742188D01*
X149297719Y-91032281D01*
X149587812Y-91226116D01*
X149843625Y-91277000D01*
X150016375Y-91277000D01*
X150272188Y-91226116D01*
X150405135Y-91137283D01*
X150428199Y-91171801D01*
X150552902Y-91255125D01*
X150700000Y-91284385D01*
X151700000Y-91284385D01*
X151847098Y-91255125D01*
X151971801Y-91171801D01*
X152055125Y-91047098D01*
X152084385Y-90900000D01*
X152084385Y-89900000D01*
X152055125Y-89752902D01*
X151971801Y-89628199D01*
X151847098Y-89544875D01*
X151700000Y-89515615D01*
X150727099Y-89515615D01*
X150756116Y-89472188D01*
X150824181Y-89130000D01*
X150756116Y-88787812D01*
X150741098Y-88765336D01*
X177033000Y-88765336D01*
X177033000Y-89034664D01*
X177136067Y-89283490D01*
X177326510Y-89473933D01*
X177575336Y-89577000D01*
X177844664Y-89577000D01*
X178093490Y-89473933D01*
X178190423Y-89377000D01*
X182822421Y-89377000D01*
X183369494Y-89924074D01*
X183396103Y-89963897D01*
X183553884Y-90069323D01*
X183693025Y-90097000D01*
X183693029Y-90097000D01*
X183740000Y-90106343D01*
X183786971Y-90097000D01*
X183809577Y-90097000D01*
X183906510Y-90193933D01*
X184155336Y-90297000D01*
X184424664Y-90297000D01*
X184673490Y-90193933D01*
X184863933Y-90003490D01*
X184967000Y-89754664D01*
X184967000Y-89485336D01*
X184863933Y-89236510D01*
X184673490Y-89046067D01*
X184424664Y-88943000D01*
X184155336Y-88943000D01*
X183906510Y-89046067D01*
X183873578Y-89078999D01*
X183390508Y-88595928D01*
X183363897Y-88556103D01*
X183206116Y-88450677D01*
X183066975Y-88423000D01*
X183066971Y-88423000D01*
X183020000Y-88413657D01*
X182973029Y-88423000D01*
X178190423Y-88423000D01*
X178093490Y-88326067D01*
X177844664Y-88223000D01*
X177575336Y-88223000D01*
X177326510Y-88326067D01*
X177136067Y-88516510D01*
X177033000Y-88765336D01*
X150741098Y-88765336D01*
X150562281Y-88497719D01*
X150558212Y-88495000D01*
X150562281Y-88492281D01*
X150756116Y-88202188D01*
X150824181Y-87860000D01*
X150756116Y-87517812D01*
X150562281Y-87227719D01*
X150558212Y-87225000D01*
X150562281Y-87222281D01*
X150565000Y-87218212D01*
X150567719Y-87222281D01*
X150857812Y-87416116D01*
X151113625Y-87467000D01*
X151286375Y-87467000D01*
X151542188Y-87416116D01*
X151678049Y-87325336D01*
X178863000Y-87325336D01*
X178863000Y-87594664D01*
X178966067Y-87843490D01*
X179156510Y-88033933D01*
X179405336Y-88137000D01*
X179674664Y-88137000D01*
X179795375Y-88087000D01*
X186194625Y-88087000D01*
X186315336Y-88137000D01*
X186584664Y-88137000D01*
X186833490Y-88033933D01*
X187023933Y-87843490D01*
X187127000Y-87594664D01*
X187127000Y-87325336D01*
X187023933Y-87076510D01*
X186833490Y-86886067D01*
X186584664Y-86783000D01*
X186315336Y-86783000D01*
X186194625Y-86833000D01*
X179795375Y-86833000D01*
X179674664Y-86783000D01*
X179405336Y-86783000D01*
X179156510Y-86886067D01*
X178966067Y-87076510D01*
X178863000Y-87325336D01*
X151678049Y-87325336D01*
X151832281Y-87222281D01*
X152026116Y-86932188D01*
X152094181Y-86590000D01*
X152026116Y-86247812D01*
X151832281Y-85957719D01*
X151828212Y-85955000D01*
X151832281Y-85952281D01*
X152026116Y-85662188D01*
X152094181Y-85320000D01*
X152026116Y-84977812D01*
X151832281Y-84687719D01*
X151542188Y-84493884D01*
X151286375Y-84443000D01*
X151113625Y-84443000D01*
X150857812Y-84493884D01*
X150567719Y-84687719D01*
X150565000Y-84691788D01*
X150562281Y-84687719D01*
X150272188Y-84493884D01*
X150016375Y-84443000D01*
X149843625Y-84443000D01*
X149587812Y-84493884D01*
X149516036Y-84541843D01*
X149577000Y-84394664D01*
X149577000Y-84125336D01*
X149473933Y-83876510D01*
X149283490Y-83686067D01*
X149034664Y-83583000D01*
X148765336Y-83583000D01*
X148516510Y-83686067D01*
X148455000Y-83747577D01*
X148373490Y-83666067D01*
X148124664Y-83563000D01*
X147855336Y-83563000D01*
X147606510Y-83666067D01*
X147416067Y-83856510D01*
X147313000Y-84105336D01*
X147313000Y-84275442D01*
X147300677Y-84293885D01*
X147273000Y-84433026D01*
X147273000Y-84433029D01*
X147263657Y-84480000D01*
X147273000Y-84526971D01*
X147273001Y-85549576D01*
X147156067Y-85666510D01*
X147053000Y-85915336D01*
X144423508Y-85915336D01*
X144428709Y-85910135D01*
X144547000Y-85624555D01*
X144547000Y-85315445D01*
X144428709Y-85029865D01*
X144397000Y-84998156D01*
X144397000Y-83591744D01*
X144409282Y-83529999D01*
X144397000Y-83468254D01*
X144397000Y-83468250D01*
X144360620Y-83285357D01*
X144222041Y-83077959D01*
X144169693Y-83042981D01*
X143260639Y-82133928D01*
X143485336Y-82227000D01*
X143754664Y-82227000D01*
X144003490Y-82123933D01*
X144193933Y-81933490D01*
X144297000Y-81684664D01*
X144297000Y-81415336D01*
X144193933Y-81166510D01*
X144003490Y-80976067D01*
X143754664Y-80873000D01*
X143485336Y-80873000D01*
X143236510Y-80976067D01*
X143046067Y-81166510D01*
X142943000Y-81415336D01*
X142943000Y-81684664D01*
X143036073Y-81909361D01*
X142907000Y-81780289D01*
X142907000Y-81735445D01*
X142788709Y-81449865D01*
X142570135Y-81231291D01*
X142284555Y-81113000D01*
X141975445Y-81113000D01*
X141689865Y-81231291D01*
X141471291Y-81449865D01*
X141353000Y-81735445D01*
X141353000Y-82044555D01*
X141471291Y-82330135D01*
X141689865Y-82548709D01*
X141975445Y-82667000D01*
X142020289Y-82667000D01*
X143143001Y-83789713D01*
X143143000Y-84998156D01*
X143111291Y-85029865D01*
X143061915Y-85149069D01*
X142951363Y-84784056D01*
X142943000Y-84764822D01*
X142937081Y-84744712D01*
X142915622Y-84701858D01*
X142566636Y-84101034D01*
X142554074Y-84084243D01*
X142543686Y-84066030D01*
X142512944Y-84029263D01*
X142035099Y-83524839D01*
X142019014Y-83511390D01*
X142004713Y-83496054D01*
X141966337Y-83467345D01*
X141385265Y-83086376D01*
X141366512Y-83076985D01*
X141349070Y-83065353D01*
X141305120Y-83046243D01*
X140651991Y-82809169D01*
X140631587Y-82804346D01*
X140611932Y-82797036D01*
X140564763Y-82788549D01*
X139890046Y-82709885D01*
X139867910Y-82705482D01*
X107798441Y-82705482D01*
X106705684Y-82562053D01*
X105645222Y-82268409D01*
X104635957Y-81830038D01*
X103697518Y-81255468D01*
X102848184Y-80555889D01*
X102104472Y-79744910D01*
X101480866Y-78838318D01*
X100989502Y-77853762D01*
X100639944Y-76810401D01*
X100438537Y-75726079D01*
X100387000Y-74821611D01*
X100387000Y-56545001D01*
X101950821Y-56545001D01*
X101968002Y-56631376D01*
X101968001Y-74090631D01*
X101950821Y-74177001D01*
X101968001Y-74263371D01*
X101968001Y-74263375D01*
X102018885Y-74519188D01*
X102212720Y-74809282D01*
X102285947Y-74858211D01*
X104968944Y-77541209D01*
X105185811Y-77686115D01*
X105394744Y-77727674D01*
X105422875Y-77869098D01*
X105506199Y-77993801D01*
X105630902Y-78077125D01*
X105778000Y-78106385D01*
X107502000Y-78106385D01*
X107649098Y-78077125D01*
X107773801Y-77993801D01*
X107857125Y-77869098D01*
X107886385Y-77722000D01*
X107886385Y-76603602D01*
X107891000Y-76603602D01*
X107891000Y-77116398D01*
X108087239Y-77590160D01*
X108449840Y-77952761D01*
X108923602Y-78149000D01*
X109436398Y-78149000D01*
X109787419Y-78003602D01*
X118321000Y-78003602D01*
X118321000Y-78516398D01*
X118517239Y-78990160D01*
X118879840Y-79352761D01*
X119353602Y-79549000D01*
X119866398Y-79549000D01*
X120340160Y-79352761D01*
X120702761Y-78990160D01*
X120899000Y-78516398D01*
X120899000Y-78003602D01*
X120702761Y-77529840D01*
X120570921Y-77398000D01*
X120903615Y-77398000D01*
X120903615Y-79122000D01*
X120932875Y-79269098D01*
X121016199Y-79393801D01*
X121140902Y-79477125D01*
X121288000Y-79506385D01*
X123012000Y-79506385D01*
X123159098Y-79477125D01*
X123283801Y-79393801D01*
X123367125Y-79269098D01*
X123396385Y-79122000D01*
X123396385Y-77398000D01*
X123367125Y-77250902D01*
X123283801Y-77126199D01*
X123159098Y-77042875D01*
X123012000Y-77013615D01*
X121288000Y-77013615D01*
X121140902Y-77042875D01*
X121016199Y-77126199D01*
X120932875Y-77250902D01*
X120903615Y-77398000D01*
X120570921Y-77398000D01*
X120340160Y-77167239D01*
X119866398Y-76971000D01*
X119353602Y-76971000D01*
X118879840Y-77167239D01*
X118517239Y-77529840D01*
X118321000Y-78003602D01*
X109787419Y-78003602D01*
X109910160Y-77952761D01*
X110272761Y-77590160D01*
X110469000Y-77116398D01*
X110469000Y-76695445D01*
X133173000Y-76695445D01*
X133173000Y-77004555D01*
X133291291Y-77290135D01*
X133509865Y-77508709D01*
X133795445Y-77627000D01*
X133818123Y-77627000D01*
X135403000Y-79322038D01*
X135403000Y-79594555D01*
X135521291Y-79880135D01*
X135739865Y-80098709D01*
X136025445Y-80217000D01*
X136334555Y-80217000D01*
X136620135Y-80098709D01*
X136838709Y-79880135D01*
X136957000Y-79594555D01*
X136957000Y-79285445D01*
X136838709Y-78999865D01*
X136620135Y-78781291D01*
X136610382Y-78777251D01*
X134727000Y-76762963D01*
X134727000Y-76695445D01*
X134608709Y-76409865D01*
X134390135Y-76191291D01*
X134104555Y-76073000D01*
X133795445Y-76073000D01*
X133509865Y-76191291D01*
X133291291Y-76409865D01*
X133173000Y-76695445D01*
X110469000Y-76695445D01*
X110469000Y-76603602D01*
X110272761Y-76129840D01*
X109910160Y-75767239D01*
X109436398Y-75571000D01*
X108923602Y-75571000D01*
X108449840Y-75767239D01*
X108087239Y-76129840D01*
X107891000Y-76603602D01*
X107886385Y-76603602D01*
X107886385Y-75998000D01*
X107857125Y-75850902D01*
X107773801Y-75726199D01*
X107649098Y-75642875D01*
X107502000Y-75613615D01*
X105778000Y-75613615D01*
X105630902Y-75642875D01*
X105583088Y-75674823D01*
X104168710Y-74260445D01*
X119963000Y-74260445D01*
X119963000Y-74569555D01*
X120081291Y-74855135D01*
X120166156Y-74940000D01*
X120081291Y-75024865D01*
X119963000Y-75310445D01*
X119963000Y-75619555D01*
X120081291Y-75905135D01*
X120299865Y-76123709D01*
X120585445Y-76242000D01*
X120894555Y-76242000D01*
X121180135Y-76123709D01*
X121361844Y-75942000D01*
X130628029Y-75942000D01*
X130675000Y-75951343D01*
X130721971Y-75942000D01*
X130721975Y-75942000D01*
X130861116Y-75914323D01*
X131018897Y-75808897D01*
X131045508Y-75769071D01*
X132269243Y-74545336D01*
X145803000Y-74545336D01*
X145803000Y-74814664D01*
X145906067Y-75063490D01*
X146096510Y-75253933D01*
X146345336Y-75357000D01*
X146482421Y-75357000D01*
X147028421Y-75903000D01*
X146835336Y-75903000D01*
X146586510Y-76006067D01*
X146396067Y-76196510D01*
X146293000Y-76445336D01*
X146293000Y-76714664D01*
X146396067Y-76963490D01*
X146586510Y-77153933D01*
X146835336Y-77257000D01*
X147104664Y-77257000D01*
X147353490Y-77153933D01*
X147480423Y-77027000D01*
X150939577Y-77027000D01*
X151036510Y-77123933D01*
X151285336Y-77227000D01*
X151342542Y-77227000D01*
X151296510Y-77246067D01*
X151106067Y-77436510D01*
X151003000Y-77685336D01*
X151003000Y-77954664D01*
X151095569Y-78178146D01*
X150953490Y-78036067D01*
X150704664Y-77933000D01*
X150435336Y-77933000D01*
X150186510Y-78036067D01*
X149996067Y-78226510D01*
X149893000Y-78475336D01*
X149893000Y-78744664D01*
X149987580Y-78973001D01*
X149757000Y-78742421D01*
X149757000Y-78605336D01*
X149653933Y-78356510D01*
X149463490Y-78166067D01*
X149214664Y-78063000D01*
X148945336Y-78063000D01*
X148696510Y-78166067D01*
X148506067Y-78356510D01*
X148403000Y-78605336D01*
X148403000Y-78874664D01*
X148506067Y-79123490D01*
X148696510Y-79313933D01*
X148945336Y-79417000D01*
X149082421Y-79417000D01*
X152629495Y-82964075D01*
X152656104Y-83003898D01*
X152695927Y-83030507D01*
X152813885Y-83109324D01*
X153000001Y-83146345D01*
X153046976Y-83137001D01*
X154523028Y-83137001D01*
X154569999Y-83146344D01*
X154616970Y-83137001D01*
X154616974Y-83137001D01*
X154756115Y-83109324D01*
X154913896Y-83003898D01*
X154940506Y-82964073D01*
X155047579Y-82857000D01*
X155184664Y-82857000D01*
X155433490Y-82753933D01*
X155472087Y-82715336D01*
X192103000Y-82715336D01*
X192103000Y-82984664D01*
X192206067Y-83233490D01*
X192396510Y-83423933D01*
X192645336Y-83527000D01*
X192914664Y-83527000D01*
X193163490Y-83423933D01*
X193353933Y-83233490D01*
X193457000Y-82984664D01*
X193457000Y-82715336D01*
X193407000Y-82594625D01*
X193407000Y-78833602D01*
X198531000Y-78833602D01*
X198531000Y-79346398D01*
X198727239Y-79820160D01*
X199089840Y-80182761D01*
X199517732Y-80360000D01*
X199089840Y-80537239D01*
X198727239Y-80899840D01*
X198531000Y-81373602D01*
X198531000Y-81886398D01*
X198727239Y-82360160D01*
X199089840Y-82722761D01*
X199517732Y-82900000D01*
X199089840Y-83077239D01*
X198727239Y-83439840D01*
X198531000Y-83913602D01*
X198531000Y-84426398D01*
X198727239Y-84900160D01*
X199089840Y-85262761D01*
X199563602Y-85459000D01*
X200076398Y-85459000D01*
X200550160Y-85262761D01*
X200912761Y-84900160D01*
X201109000Y-84426398D01*
X201109000Y-83913602D01*
X200912761Y-83439840D01*
X200550160Y-83077239D01*
X200122268Y-82900000D01*
X200550160Y-82722761D01*
X200912761Y-82360160D01*
X201109000Y-81886398D01*
X201109000Y-81373602D01*
X200912761Y-80899840D01*
X200550160Y-80537239D01*
X200122268Y-80360000D01*
X200550160Y-80182761D01*
X200912761Y-79820160D01*
X201109000Y-79346398D01*
X201109000Y-78833602D01*
X200912761Y-78359840D01*
X200550160Y-77997239D01*
X200076398Y-77801000D01*
X199563602Y-77801000D01*
X199089840Y-77997239D01*
X198727239Y-78359840D01*
X198531000Y-78833602D01*
X193407000Y-78833602D01*
X193407000Y-78259711D01*
X193561565Y-78105147D01*
X193733490Y-78033933D01*
X193923933Y-77843490D01*
X194027000Y-77594664D01*
X194027000Y-77325336D01*
X193923933Y-77076510D01*
X193733490Y-76886067D01*
X193484664Y-76783000D01*
X193215336Y-76783000D01*
X192966510Y-76886067D01*
X192776067Y-77076510D01*
X192747280Y-77146008D01*
X192380307Y-77512982D01*
X192327960Y-77547959D01*
X192292982Y-77600307D01*
X192292981Y-77600308D01*
X192189380Y-77755358D01*
X192140718Y-78000000D01*
X192153001Y-78061751D01*
X192153000Y-82594625D01*
X192103000Y-82715336D01*
X155472087Y-82715336D01*
X155623933Y-82563490D01*
X155727000Y-82314664D01*
X155727000Y-82045336D01*
X155623933Y-81796510D01*
X155433490Y-81606067D01*
X155184664Y-81503000D01*
X154915336Y-81503000D01*
X154666510Y-81606067D01*
X154545061Y-81727516D01*
X154523933Y-81676510D01*
X154334702Y-81487279D01*
X154463490Y-81433933D01*
X154653933Y-81243490D01*
X154757000Y-80994664D01*
X154757000Y-80725336D01*
X154653933Y-80476510D01*
X154463490Y-80286067D01*
X154285204Y-80212219D01*
X154403933Y-80093490D01*
X154507000Y-79844664D01*
X154507000Y-79575336D01*
X154403933Y-79326510D01*
X154213490Y-79136067D01*
X153964664Y-79033000D01*
X153827580Y-79033000D01*
X153649916Y-78855336D01*
X154973000Y-78855336D01*
X154973000Y-79124664D01*
X155076067Y-79373490D01*
X155266510Y-79563933D01*
X155515336Y-79667000D01*
X155652420Y-79667000D01*
X155939493Y-79954073D01*
X155966103Y-79993897D01*
X156123884Y-80099323D01*
X156263025Y-80127000D01*
X156263029Y-80127000D01*
X156310000Y-80136343D01*
X156356971Y-80127000D01*
X160662752Y-80127000D01*
X160713025Y-80137000D01*
X160713028Y-80137000D01*
X160759999Y-80146343D01*
X160806970Y-80137000D01*
X161119577Y-80137000D01*
X161216510Y-80233933D01*
X161465336Y-80337000D01*
X161734664Y-80337000D01*
X161983490Y-80233933D01*
X162093984Y-80123439D01*
X162911000Y-80123439D01*
X162911000Y-80576561D01*
X163084403Y-80995191D01*
X163404809Y-81315597D01*
X163823439Y-81489000D01*
X164276561Y-81489000D01*
X164695191Y-81315597D01*
X165015597Y-80995191D01*
X165189000Y-80576561D01*
X165189000Y-80123439D01*
X165451000Y-80123439D01*
X165451000Y-80576561D01*
X165624403Y-80995191D01*
X165944809Y-81315597D01*
X166363439Y-81489000D01*
X166816561Y-81489000D01*
X167235191Y-81315597D01*
X167555597Y-80995191D01*
X167729000Y-80576561D01*
X167729000Y-80123439D01*
X167991000Y-80123439D01*
X167991000Y-80576561D01*
X168164403Y-80995191D01*
X168484809Y-81315597D01*
X168903439Y-81489000D01*
X169356561Y-81489000D01*
X169775191Y-81315597D01*
X170095597Y-80995191D01*
X170269000Y-80576561D01*
X170269000Y-80123439D01*
X170531000Y-80123439D01*
X170531000Y-80576561D01*
X170704403Y-80995191D01*
X171024809Y-81315597D01*
X171443439Y-81489000D01*
X171896561Y-81489000D01*
X172315191Y-81315597D01*
X172635597Y-80995191D01*
X172809000Y-80576561D01*
X172809000Y-80123439D01*
X172635597Y-79704809D01*
X172315191Y-79384403D01*
X171896561Y-79211000D01*
X171443439Y-79211000D01*
X171024809Y-79384403D01*
X170704403Y-79704809D01*
X170531000Y-80123439D01*
X170269000Y-80123439D01*
X170095597Y-79704809D01*
X169775191Y-79384403D01*
X169356561Y-79211000D01*
X168903439Y-79211000D01*
X168484809Y-79384403D01*
X168164403Y-79704809D01*
X167991000Y-80123439D01*
X167729000Y-80123439D01*
X167555597Y-79704809D01*
X167235191Y-79384403D01*
X166816561Y-79211000D01*
X166363439Y-79211000D01*
X165944809Y-79384403D01*
X165624403Y-79704809D01*
X165451000Y-80123439D01*
X165189000Y-80123439D01*
X165015597Y-79704809D01*
X164695191Y-79384403D01*
X164276561Y-79211000D01*
X163823439Y-79211000D01*
X163404809Y-79384403D01*
X163084403Y-79704809D01*
X162911000Y-80123439D01*
X162093984Y-80123439D01*
X162173933Y-80043490D01*
X162277000Y-79794664D01*
X162277000Y-79525336D01*
X162173933Y-79276510D01*
X161983490Y-79086067D01*
X161734664Y-78983000D01*
X161610410Y-78983000D01*
X161647000Y-78894664D01*
X161647000Y-78625336D01*
X161543933Y-78376510D01*
X161353490Y-78186067D01*
X161104664Y-78083000D01*
X160835336Y-78083000D01*
X160586510Y-78186067D01*
X160396067Y-78376510D01*
X160342513Y-78505801D01*
X157048131Y-78505801D01*
X156962601Y-78299312D01*
X156772158Y-78108869D01*
X156523332Y-78005802D01*
X156254004Y-78005802D01*
X156005178Y-78108869D01*
X155814735Y-78299312D01*
X155805492Y-78321627D01*
X155784664Y-78313000D01*
X155515336Y-78313000D01*
X155266510Y-78416067D01*
X155076067Y-78606510D01*
X154973000Y-78855336D01*
X153649916Y-78855336D01*
X153237000Y-78442421D01*
X153237000Y-78230423D01*
X153333933Y-78133490D01*
X153437000Y-77884664D01*
X153437000Y-77615336D01*
X153333933Y-77366510D01*
X153143490Y-77176067D01*
X152894664Y-77073000D01*
X152625336Y-77073000D01*
X152376510Y-77176067D01*
X152186067Y-77366510D01*
X152185442Y-77368019D01*
X152063490Y-77246067D01*
X151814664Y-77143000D01*
X151757458Y-77143000D01*
X151803490Y-77123933D01*
X151993933Y-76933490D01*
X152097000Y-76684664D01*
X152097000Y-76415336D01*
X151993933Y-76166510D01*
X151910768Y-76083345D01*
X151933490Y-76073933D01*
X152123933Y-75883490D01*
X152227000Y-75634664D01*
X152227000Y-75365336D01*
X152137263Y-75148690D01*
X152268198Y-75017755D01*
X152371265Y-74768929D01*
X152371265Y-74499601D01*
X152268198Y-74250775D01*
X152162596Y-74145173D01*
X153753000Y-74145173D01*
X153753000Y-74354827D01*
X153833231Y-74548522D01*
X153981478Y-74696769D01*
X154109989Y-74750000D01*
X153981478Y-74803231D01*
X153833231Y-74951478D01*
X153753000Y-75145173D01*
X153753000Y-75354827D01*
X153833231Y-75548522D01*
X153981478Y-75696769D01*
X154109989Y-75750000D01*
X153981478Y-75803231D01*
X153833231Y-75951478D01*
X153753000Y-76145173D01*
X153753000Y-76354827D01*
X153833231Y-76548522D01*
X153981478Y-76696769D01*
X154175173Y-76777000D01*
X154384827Y-76777000D01*
X154578522Y-76696769D01*
X154726769Y-76548522D01*
X154780000Y-76420011D01*
X154833231Y-76548522D01*
X154981478Y-76696769D01*
X155175173Y-76777000D01*
X155384827Y-76777000D01*
X155578522Y-76696769D01*
X155726769Y-76548522D01*
X155780000Y-76420011D01*
X155833231Y-76548522D01*
X155981478Y-76696769D01*
X156175173Y-76777000D01*
X156384827Y-76777000D01*
X156578522Y-76696769D01*
X156726769Y-76548522D01*
X156807000Y-76354827D01*
X156807000Y-76145173D01*
X156726769Y-75951478D01*
X156578522Y-75803231D01*
X156450011Y-75750000D01*
X156578522Y-75696769D01*
X156726769Y-75548522D01*
X156807000Y-75354827D01*
X156807000Y-75145173D01*
X156726769Y-74951478D01*
X156578522Y-74803231D01*
X156450011Y-74750000D01*
X156578522Y-74696769D01*
X156726769Y-74548522D01*
X156807000Y-74354827D01*
X156807000Y-74145173D01*
X156726769Y-73951478D01*
X156578522Y-73803231D01*
X156384827Y-73723000D01*
X156175173Y-73723000D01*
X155981478Y-73803231D01*
X155833231Y-73951478D01*
X155780000Y-74079989D01*
X155726769Y-73951478D01*
X155578522Y-73803231D01*
X155384827Y-73723000D01*
X155175173Y-73723000D01*
X154981478Y-73803231D01*
X154833231Y-73951478D01*
X154780000Y-74079989D01*
X154726769Y-73951478D01*
X154578522Y-73803231D01*
X154384827Y-73723000D01*
X154175173Y-73723000D01*
X153981478Y-73803231D01*
X153833231Y-73951478D01*
X153753000Y-74145173D01*
X152162596Y-74145173D01*
X152077755Y-74060332D01*
X151828929Y-73957265D01*
X151691845Y-73957265D01*
X149679969Y-71945390D01*
X149709487Y-71939518D01*
X155036931Y-71939518D01*
X155133864Y-72036451D01*
X155382690Y-72139518D01*
X155398137Y-72139518D01*
X155244655Y-72293000D01*
X152770423Y-72293000D01*
X152673490Y-72196067D01*
X152424664Y-72093000D01*
X152155336Y-72093000D01*
X151906510Y-72196067D01*
X151716067Y-72386510D01*
X151613000Y-72635336D01*
X151613000Y-72904664D01*
X151716067Y-73153490D01*
X151906510Y-73343933D01*
X152155336Y-73447000D01*
X152424664Y-73447000D01*
X152673490Y-73343933D01*
X152770423Y-73247000D01*
X155395263Y-73247000D01*
X155442234Y-73256343D01*
X155489205Y-73247000D01*
X155489209Y-73247000D01*
X155628350Y-73219323D01*
X155786131Y-73113897D01*
X155812742Y-73074071D01*
X156664854Y-72221960D01*
X156704676Y-72195352D01*
X156735648Y-72149000D01*
X156810102Y-72037571D01*
X156813218Y-72021906D01*
X157026105Y-72110087D01*
X157048031Y-72110087D01*
X157048031Y-72134873D01*
X157151098Y-72383699D01*
X157341541Y-72574142D01*
X157590367Y-72677209D01*
X157852053Y-72677209D01*
X157915761Y-72831013D01*
X158106204Y-73021456D01*
X158287716Y-73096641D01*
X158287716Y-73225905D01*
X158390783Y-73474731D01*
X158488713Y-73572661D01*
X158416875Y-73746094D01*
X158416875Y-74015422D01*
X158519942Y-74264248D01*
X158561673Y-74305979D01*
X158462755Y-74544790D01*
X158462755Y-74814118D01*
X158565822Y-75062944D01*
X158588029Y-75085151D01*
X158577286Y-75095894D01*
X158474219Y-75344720D01*
X158474219Y-75614048D01*
X158538325Y-75768813D01*
X158425720Y-75881418D01*
X158322653Y-76130244D01*
X158322653Y-76399572D01*
X158425720Y-76648398D01*
X158616163Y-76838841D01*
X158864989Y-76941908D01*
X159013897Y-76941908D01*
X159096222Y-76996916D01*
X159235363Y-77024593D01*
X159235367Y-77024593D01*
X159282338Y-77033936D01*
X159329309Y-77024593D01*
X163435435Y-77024593D01*
X163482406Y-77033936D01*
X163529377Y-77024593D01*
X163529381Y-77024593D01*
X163668522Y-76996916D01*
X163680993Y-76988583D01*
X163720001Y-76996342D01*
X163766972Y-76986999D01*
X163766976Y-76986999D01*
X163906117Y-76959322D01*
X164063898Y-76853896D01*
X164090509Y-76814070D01*
X164367579Y-76537000D01*
X164504664Y-76537000D01*
X164753490Y-76433933D01*
X164943933Y-76243490D01*
X165047000Y-75994664D01*
X165047000Y-75725336D01*
X164943933Y-75476510D01*
X164753490Y-75286067D01*
X164504664Y-75183000D01*
X164235336Y-75183000D01*
X163986510Y-75286067D01*
X163796067Y-75476510D01*
X163693000Y-75725336D01*
X163693000Y-75862421D01*
X163529813Y-76025608D01*
X163520000Y-76023656D01*
X163473029Y-76032999D01*
X163473025Y-76032999D01*
X163333884Y-76060676D01*
X163319042Y-76070593D01*
X161991989Y-76070593D01*
X162084074Y-75978508D01*
X162123897Y-75951899D01*
X162169607Y-75883490D01*
X162229323Y-75794118D01*
X162234255Y-75769323D01*
X162257000Y-75654977D01*
X162257000Y-75654974D01*
X162266343Y-75608003D01*
X162257000Y-75561032D01*
X162257000Y-72125337D01*
X170593000Y-72125337D01*
X170593000Y-72394665D01*
X170696067Y-72643491D01*
X170886510Y-72833934D01*
X171135336Y-72937001D01*
X171404664Y-72937001D01*
X171653490Y-72833934D01*
X171843933Y-72643491D01*
X171947000Y-72394665D01*
X171947000Y-72167579D01*
X172377580Y-71737000D01*
X172514664Y-71737000D01*
X172763490Y-71633933D01*
X172953933Y-71443490D01*
X173057000Y-71194664D01*
X173057000Y-70925336D01*
X172953933Y-70676510D01*
X172763490Y-70486067D01*
X172514664Y-70383000D01*
X172245336Y-70383000D01*
X171996510Y-70486067D01*
X171806067Y-70676510D01*
X171703000Y-70925336D01*
X171703000Y-71062420D01*
X171182420Y-71583001D01*
X171135336Y-71583001D01*
X170886510Y-71686068D01*
X170696067Y-71876511D01*
X170593000Y-72125337D01*
X162257000Y-72125337D01*
X162257000Y-71446975D01*
X162266344Y-71400000D01*
X162229323Y-71213884D01*
X162150506Y-71095926D01*
X162123897Y-71056103D01*
X162117000Y-71051495D01*
X162117000Y-70925336D01*
X162063842Y-70797000D01*
X165942421Y-70797000D01*
X166433000Y-71287580D01*
X166433000Y-71424664D01*
X166536067Y-71673490D01*
X166726510Y-71863933D01*
X166975336Y-71967000D01*
X167244664Y-71967000D01*
X167493490Y-71863933D01*
X167683933Y-71673490D01*
X167787000Y-71424664D01*
X167787000Y-71155336D01*
X167683933Y-70906510D01*
X167493490Y-70716067D01*
X167244664Y-70613000D01*
X167107580Y-70613000D01*
X166539916Y-70045336D01*
X195583000Y-70045336D01*
X195583000Y-70314664D01*
X195686067Y-70563490D01*
X195876510Y-70753933D01*
X196125336Y-70857000D01*
X196394664Y-70857000D01*
X196643490Y-70753933D01*
X196740423Y-70657000D01*
X198133029Y-70657000D01*
X198180000Y-70666343D01*
X198226971Y-70657000D01*
X198226975Y-70657000D01*
X198366116Y-70629323D01*
X198523897Y-70523897D01*
X198550508Y-70484071D01*
X199530442Y-69504138D01*
X199737732Y-69590000D01*
X199309840Y-69767239D01*
X198947239Y-70129840D01*
X198751000Y-70603602D01*
X198751000Y-71116398D01*
X198947239Y-71590160D01*
X199309840Y-71952761D01*
X199783602Y-72149000D01*
X200296398Y-72149000D01*
X200770160Y-71952761D01*
X201132761Y-71590160D01*
X201329000Y-71116398D01*
X201329000Y-70603602D01*
X201132761Y-70129840D01*
X200770160Y-69767239D01*
X200342268Y-69590000D01*
X200770160Y-69412761D01*
X201132761Y-69050160D01*
X201329000Y-68576398D01*
X201329000Y-68063602D01*
X201132761Y-67589840D01*
X200770160Y-67227239D01*
X200296398Y-67031000D01*
X199783602Y-67031000D01*
X199309840Y-67227239D01*
X198947239Y-67589840D01*
X198751000Y-68063602D01*
X198751000Y-68576398D01*
X198855862Y-68829558D01*
X197982421Y-69703000D01*
X196740423Y-69703000D01*
X196643490Y-69606067D01*
X196394664Y-69503000D01*
X196125336Y-69503000D01*
X195876510Y-69606067D01*
X195686067Y-69796510D01*
X195583000Y-70045336D01*
X166539916Y-70045336D01*
X166510508Y-70015929D01*
X166483897Y-69976103D01*
X166326116Y-69870677D01*
X166186975Y-69843000D01*
X166186971Y-69843000D01*
X166140000Y-69833657D01*
X166093029Y-69843000D01*
X159816969Y-69843000D01*
X159769999Y-69833657D01*
X159723029Y-69843000D01*
X159723025Y-69843000D01*
X159583884Y-69870677D01*
X159426103Y-69976103D01*
X159399494Y-70015926D01*
X158024109Y-71391312D01*
X157859695Y-71323209D01*
X157837769Y-71323209D01*
X157837769Y-71298423D01*
X157734702Y-71049597D01*
X157637769Y-70952664D01*
X157637769Y-70262003D01*
X157647112Y-70215032D01*
X157637769Y-70168059D01*
X157637769Y-70168058D01*
X157610092Y-70028917D01*
X157504666Y-69871136D01*
X157464843Y-69844528D01*
X157251469Y-69631154D01*
X157337000Y-69424664D01*
X157337000Y-69155336D01*
X157233933Y-68906510D01*
X157043490Y-68716067D01*
X156794664Y-68613000D01*
X156525336Y-68613000D01*
X156276510Y-68716067D01*
X156086067Y-68906510D01*
X155983000Y-69155336D01*
X155983000Y-69424664D01*
X156086067Y-69673490D01*
X156185281Y-69772704D01*
X156186350Y-69778079D01*
X156210677Y-69900379D01*
X156282005Y-70007128D01*
X156316104Y-70058161D01*
X156355926Y-70084769D01*
X156683769Y-70412613D01*
X156683770Y-70828198D01*
X156495443Y-70750191D01*
X156226115Y-70750191D01*
X155977289Y-70853258D01*
X155921403Y-70909144D01*
X155900844Y-70888585D01*
X155652018Y-70785518D01*
X155382690Y-70785518D01*
X155133864Y-70888585D01*
X155036931Y-70985518D01*
X149860097Y-70985518D01*
X148847000Y-69972421D01*
X148847000Y-69247748D01*
X149073490Y-69153933D01*
X149263933Y-68963490D01*
X149367000Y-68714664D01*
X149367000Y-68445336D01*
X149263933Y-68196510D01*
X149073490Y-68006067D01*
X148824664Y-67903000D01*
X148555336Y-67903000D01*
X148306510Y-68006067D01*
X148262020Y-68050557D01*
X148216646Y-67941015D01*
X147998072Y-67722441D01*
X147712492Y-67604150D01*
X147403382Y-67604150D01*
X147117802Y-67722441D01*
X146899228Y-67941015D01*
X146780937Y-68226595D01*
X146780937Y-68535705D01*
X146899228Y-68821285D01*
X147072001Y-68994058D01*
X147072000Y-69957156D01*
X146915291Y-70113865D01*
X146797000Y-70399445D01*
X146797000Y-70708555D01*
X146915291Y-70994135D01*
X147133865Y-71212709D01*
X147419445Y-71331000D01*
X147716421Y-71331000D01*
X151017265Y-74631845D01*
X151017265Y-74768929D01*
X151107002Y-74985575D01*
X150976067Y-75116510D01*
X150873000Y-75365336D01*
X150873000Y-75413000D01*
X147887579Y-75413000D01*
X147157000Y-74682421D01*
X147157000Y-74545336D01*
X147053933Y-74296510D01*
X146863490Y-74106067D01*
X146614664Y-74003000D01*
X146345336Y-74003000D01*
X146096510Y-74106067D01*
X145906067Y-74296510D01*
X145803000Y-74545336D01*
X132269243Y-74545336D01*
X132417580Y-74397000D01*
X132674555Y-74397000D01*
X132960135Y-74278709D01*
X133178709Y-74060135D01*
X133297000Y-73774555D01*
X133297000Y-73465445D01*
X133178709Y-73179865D01*
X132973844Y-72975000D01*
X133138709Y-72810135D01*
X133257000Y-72524555D01*
X133257000Y-72215445D01*
X133138709Y-71929865D01*
X132920135Y-71711291D01*
X132634555Y-71593000D01*
X132325445Y-71593000D01*
X132039865Y-71711291D01*
X131821291Y-71929865D01*
X131815981Y-71942685D01*
X131706103Y-72016103D01*
X131679494Y-72055926D01*
X129797421Y-73938000D01*
X121361844Y-73938000D01*
X121180135Y-73756291D01*
X120894555Y-73638000D01*
X120585445Y-73638000D01*
X120299865Y-73756291D01*
X120081291Y-73974865D01*
X119963000Y-74260445D01*
X104168710Y-74260445D01*
X103722001Y-73813737D01*
X103722001Y-68905499D01*
X105163000Y-68905499D01*
X105163000Y-69234501D01*
X105288903Y-69538458D01*
X105521542Y-69771097D01*
X105825499Y-69897000D01*
X106154501Y-69897000D01*
X106458458Y-69771097D01*
X106691097Y-69538458D01*
X106817000Y-69234501D01*
X106817000Y-68905499D01*
X106691097Y-68601542D01*
X106458458Y-68368903D01*
X106154501Y-68243000D01*
X105825499Y-68243000D01*
X105521542Y-68368903D01*
X105288903Y-68601542D01*
X105163000Y-68905499D01*
X103722001Y-68905499D01*
X103722001Y-64505499D01*
X105163000Y-64505499D01*
X105163000Y-64834501D01*
X105288903Y-65138458D01*
X105521542Y-65371097D01*
X105825499Y-65497000D01*
X106154501Y-65497000D01*
X106458458Y-65371097D01*
X106691097Y-65138458D01*
X106817000Y-64834501D01*
X106817000Y-64505499D01*
X106691097Y-64201542D01*
X106458458Y-63968903D01*
X106154501Y-63843000D01*
X105825499Y-63843000D01*
X105521542Y-63968903D01*
X105288903Y-64201542D01*
X105163000Y-64505499D01*
X103722001Y-64505499D01*
X103722001Y-56908266D01*
X104033267Y-56597000D01*
X104100931Y-56597000D01*
X104114875Y-56667098D01*
X104198199Y-56791801D01*
X104322902Y-56875125D01*
X104470000Y-56904385D01*
X106070000Y-56904385D01*
X106217098Y-56875125D01*
X106341801Y-56791801D01*
X106425125Y-56667098D01*
X106454385Y-56520000D01*
X106454385Y-54930000D01*
X112245615Y-54930000D01*
X112245615Y-56530000D01*
X112274875Y-56677098D01*
X112358199Y-56801801D01*
X112482902Y-56885125D01*
X112630000Y-56914385D01*
X114230000Y-56914385D01*
X114377098Y-56885125D01*
X114501801Y-56801801D01*
X114585125Y-56677098D01*
X114614385Y-56530000D01*
X114614385Y-54930000D01*
X114585125Y-54782902D01*
X114501801Y-54658199D01*
X114377098Y-54574875D01*
X114230000Y-54545615D01*
X112630000Y-54545615D01*
X112482902Y-54574875D01*
X112358199Y-54658199D01*
X112274875Y-54782902D01*
X112245615Y-54930000D01*
X106454385Y-54930000D01*
X106454385Y-54920000D01*
X106425125Y-54772902D01*
X106341801Y-54648199D01*
X106217098Y-54564875D01*
X106070000Y-54535615D01*
X104470000Y-54535615D01*
X104322902Y-54564875D01*
X104198199Y-54648199D01*
X104114875Y-54772902D01*
X104100931Y-54843000D01*
X103756372Y-54843000D01*
X103670002Y-54825820D01*
X103583632Y-54843000D01*
X103583627Y-54843000D01*
X103327814Y-54893884D01*
X103327812Y-54893885D01*
X103327813Y-54893885D01*
X103110945Y-55038791D01*
X103110942Y-55038794D01*
X103037721Y-55087719D01*
X102988796Y-55160941D01*
X102285944Y-55863794D01*
X102212721Y-55912720D01*
X102163794Y-55985944D01*
X102163793Y-55985945D01*
X102018886Y-56202813D01*
X101950821Y-56545001D01*
X100387000Y-56545001D01*
X100387000Y-48670000D01*
X105145615Y-48670000D01*
X105145615Y-50270000D01*
X105174875Y-50417098D01*
X105258199Y-50541801D01*
X105382902Y-50625125D01*
X105530000Y-50654385D01*
X107130000Y-50654385D01*
X107277098Y-50625125D01*
X107401801Y-50541801D01*
X107485125Y-50417098D01*
X107514385Y-50270000D01*
X107514385Y-50086750D01*
X110378000Y-50086750D01*
X110378000Y-50873250D01*
X110678980Y-51599881D01*
X111235119Y-52156020D01*
X111961750Y-52457000D01*
X112748250Y-52457000D01*
X113474881Y-52156020D01*
X114031020Y-51599881D01*
X114332000Y-50873250D01*
X114332000Y-50086750D01*
X117388000Y-50086750D01*
X117388000Y-50873250D01*
X117688980Y-51599881D01*
X118245119Y-52156020D01*
X118971750Y-52457000D01*
X119758250Y-52457000D01*
X120484881Y-52156020D01*
X121041020Y-51599881D01*
X121342000Y-50873250D01*
X121342000Y-50086750D01*
X121041020Y-49360119D01*
X120484881Y-48803980D01*
X119758250Y-48503000D01*
X118971750Y-48503000D01*
X118245119Y-48803980D01*
X117688980Y-49360119D01*
X117388000Y-50086750D01*
X114332000Y-50086750D01*
X114031020Y-49360119D01*
X113474881Y-48803980D01*
X112748250Y-48503000D01*
X111961750Y-48503000D01*
X111235119Y-48803980D01*
X110678980Y-49360119D01*
X110378000Y-50086750D01*
X107514385Y-50086750D01*
X107514385Y-48670000D01*
X107485125Y-48522902D01*
X107401801Y-48398199D01*
X107277098Y-48314875D01*
X107130000Y-48285615D01*
X105530000Y-48285615D01*
X105382902Y-48314875D01*
X105258199Y-48398199D01*
X105174875Y-48522902D01*
X105145615Y-48670000D01*
X100387000Y-48670000D01*
X100387000Y-45086750D01*
X110378000Y-45086750D01*
X110378000Y-45873250D01*
X110678980Y-46599881D01*
X111235119Y-47156020D01*
X111961750Y-47457000D01*
X112748250Y-47457000D01*
X113474881Y-47156020D01*
X114031020Y-46599881D01*
X114332000Y-45873250D01*
X114332000Y-45086750D01*
X117388000Y-45086750D01*
X117388000Y-45873250D01*
X117688980Y-46599881D01*
X118245119Y-47156020D01*
X118971750Y-47457000D01*
X119758250Y-47457000D01*
X120484881Y-47156020D01*
X121041020Y-46599881D01*
X121342000Y-45873250D01*
X121342000Y-45086750D01*
X121170206Y-44672000D01*
X126627000Y-44672000D01*
X126627000Y-50292000D01*
X126639048Y-50414322D01*
X126735721Y-50900330D01*
X126829341Y-51126350D01*
X127104642Y-51538368D01*
X127277632Y-51711358D01*
X127689650Y-51986659D01*
X127915670Y-52080279D01*
X128401678Y-52176952D01*
X128524000Y-52189000D01*
X129310768Y-52189000D01*
X129985401Y-52330118D01*
X132463810Y-53414423D01*
X132815895Y-53629304D01*
X133068244Y-53899251D01*
X133239084Y-54226918D01*
X133324866Y-54630381D01*
X133711045Y-59843805D01*
X133753373Y-60028331D01*
X133822089Y-60201863D01*
X133884237Y-60320141D01*
X134041814Y-60477247D01*
X133989327Y-60673130D01*
X133989327Y-60738870D01*
X134057386Y-60992870D01*
X134090256Y-61049803D01*
X134095920Y-61055467D01*
X134017719Y-61107719D01*
X133823885Y-61397812D01*
X133755820Y-61740000D01*
X133823885Y-62082188D01*
X133968792Y-62299056D01*
X134368789Y-62699053D01*
X134417718Y-62772280D01*
X134707811Y-62966115D01*
X134963624Y-63016999D01*
X134963628Y-63016999D01*
X135049998Y-63034179D01*
X135136368Y-63016999D01*
X138106735Y-63016999D01*
X138483792Y-63394057D01*
X138532720Y-63467282D01*
X138822813Y-63661117D01*
X139078626Y-63712001D01*
X139078630Y-63712001D01*
X139165000Y-63729181D01*
X139251370Y-63712001D01*
X148081736Y-63712001D01*
X148748794Y-64379059D01*
X148784836Y-64433000D01*
X145006369Y-64433000D01*
X144919999Y-64415820D01*
X144833629Y-64433000D01*
X144833625Y-64433000D01*
X144577812Y-64483884D01*
X144287719Y-64677719D01*
X144238792Y-64750943D01*
X143516736Y-65473000D01*
X138216369Y-65473000D01*
X138129999Y-65455820D01*
X138043629Y-65473000D01*
X138043625Y-65473000D01*
X137787812Y-65523884D01*
X137787811Y-65523885D01*
X137787810Y-65523885D01*
X137595791Y-65652189D01*
X137497719Y-65717719D01*
X137448792Y-65790943D01*
X134566736Y-68673000D01*
X133133625Y-68673000D01*
X132877812Y-68723884D01*
X132587719Y-68917719D01*
X132393884Y-69207812D01*
X132325819Y-69550000D01*
X132393884Y-69892188D01*
X132587719Y-70182281D01*
X132877812Y-70376116D01*
X133133625Y-70427000D01*
X134843630Y-70427000D01*
X134930000Y-70444180D01*
X135016370Y-70427000D01*
X135016375Y-70427000D01*
X135272188Y-70376116D01*
X135562281Y-70182281D01*
X135611210Y-70109054D01*
X135734819Y-69985445D01*
X140373000Y-69985445D01*
X140373000Y-70294555D01*
X140491291Y-70580135D01*
X140709865Y-70798709D01*
X140778089Y-70826968D01*
X140788080Y-70841921D01*
X140829991Y-70869925D01*
X141783000Y-71822935D01*
X141783000Y-72044555D01*
X141901291Y-72330135D01*
X142119865Y-72548709D01*
X142405445Y-72667000D01*
X142714555Y-72667000D01*
X143000135Y-72548709D01*
X143218709Y-72330135D01*
X143337000Y-72044555D01*
X143337000Y-71735445D01*
X143218709Y-71449865D01*
X143000135Y-71231291D01*
X142714555Y-71113000D01*
X142492935Y-71113000D01*
X141853041Y-70473107D01*
X141927000Y-70294555D01*
X141927000Y-69985445D01*
X141808709Y-69699865D01*
X141590135Y-69481291D01*
X141304555Y-69363000D01*
X140995445Y-69363000D01*
X140709865Y-69481291D01*
X140491291Y-69699865D01*
X140373000Y-69985445D01*
X135734819Y-69985445D01*
X137544819Y-68175445D01*
X142733000Y-68175445D01*
X142733000Y-68484555D01*
X142851291Y-68770135D01*
X143069865Y-68988709D01*
X143355445Y-69107000D01*
X143664555Y-69107000D01*
X143800681Y-69050615D01*
X144018001Y-69267936D01*
X144018000Y-70593156D01*
X143861291Y-70749865D01*
X143743000Y-71035445D01*
X143743000Y-71344555D01*
X143861291Y-71630135D01*
X144079865Y-71848709D01*
X144365445Y-71967000D01*
X144674555Y-71967000D01*
X144960135Y-71848709D01*
X145178709Y-71630135D01*
X145297000Y-71344555D01*
X145297000Y-71035445D01*
X145178709Y-70749865D01*
X145022000Y-70593156D01*
X145022000Y-69109434D01*
X145031833Y-69060000D01*
X145022000Y-69010566D01*
X145022000Y-69010561D01*
X144992873Y-68864130D01*
X144881921Y-68698079D01*
X144840009Y-68670075D01*
X144245720Y-68075786D01*
X144168709Y-67889865D01*
X143950135Y-67671291D01*
X143664555Y-67553000D01*
X143355445Y-67553000D01*
X143069865Y-67671291D01*
X142851291Y-67889865D01*
X142733000Y-68175445D01*
X137544819Y-68175445D01*
X138493265Y-67227000D01*
X143793630Y-67227000D01*
X143880000Y-67244180D01*
X143966370Y-67227000D01*
X143966375Y-67227000D01*
X144222188Y-67176116D01*
X144512281Y-66982281D01*
X144561210Y-66909054D01*
X145283265Y-66187000D01*
X150602256Y-66187000D01*
X150853625Y-66237000D01*
X151833082Y-66237000D01*
X152019999Y-66274180D01*
X152206917Y-66237000D01*
X157336736Y-66237000D01*
X160298792Y-69199057D01*
X160347719Y-69272281D01*
X160420943Y-69321208D01*
X160637810Y-69466115D01*
X160637811Y-69466115D01*
X160637812Y-69466116D01*
X160893625Y-69517000D01*
X160893629Y-69517000D01*
X160979999Y-69534180D01*
X161066369Y-69517000D01*
X173983630Y-69517000D01*
X174070000Y-69534180D01*
X174156370Y-69517000D01*
X174156375Y-69517000D01*
X174412188Y-69466116D01*
X174702281Y-69272281D01*
X174751210Y-69199054D01*
X177273265Y-66677000D01*
X181276375Y-66677000D01*
X181532188Y-66626116D01*
X181822281Y-66432281D01*
X182005252Y-66158447D01*
X182273001Y-66426197D01*
X182273001Y-66469576D01*
X182176067Y-66566510D01*
X182073000Y-66815336D01*
X182073000Y-67084664D01*
X182176067Y-67333490D01*
X182366510Y-67523933D01*
X182615336Y-67627000D01*
X182884664Y-67627000D01*
X183133490Y-67523933D01*
X183323933Y-67333490D01*
X183335858Y-67304701D01*
X183356067Y-67353490D01*
X183546510Y-67543933D01*
X183795336Y-67647000D01*
X184064664Y-67647000D01*
X184313490Y-67543933D01*
X184503933Y-67353490D01*
X184607000Y-67104664D01*
X184607000Y-66835336D01*
X184503933Y-66586510D01*
X184437000Y-66519577D01*
X184437000Y-65320423D01*
X184533933Y-65223490D01*
X184637000Y-64974664D01*
X184637000Y-64705336D01*
X184533933Y-64456510D01*
X184512759Y-64435336D01*
X190743000Y-64435336D01*
X190743000Y-64704664D01*
X190846067Y-64953490D01*
X191036510Y-65143933D01*
X191285336Y-65247000D01*
X191554664Y-65247000D01*
X191803490Y-65143933D01*
X191993933Y-64953490D01*
X192097000Y-64704664D01*
X192097000Y-64567579D01*
X193364075Y-63300505D01*
X193403897Y-63273897D01*
X193509323Y-63116116D01*
X193537000Y-62976975D01*
X193537000Y-62976972D01*
X193546343Y-62930001D01*
X193537000Y-62883030D01*
X193537000Y-59360423D01*
X193593933Y-59303490D01*
X193697000Y-59054664D01*
X193697000Y-58785336D01*
X193593933Y-58536510D01*
X193403490Y-58346067D01*
X193154664Y-58243000D01*
X192885336Y-58243000D01*
X192636510Y-58346067D01*
X192446067Y-58536510D01*
X192343000Y-58785336D01*
X192343000Y-59054664D01*
X192446067Y-59303490D01*
X192583001Y-59440424D01*
X192583000Y-62732420D01*
X191422421Y-63893000D01*
X191285336Y-63893000D01*
X191036510Y-63996067D01*
X190846067Y-64186510D01*
X190743000Y-64435336D01*
X184512759Y-64435336D01*
X184343490Y-64266067D01*
X184094664Y-64163000D01*
X183825336Y-64163000D01*
X183576510Y-64266067D01*
X183386067Y-64456510D01*
X183283000Y-64705336D01*
X183283000Y-64974664D01*
X183386067Y-65223490D01*
X183483000Y-65320423D01*
X183483001Y-66459576D01*
X183356067Y-66586510D01*
X183344142Y-66615299D01*
X183323933Y-66566510D01*
X183227000Y-66469577D01*
X183227000Y-66275591D01*
X183236344Y-66228616D01*
X183199323Y-66042500D01*
X183120506Y-65924542D01*
X183093897Y-65884719D01*
X183054074Y-65858110D01*
X181891882Y-64695919D01*
X181865271Y-64656093D01*
X181707490Y-64550667D01*
X181568349Y-64522990D01*
X181568345Y-64522990D01*
X181521374Y-64513647D01*
X181474403Y-64522990D01*
X175147590Y-64522990D01*
X172280528Y-61655929D01*
X172253917Y-61616103D01*
X172096136Y-61510677D01*
X171956995Y-61483000D01*
X171956991Y-61483000D01*
X171910020Y-61473657D01*
X171863049Y-61483000D01*
X160556036Y-61483000D01*
X160452281Y-61327719D01*
X160162188Y-61133885D01*
X159819999Y-61065820D01*
X159477811Y-61133885D01*
X159260943Y-61278792D01*
X157841355Y-62698381D01*
X157750944Y-62758792D01*
X157566736Y-62943000D01*
X149793265Y-62943000D01*
X149126211Y-62275946D01*
X149077282Y-62202720D01*
X148787189Y-62008885D01*
X148531376Y-61958001D01*
X148531371Y-61958001D01*
X148445001Y-61940821D01*
X148358631Y-61958001D01*
X144934122Y-61958001D01*
X145071926Y-61751763D01*
X145090889Y-61705982D01*
X145158560Y-61365776D01*
X145158560Y-61316224D01*
X145090889Y-60976018D01*
X145071926Y-60930237D01*
X144879215Y-60641825D01*
X144844175Y-60606785D01*
X144754610Y-60546940D01*
X144904542Y-60408524D01*
X145072739Y-60150011D01*
X145160019Y-59893800D01*
X145191514Y-59741618D01*
X145575349Y-54943670D01*
X145684456Y-54486832D01*
X145901985Y-54126928D01*
X146255736Y-53817961D01*
X149295920Y-51897845D01*
X149377446Y-51836541D01*
X149862401Y-51405870D01*
X149990530Y-51247990D01*
X150122423Y-51017038D01*
X150124881Y-51016020D01*
X150681020Y-50459881D01*
X150982000Y-49733250D01*
X150982000Y-48946750D01*
X150681020Y-48220119D01*
X150568864Y-48107963D01*
X150648112Y-45492789D01*
X150681020Y-45459881D01*
X150884520Y-44968586D01*
X158971283Y-44968586D01*
X159075347Y-50575788D01*
X159082002Y-50655996D01*
X159157056Y-51162860D01*
X159200746Y-51317438D01*
X159402123Y-51788597D01*
X159483657Y-51927003D01*
X159798141Y-52331533D01*
X159912164Y-52444678D01*
X160319111Y-52756027D01*
X160458141Y-52836489D01*
X160930842Y-53034221D01*
X161006932Y-53060450D01*
X164176078Y-53929808D01*
X164526410Y-54074721D01*
X164830223Y-54301481D01*
X165384892Y-54834680D01*
X165625753Y-55133004D01*
X165768167Y-55445667D01*
X165835147Y-55823193D01*
X166033430Y-59810889D01*
X166059495Y-59961234D01*
X166154602Y-60275751D01*
X166309720Y-60535930D01*
X166541175Y-60769157D01*
X166800159Y-60926253D01*
X167113941Y-61023758D01*
X167411356Y-61042032D01*
X167739904Y-60982739D01*
X168008136Y-60864748D01*
X168273858Y-60662631D01*
X168459177Y-60435636D01*
X168604032Y-60134843D01*
X168651964Y-59995303D01*
X170242477Y-52639180D01*
X170252298Y-52580322D01*
X170296962Y-52202709D01*
X170301143Y-52143185D01*
X170461206Y-45039454D01*
X170457728Y-44959462D01*
X172143334Y-44959462D01*
X172204949Y-51038800D01*
X172210760Y-51117843D01*
X172279488Y-51617752D01*
X172320633Y-51770503D01*
X172512295Y-52237298D01*
X172590362Y-52374890D01*
X172892758Y-52778856D01*
X172944168Y-52839175D01*
X174232703Y-54170484D01*
X174458865Y-54470673D01*
X174589677Y-54781054D01*
X174646610Y-55152567D01*
X174786721Y-60039971D01*
X174804622Y-60171806D01*
X174911158Y-60604802D01*
X175057096Y-60877905D01*
X175191871Y-61025427D01*
X175495004Y-61208824D01*
X175688225Y-61259741D01*
X175866032Y-61280180D01*
X176333036Y-61266741D01*
X176484484Y-61243659D01*
X176843761Y-61142788D01*
X177107866Y-60992042D01*
X177377424Y-60733985D01*
X177539535Y-60476700D01*
X177655966Y-60122160D01*
X177685625Y-59971861D01*
X177978938Y-55925336D01*
X189293000Y-55925336D01*
X189293000Y-56194664D01*
X189396067Y-56443490D01*
X189553001Y-56600424D01*
X189553000Y-57169577D01*
X189456067Y-57266510D01*
X189353000Y-57515336D01*
X189353000Y-57784664D01*
X189456067Y-58033490D01*
X189646510Y-58223933D01*
X189895336Y-58327000D01*
X190164664Y-58327000D01*
X190413490Y-58223933D01*
X190603933Y-58033490D01*
X190707000Y-57784664D01*
X190707000Y-57515336D01*
X190603933Y-57266510D01*
X190507000Y-57169577D01*
X190507000Y-56480423D01*
X190543933Y-56443490D01*
X190647000Y-56194664D01*
X190647000Y-55925336D01*
X190543933Y-55676510D01*
X190353490Y-55486067D01*
X190104664Y-55383000D01*
X189835336Y-55383000D01*
X189586510Y-55486067D01*
X189396067Y-55676510D01*
X189293000Y-55925336D01*
X177978938Y-55925336D01*
X178022234Y-55328038D01*
X178123783Y-54880798D01*
X178329653Y-54525456D01*
X178631848Y-54247374D01*
X179046377Y-54051188D01*
X181835034Y-53215597D01*
X181926436Y-53180212D01*
X182488395Y-52910413D01*
X182649236Y-52799409D01*
X183100833Y-52369701D01*
X183219098Y-52215336D01*
X194043000Y-52215336D01*
X194043000Y-52484664D01*
X194146067Y-52733490D01*
X194336510Y-52923933D01*
X194585336Y-53027000D01*
X194854664Y-53027000D01*
X195103490Y-52923933D01*
X195122087Y-52905336D01*
X195663000Y-52905336D01*
X195663000Y-53174664D01*
X195766067Y-53423490D01*
X195956510Y-53613933D01*
X196205336Y-53717000D01*
X196331495Y-53717000D01*
X196336103Y-53723897D01*
X196375926Y-53750506D01*
X196493884Y-53829323D01*
X196680000Y-53866344D01*
X196726975Y-53857000D01*
X199689577Y-53857000D01*
X199786510Y-53953933D01*
X200035336Y-54057000D01*
X200304664Y-54057000D01*
X200553490Y-53953933D01*
X200743933Y-53763490D01*
X200847000Y-53514664D01*
X200847000Y-53245336D01*
X200743933Y-52996510D01*
X200553490Y-52806067D01*
X200304664Y-52703000D01*
X200035336Y-52703000D01*
X199786510Y-52806067D01*
X199689577Y-52903000D01*
X197016032Y-52903000D01*
X196913933Y-52656510D01*
X196723490Y-52466067D01*
X196474664Y-52363000D01*
X196205336Y-52363000D01*
X195956510Y-52466067D01*
X195766067Y-52656510D01*
X195663000Y-52905336D01*
X195122087Y-52905336D01*
X195293933Y-52733490D01*
X195397000Y-52484664D01*
X195397000Y-52215336D01*
X195324434Y-52040146D01*
X195507580Y-51857000D01*
X195644664Y-51857000D01*
X195893490Y-51753933D01*
X196083933Y-51563490D01*
X196187000Y-51314664D01*
X196187000Y-51045336D01*
X196083933Y-50796510D01*
X195893490Y-50606067D01*
X195644664Y-50503000D01*
X195375336Y-50503000D01*
X195126510Y-50606067D01*
X194936067Y-50796510D01*
X194833000Y-51045336D01*
X194833000Y-51182420D01*
X194415926Y-51599494D01*
X194376104Y-51626103D01*
X194349495Y-51665926D01*
X194349494Y-51665927D01*
X194270677Y-51783885D01*
X194269740Y-51788597D01*
X194256272Y-51856305D01*
X194146067Y-51966510D01*
X194043000Y-52215336D01*
X183219098Y-52215336D01*
X183219685Y-52214570D01*
X183517050Y-51666698D01*
X183582367Y-51482510D01*
X183696611Y-50869699D01*
X183706988Y-50772237D01*
X183733445Y-49821793D01*
X200733000Y-49821793D01*
X200733000Y-50258207D01*
X200900008Y-50661401D01*
X201208599Y-50969992D01*
X201611793Y-51137000D01*
X202048207Y-51137000D01*
X202451401Y-50969992D01*
X202759992Y-50661401D01*
X202927000Y-50258207D01*
X202927000Y-49821793D01*
X202759992Y-49418599D01*
X202451401Y-49110008D01*
X202048207Y-48943000D01*
X201611793Y-48943000D01*
X201208599Y-49110008D01*
X200900008Y-49418599D01*
X200733000Y-49821793D01*
X183733445Y-49821793D01*
X183793197Y-47675336D01*
X189443000Y-47675336D01*
X189443000Y-47944664D01*
X189546067Y-48193490D01*
X189736510Y-48383933D01*
X189985336Y-48487000D01*
X190254664Y-48487000D01*
X190281362Y-48475941D01*
X190613000Y-48807580D01*
X190613000Y-48944664D01*
X190716067Y-49193490D01*
X190906510Y-49383933D01*
X191155336Y-49487000D01*
X191424664Y-49487000D01*
X191673490Y-49383933D01*
X191863933Y-49193490D01*
X191967000Y-48944664D01*
X191967000Y-48675336D01*
X191863933Y-48426510D01*
X191673490Y-48236067D01*
X191424664Y-48133000D01*
X191287580Y-48133000D01*
X190773726Y-47619146D01*
X190693933Y-47426510D01*
X190503490Y-47236067D01*
X190254664Y-47133000D01*
X189985336Y-47133000D01*
X189736510Y-47236067D01*
X189546067Y-47426510D01*
X189443000Y-47675336D01*
X183793197Y-47675336D01*
X183815188Y-46885336D01*
X191383000Y-46885336D01*
X191383000Y-47154664D01*
X191486067Y-47403490D01*
X191676510Y-47593933D01*
X191925336Y-47697000D01*
X192194664Y-47697000D01*
X192443490Y-47593933D01*
X192633933Y-47403490D01*
X192737000Y-47154664D01*
X192737000Y-46885336D01*
X192633933Y-46636510D01*
X192537000Y-46539577D01*
X192537000Y-46487579D01*
X193293000Y-45731579D01*
X193293000Y-45744664D01*
X193396067Y-45993490D01*
X193493000Y-46090423D01*
X193493001Y-46733024D01*
X193483657Y-46780000D01*
X193520677Y-46966115D01*
X193588070Y-47066975D01*
X193626104Y-47123897D01*
X193633000Y-47128505D01*
X193633000Y-47254664D01*
X193736067Y-47503490D01*
X193926510Y-47693933D01*
X194175336Y-47797000D01*
X194444664Y-47797000D01*
X194693490Y-47693933D01*
X194883933Y-47503490D01*
X194987000Y-47254664D01*
X194987000Y-46985336D01*
X194883933Y-46736510D01*
X194693490Y-46546067D01*
X194447000Y-46443968D01*
X194447000Y-46090423D01*
X194543933Y-45993490D01*
X194647000Y-45744664D01*
X194647000Y-45475336D01*
X194626290Y-45425336D01*
X194693000Y-45425336D01*
X194693000Y-45694664D01*
X194796067Y-45943490D01*
X194986510Y-46133933D01*
X195235336Y-46237000D01*
X195504664Y-46237000D01*
X195623286Y-46187865D01*
X195783001Y-46347581D01*
X195783001Y-46629576D01*
X195686067Y-46726510D01*
X195583000Y-46975336D01*
X195583000Y-47244664D01*
X195686067Y-47493490D01*
X195876510Y-47683933D01*
X196125336Y-47787000D01*
X196394664Y-47787000D01*
X196643490Y-47683933D01*
X196833933Y-47493490D01*
X196921620Y-47281793D01*
X200733000Y-47281793D01*
X200733000Y-47718207D01*
X200900008Y-48121401D01*
X201208599Y-48429992D01*
X201611793Y-48597000D01*
X202048207Y-48597000D01*
X202451401Y-48429992D01*
X202759992Y-48121401D01*
X202927000Y-47718207D01*
X202927000Y-47281793D01*
X202759992Y-46878599D01*
X202451401Y-46570008D01*
X202048207Y-46403000D01*
X201611793Y-46403000D01*
X201208599Y-46570008D01*
X200900008Y-46878599D01*
X200733000Y-47281793D01*
X196921620Y-47281793D01*
X196937000Y-47244664D01*
X196937000Y-46975336D01*
X196833933Y-46726510D01*
X196737000Y-46629577D01*
X196737000Y-46196970D01*
X196746343Y-46149999D01*
X196737000Y-46103028D01*
X196737000Y-46103025D01*
X196709323Y-45963884D01*
X196603897Y-45806103D01*
X196564074Y-45779494D01*
X196040508Y-45255928D01*
X196013897Y-45216103D01*
X195922369Y-45154946D01*
X195753490Y-44986067D01*
X195504664Y-44883000D01*
X195235336Y-44883000D01*
X194986510Y-44986067D01*
X194796067Y-45176510D01*
X194693000Y-45425336D01*
X194626290Y-45425336D01*
X194543933Y-45226510D01*
X194353490Y-45036067D01*
X194104664Y-44933000D01*
X194091580Y-44933000D01*
X194282787Y-44741793D01*
X200733000Y-44741793D01*
X200733000Y-45178207D01*
X200900008Y-45581401D01*
X201208599Y-45889992D01*
X201611793Y-46057000D01*
X202048207Y-46057000D01*
X202451401Y-45889992D01*
X202759992Y-45581401D01*
X202927000Y-45178207D01*
X202927000Y-44741793D01*
X202759992Y-44338599D01*
X202451401Y-44030008D01*
X202048207Y-43863000D01*
X201611793Y-43863000D01*
X201208599Y-44030008D01*
X200900008Y-44338599D01*
X200733000Y-44741793D01*
X194282787Y-44741793D01*
X194887580Y-44137000D01*
X194889577Y-44137000D01*
X194986510Y-44233933D01*
X195235336Y-44337000D01*
X195504664Y-44337000D01*
X195753490Y-44233933D01*
X195943933Y-44043490D01*
X196047000Y-43794664D01*
X196047000Y-43525336D01*
X195943933Y-43276510D01*
X195753490Y-43086067D01*
X195504664Y-42983000D01*
X195235336Y-42983000D01*
X194986510Y-43086067D01*
X194889577Y-43183000D01*
X194736975Y-43183000D01*
X194690000Y-43173656D01*
X194643025Y-43183000D01*
X194503884Y-43210677D01*
X194346103Y-43316103D01*
X194319494Y-43355926D01*
X191755927Y-45919494D01*
X191716104Y-45946103D01*
X191689495Y-45985926D01*
X191689494Y-45985927D01*
X191610677Y-46103885D01*
X191573657Y-46290000D01*
X191583001Y-46336976D01*
X191583001Y-46539576D01*
X191486067Y-46636510D01*
X191383000Y-46885336D01*
X183815188Y-46885336D01*
X183869043Y-44950720D01*
X183865760Y-44866873D01*
X183809196Y-44335758D01*
X183769389Y-44173113D01*
X183574274Y-43675908D01*
X183492839Y-43529598D01*
X183173087Y-43101764D01*
X183055833Y-42982224D01*
X182634249Y-42654275D01*
X182489537Y-42570032D01*
X181996190Y-42365358D01*
X181834344Y-42322419D01*
X181304419Y-42255616D01*
X181220650Y-42250716D01*
X174747789Y-42305935D01*
X174665916Y-42312008D01*
X174148363Y-42384712D01*
X173990479Y-42428510D01*
X173509433Y-42632818D01*
X173368286Y-42716024D01*
X172956596Y-43037985D01*
X172841826Y-43154917D01*
X172527605Y-43572544D01*
X172447047Y-43715220D01*
X172251753Y-44199996D01*
X172210911Y-44358669D01*
X172147879Y-44877489D01*
X172143334Y-44959462D01*
X170457728Y-44959462D01*
X170457614Y-44956848D01*
X170400125Y-44433649D01*
X170360676Y-44273424D01*
X170168683Y-43783342D01*
X170088799Y-43638956D01*
X169775599Y-43215934D01*
X169660813Y-43097390D01*
X169248099Y-42770727D01*
X169106364Y-42686235D01*
X168622721Y-42478554D01*
X168463849Y-42433963D01*
X167942774Y-42359651D01*
X167860326Y-42353400D01*
X161623284Y-42292963D01*
X161539931Y-42297715D01*
X161012545Y-42363215D01*
X160851404Y-42405533D01*
X160359886Y-42607614D01*
X160215577Y-42690878D01*
X159794633Y-43015274D01*
X159677349Y-43133602D01*
X159356699Y-43557406D01*
X159274719Y-43702447D01*
X159077004Y-44195737D01*
X159036116Y-44357247D01*
X158975295Y-44885194D01*
X158971283Y-44968586D01*
X150884520Y-44968586D01*
X150982000Y-44733250D01*
X150982000Y-43946750D01*
X150681020Y-43220119D01*
X150124881Y-42663980D01*
X149921384Y-42579689D01*
X149875889Y-42532794D01*
X149457857Y-42203560D01*
X149314238Y-42118696D01*
X148824184Y-41911347D01*
X148663269Y-41867359D01*
X148135884Y-41796573D01*
X148052476Y-41791000D01*
X142970000Y-41791000D01*
X142888160Y-41796364D01*
X142370522Y-41864512D01*
X142212419Y-41906876D01*
X141730057Y-42106677D01*
X141588307Y-42188516D01*
X141174093Y-42506353D01*
X141116413Y-42564033D01*
X140875119Y-42663980D01*
X140318980Y-43220119D01*
X140018000Y-43946750D01*
X140018000Y-44733250D01*
X140318980Y-45459881D01*
X140343000Y-45483901D01*
X140343000Y-48196099D01*
X140318980Y-48220119D01*
X140018000Y-48946750D01*
X140018000Y-49733250D01*
X140318980Y-50459881D01*
X140343000Y-50483901D01*
X140343000Y-51109961D01*
X140346051Y-51171745D01*
X140384890Y-51563977D01*
X140394015Y-51625158D01*
X142058456Y-59947364D01*
X142135737Y-60147163D01*
X142296814Y-60415426D01*
X142413411Y-60557349D01*
X142621816Y-60682187D01*
X142456074Y-60930237D01*
X142437111Y-60976018D01*
X142369440Y-61316224D01*
X142369440Y-61365776D01*
X142437111Y-61705982D01*
X142456074Y-61751763D01*
X142593878Y-61958001D01*
X139528266Y-61958001D01*
X139151209Y-61580944D01*
X139102280Y-61507718D01*
X138812187Y-61313883D01*
X138556374Y-61262999D01*
X138556369Y-61262999D01*
X138469999Y-61245819D01*
X138383629Y-61262999D01*
X135413263Y-61262999D01*
X135301906Y-61151642D01*
X135403744Y-61049803D01*
X135436614Y-60992870D01*
X135504673Y-60738870D01*
X135504673Y-60673130D01*
X135436614Y-60419130D01*
X135410324Y-60373593D01*
X135610269Y-60143055D01*
X135765197Y-59819984D01*
X135816728Y-59661030D01*
X137241771Y-51823295D01*
X137248484Y-51776354D01*
X137279928Y-51475703D01*
X137283073Y-51428390D01*
X137300325Y-50824576D01*
X137515020Y-50609881D01*
X137816000Y-49883250D01*
X137816000Y-49096750D01*
X137515020Y-48370119D01*
X137374468Y-48229567D01*
X137447384Y-45677517D01*
X137515020Y-45609881D01*
X137816000Y-44883250D01*
X137816000Y-44096750D01*
X137515020Y-43370119D01*
X136958881Y-42813980D01*
X136425412Y-42593010D01*
X136252074Y-42456695D01*
X136108559Y-42372005D01*
X135618942Y-42165091D01*
X135458190Y-42121196D01*
X134931361Y-42050561D01*
X134848041Y-42045000D01*
X129254000Y-42045000D01*
X129172160Y-42050364D01*
X128654522Y-42118512D01*
X128496419Y-42160876D01*
X128014057Y-42360677D01*
X127872307Y-42442516D01*
X127458093Y-42760353D01*
X127342353Y-42876093D01*
X127024516Y-43290307D01*
X126942677Y-43432057D01*
X126742876Y-43914419D01*
X126700512Y-44072522D01*
X126632364Y-44590160D01*
X126627000Y-44672000D01*
X121170206Y-44672000D01*
X121041020Y-44360119D01*
X120484881Y-43803980D01*
X119758250Y-43503000D01*
X118971750Y-43503000D01*
X118245119Y-43803980D01*
X117688980Y-44360119D01*
X117388000Y-45086750D01*
X114332000Y-45086750D01*
X114031020Y-44360119D01*
X113474881Y-43803980D01*
X112748250Y-43503000D01*
X111961750Y-43503000D01*
X111235119Y-43803980D01*
X110678980Y-44360119D01*
X110378000Y-45086750D01*
X100387000Y-45086750D01*
X100387000Y-42576227D01*
X100463560Y-41359339D01*
X100689750Y-40173609D01*
X100944920Y-39388273D01*
X104073000Y-39388273D01*
X104073000Y-40731727D01*
X104587118Y-41972917D01*
X105537083Y-42922882D01*
X106778273Y-43437000D01*
X108121727Y-43437000D01*
X109362917Y-42922882D01*
X110312882Y-41972917D01*
X110827000Y-40731727D01*
X110827000Y-39496750D01*
X126938000Y-39496750D01*
X126938000Y-40283250D01*
X127238980Y-41009881D01*
X127795119Y-41566020D01*
X128521750Y-41867000D01*
X129308250Y-41867000D01*
X130034881Y-41566020D01*
X130591020Y-41009881D01*
X130892000Y-40283250D01*
X130892000Y-39496750D01*
X133948000Y-39496750D01*
X133948000Y-40283250D01*
X134248980Y-41009881D01*
X134805119Y-41566020D01*
X135531750Y-41867000D01*
X136318250Y-41867000D01*
X137044881Y-41566020D01*
X137601020Y-41009881D01*
X137902000Y-40283250D01*
X137902000Y-39496750D01*
X137880461Y-39444750D01*
X140060000Y-39444750D01*
X140060000Y-40231250D01*
X140360980Y-40957881D01*
X140917119Y-41514020D01*
X141643750Y-41815000D01*
X142430250Y-41815000D01*
X143156881Y-41514020D01*
X143713020Y-40957881D01*
X144014000Y-40231250D01*
X144014000Y-39444750D01*
X147070000Y-39444750D01*
X147070000Y-40231250D01*
X147370980Y-40957881D01*
X147927119Y-41514020D01*
X148653750Y-41815000D01*
X149440250Y-41815000D01*
X150166881Y-41514020D01*
X150723020Y-40957881D01*
X151024000Y-40231250D01*
X151024000Y-39646750D01*
X159168000Y-39646750D01*
X159168000Y-40433250D01*
X159468980Y-41159881D01*
X160025119Y-41716020D01*
X160751750Y-42017000D01*
X161538250Y-42017000D01*
X162264881Y-41716020D01*
X162821020Y-41159881D01*
X163122000Y-40433250D01*
X163122000Y-39646750D01*
X166178000Y-39646750D01*
X166178000Y-40433250D01*
X166478980Y-41159881D01*
X167035119Y-41716020D01*
X167761750Y-42017000D01*
X168548250Y-42017000D01*
X169274881Y-41716020D01*
X169831020Y-41159881D01*
X170132000Y-40433250D01*
X170132000Y-39706750D01*
X172508000Y-39706750D01*
X172508000Y-40493250D01*
X172808980Y-41219881D01*
X173365119Y-41776020D01*
X174091750Y-42077000D01*
X174878250Y-42077000D01*
X175604881Y-41776020D01*
X176161020Y-41219881D01*
X176462000Y-40493250D01*
X176462000Y-39706750D01*
X179518000Y-39706750D01*
X179518000Y-40493250D01*
X179818980Y-41219881D01*
X180375119Y-41776020D01*
X181101750Y-42077000D01*
X181888250Y-42077000D01*
X182614881Y-41776020D01*
X183171020Y-41219881D01*
X183472000Y-40493250D01*
X183472000Y-39706750D01*
X183340083Y-39388273D01*
X194083000Y-39388273D01*
X194083000Y-40731727D01*
X194597118Y-41972917D01*
X195547083Y-42922882D01*
X196788273Y-43437000D01*
X198131727Y-43437000D01*
X199372917Y-42922882D01*
X200322882Y-41972917D01*
X200837000Y-40731727D01*
X200837000Y-39388273D01*
X200322882Y-38147083D01*
X199372917Y-37197118D01*
X198131727Y-36683000D01*
X196788273Y-36683000D01*
X195547083Y-37197118D01*
X194597118Y-38147083D01*
X194083000Y-39388273D01*
X183340083Y-39388273D01*
X183171020Y-38980119D01*
X182614881Y-38423980D01*
X181888250Y-38123000D01*
X181101750Y-38123000D01*
X180375119Y-38423980D01*
X179818980Y-38980119D01*
X179518000Y-39706750D01*
X176462000Y-39706750D01*
X176161020Y-38980119D01*
X175604881Y-38423980D01*
X174878250Y-38123000D01*
X174091750Y-38123000D01*
X173365119Y-38423980D01*
X172808980Y-38980119D01*
X172508000Y-39706750D01*
X170132000Y-39706750D01*
X170132000Y-39646750D01*
X169831020Y-38920119D01*
X169274881Y-38363980D01*
X168548250Y-38063000D01*
X167761750Y-38063000D01*
X167035119Y-38363980D01*
X166478980Y-38920119D01*
X166178000Y-39646750D01*
X163122000Y-39646750D01*
X162821020Y-38920119D01*
X162264881Y-38363980D01*
X161538250Y-38063000D01*
X160751750Y-38063000D01*
X160025119Y-38363980D01*
X159468980Y-38920119D01*
X159168000Y-39646750D01*
X151024000Y-39646750D01*
X151024000Y-39444750D01*
X150723020Y-38718119D01*
X150166881Y-38161980D01*
X149440250Y-37861000D01*
X148653750Y-37861000D01*
X147927119Y-38161980D01*
X147370980Y-38718119D01*
X147070000Y-39444750D01*
X144014000Y-39444750D01*
X143713020Y-38718119D01*
X143156881Y-38161980D01*
X142430250Y-37861000D01*
X141643750Y-37861000D01*
X140917119Y-38161980D01*
X140360980Y-38718119D01*
X140060000Y-39444750D01*
X137880461Y-39444750D01*
X137601020Y-38770119D01*
X137044881Y-38213980D01*
X136318250Y-37913000D01*
X135531750Y-37913000D01*
X134805119Y-38213980D01*
X134248980Y-38770119D01*
X133948000Y-39496750D01*
X130892000Y-39496750D01*
X130591020Y-38770119D01*
X130034881Y-38213980D01*
X129308250Y-37913000D01*
X128521750Y-37913000D01*
X127795119Y-38213980D01*
X127238980Y-38770119D01*
X126938000Y-39496750D01*
X110827000Y-39496750D01*
X110827000Y-39388273D01*
X110312882Y-38147083D01*
X109362917Y-37197118D01*
X109330287Y-37183602D01*
X186811000Y-37183602D01*
X186811000Y-37696398D01*
X187007239Y-38170160D01*
X187369840Y-38532761D01*
X187843602Y-38729000D01*
X188356398Y-38729000D01*
X188830160Y-38532761D01*
X189192761Y-38170160D01*
X189389000Y-37696398D01*
X189389000Y-37183602D01*
X189192761Y-36709840D01*
X188830160Y-36347239D01*
X188356398Y-36151000D01*
X187843602Y-36151000D01*
X187369840Y-36347239D01*
X187007239Y-36709840D01*
X186811000Y-37183602D01*
X109330287Y-37183602D01*
X108121727Y-36683000D01*
X106778273Y-36683000D01*
X105537083Y-37197118D01*
X104587118Y-38147083D01*
X104073000Y-39388273D01*
X100944920Y-39388273D01*
X101062769Y-39025572D01*
X101576734Y-37933341D01*
X102223538Y-36914142D01*
X102992978Y-35984048D01*
X103872930Y-35157718D01*
X104849502Y-34448196D01*
X105907304Y-33866663D01*
X107029657Y-33422293D01*
X108198852Y-33122094D01*
X109402487Y-32970040D01*
X110006078Y-32951071D01*
X128429838Y-32951071D01*
X127795119Y-33213980D01*
G36*
X174579503Y-65304063D02*
X174606113Y-65343887D01*
X174645936Y-65370496D01*
X174660158Y-65379999D01*
X174763894Y-65449313D01*
X174903035Y-65476990D01*
X174903038Y-65476990D01*
X174950009Y-65486333D01*
X174996980Y-65476990D01*
X175992745Y-65476990D01*
X173706736Y-67763000D01*
X161343265Y-67763000D01*
X159555601Y-65975336D01*
X160863000Y-65975336D01*
X160863000Y-66244664D01*
X160966067Y-66493490D01*
X161156510Y-66683933D01*
X161405336Y-66787000D01*
X161674664Y-66787000D01*
X161923490Y-66683933D01*
X162113933Y-66493490D01*
X162217000Y-66244664D01*
X162217000Y-66107579D01*
X162857580Y-65467000D01*
X162989577Y-65467000D01*
X163086510Y-65563933D01*
X163335336Y-65667000D01*
X163604664Y-65667000D01*
X163853490Y-65563933D01*
X164043933Y-65373490D01*
X164147000Y-65124664D01*
X164147000Y-64855336D01*
X164043933Y-64606510D01*
X163853490Y-64416067D01*
X163604664Y-64313000D01*
X163335336Y-64313000D01*
X163086510Y-64416067D01*
X162989577Y-64513000D01*
X162706975Y-64513000D01*
X162660000Y-64503656D01*
X162473884Y-64540677D01*
X162316103Y-64646103D01*
X162289494Y-64685926D01*
X161542421Y-65433000D01*
X161405336Y-65433000D01*
X161156510Y-65536067D01*
X160966067Y-65726510D01*
X160863000Y-65975336D01*
X159555601Y-65975336D01*
X158381210Y-64800946D01*
X158332281Y-64727719D01*
X158224385Y-64655625D01*
X158272188Y-64646116D01*
X158562281Y-64452281D01*
X158611210Y-64379054D01*
X158808645Y-64181619D01*
X158899056Y-64121208D01*
X160501208Y-62519057D01*
X160556037Y-62437000D01*
X171712441Y-62437000D01*
X174579503Y-65304063D01*
X174579503Y-65304063D01*
G37*
X174579503Y-65304063D02*
X174606113Y-65343887D01*
X174645936Y-65370496D01*
X174660158Y-65379999D01*
X174763894Y-65449313D01*
X174903035Y-65476990D01*
X174903038Y-65476990D01*
X174950009Y-65486333D01*
X174996980Y-65476990D01*
X175992745Y-65476990D01*
X173706736Y-67763000D01*
X161343265Y-67763000D01*
X159555601Y-65975336D01*
X160863000Y-65975336D01*
X160863000Y-66244664D01*
X160966067Y-66493490D01*
X161156510Y-66683933D01*
X161405336Y-66787000D01*
X161674664Y-66787000D01*
X161923490Y-66683933D01*
X162113933Y-66493490D01*
X162217000Y-66244664D01*
X162217000Y-66107579D01*
X162857580Y-65467000D01*
X162989577Y-65467000D01*
X163086510Y-65563933D01*
X163335336Y-65667000D01*
X163604664Y-65667000D01*
X163853490Y-65563933D01*
X164043933Y-65373490D01*
X164147000Y-65124664D01*
X164147000Y-64855336D01*
X164043933Y-64606510D01*
X163853490Y-64416067D01*
X163604664Y-64313000D01*
X163335336Y-64313000D01*
X163086510Y-64416067D01*
X162989577Y-64513000D01*
X162706975Y-64513000D01*
X162660000Y-64503656D01*
X162473884Y-64540677D01*
X162316103Y-64646103D01*
X162289494Y-64685926D01*
X161542421Y-65433000D01*
X161405336Y-65433000D01*
X161156510Y-65536067D01*
X160966067Y-65726510D01*
X160863000Y-65975336D01*
X159555601Y-65975336D01*
X158381210Y-64800946D01*
X158332281Y-64727719D01*
X158224385Y-64655625D01*
X158272188Y-64646116D01*
X158562281Y-64452281D01*
X158611210Y-64379054D01*
X158808645Y-64181619D01*
X158899056Y-64121208D01*
X160501208Y-62519057D01*
X160556037Y-62437000D01*
X171712441Y-62437000D01*
X174579503Y-65304063D01*
G04 #@! TO.N,Net-(J502-Pad1)*
G36*
X135341118Y-42866246D02*
X135799365Y-43059904D01*
X136190417Y-43367431D01*
X136486650Y-43767105D01*
X136667142Y-44230698D01*
X136720035Y-44733964D01*
X136529518Y-51402051D01*
X136499073Y-51693150D01*
X135077946Y-59509347D01*
X134945438Y-59785666D01*
X134707403Y-59944716D01*
X134597733Y-59946762D01*
X134508504Y-59887334D01*
X134461552Y-59768764D01*
X134073662Y-54532238D01*
X134071232Y-54515208D01*
X133958813Y-53986462D01*
X133947203Y-53954160D01*
X133697291Y-53474834D01*
X133677454Y-53446820D01*
X133308305Y-53051929D01*
X133281690Y-53030252D01*
X132820272Y-52748644D01*
X132805015Y-52740697D01*
X130228185Y-51613333D01*
X130203284Y-51605375D01*
X129401646Y-51437690D01*
X129375643Y-51435000D01*
X128536509Y-51435000D01*
X128087545Y-51345695D01*
X127717536Y-51098464D01*
X127470305Y-50728455D01*
X127381000Y-50279491D01*
X127381000Y-44680328D01*
X127445880Y-44187515D01*
X127632884Y-43736048D01*
X127930364Y-43348364D01*
X128318048Y-43050884D01*
X128769515Y-42863880D01*
X129262328Y-42799000D01*
X134839562Y-42799000D01*
X135341118Y-42866246D01*
X135341118Y-42866246D01*
G37*
X135341118Y-42866246D02*
X135799365Y-43059904D01*
X136190417Y-43367431D01*
X136486650Y-43767105D01*
X136667142Y-44230698D01*
X136720035Y-44733964D01*
X136529518Y-51402051D01*
X136499073Y-51693150D01*
X135077946Y-59509347D01*
X134945438Y-59785666D01*
X134707403Y-59944716D01*
X134597733Y-59946762D01*
X134508504Y-59887334D01*
X134461552Y-59768764D01*
X134073662Y-54532238D01*
X134071232Y-54515208D01*
X133958813Y-53986462D01*
X133947203Y-53954160D01*
X133697291Y-53474834D01*
X133677454Y-53446820D01*
X133308305Y-53051929D01*
X133281690Y-53030252D01*
X132820272Y-52748644D01*
X132805015Y-52740697D01*
X130228185Y-51613333D01*
X130203284Y-51605375D01*
X129401646Y-51437690D01*
X129375643Y-51435000D01*
X128536509Y-51435000D01*
X128087545Y-51345695D01*
X127717536Y-51098464D01*
X127470305Y-50728455D01*
X127381000Y-50279491D01*
X127381000Y-44680328D01*
X127445880Y-44187515D01*
X127632884Y-43736048D01*
X127930364Y-43348364D01*
X128318048Y-43050884D01*
X128769515Y-42863880D01*
X129262328Y-42799000D01*
X134839562Y-42799000D01*
X135341118Y-42866246D01*
G04 #@! TO.N,Net-(J504-Pad1)*
G36*
X148546072Y-42612389D02*
X149004728Y-42806454D01*
X149395978Y-43114594D01*
X149692124Y-43514994D01*
X149872208Y-43979324D01*
X149924359Y-44483208D01*
X149765574Y-49723119D01*
X149647069Y-50328984D01*
X149346127Y-50855949D01*
X148884526Y-51265881D01*
X145812047Y-53206393D01*
X145796321Y-53218117D01*
X145601443Y-53388324D01*
X145478251Y-53439352D01*
X145189352Y-53728251D01*
X145033000Y-54105717D01*
X145033000Y-54107011D01*
X144988618Y-54180442D01*
X144973782Y-54216633D01*
X144830693Y-54815755D01*
X144827623Y-54835129D01*
X144441180Y-59665682D01*
X144369406Y-59876373D01*
X144217885Y-60016257D01*
X144002139Y-60071000D01*
X143151019Y-60071000D01*
X142919865Y-59988360D01*
X142793496Y-59777901D01*
X141134603Y-51483434D01*
X141097000Y-51103688D01*
X141097000Y-44426328D01*
X141161880Y-43933515D01*
X141348884Y-43482048D01*
X141646364Y-43094364D01*
X142034048Y-42796884D01*
X142485515Y-42609880D01*
X142978328Y-42545000D01*
X148043993Y-42545000D01*
X148546072Y-42612389D01*
X148546072Y-42612389D01*
G37*
X148546072Y-42612389D02*
X149004728Y-42806454D01*
X149395978Y-43114594D01*
X149692124Y-43514994D01*
X149872208Y-43979324D01*
X149924359Y-44483208D01*
X149765574Y-49723119D01*
X149647069Y-50328984D01*
X149346127Y-50855949D01*
X148884526Y-51265881D01*
X145812047Y-53206393D01*
X145796321Y-53218117D01*
X145601443Y-53388324D01*
X145478251Y-53439352D01*
X145189352Y-53728251D01*
X145033000Y-54105717D01*
X145033000Y-54107011D01*
X144988618Y-54180442D01*
X144973782Y-54216633D01*
X144830693Y-54815755D01*
X144827623Y-54835129D01*
X144441180Y-59665682D01*
X144369406Y-59876373D01*
X144217885Y-60016257D01*
X144002139Y-60071000D01*
X143151019Y-60071000D01*
X142919865Y-59988360D01*
X142793496Y-59777901D01*
X141134603Y-51483434D01*
X141097000Y-51103688D01*
X141097000Y-44426328D01*
X141161880Y-43933515D01*
X141348884Y-43482048D01*
X141646364Y-43094364D01*
X142034048Y-42796884D01*
X142485515Y-42609880D01*
X142978328Y-42545000D01*
X148043993Y-42545000D01*
X148546072Y-42612389D01*
G04 #@! TO.N,Net-(J402-Pad1)*
G36*
X167844628Y-43107284D02*
X168340707Y-43178031D01*
X168793368Y-43372408D01*
X169179645Y-43678146D01*
X169472782Y-44074071D01*
X169652478Y-44532761D01*
X169707208Y-45030856D01*
X169547470Y-52120152D01*
X169504228Y-52485747D01*
X167918173Y-59821252D01*
X167793091Y-60080986D01*
X167575955Y-60246147D01*
X167308020Y-60294501D01*
X167054092Y-60215595D01*
X166867177Y-60027250D01*
X166785726Y-59757891D01*
X166586253Y-55746268D01*
X166584457Y-55730389D01*
X166496709Y-55235809D01*
X166487238Y-55205352D01*
X166279027Y-54748234D01*
X166262265Y-54721097D01*
X166057000Y-54466861D01*
X166057000Y-54345717D01*
X165900648Y-53968251D01*
X165611749Y-53679352D01*
X165234283Y-53523000D01*
X165047784Y-53523000D01*
X164914532Y-53423543D01*
X164887112Y-53407964D01*
X164428179Y-53218128D01*
X164413232Y-53213009D01*
X161214281Y-52335475D01*
X160764242Y-52147223D01*
X160383353Y-51855810D01*
X160089005Y-51477182D01*
X159900520Y-51036187D01*
X159829065Y-50553631D01*
X159725310Y-44963073D01*
X159783214Y-44460452D01*
X159968262Y-43998764D01*
X160268367Y-43602115D01*
X160662343Y-43298501D01*
X161122368Y-43109368D01*
X161624455Y-43047010D01*
X167844628Y-43107284D01*
X167844628Y-43107284D01*
G37*
X167844628Y-43107284D02*
X168340707Y-43178031D01*
X168793368Y-43372408D01*
X169179645Y-43678146D01*
X169472782Y-44074071D01*
X169652478Y-44532761D01*
X169707208Y-45030856D01*
X169547470Y-52120152D01*
X169504228Y-52485747D01*
X167918173Y-59821252D01*
X167793091Y-60080986D01*
X167575955Y-60246147D01*
X167308020Y-60294501D01*
X167054092Y-60215595D01*
X166867177Y-60027250D01*
X166785726Y-59757891D01*
X166586253Y-55746268D01*
X166584457Y-55730389D01*
X166496709Y-55235809D01*
X166487238Y-55205352D01*
X166279027Y-54748234D01*
X166262265Y-54721097D01*
X166057000Y-54466861D01*
X166057000Y-54345717D01*
X165900648Y-53968251D01*
X165611749Y-53679352D01*
X165234283Y-53523000D01*
X165047784Y-53523000D01*
X164914532Y-53423543D01*
X164887112Y-53407964D01*
X164428179Y-53218128D01*
X164413232Y-53213009D01*
X161214281Y-52335475D01*
X160764242Y-52147223D01*
X160383353Y-51855810D01*
X160089005Y-51477182D01*
X159900520Y-51036187D01*
X159829065Y-50553631D01*
X159725310Y-44963073D01*
X159783214Y-44460452D01*
X159968262Y-43998764D01*
X160268367Y-43602115D01*
X160662343Y-43298501D01*
X161122368Y-43109368D01*
X161624455Y-43047010D01*
X167844628Y-43107284D01*
G04 #@! TO.N,Net-(J404-Pad1)*
G36*
X181723063Y-43068359D02*
X182184800Y-43259919D01*
X182579371Y-43566855D01*
X182878635Y-43967275D01*
X183061248Y-44432622D01*
X183115098Y-44938253D01*
X182953557Y-50741304D01*
X182844810Y-51324627D01*
X182566561Y-51837281D01*
X182143996Y-52239364D01*
X181609073Y-52496183D01*
X178784554Y-53342519D01*
X178766678Y-53349382D01*
X178547740Y-53453000D01*
X178355717Y-53453000D01*
X177978251Y-53609352D01*
X177689352Y-53898251D01*
X177533000Y-54275717D01*
X177533000Y-54396435D01*
X177423568Y-54585321D01*
X177409610Y-54620865D01*
X177276454Y-55207305D01*
X177273634Y-55226244D01*
X176934728Y-59901761D01*
X176833080Y-60211287D01*
X176609384Y-60425438D01*
X176295721Y-60513503D01*
X175862652Y-60525965D01*
X175723307Y-60489245D01*
X175635590Y-60393233D01*
X175540024Y-60004820D01*
X175399191Y-55092244D01*
X175397778Y-55076645D01*
X175323197Y-54589969D01*
X175314693Y-54559884D01*
X175123475Y-54106177D01*
X175107878Y-54079080D01*
X174811609Y-53685836D01*
X174801432Y-53673931D01*
X173491552Y-52320568D01*
X173203655Y-51935972D01*
X173024262Y-51499058D01*
X172958828Y-51023109D01*
X172897379Y-44960157D01*
X172957389Y-44466218D01*
X173140173Y-44012495D01*
X173434271Y-43621613D01*
X173819589Y-43320276D01*
X174269828Y-43129053D01*
X174762555Y-43059836D01*
X181218561Y-43004761D01*
X181723063Y-43068359D01*
X181723063Y-43068359D01*
G37*
X181723063Y-43068359D02*
X182184800Y-43259919D01*
X182579371Y-43566855D01*
X182878635Y-43967275D01*
X183061248Y-44432622D01*
X183115098Y-44938253D01*
X182953557Y-50741304D01*
X182844810Y-51324627D01*
X182566561Y-51837281D01*
X182143996Y-52239364D01*
X181609073Y-52496183D01*
X178784554Y-53342519D01*
X178766678Y-53349382D01*
X178547740Y-53453000D01*
X178355717Y-53453000D01*
X177978251Y-53609352D01*
X177689352Y-53898251D01*
X177533000Y-54275717D01*
X177533000Y-54396435D01*
X177423568Y-54585321D01*
X177409610Y-54620865D01*
X177276454Y-55207305D01*
X177273634Y-55226244D01*
X176934728Y-59901761D01*
X176833080Y-60211287D01*
X176609384Y-60425438D01*
X176295721Y-60513503D01*
X175862652Y-60525965D01*
X175723307Y-60489245D01*
X175635590Y-60393233D01*
X175540024Y-60004820D01*
X175399191Y-55092244D01*
X175397778Y-55076645D01*
X175323197Y-54589969D01*
X175314693Y-54559884D01*
X175123475Y-54106177D01*
X175107878Y-54079080D01*
X174811609Y-53685836D01*
X174801432Y-53673931D01*
X173491552Y-52320568D01*
X173203655Y-51935972D01*
X173024262Y-51499058D01*
X172958828Y-51023109D01*
X172897379Y-44960157D01*
X172957389Y-44466218D01*
X173140173Y-44012495D01*
X173434271Y-43621613D01*
X173819589Y-43320276D01*
X174269828Y-43129053D01*
X174762555Y-43059836D01*
X181218561Y-43004761D01*
X181723063Y-43068359D01*
G04 #@! TD*
M02*
