G04 #@! TF.GenerationSoftware,KiCad,Pcbnew,(5.0.0)*
G04 #@! TF.CreationDate,2018-11-03T21:44:44-02:30*
G04 #@! TF.ProjectId,Maestro Adapter,4D61657374726F20416461707465722E,6*
G04 #@! TF.SameCoordinates,Original*
G04 #@! TF.FileFunction,Copper,L1,Top,Signal*
G04 #@! TF.FilePolarity,Positive*
%FSLAX46Y46*%
G04 Gerber Fmt 4.6, Leading zero omitted, Abs format (unit mm)*
G04 Created by KiCad (PCBNEW (5.0.0)) date 11/03/18 21:44:44*
%MOMM*%
%LPD*%
G01*
G04 APERTURE LIST*
G04 #@! TA.AperFunction,ComponentPad*
%ADD10C,1.500000*%
G04 #@! TD*
G04 #@! TA.AperFunction,ComponentPad*
%ADD11R,1.500000X1.500000*%
G04 #@! TD*
G04 #@! TA.AperFunction,ComponentPad*
%ADD12C,6.400000*%
G04 #@! TD*
G04 #@! TA.AperFunction,SMDPad,CuDef*
%ADD13R,1.200000X1.200000*%
G04 #@! TD*
G04 #@! TA.AperFunction,SMDPad,CuDef*
%ADD14R,0.900000X0.500000*%
G04 #@! TD*
G04 #@! TA.AperFunction,ComponentPad*
%ADD15R,1.724000X1.724000*%
G04 #@! TD*
G04 #@! TA.AperFunction,ComponentPad*
%ADD16C,1.824000*%
G04 #@! TD*
G04 #@! TA.AperFunction,Conductor*
%ADD17C,0.250000*%
G04 #@! TD*
G04 APERTURE END LIST*
D10*
G04 #@! TO.P,18 Channel Maestro,19*
G04 #@! TO.N,Net-(J17-Pad1)*
X86790000Y-161620000D03*
G04 #@! TO.P,18 Channel Maestro,18*
G04 #@! TO.N,Net-(J16-Pad1)*
X89330000Y-161620000D03*
G04 #@! TO.P,18 Channel Maestro,17*
G04 #@! TO.N,Net-(J15-Pad1)*
X91870000Y-161620000D03*
G04 #@! TO.P,18 Channel Maestro,16*
G04 #@! TO.N,Net-(J14-Pad1)*
X94410000Y-161620000D03*
G04 #@! TO.P,18 Channel Maestro,15*
G04 #@! TO.N,Net-(J13-Pad1)*
X96950000Y-161620000D03*
G04 #@! TO.P,18 Channel Maestro,14*
G04 #@! TO.N,Net-(J12-Pad1)*
X99490000Y-161620000D03*
D11*
G04 #@! TO.P,18 Channel Maestro,38*
G04 #@! TO.N,GND*
X86790000Y-166700000D03*
G04 #@! TO.P,18 Channel Maestro,37*
X89330000Y-166700000D03*
G04 #@! TO.P,18 Channel Maestro,36*
X91870000Y-166700000D03*
G04 #@! TO.P,18 Channel Maestro,35*
X94410000Y-166700000D03*
G04 #@! TO.P,18 Channel Maestro,34*
X96950000Y-166700000D03*
G04 #@! TO.P,18 Channel Maestro,33*
X99490000Y-166700000D03*
G04 #@! TO.P,18 Channel Maestro,20*
X106570000Y-124040000D03*
G04 #@! TO.P,18 Channel Maestro,21*
X106570000Y-126580000D03*
G04 #@! TO.P,18 Channel Maestro,22*
X106570000Y-129120000D03*
G04 #@! TO.P,18 Channel Maestro,23*
X106570000Y-131660000D03*
G04 #@! TO.P,18 Channel Maestro,24*
X106570000Y-134200000D03*
G04 #@! TO.P,18 Channel Maestro,25*
X106570000Y-136740000D03*
G04 #@! TO.P,18 Channel Maestro,26*
X106570000Y-139280000D03*
G04 #@! TO.P,18 Channel Maestro,27*
X106570000Y-141820000D03*
G04 #@! TO.P,18 Channel Maestro,28*
X106570000Y-144360000D03*
G04 #@! TO.P,18 Channel Maestro,29*
X106570000Y-146900000D03*
G04 #@! TO.P,18 Channel Maestro,30*
X106570000Y-149440000D03*
G04 #@! TO.P,18 Channel Maestro,31*
X106570000Y-151980000D03*
G04 #@! TO.P,18 Channel Maestro,32*
X106570000Y-154520000D03*
D10*
G04 #@! TO.P,18 Channel Maestro,1*
G04 #@! TO.N,Net-(J0-Pad1)*
X101490000Y-124040000D03*
G04 #@! TO.P,18 Channel Maestro,2*
G04 #@! TO.N,Net-(J1-Pad1)*
X101490000Y-126580000D03*
G04 #@! TO.P,18 Channel Maestro,3*
G04 #@! TO.N,Net-(J18-Pad3)*
X101490000Y-129120000D03*
G04 #@! TO.P,18 Channel Maestro,4*
G04 #@! TO.N,Net-(J18-Pad4)*
X101490000Y-131660000D03*
G04 #@! TO.P,18 Channel Maestro,5*
G04 #@! TO.N,Net-(J18-Pad5)*
X101490000Y-134200000D03*
G04 #@! TO.P,18 Channel Maestro,6*
G04 #@! TO.N,Net-(J18-Pad6)*
X101490000Y-136740000D03*
G04 #@! TO.P,18 Channel Maestro,7*
G04 #@! TO.N,+5V*
X101490000Y-139280000D03*
G04 #@! TO.P,18 Channel Maestro,8*
G04 #@! TO.N,Net-(J18-Pad8)*
X101490000Y-141820000D03*
G04 #@! TO.P,18 Channel Maestro,9*
G04 #@! TO.N,Net-(J18-Pad9)*
X101490000Y-144360000D03*
G04 #@! TO.P,18 Channel Maestro,10*
G04 #@! TO.N,Net-(J18-Pad10)*
X101490000Y-146900000D03*
G04 #@! TO.P,18 Channel Maestro,11*
G04 #@! TO.N,Net-(J18-Pad11)*
X101490000Y-149440000D03*
G04 #@! TO.P,18 Channel Maestro,12*
G04 #@! TO.N,Net-(J10-Pad1)*
X101490000Y-151980000D03*
G04 #@! TO.P,18 Channel Maestro,13*
G04 #@! TO.N,Net-(J11-Pad1)*
X101490000Y-154520000D03*
G04 #@! TD*
D12*
G04 #@! TO.P,,*
G04 #@! TO.N,*
X111920000Y-126520000D03*
G04 #@! TD*
G04 #@! TO.P,,*
G04 #@! TO.N,*
X75000000Y-164270000D03*
G04 #@! TD*
G04 #@! TO.P,,*
G04 #@! TO.N,*
X111920000Y-164270000D03*
G04 #@! TD*
D13*
G04 #@! TO.P,D1,1*
G04 #@! TO.N,GND*
X104050000Y-148110000D03*
G04 #@! TO.P,D1,2*
G04 #@! TO.N,Net-(D1-Pad2)*
X104050000Y-145910000D03*
G04 #@! TD*
D14*
G04 #@! TO.P,R1,2*
G04 #@! TO.N,Net-(D1-Pad2)*
X103990000Y-144180000D03*
G04 #@! TO.P,R1,1*
G04 #@! TO.N,+5V*
X103990000Y-142680000D03*
G04 #@! TD*
D15*
G04 #@! TO.P,Channel 0,1*
G04 #@! TO.N,Net-(J0-Pad1)*
X110860000Y-135080000D03*
D16*
G04 #@! TO.P,Channel 0,2*
G04 #@! TO.N,GND*
X110860000Y-132540000D03*
G04 #@! TD*
G04 #@! TO.P,Channel 1,2*
G04 #@! TO.N,GND*
X110860000Y-140050000D03*
D15*
G04 #@! TO.P,Channel 1,1*
G04 #@! TO.N,Net-(J1-Pad1)*
X110860000Y-142590000D03*
G04 #@! TD*
G04 #@! TO.P,Channel 2,1*
G04 #@! TO.N,Net-(J18-Pad3)*
X110860000Y-150100000D03*
D16*
G04 #@! TO.P,Channel 2,2*
G04 #@! TO.N,GND*
X110860000Y-147560000D03*
G04 #@! TD*
G04 #@! TO.P,Channel 3,2*
G04 #@! TO.N,GND*
X110860000Y-155070000D03*
D15*
G04 #@! TO.P,Channel 3,1*
G04 #@! TO.N,Net-(J18-Pad4)*
X110860000Y-157610000D03*
G04 #@! TD*
G04 #@! TO.P,Channel 4,1*
G04 #@! TO.N,Net-(J18-Pad5)*
X95540000Y-133010000D03*
D16*
G04 #@! TO.P,Channel 4,2*
G04 #@! TO.N,GND*
X95540000Y-130470000D03*
G04 #@! TD*
G04 #@! TO.P,Channel 5,2*
G04 #@! TO.N,GND*
X95540000Y-137980000D03*
D15*
G04 #@! TO.P,Channel 5,1*
G04 #@! TO.N,Net-(J18-Pad6)*
X95540000Y-140520000D03*
G04 #@! TD*
G04 #@! TO.P,Channel 6,1*
G04 #@! TO.N,Net-(J18-Pad8)*
X95540000Y-148030000D03*
D16*
G04 #@! TO.P,Channel 6,2*
G04 #@! TO.N,GND*
X95540000Y-145490000D03*
G04 #@! TD*
G04 #@! TO.P,Channel 7,2*
G04 #@! TO.N,GND*
X95540000Y-153000000D03*
D15*
G04 #@! TO.P,Channel 7,1*
G04 #@! TO.N,Net-(J18-Pad9)*
X95540000Y-155540000D03*
G04 #@! TD*
G04 #@! TO.P,Channel 8,1*
G04 #@! TO.N,Net-(J18-Pad10)*
X90300000Y-138220000D03*
D16*
G04 #@! TO.P,Channel 8,2*
G04 #@! TO.N,GND*
X90300000Y-140760000D03*
G04 #@! TD*
G04 #@! TO.P,Channel 9,2*
G04 #@! TO.N,GND*
X90300000Y-148270000D03*
D15*
G04 #@! TO.P,Channel 9,1*
G04 #@! TO.N,Net-(J18-Pad11)*
X90300000Y-145730000D03*
G04 #@! TD*
G04 #@! TO.P,Channel 10,1*
G04 #@! TO.N,Net-(J10-Pad1)*
X90310000Y-153240000D03*
D16*
G04 #@! TO.P,Channel 10,2*
G04 #@! TO.N,GND*
X90310000Y-155780000D03*
G04 #@! TD*
G04 #@! TO.P,Channel 11,2*
G04 #@! TO.N,GND*
X81280000Y-137980000D03*
D15*
G04 #@! TO.P,Channel 11,1*
G04 #@! TO.N,Net-(J11-Pad1)*
X81280000Y-140520000D03*
G04 #@! TD*
D16*
G04 #@! TO.P,Channel 12,2*
G04 #@! TO.N,GND*
X81280000Y-145490000D03*
D15*
G04 #@! TO.P,Channel 12,1*
G04 #@! TO.N,Net-(J12-Pad1)*
X81280000Y-148030000D03*
G04 #@! TD*
G04 #@! TO.P,Channel 13,1*
G04 #@! TO.N,Net-(J13-Pad1)*
X81280000Y-155540000D03*
D16*
G04 #@! TO.P,Channel 13,2*
G04 #@! TO.N,GND*
X81280000Y-153000000D03*
G04 #@! TD*
G04 #@! TO.P,Channel 14,2*
G04 #@! TO.N,GND*
X76050000Y-135480000D03*
D15*
G04 #@! TO.P,Channel 14,1*
G04 #@! TO.N,Net-(J14-Pad1)*
X76050000Y-132940000D03*
G04 #@! TD*
G04 #@! TO.P,Channel 15,1*
G04 #@! TO.N,Net-(J15-Pad1)*
X76050000Y-140450000D03*
D16*
G04 #@! TO.P,Channel 15,2*
G04 #@! TO.N,GND*
X76050000Y-142990000D03*
G04 #@! TD*
G04 #@! TO.P,Channel 16,2*
G04 #@! TO.N,GND*
X76050000Y-150500000D03*
D15*
G04 #@! TO.P,Channel 16,1*
G04 #@! TO.N,Net-(J16-Pad1)*
X76050000Y-147960000D03*
G04 #@! TD*
G04 #@! TO.P,Channel 17,1*
G04 #@! TO.N,Net-(J17-Pad1)*
X76050000Y-155470000D03*
D16*
G04 #@! TO.P,Channel 17,2*
G04 #@! TO.N,GND*
X76050000Y-158010000D03*
G04 #@! TD*
D12*
G04 #@! TO.P,,*
G04 #@! TO.N,*
X75000000Y-126520000D03*
G04 #@! TD*
D17*
G04 #@! TO.N,Net-(J0-Pad1)*
X102710000Y-125280000D02*
X101490000Y-124060000D01*
X108170000Y-126140000D02*
X107310000Y-125280000D01*
X109748000Y-135080000D02*
X108170000Y-133502000D01*
X110860000Y-135080000D02*
X109748000Y-135080000D01*
X108170000Y-133502000D02*
X108170000Y-126140000D01*
X107310000Y-125280000D02*
X102710000Y-125280000D01*
G04 #@! TO.N,GND*
X105570000Y-149460000D02*
X106570000Y-149460000D01*
X104550000Y-149460000D02*
X105570000Y-149460000D01*
X104050000Y-148960000D02*
X104550000Y-149460000D01*
X104050000Y-148110000D02*
X104050000Y-148960000D01*
G04 #@! TO.N,Net-(J1-Pad1)*
X102239999Y-127329999D02*
X101490000Y-126580000D01*
X107290000Y-127860000D02*
X102770000Y-127860000D01*
X102770000Y-127860000D02*
X102239999Y-127329999D01*
X109380000Y-142222000D02*
X109380000Y-136640000D01*
X107719989Y-128289989D02*
X107290000Y-127860000D01*
X109380000Y-136640000D02*
X107719989Y-134979989D01*
X110860000Y-142590000D02*
X109748000Y-142590000D01*
X107719989Y-134979989D02*
X107719989Y-128289989D01*
X109748000Y-142590000D02*
X109380000Y-142222000D01*
G04 #@! TO.N,Net-(J10-Pad1)*
X91412000Y-153240000D02*
X90300000Y-153240000D01*
X91422000Y-153240000D02*
X90310000Y-153240000D01*
X92250000Y-154068000D02*
X91422000Y-153240000D01*
X98850000Y-154640000D02*
X98850000Y-157020000D01*
X101490000Y-152000000D02*
X98850000Y-154640000D01*
X98850000Y-157020000D02*
X97740000Y-158130000D01*
X97740000Y-158130000D02*
X92820000Y-158130000D01*
X92820000Y-158130000D02*
X92250000Y-157560000D01*
X92250000Y-157560000D02*
X92250000Y-154068000D01*
G04 #@! TO.N,Net-(J11-Pad1)*
X81280000Y-141632000D02*
X81280000Y-140520000D01*
X101490000Y-155240701D02*
X98090701Y-158640000D01*
X101490000Y-154540000D02*
X101490000Y-155240701D01*
X98090701Y-158640000D02*
X85610000Y-158640000D01*
X85610000Y-158640000D02*
X84100000Y-157130000D01*
X84100000Y-157130000D02*
X84100000Y-144452000D01*
X84100000Y-144452000D02*
X81280000Y-141632000D01*
G04 #@! TO.N,Net-(J18-Pad3)*
X109748000Y-150100000D02*
X110860000Y-150100000D01*
X108830000Y-149182000D02*
X109748000Y-150100000D01*
X104830000Y-132480000D02*
X104830000Y-137780000D01*
X101490000Y-129140000D02*
X104830000Y-132480000D01*
X104830000Y-137780000D02*
X105090000Y-138040000D01*
X105090000Y-138040000D02*
X108200000Y-138040000D01*
X108200000Y-138040000D02*
X108830000Y-138670000D01*
X108830000Y-138670000D02*
X108830000Y-149182000D01*
G04 #@! TO.N,Net-(J18-Pad4)*
X103930000Y-134120000D02*
X101490000Y-131680000D01*
X103930000Y-139880000D02*
X103930000Y-134120000D01*
X109748000Y-157610000D02*
X108379990Y-156241990D01*
X110860000Y-157610000D02*
X109748000Y-157610000D01*
X108379990Y-156241990D02*
X108379990Y-141069990D01*
X107870000Y-140560000D02*
X104610000Y-140560000D01*
X108379990Y-141069990D02*
X107870000Y-140560000D01*
X104610000Y-140560000D02*
X103930000Y-139880000D01*
G04 #@! TO.N,Net-(J18-Pad5)*
X101490000Y-134200000D02*
X99180000Y-134200000D01*
X97990000Y-133010000D02*
X95540000Y-133010000D01*
X99180000Y-134200000D02*
X97990000Y-133010000D01*
G04 #@! TO.N,Net-(J18-Pad6)*
X97730000Y-140520000D02*
X95540000Y-140520000D01*
X101490000Y-136760000D02*
X97730000Y-140520000D01*
G04 #@! TO.N,Net-(J18-Pad8)*
X95540000Y-147790000D02*
X95540000Y-148030000D01*
X101490000Y-141840000D02*
X95540000Y-147790000D01*
G04 #@! TO.N,Net-(J18-Pad9)*
X101490000Y-144380000D02*
X97160000Y-148710000D01*
X96652000Y-155540000D02*
X95540000Y-155540000D01*
X97160000Y-155032000D02*
X96652000Y-155540000D01*
X97160000Y-148710000D02*
X97160000Y-155032000D01*
G04 #@! TO.N,Net-(J18-Pad10)*
X91412000Y-138220000D02*
X90300000Y-138220000D01*
X101490000Y-146920000D02*
X97650000Y-150760000D01*
X97650000Y-150760000D02*
X97650000Y-156370000D01*
X97650000Y-156370000D02*
X96920000Y-157100000D01*
X96920000Y-157100000D02*
X94380000Y-157100000D01*
X93890000Y-156610000D02*
X93890000Y-140698000D01*
X94380000Y-157100000D02*
X93890000Y-156610000D01*
X93890000Y-140698000D02*
X91412000Y-138220000D01*
G04 #@! TO.N,Net-(J18-Pad11)*
X100429340Y-149460000D02*
X98320000Y-151569340D01*
X101490000Y-149460000D02*
X100429340Y-149460000D01*
X98320000Y-151569340D02*
X98320000Y-156550000D01*
X97319990Y-157550010D02*
X93870010Y-157550010D01*
X98320000Y-156550000D02*
X97319990Y-157550010D01*
X93870010Y-157550010D02*
X93170000Y-156850000D01*
X91412000Y-145730000D02*
X90300000Y-145730000D01*
X93170000Y-147488000D02*
X91412000Y-145730000D01*
X93170000Y-156850000D02*
X93170000Y-147488000D01*
G04 #@! TO.N,Net-(J12-Pad1)*
X99490000Y-160579340D02*
X98080660Y-159170000D01*
X99490000Y-161640000D02*
X99490000Y-160579340D01*
X81280000Y-149142000D02*
X81280000Y-148030000D01*
X82880000Y-150742000D02*
X81280000Y-149142000D01*
X98080660Y-159170000D02*
X84460000Y-159170000D01*
X82880000Y-157590000D02*
X82880000Y-150742000D01*
X84460000Y-159170000D02*
X82880000Y-157590000D01*
G04 #@! TO.N,Net-(J13-Pad1)*
X81280000Y-157760000D02*
X81280000Y-155540000D01*
X83310000Y-159790000D02*
X81280000Y-157760000D01*
X96950000Y-161640000D02*
X95100000Y-159790000D01*
X95100000Y-159790000D02*
X83310000Y-159790000D01*
G04 #@! TO.N,Net-(J14-Pad1)*
X74938000Y-132940000D02*
X76050000Y-132940000D01*
X72210000Y-135668000D02*
X74938000Y-132940000D01*
X72210000Y-158250000D02*
X72210000Y-135668000D01*
X74380000Y-160420000D02*
X72210000Y-158250000D01*
X77140000Y-160420000D02*
X74380000Y-160420000D01*
X82050000Y-165330000D02*
X77140000Y-160420000D01*
X87430000Y-165340000D02*
X87420000Y-165330000D01*
X87420000Y-165330000D02*
X82050000Y-165330000D01*
X91750660Y-165340000D02*
X87430000Y-165340000D01*
X94410000Y-162680660D02*
X91750660Y-165340000D01*
X94410000Y-161620000D02*
X94410000Y-162680660D01*
G04 #@! TO.N,Net-(J15-Pad1)*
X74938000Y-140450000D02*
X76050000Y-140450000D01*
X72660011Y-142727989D02*
X74938000Y-140450000D01*
X72660011Y-158063601D02*
X72660011Y-142727989D01*
X74536410Y-159940000D02*
X72660011Y-158063601D01*
X77650000Y-159940000D02*
X74536410Y-159940000D01*
X82540009Y-164830009D02*
X77650000Y-159940000D01*
X88659991Y-164830009D02*
X82540009Y-164830009D01*
X91870000Y-161620000D02*
X88659991Y-164830009D01*
G04 #@! TO.N,Net-(J16-Pad1)*
X83119990Y-164369990D02*
X78210000Y-159460000D01*
X78210000Y-159460000D02*
X74692820Y-159460000D01*
X74692820Y-159460000D02*
X73220000Y-157987180D01*
X73220000Y-157987180D02*
X73220000Y-149678000D01*
X74938000Y-147960000D02*
X76050000Y-147960000D01*
X73220000Y-149678000D02*
X74938000Y-147960000D01*
X86580010Y-164369990D02*
X83119990Y-164369990D01*
X89330000Y-161620000D02*
X86580010Y-164369990D01*
G04 #@! TO.N,Net-(J17-Pad1)*
X82220000Y-161640000D02*
X76050000Y-155470000D01*
X86790000Y-161640000D02*
X82220000Y-161640000D01*
G04 #@! TO.N,Net-(D1-Pad2)*
X104050000Y-144240000D02*
X103990000Y-144180000D01*
X104050000Y-145910000D02*
X104050000Y-144240000D01*
G04 #@! TO.N,+5V*
X103990000Y-141780000D02*
X101490000Y-139280000D01*
X103990000Y-142680000D02*
X103990000Y-141780000D01*
G04 #@! TD*
M02*
