G04 #@! TF.GenerationSoftware,KiCad,Pcbnew,(5.0.0)*
G04 #@! TF.CreationDate,2018-11-03T21:44:44-02:30*
G04 #@! TF.ProjectId,Maestro Adapter,4D61657374726F20416461707465722E,6*
G04 #@! TF.SameCoordinates,Original*
G04 #@! TF.FileFunction,Legend,Bot*
G04 #@! TF.FilePolarity,Positive*
%FSLAX46Y46*%
G04 Gerber Fmt 4.6, Leading zero omitted, Abs format (unit mm)*
G04 Created by KiCad (PCBNEW (5.0.0)) date 11/03/18 21:44:44*
%MOMM*%
%LPD*%
G01*
G04 APERTURE LIST*
%ADD10C,0.300000*%
%ADD11C,0.187500*%
%ADD12C,0.150000*%
G04 APERTURE END LIST*
D10*
X104585714Y-164678571D02*
X105442857Y-164678571D01*
X105014285Y-164678571D02*
X105014285Y-163178571D01*
X105157142Y-163392857D01*
X105300000Y-163535714D01*
X105442857Y-163607142D01*
X103728571Y-163821428D02*
X103871428Y-163750000D01*
X103942857Y-163678571D01*
X104014285Y-163535714D01*
X104014285Y-163464285D01*
X103942857Y-163321428D01*
X103871428Y-163250000D01*
X103728571Y-163178571D01*
X103442857Y-163178571D01*
X103300000Y-163250000D01*
X103228571Y-163321428D01*
X103157142Y-163464285D01*
X103157142Y-163535714D01*
X103228571Y-163678571D01*
X103300000Y-163750000D01*
X103442857Y-163821428D01*
X103728571Y-163821428D01*
X103871428Y-163892857D01*
X103942857Y-163964285D01*
X104014285Y-164107142D01*
X104014285Y-164392857D01*
X103942857Y-164535714D01*
X103871428Y-164607142D01*
X103728571Y-164678571D01*
X103442857Y-164678571D01*
X103300000Y-164607142D01*
X103228571Y-164535714D01*
X103157142Y-164392857D01*
X103157142Y-164107142D01*
X103228571Y-163964285D01*
X103300000Y-163892857D01*
X103442857Y-163821428D01*
X100514285Y-164535714D02*
X100585714Y-164607142D01*
X100800000Y-164678571D01*
X100942857Y-164678571D01*
X101157142Y-164607142D01*
X101300000Y-164464285D01*
X101371428Y-164321428D01*
X101442857Y-164035714D01*
X101442857Y-163821428D01*
X101371428Y-163535714D01*
X101300000Y-163392857D01*
X101157142Y-163250000D01*
X100942857Y-163178571D01*
X100800000Y-163178571D01*
X100585714Y-163250000D01*
X100514285Y-163321428D01*
X99871428Y-164678571D02*
X99871428Y-163178571D01*
X99228571Y-164678571D02*
X99228571Y-163892857D01*
X99300000Y-163750000D01*
X99442857Y-163678571D01*
X99657142Y-163678571D01*
X99800000Y-163750000D01*
X99871428Y-163821428D01*
X97871428Y-164678571D02*
X97871428Y-163892857D01*
X97942857Y-163750000D01*
X98085714Y-163678571D01*
X98371428Y-163678571D01*
X98514285Y-163750000D01*
X97871428Y-164607142D02*
X98014285Y-164678571D01*
X98371428Y-164678571D01*
X98514285Y-164607142D01*
X98585714Y-164464285D01*
X98585714Y-164321428D01*
X98514285Y-164178571D01*
X98371428Y-164107142D01*
X98014285Y-164107142D01*
X97871428Y-164035714D01*
X97157142Y-163678571D02*
X97157142Y-164678571D01*
X97157142Y-163821428D02*
X97085714Y-163750000D01*
X96942857Y-163678571D01*
X96728571Y-163678571D01*
X96585714Y-163750000D01*
X96514285Y-163892857D01*
X96514285Y-164678571D01*
X95800000Y-163678571D02*
X95800000Y-164678571D01*
X95800000Y-163821428D02*
X95728571Y-163750000D01*
X95585714Y-163678571D01*
X95371428Y-163678571D01*
X95228571Y-163750000D01*
X95157142Y-163892857D01*
X95157142Y-164678571D01*
X93871428Y-164607142D02*
X94014285Y-164678571D01*
X94300000Y-164678571D01*
X94442857Y-164607142D01*
X94514285Y-164464285D01*
X94514285Y-163892857D01*
X94442857Y-163750000D01*
X94300000Y-163678571D01*
X94014285Y-163678571D01*
X93871428Y-163750000D01*
X93800000Y-163892857D01*
X93800000Y-164035714D01*
X94514285Y-164178571D01*
X92942857Y-164678571D02*
X93085714Y-164607142D01*
X93157142Y-164464285D01*
X93157142Y-163178571D01*
X91228571Y-164678571D02*
X91228571Y-163178571D01*
X90728571Y-164250000D01*
X90228571Y-163178571D01*
X90228571Y-164678571D01*
X88871428Y-164678571D02*
X88871428Y-163892857D01*
X88942857Y-163750000D01*
X89085714Y-163678571D01*
X89371428Y-163678571D01*
X89514285Y-163750000D01*
X88871428Y-164607142D02*
X89014285Y-164678571D01*
X89371428Y-164678571D01*
X89514285Y-164607142D01*
X89585714Y-164464285D01*
X89585714Y-164321428D01*
X89514285Y-164178571D01*
X89371428Y-164107142D01*
X89014285Y-164107142D01*
X88871428Y-164035714D01*
X87585714Y-164607142D02*
X87728571Y-164678571D01*
X88014285Y-164678571D01*
X88157142Y-164607142D01*
X88228571Y-164464285D01*
X88228571Y-163892857D01*
X88157142Y-163750000D01*
X88014285Y-163678571D01*
X87728571Y-163678571D01*
X87585714Y-163750000D01*
X87514285Y-163892857D01*
X87514285Y-164035714D01*
X88228571Y-164178571D01*
X86942857Y-164607142D02*
X86800000Y-164678571D01*
X86514285Y-164678571D01*
X86371428Y-164607142D01*
X86300000Y-164464285D01*
X86300000Y-164392857D01*
X86371428Y-164250000D01*
X86514285Y-164178571D01*
X86728571Y-164178571D01*
X86871428Y-164107142D01*
X86942857Y-163964285D01*
X86942857Y-163892857D01*
X86871428Y-163750000D01*
X86728571Y-163678571D01*
X86514285Y-163678571D01*
X86371428Y-163750000D01*
X85871428Y-163678571D02*
X85300000Y-163678571D01*
X85657142Y-163178571D02*
X85657142Y-164464285D01*
X85585714Y-164607142D01*
X85442857Y-164678571D01*
X85300000Y-164678571D01*
X84800000Y-164678571D02*
X84800000Y-163678571D01*
X84800000Y-163964285D02*
X84728571Y-163821428D01*
X84657142Y-163750000D01*
X84514285Y-163678571D01*
X84371428Y-163678571D01*
X83657142Y-164678571D02*
X83800000Y-164607142D01*
X83871428Y-164535714D01*
X83942857Y-164392857D01*
X83942857Y-163964285D01*
X83871428Y-163821428D01*
X83800000Y-163750000D01*
X83657142Y-163678571D01*
X83442857Y-163678571D01*
X83300000Y-163750000D01*
X83228571Y-163821428D01*
X83157142Y-163964285D01*
X83157142Y-164392857D01*
X83228571Y-164535714D01*
X83300000Y-164607142D01*
X83442857Y-164678571D01*
X83657142Y-164678571D01*
D11*
X114386428Y-136242142D02*
X114386428Y-136492142D01*
X114779285Y-136599285D02*
X114779285Y-136242142D01*
X114029285Y-136242142D01*
X114029285Y-136599285D01*
X114779285Y-137242142D02*
X114386428Y-137242142D01*
X114315000Y-137206428D01*
X114279285Y-137135000D01*
X114279285Y-136992142D01*
X114315000Y-136920714D01*
X114743571Y-137242142D02*
X114779285Y-137170714D01*
X114779285Y-136992142D01*
X114743571Y-136920714D01*
X114672142Y-136885000D01*
X114600714Y-136885000D01*
X114529285Y-136920714D01*
X114493571Y-136992142D01*
X114493571Y-137170714D01*
X114457857Y-137242142D01*
X114743571Y-137563571D02*
X114779285Y-137635000D01*
X114779285Y-137777857D01*
X114743571Y-137849285D01*
X114672142Y-137885000D01*
X114636428Y-137885000D01*
X114565000Y-137849285D01*
X114529285Y-137777857D01*
X114529285Y-137670714D01*
X114493571Y-137599285D01*
X114422142Y-137563571D01*
X114386428Y-137563571D01*
X114315000Y-137599285D01*
X114279285Y-137670714D01*
X114279285Y-137777857D01*
X114315000Y-137849285D01*
X114279285Y-138099285D02*
X114279285Y-138385000D01*
X114029285Y-138206428D02*
X114672142Y-138206428D01*
X114743571Y-138242142D01*
X114779285Y-138313571D01*
X114779285Y-138385000D01*
X114743571Y-138920714D02*
X114779285Y-138849285D01*
X114779285Y-138706428D01*
X114743571Y-138635000D01*
X114672142Y-138599285D01*
X114386428Y-138599285D01*
X114315000Y-138635000D01*
X114279285Y-138706428D01*
X114279285Y-138849285D01*
X114315000Y-138920714D01*
X114386428Y-138956428D01*
X114457857Y-138956428D01*
X114529285Y-138599285D01*
X114779285Y-139277857D02*
X114279285Y-139277857D01*
X114422142Y-139277857D02*
X114350714Y-139313571D01*
X114315000Y-139349285D01*
X114279285Y-139420714D01*
X114279285Y-139492142D01*
X114279285Y-139742142D02*
X114779285Y-139742142D01*
X114350714Y-139742142D02*
X114315000Y-139777857D01*
X114279285Y-139849285D01*
X114279285Y-139956428D01*
X114315000Y-140027857D01*
X114386428Y-140063571D01*
X114779285Y-140063571D01*
X114386428Y-140992142D02*
X114386428Y-141242142D01*
X114779285Y-141349285D02*
X114779285Y-140992142D01*
X114029285Y-140992142D01*
X114029285Y-141349285D01*
X114779285Y-141992142D02*
X114029285Y-141992142D01*
X114743571Y-141992142D02*
X114779285Y-141920714D01*
X114779285Y-141777857D01*
X114743571Y-141706428D01*
X114707857Y-141670714D01*
X114636428Y-141635000D01*
X114422142Y-141635000D01*
X114350714Y-141670714D01*
X114315000Y-141706428D01*
X114279285Y-141777857D01*
X114279285Y-141920714D01*
X114315000Y-141992142D01*
X114279285Y-142670714D02*
X114886428Y-142670714D01*
X114957857Y-142635000D01*
X114993571Y-142599285D01*
X115029285Y-142527857D01*
X115029285Y-142420714D01*
X114993571Y-142349285D01*
X114743571Y-142670714D02*
X114779285Y-142599285D01*
X114779285Y-142456428D01*
X114743571Y-142385000D01*
X114707857Y-142349285D01*
X114636428Y-142313571D01*
X114422142Y-142313571D01*
X114350714Y-142349285D01*
X114315000Y-142385000D01*
X114279285Y-142456428D01*
X114279285Y-142599285D01*
X114315000Y-142670714D01*
X114743571Y-143313571D02*
X114779285Y-143242142D01*
X114779285Y-143099285D01*
X114743571Y-143027857D01*
X114672142Y-142992142D01*
X114386428Y-142992142D01*
X114315000Y-143027857D01*
X114279285Y-143099285D01*
X114279285Y-143242142D01*
X114315000Y-143313571D01*
X114386428Y-143349285D01*
X114457857Y-143349285D01*
X114529285Y-142992142D01*
X114779285Y-144670714D02*
X114422142Y-144420714D01*
X114779285Y-144242142D02*
X114029285Y-144242142D01*
X114029285Y-144527857D01*
X114065000Y-144599285D01*
X114100714Y-144635000D01*
X114172142Y-144670714D01*
X114279285Y-144670714D01*
X114350714Y-144635000D01*
X114386428Y-144599285D01*
X114422142Y-144527857D01*
X114422142Y-144242142D01*
X114779285Y-145099285D02*
X114743571Y-145027857D01*
X114707857Y-144992142D01*
X114636428Y-144956428D01*
X114422142Y-144956428D01*
X114350714Y-144992142D01*
X114315000Y-145027857D01*
X114279285Y-145099285D01*
X114279285Y-145206428D01*
X114315000Y-145277857D01*
X114350714Y-145313571D01*
X114422142Y-145349285D01*
X114636428Y-145349285D01*
X114707857Y-145313571D01*
X114743571Y-145277857D01*
X114779285Y-145206428D01*
X114779285Y-145099285D01*
X114779285Y-145670714D02*
X114029285Y-145670714D01*
X114315000Y-145670714D02*
X114279285Y-145742142D01*
X114279285Y-145885000D01*
X114315000Y-145956428D01*
X114350714Y-145992142D01*
X114422142Y-146027857D01*
X114636428Y-146027857D01*
X114707857Y-145992142D01*
X114743571Y-145956428D01*
X114779285Y-145885000D01*
X114779285Y-145742142D01*
X114743571Y-145670714D01*
X114779285Y-146456428D02*
X114743571Y-146385000D01*
X114707857Y-146349285D01*
X114636428Y-146313571D01*
X114422142Y-146313571D01*
X114350714Y-146349285D01*
X114315000Y-146385000D01*
X114279285Y-146456428D01*
X114279285Y-146563571D01*
X114315000Y-146635000D01*
X114350714Y-146670714D01*
X114422142Y-146706428D01*
X114636428Y-146706428D01*
X114707857Y-146670714D01*
X114743571Y-146635000D01*
X114779285Y-146563571D01*
X114779285Y-146456428D01*
X114279285Y-146920714D02*
X114279285Y-147206428D01*
X114029285Y-147027857D02*
X114672142Y-147027857D01*
X114743571Y-147063571D01*
X114779285Y-147135000D01*
X114779285Y-147206428D01*
X114779285Y-147456428D02*
X114279285Y-147456428D01*
X114029285Y-147456428D02*
X114065000Y-147420714D01*
X114100714Y-147456428D01*
X114065000Y-147492142D01*
X114029285Y-147456428D01*
X114100714Y-147456428D01*
X114743571Y-148135000D02*
X114779285Y-148063571D01*
X114779285Y-147920714D01*
X114743571Y-147849285D01*
X114707857Y-147813571D01*
X114636428Y-147777857D01*
X114422142Y-147777857D01*
X114350714Y-147813571D01*
X114315000Y-147849285D01*
X114279285Y-147920714D01*
X114279285Y-148063571D01*
X114315000Y-148135000D01*
X114743571Y-148420714D02*
X114779285Y-148492142D01*
X114779285Y-148635000D01*
X114743571Y-148706428D01*
X114672142Y-148742142D01*
X114636428Y-148742142D01*
X114565000Y-148706428D01*
X114529285Y-148635000D01*
X114529285Y-148527857D01*
X114493571Y-148456428D01*
X114422142Y-148420714D01*
X114386428Y-148420714D01*
X114315000Y-148456428D01*
X114279285Y-148527857D01*
X114279285Y-148635000D01*
X114315000Y-148706428D01*
X114100714Y-149599285D02*
X114065000Y-149635000D01*
X114029285Y-149706428D01*
X114029285Y-149885000D01*
X114065000Y-149956428D01*
X114100714Y-149992142D01*
X114172142Y-150027857D01*
X114243571Y-150027857D01*
X114350714Y-149992142D01*
X114779285Y-149563571D01*
X114779285Y-150027857D01*
X114029285Y-150492142D02*
X114029285Y-150563571D01*
X114065000Y-150635000D01*
X114100714Y-150670714D01*
X114172142Y-150706428D01*
X114315000Y-150742142D01*
X114493571Y-150742142D01*
X114636428Y-150706428D01*
X114707857Y-150670714D01*
X114743571Y-150635000D01*
X114779285Y-150563571D01*
X114779285Y-150492142D01*
X114743571Y-150420714D01*
X114707857Y-150385000D01*
X114636428Y-150349285D01*
X114493571Y-150313571D01*
X114315000Y-150313571D01*
X114172142Y-150349285D01*
X114100714Y-150385000D01*
X114065000Y-150420714D01*
X114029285Y-150492142D01*
X114779285Y-151456428D02*
X114779285Y-151027857D01*
X114779285Y-151242142D02*
X114029285Y-151242142D01*
X114136428Y-151170714D01*
X114207857Y-151099285D01*
X114243571Y-151027857D01*
X114350714Y-151885000D02*
X114315000Y-151813571D01*
X114279285Y-151777857D01*
X114207857Y-151742142D01*
X114172142Y-151742142D01*
X114100714Y-151777857D01*
X114065000Y-151813571D01*
X114029285Y-151885000D01*
X114029285Y-152027857D01*
X114065000Y-152099285D01*
X114100714Y-152135000D01*
X114172142Y-152170714D01*
X114207857Y-152170714D01*
X114279285Y-152135000D01*
X114315000Y-152099285D01*
X114350714Y-152027857D01*
X114350714Y-151885000D01*
X114386428Y-151813571D01*
X114422142Y-151777857D01*
X114493571Y-151742142D01*
X114636428Y-151742142D01*
X114707857Y-151777857D01*
X114743571Y-151813571D01*
X114779285Y-151885000D01*
X114779285Y-152027857D01*
X114743571Y-152099285D01*
X114707857Y-152135000D01*
X114636428Y-152170714D01*
X114493571Y-152170714D01*
X114422142Y-152135000D01*
X114386428Y-152099285D01*
X114350714Y-152027857D01*
X113993571Y-153027857D02*
X114957857Y-152385000D01*
X114100714Y-153242142D02*
X114065000Y-153277857D01*
X114029285Y-153349285D01*
X114029285Y-153527857D01*
X114065000Y-153599285D01*
X114100714Y-153635000D01*
X114172142Y-153670714D01*
X114243571Y-153670714D01*
X114350714Y-153635000D01*
X114779285Y-153206428D01*
X114779285Y-153670714D01*
X114029285Y-154135000D02*
X114029285Y-154206428D01*
X114065000Y-154277857D01*
X114100714Y-154313571D01*
X114172142Y-154349285D01*
X114315000Y-154385000D01*
X114493571Y-154385000D01*
X114636428Y-154349285D01*
X114707857Y-154313571D01*
X114743571Y-154277857D01*
X114779285Y-154206428D01*
X114779285Y-154135000D01*
X114743571Y-154063571D01*
X114707857Y-154027857D01*
X114636428Y-153992142D01*
X114493571Y-153956428D01*
X114315000Y-153956428D01*
X114172142Y-153992142D01*
X114100714Y-154027857D01*
X114065000Y-154063571D01*
X114029285Y-154135000D01*
X114779285Y-155099285D02*
X114779285Y-154670714D01*
X114779285Y-154885000D02*
X114029285Y-154885000D01*
X114136428Y-154813571D01*
X114207857Y-154742142D01*
X114243571Y-154670714D01*
X114779285Y-155456428D02*
X114779285Y-155599285D01*
X114743571Y-155670714D01*
X114707857Y-155706428D01*
X114600714Y-155777857D01*
X114457857Y-155813571D01*
X114172142Y-155813571D01*
X114100714Y-155777857D01*
X114065000Y-155742142D01*
X114029285Y-155670714D01*
X114029285Y-155527857D01*
X114065000Y-155456428D01*
X114100714Y-155420714D01*
X114172142Y-155385000D01*
X114350714Y-155385000D01*
X114422142Y-155420714D01*
X114457857Y-155456428D01*
X114493571Y-155527857D01*
X114493571Y-155670714D01*
X114457857Y-155742142D01*
X114422142Y-155777857D01*
X114350714Y-155813571D01*
D12*
G04 #@! TO.C,18 Channel Maestro*
X82390000Y-130920000D02*
X90290000Y-130920000D01*
X82390000Y-121720000D02*
X90290000Y-121720000D01*
X90290000Y-121720000D02*
X90290000Y-130920000D01*
X82390000Y-121720000D02*
X82390000Y-130920000D01*
X80190000Y-168220000D02*
X80190000Y-122520000D01*
X80190000Y-168220000D02*
X108090000Y-168220000D01*
X80190000Y-122520000D02*
X108090000Y-122520000D01*
X88593809Y-124855714D02*
X88593809Y-125522380D01*
X89022380Y-124855714D02*
X89022380Y-125379523D01*
X88974761Y-125474761D01*
X88879523Y-125522380D01*
X88736666Y-125522380D01*
X88641428Y-125474761D01*
X88593809Y-125427142D01*
X88165238Y-125474761D02*
X88070000Y-125522380D01*
X87879523Y-125522380D01*
X87784285Y-125474761D01*
X87736666Y-125379523D01*
X87736666Y-125331904D01*
X87784285Y-125236666D01*
X87879523Y-125189047D01*
X88022380Y-125189047D01*
X88117619Y-125141428D01*
X88165238Y-125046190D01*
X88165238Y-124998571D01*
X88117619Y-124903333D01*
X88022380Y-124855714D01*
X87879523Y-124855714D01*
X87784285Y-124903333D01*
X87308095Y-125522380D02*
X87308095Y-124522380D01*
X87308095Y-124903333D02*
X87212857Y-124855714D01*
X87022380Y-124855714D01*
X86927142Y-124903333D01*
X86879523Y-124950952D01*
X86831904Y-125046190D01*
X86831904Y-125331904D01*
X86879523Y-125427142D01*
X86927142Y-125474761D01*
X87022380Y-125522380D01*
X87212857Y-125522380D01*
X87308095Y-125474761D01*
X85641428Y-124855714D02*
X85641428Y-125855714D01*
X85641428Y-124903333D02*
X85546190Y-124855714D01*
X85355714Y-124855714D01*
X85260476Y-124903333D01*
X85212857Y-124950952D01*
X85165238Y-125046190D01*
X85165238Y-125331904D01*
X85212857Y-125427142D01*
X85260476Y-125474761D01*
X85355714Y-125522380D01*
X85546190Y-125522380D01*
X85641428Y-125474761D01*
X84593809Y-125522380D02*
X84689047Y-125474761D01*
X84736666Y-125427142D01*
X84784285Y-125331904D01*
X84784285Y-125046190D01*
X84736666Y-124950952D01*
X84689047Y-124903333D01*
X84593809Y-124855714D01*
X84450952Y-124855714D01*
X84355714Y-124903333D01*
X84308095Y-124950952D01*
X84260476Y-125046190D01*
X84260476Y-125331904D01*
X84308095Y-125427142D01*
X84355714Y-125474761D01*
X84450952Y-125522380D01*
X84593809Y-125522380D01*
X83831904Y-125522380D02*
X83831904Y-124855714D01*
X83831904Y-125046190D02*
X83784285Y-124950952D01*
X83736666Y-124903333D01*
X83641428Y-124855714D01*
X83546190Y-124855714D01*
X83355714Y-124855714D02*
X82974761Y-124855714D01*
X83212857Y-124522380D02*
X83212857Y-125379523D01*
X83165238Y-125474761D01*
X83070000Y-125522380D01*
X82974761Y-125522380D01*
G04 #@! TD*
M02*
