M48
INCH,TZ
T1C0.0402
T2C0.0472
T3C0.1260
%
G90
G05
T1
X34169Y-63630
X34169Y-65630
X35169Y-63630
X35169Y-65630
X36169Y-63630
X36169Y-65630
X37169Y-63630
X37169Y-65630
X38169Y-63630
X38169Y-65630
X39169Y-63630
X39169Y-65630
X39957Y-48835
X39957Y-49835
X39957Y-50835
X39957Y-51835
X39957Y-52835
X39957Y-53835
X39957Y-54835
X39957Y-55835
X39957Y-56835
X39957Y-57835
X39957Y-58835
X39957Y-59835
X39957Y-60835
X41957Y-48835
X41957Y-49835
X41957Y-50835
X41957Y-51835
X41957Y-52835
X41957Y-53835
X41957Y-54835
X41957Y-55835
X41957Y-56835
X41957Y-57835
X41957Y-58835
X41957Y-59835
X41957Y-60835
T2
X43646Y-55138
X43646Y-56138
X29941Y-52339
X29941Y-53339
X32000Y-60236
X32000Y-61236
X37614Y-54323
X37614Y-55323
X35551Y-54417
X35551Y-55417
X32000Y-57280
X32000Y-58280
X43646Y-58094
X43646Y-59094
X37614Y-57280
X37614Y-58280
X35551Y-57374
X35551Y-58374
X29941Y-61209
X29941Y-62209
X29941Y-58252
X29941Y-59252
X37614Y-60236
X37614Y-61236
X29941Y-55295
X29941Y-56295
X37614Y-51366
X37614Y-52366
X32000Y-54323
X32000Y-55323
X43646Y-61051
X43646Y-62051
X43646Y-52181
X43646Y-53181
X35555Y-60331
X35555Y-61331
T3
X44063Y-64673
X29528Y-64673
X29528Y-49811
X44063Y-49811
T0
M30
