G04 #@! TF.GenerationSoftware,KiCad,Pcbnew,(5.0.0)*
G04 #@! TF.CreationDate,2018-11-03T21:44:44-02:30*
G04 #@! TF.ProjectId,Maestro Adapter,4D61657374726F20416461707465722E,6*
G04 #@! TF.SameCoordinates,Original*
G04 #@! TF.FileFunction,Soldermask,Top*
G04 #@! TF.FilePolarity,Negative*
%FSLAX46Y46*%
G04 Gerber Fmt 4.6, Leading zero omitted, Abs format (unit mm)*
G04 Created by KiCad (PCBNEW (5.0.0)) date 11/03/18 21:44:44*
%MOMM*%
%LPD*%
G01*
G04 APERTURE LIST*
%ADD10C,0.150000*%
%ADD11C,0.100000*%
G04 APERTURE END LIST*
D10*
G04 #@! TO.C,18 Channel Maestro*
X108090000Y-168220000D02*
X108090000Y-122520000D01*
D11*
G36*
X112554239Y-161081467D02*
X112868282Y-161143934D01*
X113459926Y-161389001D01*
X113923710Y-161698892D01*
X113992395Y-161744786D01*
X114445214Y-162197605D01*
X114445216Y-162197608D01*
X114800999Y-162730074D01*
X115046066Y-163321718D01*
X115171000Y-163949804D01*
X115171000Y-164590196D01*
X115046066Y-165218282D01*
X114800999Y-165809926D01*
X114447615Y-166338802D01*
X114445214Y-166342395D01*
X113992395Y-166795214D01*
X113992392Y-166795216D01*
X113459926Y-167150999D01*
X112868282Y-167396066D01*
X112554239Y-167458533D01*
X112240197Y-167521000D01*
X111599803Y-167521000D01*
X111285761Y-167458533D01*
X110971718Y-167396066D01*
X110380074Y-167150999D01*
X109847608Y-166795216D01*
X109847605Y-166795214D01*
X109394786Y-166342395D01*
X109392385Y-166338802D01*
X109039001Y-165809926D01*
X108793934Y-165218282D01*
X108669000Y-164590196D01*
X108669000Y-163949804D01*
X108793934Y-163321718D01*
X109039001Y-162730074D01*
X109394784Y-162197608D01*
X109394786Y-162197605D01*
X109847605Y-161744786D01*
X109916290Y-161698892D01*
X110380074Y-161389001D01*
X110971718Y-161143934D01*
X111285761Y-161081467D01*
X111599803Y-161019000D01*
X112240197Y-161019000D01*
X112554239Y-161081467D01*
X112554239Y-161081467D01*
G37*
G36*
X75634239Y-161081467D02*
X75948282Y-161143934D01*
X76539926Y-161389001D01*
X77003710Y-161698892D01*
X77072395Y-161744786D01*
X77525214Y-162197605D01*
X77525216Y-162197608D01*
X77880999Y-162730074D01*
X78126066Y-163321718D01*
X78251000Y-163949804D01*
X78251000Y-164590196D01*
X78126066Y-165218282D01*
X77880999Y-165809926D01*
X77527615Y-166338802D01*
X77525214Y-166342395D01*
X77072395Y-166795214D01*
X77072392Y-166795216D01*
X76539926Y-167150999D01*
X75948282Y-167396066D01*
X75634239Y-167458533D01*
X75320197Y-167521000D01*
X74679803Y-167521000D01*
X74365761Y-167458533D01*
X74051718Y-167396066D01*
X73460074Y-167150999D01*
X72927608Y-166795216D01*
X72927605Y-166795214D01*
X72474786Y-166342395D01*
X72472385Y-166338802D01*
X72119001Y-165809926D01*
X71873934Y-165218282D01*
X71749000Y-164590196D01*
X71749000Y-163949804D01*
X71873934Y-163321718D01*
X72119001Y-162730074D01*
X72474784Y-162197608D01*
X72474786Y-162197605D01*
X72927605Y-161744786D01*
X72996290Y-161698892D01*
X73460074Y-161389001D01*
X74051718Y-161143934D01*
X74365761Y-161081467D01*
X74679803Y-161019000D01*
X75320197Y-161019000D01*
X75634239Y-161081467D01*
X75634239Y-161081467D01*
G37*
G36*
X87591000Y-167501000D02*
X85989000Y-167501000D01*
X85989000Y-165899000D01*
X87591000Y-165899000D01*
X87591000Y-167501000D01*
X87591000Y-167501000D01*
G37*
G36*
X92671000Y-167501000D02*
X91069000Y-167501000D01*
X91069000Y-165899000D01*
X92671000Y-165899000D01*
X92671000Y-167501000D01*
X92671000Y-167501000D01*
G37*
G36*
X100291000Y-167501000D02*
X98689000Y-167501000D01*
X98689000Y-165899000D01*
X100291000Y-165899000D01*
X100291000Y-167501000D01*
X100291000Y-167501000D01*
G37*
G36*
X97751000Y-167501000D02*
X96149000Y-167501000D01*
X96149000Y-165899000D01*
X97751000Y-165899000D01*
X97751000Y-167501000D01*
X97751000Y-167501000D01*
G37*
G36*
X95211000Y-167501000D02*
X93609000Y-167501000D01*
X93609000Y-165899000D01*
X95211000Y-165899000D01*
X95211000Y-167501000D01*
X95211000Y-167501000D01*
G37*
G36*
X90131000Y-167501000D02*
X88529000Y-167501000D01*
X88529000Y-165899000D01*
X90131000Y-165899000D01*
X90131000Y-167501000D01*
X90131000Y-167501000D01*
G37*
G36*
X99723643Y-160849781D02*
X99869415Y-160910162D01*
X100000611Y-160997824D01*
X100112176Y-161109389D01*
X100199838Y-161240585D01*
X100260219Y-161386357D01*
X100291000Y-161541107D01*
X100291000Y-161698893D01*
X100260219Y-161853643D01*
X100199838Y-161999415D01*
X100112176Y-162130611D01*
X100000611Y-162242176D01*
X99869415Y-162329838D01*
X99723643Y-162390219D01*
X99568893Y-162421000D01*
X99411107Y-162421000D01*
X99256357Y-162390219D01*
X99110585Y-162329838D01*
X98979389Y-162242176D01*
X98867824Y-162130611D01*
X98780162Y-161999415D01*
X98719781Y-161853643D01*
X98689000Y-161698893D01*
X98689000Y-161541107D01*
X98719781Y-161386357D01*
X98780162Y-161240585D01*
X98867824Y-161109389D01*
X98979389Y-160997824D01*
X99110585Y-160910162D01*
X99256357Y-160849781D01*
X99411107Y-160819000D01*
X99568893Y-160819000D01*
X99723643Y-160849781D01*
X99723643Y-160849781D01*
G37*
G36*
X97183643Y-160849781D02*
X97329415Y-160910162D01*
X97460611Y-160997824D01*
X97572176Y-161109389D01*
X97659838Y-161240585D01*
X97720219Y-161386357D01*
X97751000Y-161541107D01*
X97751000Y-161698893D01*
X97720219Y-161853643D01*
X97659838Y-161999415D01*
X97572176Y-162130611D01*
X97460611Y-162242176D01*
X97329415Y-162329838D01*
X97183643Y-162390219D01*
X97028893Y-162421000D01*
X96871107Y-162421000D01*
X96716357Y-162390219D01*
X96570585Y-162329838D01*
X96439389Y-162242176D01*
X96327824Y-162130611D01*
X96240162Y-161999415D01*
X96179781Y-161853643D01*
X96149000Y-161698893D01*
X96149000Y-161541107D01*
X96179781Y-161386357D01*
X96240162Y-161240585D01*
X96327824Y-161109389D01*
X96439389Y-160997824D01*
X96570585Y-160910162D01*
X96716357Y-160849781D01*
X96871107Y-160819000D01*
X97028893Y-160819000D01*
X97183643Y-160849781D01*
X97183643Y-160849781D01*
G37*
G36*
X94643643Y-160849781D02*
X94789415Y-160910162D01*
X94920611Y-160997824D01*
X95032176Y-161109389D01*
X95119838Y-161240585D01*
X95180219Y-161386357D01*
X95211000Y-161541107D01*
X95211000Y-161698893D01*
X95180219Y-161853643D01*
X95119838Y-161999415D01*
X95032176Y-162130611D01*
X94920611Y-162242176D01*
X94789415Y-162329838D01*
X94643643Y-162390219D01*
X94488893Y-162421000D01*
X94331107Y-162421000D01*
X94176357Y-162390219D01*
X94030585Y-162329838D01*
X93899389Y-162242176D01*
X93787824Y-162130611D01*
X93700162Y-161999415D01*
X93639781Y-161853643D01*
X93609000Y-161698893D01*
X93609000Y-161541107D01*
X93639781Y-161386357D01*
X93700162Y-161240585D01*
X93787824Y-161109389D01*
X93899389Y-160997824D01*
X94030585Y-160910162D01*
X94176357Y-160849781D01*
X94331107Y-160819000D01*
X94488893Y-160819000D01*
X94643643Y-160849781D01*
X94643643Y-160849781D01*
G37*
G36*
X92103643Y-160849781D02*
X92249415Y-160910162D01*
X92380611Y-160997824D01*
X92492176Y-161109389D01*
X92579838Y-161240585D01*
X92640219Y-161386357D01*
X92671000Y-161541107D01*
X92671000Y-161698893D01*
X92640219Y-161853643D01*
X92579838Y-161999415D01*
X92492176Y-162130611D01*
X92380611Y-162242176D01*
X92249415Y-162329838D01*
X92103643Y-162390219D01*
X91948893Y-162421000D01*
X91791107Y-162421000D01*
X91636357Y-162390219D01*
X91490585Y-162329838D01*
X91359389Y-162242176D01*
X91247824Y-162130611D01*
X91160162Y-161999415D01*
X91099781Y-161853643D01*
X91069000Y-161698893D01*
X91069000Y-161541107D01*
X91099781Y-161386357D01*
X91160162Y-161240585D01*
X91247824Y-161109389D01*
X91359389Y-160997824D01*
X91490585Y-160910162D01*
X91636357Y-160849781D01*
X91791107Y-160819000D01*
X91948893Y-160819000D01*
X92103643Y-160849781D01*
X92103643Y-160849781D01*
G37*
G36*
X89563643Y-160849781D02*
X89709415Y-160910162D01*
X89840611Y-160997824D01*
X89952176Y-161109389D01*
X90039838Y-161240585D01*
X90100219Y-161386357D01*
X90131000Y-161541107D01*
X90131000Y-161698893D01*
X90100219Y-161853643D01*
X90039838Y-161999415D01*
X89952176Y-162130611D01*
X89840611Y-162242176D01*
X89709415Y-162329838D01*
X89563643Y-162390219D01*
X89408893Y-162421000D01*
X89251107Y-162421000D01*
X89096357Y-162390219D01*
X88950585Y-162329838D01*
X88819389Y-162242176D01*
X88707824Y-162130611D01*
X88620162Y-161999415D01*
X88559781Y-161853643D01*
X88529000Y-161698893D01*
X88529000Y-161541107D01*
X88559781Y-161386357D01*
X88620162Y-161240585D01*
X88707824Y-161109389D01*
X88819389Y-160997824D01*
X88950585Y-160910162D01*
X89096357Y-160849781D01*
X89251107Y-160819000D01*
X89408893Y-160819000D01*
X89563643Y-160849781D01*
X89563643Y-160849781D01*
G37*
G36*
X87023643Y-160849781D02*
X87169415Y-160910162D01*
X87300611Y-160997824D01*
X87412176Y-161109389D01*
X87499838Y-161240585D01*
X87560219Y-161386357D01*
X87591000Y-161541107D01*
X87591000Y-161698893D01*
X87560219Y-161853643D01*
X87499838Y-161999415D01*
X87412176Y-162130611D01*
X87300611Y-162242176D01*
X87169415Y-162329838D01*
X87023643Y-162390219D01*
X86868893Y-162421000D01*
X86711107Y-162421000D01*
X86556357Y-162390219D01*
X86410585Y-162329838D01*
X86279389Y-162242176D01*
X86167824Y-162130611D01*
X86080162Y-161999415D01*
X86019781Y-161853643D01*
X85989000Y-161698893D01*
X85989000Y-161541107D01*
X86019781Y-161386357D01*
X86080162Y-161240585D01*
X86167824Y-161109389D01*
X86279389Y-160997824D01*
X86410585Y-160910162D01*
X86556357Y-160849781D01*
X86711107Y-160819000D01*
X86868893Y-160819000D01*
X87023643Y-160849781D01*
X87023643Y-160849781D01*
G37*
G36*
X76330897Y-157084007D02*
X76506152Y-157156600D01*
X76663877Y-157261989D01*
X76798011Y-157396123D01*
X76903400Y-157553848D01*
X76975993Y-157729103D01*
X77013000Y-157915153D01*
X77013000Y-158104847D01*
X76975993Y-158290897D01*
X76903400Y-158466152D01*
X76798011Y-158623877D01*
X76663877Y-158758011D01*
X76506152Y-158863400D01*
X76330897Y-158935993D01*
X76144847Y-158973000D01*
X75955153Y-158973000D01*
X75769103Y-158935993D01*
X75593848Y-158863400D01*
X75436123Y-158758011D01*
X75301989Y-158623877D01*
X75196600Y-158466152D01*
X75124007Y-158290897D01*
X75087000Y-158104847D01*
X75087000Y-157915153D01*
X75124007Y-157729103D01*
X75196600Y-157553848D01*
X75301989Y-157396123D01*
X75436123Y-157261989D01*
X75593848Y-157156600D01*
X75769103Y-157084007D01*
X75955153Y-157047000D01*
X76144847Y-157047000D01*
X76330897Y-157084007D01*
X76330897Y-157084007D01*
G37*
G36*
X111773000Y-158523000D02*
X109947000Y-158523000D01*
X109947000Y-156697000D01*
X111773000Y-156697000D01*
X111773000Y-158523000D01*
X111773000Y-158523000D01*
G37*
G36*
X90590897Y-154854007D02*
X90766152Y-154926600D01*
X90923877Y-155031989D01*
X91058011Y-155166123D01*
X91163400Y-155323848D01*
X91235993Y-155499103D01*
X91273000Y-155685153D01*
X91273000Y-155874847D01*
X91235993Y-156060897D01*
X91163400Y-156236152D01*
X91058011Y-156393877D01*
X90923877Y-156528011D01*
X90766152Y-156633400D01*
X90590897Y-156705993D01*
X90404847Y-156743000D01*
X90215153Y-156743000D01*
X90029103Y-156705993D01*
X89853848Y-156633400D01*
X89696123Y-156528011D01*
X89561989Y-156393877D01*
X89456600Y-156236152D01*
X89384007Y-156060897D01*
X89347000Y-155874847D01*
X89347000Y-155685153D01*
X89384007Y-155499103D01*
X89456600Y-155323848D01*
X89561989Y-155166123D01*
X89696123Y-155031989D01*
X89853848Y-154926600D01*
X90029103Y-154854007D01*
X90215153Y-154817000D01*
X90404847Y-154817000D01*
X90590897Y-154854007D01*
X90590897Y-154854007D01*
G37*
G36*
X96453000Y-156453000D02*
X94627000Y-156453000D01*
X94627000Y-154627000D01*
X96453000Y-154627000D01*
X96453000Y-156453000D01*
X96453000Y-156453000D01*
G37*
G36*
X82193000Y-156453000D02*
X80367000Y-156453000D01*
X80367000Y-154627000D01*
X82193000Y-154627000D01*
X82193000Y-156453000D01*
X82193000Y-156453000D01*
G37*
G36*
X76963000Y-156383000D02*
X75137000Y-156383000D01*
X75137000Y-154557000D01*
X76963000Y-154557000D01*
X76963000Y-156383000D01*
X76963000Y-156383000D01*
G37*
G36*
X111140897Y-154144007D02*
X111316152Y-154216600D01*
X111473877Y-154321989D01*
X111608011Y-154456123D01*
X111713400Y-154613848D01*
X111785993Y-154789103D01*
X111823000Y-154975153D01*
X111823000Y-155164847D01*
X111785993Y-155350897D01*
X111713400Y-155526152D01*
X111608011Y-155683877D01*
X111473877Y-155818011D01*
X111316152Y-155923400D01*
X111140897Y-155995993D01*
X110954847Y-156033000D01*
X110765153Y-156033000D01*
X110579103Y-155995993D01*
X110403848Y-155923400D01*
X110246123Y-155818011D01*
X110111989Y-155683877D01*
X110006600Y-155526152D01*
X109934007Y-155350897D01*
X109897000Y-155164847D01*
X109897000Y-154975153D01*
X109934007Y-154789103D01*
X110006600Y-154613848D01*
X110111989Y-154456123D01*
X110246123Y-154321989D01*
X110403848Y-154216600D01*
X110579103Y-154144007D01*
X110765153Y-154107000D01*
X110954847Y-154107000D01*
X111140897Y-154144007D01*
X111140897Y-154144007D01*
G37*
G36*
X101723643Y-153749781D02*
X101869415Y-153810162D01*
X102000611Y-153897824D01*
X102112176Y-154009389D01*
X102199838Y-154140585D01*
X102260219Y-154286357D01*
X102291000Y-154441107D01*
X102291000Y-154598893D01*
X102260219Y-154753643D01*
X102199838Y-154899415D01*
X102112176Y-155030611D01*
X102000611Y-155142176D01*
X101869415Y-155229838D01*
X101723643Y-155290219D01*
X101568893Y-155321000D01*
X101411107Y-155321000D01*
X101256357Y-155290219D01*
X101110585Y-155229838D01*
X100979389Y-155142176D01*
X100867824Y-155030611D01*
X100780162Y-154899415D01*
X100719781Y-154753643D01*
X100689000Y-154598893D01*
X100689000Y-154441107D01*
X100719781Y-154286357D01*
X100780162Y-154140585D01*
X100867824Y-154009389D01*
X100979389Y-153897824D01*
X101110585Y-153810162D01*
X101256357Y-153749781D01*
X101411107Y-153719000D01*
X101568893Y-153719000D01*
X101723643Y-153749781D01*
X101723643Y-153749781D01*
G37*
G36*
X107371000Y-155321000D02*
X105769000Y-155321000D01*
X105769000Y-153719000D01*
X107371000Y-153719000D01*
X107371000Y-155321000D01*
X107371000Y-155321000D01*
G37*
G36*
X91223000Y-154153000D02*
X89397000Y-154153000D01*
X89397000Y-152327000D01*
X91223000Y-152327000D01*
X91223000Y-154153000D01*
X91223000Y-154153000D01*
G37*
G36*
X95820897Y-152074007D02*
X95996152Y-152146600D01*
X96153877Y-152251989D01*
X96288011Y-152386123D01*
X96393400Y-152543848D01*
X96465993Y-152719103D01*
X96503000Y-152905153D01*
X96503000Y-153094847D01*
X96465993Y-153280897D01*
X96393400Y-153456152D01*
X96288011Y-153613877D01*
X96153877Y-153748011D01*
X95996152Y-153853400D01*
X95820897Y-153925993D01*
X95634847Y-153963000D01*
X95445153Y-153963000D01*
X95259103Y-153925993D01*
X95083848Y-153853400D01*
X94926123Y-153748011D01*
X94791989Y-153613877D01*
X94686600Y-153456152D01*
X94614007Y-153280897D01*
X94577000Y-153094847D01*
X94577000Y-152905153D01*
X94614007Y-152719103D01*
X94686600Y-152543848D01*
X94791989Y-152386123D01*
X94926123Y-152251989D01*
X95083848Y-152146600D01*
X95259103Y-152074007D01*
X95445153Y-152037000D01*
X95634847Y-152037000D01*
X95820897Y-152074007D01*
X95820897Y-152074007D01*
G37*
G36*
X81560897Y-152074007D02*
X81736152Y-152146600D01*
X81893877Y-152251989D01*
X82028011Y-152386123D01*
X82133400Y-152543848D01*
X82205993Y-152719103D01*
X82243000Y-152905153D01*
X82243000Y-153094847D01*
X82205993Y-153280897D01*
X82133400Y-153456152D01*
X82028011Y-153613877D01*
X81893877Y-153748011D01*
X81736152Y-153853400D01*
X81560897Y-153925993D01*
X81374847Y-153963000D01*
X81185153Y-153963000D01*
X80999103Y-153925993D01*
X80823848Y-153853400D01*
X80666123Y-153748011D01*
X80531989Y-153613877D01*
X80426600Y-153456152D01*
X80354007Y-153280897D01*
X80317000Y-153094847D01*
X80317000Y-152905153D01*
X80354007Y-152719103D01*
X80426600Y-152543848D01*
X80531989Y-152386123D01*
X80666123Y-152251989D01*
X80823848Y-152146600D01*
X80999103Y-152074007D01*
X81185153Y-152037000D01*
X81374847Y-152037000D01*
X81560897Y-152074007D01*
X81560897Y-152074007D01*
G37*
G36*
X101723643Y-151209781D02*
X101869415Y-151270162D01*
X102000611Y-151357824D01*
X102112176Y-151469389D01*
X102199838Y-151600585D01*
X102260219Y-151746357D01*
X102291000Y-151901107D01*
X102291000Y-152058893D01*
X102260219Y-152213643D01*
X102199838Y-152359415D01*
X102112176Y-152490611D01*
X102000611Y-152602176D01*
X101869415Y-152689838D01*
X101723643Y-152750219D01*
X101568893Y-152781000D01*
X101411107Y-152781000D01*
X101256357Y-152750219D01*
X101110585Y-152689838D01*
X100979389Y-152602176D01*
X100867824Y-152490611D01*
X100780162Y-152359415D01*
X100719781Y-152213643D01*
X100689000Y-152058893D01*
X100689000Y-151901107D01*
X100719781Y-151746357D01*
X100780162Y-151600585D01*
X100867824Y-151469389D01*
X100979389Y-151357824D01*
X101110585Y-151270162D01*
X101256357Y-151209781D01*
X101411107Y-151179000D01*
X101568893Y-151179000D01*
X101723643Y-151209781D01*
X101723643Y-151209781D01*
G37*
G36*
X107371000Y-152781000D02*
X105769000Y-152781000D01*
X105769000Y-151179000D01*
X107371000Y-151179000D01*
X107371000Y-152781000D01*
X107371000Y-152781000D01*
G37*
G36*
X76330897Y-149574007D02*
X76506152Y-149646600D01*
X76663877Y-149751989D01*
X76798011Y-149886123D01*
X76903400Y-150043848D01*
X76975993Y-150219103D01*
X77013000Y-150405153D01*
X77013000Y-150594847D01*
X76975993Y-150780897D01*
X76903400Y-150956152D01*
X76798011Y-151113877D01*
X76663877Y-151248011D01*
X76506152Y-151353400D01*
X76330897Y-151425993D01*
X76144847Y-151463000D01*
X75955153Y-151463000D01*
X75769103Y-151425993D01*
X75593848Y-151353400D01*
X75436123Y-151248011D01*
X75301989Y-151113877D01*
X75196600Y-150956152D01*
X75124007Y-150780897D01*
X75087000Y-150594847D01*
X75087000Y-150405153D01*
X75124007Y-150219103D01*
X75196600Y-150043848D01*
X75301989Y-149886123D01*
X75436123Y-149751989D01*
X75593848Y-149646600D01*
X75769103Y-149574007D01*
X75955153Y-149537000D01*
X76144847Y-149537000D01*
X76330897Y-149574007D01*
X76330897Y-149574007D01*
G37*
G36*
X111773000Y-151013000D02*
X109947000Y-151013000D01*
X109947000Y-149187000D01*
X111773000Y-149187000D01*
X111773000Y-151013000D01*
X111773000Y-151013000D01*
G37*
G36*
X107371000Y-150241000D02*
X105769000Y-150241000D01*
X105769000Y-148639000D01*
X107371000Y-148639000D01*
X107371000Y-150241000D01*
X107371000Y-150241000D01*
G37*
G36*
X101723643Y-148669781D02*
X101869415Y-148730162D01*
X102000611Y-148817824D01*
X102112176Y-148929389D01*
X102199838Y-149060585D01*
X102260219Y-149206357D01*
X102291000Y-149361107D01*
X102291000Y-149518893D01*
X102260219Y-149673643D01*
X102199838Y-149819415D01*
X102112176Y-149950611D01*
X102000611Y-150062176D01*
X101869415Y-150149838D01*
X101723643Y-150210219D01*
X101568893Y-150241000D01*
X101411107Y-150241000D01*
X101256357Y-150210219D01*
X101110585Y-150149838D01*
X100979389Y-150062176D01*
X100867824Y-149950611D01*
X100780162Y-149819415D01*
X100719781Y-149673643D01*
X100689000Y-149518893D01*
X100689000Y-149361107D01*
X100719781Y-149206357D01*
X100780162Y-149060585D01*
X100867824Y-148929389D01*
X100979389Y-148817824D01*
X101110585Y-148730162D01*
X101256357Y-148669781D01*
X101411107Y-148639000D01*
X101568893Y-148639000D01*
X101723643Y-148669781D01*
X101723643Y-148669781D01*
G37*
G36*
X90580897Y-147344007D02*
X90756152Y-147416600D01*
X90913877Y-147521989D01*
X91048011Y-147656123D01*
X91153400Y-147813848D01*
X91225993Y-147989103D01*
X91263000Y-148175153D01*
X91263000Y-148364847D01*
X91225993Y-148550897D01*
X91153400Y-148726152D01*
X91048011Y-148883877D01*
X90913877Y-149018011D01*
X90756152Y-149123400D01*
X90580897Y-149195993D01*
X90394847Y-149233000D01*
X90205153Y-149233000D01*
X90019103Y-149195993D01*
X89843848Y-149123400D01*
X89686123Y-149018011D01*
X89551989Y-148883877D01*
X89446600Y-148726152D01*
X89374007Y-148550897D01*
X89337000Y-148364847D01*
X89337000Y-148175153D01*
X89374007Y-147989103D01*
X89446600Y-147813848D01*
X89551989Y-147656123D01*
X89686123Y-147521989D01*
X89843848Y-147416600D01*
X90019103Y-147344007D01*
X90205153Y-147307000D01*
X90394847Y-147307000D01*
X90580897Y-147344007D01*
X90580897Y-147344007D01*
G37*
G36*
X82193000Y-148943000D02*
X80367000Y-148943000D01*
X80367000Y-147117000D01*
X82193000Y-147117000D01*
X82193000Y-148943000D01*
X82193000Y-148943000D01*
G37*
G36*
X96453000Y-148943000D02*
X94627000Y-148943000D01*
X94627000Y-147117000D01*
X96453000Y-147117000D01*
X96453000Y-148943000D01*
X96453000Y-148943000D01*
G37*
G36*
X76963000Y-148873000D02*
X75137000Y-148873000D01*
X75137000Y-147047000D01*
X76963000Y-147047000D01*
X76963000Y-148873000D01*
X76963000Y-148873000D01*
G37*
G36*
X104701000Y-148761000D02*
X103399000Y-148761000D01*
X103399000Y-147459000D01*
X104701000Y-147459000D01*
X104701000Y-148761000D01*
X104701000Y-148761000D01*
G37*
G36*
X111140897Y-146634007D02*
X111316152Y-146706600D01*
X111473877Y-146811989D01*
X111608011Y-146946123D01*
X111713400Y-147103848D01*
X111785993Y-147279103D01*
X111823000Y-147465153D01*
X111823000Y-147654847D01*
X111785993Y-147840897D01*
X111713400Y-148016152D01*
X111608011Y-148173877D01*
X111473877Y-148308011D01*
X111316152Y-148413400D01*
X111140897Y-148485993D01*
X110954847Y-148523000D01*
X110765153Y-148523000D01*
X110579103Y-148485993D01*
X110403848Y-148413400D01*
X110246123Y-148308011D01*
X110111989Y-148173877D01*
X110006600Y-148016152D01*
X109934007Y-147840897D01*
X109897000Y-147654847D01*
X109897000Y-147465153D01*
X109934007Y-147279103D01*
X110006600Y-147103848D01*
X110111989Y-146946123D01*
X110246123Y-146811989D01*
X110403848Y-146706600D01*
X110579103Y-146634007D01*
X110765153Y-146597000D01*
X110954847Y-146597000D01*
X111140897Y-146634007D01*
X111140897Y-146634007D01*
G37*
G36*
X101723643Y-146129781D02*
X101869415Y-146190162D01*
X102000611Y-146277824D01*
X102112176Y-146389389D01*
X102199838Y-146520585D01*
X102260219Y-146666357D01*
X102291000Y-146821107D01*
X102291000Y-146978893D01*
X102260219Y-147133643D01*
X102199838Y-147279415D01*
X102112176Y-147410611D01*
X102000611Y-147522176D01*
X101869415Y-147609838D01*
X101723643Y-147670219D01*
X101568893Y-147701000D01*
X101411107Y-147701000D01*
X101256357Y-147670219D01*
X101110585Y-147609838D01*
X100979389Y-147522176D01*
X100867824Y-147410611D01*
X100780162Y-147279415D01*
X100719781Y-147133643D01*
X100689000Y-146978893D01*
X100689000Y-146821107D01*
X100719781Y-146666357D01*
X100780162Y-146520585D01*
X100867824Y-146389389D01*
X100979389Y-146277824D01*
X101110585Y-146190162D01*
X101256357Y-146129781D01*
X101411107Y-146099000D01*
X101568893Y-146099000D01*
X101723643Y-146129781D01*
X101723643Y-146129781D01*
G37*
G36*
X107371000Y-147701000D02*
X105769000Y-147701000D01*
X105769000Y-146099000D01*
X107371000Y-146099000D01*
X107371000Y-147701000D01*
X107371000Y-147701000D01*
G37*
G36*
X91213000Y-146643000D02*
X89387000Y-146643000D01*
X89387000Y-144817000D01*
X91213000Y-144817000D01*
X91213000Y-146643000D01*
X91213000Y-146643000D01*
G37*
G36*
X104701000Y-146561000D02*
X103399000Y-146561000D01*
X103399000Y-145259000D01*
X104701000Y-145259000D01*
X104701000Y-146561000D01*
X104701000Y-146561000D01*
G37*
G36*
X81560897Y-144564007D02*
X81736152Y-144636600D01*
X81893877Y-144741989D01*
X82028011Y-144876123D01*
X82133400Y-145033848D01*
X82205993Y-145209103D01*
X82243000Y-145395153D01*
X82243000Y-145584847D01*
X82205993Y-145770897D01*
X82133400Y-145946152D01*
X82028011Y-146103877D01*
X81893877Y-146238011D01*
X81736152Y-146343400D01*
X81560897Y-146415993D01*
X81374847Y-146453000D01*
X81185153Y-146453000D01*
X80999103Y-146415993D01*
X80823848Y-146343400D01*
X80666123Y-146238011D01*
X80531989Y-146103877D01*
X80426600Y-145946152D01*
X80354007Y-145770897D01*
X80317000Y-145584847D01*
X80317000Y-145395153D01*
X80354007Y-145209103D01*
X80426600Y-145033848D01*
X80531989Y-144876123D01*
X80666123Y-144741989D01*
X80823848Y-144636600D01*
X80999103Y-144564007D01*
X81185153Y-144527000D01*
X81374847Y-144527000D01*
X81560897Y-144564007D01*
X81560897Y-144564007D01*
G37*
G36*
X95820897Y-144564007D02*
X95996152Y-144636600D01*
X96153877Y-144741989D01*
X96288011Y-144876123D01*
X96393400Y-145033848D01*
X96465993Y-145209103D01*
X96503000Y-145395153D01*
X96503000Y-145584847D01*
X96465993Y-145770897D01*
X96393400Y-145946152D01*
X96288011Y-146103877D01*
X96153877Y-146238011D01*
X95996152Y-146343400D01*
X95820897Y-146415993D01*
X95634847Y-146453000D01*
X95445153Y-146453000D01*
X95259103Y-146415993D01*
X95083848Y-146343400D01*
X94926123Y-146238011D01*
X94791989Y-146103877D01*
X94686600Y-145946152D01*
X94614007Y-145770897D01*
X94577000Y-145584847D01*
X94577000Y-145395153D01*
X94614007Y-145209103D01*
X94686600Y-145033848D01*
X94791989Y-144876123D01*
X94926123Y-144741989D01*
X95083848Y-144636600D01*
X95259103Y-144564007D01*
X95445153Y-144527000D01*
X95634847Y-144527000D01*
X95820897Y-144564007D01*
X95820897Y-144564007D01*
G37*
G36*
X107371000Y-145161000D02*
X105769000Y-145161000D01*
X105769000Y-143559000D01*
X107371000Y-143559000D01*
X107371000Y-145161000D01*
X107371000Y-145161000D01*
G37*
G36*
X101723643Y-143589781D02*
X101869415Y-143650162D01*
X102000611Y-143737824D01*
X102112176Y-143849389D01*
X102199838Y-143980585D01*
X102260219Y-144126357D01*
X102291000Y-144281107D01*
X102291000Y-144438893D01*
X102260219Y-144593643D01*
X102199838Y-144739415D01*
X102112176Y-144870611D01*
X102000611Y-144982176D01*
X101869415Y-145069838D01*
X101723643Y-145130219D01*
X101568893Y-145161000D01*
X101411107Y-145161000D01*
X101256357Y-145130219D01*
X101110585Y-145069838D01*
X100979389Y-144982176D01*
X100867824Y-144870611D01*
X100780162Y-144739415D01*
X100719781Y-144593643D01*
X100689000Y-144438893D01*
X100689000Y-144281107D01*
X100719781Y-144126357D01*
X100780162Y-143980585D01*
X100867824Y-143849389D01*
X100979389Y-143737824D01*
X101110585Y-143650162D01*
X101256357Y-143589781D01*
X101411107Y-143559000D01*
X101568893Y-143559000D01*
X101723643Y-143589781D01*
X101723643Y-143589781D01*
G37*
G36*
X104491000Y-144481000D02*
X103489000Y-144481000D01*
X103489000Y-143879000D01*
X104491000Y-143879000D01*
X104491000Y-144481000D01*
X104491000Y-144481000D01*
G37*
G36*
X76330897Y-142064007D02*
X76506152Y-142136600D01*
X76663877Y-142241989D01*
X76798011Y-142376123D01*
X76903400Y-142533848D01*
X76975993Y-142709103D01*
X77013000Y-142895153D01*
X77013000Y-143084847D01*
X76975993Y-143270897D01*
X76903400Y-143446152D01*
X76798011Y-143603877D01*
X76663877Y-143738011D01*
X76506152Y-143843400D01*
X76330897Y-143915993D01*
X76144847Y-143953000D01*
X75955153Y-143953000D01*
X75769103Y-143915993D01*
X75593848Y-143843400D01*
X75436123Y-143738011D01*
X75301989Y-143603877D01*
X75196600Y-143446152D01*
X75124007Y-143270897D01*
X75087000Y-143084847D01*
X75087000Y-142895153D01*
X75124007Y-142709103D01*
X75196600Y-142533848D01*
X75301989Y-142376123D01*
X75436123Y-142241989D01*
X75593848Y-142136600D01*
X75769103Y-142064007D01*
X75955153Y-142027000D01*
X76144847Y-142027000D01*
X76330897Y-142064007D01*
X76330897Y-142064007D01*
G37*
G36*
X111773000Y-143503000D02*
X109947000Y-143503000D01*
X109947000Y-141677000D01*
X111773000Y-141677000D01*
X111773000Y-143503000D01*
X111773000Y-143503000D01*
G37*
G36*
X104491000Y-142981000D02*
X103489000Y-142981000D01*
X103489000Y-142379000D01*
X104491000Y-142379000D01*
X104491000Y-142981000D01*
X104491000Y-142981000D01*
G37*
G36*
X107371000Y-142621000D02*
X105769000Y-142621000D01*
X105769000Y-141019000D01*
X107371000Y-141019000D01*
X107371000Y-142621000D01*
X107371000Y-142621000D01*
G37*
G36*
X101723643Y-141049781D02*
X101869415Y-141110162D01*
X102000611Y-141197824D01*
X102112176Y-141309389D01*
X102199838Y-141440585D01*
X102260219Y-141586357D01*
X102291000Y-141741107D01*
X102291000Y-141898893D01*
X102260219Y-142053643D01*
X102199838Y-142199415D01*
X102112176Y-142330611D01*
X102000611Y-142442176D01*
X101869415Y-142529838D01*
X101723643Y-142590219D01*
X101568893Y-142621000D01*
X101411107Y-142621000D01*
X101256357Y-142590219D01*
X101110585Y-142529838D01*
X100979389Y-142442176D01*
X100867824Y-142330611D01*
X100780162Y-142199415D01*
X100719781Y-142053643D01*
X100689000Y-141898893D01*
X100689000Y-141741107D01*
X100719781Y-141586357D01*
X100780162Y-141440585D01*
X100867824Y-141309389D01*
X100979389Y-141197824D01*
X101110585Y-141110162D01*
X101256357Y-141049781D01*
X101411107Y-141019000D01*
X101568893Y-141019000D01*
X101723643Y-141049781D01*
X101723643Y-141049781D01*
G37*
G36*
X90580897Y-139834007D02*
X90756152Y-139906600D01*
X90913877Y-140011989D01*
X91048011Y-140146123D01*
X91153400Y-140303848D01*
X91225993Y-140479103D01*
X91263000Y-140665153D01*
X91263000Y-140854847D01*
X91225993Y-141040897D01*
X91153400Y-141216152D01*
X91048011Y-141373877D01*
X90913877Y-141508011D01*
X90756152Y-141613400D01*
X90580897Y-141685993D01*
X90394847Y-141723000D01*
X90205153Y-141723000D01*
X90019103Y-141685993D01*
X89843848Y-141613400D01*
X89686123Y-141508011D01*
X89551989Y-141373877D01*
X89446600Y-141216152D01*
X89374007Y-141040897D01*
X89337000Y-140854847D01*
X89337000Y-140665153D01*
X89374007Y-140479103D01*
X89446600Y-140303848D01*
X89551989Y-140146123D01*
X89686123Y-140011989D01*
X89843848Y-139906600D01*
X90019103Y-139834007D01*
X90205153Y-139797000D01*
X90394847Y-139797000D01*
X90580897Y-139834007D01*
X90580897Y-139834007D01*
G37*
G36*
X82193000Y-141433000D02*
X80367000Y-141433000D01*
X80367000Y-139607000D01*
X82193000Y-139607000D01*
X82193000Y-141433000D01*
X82193000Y-141433000D01*
G37*
G36*
X96453000Y-141433000D02*
X94627000Y-141433000D01*
X94627000Y-139607000D01*
X96453000Y-139607000D01*
X96453000Y-141433000D01*
X96453000Y-141433000D01*
G37*
G36*
X76963000Y-141363000D02*
X75137000Y-141363000D01*
X75137000Y-139537000D01*
X76963000Y-139537000D01*
X76963000Y-141363000D01*
X76963000Y-141363000D01*
G37*
G36*
X111140897Y-139124007D02*
X111316152Y-139196600D01*
X111473877Y-139301989D01*
X111608011Y-139436123D01*
X111713400Y-139593848D01*
X111785993Y-139769103D01*
X111823000Y-139955153D01*
X111823000Y-140144847D01*
X111785993Y-140330897D01*
X111713400Y-140506152D01*
X111608011Y-140663877D01*
X111473877Y-140798011D01*
X111316152Y-140903400D01*
X111140897Y-140975993D01*
X110954847Y-141013000D01*
X110765153Y-141013000D01*
X110579103Y-140975993D01*
X110403848Y-140903400D01*
X110246123Y-140798011D01*
X110111989Y-140663877D01*
X110006600Y-140506152D01*
X109934007Y-140330897D01*
X109897000Y-140144847D01*
X109897000Y-139955153D01*
X109934007Y-139769103D01*
X110006600Y-139593848D01*
X110111989Y-139436123D01*
X110246123Y-139301989D01*
X110403848Y-139196600D01*
X110579103Y-139124007D01*
X110765153Y-139087000D01*
X110954847Y-139087000D01*
X111140897Y-139124007D01*
X111140897Y-139124007D01*
G37*
G36*
X107371000Y-140081000D02*
X105769000Y-140081000D01*
X105769000Y-138479000D01*
X107371000Y-138479000D01*
X107371000Y-140081000D01*
X107371000Y-140081000D01*
G37*
G36*
X101723643Y-138509781D02*
X101869415Y-138570162D01*
X102000611Y-138657824D01*
X102112176Y-138769389D01*
X102199838Y-138900585D01*
X102260219Y-139046357D01*
X102291000Y-139201107D01*
X102291000Y-139358893D01*
X102260219Y-139513643D01*
X102199838Y-139659415D01*
X102112176Y-139790611D01*
X102000611Y-139902176D01*
X101869415Y-139989838D01*
X101723643Y-140050219D01*
X101568893Y-140081000D01*
X101411107Y-140081000D01*
X101256357Y-140050219D01*
X101110585Y-139989838D01*
X100979389Y-139902176D01*
X100867824Y-139790611D01*
X100780162Y-139659415D01*
X100719781Y-139513643D01*
X100689000Y-139358893D01*
X100689000Y-139201107D01*
X100719781Y-139046357D01*
X100780162Y-138900585D01*
X100867824Y-138769389D01*
X100979389Y-138657824D01*
X101110585Y-138570162D01*
X101256357Y-138509781D01*
X101411107Y-138479000D01*
X101568893Y-138479000D01*
X101723643Y-138509781D01*
X101723643Y-138509781D01*
G37*
G36*
X91213000Y-139133000D02*
X89387000Y-139133000D01*
X89387000Y-137307000D01*
X91213000Y-137307000D01*
X91213000Y-139133000D01*
X91213000Y-139133000D01*
G37*
G36*
X81560897Y-137054007D02*
X81736152Y-137126600D01*
X81893877Y-137231989D01*
X82028011Y-137366123D01*
X82133400Y-137523848D01*
X82205993Y-137699103D01*
X82243000Y-137885153D01*
X82243000Y-138074847D01*
X82205993Y-138260897D01*
X82133400Y-138436152D01*
X82028011Y-138593877D01*
X81893877Y-138728011D01*
X81736152Y-138833400D01*
X81560897Y-138905993D01*
X81374847Y-138943000D01*
X81185153Y-138943000D01*
X80999103Y-138905993D01*
X80823848Y-138833400D01*
X80666123Y-138728011D01*
X80531989Y-138593877D01*
X80426600Y-138436152D01*
X80354007Y-138260897D01*
X80317000Y-138074847D01*
X80317000Y-137885153D01*
X80354007Y-137699103D01*
X80426600Y-137523848D01*
X80531989Y-137366123D01*
X80666123Y-137231989D01*
X80823848Y-137126600D01*
X80999103Y-137054007D01*
X81185153Y-137017000D01*
X81374847Y-137017000D01*
X81560897Y-137054007D01*
X81560897Y-137054007D01*
G37*
G36*
X95820897Y-137054007D02*
X95996152Y-137126600D01*
X96153877Y-137231989D01*
X96288011Y-137366123D01*
X96393400Y-137523848D01*
X96465993Y-137699103D01*
X96503000Y-137885153D01*
X96503000Y-138074847D01*
X96465993Y-138260897D01*
X96393400Y-138436152D01*
X96288011Y-138593877D01*
X96153877Y-138728011D01*
X95996152Y-138833400D01*
X95820897Y-138905993D01*
X95634847Y-138943000D01*
X95445153Y-138943000D01*
X95259103Y-138905993D01*
X95083848Y-138833400D01*
X94926123Y-138728011D01*
X94791989Y-138593877D01*
X94686600Y-138436152D01*
X94614007Y-138260897D01*
X94577000Y-138074847D01*
X94577000Y-137885153D01*
X94614007Y-137699103D01*
X94686600Y-137523848D01*
X94791989Y-137366123D01*
X94926123Y-137231989D01*
X95083848Y-137126600D01*
X95259103Y-137054007D01*
X95445153Y-137017000D01*
X95634847Y-137017000D01*
X95820897Y-137054007D01*
X95820897Y-137054007D01*
G37*
G36*
X107371000Y-137541000D02*
X105769000Y-137541000D01*
X105769000Y-135939000D01*
X107371000Y-135939000D01*
X107371000Y-137541000D01*
X107371000Y-137541000D01*
G37*
G36*
X101723643Y-135969781D02*
X101869415Y-136030162D01*
X102000611Y-136117824D01*
X102112176Y-136229389D01*
X102199838Y-136360585D01*
X102260219Y-136506357D01*
X102291000Y-136661107D01*
X102291000Y-136818893D01*
X102260219Y-136973643D01*
X102199838Y-137119415D01*
X102112176Y-137250611D01*
X102000611Y-137362176D01*
X101869415Y-137449838D01*
X101723643Y-137510219D01*
X101568893Y-137541000D01*
X101411107Y-137541000D01*
X101256357Y-137510219D01*
X101110585Y-137449838D01*
X100979389Y-137362176D01*
X100867824Y-137250611D01*
X100780162Y-137119415D01*
X100719781Y-136973643D01*
X100689000Y-136818893D01*
X100689000Y-136661107D01*
X100719781Y-136506357D01*
X100780162Y-136360585D01*
X100867824Y-136229389D01*
X100979389Y-136117824D01*
X101110585Y-136030162D01*
X101256357Y-135969781D01*
X101411107Y-135939000D01*
X101568893Y-135939000D01*
X101723643Y-135969781D01*
X101723643Y-135969781D01*
G37*
G36*
X76330897Y-134554007D02*
X76506152Y-134626600D01*
X76663877Y-134731989D01*
X76798011Y-134866123D01*
X76903400Y-135023848D01*
X76975993Y-135199103D01*
X77013000Y-135385153D01*
X77013000Y-135574847D01*
X76975993Y-135760897D01*
X76903400Y-135936152D01*
X76798011Y-136093877D01*
X76663877Y-136228011D01*
X76506152Y-136333400D01*
X76330897Y-136405993D01*
X76144847Y-136443000D01*
X75955153Y-136443000D01*
X75769103Y-136405993D01*
X75593848Y-136333400D01*
X75436123Y-136228011D01*
X75301989Y-136093877D01*
X75196600Y-135936152D01*
X75124007Y-135760897D01*
X75087000Y-135574847D01*
X75087000Y-135385153D01*
X75124007Y-135199103D01*
X75196600Y-135023848D01*
X75301989Y-134866123D01*
X75436123Y-134731989D01*
X75593848Y-134626600D01*
X75769103Y-134554007D01*
X75955153Y-134517000D01*
X76144847Y-134517000D01*
X76330897Y-134554007D01*
X76330897Y-134554007D01*
G37*
G36*
X111773000Y-135993000D02*
X109947000Y-135993000D01*
X109947000Y-134167000D01*
X111773000Y-134167000D01*
X111773000Y-135993000D01*
X111773000Y-135993000D01*
G37*
G36*
X107371000Y-135001000D02*
X105769000Y-135001000D01*
X105769000Y-133399000D01*
X107371000Y-133399000D01*
X107371000Y-135001000D01*
X107371000Y-135001000D01*
G37*
G36*
X101723643Y-133429781D02*
X101869415Y-133490162D01*
X102000611Y-133577824D01*
X102112176Y-133689389D01*
X102199838Y-133820585D01*
X102260219Y-133966357D01*
X102291000Y-134121107D01*
X102291000Y-134278893D01*
X102260219Y-134433643D01*
X102199838Y-134579415D01*
X102112176Y-134710611D01*
X102000611Y-134822176D01*
X101869415Y-134909838D01*
X101723643Y-134970219D01*
X101568893Y-135001000D01*
X101411107Y-135001000D01*
X101256357Y-134970219D01*
X101110585Y-134909838D01*
X100979389Y-134822176D01*
X100867824Y-134710611D01*
X100780162Y-134579415D01*
X100719781Y-134433643D01*
X100689000Y-134278893D01*
X100689000Y-134121107D01*
X100719781Y-133966357D01*
X100780162Y-133820585D01*
X100867824Y-133689389D01*
X100979389Y-133577824D01*
X101110585Y-133490162D01*
X101256357Y-133429781D01*
X101411107Y-133399000D01*
X101568893Y-133399000D01*
X101723643Y-133429781D01*
X101723643Y-133429781D01*
G37*
G36*
X96453000Y-133923000D02*
X94627000Y-133923000D01*
X94627000Y-132097000D01*
X96453000Y-132097000D01*
X96453000Y-133923000D01*
X96453000Y-133923000D01*
G37*
G36*
X76963000Y-133853000D02*
X75137000Y-133853000D01*
X75137000Y-132027000D01*
X76963000Y-132027000D01*
X76963000Y-133853000D01*
X76963000Y-133853000D01*
G37*
G36*
X111140897Y-131614007D02*
X111316152Y-131686600D01*
X111473877Y-131791989D01*
X111608011Y-131926123D01*
X111713400Y-132083848D01*
X111785993Y-132259103D01*
X111823000Y-132445153D01*
X111823000Y-132634847D01*
X111785993Y-132820897D01*
X111713400Y-132996152D01*
X111608011Y-133153877D01*
X111473877Y-133288011D01*
X111316152Y-133393400D01*
X111140897Y-133465993D01*
X110954847Y-133503000D01*
X110765153Y-133503000D01*
X110579103Y-133465993D01*
X110403848Y-133393400D01*
X110246123Y-133288011D01*
X110111989Y-133153877D01*
X110006600Y-132996152D01*
X109934007Y-132820897D01*
X109897000Y-132634847D01*
X109897000Y-132445153D01*
X109934007Y-132259103D01*
X110006600Y-132083848D01*
X110111989Y-131926123D01*
X110246123Y-131791989D01*
X110403848Y-131686600D01*
X110579103Y-131614007D01*
X110765153Y-131577000D01*
X110954847Y-131577000D01*
X111140897Y-131614007D01*
X111140897Y-131614007D01*
G37*
G36*
X101723643Y-130889781D02*
X101869415Y-130950162D01*
X102000611Y-131037824D01*
X102112176Y-131149389D01*
X102199838Y-131280585D01*
X102260219Y-131426357D01*
X102291000Y-131581107D01*
X102291000Y-131738893D01*
X102260219Y-131893643D01*
X102199838Y-132039415D01*
X102112176Y-132170611D01*
X102000611Y-132282176D01*
X101869415Y-132369838D01*
X101723643Y-132430219D01*
X101568893Y-132461000D01*
X101411107Y-132461000D01*
X101256357Y-132430219D01*
X101110585Y-132369838D01*
X100979389Y-132282176D01*
X100867824Y-132170611D01*
X100780162Y-132039415D01*
X100719781Y-131893643D01*
X100689000Y-131738893D01*
X100689000Y-131581107D01*
X100719781Y-131426357D01*
X100780162Y-131280585D01*
X100867824Y-131149389D01*
X100979389Y-131037824D01*
X101110585Y-130950162D01*
X101256357Y-130889781D01*
X101411107Y-130859000D01*
X101568893Y-130859000D01*
X101723643Y-130889781D01*
X101723643Y-130889781D01*
G37*
G36*
X107371000Y-132461000D02*
X105769000Y-132461000D01*
X105769000Y-130859000D01*
X107371000Y-130859000D01*
X107371000Y-132461000D01*
X107371000Y-132461000D01*
G37*
G36*
X95820897Y-129544007D02*
X95996152Y-129616600D01*
X96153877Y-129721989D01*
X96288011Y-129856123D01*
X96393400Y-130013848D01*
X96465993Y-130189103D01*
X96503000Y-130375153D01*
X96503000Y-130564847D01*
X96465993Y-130750897D01*
X96393400Y-130926152D01*
X96288011Y-131083877D01*
X96153877Y-131218011D01*
X95996152Y-131323400D01*
X95820897Y-131395993D01*
X95634847Y-131433000D01*
X95445153Y-131433000D01*
X95259103Y-131395993D01*
X95083848Y-131323400D01*
X94926123Y-131218011D01*
X94791989Y-131083877D01*
X94686600Y-130926152D01*
X94614007Y-130750897D01*
X94577000Y-130564847D01*
X94577000Y-130375153D01*
X94614007Y-130189103D01*
X94686600Y-130013848D01*
X94791989Y-129856123D01*
X94926123Y-129721989D01*
X95083848Y-129616600D01*
X95259103Y-129544007D01*
X95445153Y-129507000D01*
X95634847Y-129507000D01*
X95820897Y-129544007D01*
X95820897Y-129544007D01*
G37*
G36*
X107371000Y-129921000D02*
X105769000Y-129921000D01*
X105769000Y-128319000D01*
X107371000Y-128319000D01*
X107371000Y-129921000D01*
X107371000Y-129921000D01*
G37*
G36*
X101723643Y-128349781D02*
X101869415Y-128410162D01*
X102000611Y-128497824D01*
X102112176Y-128609389D01*
X102199838Y-128740585D01*
X102260219Y-128886357D01*
X102291000Y-129041107D01*
X102291000Y-129198893D01*
X102260219Y-129353643D01*
X102199838Y-129499415D01*
X102112176Y-129630611D01*
X102000611Y-129742176D01*
X101869415Y-129829838D01*
X101723643Y-129890219D01*
X101568893Y-129921000D01*
X101411107Y-129921000D01*
X101256357Y-129890219D01*
X101110585Y-129829838D01*
X100979389Y-129742176D01*
X100867824Y-129630611D01*
X100780162Y-129499415D01*
X100719781Y-129353643D01*
X100689000Y-129198893D01*
X100689000Y-129041107D01*
X100719781Y-128886357D01*
X100780162Y-128740585D01*
X100867824Y-128609389D01*
X100979389Y-128497824D01*
X101110585Y-128410162D01*
X101256357Y-128349781D01*
X101411107Y-128319000D01*
X101568893Y-128319000D01*
X101723643Y-128349781D01*
X101723643Y-128349781D01*
G37*
G36*
X75627678Y-123330162D02*
X75948282Y-123393934D01*
X76539926Y-123639001D01*
X77021991Y-123961107D01*
X77072395Y-123994786D01*
X77525214Y-124447605D01*
X77525216Y-124447608D01*
X77880999Y-124980074D01*
X77880999Y-124980075D01*
X78126066Y-125571719D01*
X78225060Y-126069392D01*
X78251000Y-126199804D01*
X78251000Y-126840196D01*
X78126066Y-127468282D01*
X77880999Y-128059926D01*
X77687323Y-128349782D01*
X77525214Y-128592395D01*
X77072395Y-129045214D01*
X77072392Y-129045216D01*
X76539926Y-129400999D01*
X75948282Y-129646066D01*
X75634239Y-129708533D01*
X75320197Y-129771000D01*
X74679803Y-129771000D01*
X74365761Y-129708533D01*
X74051718Y-129646066D01*
X73460074Y-129400999D01*
X72927608Y-129045216D01*
X72927605Y-129045214D01*
X72474786Y-128592395D01*
X72312677Y-128349782D01*
X72119001Y-128059926D01*
X71873934Y-127468282D01*
X71749000Y-126840196D01*
X71749000Y-126199804D01*
X71774941Y-126069392D01*
X71873934Y-125571719D01*
X72119001Y-124980075D01*
X72119001Y-124980074D01*
X72474784Y-124447608D01*
X72474786Y-124447605D01*
X72927605Y-123994786D01*
X72978009Y-123961107D01*
X73460074Y-123639001D01*
X74051718Y-123393934D01*
X74372322Y-123330162D01*
X74679803Y-123269000D01*
X75320197Y-123269000D01*
X75627678Y-123330162D01*
X75627678Y-123330162D01*
G37*
G36*
X112547678Y-123330162D02*
X112868282Y-123393934D01*
X113459926Y-123639001D01*
X113941991Y-123961107D01*
X113992395Y-123994786D01*
X114445214Y-124447605D01*
X114445216Y-124447608D01*
X114800999Y-124980074D01*
X114800999Y-124980075D01*
X115046066Y-125571719D01*
X115145060Y-126069392D01*
X115171000Y-126199804D01*
X115171000Y-126840196D01*
X115046066Y-127468282D01*
X114800999Y-128059926D01*
X114607323Y-128349782D01*
X114445214Y-128592395D01*
X113992395Y-129045214D01*
X113992392Y-129045216D01*
X113459926Y-129400999D01*
X112868282Y-129646066D01*
X112554239Y-129708533D01*
X112240197Y-129771000D01*
X111599803Y-129771000D01*
X111285761Y-129708533D01*
X110971718Y-129646066D01*
X110380074Y-129400999D01*
X109847608Y-129045216D01*
X109847605Y-129045214D01*
X109394786Y-128592395D01*
X109232677Y-128349782D01*
X109039001Y-128059926D01*
X108793934Y-127468282D01*
X108669000Y-126840196D01*
X108669000Y-126199804D01*
X108694941Y-126069392D01*
X108793934Y-125571719D01*
X109039001Y-124980075D01*
X109039001Y-124980074D01*
X109394784Y-124447608D01*
X109394786Y-124447605D01*
X109847605Y-123994786D01*
X109898009Y-123961107D01*
X110380074Y-123639001D01*
X110971718Y-123393934D01*
X111292322Y-123330162D01*
X111599803Y-123269000D01*
X112240197Y-123269000D01*
X112547678Y-123330162D01*
X112547678Y-123330162D01*
G37*
G36*
X101723643Y-125809781D02*
X101869415Y-125870162D01*
X102000611Y-125957824D01*
X102112176Y-126069389D01*
X102199838Y-126200585D01*
X102260219Y-126346357D01*
X102291000Y-126501107D01*
X102291000Y-126658893D01*
X102260219Y-126813643D01*
X102199838Y-126959415D01*
X102112176Y-127090611D01*
X102000611Y-127202176D01*
X101869415Y-127289838D01*
X101723643Y-127350219D01*
X101568893Y-127381000D01*
X101411107Y-127381000D01*
X101256357Y-127350219D01*
X101110585Y-127289838D01*
X100979389Y-127202176D01*
X100867824Y-127090611D01*
X100780162Y-126959415D01*
X100719781Y-126813643D01*
X100689000Y-126658893D01*
X100689000Y-126501107D01*
X100719781Y-126346357D01*
X100780162Y-126200585D01*
X100867824Y-126069389D01*
X100979389Y-125957824D01*
X101110585Y-125870162D01*
X101256357Y-125809781D01*
X101411107Y-125779000D01*
X101568893Y-125779000D01*
X101723643Y-125809781D01*
X101723643Y-125809781D01*
G37*
G36*
X107371000Y-127381000D02*
X105769000Y-127381000D01*
X105769000Y-125779000D01*
X107371000Y-125779000D01*
X107371000Y-127381000D01*
X107371000Y-127381000D01*
G37*
G36*
X107371000Y-124841000D02*
X105769000Y-124841000D01*
X105769000Y-123239000D01*
X107371000Y-123239000D01*
X107371000Y-124841000D01*
X107371000Y-124841000D01*
G37*
G36*
X101723643Y-123269781D02*
X101869415Y-123330162D01*
X102000611Y-123417824D01*
X102112176Y-123529389D01*
X102199838Y-123660585D01*
X102260219Y-123806357D01*
X102291000Y-123961107D01*
X102291000Y-124118893D01*
X102260219Y-124273643D01*
X102199838Y-124419415D01*
X102112176Y-124550611D01*
X102000611Y-124662176D01*
X101869415Y-124749838D01*
X101723643Y-124810219D01*
X101568893Y-124841000D01*
X101411107Y-124841000D01*
X101256357Y-124810219D01*
X101110585Y-124749838D01*
X100979389Y-124662176D01*
X100867824Y-124550611D01*
X100780162Y-124419415D01*
X100719781Y-124273643D01*
X100689000Y-124118893D01*
X100689000Y-123961107D01*
X100719781Y-123806357D01*
X100780162Y-123660585D01*
X100867824Y-123529389D01*
X100979389Y-123417824D01*
X101110585Y-123330162D01*
X101256357Y-123269781D01*
X101411107Y-123239000D01*
X101568893Y-123239000D01*
X101723643Y-123269781D01*
X101723643Y-123269781D01*
G37*
M02*
