G04 #@! TF.GenerationSoftware,KiCad,Pcbnew,(5.0.0)*
G04 #@! TF.CreationDate,2018-11-03T21:44:44-02:30*
G04 #@! TF.ProjectId,Maestro Adapter,4D61657374726F20416461707465722E,6*
G04 #@! TF.SameCoordinates,Original*
G04 #@! TF.FileFunction,Copper,L2,Bot,Signal*
G04 #@! TF.FilePolarity,Positive*
%FSLAX46Y46*%
G04 Gerber Fmt 4.6, Leading zero omitted, Abs format (unit mm)*
G04 Created by KiCad (PCBNEW (5.0.0)) date 11/03/18 21:44:44*
%MOMM*%
%LPD*%
G01*
G04 APERTURE LIST*
G04 #@! TA.AperFunction,ComponentPad*
%ADD10C,1.500000*%
G04 #@! TD*
G04 #@! TA.AperFunction,ComponentPad*
%ADD11R,1.500000X1.500000*%
G04 #@! TD*
G04 #@! TA.AperFunction,ComponentPad*
%ADD12C,6.400000*%
G04 #@! TD*
G04 #@! TA.AperFunction,ComponentPad*
%ADD13R,1.724000X1.724000*%
G04 #@! TD*
G04 #@! TA.AperFunction,ComponentPad*
%ADD14C,1.824000*%
G04 #@! TD*
G04 #@! TA.AperFunction,Conductor*
%ADD15C,0.254000*%
G04 #@! TD*
G04 APERTURE END LIST*
D10*
G04 #@! TO.P,18 Channel Maestro,19*
G04 #@! TO.N,Net-(J17-Pad1)*
X86790000Y-161620000D03*
G04 #@! TO.P,18 Channel Maestro,18*
G04 #@! TO.N,Net-(J16-Pad1)*
X89330000Y-161620000D03*
G04 #@! TO.P,18 Channel Maestro,17*
G04 #@! TO.N,Net-(J15-Pad1)*
X91870000Y-161620000D03*
G04 #@! TO.P,18 Channel Maestro,16*
G04 #@! TO.N,Net-(J14-Pad1)*
X94410000Y-161620000D03*
G04 #@! TO.P,18 Channel Maestro,15*
G04 #@! TO.N,Net-(J13-Pad1)*
X96950000Y-161620000D03*
G04 #@! TO.P,18 Channel Maestro,14*
G04 #@! TO.N,Net-(J12-Pad1)*
X99490000Y-161620000D03*
D11*
G04 #@! TO.P,18 Channel Maestro,38*
G04 #@! TO.N,GND*
X86790000Y-166700000D03*
G04 #@! TO.P,18 Channel Maestro,37*
X89330000Y-166700000D03*
G04 #@! TO.P,18 Channel Maestro,36*
X91870000Y-166700000D03*
G04 #@! TO.P,18 Channel Maestro,35*
X94410000Y-166700000D03*
G04 #@! TO.P,18 Channel Maestro,34*
X96950000Y-166700000D03*
G04 #@! TO.P,18 Channel Maestro,33*
X99490000Y-166700000D03*
G04 #@! TO.P,18 Channel Maestro,20*
X106570000Y-124040000D03*
G04 #@! TO.P,18 Channel Maestro,21*
X106570000Y-126580000D03*
G04 #@! TO.P,18 Channel Maestro,22*
X106570000Y-129120000D03*
G04 #@! TO.P,18 Channel Maestro,23*
X106570000Y-131660000D03*
G04 #@! TO.P,18 Channel Maestro,24*
X106570000Y-134200000D03*
G04 #@! TO.P,18 Channel Maestro,25*
X106570000Y-136740000D03*
G04 #@! TO.P,18 Channel Maestro,26*
X106570000Y-139280000D03*
G04 #@! TO.P,18 Channel Maestro,27*
X106570000Y-141820000D03*
G04 #@! TO.P,18 Channel Maestro,28*
X106570000Y-144360000D03*
G04 #@! TO.P,18 Channel Maestro,29*
X106570000Y-146900000D03*
G04 #@! TO.P,18 Channel Maestro,30*
X106570000Y-149440000D03*
G04 #@! TO.P,18 Channel Maestro,31*
X106570000Y-151980000D03*
G04 #@! TO.P,18 Channel Maestro,32*
X106570000Y-154520000D03*
D10*
G04 #@! TO.P,18 Channel Maestro,1*
G04 #@! TO.N,Net-(J0-Pad1)*
X101490000Y-124040000D03*
G04 #@! TO.P,18 Channel Maestro,2*
G04 #@! TO.N,Net-(J1-Pad1)*
X101490000Y-126580000D03*
G04 #@! TO.P,18 Channel Maestro,3*
G04 #@! TO.N,Net-(J18-Pad3)*
X101490000Y-129120000D03*
G04 #@! TO.P,18 Channel Maestro,4*
G04 #@! TO.N,Net-(J18-Pad4)*
X101490000Y-131660000D03*
G04 #@! TO.P,18 Channel Maestro,5*
G04 #@! TO.N,Net-(J18-Pad5)*
X101490000Y-134200000D03*
G04 #@! TO.P,18 Channel Maestro,6*
G04 #@! TO.N,Net-(J18-Pad6)*
X101490000Y-136740000D03*
G04 #@! TO.P,18 Channel Maestro,7*
G04 #@! TO.N,+5V*
X101490000Y-139280000D03*
G04 #@! TO.P,18 Channel Maestro,8*
G04 #@! TO.N,Net-(J18-Pad8)*
X101490000Y-141820000D03*
G04 #@! TO.P,18 Channel Maestro,9*
G04 #@! TO.N,Net-(J18-Pad9)*
X101490000Y-144360000D03*
G04 #@! TO.P,18 Channel Maestro,10*
G04 #@! TO.N,Net-(J18-Pad10)*
X101490000Y-146900000D03*
G04 #@! TO.P,18 Channel Maestro,11*
G04 #@! TO.N,Net-(J18-Pad11)*
X101490000Y-149440000D03*
G04 #@! TO.P,18 Channel Maestro,12*
G04 #@! TO.N,Net-(J10-Pad1)*
X101490000Y-151980000D03*
G04 #@! TO.P,18 Channel Maestro,13*
G04 #@! TO.N,Net-(J11-Pad1)*
X101490000Y-154520000D03*
G04 #@! TD*
D12*
G04 #@! TO.P,,*
G04 #@! TO.N,*
X111920000Y-126520000D03*
G04 #@! TD*
G04 #@! TO.P,,*
G04 #@! TO.N,*
X75000000Y-164270000D03*
G04 #@! TD*
G04 #@! TO.P,,*
G04 #@! TO.N,*
X111920000Y-164270000D03*
G04 #@! TD*
D13*
G04 #@! TO.P,Channel 0,1*
G04 #@! TO.N,Net-(J0-Pad1)*
X110860000Y-135080000D03*
D14*
G04 #@! TO.P,Channel 0,2*
G04 #@! TO.N,GND*
X110860000Y-132540000D03*
G04 #@! TD*
G04 #@! TO.P,Channel 1,2*
G04 #@! TO.N,GND*
X110860000Y-140050000D03*
D13*
G04 #@! TO.P,Channel 1,1*
G04 #@! TO.N,Net-(J1-Pad1)*
X110860000Y-142590000D03*
G04 #@! TD*
G04 #@! TO.P,Channel 2,1*
G04 #@! TO.N,Net-(J18-Pad3)*
X110860000Y-150100000D03*
D14*
G04 #@! TO.P,Channel 2,2*
G04 #@! TO.N,GND*
X110860000Y-147560000D03*
G04 #@! TD*
G04 #@! TO.P,Channel 3,2*
G04 #@! TO.N,GND*
X110860000Y-155070000D03*
D13*
G04 #@! TO.P,Channel 3,1*
G04 #@! TO.N,Net-(J18-Pad4)*
X110860000Y-157610000D03*
G04 #@! TD*
G04 #@! TO.P,Channel 4,1*
G04 #@! TO.N,Net-(J18-Pad5)*
X95540000Y-133010000D03*
D14*
G04 #@! TO.P,Channel 4,2*
G04 #@! TO.N,GND*
X95540000Y-130470000D03*
G04 #@! TD*
G04 #@! TO.P,Channel 5,2*
G04 #@! TO.N,GND*
X95540000Y-137980000D03*
D13*
G04 #@! TO.P,Channel 5,1*
G04 #@! TO.N,Net-(J18-Pad6)*
X95540000Y-140520000D03*
G04 #@! TD*
G04 #@! TO.P,Channel 6,1*
G04 #@! TO.N,Net-(J18-Pad8)*
X95540000Y-148030000D03*
D14*
G04 #@! TO.P,Channel 6,2*
G04 #@! TO.N,GND*
X95540000Y-145490000D03*
G04 #@! TD*
G04 #@! TO.P,Channel 7,2*
G04 #@! TO.N,GND*
X95540000Y-153000000D03*
D13*
G04 #@! TO.P,Channel 7,1*
G04 #@! TO.N,Net-(J18-Pad9)*
X95540000Y-155540000D03*
G04 #@! TD*
G04 #@! TO.P,Channel 8,1*
G04 #@! TO.N,Net-(J18-Pad10)*
X90300000Y-138220000D03*
D14*
G04 #@! TO.P,Channel 8,2*
G04 #@! TO.N,GND*
X90300000Y-140760000D03*
G04 #@! TD*
G04 #@! TO.P,Channel 9,2*
G04 #@! TO.N,GND*
X90300000Y-148270000D03*
D13*
G04 #@! TO.P,Channel 9,1*
G04 #@! TO.N,Net-(J18-Pad11)*
X90300000Y-145730000D03*
G04 #@! TD*
G04 #@! TO.P,Channel 10,1*
G04 #@! TO.N,Net-(J10-Pad1)*
X90310000Y-153240000D03*
D14*
G04 #@! TO.P,Channel 10,2*
G04 #@! TO.N,GND*
X90310000Y-155780000D03*
G04 #@! TD*
G04 #@! TO.P,Channel 11,2*
G04 #@! TO.N,GND*
X81280000Y-137980000D03*
D13*
G04 #@! TO.P,Channel 11,1*
G04 #@! TO.N,Net-(J11-Pad1)*
X81280000Y-140520000D03*
G04 #@! TD*
D14*
G04 #@! TO.P,Channel 12,2*
G04 #@! TO.N,GND*
X81280000Y-145490000D03*
D13*
G04 #@! TO.P,Channel 12,1*
G04 #@! TO.N,Net-(J12-Pad1)*
X81280000Y-148030000D03*
G04 #@! TD*
G04 #@! TO.P,Channel 13,1*
G04 #@! TO.N,Net-(J13-Pad1)*
X81280000Y-155540000D03*
D14*
G04 #@! TO.P,Channel 13,2*
G04 #@! TO.N,GND*
X81280000Y-153000000D03*
G04 #@! TD*
G04 #@! TO.P,Channel 14,2*
G04 #@! TO.N,GND*
X76050000Y-135480000D03*
D13*
G04 #@! TO.P,Channel 14,1*
G04 #@! TO.N,Net-(J14-Pad1)*
X76050000Y-132940000D03*
G04 #@! TD*
G04 #@! TO.P,Channel 15,1*
G04 #@! TO.N,Net-(J15-Pad1)*
X76050000Y-140450000D03*
D14*
G04 #@! TO.P,Channel 15,2*
G04 #@! TO.N,GND*
X76050000Y-142990000D03*
G04 #@! TD*
G04 #@! TO.P,Channel 16,2*
G04 #@! TO.N,GND*
X76050000Y-150500000D03*
D13*
G04 #@! TO.P,Channel 16,1*
G04 #@! TO.N,Net-(J16-Pad1)*
X76050000Y-147960000D03*
G04 #@! TD*
G04 #@! TO.P,Channel 17,1*
G04 #@! TO.N,Net-(J17-Pad1)*
X76050000Y-155470000D03*
D14*
G04 #@! TO.P,Channel 17,2*
G04 #@! TO.N,GND*
X76050000Y-158010000D03*
G04 #@! TD*
D12*
G04 #@! TO.P,,*
G04 #@! TO.N,*
X75000000Y-126520000D03*
G04 #@! TD*
D15*
G04 #@! TO.N,GND*
G36*
X80655001Y-131857607D02*
X80640601Y-131930000D01*
X80697646Y-132216783D01*
X80860095Y-132459905D01*
X81103217Y-132622354D01*
X81317612Y-132665000D01*
X81390000Y-132679399D01*
X81462388Y-132665000D01*
X91217612Y-132665000D01*
X91290000Y-132679399D01*
X91362388Y-132665000D01*
X91576783Y-132622354D01*
X91819905Y-132459905D01*
X91982354Y-132216783D01*
X92039399Y-131930000D01*
X92025000Y-131857612D01*
X92025000Y-130226471D01*
X93981605Y-130226471D01*
X94007036Y-130841380D01*
X94193425Y-131291363D01*
X94451151Y-131379241D01*
X94336631Y-131493761D01*
X94407742Y-131564872D01*
X94220191Y-131690191D01*
X94079843Y-131900235D01*
X94030560Y-132148000D01*
X94030560Y-133872000D01*
X94079843Y-134119765D01*
X94220191Y-134329809D01*
X94430235Y-134470157D01*
X94678000Y-134519440D01*
X96402000Y-134519440D01*
X96649765Y-134470157D01*
X96859809Y-134329809D01*
X97000157Y-134119765D01*
X97049440Y-133872000D01*
X97049440Y-132148000D01*
X97000157Y-131900235D01*
X96859809Y-131690191D01*
X96672258Y-131564872D01*
X96743369Y-131493761D01*
X96628849Y-131379241D01*
X96886575Y-131291363D01*
X97098395Y-130713529D01*
X97072964Y-130098620D01*
X96886575Y-129648637D01*
X96628847Y-129560758D01*
X95719605Y-130470000D01*
X95733748Y-130484143D01*
X95554143Y-130663748D01*
X95540000Y-130649605D01*
X95525858Y-130663748D01*
X95346253Y-130484143D01*
X95360395Y-130470000D01*
X94451153Y-129560758D01*
X94193425Y-129648637D01*
X93981605Y-130226471D01*
X92025000Y-130226471D01*
X92025000Y-129381153D01*
X94630758Y-129381153D01*
X95540000Y-130290395D01*
X96449242Y-129381153D01*
X96361363Y-129123425D01*
X95783529Y-128911605D01*
X95168620Y-128937036D01*
X94718637Y-129123425D01*
X94630758Y-129381153D01*
X92025000Y-129381153D01*
X92025000Y-123255000D01*
X100316313Y-123255000D01*
X100315853Y-123255460D01*
X100105000Y-123764506D01*
X100105000Y-124315494D01*
X100315853Y-124824540D01*
X100705460Y-125214147D01*
X100936870Y-125310000D01*
X100705460Y-125405853D01*
X100315853Y-125795460D01*
X100105000Y-126304506D01*
X100105000Y-126855494D01*
X100315853Y-127364540D01*
X100705460Y-127754147D01*
X100936870Y-127850000D01*
X100705460Y-127945853D01*
X100315853Y-128335460D01*
X100105000Y-128844506D01*
X100105000Y-129395494D01*
X100315853Y-129904540D01*
X100705460Y-130294147D01*
X100936870Y-130390000D01*
X100705460Y-130485853D01*
X100315853Y-130875460D01*
X100105000Y-131384506D01*
X100105000Y-131935494D01*
X100315853Y-132444540D01*
X100705460Y-132834147D01*
X100936870Y-132930000D01*
X100705460Y-133025853D01*
X100315853Y-133415460D01*
X100105000Y-133924506D01*
X100105000Y-134475494D01*
X100315853Y-134984540D01*
X100705460Y-135374147D01*
X100936870Y-135470000D01*
X100705460Y-135565853D01*
X100315853Y-135955460D01*
X100105000Y-136464506D01*
X100105000Y-137015494D01*
X100315853Y-137524540D01*
X100705460Y-137914147D01*
X100936870Y-138010000D01*
X100705460Y-138105853D01*
X100315853Y-138495460D01*
X100105000Y-139004506D01*
X100105000Y-139555494D01*
X100315853Y-140064540D01*
X100705460Y-140454147D01*
X100936870Y-140550000D01*
X100705460Y-140645853D01*
X100315853Y-141035460D01*
X100105000Y-141544506D01*
X100105000Y-142095494D01*
X100315853Y-142604540D01*
X100705460Y-142994147D01*
X100936870Y-143090000D01*
X100705460Y-143185853D01*
X100315853Y-143575460D01*
X100105000Y-144084506D01*
X100105000Y-144635494D01*
X100315853Y-145144540D01*
X100705460Y-145534147D01*
X100936870Y-145630000D01*
X100705460Y-145725853D01*
X100315853Y-146115460D01*
X100105000Y-146624506D01*
X100105000Y-147175494D01*
X100315853Y-147684540D01*
X100705460Y-148074147D01*
X100936870Y-148170000D01*
X100705460Y-148265853D01*
X100315853Y-148655460D01*
X100105000Y-149164506D01*
X100105000Y-149715494D01*
X100315853Y-150224540D01*
X100705460Y-150614147D01*
X100936870Y-150710000D01*
X100705460Y-150805853D01*
X100315853Y-151195460D01*
X100105000Y-151704506D01*
X100105000Y-152255494D01*
X100315853Y-152764540D01*
X100705460Y-153154147D01*
X100936870Y-153250000D01*
X100705460Y-153345853D01*
X100315853Y-153735460D01*
X100105000Y-154244506D01*
X100105000Y-154795494D01*
X100315853Y-155304540D01*
X100705460Y-155694147D01*
X101214506Y-155905000D01*
X101765494Y-155905000D01*
X102274540Y-155694147D01*
X102664147Y-155304540D01*
X102870751Y-154805750D01*
X105185000Y-154805750D01*
X105185000Y-155396310D01*
X105281673Y-155629699D01*
X105460302Y-155808327D01*
X105693691Y-155905000D01*
X106284250Y-155905000D01*
X106443000Y-155746250D01*
X106443000Y-154647000D01*
X106697000Y-154647000D01*
X106697000Y-155746250D01*
X106855750Y-155905000D01*
X107446309Y-155905000D01*
X107679698Y-155808327D01*
X107858327Y-155629699D01*
X107955000Y-155396310D01*
X107955000Y-154826471D01*
X109301605Y-154826471D01*
X109327036Y-155441380D01*
X109513425Y-155891363D01*
X109771151Y-155979241D01*
X109656631Y-156093761D01*
X109727742Y-156164872D01*
X109540191Y-156290191D01*
X109399843Y-156500235D01*
X109350560Y-156748000D01*
X109350560Y-158472000D01*
X109399843Y-158719765D01*
X109540191Y-158929809D01*
X109750235Y-159070157D01*
X109998000Y-159119440D01*
X111722000Y-159119440D01*
X111969765Y-159070157D01*
X112179809Y-158929809D01*
X112320157Y-158719765D01*
X112369440Y-158472000D01*
X112369440Y-156748000D01*
X112320157Y-156500235D01*
X112179809Y-156290191D01*
X111992258Y-156164872D01*
X112063369Y-156093761D01*
X111948849Y-155979241D01*
X112206575Y-155891363D01*
X112418395Y-155313529D01*
X112392964Y-154698620D01*
X112206575Y-154248637D01*
X111948847Y-154160758D01*
X111039605Y-155070000D01*
X111053748Y-155084143D01*
X110874143Y-155263748D01*
X110860000Y-155249605D01*
X110845858Y-155263748D01*
X110666253Y-155084143D01*
X110680395Y-155070000D01*
X109771153Y-154160758D01*
X109513425Y-154248637D01*
X109301605Y-154826471D01*
X107955000Y-154826471D01*
X107955000Y-154805750D01*
X107796250Y-154647000D01*
X106697000Y-154647000D01*
X106443000Y-154647000D01*
X105343750Y-154647000D01*
X105185000Y-154805750D01*
X102870751Y-154805750D01*
X102875000Y-154795494D01*
X102875000Y-154244506D01*
X102664147Y-153735460D01*
X102274540Y-153345853D01*
X102043130Y-153250000D01*
X102274540Y-153154147D01*
X102664147Y-152764540D01*
X102870751Y-152265750D01*
X105185000Y-152265750D01*
X105185000Y-152856310D01*
X105281673Y-153089699D01*
X105441975Y-153250000D01*
X105281673Y-153410301D01*
X105185000Y-153643690D01*
X105185000Y-154234250D01*
X105343750Y-154393000D01*
X106443000Y-154393000D01*
X106443000Y-153293750D01*
X106399250Y-153250000D01*
X106443000Y-153206250D01*
X106443000Y-152107000D01*
X106697000Y-152107000D01*
X106697000Y-153206250D01*
X106740750Y-153250000D01*
X106697000Y-153293750D01*
X106697000Y-154393000D01*
X107796250Y-154393000D01*
X107955000Y-154234250D01*
X107955000Y-153981153D01*
X109950758Y-153981153D01*
X110860000Y-154890395D01*
X111769242Y-153981153D01*
X111681363Y-153723425D01*
X111103529Y-153511605D01*
X110488620Y-153537036D01*
X110038637Y-153723425D01*
X109950758Y-153981153D01*
X107955000Y-153981153D01*
X107955000Y-153643690D01*
X107858327Y-153410301D01*
X107698025Y-153250000D01*
X107858327Y-153089699D01*
X107955000Y-152856310D01*
X107955000Y-152265750D01*
X107796250Y-152107000D01*
X106697000Y-152107000D01*
X106443000Y-152107000D01*
X105343750Y-152107000D01*
X105185000Y-152265750D01*
X102870751Y-152265750D01*
X102875000Y-152255494D01*
X102875000Y-151704506D01*
X102664147Y-151195460D01*
X102274540Y-150805853D01*
X102043130Y-150710000D01*
X102274540Y-150614147D01*
X102664147Y-150224540D01*
X102870751Y-149725750D01*
X105185000Y-149725750D01*
X105185000Y-150316310D01*
X105281673Y-150549699D01*
X105441975Y-150710000D01*
X105281673Y-150870301D01*
X105185000Y-151103690D01*
X105185000Y-151694250D01*
X105343750Y-151853000D01*
X106443000Y-151853000D01*
X106443000Y-150753750D01*
X106399250Y-150710000D01*
X106443000Y-150666250D01*
X106443000Y-149567000D01*
X106697000Y-149567000D01*
X106697000Y-150666250D01*
X106740750Y-150710000D01*
X106697000Y-150753750D01*
X106697000Y-151853000D01*
X107796250Y-151853000D01*
X107955000Y-151694250D01*
X107955000Y-151103690D01*
X107858327Y-150870301D01*
X107698025Y-150710000D01*
X107858327Y-150549699D01*
X107955000Y-150316310D01*
X107955000Y-149725750D01*
X107796250Y-149567000D01*
X106697000Y-149567000D01*
X106443000Y-149567000D01*
X105343750Y-149567000D01*
X105185000Y-149725750D01*
X102870751Y-149725750D01*
X102875000Y-149715494D01*
X102875000Y-149164506D01*
X102664147Y-148655460D01*
X102274540Y-148265853D01*
X102043130Y-148170000D01*
X102274540Y-148074147D01*
X102664147Y-147684540D01*
X102870751Y-147185750D01*
X105185000Y-147185750D01*
X105185000Y-147776310D01*
X105281673Y-148009699D01*
X105441975Y-148170000D01*
X105281673Y-148330301D01*
X105185000Y-148563690D01*
X105185000Y-149154250D01*
X105343750Y-149313000D01*
X106443000Y-149313000D01*
X106443000Y-148213750D01*
X106399250Y-148170000D01*
X106443000Y-148126250D01*
X106443000Y-147027000D01*
X106697000Y-147027000D01*
X106697000Y-148126250D01*
X106740750Y-148170000D01*
X106697000Y-148213750D01*
X106697000Y-149313000D01*
X107796250Y-149313000D01*
X107955000Y-149154250D01*
X107955000Y-148563690D01*
X107858327Y-148330301D01*
X107698025Y-148170000D01*
X107858327Y-148009699D01*
X107955000Y-147776310D01*
X107955000Y-147316471D01*
X109301605Y-147316471D01*
X109327036Y-147931380D01*
X109513425Y-148381363D01*
X109771151Y-148469241D01*
X109656631Y-148583761D01*
X109727742Y-148654872D01*
X109540191Y-148780191D01*
X109399843Y-148990235D01*
X109350560Y-149238000D01*
X109350560Y-150962000D01*
X109399843Y-151209765D01*
X109540191Y-151419809D01*
X109750235Y-151560157D01*
X109998000Y-151609440D01*
X111722000Y-151609440D01*
X111969765Y-151560157D01*
X112179809Y-151419809D01*
X112320157Y-151209765D01*
X112369440Y-150962000D01*
X112369440Y-149238000D01*
X112320157Y-148990235D01*
X112179809Y-148780191D01*
X111992258Y-148654872D01*
X112063369Y-148583761D01*
X111948849Y-148469241D01*
X112206575Y-148381363D01*
X112418395Y-147803529D01*
X112392964Y-147188620D01*
X112206575Y-146738637D01*
X111948847Y-146650758D01*
X111039605Y-147560000D01*
X111053748Y-147574143D01*
X110874143Y-147753748D01*
X110860000Y-147739605D01*
X110845858Y-147753748D01*
X110666253Y-147574143D01*
X110680395Y-147560000D01*
X109771153Y-146650758D01*
X109513425Y-146738637D01*
X109301605Y-147316471D01*
X107955000Y-147316471D01*
X107955000Y-147185750D01*
X107796250Y-147027000D01*
X106697000Y-147027000D01*
X106443000Y-147027000D01*
X105343750Y-147027000D01*
X105185000Y-147185750D01*
X102870751Y-147185750D01*
X102875000Y-147175494D01*
X102875000Y-146624506D01*
X102664147Y-146115460D01*
X102274540Y-145725853D01*
X102043130Y-145630000D01*
X102274540Y-145534147D01*
X102664147Y-145144540D01*
X102870751Y-144645750D01*
X105185000Y-144645750D01*
X105185000Y-145236310D01*
X105281673Y-145469699D01*
X105441975Y-145630000D01*
X105281673Y-145790301D01*
X105185000Y-146023690D01*
X105185000Y-146614250D01*
X105343750Y-146773000D01*
X106443000Y-146773000D01*
X106443000Y-145673750D01*
X106399250Y-145630000D01*
X106443000Y-145586250D01*
X106443000Y-144487000D01*
X106697000Y-144487000D01*
X106697000Y-145586250D01*
X106740750Y-145630000D01*
X106697000Y-145673750D01*
X106697000Y-146773000D01*
X107796250Y-146773000D01*
X107955000Y-146614250D01*
X107955000Y-146471153D01*
X109950758Y-146471153D01*
X110860000Y-147380395D01*
X111769242Y-146471153D01*
X111681363Y-146213425D01*
X111103529Y-146001605D01*
X110488620Y-146027036D01*
X110038637Y-146213425D01*
X109950758Y-146471153D01*
X107955000Y-146471153D01*
X107955000Y-146023690D01*
X107858327Y-145790301D01*
X107698025Y-145630000D01*
X107858327Y-145469699D01*
X107955000Y-145236310D01*
X107955000Y-144645750D01*
X107796250Y-144487000D01*
X106697000Y-144487000D01*
X106443000Y-144487000D01*
X105343750Y-144487000D01*
X105185000Y-144645750D01*
X102870751Y-144645750D01*
X102875000Y-144635494D01*
X102875000Y-144084506D01*
X102664147Y-143575460D01*
X102274540Y-143185853D01*
X102043130Y-143090000D01*
X102274540Y-142994147D01*
X102664147Y-142604540D01*
X102870751Y-142105750D01*
X105185000Y-142105750D01*
X105185000Y-142696310D01*
X105281673Y-142929699D01*
X105441975Y-143090000D01*
X105281673Y-143250301D01*
X105185000Y-143483690D01*
X105185000Y-144074250D01*
X105343750Y-144233000D01*
X106443000Y-144233000D01*
X106443000Y-143133750D01*
X106399250Y-143090000D01*
X106443000Y-143046250D01*
X106443000Y-141947000D01*
X106697000Y-141947000D01*
X106697000Y-143046250D01*
X106740750Y-143090000D01*
X106697000Y-143133750D01*
X106697000Y-144233000D01*
X107796250Y-144233000D01*
X107955000Y-144074250D01*
X107955000Y-143483690D01*
X107858327Y-143250301D01*
X107698025Y-143090000D01*
X107858327Y-142929699D01*
X107955000Y-142696310D01*
X107955000Y-142105750D01*
X107796250Y-141947000D01*
X106697000Y-141947000D01*
X106443000Y-141947000D01*
X105343750Y-141947000D01*
X105185000Y-142105750D01*
X102870751Y-142105750D01*
X102875000Y-142095494D01*
X102875000Y-141544506D01*
X102664147Y-141035460D01*
X102274540Y-140645853D01*
X102043130Y-140550000D01*
X102274540Y-140454147D01*
X102664147Y-140064540D01*
X102870751Y-139565750D01*
X105185000Y-139565750D01*
X105185000Y-140156310D01*
X105281673Y-140389699D01*
X105441975Y-140550000D01*
X105281673Y-140710301D01*
X105185000Y-140943690D01*
X105185000Y-141534250D01*
X105343750Y-141693000D01*
X106443000Y-141693000D01*
X106443000Y-140593750D01*
X106399250Y-140550000D01*
X106443000Y-140506250D01*
X106443000Y-139407000D01*
X106697000Y-139407000D01*
X106697000Y-140506250D01*
X106740750Y-140550000D01*
X106697000Y-140593750D01*
X106697000Y-141693000D01*
X107796250Y-141693000D01*
X107955000Y-141534250D01*
X107955000Y-140943690D01*
X107858327Y-140710301D01*
X107698025Y-140550000D01*
X107858327Y-140389699D01*
X107955000Y-140156310D01*
X107955000Y-139806471D01*
X109301605Y-139806471D01*
X109327036Y-140421380D01*
X109513425Y-140871363D01*
X109771151Y-140959241D01*
X109656631Y-141073761D01*
X109727742Y-141144872D01*
X109540191Y-141270191D01*
X109399843Y-141480235D01*
X109350560Y-141728000D01*
X109350560Y-143452000D01*
X109399843Y-143699765D01*
X109540191Y-143909809D01*
X109750235Y-144050157D01*
X109998000Y-144099440D01*
X111722000Y-144099440D01*
X111969765Y-144050157D01*
X112179809Y-143909809D01*
X112320157Y-143699765D01*
X112369440Y-143452000D01*
X112369440Y-141728000D01*
X112320157Y-141480235D01*
X112179809Y-141270191D01*
X111992258Y-141144872D01*
X112063369Y-141073761D01*
X111948849Y-140959241D01*
X112206575Y-140871363D01*
X112418395Y-140293529D01*
X112392964Y-139678620D01*
X112206575Y-139228637D01*
X111948847Y-139140758D01*
X111039605Y-140050000D01*
X111053748Y-140064143D01*
X110874143Y-140243748D01*
X110860000Y-140229605D01*
X110845858Y-140243748D01*
X110666253Y-140064143D01*
X110680395Y-140050000D01*
X109771153Y-139140758D01*
X109513425Y-139228637D01*
X109301605Y-139806471D01*
X107955000Y-139806471D01*
X107955000Y-139565750D01*
X107796250Y-139407000D01*
X106697000Y-139407000D01*
X106443000Y-139407000D01*
X105343750Y-139407000D01*
X105185000Y-139565750D01*
X102870751Y-139565750D01*
X102875000Y-139555494D01*
X102875000Y-139004506D01*
X102664147Y-138495460D01*
X102274540Y-138105853D01*
X102043130Y-138010000D01*
X102274540Y-137914147D01*
X102664147Y-137524540D01*
X102870751Y-137025750D01*
X105185000Y-137025750D01*
X105185000Y-137616310D01*
X105281673Y-137849699D01*
X105441975Y-138010000D01*
X105281673Y-138170301D01*
X105185000Y-138403690D01*
X105185000Y-138994250D01*
X105343750Y-139153000D01*
X106443000Y-139153000D01*
X106443000Y-138053750D01*
X106399250Y-138010000D01*
X106443000Y-137966250D01*
X106443000Y-136867000D01*
X106697000Y-136867000D01*
X106697000Y-137966250D01*
X106740750Y-138010000D01*
X106697000Y-138053750D01*
X106697000Y-139153000D01*
X107796250Y-139153000D01*
X107955000Y-138994250D01*
X107955000Y-138961153D01*
X109950758Y-138961153D01*
X110860000Y-139870395D01*
X111769242Y-138961153D01*
X111681363Y-138703425D01*
X111103529Y-138491605D01*
X110488620Y-138517036D01*
X110038637Y-138703425D01*
X109950758Y-138961153D01*
X107955000Y-138961153D01*
X107955000Y-138403690D01*
X107858327Y-138170301D01*
X107698025Y-138010000D01*
X107858327Y-137849699D01*
X107955000Y-137616310D01*
X107955000Y-137025750D01*
X107796250Y-136867000D01*
X106697000Y-136867000D01*
X106443000Y-136867000D01*
X105343750Y-136867000D01*
X105185000Y-137025750D01*
X102870751Y-137025750D01*
X102875000Y-137015494D01*
X102875000Y-136464506D01*
X102664147Y-135955460D01*
X102274540Y-135565853D01*
X102043130Y-135470000D01*
X102274540Y-135374147D01*
X102664147Y-134984540D01*
X102870751Y-134485750D01*
X105185000Y-134485750D01*
X105185000Y-135076310D01*
X105281673Y-135309699D01*
X105441975Y-135470000D01*
X105281673Y-135630301D01*
X105185000Y-135863690D01*
X105185000Y-136454250D01*
X105343750Y-136613000D01*
X106443000Y-136613000D01*
X106443000Y-135513750D01*
X106399250Y-135470000D01*
X106443000Y-135426250D01*
X106443000Y-134327000D01*
X106697000Y-134327000D01*
X106697000Y-135426250D01*
X106740750Y-135470000D01*
X106697000Y-135513750D01*
X106697000Y-136613000D01*
X107796250Y-136613000D01*
X107955000Y-136454250D01*
X107955000Y-135863690D01*
X107858327Y-135630301D01*
X107698025Y-135470000D01*
X107858327Y-135309699D01*
X107955000Y-135076310D01*
X107955000Y-134485750D01*
X107796250Y-134327000D01*
X106697000Y-134327000D01*
X106443000Y-134327000D01*
X105343750Y-134327000D01*
X105185000Y-134485750D01*
X102870751Y-134485750D01*
X102875000Y-134475494D01*
X102875000Y-133924506D01*
X102664147Y-133415460D01*
X102274540Y-133025853D01*
X102043130Y-132930000D01*
X102274540Y-132834147D01*
X102664147Y-132444540D01*
X102870751Y-131945750D01*
X105185000Y-131945750D01*
X105185000Y-132536310D01*
X105281673Y-132769699D01*
X105441975Y-132930000D01*
X105281673Y-133090301D01*
X105185000Y-133323690D01*
X105185000Y-133914250D01*
X105343750Y-134073000D01*
X106443000Y-134073000D01*
X106443000Y-132973750D01*
X106399250Y-132930000D01*
X106443000Y-132886250D01*
X106443000Y-131787000D01*
X106697000Y-131787000D01*
X106697000Y-132886250D01*
X106740750Y-132930000D01*
X106697000Y-132973750D01*
X106697000Y-134073000D01*
X107796250Y-134073000D01*
X107955000Y-133914250D01*
X107955000Y-133323690D01*
X107858327Y-133090301D01*
X107698025Y-132930000D01*
X107858327Y-132769699D01*
X107955000Y-132536310D01*
X107955000Y-132296471D01*
X109301605Y-132296471D01*
X109327036Y-132911380D01*
X109513425Y-133361363D01*
X109771151Y-133449241D01*
X109656631Y-133563761D01*
X109727742Y-133634872D01*
X109540191Y-133760191D01*
X109399843Y-133970235D01*
X109350560Y-134218000D01*
X109350560Y-135942000D01*
X109399843Y-136189765D01*
X109540191Y-136399809D01*
X109750235Y-136540157D01*
X109998000Y-136589440D01*
X111722000Y-136589440D01*
X111969765Y-136540157D01*
X112179809Y-136399809D01*
X112320157Y-136189765D01*
X112369440Y-135942000D01*
X112369440Y-134218000D01*
X112320157Y-133970235D01*
X112179809Y-133760191D01*
X111992258Y-133634872D01*
X112063369Y-133563761D01*
X111948849Y-133449241D01*
X112206575Y-133361363D01*
X112418395Y-132783529D01*
X112392964Y-132168620D01*
X112206575Y-131718637D01*
X111948847Y-131630758D01*
X111039605Y-132540000D01*
X111053748Y-132554143D01*
X110874143Y-132733748D01*
X110860000Y-132719605D01*
X110845858Y-132733748D01*
X110666253Y-132554143D01*
X110680395Y-132540000D01*
X109771153Y-131630758D01*
X109513425Y-131718637D01*
X109301605Y-132296471D01*
X107955000Y-132296471D01*
X107955000Y-131945750D01*
X107796250Y-131787000D01*
X106697000Y-131787000D01*
X106443000Y-131787000D01*
X105343750Y-131787000D01*
X105185000Y-131945750D01*
X102870751Y-131945750D01*
X102875000Y-131935494D01*
X102875000Y-131384506D01*
X102664147Y-130875460D01*
X102274540Y-130485853D01*
X102043130Y-130390000D01*
X102274540Y-130294147D01*
X102664147Y-129904540D01*
X102870751Y-129405750D01*
X105185000Y-129405750D01*
X105185000Y-129996310D01*
X105281673Y-130229699D01*
X105441975Y-130390000D01*
X105281673Y-130550301D01*
X105185000Y-130783690D01*
X105185000Y-131374250D01*
X105343750Y-131533000D01*
X106443000Y-131533000D01*
X106443000Y-130433750D01*
X106399250Y-130390000D01*
X106443000Y-130346250D01*
X106443000Y-129247000D01*
X106697000Y-129247000D01*
X106697000Y-130346250D01*
X106740750Y-130390000D01*
X106697000Y-130433750D01*
X106697000Y-131533000D01*
X107796250Y-131533000D01*
X107878097Y-131451153D01*
X109950758Y-131451153D01*
X110860000Y-132360395D01*
X111769242Y-131451153D01*
X111681363Y-131193425D01*
X111103529Y-130981605D01*
X110488620Y-131007036D01*
X110038637Y-131193425D01*
X109950758Y-131451153D01*
X107878097Y-131451153D01*
X107955000Y-131374250D01*
X107955000Y-130783690D01*
X107858327Y-130550301D01*
X107698025Y-130390000D01*
X107858327Y-130229699D01*
X107955000Y-129996310D01*
X107955000Y-129405750D01*
X107796250Y-129247000D01*
X106697000Y-129247000D01*
X106443000Y-129247000D01*
X105343750Y-129247000D01*
X105185000Y-129405750D01*
X102870751Y-129405750D01*
X102875000Y-129395494D01*
X102875000Y-128844506D01*
X102664147Y-128335460D01*
X102274540Y-127945853D01*
X102043130Y-127850000D01*
X102274540Y-127754147D01*
X102664147Y-127364540D01*
X102870751Y-126865750D01*
X105185000Y-126865750D01*
X105185000Y-127456310D01*
X105281673Y-127689699D01*
X105441975Y-127850000D01*
X105281673Y-128010301D01*
X105185000Y-128243690D01*
X105185000Y-128834250D01*
X105343750Y-128993000D01*
X106443000Y-128993000D01*
X106443000Y-127893750D01*
X106399250Y-127850000D01*
X106443000Y-127806250D01*
X106443000Y-126707000D01*
X106697000Y-126707000D01*
X106697000Y-127806250D01*
X106740750Y-127850000D01*
X106697000Y-127893750D01*
X106697000Y-128993000D01*
X107796250Y-128993000D01*
X107955000Y-128834250D01*
X107955000Y-128243690D01*
X107858327Y-128010301D01*
X107698025Y-127850000D01*
X107858327Y-127689699D01*
X107955000Y-127456310D01*
X107955000Y-126865750D01*
X107796250Y-126707000D01*
X106697000Y-126707000D01*
X106443000Y-126707000D01*
X105343750Y-126707000D01*
X105185000Y-126865750D01*
X102870751Y-126865750D01*
X102875000Y-126855494D01*
X102875000Y-126304506D01*
X102664147Y-125795460D01*
X102274540Y-125405853D01*
X102043130Y-125310000D01*
X102274540Y-125214147D01*
X102664147Y-124824540D01*
X102870751Y-124325750D01*
X105185000Y-124325750D01*
X105185000Y-124916310D01*
X105281673Y-125149699D01*
X105441975Y-125310000D01*
X105281673Y-125470301D01*
X105185000Y-125703690D01*
X105185000Y-126294250D01*
X105343750Y-126453000D01*
X106443000Y-126453000D01*
X106443000Y-125353750D01*
X106399250Y-125310000D01*
X106443000Y-125266250D01*
X106443000Y-124167000D01*
X106697000Y-124167000D01*
X106697000Y-125266250D01*
X106740750Y-125310000D01*
X106697000Y-125353750D01*
X106697000Y-126453000D01*
X107796250Y-126453000D01*
X107955000Y-126294250D01*
X107955000Y-125703690D01*
X107858327Y-125470301D01*
X107698025Y-125310000D01*
X107858327Y-125149699D01*
X107955000Y-124916310D01*
X107955000Y-124325750D01*
X107796250Y-124167000D01*
X106697000Y-124167000D01*
X106443000Y-124167000D01*
X105343750Y-124167000D01*
X105185000Y-124325750D01*
X102870751Y-124325750D01*
X102875000Y-124315494D01*
X102875000Y-123764506D01*
X102664147Y-123255460D01*
X102663687Y-123255000D01*
X105185000Y-123255000D01*
X105185000Y-123754250D01*
X105343750Y-123913000D01*
X106443000Y-123913000D01*
X106443000Y-123893000D01*
X106697000Y-123893000D01*
X106697000Y-123913000D01*
X107796250Y-123913000D01*
X107955000Y-123754250D01*
X107955000Y-123255000D01*
X109781069Y-123255000D01*
X109747647Y-123268844D01*
X108668844Y-124347647D01*
X108085000Y-125757171D01*
X108085000Y-127282829D01*
X108668844Y-128692353D01*
X109747647Y-129771156D01*
X111157171Y-130355000D01*
X112682829Y-130355000D01*
X114092353Y-129771156D01*
X115171156Y-128692353D01*
X115185000Y-128658931D01*
X115185001Y-162131072D01*
X115171156Y-162097647D01*
X114092353Y-161018844D01*
X112682829Y-160435000D01*
X111157171Y-160435000D01*
X109747647Y-161018844D01*
X108668844Y-162097647D01*
X108085000Y-163507171D01*
X108085000Y-165032829D01*
X108668844Y-166442353D01*
X109747647Y-167521156D01*
X109781069Y-167535000D01*
X100875000Y-167535000D01*
X100875000Y-166985750D01*
X100716250Y-166827000D01*
X99617000Y-166827000D01*
X99617000Y-166847000D01*
X99363000Y-166847000D01*
X99363000Y-166827000D01*
X98263750Y-166827000D01*
X98220000Y-166870750D01*
X98176250Y-166827000D01*
X97077000Y-166827000D01*
X97077000Y-166847000D01*
X96823000Y-166847000D01*
X96823000Y-166827000D01*
X95723750Y-166827000D01*
X95680000Y-166870750D01*
X95636250Y-166827000D01*
X94537000Y-166827000D01*
X94537000Y-166847000D01*
X94283000Y-166847000D01*
X94283000Y-166827000D01*
X93183750Y-166827000D01*
X93140000Y-166870750D01*
X93096250Y-166827000D01*
X91997000Y-166827000D01*
X91997000Y-166847000D01*
X91743000Y-166847000D01*
X91743000Y-166827000D01*
X90643750Y-166827000D01*
X90600000Y-166870750D01*
X90556250Y-166827000D01*
X89457000Y-166827000D01*
X89457000Y-166847000D01*
X89203000Y-166847000D01*
X89203000Y-166827000D01*
X88103750Y-166827000D01*
X88060000Y-166870750D01*
X88016250Y-166827000D01*
X86917000Y-166827000D01*
X86917000Y-166847000D01*
X86663000Y-166847000D01*
X86663000Y-166827000D01*
X85563750Y-166827000D01*
X85405000Y-166985750D01*
X85405000Y-167535000D01*
X77138931Y-167535000D01*
X77172353Y-167521156D01*
X78251156Y-166442353D01*
X78507414Y-165823690D01*
X85405000Y-165823690D01*
X85405000Y-166414250D01*
X85563750Y-166573000D01*
X86663000Y-166573000D01*
X86663000Y-165473750D01*
X86917000Y-165473750D01*
X86917000Y-166573000D01*
X88016250Y-166573000D01*
X88060000Y-166529250D01*
X88103750Y-166573000D01*
X89203000Y-166573000D01*
X89203000Y-165473750D01*
X89457000Y-165473750D01*
X89457000Y-166573000D01*
X90556250Y-166573000D01*
X90600000Y-166529250D01*
X90643750Y-166573000D01*
X91743000Y-166573000D01*
X91743000Y-165473750D01*
X91997000Y-165473750D01*
X91997000Y-166573000D01*
X93096250Y-166573000D01*
X93140000Y-166529250D01*
X93183750Y-166573000D01*
X94283000Y-166573000D01*
X94283000Y-165473750D01*
X94537000Y-165473750D01*
X94537000Y-166573000D01*
X95636250Y-166573000D01*
X95680000Y-166529250D01*
X95723750Y-166573000D01*
X96823000Y-166573000D01*
X96823000Y-165473750D01*
X97077000Y-165473750D01*
X97077000Y-166573000D01*
X98176250Y-166573000D01*
X98220000Y-166529250D01*
X98263750Y-166573000D01*
X99363000Y-166573000D01*
X99363000Y-165473750D01*
X99617000Y-165473750D01*
X99617000Y-166573000D01*
X100716250Y-166573000D01*
X100875000Y-166414250D01*
X100875000Y-165823690D01*
X100778327Y-165590301D01*
X100599698Y-165411673D01*
X100366309Y-165315000D01*
X99775750Y-165315000D01*
X99617000Y-165473750D01*
X99363000Y-165473750D01*
X99204250Y-165315000D01*
X98613691Y-165315000D01*
X98380302Y-165411673D01*
X98220000Y-165571974D01*
X98059698Y-165411673D01*
X97826309Y-165315000D01*
X97235750Y-165315000D01*
X97077000Y-165473750D01*
X96823000Y-165473750D01*
X96664250Y-165315000D01*
X96073691Y-165315000D01*
X95840302Y-165411673D01*
X95680000Y-165571974D01*
X95519698Y-165411673D01*
X95286309Y-165315000D01*
X94695750Y-165315000D01*
X94537000Y-165473750D01*
X94283000Y-165473750D01*
X94124250Y-165315000D01*
X93533691Y-165315000D01*
X93300302Y-165411673D01*
X93140000Y-165571974D01*
X92979698Y-165411673D01*
X92746309Y-165315000D01*
X92155750Y-165315000D01*
X91997000Y-165473750D01*
X91743000Y-165473750D01*
X91584250Y-165315000D01*
X90993691Y-165315000D01*
X90760302Y-165411673D01*
X90600000Y-165571974D01*
X90439698Y-165411673D01*
X90206309Y-165315000D01*
X89615750Y-165315000D01*
X89457000Y-165473750D01*
X89203000Y-165473750D01*
X89044250Y-165315000D01*
X88453691Y-165315000D01*
X88220302Y-165411673D01*
X88060000Y-165571974D01*
X87899698Y-165411673D01*
X87666309Y-165315000D01*
X87075750Y-165315000D01*
X86917000Y-165473750D01*
X86663000Y-165473750D01*
X86504250Y-165315000D01*
X85913691Y-165315000D01*
X85680302Y-165411673D01*
X85501673Y-165590301D01*
X85405000Y-165823690D01*
X78507414Y-165823690D01*
X78835000Y-165032829D01*
X78835000Y-163507171D01*
X78251156Y-162097647D01*
X77498015Y-161344506D01*
X85405000Y-161344506D01*
X85405000Y-161895494D01*
X85615853Y-162404540D01*
X86005460Y-162794147D01*
X86514506Y-163005000D01*
X87065494Y-163005000D01*
X87574540Y-162794147D01*
X87964147Y-162404540D01*
X88060000Y-162173130D01*
X88155853Y-162404540D01*
X88545460Y-162794147D01*
X89054506Y-163005000D01*
X89605494Y-163005000D01*
X90114540Y-162794147D01*
X90504147Y-162404540D01*
X90600000Y-162173130D01*
X90695853Y-162404540D01*
X91085460Y-162794147D01*
X91594506Y-163005000D01*
X92145494Y-163005000D01*
X92654540Y-162794147D01*
X93044147Y-162404540D01*
X93140000Y-162173130D01*
X93235853Y-162404540D01*
X93625460Y-162794147D01*
X94134506Y-163005000D01*
X94685494Y-163005000D01*
X95194540Y-162794147D01*
X95584147Y-162404540D01*
X95680000Y-162173130D01*
X95775853Y-162404540D01*
X96165460Y-162794147D01*
X96674506Y-163005000D01*
X97225494Y-163005000D01*
X97734540Y-162794147D01*
X98124147Y-162404540D01*
X98220000Y-162173130D01*
X98315853Y-162404540D01*
X98705460Y-162794147D01*
X99214506Y-163005000D01*
X99765494Y-163005000D01*
X100274540Y-162794147D01*
X100664147Y-162404540D01*
X100875000Y-161895494D01*
X100875000Y-161344506D01*
X100664147Y-160835460D01*
X100274540Y-160445853D01*
X99765494Y-160235000D01*
X99214506Y-160235000D01*
X98705460Y-160445853D01*
X98315853Y-160835460D01*
X98220000Y-161066870D01*
X98124147Y-160835460D01*
X97734540Y-160445853D01*
X97225494Y-160235000D01*
X96674506Y-160235000D01*
X96165460Y-160445853D01*
X95775853Y-160835460D01*
X95680000Y-161066870D01*
X95584147Y-160835460D01*
X95194540Y-160445853D01*
X94685494Y-160235000D01*
X94134506Y-160235000D01*
X93625460Y-160445853D01*
X93235853Y-160835460D01*
X93140000Y-161066870D01*
X93044147Y-160835460D01*
X92654540Y-160445853D01*
X92145494Y-160235000D01*
X91594506Y-160235000D01*
X91085460Y-160445853D01*
X90695853Y-160835460D01*
X90600000Y-161066870D01*
X90504147Y-160835460D01*
X90114540Y-160445853D01*
X89605494Y-160235000D01*
X89054506Y-160235000D01*
X88545460Y-160445853D01*
X88155853Y-160835460D01*
X88060000Y-161066870D01*
X87964147Y-160835460D01*
X87574540Y-160445853D01*
X87065494Y-160235000D01*
X86514506Y-160235000D01*
X86005460Y-160445853D01*
X85615853Y-160835460D01*
X85405000Y-161344506D01*
X77498015Y-161344506D01*
X77172353Y-161018844D01*
X75762829Y-160435000D01*
X74237171Y-160435000D01*
X72827647Y-161018844D01*
X71748844Y-162097647D01*
X71735000Y-162131069D01*
X71735000Y-159098847D01*
X75140758Y-159098847D01*
X75228637Y-159356575D01*
X75806471Y-159568395D01*
X76421380Y-159542964D01*
X76871363Y-159356575D01*
X76959242Y-159098847D01*
X76050000Y-158189605D01*
X75140758Y-159098847D01*
X71735000Y-159098847D01*
X71735000Y-157766471D01*
X74491605Y-157766471D01*
X74517036Y-158381380D01*
X74703425Y-158831363D01*
X74961153Y-158919242D01*
X75870395Y-158010000D01*
X75856253Y-157995858D01*
X76035858Y-157816253D01*
X76050000Y-157830395D01*
X76064143Y-157816253D01*
X76243748Y-157995858D01*
X76229605Y-158010000D01*
X77138847Y-158919242D01*
X77396575Y-158831363D01*
X77608395Y-158253529D01*
X77582964Y-157638620D01*
X77396575Y-157188637D01*
X77138849Y-157100759D01*
X77253369Y-156986239D01*
X77182258Y-156915128D01*
X77369809Y-156789809D01*
X77510157Y-156579765D01*
X77559440Y-156332000D01*
X77559440Y-154608000D01*
X77510157Y-154360235D01*
X77369809Y-154150191D01*
X77159765Y-154009843D01*
X76912000Y-153960560D01*
X75188000Y-153960560D01*
X74940235Y-154009843D01*
X74730191Y-154150191D01*
X74589843Y-154360235D01*
X74540560Y-154608000D01*
X74540560Y-156332000D01*
X74589843Y-156579765D01*
X74730191Y-156789809D01*
X74917742Y-156915128D01*
X74846631Y-156986239D01*
X74961151Y-157100759D01*
X74703425Y-157188637D01*
X74491605Y-157766471D01*
X71735000Y-157766471D01*
X71735000Y-152756471D01*
X79721605Y-152756471D01*
X79747036Y-153371380D01*
X79933425Y-153821363D01*
X80191151Y-153909241D01*
X80076631Y-154023761D01*
X80147742Y-154094872D01*
X79960191Y-154220191D01*
X79819843Y-154430235D01*
X79770560Y-154678000D01*
X79770560Y-156402000D01*
X79819843Y-156649765D01*
X79960191Y-156859809D01*
X80170235Y-157000157D01*
X80418000Y-157049440D01*
X82142000Y-157049440D01*
X82389765Y-157000157D01*
X82586282Y-156868847D01*
X89400758Y-156868847D01*
X89488637Y-157126575D01*
X90066471Y-157338395D01*
X90681380Y-157312964D01*
X91131363Y-157126575D01*
X91219242Y-156868847D01*
X90310000Y-155959605D01*
X89400758Y-156868847D01*
X82586282Y-156868847D01*
X82599809Y-156859809D01*
X82740157Y-156649765D01*
X82789440Y-156402000D01*
X82789440Y-155536471D01*
X88751605Y-155536471D01*
X88777036Y-156151380D01*
X88963425Y-156601363D01*
X89221153Y-156689242D01*
X90130395Y-155780000D01*
X90116253Y-155765858D01*
X90295858Y-155586253D01*
X90310000Y-155600395D01*
X90324143Y-155586253D01*
X90503748Y-155765858D01*
X90489605Y-155780000D01*
X91398847Y-156689242D01*
X91656575Y-156601363D01*
X91868395Y-156023529D01*
X91842964Y-155408620D01*
X91656575Y-154958637D01*
X91398849Y-154870759D01*
X91513369Y-154756239D01*
X91442258Y-154685128D01*
X91629809Y-154559809D01*
X91770157Y-154349765D01*
X91819440Y-154102000D01*
X91819440Y-152756471D01*
X93981605Y-152756471D01*
X94007036Y-153371380D01*
X94193425Y-153821363D01*
X94451151Y-153909241D01*
X94336631Y-154023761D01*
X94407742Y-154094872D01*
X94220191Y-154220191D01*
X94079843Y-154430235D01*
X94030560Y-154678000D01*
X94030560Y-156402000D01*
X94079843Y-156649765D01*
X94220191Y-156859809D01*
X94430235Y-157000157D01*
X94678000Y-157049440D01*
X96402000Y-157049440D01*
X96649765Y-157000157D01*
X96859809Y-156859809D01*
X97000157Y-156649765D01*
X97049440Y-156402000D01*
X97049440Y-154678000D01*
X97000157Y-154430235D01*
X96859809Y-154220191D01*
X96672258Y-154094872D01*
X96743369Y-154023761D01*
X96628849Y-153909241D01*
X96886575Y-153821363D01*
X97098395Y-153243529D01*
X97072964Y-152628620D01*
X96886575Y-152178637D01*
X96628847Y-152090758D01*
X95719605Y-153000000D01*
X95733748Y-153014143D01*
X95554143Y-153193748D01*
X95540000Y-153179605D01*
X95525858Y-153193748D01*
X95346253Y-153014143D01*
X95360395Y-153000000D01*
X94451153Y-152090758D01*
X94193425Y-152178637D01*
X93981605Y-152756471D01*
X91819440Y-152756471D01*
X91819440Y-152378000D01*
X91770157Y-152130235D01*
X91629809Y-151920191D01*
X91616283Y-151911153D01*
X94630758Y-151911153D01*
X95540000Y-152820395D01*
X96449242Y-151911153D01*
X96361363Y-151653425D01*
X95783529Y-151441605D01*
X95168620Y-151467036D01*
X94718637Y-151653425D01*
X94630758Y-151911153D01*
X91616283Y-151911153D01*
X91419765Y-151779843D01*
X91172000Y-151730560D01*
X89448000Y-151730560D01*
X89200235Y-151779843D01*
X88990191Y-151920191D01*
X88849843Y-152130235D01*
X88800560Y-152378000D01*
X88800560Y-154102000D01*
X88849843Y-154349765D01*
X88990191Y-154559809D01*
X89177742Y-154685128D01*
X89106631Y-154756239D01*
X89221151Y-154870759D01*
X88963425Y-154958637D01*
X88751605Y-155536471D01*
X82789440Y-155536471D01*
X82789440Y-154678000D01*
X82740157Y-154430235D01*
X82599809Y-154220191D01*
X82412258Y-154094872D01*
X82483369Y-154023761D01*
X82368849Y-153909241D01*
X82626575Y-153821363D01*
X82838395Y-153243529D01*
X82812964Y-152628620D01*
X82626575Y-152178637D01*
X82368847Y-152090758D01*
X81459605Y-153000000D01*
X81473748Y-153014143D01*
X81294143Y-153193748D01*
X81280000Y-153179605D01*
X81265858Y-153193748D01*
X81086253Y-153014143D01*
X81100395Y-153000000D01*
X80191153Y-152090758D01*
X79933425Y-152178637D01*
X79721605Y-152756471D01*
X71735000Y-152756471D01*
X71735000Y-151588847D01*
X75140758Y-151588847D01*
X75228637Y-151846575D01*
X75806471Y-152058395D01*
X76421380Y-152032964D01*
X76715457Y-151911153D01*
X80370758Y-151911153D01*
X81280000Y-152820395D01*
X82189242Y-151911153D01*
X82101363Y-151653425D01*
X81523529Y-151441605D01*
X80908620Y-151467036D01*
X80458637Y-151653425D01*
X80370758Y-151911153D01*
X76715457Y-151911153D01*
X76871363Y-151846575D01*
X76959242Y-151588847D01*
X76050000Y-150679605D01*
X75140758Y-151588847D01*
X71735000Y-151588847D01*
X71735000Y-150256471D01*
X74491605Y-150256471D01*
X74517036Y-150871380D01*
X74703425Y-151321363D01*
X74961153Y-151409242D01*
X75870395Y-150500000D01*
X75856253Y-150485858D01*
X76035858Y-150306253D01*
X76050000Y-150320395D01*
X76064143Y-150306253D01*
X76243748Y-150485858D01*
X76229605Y-150500000D01*
X77138847Y-151409242D01*
X77396575Y-151321363D01*
X77608395Y-150743529D01*
X77582964Y-150128620D01*
X77396575Y-149678637D01*
X77138849Y-149590759D01*
X77253369Y-149476239D01*
X77182258Y-149405128D01*
X77369809Y-149279809D01*
X77510157Y-149069765D01*
X77559440Y-148822000D01*
X77559440Y-147098000D01*
X77510157Y-146850235D01*
X77369809Y-146640191D01*
X77159765Y-146499843D01*
X76912000Y-146450560D01*
X75188000Y-146450560D01*
X74940235Y-146499843D01*
X74730191Y-146640191D01*
X74589843Y-146850235D01*
X74540560Y-147098000D01*
X74540560Y-148822000D01*
X74589843Y-149069765D01*
X74730191Y-149279809D01*
X74917742Y-149405128D01*
X74846631Y-149476239D01*
X74961151Y-149590759D01*
X74703425Y-149678637D01*
X74491605Y-150256471D01*
X71735000Y-150256471D01*
X71735000Y-145246471D01*
X79721605Y-145246471D01*
X79747036Y-145861380D01*
X79933425Y-146311363D01*
X80191151Y-146399241D01*
X80076631Y-146513761D01*
X80147742Y-146584872D01*
X79960191Y-146710191D01*
X79819843Y-146920235D01*
X79770560Y-147168000D01*
X79770560Y-148892000D01*
X79819843Y-149139765D01*
X79960191Y-149349809D01*
X80170235Y-149490157D01*
X80418000Y-149539440D01*
X82142000Y-149539440D01*
X82389765Y-149490157D01*
X82586282Y-149358847D01*
X89390758Y-149358847D01*
X89478637Y-149616575D01*
X90056471Y-149828395D01*
X90671380Y-149802964D01*
X91121363Y-149616575D01*
X91209242Y-149358847D01*
X90300000Y-148449605D01*
X89390758Y-149358847D01*
X82586282Y-149358847D01*
X82599809Y-149349809D01*
X82740157Y-149139765D01*
X82789440Y-148892000D01*
X82789440Y-148026471D01*
X88741605Y-148026471D01*
X88767036Y-148641380D01*
X88953425Y-149091363D01*
X89211153Y-149179242D01*
X90120395Y-148270000D01*
X90106253Y-148255858D01*
X90285858Y-148076253D01*
X90300000Y-148090395D01*
X90314143Y-148076253D01*
X90493748Y-148255858D01*
X90479605Y-148270000D01*
X91388847Y-149179242D01*
X91646575Y-149091363D01*
X91858395Y-148513529D01*
X91832964Y-147898620D01*
X91646575Y-147448637D01*
X91388849Y-147360759D01*
X91503369Y-147246239D01*
X91432258Y-147175128D01*
X91619809Y-147049809D01*
X91760157Y-146839765D01*
X91809440Y-146592000D01*
X91809440Y-145246471D01*
X93981605Y-145246471D01*
X94007036Y-145861380D01*
X94193425Y-146311363D01*
X94451151Y-146399241D01*
X94336631Y-146513761D01*
X94407742Y-146584872D01*
X94220191Y-146710191D01*
X94079843Y-146920235D01*
X94030560Y-147168000D01*
X94030560Y-148892000D01*
X94079843Y-149139765D01*
X94220191Y-149349809D01*
X94430235Y-149490157D01*
X94678000Y-149539440D01*
X96402000Y-149539440D01*
X96649765Y-149490157D01*
X96859809Y-149349809D01*
X97000157Y-149139765D01*
X97049440Y-148892000D01*
X97049440Y-147168000D01*
X97000157Y-146920235D01*
X96859809Y-146710191D01*
X96672258Y-146584872D01*
X96743369Y-146513761D01*
X96628849Y-146399241D01*
X96886575Y-146311363D01*
X97098395Y-145733529D01*
X97072964Y-145118620D01*
X96886575Y-144668637D01*
X96628847Y-144580758D01*
X95719605Y-145490000D01*
X95733748Y-145504143D01*
X95554143Y-145683748D01*
X95540000Y-145669605D01*
X95525858Y-145683748D01*
X95346253Y-145504143D01*
X95360395Y-145490000D01*
X94451153Y-144580758D01*
X94193425Y-144668637D01*
X93981605Y-145246471D01*
X91809440Y-145246471D01*
X91809440Y-144868000D01*
X91760157Y-144620235D01*
X91619809Y-144410191D01*
X91606283Y-144401153D01*
X94630758Y-144401153D01*
X95540000Y-145310395D01*
X96449242Y-144401153D01*
X96361363Y-144143425D01*
X95783529Y-143931605D01*
X95168620Y-143957036D01*
X94718637Y-144143425D01*
X94630758Y-144401153D01*
X91606283Y-144401153D01*
X91409765Y-144269843D01*
X91162000Y-144220560D01*
X89438000Y-144220560D01*
X89190235Y-144269843D01*
X88980191Y-144410191D01*
X88839843Y-144620235D01*
X88790560Y-144868000D01*
X88790560Y-146592000D01*
X88839843Y-146839765D01*
X88980191Y-147049809D01*
X89167742Y-147175128D01*
X89096631Y-147246239D01*
X89211151Y-147360759D01*
X88953425Y-147448637D01*
X88741605Y-148026471D01*
X82789440Y-148026471D01*
X82789440Y-147168000D01*
X82740157Y-146920235D01*
X82599809Y-146710191D01*
X82412258Y-146584872D01*
X82483369Y-146513761D01*
X82368849Y-146399241D01*
X82626575Y-146311363D01*
X82838395Y-145733529D01*
X82812964Y-145118620D01*
X82626575Y-144668637D01*
X82368847Y-144580758D01*
X81459605Y-145490000D01*
X81473748Y-145504143D01*
X81294143Y-145683748D01*
X81280000Y-145669605D01*
X81265858Y-145683748D01*
X81086253Y-145504143D01*
X81100395Y-145490000D01*
X80191153Y-144580758D01*
X79933425Y-144668637D01*
X79721605Y-145246471D01*
X71735000Y-145246471D01*
X71735000Y-144078847D01*
X75140758Y-144078847D01*
X75228637Y-144336575D01*
X75806471Y-144548395D01*
X76421380Y-144522964D01*
X76715457Y-144401153D01*
X80370758Y-144401153D01*
X81280000Y-145310395D01*
X82189242Y-144401153D01*
X82101363Y-144143425D01*
X81523529Y-143931605D01*
X80908620Y-143957036D01*
X80458637Y-144143425D01*
X80370758Y-144401153D01*
X76715457Y-144401153D01*
X76871363Y-144336575D01*
X76959242Y-144078847D01*
X76050000Y-143169605D01*
X75140758Y-144078847D01*
X71735000Y-144078847D01*
X71735000Y-142746471D01*
X74491605Y-142746471D01*
X74517036Y-143361380D01*
X74703425Y-143811363D01*
X74961153Y-143899242D01*
X75870395Y-142990000D01*
X75856253Y-142975858D01*
X76035858Y-142796253D01*
X76050000Y-142810395D01*
X76064143Y-142796253D01*
X76243748Y-142975858D01*
X76229605Y-142990000D01*
X77138847Y-143899242D01*
X77396575Y-143811363D01*
X77608395Y-143233529D01*
X77582964Y-142618620D01*
X77396575Y-142168637D01*
X77138849Y-142080759D01*
X77253369Y-141966239D01*
X77182258Y-141895128D01*
X77369809Y-141769809D01*
X77510157Y-141559765D01*
X77559440Y-141312000D01*
X77559440Y-139588000D01*
X77510157Y-139340235D01*
X77369809Y-139130191D01*
X77159765Y-138989843D01*
X76912000Y-138940560D01*
X75188000Y-138940560D01*
X74940235Y-138989843D01*
X74730191Y-139130191D01*
X74589843Y-139340235D01*
X74540560Y-139588000D01*
X74540560Y-141312000D01*
X74589843Y-141559765D01*
X74730191Y-141769809D01*
X74917742Y-141895128D01*
X74846631Y-141966239D01*
X74961151Y-142080759D01*
X74703425Y-142168637D01*
X74491605Y-142746471D01*
X71735000Y-142746471D01*
X71735000Y-137736471D01*
X79721605Y-137736471D01*
X79747036Y-138351380D01*
X79933425Y-138801363D01*
X80191151Y-138889241D01*
X80076631Y-139003761D01*
X80147742Y-139074872D01*
X79960191Y-139200191D01*
X79819843Y-139410235D01*
X79770560Y-139658000D01*
X79770560Y-141382000D01*
X79819843Y-141629765D01*
X79960191Y-141839809D01*
X80170235Y-141980157D01*
X80418000Y-142029440D01*
X82142000Y-142029440D01*
X82389765Y-141980157D01*
X82586282Y-141848847D01*
X89390758Y-141848847D01*
X89478637Y-142106575D01*
X90056471Y-142318395D01*
X90671380Y-142292964D01*
X91121363Y-142106575D01*
X91209242Y-141848847D01*
X90300000Y-140939605D01*
X89390758Y-141848847D01*
X82586282Y-141848847D01*
X82599809Y-141839809D01*
X82740157Y-141629765D01*
X82789440Y-141382000D01*
X82789440Y-140516471D01*
X88741605Y-140516471D01*
X88767036Y-141131380D01*
X88953425Y-141581363D01*
X89211153Y-141669242D01*
X90120395Y-140760000D01*
X90106253Y-140745858D01*
X90285858Y-140566253D01*
X90300000Y-140580395D01*
X90314143Y-140566253D01*
X90493748Y-140745858D01*
X90479605Y-140760000D01*
X91388847Y-141669242D01*
X91646575Y-141581363D01*
X91858395Y-141003529D01*
X91832964Y-140388620D01*
X91646575Y-139938637D01*
X91388849Y-139850759D01*
X91503369Y-139736239D01*
X91432258Y-139665128D01*
X91619809Y-139539809D01*
X91760157Y-139329765D01*
X91809440Y-139082000D01*
X91809440Y-137736471D01*
X93981605Y-137736471D01*
X94007036Y-138351380D01*
X94193425Y-138801363D01*
X94451151Y-138889241D01*
X94336631Y-139003761D01*
X94407742Y-139074872D01*
X94220191Y-139200191D01*
X94079843Y-139410235D01*
X94030560Y-139658000D01*
X94030560Y-141382000D01*
X94079843Y-141629765D01*
X94220191Y-141839809D01*
X94430235Y-141980157D01*
X94678000Y-142029440D01*
X96402000Y-142029440D01*
X96649765Y-141980157D01*
X96859809Y-141839809D01*
X97000157Y-141629765D01*
X97049440Y-141382000D01*
X97049440Y-139658000D01*
X97000157Y-139410235D01*
X96859809Y-139200191D01*
X96672258Y-139074872D01*
X96743369Y-139003761D01*
X96628849Y-138889241D01*
X96886575Y-138801363D01*
X97098395Y-138223529D01*
X97072964Y-137608620D01*
X96886575Y-137158637D01*
X96628847Y-137070758D01*
X95719605Y-137980000D01*
X95733748Y-137994143D01*
X95554143Y-138173748D01*
X95540000Y-138159605D01*
X95525858Y-138173748D01*
X95346253Y-137994143D01*
X95360395Y-137980000D01*
X94451153Y-137070758D01*
X94193425Y-137158637D01*
X93981605Y-137736471D01*
X91809440Y-137736471D01*
X91809440Y-137358000D01*
X91760157Y-137110235D01*
X91619809Y-136900191D01*
X91606283Y-136891153D01*
X94630758Y-136891153D01*
X95540000Y-137800395D01*
X96449242Y-136891153D01*
X96361363Y-136633425D01*
X95783529Y-136421605D01*
X95168620Y-136447036D01*
X94718637Y-136633425D01*
X94630758Y-136891153D01*
X91606283Y-136891153D01*
X91409765Y-136759843D01*
X91162000Y-136710560D01*
X89438000Y-136710560D01*
X89190235Y-136759843D01*
X88980191Y-136900191D01*
X88839843Y-137110235D01*
X88790560Y-137358000D01*
X88790560Y-139082000D01*
X88839843Y-139329765D01*
X88980191Y-139539809D01*
X89167742Y-139665128D01*
X89096631Y-139736239D01*
X89211151Y-139850759D01*
X88953425Y-139938637D01*
X88741605Y-140516471D01*
X82789440Y-140516471D01*
X82789440Y-139658000D01*
X82740157Y-139410235D01*
X82599809Y-139200191D01*
X82412258Y-139074872D01*
X82483369Y-139003761D01*
X82368849Y-138889241D01*
X82626575Y-138801363D01*
X82838395Y-138223529D01*
X82812964Y-137608620D01*
X82626575Y-137158637D01*
X82368847Y-137070758D01*
X81459605Y-137980000D01*
X81473748Y-137994143D01*
X81294143Y-138173748D01*
X81280000Y-138159605D01*
X81265858Y-138173748D01*
X81086253Y-137994143D01*
X81100395Y-137980000D01*
X80191153Y-137070758D01*
X79933425Y-137158637D01*
X79721605Y-137736471D01*
X71735000Y-137736471D01*
X71735000Y-136568847D01*
X75140758Y-136568847D01*
X75228637Y-136826575D01*
X75806471Y-137038395D01*
X76421380Y-137012964D01*
X76715457Y-136891153D01*
X80370758Y-136891153D01*
X81280000Y-137800395D01*
X82189242Y-136891153D01*
X82101363Y-136633425D01*
X81523529Y-136421605D01*
X80908620Y-136447036D01*
X80458637Y-136633425D01*
X80370758Y-136891153D01*
X76715457Y-136891153D01*
X76871363Y-136826575D01*
X76959242Y-136568847D01*
X76050000Y-135659605D01*
X75140758Y-136568847D01*
X71735000Y-136568847D01*
X71735000Y-135236471D01*
X74491605Y-135236471D01*
X74517036Y-135851380D01*
X74703425Y-136301363D01*
X74961153Y-136389242D01*
X75870395Y-135480000D01*
X75856253Y-135465858D01*
X76035858Y-135286253D01*
X76050000Y-135300395D01*
X76064143Y-135286253D01*
X76243748Y-135465858D01*
X76229605Y-135480000D01*
X77138847Y-136389242D01*
X77396575Y-136301363D01*
X77608395Y-135723529D01*
X77582964Y-135108620D01*
X77396575Y-134658637D01*
X77138849Y-134570759D01*
X77253369Y-134456239D01*
X77182258Y-134385128D01*
X77369809Y-134259809D01*
X77510157Y-134049765D01*
X77559440Y-133802000D01*
X77559440Y-132078000D01*
X77510157Y-131830235D01*
X77369809Y-131620191D01*
X77159765Y-131479843D01*
X76912000Y-131430560D01*
X75188000Y-131430560D01*
X74940235Y-131479843D01*
X74730191Y-131620191D01*
X74589843Y-131830235D01*
X74540560Y-132078000D01*
X74540560Y-133802000D01*
X74589843Y-134049765D01*
X74730191Y-134259809D01*
X74917742Y-134385128D01*
X74846631Y-134456239D01*
X74961151Y-134570759D01*
X74703425Y-134658637D01*
X74491605Y-135236471D01*
X71735000Y-135236471D01*
X71735000Y-128658931D01*
X71748844Y-128692353D01*
X72827647Y-129771156D01*
X74237171Y-130355000D01*
X75762829Y-130355000D01*
X77172353Y-129771156D01*
X78251156Y-128692353D01*
X78835000Y-127282829D01*
X78835000Y-125757171D01*
X78251156Y-124347647D01*
X77172353Y-123268844D01*
X77138931Y-123255000D01*
X80655000Y-123255000D01*
X80655001Y-131857607D01*
X80655001Y-131857607D01*
G37*
X80655001Y-131857607D02*
X80640601Y-131930000D01*
X80697646Y-132216783D01*
X80860095Y-132459905D01*
X81103217Y-132622354D01*
X81317612Y-132665000D01*
X81390000Y-132679399D01*
X81462388Y-132665000D01*
X91217612Y-132665000D01*
X91290000Y-132679399D01*
X91362388Y-132665000D01*
X91576783Y-132622354D01*
X91819905Y-132459905D01*
X91982354Y-132216783D01*
X92039399Y-131930000D01*
X92025000Y-131857612D01*
X92025000Y-130226471D01*
X93981605Y-130226471D01*
X94007036Y-130841380D01*
X94193425Y-131291363D01*
X94451151Y-131379241D01*
X94336631Y-131493761D01*
X94407742Y-131564872D01*
X94220191Y-131690191D01*
X94079843Y-131900235D01*
X94030560Y-132148000D01*
X94030560Y-133872000D01*
X94079843Y-134119765D01*
X94220191Y-134329809D01*
X94430235Y-134470157D01*
X94678000Y-134519440D01*
X96402000Y-134519440D01*
X96649765Y-134470157D01*
X96859809Y-134329809D01*
X97000157Y-134119765D01*
X97049440Y-133872000D01*
X97049440Y-132148000D01*
X97000157Y-131900235D01*
X96859809Y-131690191D01*
X96672258Y-131564872D01*
X96743369Y-131493761D01*
X96628849Y-131379241D01*
X96886575Y-131291363D01*
X97098395Y-130713529D01*
X97072964Y-130098620D01*
X96886575Y-129648637D01*
X96628847Y-129560758D01*
X95719605Y-130470000D01*
X95733748Y-130484143D01*
X95554143Y-130663748D01*
X95540000Y-130649605D01*
X95525858Y-130663748D01*
X95346253Y-130484143D01*
X95360395Y-130470000D01*
X94451153Y-129560758D01*
X94193425Y-129648637D01*
X93981605Y-130226471D01*
X92025000Y-130226471D01*
X92025000Y-129381153D01*
X94630758Y-129381153D01*
X95540000Y-130290395D01*
X96449242Y-129381153D01*
X96361363Y-129123425D01*
X95783529Y-128911605D01*
X95168620Y-128937036D01*
X94718637Y-129123425D01*
X94630758Y-129381153D01*
X92025000Y-129381153D01*
X92025000Y-123255000D01*
X100316313Y-123255000D01*
X100315853Y-123255460D01*
X100105000Y-123764506D01*
X100105000Y-124315494D01*
X100315853Y-124824540D01*
X100705460Y-125214147D01*
X100936870Y-125310000D01*
X100705460Y-125405853D01*
X100315853Y-125795460D01*
X100105000Y-126304506D01*
X100105000Y-126855494D01*
X100315853Y-127364540D01*
X100705460Y-127754147D01*
X100936870Y-127850000D01*
X100705460Y-127945853D01*
X100315853Y-128335460D01*
X100105000Y-128844506D01*
X100105000Y-129395494D01*
X100315853Y-129904540D01*
X100705460Y-130294147D01*
X100936870Y-130390000D01*
X100705460Y-130485853D01*
X100315853Y-130875460D01*
X100105000Y-131384506D01*
X100105000Y-131935494D01*
X100315853Y-132444540D01*
X100705460Y-132834147D01*
X100936870Y-132930000D01*
X100705460Y-133025853D01*
X100315853Y-133415460D01*
X100105000Y-133924506D01*
X100105000Y-134475494D01*
X100315853Y-134984540D01*
X100705460Y-135374147D01*
X100936870Y-135470000D01*
X100705460Y-135565853D01*
X100315853Y-135955460D01*
X100105000Y-136464506D01*
X100105000Y-137015494D01*
X100315853Y-137524540D01*
X100705460Y-137914147D01*
X100936870Y-138010000D01*
X100705460Y-138105853D01*
X100315853Y-138495460D01*
X100105000Y-139004506D01*
X100105000Y-139555494D01*
X100315853Y-140064540D01*
X100705460Y-140454147D01*
X100936870Y-140550000D01*
X100705460Y-140645853D01*
X100315853Y-141035460D01*
X100105000Y-141544506D01*
X100105000Y-142095494D01*
X100315853Y-142604540D01*
X100705460Y-142994147D01*
X100936870Y-143090000D01*
X100705460Y-143185853D01*
X100315853Y-143575460D01*
X100105000Y-144084506D01*
X100105000Y-144635494D01*
X100315853Y-145144540D01*
X100705460Y-145534147D01*
X100936870Y-145630000D01*
X100705460Y-145725853D01*
X100315853Y-146115460D01*
X100105000Y-146624506D01*
X100105000Y-147175494D01*
X100315853Y-147684540D01*
X100705460Y-148074147D01*
X100936870Y-148170000D01*
X100705460Y-148265853D01*
X100315853Y-148655460D01*
X100105000Y-149164506D01*
X100105000Y-149715494D01*
X100315853Y-150224540D01*
X100705460Y-150614147D01*
X100936870Y-150710000D01*
X100705460Y-150805853D01*
X100315853Y-151195460D01*
X100105000Y-151704506D01*
X100105000Y-152255494D01*
X100315853Y-152764540D01*
X100705460Y-153154147D01*
X100936870Y-153250000D01*
X100705460Y-153345853D01*
X100315853Y-153735460D01*
X100105000Y-154244506D01*
X100105000Y-154795494D01*
X100315853Y-155304540D01*
X100705460Y-155694147D01*
X101214506Y-155905000D01*
X101765494Y-155905000D01*
X102274540Y-155694147D01*
X102664147Y-155304540D01*
X102870751Y-154805750D01*
X105185000Y-154805750D01*
X105185000Y-155396310D01*
X105281673Y-155629699D01*
X105460302Y-155808327D01*
X105693691Y-155905000D01*
X106284250Y-155905000D01*
X106443000Y-155746250D01*
X106443000Y-154647000D01*
X106697000Y-154647000D01*
X106697000Y-155746250D01*
X106855750Y-155905000D01*
X107446309Y-155905000D01*
X107679698Y-155808327D01*
X107858327Y-155629699D01*
X107955000Y-155396310D01*
X107955000Y-154826471D01*
X109301605Y-154826471D01*
X109327036Y-155441380D01*
X109513425Y-155891363D01*
X109771151Y-155979241D01*
X109656631Y-156093761D01*
X109727742Y-156164872D01*
X109540191Y-156290191D01*
X109399843Y-156500235D01*
X109350560Y-156748000D01*
X109350560Y-158472000D01*
X109399843Y-158719765D01*
X109540191Y-158929809D01*
X109750235Y-159070157D01*
X109998000Y-159119440D01*
X111722000Y-159119440D01*
X111969765Y-159070157D01*
X112179809Y-158929809D01*
X112320157Y-158719765D01*
X112369440Y-158472000D01*
X112369440Y-156748000D01*
X112320157Y-156500235D01*
X112179809Y-156290191D01*
X111992258Y-156164872D01*
X112063369Y-156093761D01*
X111948849Y-155979241D01*
X112206575Y-155891363D01*
X112418395Y-155313529D01*
X112392964Y-154698620D01*
X112206575Y-154248637D01*
X111948847Y-154160758D01*
X111039605Y-155070000D01*
X111053748Y-155084143D01*
X110874143Y-155263748D01*
X110860000Y-155249605D01*
X110845858Y-155263748D01*
X110666253Y-155084143D01*
X110680395Y-155070000D01*
X109771153Y-154160758D01*
X109513425Y-154248637D01*
X109301605Y-154826471D01*
X107955000Y-154826471D01*
X107955000Y-154805750D01*
X107796250Y-154647000D01*
X106697000Y-154647000D01*
X106443000Y-154647000D01*
X105343750Y-154647000D01*
X105185000Y-154805750D01*
X102870751Y-154805750D01*
X102875000Y-154795494D01*
X102875000Y-154244506D01*
X102664147Y-153735460D01*
X102274540Y-153345853D01*
X102043130Y-153250000D01*
X102274540Y-153154147D01*
X102664147Y-152764540D01*
X102870751Y-152265750D01*
X105185000Y-152265750D01*
X105185000Y-152856310D01*
X105281673Y-153089699D01*
X105441975Y-153250000D01*
X105281673Y-153410301D01*
X105185000Y-153643690D01*
X105185000Y-154234250D01*
X105343750Y-154393000D01*
X106443000Y-154393000D01*
X106443000Y-153293750D01*
X106399250Y-153250000D01*
X106443000Y-153206250D01*
X106443000Y-152107000D01*
X106697000Y-152107000D01*
X106697000Y-153206250D01*
X106740750Y-153250000D01*
X106697000Y-153293750D01*
X106697000Y-154393000D01*
X107796250Y-154393000D01*
X107955000Y-154234250D01*
X107955000Y-153981153D01*
X109950758Y-153981153D01*
X110860000Y-154890395D01*
X111769242Y-153981153D01*
X111681363Y-153723425D01*
X111103529Y-153511605D01*
X110488620Y-153537036D01*
X110038637Y-153723425D01*
X109950758Y-153981153D01*
X107955000Y-153981153D01*
X107955000Y-153643690D01*
X107858327Y-153410301D01*
X107698025Y-153250000D01*
X107858327Y-153089699D01*
X107955000Y-152856310D01*
X107955000Y-152265750D01*
X107796250Y-152107000D01*
X106697000Y-152107000D01*
X106443000Y-152107000D01*
X105343750Y-152107000D01*
X105185000Y-152265750D01*
X102870751Y-152265750D01*
X102875000Y-152255494D01*
X102875000Y-151704506D01*
X102664147Y-151195460D01*
X102274540Y-150805853D01*
X102043130Y-150710000D01*
X102274540Y-150614147D01*
X102664147Y-150224540D01*
X102870751Y-149725750D01*
X105185000Y-149725750D01*
X105185000Y-150316310D01*
X105281673Y-150549699D01*
X105441975Y-150710000D01*
X105281673Y-150870301D01*
X105185000Y-151103690D01*
X105185000Y-151694250D01*
X105343750Y-151853000D01*
X106443000Y-151853000D01*
X106443000Y-150753750D01*
X106399250Y-150710000D01*
X106443000Y-150666250D01*
X106443000Y-149567000D01*
X106697000Y-149567000D01*
X106697000Y-150666250D01*
X106740750Y-150710000D01*
X106697000Y-150753750D01*
X106697000Y-151853000D01*
X107796250Y-151853000D01*
X107955000Y-151694250D01*
X107955000Y-151103690D01*
X107858327Y-150870301D01*
X107698025Y-150710000D01*
X107858327Y-150549699D01*
X107955000Y-150316310D01*
X107955000Y-149725750D01*
X107796250Y-149567000D01*
X106697000Y-149567000D01*
X106443000Y-149567000D01*
X105343750Y-149567000D01*
X105185000Y-149725750D01*
X102870751Y-149725750D01*
X102875000Y-149715494D01*
X102875000Y-149164506D01*
X102664147Y-148655460D01*
X102274540Y-148265853D01*
X102043130Y-148170000D01*
X102274540Y-148074147D01*
X102664147Y-147684540D01*
X102870751Y-147185750D01*
X105185000Y-147185750D01*
X105185000Y-147776310D01*
X105281673Y-148009699D01*
X105441975Y-148170000D01*
X105281673Y-148330301D01*
X105185000Y-148563690D01*
X105185000Y-149154250D01*
X105343750Y-149313000D01*
X106443000Y-149313000D01*
X106443000Y-148213750D01*
X106399250Y-148170000D01*
X106443000Y-148126250D01*
X106443000Y-147027000D01*
X106697000Y-147027000D01*
X106697000Y-148126250D01*
X106740750Y-148170000D01*
X106697000Y-148213750D01*
X106697000Y-149313000D01*
X107796250Y-149313000D01*
X107955000Y-149154250D01*
X107955000Y-148563690D01*
X107858327Y-148330301D01*
X107698025Y-148170000D01*
X107858327Y-148009699D01*
X107955000Y-147776310D01*
X107955000Y-147316471D01*
X109301605Y-147316471D01*
X109327036Y-147931380D01*
X109513425Y-148381363D01*
X109771151Y-148469241D01*
X109656631Y-148583761D01*
X109727742Y-148654872D01*
X109540191Y-148780191D01*
X109399843Y-148990235D01*
X109350560Y-149238000D01*
X109350560Y-150962000D01*
X109399843Y-151209765D01*
X109540191Y-151419809D01*
X109750235Y-151560157D01*
X109998000Y-151609440D01*
X111722000Y-151609440D01*
X111969765Y-151560157D01*
X112179809Y-151419809D01*
X112320157Y-151209765D01*
X112369440Y-150962000D01*
X112369440Y-149238000D01*
X112320157Y-148990235D01*
X112179809Y-148780191D01*
X111992258Y-148654872D01*
X112063369Y-148583761D01*
X111948849Y-148469241D01*
X112206575Y-148381363D01*
X112418395Y-147803529D01*
X112392964Y-147188620D01*
X112206575Y-146738637D01*
X111948847Y-146650758D01*
X111039605Y-147560000D01*
X111053748Y-147574143D01*
X110874143Y-147753748D01*
X110860000Y-147739605D01*
X110845858Y-147753748D01*
X110666253Y-147574143D01*
X110680395Y-147560000D01*
X109771153Y-146650758D01*
X109513425Y-146738637D01*
X109301605Y-147316471D01*
X107955000Y-147316471D01*
X107955000Y-147185750D01*
X107796250Y-147027000D01*
X106697000Y-147027000D01*
X106443000Y-147027000D01*
X105343750Y-147027000D01*
X105185000Y-147185750D01*
X102870751Y-147185750D01*
X102875000Y-147175494D01*
X102875000Y-146624506D01*
X102664147Y-146115460D01*
X102274540Y-145725853D01*
X102043130Y-145630000D01*
X102274540Y-145534147D01*
X102664147Y-145144540D01*
X102870751Y-144645750D01*
X105185000Y-144645750D01*
X105185000Y-145236310D01*
X105281673Y-145469699D01*
X105441975Y-145630000D01*
X105281673Y-145790301D01*
X105185000Y-146023690D01*
X105185000Y-146614250D01*
X105343750Y-146773000D01*
X106443000Y-146773000D01*
X106443000Y-145673750D01*
X106399250Y-145630000D01*
X106443000Y-145586250D01*
X106443000Y-144487000D01*
X106697000Y-144487000D01*
X106697000Y-145586250D01*
X106740750Y-145630000D01*
X106697000Y-145673750D01*
X106697000Y-146773000D01*
X107796250Y-146773000D01*
X107955000Y-146614250D01*
X107955000Y-146471153D01*
X109950758Y-146471153D01*
X110860000Y-147380395D01*
X111769242Y-146471153D01*
X111681363Y-146213425D01*
X111103529Y-146001605D01*
X110488620Y-146027036D01*
X110038637Y-146213425D01*
X109950758Y-146471153D01*
X107955000Y-146471153D01*
X107955000Y-146023690D01*
X107858327Y-145790301D01*
X107698025Y-145630000D01*
X107858327Y-145469699D01*
X107955000Y-145236310D01*
X107955000Y-144645750D01*
X107796250Y-144487000D01*
X106697000Y-144487000D01*
X106443000Y-144487000D01*
X105343750Y-144487000D01*
X105185000Y-144645750D01*
X102870751Y-144645750D01*
X102875000Y-144635494D01*
X102875000Y-144084506D01*
X102664147Y-143575460D01*
X102274540Y-143185853D01*
X102043130Y-143090000D01*
X102274540Y-142994147D01*
X102664147Y-142604540D01*
X102870751Y-142105750D01*
X105185000Y-142105750D01*
X105185000Y-142696310D01*
X105281673Y-142929699D01*
X105441975Y-143090000D01*
X105281673Y-143250301D01*
X105185000Y-143483690D01*
X105185000Y-144074250D01*
X105343750Y-144233000D01*
X106443000Y-144233000D01*
X106443000Y-143133750D01*
X106399250Y-143090000D01*
X106443000Y-143046250D01*
X106443000Y-141947000D01*
X106697000Y-141947000D01*
X106697000Y-143046250D01*
X106740750Y-143090000D01*
X106697000Y-143133750D01*
X106697000Y-144233000D01*
X107796250Y-144233000D01*
X107955000Y-144074250D01*
X107955000Y-143483690D01*
X107858327Y-143250301D01*
X107698025Y-143090000D01*
X107858327Y-142929699D01*
X107955000Y-142696310D01*
X107955000Y-142105750D01*
X107796250Y-141947000D01*
X106697000Y-141947000D01*
X106443000Y-141947000D01*
X105343750Y-141947000D01*
X105185000Y-142105750D01*
X102870751Y-142105750D01*
X102875000Y-142095494D01*
X102875000Y-141544506D01*
X102664147Y-141035460D01*
X102274540Y-140645853D01*
X102043130Y-140550000D01*
X102274540Y-140454147D01*
X102664147Y-140064540D01*
X102870751Y-139565750D01*
X105185000Y-139565750D01*
X105185000Y-140156310D01*
X105281673Y-140389699D01*
X105441975Y-140550000D01*
X105281673Y-140710301D01*
X105185000Y-140943690D01*
X105185000Y-141534250D01*
X105343750Y-141693000D01*
X106443000Y-141693000D01*
X106443000Y-140593750D01*
X106399250Y-140550000D01*
X106443000Y-140506250D01*
X106443000Y-139407000D01*
X106697000Y-139407000D01*
X106697000Y-140506250D01*
X106740750Y-140550000D01*
X106697000Y-140593750D01*
X106697000Y-141693000D01*
X107796250Y-141693000D01*
X107955000Y-141534250D01*
X107955000Y-140943690D01*
X107858327Y-140710301D01*
X107698025Y-140550000D01*
X107858327Y-140389699D01*
X107955000Y-140156310D01*
X107955000Y-139806471D01*
X109301605Y-139806471D01*
X109327036Y-140421380D01*
X109513425Y-140871363D01*
X109771151Y-140959241D01*
X109656631Y-141073761D01*
X109727742Y-141144872D01*
X109540191Y-141270191D01*
X109399843Y-141480235D01*
X109350560Y-141728000D01*
X109350560Y-143452000D01*
X109399843Y-143699765D01*
X109540191Y-143909809D01*
X109750235Y-144050157D01*
X109998000Y-144099440D01*
X111722000Y-144099440D01*
X111969765Y-144050157D01*
X112179809Y-143909809D01*
X112320157Y-143699765D01*
X112369440Y-143452000D01*
X112369440Y-141728000D01*
X112320157Y-141480235D01*
X112179809Y-141270191D01*
X111992258Y-141144872D01*
X112063369Y-141073761D01*
X111948849Y-140959241D01*
X112206575Y-140871363D01*
X112418395Y-140293529D01*
X112392964Y-139678620D01*
X112206575Y-139228637D01*
X111948847Y-139140758D01*
X111039605Y-140050000D01*
X111053748Y-140064143D01*
X110874143Y-140243748D01*
X110860000Y-140229605D01*
X110845858Y-140243748D01*
X110666253Y-140064143D01*
X110680395Y-140050000D01*
X109771153Y-139140758D01*
X109513425Y-139228637D01*
X109301605Y-139806471D01*
X107955000Y-139806471D01*
X107955000Y-139565750D01*
X107796250Y-139407000D01*
X106697000Y-139407000D01*
X106443000Y-139407000D01*
X105343750Y-139407000D01*
X105185000Y-139565750D01*
X102870751Y-139565750D01*
X102875000Y-139555494D01*
X102875000Y-139004506D01*
X102664147Y-138495460D01*
X102274540Y-138105853D01*
X102043130Y-138010000D01*
X102274540Y-137914147D01*
X102664147Y-137524540D01*
X102870751Y-137025750D01*
X105185000Y-137025750D01*
X105185000Y-137616310D01*
X105281673Y-137849699D01*
X105441975Y-138010000D01*
X105281673Y-138170301D01*
X105185000Y-138403690D01*
X105185000Y-138994250D01*
X105343750Y-139153000D01*
X106443000Y-139153000D01*
X106443000Y-138053750D01*
X106399250Y-138010000D01*
X106443000Y-137966250D01*
X106443000Y-136867000D01*
X106697000Y-136867000D01*
X106697000Y-137966250D01*
X106740750Y-138010000D01*
X106697000Y-138053750D01*
X106697000Y-139153000D01*
X107796250Y-139153000D01*
X107955000Y-138994250D01*
X107955000Y-138961153D01*
X109950758Y-138961153D01*
X110860000Y-139870395D01*
X111769242Y-138961153D01*
X111681363Y-138703425D01*
X111103529Y-138491605D01*
X110488620Y-138517036D01*
X110038637Y-138703425D01*
X109950758Y-138961153D01*
X107955000Y-138961153D01*
X107955000Y-138403690D01*
X107858327Y-138170301D01*
X107698025Y-138010000D01*
X107858327Y-137849699D01*
X107955000Y-137616310D01*
X107955000Y-137025750D01*
X107796250Y-136867000D01*
X106697000Y-136867000D01*
X106443000Y-136867000D01*
X105343750Y-136867000D01*
X105185000Y-137025750D01*
X102870751Y-137025750D01*
X102875000Y-137015494D01*
X102875000Y-136464506D01*
X102664147Y-135955460D01*
X102274540Y-135565853D01*
X102043130Y-135470000D01*
X102274540Y-135374147D01*
X102664147Y-134984540D01*
X102870751Y-134485750D01*
X105185000Y-134485750D01*
X105185000Y-135076310D01*
X105281673Y-135309699D01*
X105441975Y-135470000D01*
X105281673Y-135630301D01*
X105185000Y-135863690D01*
X105185000Y-136454250D01*
X105343750Y-136613000D01*
X106443000Y-136613000D01*
X106443000Y-135513750D01*
X106399250Y-135470000D01*
X106443000Y-135426250D01*
X106443000Y-134327000D01*
X106697000Y-134327000D01*
X106697000Y-135426250D01*
X106740750Y-135470000D01*
X106697000Y-135513750D01*
X106697000Y-136613000D01*
X107796250Y-136613000D01*
X107955000Y-136454250D01*
X107955000Y-135863690D01*
X107858327Y-135630301D01*
X107698025Y-135470000D01*
X107858327Y-135309699D01*
X107955000Y-135076310D01*
X107955000Y-134485750D01*
X107796250Y-134327000D01*
X106697000Y-134327000D01*
X106443000Y-134327000D01*
X105343750Y-134327000D01*
X105185000Y-134485750D01*
X102870751Y-134485750D01*
X102875000Y-134475494D01*
X102875000Y-133924506D01*
X102664147Y-133415460D01*
X102274540Y-133025853D01*
X102043130Y-132930000D01*
X102274540Y-132834147D01*
X102664147Y-132444540D01*
X102870751Y-131945750D01*
X105185000Y-131945750D01*
X105185000Y-132536310D01*
X105281673Y-132769699D01*
X105441975Y-132930000D01*
X105281673Y-133090301D01*
X105185000Y-133323690D01*
X105185000Y-133914250D01*
X105343750Y-134073000D01*
X106443000Y-134073000D01*
X106443000Y-132973750D01*
X106399250Y-132930000D01*
X106443000Y-132886250D01*
X106443000Y-131787000D01*
X106697000Y-131787000D01*
X106697000Y-132886250D01*
X106740750Y-132930000D01*
X106697000Y-132973750D01*
X106697000Y-134073000D01*
X107796250Y-134073000D01*
X107955000Y-133914250D01*
X107955000Y-133323690D01*
X107858327Y-133090301D01*
X107698025Y-132930000D01*
X107858327Y-132769699D01*
X107955000Y-132536310D01*
X107955000Y-132296471D01*
X109301605Y-132296471D01*
X109327036Y-132911380D01*
X109513425Y-133361363D01*
X109771151Y-133449241D01*
X109656631Y-133563761D01*
X109727742Y-133634872D01*
X109540191Y-133760191D01*
X109399843Y-133970235D01*
X109350560Y-134218000D01*
X109350560Y-135942000D01*
X109399843Y-136189765D01*
X109540191Y-136399809D01*
X109750235Y-136540157D01*
X109998000Y-136589440D01*
X111722000Y-136589440D01*
X111969765Y-136540157D01*
X112179809Y-136399809D01*
X112320157Y-136189765D01*
X112369440Y-135942000D01*
X112369440Y-134218000D01*
X112320157Y-133970235D01*
X112179809Y-133760191D01*
X111992258Y-133634872D01*
X112063369Y-133563761D01*
X111948849Y-133449241D01*
X112206575Y-133361363D01*
X112418395Y-132783529D01*
X112392964Y-132168620D01*
X112206575Y-131718637D01*
X111948847Y-131630758D01*
X111039605Y-132540000D01*
X111053748Y-132554143D01*
X110874143Y-132733748D01*
X110860000Y-132719605D01*
X110845858Y-132733748D01*
X110666253Y-132554143D01*
X110680395Y-132540000D01*
X109771153Y-131630758D01*
X109513425Y-131718637D01*
X109301605Y-132296471D01*
X107955000Y-132296471D01*
X107955000Y-131945750D01*
X107796250Y-131787000D01*
X106697000Y-131787000D01*
X106443000Y-131787000D01*
X105343750Y-131787000D01*
X105185000Y-131945750D01*
X102870751Y-131945750D01*
X102875000Y-131935494D01*
X102875000Y-131384506D01*
X102664147Y-130875460D01*
X102274540Y-130485853D01*
X102043130Y-130390000D01*
X102274540Y-130294147D01*
X102664147Y-129904540D01*
X102870751Y-129405750D01*
X105185000Y-129405750D01*
X105185000Y-129996310D01*
X105281673Y-130229699D01*
X105441975Y-130390000D01*
X105281673Y-130550301D01*
X105185000Y-130783690D01*
X105185000Y-131374250D01*
X105343750Y-131533000D01*
X106443000Y-131533000D01*
X106443000Y-130433750D01*
X106399250Y-130390000D01*
X106443000Y-130346250D01*
X106443000Y-129247000D01*
X106697000Y-129247000D01*
X106697000Y-130346250D01*
X106740750Y-130390000D01*
X106697000Y-130433750D01*
X106697000Y-131533000D01*
X107796250Y-131533000D01*
X107878097Y-131451153D01*
X109950758Y-131451153D01*
X110860000Y-132360395D01*
X111769242Y-131451153D01*
X111681363Y-131193425D01*
X111103529Y-130981605D01*
X110488620Y-131007036D01*
X110038637Y-131193425D01*
X109950758Y-131451153D01*
X107878097Y-131451153D01*
X107955000Y-131374250D01*
X107955000Y-130783690D01*
X107858327Y-130550301D01*
X107698025Y-130390000D01*
X107858327Y-130229699D01*
X107955000Y-129996310D01*
X107955000Y-129405750D01*
X107796250Y-129247000D01*
X106697000Y-129247000D01*
X106443000Y-129247000D01*
X105343750Y-129247000D01*
X105185000Y-129405750D01*
X102870751Y-129405750D01*
X102875000Y-129395494D01*
X102875000Y-128844506D01*
X102664147Y-128335460D01*
X102274540Y-127945853D01*
X102043130Y-127850000D01*
X102274540Y-127754147D01*
X102664147Y-127364540D01*
X102870751Y-126865750D01*
X105185000Y-126865750D01*
X105185000Y-127456310D01*
X105281673Y-127689699D01*
X105441975Y-127850000D01*
X105281673Y-128010301D01*
X105185000Y-128243690D01*
X105185000Y-128834250D01*
X105343750Y-128993000D01*
X106443000Y-128993000D01*
X106443000Y-127893750D01*
X106399250Y-127850000D01*
X106443000Y-127806250D01*
X106443000Y-126707000D01*
X106697000Y-126707000D01*
X106697000Y-127806250D01*
X106740750Y-127850000D01*
X106697000Y-127893750D01*
X106697000Y-128993000D01*
X107796250Y-128993000D01*
X107955000Y-128834250D01*
X107955000Y-128243690D01*
X107858327Y-128010301D01*
X107698025Y-127850000D01*
X107858327Y-127689699D01*
X107955000Y-127456310D01*
X107955000Y-126865750D01*
X107796250Y-126707000D01*
X106697000Y-126707000D01*
X106443000Y-126707000D01*
X105343750Y-126707000D01*
X105185000Y-126865750D01*
X102870751Y-126865750D01*
X102875000Y-126855494D01*
X102875000Y-126304506D01*
X102664147Y-125795460D01*
X102274540Y-125405853D01*
X102043130Y-125310000D01*
X102274540Y-125214147D01*
X102664147Y-124824540D01*
X102870751Y-124325750D01*
X105185000Y-124325750D01*
X105185000Y-124916310D01*
X105281673Y-125149699D01*
X105441975Y-125310000D01*
X105281673Y-125470301D01*
X105185000Y-125703690D01*
X105185000Y-126294250D01*
X105343750Y-126453000D01*
X106443000Y-126453000D01*
X106443000Y-125353750D01*
X106399250Y-125310000D01*
X106443000Y-125266250D01*
X106443000Y-124167000D01*
X106697000Y-124167000D01*
X106697000Y-125266250D01*
X106740750Y-125310000D01*
X106697000Y-125353750D01*
X106697000Y-126453000D01*
X107796250Y-126453000D01*
X107955000Y-126294250D01*
X107955000Y-125703690D01*
X107858327Y-125470301D01*
X107698025Y-125310000D01*
X107858327Y-125149699D01*
X107955000Y-124916310D01*
X107955000Y-124325750D01*
X107796250Y-124167000D01*
X106697000Y-124167000D01*
X106443000Y-124167000D01*
X105343750Y-124167000D01*
X105185000Y-124325750D01*
X102870751Y-124325750D01*
X102875000Y-124315494D01*
X102875000Y-123764506D01*
X102664147Y-123255460D01*
X102663687Y-123255000D01*
X105185000Y-123255000D01*
X105185000Y-123754250D01*
X105343750Y-123913000D01*
X106443000Y-123913000D01*
X106443000Y-123893000D01*
X106697000Y-123893000D01*
X106697000Y-123913000D01*
X107796250Y-123913000D01*
X107955000Y-123754250D01*
X107955000Y-123255000D01*
X109781069Y-123255000D01*
X109747647Y-123268844D01*
X108668844Y-124347647D01*
X108085000Y-125757171D01*
X108085000Y-127282829D01*
X108668844Y-128692353D01*
X109747647Y-129771156D01*
X111157171Y-130355000D01*
X112682829Y-130355000D01*
X114092353Y-129771156D01*
X115171156Y-128692353D01*
X115185000Y-128658931D01*
X115185001Y-162131072D01*
X115171156Y-162097647D01*
X114092353Y-161018844D01*
X112682829Y-160435000D01*
X111157171Y-160435000D01*
X109747647Y-161018844D01*
X108668844Y-162097647D01*
X108085000Y-163507171D01*
X108085000Y-165032829D01*
X108668844Y-166442353D01*
X109747647Y-167521156D01*
X109781069Y-167535000D01*
X100875000Y-167535000D01*
X100875000Y-166985750D01*
X100716250Y-166827000D01*
X99617000Y-166827000D01*
X99617000Y-166847000D01*
X99363000Y-166847000D01*
X99363000Y-166827000D01*
X98263750Y-166827000D01*
X98220000Y-166870750D01*
X98176250Y-166827000D01*
X97077000Y-166827000D01*
X97077000Y-166847000D01*
X96823000Y-166847000D01*
X96823000Y-166827000D01*
X95723750Y-166827000D01*
X95680000Y-166870750D01*
X95636250Y-166827000D01*
X94537000Y-166827000D01*
X94537000Y-166847000D01*
X94283000Y-166847000D01*
X94283000Y-166827000D01*
X93183750Y-166827000D01*
X93140000Y-166870750D01*
X93096250Y-166827000D01*
X91997000Y-166827000D01*
X91997000Y-166847000D01*
X91743000Y-166847000D01*
X91743000Y-166827000D01*
X90643750Y-166827000D01*
X90600000Y-166870750D01*
X90556250Y-166827000D01*
X89457000Y-166827000D01*
X89457000Y-166847000D01*
X89203000Y-166847000D01*
X89203000Y-166827000D01*
X88103750Y-166827000D01*
X88060000Y-166870750D01*
X88016250Y-166827000D01*
X86917000Y-166827000D01*
X86917000Y-166847000D01*
X86663000Y-166847000D01*
X86663000Y-166827000D01*
X85563750Y-166827000D01*
X85405000Y-166985750D01*
X85405000Y-167535000D01*
X77138931Y-167535000D01*
X77172353Y-167521156D01*
X78251156Y-166442353D01*
X78507414Y-165823690D01*
X85405000Y-165823690D01*
X85405000Y-166414250D01*
X85563750Y-166573000D01*
X86663000Y-166573000D01*
X86663000Y-165473750D01*
X86917000Y-165473750D01*
X86917000Y-166573000D01*
X88016250Y-166573000D01*
X88060000Y-166529250D01*
X88103750Y-166573000D01*
X89203000Y-166573000D01*
X89203000Y-165473750D01*
X89457000Y-165473750D01*
X89457000Y-166573000D01*
X90556250Y-166573000D01*
X90600000Y-166529250D01*
X90643750Y-166573000D01*
X91743000Y-166573000D01*
X91743000Y-165473750D01*
X91997000Y-165473750D01*
X91997000Y-166573000D01*
X93096250Y-166573000D01*
X93140000Y-166529250D01*
X93183750Y-166573000D01*
X94283000Y-166573000D01*
X94283000Y-165473750D01*
X94537000Y-165473750D01*
X94537000Y-166573000D01*
X95636250Y-166573000D01*
X95680000Y-166529250D01*
X95723750Y-166573000D01*
X96823000Y-166573000D01*
X96823000Y-165473750D01*
X97077000Y-165473750D01*
X97077000Y-166573000D01*
X98176250Y-166573000D01*
X98220000Y-166529250D01*
X98263750Y-166573000D01*
X99363000Y-166573000D01*
X99363000Y-165473750D01*
X99617000Y-165473750D01*
X99617000Y-166573000D01*
X100716250Y-166573000D01*
X100875000Y-166414250D01*
X100875000Y-165823690D01*
X100778327Y-165590301D01*
X100599698Y-165411673D01*
X100366309Y-165315000D01*
X99775750Y-165315000D01*
X99617000Y-165473750D01*
X99363000Y-165473750D01*
X99204250Y-165315000D01*
X98613691Y-165315000D01*
X98380302Y-165411673D01*
X98220000Y-165571974D01*
X98059698Y-165411673D01*
X97826309Y-165315000D01*
X97235750Y-165315000D01*
X97077000Y-165473750D01*
X96823000Y-165473750D01*
X96664250Y-165315000D01*
X96073691Y-165315000D01*
X95840302Y-165411673D01*
X95680000Y-165571974D01*
X95519698Y-165411673D01*
X95286309Y-165315000D01*
X94695750Y-165315000D01*
X94537000Y-165473750D01*
X94283000Y-165473750D01*
X94124250Y-165315000D01*
X93533691Y-165315000D01*
X93300302Y-165411673D01*
X93140000Y-165571974D01*
X92979698Y-165411673D01*
X92746309Y-165315000D01*
X92155750Y-165315000D01*
X91997000Y-165473750D01*
X91743000Y-165473750D01*
X91584250Y-165315000D01*
X90993691Y-165315000D01*
X90760302Y-165411673D01*
X90600000Y-165571974D01*
X90439698Y-165411673D01*
X90206309Y-165315000D01*
X89615750Y-165315000D01*
X89457000Y-165473750D01*
X89203000Y-165473750D01*
X89044250Y-165315000D01*
X88453691Y-165315000D01*
X88220302Y-165411673D01*
X88060000Y-165571974D01*
X87899698Y-165411673D01*
X87666309Y-165315000D01*
X87075750Y-165315000D01*
X86917000Y-165473750D01*
X86663000Y-165473750D01*
X86504250Y-165315000D01*
X85913691Y-165315000D01*
X85680302Y-165411673D01*
X85501673Y-165590301D01*
X85405000Y-165823690D01*
X78507414Y-165823690D01*
X78835000Y-165032829D01*
X78835000Y-163507171D01*
X78251156Y-162097647D01*
X77498015Y-161344506D01*
X85405000Y-161344506D01*
X85405000Y-161895494D01*
X85615853Y-162404540D01*
X86005460Y-162794147D01*
X86514506Y-163005000D01*
X87065494Y-163005000D01*
X87574540Y-162794147D01*
X87964147Y-162404540D01*
X88060000Y-162173130D01*
X88155853Y-162404540D01*
X88545460Y-162794147D01*
X89054506Y-163005000D01*
X89605494Y-163005000D01*
X90114540Y-162794147D01*
X90504147Y-162404540D01*
X90600000Y-162173130D01*
X90695853Y-162404540D01*
X91085460Y-162794147D01*
X91594506Y-163005000D01*
X92145494Y-163005000D01*
X92654540Y-162794147D01*
X93044147Y-162404540D01*
X93140000Y-162173130D01*
X93235853Y-162404540D01*
X93625460Y-162794147D01*
X94134506Y-163005000D01*
X94685494Y-163005000D01*
X95194540Y-162794147D01*
X95584147Y-162404540D01*
X95680000Y-162173130D01*
X95775853Y-162404540D01*
X96165460Y-162794147D01*
X96674506Y-163005000D01*
X97225494Y-163005000D01*
X97734540Y-162794147D01*
X98124147Y-162404540D01*
X98220000Y-162173130D01*
X98315853Y-162404540D01*
X98705460Y-162794147D01*
X99214506Y-163005000D01*
X99765494Y-163005000D01*
X100274540Y-162794147D01*
X100664147Y-162404540D01*
X100875000Y-161895494D01*
X100875000Y-161344506D01*
X100664147Y-160835460D01*
X100274540Y-160445853D01*
X99765494Y-160235000D01*
X99214506Y-160235000D01*
X98705460Y-160445853D01*
X98315853Y-160835460D01*
X98220000Y-161066870D01*
X98124147Y-160835460D01*
X97734540Y-160445853D01*
X97225494Y-160235000D01*
X96674506Y-160235000D01*
X96165460Y-160445853D01*
X95775853Y-160835460D01*
X95680000Y-161066870D01*
X95584147Y-160835460D01*
X95194540Y-160445853D01*
X94685494Y-160235000D01*
X94134506Y-160235000D01*
X93625460Y-160445853D01*
X93235853Y-160835460D01*
X93140000Y-161066870D01*
X93044147Y-160835460D01*
X92654540Y-160445853D01*
X92145494Y-160235000D01*
X91594506Y-160235000D01*
X91085460Y-160445853D01*
X90695853Y-160835460D01*
X90600000Y-161066870D01*
X90504147Y-160835460D01*
X90114540Y-160445853D01*
X89605494Y-160235000D01*
X89054506Y-160235000D01*
X88545460Y-160445853D01*
X88155853Y-160835460D01*
X88060000Y-161066870D01*
X87964147Y-160835460D01*
X87574540Y-160445853D01*
X87065494Y-160235000D01*
X86514506Y-160235000D01*
X86005460Y-160445853D01*
X85615853Y-160835460D01*
X85405000Y-161344506D01*
X77498015Y-161344506D01*
X77172353Y-161018844D01*
X75762829Y-160435000D01*
X74237171Y-160435000D01*
X72827647Y-161018844D01*
X71748844Y-162097647D01*
X71735000Y-162131069D01*
X71735000Y-159098847D01*
X75140758Y-159098847D01*
X75228637Y-159356575D01*
X75806471Y-159568395D01*
X76421380Y-159542964D01*
X76871363Y-159356575D01*
X76959242Y-159098847D01*
X76050000Y-158189605D01*
X75140758Y-159098847D01*
X71735000Y-159098847D01*
X71735000Y-157766471D01*
X74491605Y-157766471D01*
X74517036Y-158381380D01*
X74703425Y-158831363D01*
X74961153Y-158919242D01*
X75870395Y-158010000D01*
X75856253Y-157995858D01*
X76035858Y-157816253D01*
X76050000Y-157830395D01*
X76064143Y-157816253D01*
X76243748Y-157995858D01*
X76229605Y-158010000D01*
X77138847Y-158919242D01*
X77396575Y-158831363D01*
X77608395Y-158253529D01*
X77582964Y-157638620D01*
X77396575Y-157188637D01*
X77138849Y-157100759D01*
X77253369Y-156986239D01*
X77182258Y-156915128D01*
X77369809Y-156789809D01*
X77510157Y-156579765D01*
X77559440Y-156332000D01*
X77559440Y-154608000D01*
X77510157Y-154360235D01*
X77369809Y-154150191D01*
X77159765Y-154009843D01*
X76912000Y-153960560D01*
X75188000Y-153960560D01*
X74940235Y-154009843D01*
X74730191Y-154150191D01*
X74589843Y-154360235D01*
X74540560Y-154608000D01*
X74540560Y-156332000D01*
X74589843Y-156579765D01*
X74730191Y-156789809D01*
X74917742Y-156915128D01*
X74846631Y-156986239D01*
X74961151Y-157100759D01*
X74703425Y-157188637D01*
X74491605Y-157766471D01*
X71735000Y-157766471D01*
X71735000Y-152756471D01*
X79721605Y-152756471D01*
X79747036Y-153371380D01*
X79933425Y-153821363D01*
X80191151Y-153909241D01*
X80076631Y-154023761D01*
X80147742Y-154094872D01*
X79960191Y-154220191D01*
X79819843Y-154430235D01*
X79770560Y-154678000D01*
X79770560Y-156402000D01*
X79819843Y-156649765D01*
X79960191Y-156859809D01*
X80170235Y-157000157D01*
X80418000Y-157049440D01*
X82142000Y-157049440D01*
X82389765Y-157000157D01*
X82586282Y-156868847D01*
X89400758Y-156868847D01*
X89488637Y-157126575D01*
X90066471Y-157338395D01*
X90681380Y-157312964D01*
X91131363Y-157126575D01*
X91219242Y-156868847D01*
X90310000Y-155959605D01*
X89400758Y-156868847D01*
X82586282Y-156868847D01*
X82599809Y-156859809D01*
X82740157Y-156649765D01*
X82789440Y-156402000D01*
X82789440Y-155536471D01*
X88751605Y-155536471D01*
X88777036Y-156151380D01*
X88963425Y-156601363D01*
X89221153Y-156689242D01*
X90130395Y-155780000D01*
X90116253Y-155765858D01*
X90295858Y-155586253D01*
X90310000Y-155600395D01*
X90324143Y-155586253D01*
X90503748Y-155765858D01*
X90489605Y-155780000D01*
X91398847Y-156689242D01*
X91656575Y-156601363D01*
X91868395Y-156023529D01*
X91842964Y-155408620D01*
X91656575Y-154958637D01*
X91398849Y-154870759D01*
X91513369Y-154756239D01*
X91442258Y-154685128D01*
X91629809Y-154559809D01*
X91770157Y-154349765D01*
X91819440Y-154102000D01*
X91819440Y-152756471D01*
X93981605Y-152756471D01*
X94007036Y-153371380D01*
X94193425Y-153821363D01*
X94451151Y-153909241D01*
X94336631Y-154023761D01*
X94407742Y-154094872D01*
X94220191Y-154220191D01*
X94079843Y-154430235D01*
X94030560Y-154678000D01*
X94030560Y-156402000D01*
X94079843Y-156649765D01*
X94220191Y-156859809D01*
X94430235Y-157000157D01*
X94678000Y-157049440D01*
X96402000Y-157049440D01*
X96649765Y-157000157D01*
X96859809Y-156859809D01*
X97000157Y-156649765D01*
X97049440Y-156402000D01*
X97049440Y-154678000D01*
X97000157Y-154430235D01*
X96859809Y-154220191D01*
X96672258Y-154094872D01*
X96743369Y-154023761D01*
X96628849Y-153909241D01*
X96886575Y-153821363D01*
X97098395Y-153243529D01*
X97072964Y-152628620D01*
X96886575Y-152178637D01*
X96628847Y-152090758D01*
X95719605Y-153000000D01*
X95733748Y-153014143D01*
X95554143Y-153193748D01*
X95540000Y-153179605D01*
X95525858Y-153193748D01*
X95346253Y-153014143D01*
X95360395Y-153000000D01*
X94451153Y-152090758D01*
X94193425Y-152178637D01*
X93981605Y-152756471D01*
X91819440Y-152756471D01*
X91819440Y-152378000D01*
X91770157Y-152130235D01*
X91629809Y-151920191D01*
X91616283Y-151911153D01*
X94630758Y-151911153D01*
X95540000Y-152820395D01*
X96449242Y-151911153D01*
X96361363Y-151653425D01*
X95783529Y-151441605D01*
X95168620Y-151467036D01*
X94718637Y-151653425D01*
X94630758Y-151911153D01*
X91616283Y-151911153D01*
X91419765Y-151779843D01*
X91172000Y-151730560D01*
X89448000Y-151730560D01*
X89200235Y-151779843D01*
X88990191Y-151920191D01*
X88849843Y-152130235D01*
X88800560Y-152378000D01*
X88800560Y-154102000D01*
X88849843Y-154349765D01*
X88990191Y-154559809D01*
X89177742Y-154685128D01*
X89106631Y-154756239D01*
X89221151Y-154870759D01*
X88963425Y-154958637D01*
X88751605Y-155536471D01*
X82789440Y-155536471D01*
X82789440Y-154678000D01*
X82740157Y-154430235D01*
X82599809Y-154220191D01*
X82412258Y-154094872D01*
X82483369Y-154023761D01*
X82368849Y-153909241D01*
X82626575Y-153821363D01*
X82838395Y-153243529D01*
X82812964Y-152628620D01*
X82626575Y-152178637D01*
X82368847Y-152090758D01*
X81459605Y-153000000D01*
X81473748Y-153014143D01*
X81294143Y-153193748D01*
X81280000Y-153179605D01*
X81265858Y-153193748D01*
X81086253Y-153014143D01*
X81100395Y-153000000D01*
X80191153Y-152090758D01*
X79933425Y-152178637D01*
X79721605Y-152756471D01*
X71735000Y-152756471D01*
X71735000Y-151588847D01*
X75140758Y-151588847D01*
X75228637Y-151846575D01*
X75806471Y-152058395D01*
X76421380Y-152032964D01*
X76715457Y-151911153D01*
X80370758Y-151911153D01*
X81280000Y-152820395D01*
X82189242Y-151911153D01*
X82101363Y-151653425D01*
X81523529Y-151441605D01*
X80908620Y-151467036D01*
X80458637Y-151653425D01*
X80370758Y-151911153D01*
X76715457Y-151911153D01*
X76871363Y-151846575D01*
X76959242Y-151588847D01*
X76050000Y-150679605D01*
X75140758Y-151588847D01*
X71735000Y-151588847D01*
X71735000Y-150256471D01*
X74491605Y-150256471D01*
X74517036Y-150871380D01*
X74703425Y-151321363D01*
X74961153Y-151409242D01*
X75870395Y-150500000D01*
X75856253Y-150485858D01*
X76035858Y-150306253D01*
X76050000Y-150320395D01*
X76064143Y-150306253D01*
X76243748Y-150485858D01*
X76229605Y-150500000D01*
X77138847Y-151409242D01*
X77396575Y-151321363D01*
X77608395Y-150743529D01*
X77582964Y-150128620D01*
X77396575Y-149678637D01*
X77138849Y-149590759D01*
X77253369Y-149476239D01*
X77182258Y-149405128D01*
X77369809Y-149279809D01*
X77510157Y-149069765D01*
X77559440Y-148822000D01*
X77559440Y-147098000D01*
X77510157Y-146850235D01*
X77369809Y-146640191D01*
X77159765Y-146499843D01*
X76912000Y-146450560D01*
X75188000Y-146450560D01*
X74940235Y-146499843D01*
X74730191Y-146640191D01*
X74589843Y-146850235D01*
X74540560Y-147098000D01*
X74540560Y-148822000D01*
X74589843Y-149069765D01*
X74730191Y-149279809D01*
X74917742Y-149405128D01*
X74846631Y-149476239D01*
X74961151Y-149590759D01*
X74703425Y-149678637D01*
X74491605Y-150256471D01*
X71735000Y-150256471D01*
X71735000Y-145246471D01*
X79721605Y-145246471D01*
X79747036Y-145861380D01*
X79933425Y-146311363D01*
X80191151Y-146399241D01*
X80076631Y-146513761D01*
X80147742Y-146584872D01*
X79960191Y-146710191D01*
X79819843Y-146920235D01*
X79770560Y-147168000D01*
X79770560Y-148892000D01*
X79819843Y-149139765D01*
X79960191Y-149349809D01*
X80170235Y-149490157D01*
X80418000Y-149539440D01*
X82142000Y-149539440D01*
X82389765Y-149490157D01*
X82586282Y-149358847D01*
X89390758Y-149358847D01*
X89478637Y-149616575D01*
X90056471Y-149828395D01*
X90671380Y-149802964D01*
X91121363Y-149616575D01*
X91209242Y-149358847D01*
X90300000Y-148449605D01*
X89390758Y-149358847D01*
X82586282Y-149358847D01*
X82599809Y-149349809D01*
X82740157Y-149139765D01*
X82789440Y-148892000D01*
X82789440Y-148026471D01*
X88741605Y-148026471D01*
X88767036Y-148641380D01*
X88953425Y-149091363D01*
X89211153Y-149179242D01*
X90120395Y-148270000D01*
X90106253Y-148255858D01*
X90285858Y-148076253D01*
X90300000Y-148090395D01*
X90314143Y-148076253D01*
X90493748Y-148255858D01*
X90479605Y-148270000D01*
X91388847Y-149179242D01*
X91646575Y-149091363D01*
X91858395Y-148513529D01*
X91832964Y-147898620D01*
X91646575Y-147448637D01*
X91388849Y-147360759D01*
X91503369Y-147246239D01*
X91432258Y-147175128D01*
X91619809Y-147049809D01*
X91760157Y-146839765D01*
X91809440Y-146592000D01*
X91809440Y-145246471D01*
X93981605Y-145246471D01*
X94007036Y-145861380D01*
X94193425Y-146311363D01*
X94451151Y-146399241D01*
X94336631Y-146513761D01*
X94407742Y-146584872D01*
X94220191Y-146710191D01*
X94079843Y-146920235D01*
X94030560Y-147168000D01*
X94030560Y-148892000D01*
X94079843Y-149139765D01*
X94220191Y-149349809D01*
X94430235Y-149490157D01*
X94678000Y-149539440D01*
X96402000Y-149539440D01*
X96649765Y-149490157D01*
X96859809Y-149349809D01*
X97000157Y-149139765D01*
X97049440Y-148892000D01*
X97049440Y-147168000D01*
X97000157Y-146920235D01*
X96859809Y-146710191D01*
X96672258Y-146584872D01*
X96743369Y-146513761D01*
X96628849Y-146399241D01*
X96886575Y-146311363D01*
X97098395Y-145733529D01*
X97072964Y-145118620D01*
X96886575Y-144668637D01*
X96628847Y-144580758D01*
X95719605Y-145490000D01*
X95733748Y-145504143D01*
X95554143Y-145683748D01*
X95540000Y-145669605D01*
X95525858Y-145683748D01*
X95346253Y-145504143D01*
X95360395Y-145490000D01*
X94451153Y-144580758D01*
X94193425Y-144668637D01*
X93981605Y-145246471D01*
X91809440Y-145246471D01*
X91809440Y-144868000D01*
X91760157Y-144620235D01*
X91619809Y-144410191D01*
X91606283Y-144401153D01*
X94630758Y-144401153D01*
X95540000Y-145310395D01*
X96449242Y-144401153D01*
X96361363Y-144143425D01*
X95783529Y-143931605D01*
X95168620Y-143957036D01*
X94718637Y-144143425D01*
X94630758Y-144401153D01*
X91606283Y-144401153D01*
X91409765Y-144269843D01*
X91162000Y-144220560D01*
X89438000Y-144220560D01*
X89190235Y-144269843D01*
X88980191Y-144410191D01*
X88839843Y-144620235D01*
X88790560Y-144868000D01*
X88790560Y-146592000D01*
X88839843Y-146839765D01*
X88980191Y-147049809D01*
X89167742Y-147175128D01*
X89096631Y-147246239D01*
X89211151Y-147360759D01*
X88953425Y-147448637D01*
X88741605Y-148026471D01*
X82789440Y-148026471D01*
X82789440Y-147168000D01*
X82740157Y-146920235D01*
X82599809Y-146710191D01*
X82412258Y-146584872D01*
X82483369Y-146513761D01*
X82368849Y-146399241D01*
X82626575Y-146311363D01*
X82838395Y-145733529D01*
X82812964Y-145118620D01*
X82626575Y-144668637D01*
X82368847Y-144580758D01*
X81459605Y-145490000D01*
X81473748Y-145504143D01*
X81294143Y-145683748D01*
X81280000Y-145669605D01*
X81265858Y-145683748D01*
X81086253Y-145504143D01*
X81100395Y-145490000D01*
X80191153Y-144580758D01*
X79933425Y-144668637D01*
X79721605Y-145246471D01*
X71735000Y-145246471D01*
X71735000Y-144078847D01*
X75140758Y-144078847D01*
X75228637Y-144336575D01*
X75806471Y-144548395D01*
X76421380Y-144522964D01*
X76715457Y-144401153D01*
X80370758Y-144401153D01*
X81280000Y-145310395D01*
X82189242Y-144401153D01*
X82101363Y-144143425D01*
X81523529Y-143931605D01*
X80908620Y-143957036D01*
X80458637Y-144143425D01*
X80370758Y-144401153D01*
X76715457Y-144401153D01*
X76871363Y-144336575D01*
X76959242Y-144078847D01*
X76050000Y-143169605D01*
X75140758Y-144078847D01*
X71735000Y-144078847D01*
X71735000Y-142746471D01*
X74491605Y-142746471D01*
X74517036Y-143361380D01*
X74703425Y-143811363D01*
X74961153Y-143899242D01*
X75870395Y-142990000D01*
X75856253Y-142975858D01*
X76035858Y-142796253D01*
X76050000Y-142810395D01*
X76064143Y-142796253D01*
X76243748Y-142975858D01*
X76229605Y-142990000D01*
X77138847Y-143899242D01*
X77396575Y-143811363D01*
X77608395Y-143233529D01*
X77582964Y-142618620D01*
X77396575Y-142168637D01*
X77138849Y-142080759D01*
X77253369Y-141966239D01*
X77182258Y-141895128D01*
X77369809Y-141769809D01*
X77510157Y-141559765D01*
X77559440Y-141312000D01*
X77559440Y-139588000D01*
X77510157Y-139340235D01*
X77369809Y-139130191D01*
X77159765Y-138989843D01*
X76912000Y-138940560D01*
X75188000Y-138940560D01*
X74940235Y-138989843D01*
X74730191Y-139130191D01*
X74589843Y-139340235D01*
X74540560Y-139588000D01*
X74540560Y-141312000D01*
X74589843Y-141559765D01*
X74730191Y-141769809D01*
X74917742Y-141895128D01*
X74846631Y-141966239D01*
X74961151Y-142080759D01*
X74703425Y-142168637D01*
X74491605Y-142746471D01*
X71735000Y-142746471D01*
X71735000Y-137736471D01*
X79721605Y-137736471D01*
X79747036Y-138351380D01*
X79933425Y-138801363D01*
X80191151Y-138889241D01*
X80076631Y-139003761D01*
X80147742Y-139074872D01*
X79960191Y-139200191D01*
X79819843Y-139410235D01*
X79770560Y-139658000D01*
X79770560Y-141382000D01*
X79819843Y-141629765D01*
X79960191Y-141839809D01*
X80170235Y-141980157D01*
X80418000Y-142029440D01*
X82142000Y-142029440D01*
X82389765Y-141980157D01*
X82586282Y-141848847D01*
X89390758Y-141848847D01*
X89478637Y-142106575D01*
X90056471Y-142318395D01*
X90671380Y-142292964D01*
X91121363Y-142106575D01*
X91209242Y-141848847D01*
X90300000Y-140939605D01*
X89390758Y-141848847D01*
X82586282Y-141848847D01*
X82599809Y-141839809D01*
X82740157Y-141629765D01*
X82789440Y-141382000D01*
X82789440Y-140516471D01*
X88741605Y-140516471D01*
X88767036Y-141131380D01*
X88953425Y-141581363D01*
X89211153Y-141669242D01*
X90120395Y-140760000D01*
X90106253Y-140745858D01*
X90285858Y-140566253D01*
X90300000Y-140580395D01*
X90314143Y-140566253D01*
X90493748Y-140745858D01*
X90479605Y-140760000D01*
X91388847Y-141669242D01*
X91646575Y-141581363D01*
X91858395Y-141003529D01*
X91832964Y-140388620D01*
X91646575Y-139938637D01*
X91388849Y-139850759D01*
X91503369Y-139736239D01*
X91432258Y-139665128D01*
X91619809Y-139539809D01*
X91760157Y-139329765D01*
X91809440Y-139082000D01*
X91809440Y-137736471D01*
X93981605Y-137736471D01*
X94007036Y-138351380D01*
X94193425Y-138801363D01*
X94451151Y-138889241D01*
X94336631Y-139003761D01*
X94407742Y-139074872D01*
X94220191Y-139200191D01*
X94079843Y-139410235D01*
X94030560Y-139658000D01*
X94030560Y-141382000D01*
X94079843Y-141629765D01*
X94220191Y-141839809D01*
X94430235Y-141980157D01*
X94678000Y-142029440D01*
X96402000Y-142029440D01*
X96649765Y-141980157D01*
X96859809Y-141839809D01*
X97000157Y-141629765D01*
X97049440Y-141382000D01*
X97049440Y-139658000D01*
X97000157Y-139410235D01*
X96859809Y-139200191D01*
X96672258Y-139074872D01*
X96743369Y-139003761D01*
X96628849Y-138889241D01*
X96886575Y-138801363D01*
X97098395Y-138223529D01*
X97072964Y-137608620D01*
X96886575Y-137158637D01*
X96628847Y-137070758D01*
X95719605Y-137980000D01*
X95733748Y-137994143D01*
X95554143Y-138173748D01*
X95540000Y-138159605D01*
X95525858Y-138173748D01*
X95346253Y-137994143D01*
X95360395Y-137980000D01*
X94451153Y-137070758D01*
X94193425Y-137158637D01*
X93981605Y-137736471D01*
X91809440Y-137736471D01*
X91809440Y-137358000D01*
X91760157Y-137110235D01*
X91619809Y-136900191D01*
X91606283Y-136891153D01*
X94630758Y-136891153D01*
X95540000Y-137800395D01*
X96449242Y-136891153D01*
X96361363Y-136633425D01*
X95783529Y-136421605D01*
X95168620Y-136447036D01*
X94718637Y-136633425D01*
X94630758Y-136891153D01*
X91606283Y-136891153D01*
X91409765Y-136759843D01*
X91162000Y-136710560D01*
X89438000Y-136710560D01*
X89190235Y-136759843D01*
X88980191Y-136900191D01*
X88839843Y-137110235D01*
X88790560Y-137358000D01*
X88790560Y-139082000D01*
X88839843Y-139329765D01*
X88980191Y-139539809D01*
X89167742Y-139665128D01*
X89096631Y-139736239D01*
X89211151Y-139850759D01*
X88953425Y-139938637D01*
X88741605Y-140516471D01*
X82789440Y-140516471D01*
X82789440Y-139658000D01*
X82740157Y-139410235D01*
X82599809Y-139200191D01*
X82412258Y-139074872D01*
X82483369Y-139003761D01*
X82368849Y-138889241D01*
X82626575Y-138801363D01*
X82838395Y-138223529D01*
X82812964Y-137608620D01*
X82626575Y-137158637D01*
X82368847Y-137070758D01*
X81459605Y-137980000D01*
X81473748Y-137994143D01*
X81294143Y-138173748D01*
X81280000Y-138159605D01*
X81265858Y-138173748D01*
X81086253Y-137994143D01*
X81100395Y-137980000D01*
X80191153Y-137070758D01*
X79933425Y-137158637D01*
X79721605Y-137736471D01*
X71735000Y-137736471D01*
X71735000Y-136568847D01*
X75140758Y-136568847D01*
X75228637Y-136826575D01*
X75806471Y-137038395D01*
X76421380Y-137012964D01*
X76715457Y-136891153D01*
X80370758Y-136891153D01*
X81280000Y-137800395D01*
X82189242Y-136891153D01*
X82101363Y-136633425D01*
X81523529Y-136421605D01*
X80908620Y-136447036D01*
X80458637Y-136633425D01*
X80370758Y-136891153D01*
X76715457Y-136891153D01*
X76871363Y-136826575D01*
X76959242Y-136568847D01*
X76050000Y-135659605D01*
X75140758Y-136568847D01*
X71735000Y-136568847D01*
X71735000Y-135236471D01*
X74491605Y-135236471D01*
X74517036Y-135851380D01*
X74703425Y-136301363D01*
X74961153Y-136389242D01*
X75870395Y-135480000D01*
X75856253Y-135465858D01*
X76035858Y-135286253D01*
X76050000Y-135300395D01*
X76064143Y-135286253D01*
X76243748Y-135465858D01*
X76229605Y-135480000D01*
X77138847Y-136389242D01*
X77396575Y-136301363D01*
X77608395Y-135723529D01*
X77582964Y-135108620D01*
X77396575Y-134658637D01*
X77138849Y-134570759D01*
X77253369Y-134456239D01*
X77182258Y-134385128D01*
X77369809Y-134259809D01*
X77510157Y-134049765D01*
X77559440Y-133802000D01*
X77559440Y-132078000D01*
X77510157Y-131830235D01*
X77369809Y-131620191D01*
X77159765Y-131479843D01*
X76912000Y-131430560D01*
X75188000Y-131430560D01*
X74940235Y-131479843D01*
X74730191Y-131620191D01*
X74589843Y-131830235D01*
X74540560Y-132078000D01*
X74540560Y-133802000D01*
X74589843Y-134049765D01*
X74730191Y-134259809D01*
X74917742Y-134385128D01*
X74846631Y-134456239D01*
X74961151Y-134570759D01*
X74703425Y-134658637D01*
X74491605Y-135236471D01*
X71735000Y-135236471D01*
X71735000Y-128658931D01*
X71748844Y-128692353D01*
X72827647Y-129771156D01*
X74237171Y-130355000D01*
X75762829Y-130355000D01*
X77172353Y-129771156D01*
X78251156Y-128692353D01*
X78835000Y-127282829D01*
X78835000Y-125757171D01*
X78251156Y-124347647D01*
X77172353Y-123268844D01*
X77138931Y-123255000D01*
X80655000Y-123255000D01*
X80655001Y-131857607D01*
G04 #@! TD*
M02*
