G04 #@! TF.GenerationSoftware,KiCad,Pcbnew,(5.0.0)*
G04 #@! TF.CreationDate,2018-11-04T12:38:02-03:30*
G04 #@! TF.ProjectId,CamCon Board Rev 1.1,43616D436F6E20426F61726420526576,rev?*
G04 #@! TF.SameCoordinates,Original*
G04 #@! TF.FileFunction,Soldermask,Top*
G04 #@! TF.FilePolarity,Negative*
%FSLAX46Y46*%
G04 Gerber Fmt 4.6, Leading zero omitted, Abs format (unit mm)*
G04 Created by KiCad (PCBNEW (5.0.0)) date 11/04/18 12:38:02*
%MOMM*%
%LPD*%
G01*
G04 APERTURE LIST*
%ADD10C,6.400000*%
%ADD11R,2.209800X0.812800*%
%ADD12R,4.394200X0.914400*%
%ADD13C,2.400000*%
%ADD14C,3.900000*%
%ADD15R,1.703200X1.203200*%
G04 APERTURE END LIST*
D10*
G04 #@! TO.C,REF\002A\002A*
X140000000Y-123000000D03*
G04 #@! TD*
G04 #@! TO.C,REF\002A\002A*
X158000000Y-123000000D03*
G04 #@! TD*
G04 #@! TO.C,REF\002A\002A*
X158000000Y-87000000D03*
G04 #@! TD*
D11*
G04 #@! TO.C,J1*
X154521569Y-111898905D03*
X154521569Y-110898901D03*
X154521569Y-109898905D03*
X154521569Y-108898905D03*
X154521569Y-107898905D03*
X154521569Y-106898905D03*
X154521569Y-105898901D03*
X154521569Y-104898905D03*
X154521569Y-103898905D03*
X154521569Y-102898905D03*
X154521569Y-101898902D03*
X154521569Y-100898902D03*
X154521569Y-99898905D03*
X154521569Y-98898905D03*
X154521569Y-97898905D03*
D12*
X156629769Y-96897905D03*
X156629769Y-112899905D03*
G04 #@! TD*
D13*
G04 #@! TO.C,@HOLE4*
X143990669Y-99463905D03*
G04 #@! TD*
G04 #@! TO.C,@HOLE5*
X144018000Y-101820980D03*
G04 #@! TD*
G04 #@! TO.C,@HOLE6*
X144048480Y-104206040D03*
G04 #@! TD*
G04 #@! TO.C,@HOLE7*
X144018000Y-106621580D03*
G04 #@! TD*
G04 #@! TO.C,@HOLE8*
X144058640Y-109014260D03*
G04 #@! TD*
G04 #@! TO.C,@HOLE9*
X144068800Y-111391700D03*
G04 #@! TD*
D14*
G04 #@! TO.C,@HOLE10*
X140000000Y-96500000D03*
G04 #@! TD*
G04 #@! TO.C,@HOLE11*
X139950669Y-114750000D03*
G04 #@! TD*
D15*
G04 #@! TO.C,U$1*
X151070669Y-98578905D03*
G04 #@! TD*
G04 #@! TO.C,U$2*
X148995669Y-99268905D03*
G04 #@! TD*
G04 #@! TO.C,U$3*
X151070669Y-99858905D03*
G04 #@! TD*
G04 #@! TO.C,U$4*
X147210669Y-108188905D03*
G04 #@! TD*
G04 #@! TO.C,U$5*
X149080669Y-101078905D03*
G04 #@! TD*
G04 #@! TO.C,U$6*
X149075669Y-102378905D03*
G04 #@! TD*
G04 #@! TO.C,U$7*
X147050669Y-101828905D03*
G04 #@! TD*
G04 #@! TO.C,U$8*
X151025669Y-103608905D03*
G04 #@! TD*
G04 #@! TO.C,U$9*
X148950680Y-104274620D03*
G04 #@! TD*
G04 #@! TO.C,U$10*
X151030669Y-104913905D03*
G04 #@! TD*
G04 #@! TO.C,U$11*
X149190669Y-107578905D03*
G04 #@! TD*
G04 #@! TO.C,U$12*
X149195669Y-106308905D03*
G04 #@! TD*
G04 #@! TO.C,U$13*
X149195669Y-108843905D03*
G04 #@! TD*
G04 #@! TO.C,U$14*
X149190669Y-110128905D03*
G04 #@! TD*
G04 #@! TO.C,U$15*
X150975669Y-111548905D03*
G04 #@! TD*
D10*
G04 #@! TO.C,REF\002A\002A*
X140000000Y-87000000D03*
G04 #@! TD*
M02*
