M48
INCH,TZ
T1C0.0157
T2C0.0787
T3C0.1220
T4C0.1378
%
G90
G05
T1
X53915Y-37826
X53915Y-38811
X53915Y-39795
X53915Y-40779
X53915Y-41763
X53915Y-42748
X53915Y-43732
X53915Y-44716
X53937Y-35827
X54016Y-36850
X54094Y-46535
X54899Y-36842
X54899Y-40779
X54899Y-41763
X54899Y-42748
X55039Y-39685
X55276Y-35827
X55276Y-43937
X55276Y-46850
X55884Y-36842
X55884Y-38811
X55884Y-40779
X55884Y-41763
X55884Y-42748
X56220Y-49685
X56378Y-46614
X56378Y-47559
X56398Y-45768
X56457Y-33150
X56457Y-35197
X56457Y-38268
X56535Y-34016
X56850Y-48425
X56868Y-36842
X56868Y-37826
X56876Y-44937
X57848Y-40762
X57852Y-36842
X57852Y-37826
X57852Y-38811
X57852Y-41763
X57852Y-43732
X57852Y-44716
X57852Y-45700
X57874Y-46614
X57953Y-34252
X57953Y-35669
X58031Y-47717
X58031Y-49134
X58110Y-33150
X58836Y-37826
X58836Y-44716
X59370Y-34252
X59370Y-36842
X59370Y-45748
X59449Y-46614
X59449Y-47795
X59449Y-49134
X59528Y-33150
X59606Y-35591
X59821Y-37826
X59821Y-44716
X60551Y-34252
X60630Y-48583
X60709Y-33150
X60805Y-36842
X60805Y-45700
X61024Y-47402
X61024Y-49606
X61181Y-35433
X61417Y-46457
X61732Y-45276
X61789Y-36842
X61789Y-38811
X61789Y-39795
X61789Y-40779
X61789Y-41763
X61789Y-42748
X61789Y-43732
X62283Y-35984
X62441Y-46850
X62773Y-36842
X62773Y-37826
X62773Y-38811
X62773Y-39795
X62773Y-40779
X62773Y-41763
X62773Y-42748
X62773Y-43732
X62773Y-44716
X62773Y-45700
X63228Y-35906
X63386Y-47323
T2
X56712Y-41026
X56716Y-42919
X56700Y-41977
X56700Y-40087
X56720Y-43855
X56689Y-39159
T3
X62205Y-48425
X55118Y-34252
X62205Y-34252
X55118Y-48425
T4
X55099Y-45177
X55118Y-37992
T0
M30
