G04 #@! TF.GenerationSoftware,KiCad,Pcbnew,(5.0.0)*
G04 #@! TF.CreationDate,2018-11-04T12:38:02-03:30*
G04 #@! TF.ProjectId,CamCon Board Rev 1.1,43616D436F6E20426F61726420526576,rev?*
G04 #@! TF.SameCoordinates,Original*
G04 #@! TF.FileFunction,Legend,Top*
G04 #@! TF.FilePolarity,Positive*
%FSLAX46Y46*%
G04 Gerber Fmt 4.6, Leading zero omitted, Abs format (unit mm)*
G04 Created by KiCad (PCBNEW (5.0.0)) date 11/04/18 12:38:02*
%MOMM*%
%LPD*%
G01*
G04 APERTURE LIST*
%ADD10C,0.024384*%
%ADD11C,0.048768*%
%ADD12C,0.152400*%
%ADD13C,0.150000*%
G04 APERTURE END LIST*
D10*
X138884792Y-117786211D02*
X138884792Y-117496651D01*
X138884792Y-117634537D02*
X139050255Y-117634537D01*
X139050255Y-117786211D02*
X139050255Y-117496651D01*
X139188141Y-117786211D02*
X139188141Y-117496651D01*
X139257083Y-117496651D01*
X139298449Y-117510440D01*
X139326026Y-117538017D01*
X139339815Y-117565594D01*
X139353603Y-117620748D01*
X139353603Y-117662114D01*
X139339815Y-117717268D01*
X139326026Y-117744845D01*
X139298449Y-117772422D01*
X139257083Y-117786211D01*
X139188141Y-117786211D01*
X139477701Y-117786211D02*
X139477701Y-117496651D01*
X139574221Y-117703480D01*
X139670741Y-117496651D01*
X139670741Y-117786211D01*
X139808626Y-117786211D02*
X139808626Y-117496651D01*
X140167129Y-117786211D02*
X140167129Y-117496651D01*
X140305015Y-117593171D02*
X140305015Y-117786211D01*
X140305015Y-117620748D02*
X140318803Y-117606960D01*
X140346381Y-117593171D01*
X140387746Y-117593171D01*
X140415323Y-117606960D01*
X140429112Y-117634537D01*
X140429112Y-117786211D01*
X140773826Y-117482862D02*
X140525632Y-117855154D01*
X140925501Y-117496651D02*
X140980655Y-117496651D01*
X141008232Y-117510440D01*
X141035809Y-117538017D01*
X141049598Y-117593171D01*
X141049598Y-117689691D01*
X141035809Y-117744845D01*
X141008232Y-117772422D01*
X140980655Y-117786211D01*
X140925501Y-117786211D01*
X140897923Y-117772422D01*
X140870346Y-117744845D01*
X140856558Y-117689691D01*
X140856558Y-117593171D01*
X140870346Y-117538017D01*
X140897923Y-117510440D01*
X140925501Y-117496651D01*
X141297792Y-117593171D02*
X141297792Y-117786211D01*
X141173695Y-117593171D02*
X141173695Y-117744845D01*
X141187483Y-117772422D01*
X141215061Y-117786211D01*
X141256426Y-117786211D01*
X141284003Y-117772422D01*
X141297792Y-117758634D01*
X141394312Y-117593171D02*
X141504621Y-117593171D01*
X141435678Y-117496651D02*
X141435678Y-117744845D01*
X141449466Y-117772422D01*
X141477043Y-117786211D01*
X141504621Y-117786211D01*
X155450255Y-116786211D02*
X155353735Y-116648325D01*
X155284792Y-116786211D02*
X155284792Y-116496651D01*
X155395101Y-116496651D01*
X155422678Y-116510440D01*
X155436466Y-116524228D01*
X155450255Y-116551805D01*
X155450255Y-116593171D01*
X155436466Y-116620748D01*
X155422678Y-116634537D01*
X155395101Y-116648325D01*
X155284792Y-116648325D01*
X155574352Y-116786211D02*
X155574352Y-116593171D01*
X155574352Y-116496651D02*
X155560563Y-116510440D01*
X155574352Y-116524228D01*
X155588141Y-116510440D01*
X155574352Y-116496651D01*
X155574352Y-116524228D01*
X155712238Y-116786211D02*
X155712238Y-116496651D01*
X155712238Y-116606960D02*
X155739815Y-116593171D01*
X155794969Y-116593171D01*
X155822546Y-116606960D01*
X155836335Y-116620748D01*
X155850123Y-116648325D01*
X155850123Y-116731057D01*
X155836335Y-116758634D01*
X155822546Y-116772422D01*
X155794969Y-116786211D01*
X155739815Y-116786211D01*
X155712238Y-116772422D01*
X155974221Y-116786211D02*
X155974221Y-116496651D01*
X155974221Y-116606960D02*
X156001798Y-116593171D01*
X156056952Y-116593171D01*
X156084529Y-116606960D01*
X156098318Y-116620748D01*
X156112106Y-116648325D01*
X156112106Y-116731057D01*
X156098318Y-116758634D01*
X156084529Y-116772422D01*
X156056952Y-116786211D01*
X156001798Y-116786211D01*
X155974221Y-116772422D01*
X156277569Y-116786211D02*
X156249992Y-116772422D01*
X156236203Y-116758634D01*
X156222415Y-116731057D01*
X156222415Y-116648325D01*
X156236203Y-116620748D01*
X156249992Y-116606960D01*
X156277569Y-116593171D01*
X156318935Y-116593171D01*
X156346512Y-116606960D01*
X156360301Y-116620748D01*
X156374089Y-116648325D01*
X156374089Y-116731057D01*
X156360301Y-116758634D01*
X156346512Y-116772422D01*
X156318935Y-116786211D01*
X156277569Y-116786211D01*
X156498186Y-116593171D02*
X156498186Y-116786211D01*
X156498186Y-116620748D02*
X156511975Y-116606960D01*
X156539552Y-116593171D01*
X156580918Y-116593171D01*
X156608495Y-116606960D01*
X156622283Y-116634537D01*
X156622283Y-116786211D01*
X157146249Y-116758634D02*
X157132461Y-116772422D01*
X157091095Y-116786211D01*
X157063518Y-116786211D01*
X157022152Y-116772422D01*
X156994575Y-116744845D01*
X156980786Y-116717268D01*
X156966998Y-116662114D01*
X156966998Y-116620748D01*
X156980786Y-116565594D01*
X156994575Y-116538017D01*
X157022152Y-116510440D01*
X157063518Y-116496651D01*
X157091095Y-116496651D01*
X157132461Y-116510440D01*
X157146249Y-116524228D01*
X157394443Y-116786211D02*
X157394443Y-116634537D01*
X157380655Y-116606960D01*
X157353078Y-116593171D01*
X157297923Y-116593171D01*
X157270346Y-116606960D01*
X157394443Y-116772422D02*
X157366866Y-116786211D01*
X157297923Y-116786211D01*
X157270346Y-116772422D01*
X157256558Y-116744845D01*
X157256558Y-116717268D01*
X157270346Y-116689691D01*
X157297923Y-116675902D01*
X157366866Y-116675902D01*
X157394443Y-116662114D01*
X157532329Y-116786211D02*
X157532329Y-116496651D01*
X157532329Y-116606960D02*
X157559906Y-116593171D01*
X157615061Y-116593171D01*
X157642638Y-116606960D01*
X157656426Y-116620748D01*
X157670215Y-116648325D01*
X157670215Y-116731057D01*
X157656426Y-116758634D01*
X157642638Y-116772422D01*
X157615061Y-116786211D01*
X157559906Y-116786211D01*
X157532329Y-116772422D01*
X157835678Y-116786211D02*
X157808101Y-116772422D01*
X157794312Y-116744845D01*
X157794312Y-116496651D01*
X158056295Y-116772422D02*
X158028718Y-116786211D01*
X157973563Y-116786211D01*
X157945986Y-116772422D01*
X157932198Y-116744845D01*
X157932198Y-116634537D01*
X157945986Y-116606960D01*
X157973563Y-116593171D01*
X158028718Y-116593171D01*
X158056295Y-116606960D01*
X158070083Y-116634537D01*
X158070083Y-116662114D01*
X157932198Y-116689691D01*
X158414798Y-116786211D02*
X158414798Y-116496651D01*
X158552683Y-116593171D02*
X158552683Y-116786211D01*
X158552683Y-116620748D02*
X158566472Y-116606960D01*
X158594049Y-116593171D01*
X158635415Y-116593171D01*
X158662992Y-116606960D01*
X158676781Y-116634537D01*
X158676781Y-116786211D01*
X159021495Y-116482862D02*
X158773301Y-116855154D01*
X159173169Y-116496651D02*
X159228323Y-116496651D01*
X159255901Y-116510440D01*
X159283478Y-116538017D01*
X159297266Y-116593171D01*
X159297266Y-116689691D01*
X159283478Y-116744845D01*
X159255901Y-116772422D01*
X159228323Y-116786211D01*
X159173169Y-116786211D01*
X159145592Y-116772422D01*
X159118015Y-116744845D01*
X159104226Y-116689691D01*
X159104226Y-116593171D01*
X159118015Y-116538017D01*
X159145592Y-116510440D01*
X159173169Y-116496651D01*
X159545461Y-116593171D02*
X159545461Y-116786211D01*
X159421363Y-116593171D02*
X159421363Y-116744845D01*
X159435152Y-116772422D01*
X159462729Y-116786211D01*
X159504095Y-116786211D01*
X159531672Y-116772422D01*
X159545461Y-116758634D01*
X159641981Y-116593171D02*
X159752289Y-116593171D01*
X159683346Y-116496651D02*
X159683346Y-116744845D01*
X159697135Y-116772422D01*
X159724712Y-116786211D01*
X159752289Y-116786211D01*
D11*
X147300510Y-114717268D02*
X147272933Y-114744845D01*
X147190202Y-114772422D01*
X147135047Y-114772422D01*
X147052316Y-114744845D01*
X146997162Y-114689691D01*
X146969584Y-114634537D01*
X146942007Y-114524228D01*
X146942007Y-114441497D01*
X146969584Y-114331188D01*
X146997162Y-114276034D01*
X147052316Y-114220880D01*
X147135047Y-114193302D01*
X147190202Y-114193302D01*
X147272933Y-114220880D01*
X147300510Y-114248457D01*
X147796899Y-114772422D02*
X147796899Y-114469074D01*
X147769322Y-114413920D01*
X147714167Y-114386342D01*
X147603859Y-114386342D01*
X147548704Y-114413920D01*
X147796899Y-114744845D02*
X147741744Y-114772422D01*
X147603859Y-114772422D01*
X147548704Y-114744845D01*
X147521127Y-114689691D01*
X147521127Y-114634537D01*
X147548704Y-114579382D01*
X147603859Y-114551805D01*
X147741744Y-114551805D01*
X147796899Y-114524228D01*
X148072670Y-114772422D02*
X148072670Y-114386342D01*
X148072670Y-114441497D02*
X148100247Y-114413920D01*
X148155402Y-114386342D01*
X148238133Y-114386342D01*
X148293287Y-114413920D01*
X148320864Y-114469074D01*
X148320864Y-114772422D01*
X148320864Y-114469074D02*
X148348442Y-114413920D01*
X148403596Y-114386342D01*
X148486327Y-114386342D01*
X148541482Y-114413920D01*
X148569059Y-114469074D01*
X148569059Y-114772422D01*
X149175756Y-114717268D02*
X149148179Y-114744845D01*
X149065447Y-114772422D01*
X149010293Y-114772422D01*
X148927562Y-114744845D01*
X148872407Y-114689691D01*
X148844830Y-114634537D01*
X148817253Y-114524228D01*
X148817253Y-114441497D01*
X148844830Y-114331188D01*
X148872407Y-114276034D01*
X148927562Y-114220880D01*
X149010293Y-114193302D01*
X149065447Y-114193302D01*
X149148179Y-114220880D01*
X149175756Y-114248457D01*
X149506682Y-114772422D02*
X149451527Y-114744845D01*
X149423950Y-114717268D01*
X149396373Y-114662114D01*
X149396373Y-114496651D01*
X149423950Y-114441497D01*
X149451527Y-114413920D01*
X149506682Y-114386342D01*
X149589413Y-114386342D01*
X149644567Y-114413920D01*
X149672144Y-114441497D01*
X149699722Y-114496651D01*
X149699722Y-114662114D01*
X149672144Y-114717268D01*
X149644567Y-114744845D01*
X149589413Y-114772422D01*
X149506682Y-114772422D01*
X149947916Y-114386342D02*
X149947916Y-114772422D01*
X149947916Y-114441497D02*
X149975493Y-114413920D01*
X150030647Y-114386342D01*
X150113379Y-114386342D01*
X150168533Y-114413920D01*
X150196110Y-114469074D01*
X150196110Y-114772422D01*
X151106156Y-114469074D02*
X151188887Y-114496651D01*
X151216464Y-114524228D01*
X151244042Y-114579382D01*
X151244042Y-114662114D01*
X151216464Y-114717268D01*
X151188887Y-114744845D01*
X151133733Y-114772422D01*
X150913116Y-114772422D01*
X150913116Y-114193302D01*
X151106156Y-114193302D01*
X151161310Y-114220880D01*
X151188887Y-114248457D01*
X151216464Y-114303611D01*
X151216464Y-114358765D01*
X151188887Y-114413920D01*
X151161310Y-114441497D01*
X151106156Y-114469074D01*
X150913116Y-114469074D01*
X151574967Y-114772422D02*
X151519813Y-114744845D01*
X151492236Y-114717268D01*
X151464659Y-114662114D01*
X151464659Y-114496651D01*
X151492236Y-114441497D01*
X151519813Y-114413920D01*
X151574967Y-114386342D01*
X151657699Y-114386342D01*
X151712853Y-114413920D01*
X151740430Y-114441497D01*
X151768007Y-114496651D01*
X151768007Y-114662114D01*
X151740430Y-114717268D01*
X151712853Y-114744845D01*
X151657699Y-114772422D01*
X151574967Y-114772422D01*
X152264396Y-114772422D02*
X152264396Y-114469074D01*
X152236819Y-114413920D01*
X152181664Y-114386342D01*
X152071356Y-114386342D01*
X152016202Y-114413920D01*
X152264396Y-114744845D02*
X152209242Y-114772422D01*
X152071356Y-114772422D01*
X152016202Y-114744845D01*
X151988624Y-114689691D01*
X151988624Y-114634537D01*
X152016202Y-114579382D01*
X152071356Y-114551805D01*
X152209242Y-114551805D01*
X152264396Y-114524228D01*
X152540167Y-114772422D02*
X152540167Y-114386342D01*
X152540167Y-114496651D02*
X152567744Y-114441497D01*
X152595322Y-114413920D01*
X152650476Y-114386342D01*
X152705630Y-114386342D01*
X153146864Y-114772422D02*
X153146864Y-114193302D01*
X153146864Y-114744845D02*
X153091710Y-114772422D01*
X152981402Y-114772422D01*
X152926247Y-114744845D01*
X152898670Y-114717268D01*
X152871093Y-114662114D01*
X152871093Y-114496651D01*
X152898670Y-114441497D01*
X152926247Y-114413920D01*
X152981402Y-114386342D01*
X153091710Y-114386342D01*
X153146864Y-114413920D01*
X148700510Y-115572422D02*
X148507470Y-115296651D01*
X148369584Y-115572422D02*
X148369584Y-114993302D01*
X148590202Y-114993302D01*
X148645356Y-115020880D01*
X148672933Y-115048457D01*
X148700510Y-115103611D01*
X148700510Y-115186342D01*
X148672933Y-115241497D01*
X148645356Y-115269074D01*
X148590202Y-115296651D01*
X148369584Y-115296651D01*
X149169322Y-115544845D02*
X149114167Y-115572422D01*
X149003859Y-115572422D01*
X148948704Y-115544845D01*
X148921127Y-115489691D01*
X148921127Y-115269074D01*
X148948704Y-115213920D01*
X149003859Y-115186342D01*
X149114167Y-115186342D01*
X149169322Y-115213920D01*
X149196899Y-115269074D01*
X149196899Y-115324228D01*
X148921127Y-115379382D01*
X149389939Y-115186342D02*
X149527824Y-115572422D01*
X149665710Y-115186342D01*
X150630910Y-115572422D02*
X150299984Y-115572422D01*
X150465447Y-115572422D02*
X150465447Y-114993302D01*
X150410293Y-115076034D01*
X150355139Y-115131188D01*
X150299984Y-115158765D01*
X150879104Y-115517268D02*
X150906682Y-115544845D01*
X150879104Y-115572422D01*
X150851527Y-115544845D01*
X150879104Y-115517268D01*
X150879104Y-115572422D01*
X151127299Y-115048457D02*
X151154876Y-115020880D01*
X151210030Y-114993302D01*
X151347916Y-114993302D01*
X151403070Y-115020880D01*
X151430647Y-115048457D01*
X151458224Y-115103611D01*
X151458224Y-115158765D01*
X151430647Y-115241497D01*
X151099722Y-115572422D01*
X151458224Y-115572422D01*
D10*
X148806146Y-98097340D02*
X148778569Y-98083551D01*
X148737203Y-98083551D01*
X148695838Y-98097340D01*
X148668261Y-98124917D01*
X148654472Y-98152494D01*
X148640683Y-98207648D01*
X148640683Y-98249014D01*
X148654472Y-98304168D01*
X148668261Y-98331745D01*
X148695838Y-98359322D01*
X148737203Y-98373111D01*
X148764781Y-98373111D01*
X148806146Y-98359322D01*
X148819935Y-98345534D01*
X148819935Y-98249014D01*
X148764781Y-98249014D01*
X148944032Y-98373111D02*
X148944032Y-98083551D01*
X149109495Y-98373111D01*
X149109495Y-98083551D01*
X149247381Y-98373111D02*
X149247381Y-98083551D01*
X149316323Y-98083551D01*
X149357689Y-98097340D01*
X149385266Y-98124917D01*
X149399055Y-98152494D01*
X149412843Y-98207648D01*
X149412843Y-98249014D01*
X149399055Y-98304168D01*
X149385266Y-98331745D01*
X149357689Y-98359322D01*
X149316323Y-98373111D01*
X149247381Y-98373111D01*
X146877135Y-100604345D02*
X146849558Y-100590556D01*
X146808192Y-100590556D01*
X146766827Y-100604345D01*
X146739250Y-100631922D01*
X146725461Y-100659499D01*
X146711672Y-100714653D01*
X146711672Y-100756019D01*
X146725461Y-100811173D01*
X146739250Y-100838750D01*
X146766827Y-100866327D01*
X146808192Y-100880116D01*
X146835770Y-100880116D01*
X146877135Y-100866327D01*
X146890924Y-100852539D01*
X146890924Y-100756019D01*
X146835770Y-100756019D01*
X147015021Y-100880116D02*
X147015021Y-100590556D01*
X147180484Y-100880116D01*
X147180484Y-100590556D01*
X147318370Y-100880116D02*
X147318370Y-100590556D01*
X147387312Y-100590556D01*
X147428678Y-100604345D01*
X147456255Y-100631922D01*
X147470044Y-100659499D01*
X147483832Y-100714653D01*
X147483832Y-100756019D01*
X147470044Y-100811173D01*
X147456255Y-100838750D01*
X147428678Y-100866327D01*
X147387312Y-100880116D01*
X147318370Y-100880116D01*
X148717246Y-105087420D02*
X148689669Y-105073631D01*
X148648303Y-105073631D01*
X148606938Y-105087420D01*
X148579361Y-105114997D01*
X148565572Y-105142574D01*
X148551783Y-105197728D01*
X148551783Y-105239094D01*
X148565572Y-105294248D01*
X148579361Y-105321825D01*
X148606938Y-105349402D01*
X148648303Y-105363191D01*
X148675881Y-105363191D01*
X148717246Y-105349402D01*
X148731035Y-105335614D01*
X148731035Y-105239094D01*
X148675881Y-105239094D01*
X148855132Y-105363191D02*
X148855132Y-105073631D01*
X149020595Y-105363191D01*
X149020595Y-105073631D01*
X149158481Y-105363191D02*
X149158481Y-105073631D01*
X149227423Y-105073631D01*
X149268789Y-105087420D01*
X149296366Y-105114997D01*
X149310155Y-105142574D01*
X149323943Y-105197728D01*
X149323943Y-105239094D01*
X149310155Y-105294248D01*
X149296366Y-105321825D01*
X149268789Y-105349402D01*
X149227423Y-105363191D01*
X149158481Y-105363191D01*
X147030686Y-107058460D02*
X147003109Y-107044671D01*
X146961743Y-107044671D01*
X146920378Y-107058460D01*
X146892801Y-107086037D01*
X146879012Y-107113614D01*
X146865223Y-107168768D01*
X146865223Y-107210134D01*
X146879012Y-107265288D01*
X146892801Y-107292865D01*
X146920378Y-107320442D01*
X146961743Y-107334231D01*
X146989321Y-107334231D01*
X147030686Y-107320442D01*
X147044475Y-107306654D01*
X147044475Y-107210134D01*
X146989321Y-107210134D01*
X147168572Y-107334231D02*
X147168572Y-107044671D01*
X147334035Y-107334231D01*
X147334035Y-107044671D01*
X147471921Y-107334231D02*
X147471921Y-107044671D01*
X147540863Y-107044671D01*
X147582229Y-107058460D01*
X147609806Y-107086037D01*
X147623595Y-107113614D01*
X147637383Y-107168768D01*
X147637383Y-107210134D01*
X147623595Y-107265288D01*
X147609806Y-107292865D01*
X147582229Y-107320442D01*
X147540863Y-107334231D01*
X147471921Y-107334231D01*
X149038375Y-111400771D02*
X149217626Y-111400771D01*
X149121106Y-111511080D01*
X149162472Y-111511080D01*
X149190049Y-111524868D01*
X149203838Y-111538657D01*
X149217626Y-111566234D01*
X149217626Y-111635177D01*
X149203838Y-111662754D01*
X149190049Y-111676542D01*
X149162472Y-111690331D01*
X149079741Y-111690331D01*
X149052163Y-111676542D01*
X149038375Y-111662754D01*
X149341723Y-111662754D02*
X149355512Y-111676542D01*
X149341723Y-111690331D01*
X149327935Y-111676542D01*
X149341723Y-111662754D01*
X149341723Y-111690331D01*
X149452032Y-111400771D02*
X149631283Y-111400771D01*
X149534763Y-111511080D01*
X149576129Y-111511080D01*
X149603706Y-111524868D01*
X149617495Y-111538657D01*
X149631283Y-111566234D01*
X149631283Y-111635177D01*
X149617495Y-111662754D01*
X149603706Y-111676542D01*
X149576129Y-111690331D01*
X149493398Y-111690331D01*
X149465821Y-111676542D01*
X149452032Y-111662754D01*
X149714015Y-111400771D02*
X149810535Y-111690331D01*
X149907055Y-111400771D01*
X152131732Y-98721091D02*
X152131732Y-98431531D01*
X152200675Y-98431531D01*
X152242041Y-98445320D01*
X152269618Y-98472897D01*
X152283406Y-98500474D01*
X152297195Y-98555628D01*
X152297195Y-98596994D01*
X152283406Y-98652148D01*
X152269618Y-98679725D01*
X152242041Y-98707302D01*
X152200675Y-98721091D01*
X152131732Y-98721091D01*
X152421292Y-98721091D02*
X152421292Y-98431531D01*
X152586755Y-98721091D01*
X152586755Y-98431531D01*
X152779795Y-98431531D02*
X152807372Y-98431531D01*
X152834949Y-98445320D01*
X152848738Y-98459108D01*
X152862526Y-98486685D01*
X152876315Y-98541840D01*
X152876315Y-98610782D01*
X152862526Y-98665937D01*
X152848738Y-98693514D01*
X152834949Y-98707302D01*
X152807372Y-98721091D01*
X152779795Y-98721091D01*
X152752218Y-98707302D01*
X152738429Y-98693514D01*
X152724641Y-98665937D01*
X152710852Y-98610782D01*
X152710852Y-98541840D01*
X152724641Y-98486685D01*
X152738429Y-98459108D01*
X152752218Y-98445320D01*
X152779795Y-98431531D01*
X150198792Y-101228071D02*
X150198792Y-100938511D01*
X150267735Y-100938511D01*
X150309101Y-100952300D01*
X150336678Y-100979877D01*
X150350466Y-101007454D01*
X150364255Y-101062608D01*
X150364255Y-101103974D01*
X150350466Y-101159128D01*
X150336678Y-101186705D01*
X150309101Y-101214282D01*
X150267735Y-101228071D01*
X150198792Y-101228071D01*
X150488352Y-101228071D02*
X150488352Y-100938511D01*
X150653815Y-101228071D01*
X150653815Y-100938511D01*
X150943375Y-101228071D02*
X150777912Y-101228071D01*
X150860643Y-101228071D02*
X150860643Y-100938511D01*
X150833066Y-100979877D01*
X150805489Y-101007454D01*
X150777912Y-101021242D01*
X152246395Y-103682074D02*
X152232606Y-103695862D01*
X152191241Y-103709651D01*
X152163663Y-103709651D01*
X152122298Y-103695862D01*
X152094721Y-103668285D01*
X152080932Y-103640708D01*
X152067143Y-103585554D01*
X152067143Y-103544188D01*
X152080932Y-103489034D01*
X152094721Y-103461457D01*
X152122298Y-103433880D01*
X152163663Y-103420091D01*
X152191241Y-103420091D01*
X152232606Y-103433880D01*
X152246395Y-103447668D01*
X152370492Y-103709651D02*
X152370492Y-103420091D01*
X152535955Y-103709651D01*
X152535955Y-103420091D01*
X152215915Y-104893654D02*
X152202126Y-104907442D01*
X152160761Y-104921231D01*
X152133183Y-104921231D01*
X152091818Y-104907442D01*
X152064241Y-104879865D01*
X152050452Y-104852288D01*
X152036663Y-104797134D01*
X152036663Y-104755768D01*
X152050452Y-104700614D01*
X152064241Y-104673037D01*
X152091818Y-104645460D01*
X152133183Y-104631671D01*
X152160761Y-104631671D01*
X152202126Y-104645460D01*
X152215915Y-104659248D01*
X152340012Y-104921231D02*
X152340012Y-104631671D01*
X152450321Y-104631671D01*
X152477898Y-104645460D01*
X152491686Y-104659248D01*
X152505475Y-104686825D01*
X152505475Y-104728191D01*
X152491686Y-104755768D01*
X152477898Y-104769557D01*
X152450321Y-104783345D01*
X152340012Y-104783345D01*
X152096172Y-99935211D02*
X152096172Y-99645651D01*
X152165115Y-99645651D01*
X152206481Y-99659440D01*
X152234058Y-99687017D01*
X152247846Y-99714594D01*
X152261635Y-99769748D01*
X152261635Y-99811114D01*
X152247846Y-99866268D01*
X152234058Y-99893845D01*
X152206481Y-99921422D01*
X152165115Y-99935211D01*
X152096172Y-99935211D01*
X152385732Y-99935211D02*
X152385732Y-99645651D01*
X152496041Y-99645651D01*
X152523618Y-99659440D01*
X152537406Y-99673228D01*
X152551195Y-99700805D01*
X152551195Y-99742171D01*
X152537406Y-99769748D01*
X152523618Y-99783537D01*
X152496041Y-99797325D01*
X152385732Y-99797325D01*
X152730446Y-99645651D02*
X152758023Y-99645651D01*
X152785601Y-99659440D01*
X152799389Y-99673228D01*
X152813178Y-99700805D01*
X152826966Y-99755960D01*
X152826966Y-99824902D01*
X152813178Y-99880057D01*
X152799389Y-99907634D01*
X152785601Y-99921422D01*
X152758023Y-99935211D01*
X152730446Y-99935211D01*
X152702869Y-99921422D01*
X152689081Y-99907634D01*
X152675292Y-99880057D01*
X152661503Y-99824902D01*
X152661503Y-99755960D01*
X152675292Y-99700805D01*
X152689081Y-99673228D01*
X152702869Y-99659440D01*
X152730446Y-99645651D01*
X150216572Y-102424411D02*
X150216572Y-102134851D01*
X150285515Y-102134851D01*
X150326881Y-102148640D01*
X150354458Y-102176217D01*
X150368246Y-102203794D01*
X150382035Y-102258948D01*
X150382035Y-102300314D01*
X150368246Y-102355468D01*
X150354458Y-102383045D01*
X150326881Y-102410622D01*
X150285515Y-102424411D01*
X150216572Y-102424411D01*
X150506132Y-102424411D02*
X150506132Y-102134851D01*
X150616441Y-102134851D01*
X150644018Y-102148640D01*
X150657806Y-102162428D01*
X150671595Y-102190005D01*
X150671595Y-102231371D01*
X150657806Y-102258948D01*
X150644018Y-102272737D01*
X150616441Y-102286525D01*
X150506132Y-102286525D01*
X150947366Y-102424411D02*
X150781903Y-102424411D01*
X150864635Y-102424411D02*
X150864635Y-102134851D01*
X150837058Y-102176217D01*
X150809481Y-102203794D01*
X150781903Y-102217582D01*
X150393646Y-106022140D02*
X150366069Y-106008351D01*
X150324703Y-106008351D01*
X150283338Y-106022140D01*
X150255761Y-106049717D01*
X150241972Y-106077294D01*
X150228183Y-106132448D01*
X150228183Y-106173814D01*
X150241972Y-106228968D01*
X150255761Y-106256545D01*
X150283338Y-106284122D01*
X150324703Y-106297911D01*
X150352281Y-106297911D01*
X150393646Y-106284122D01*
X150407435Y-106270334D01*
X150407435Y-106173814D01*
X150352281Y-106173814D01*
X150531532Y-106297911D02*
X150531532Y-106008351D01*
X150641841Y-106008351D01*
X150669418Y-106022140D01*
X150683206Y-106035928D01*
X150696995Y-106063505D01*
X150696995Y-106104871D01*
X150683206Y-106132448D01*
X150669418Y-106146237D01*
X150641841Y-106160025D01*
X150531532Y-106160025D01*
X150821092Y-106297911D02*
X150821092Y-106008351D01*
X151014132Y-106008351D02*
X151069286Y-106008351D01*
X151096863Y-106022140D01*
X151124441Y-106049717D01*
X151138229Y-106104871D01*
X151138229Y-106201391D01*
X151124441Y-106256545D01*
X151096863Y-106284122D01*
X151069286Y-106297911D01*
X151014132Y-106297911D01*
X150986555Y-106284122D01*
X150958978Y-106256545D01*
X150945189Y-106201391D01*
X150945189Y-106104871D01*
X150958978Y-106049717D01*
X150986555Y-106022140D01*
X151014132Y-106008351D01*
X151317481Y-106008351D02*
X151345058Y-106008351D01*
X151372635Y-106022140D01*
X151386423Y-106035928D01*
X151400212Y-106063505D01*
X151414001Y-106118660D01*
X151414001Y-106187602D01*
X151400212Y-106242757D01*
X151386423Y-106270334D01*
X151372635Y-106284122D01*
X151345058Y-106297911D01*
X151317481Y-106297911D01*
X151289903Y-106284122D01*
X151276115Y-106270334D01*
X151262326Y-106242757D01*
X151248538Y-106187602D01*
X151248538Y-106118660D01*
X151262326Y-106063505D01*
X151276115Y-106035928D01*
X151289903Y-106022140D01*
X151317481Y-106008351D01*
X150383486Y-107284520D02*
X150355909Y-107270731D01*
X150314543Y-107270731D01*
X150273178Y-107284520D01*
X150245601Y-107312097D01*
X150231812Y-107339674D01*
X150218023Y-107394828D01*
X150218023Y-107436194D01*
X150231812Y-107491348D01*
X150245601Y-107518925D01*
X150273178Y-107546502D01*
X150314543Y-107560291D01*
X150342121Y-107560291D01*
X150383486Y-107546502D01*
X150397275Y-107532714D01*
X150397275Y-107436194D01*
X150342121Y-107436194D01*
X150521372Y-107560291D02*
X150521372Y-107270731D01*
X150631681Y-107270731D01*
X150659258Y-107284520D01*
X150673046Y-107298308D01*
X150686835Y-107325885D01*
X150686835Y-107367251D01*
X150673046Y-107394828D01*
X150659258Y-107408617D01*
X150631681Y-107422405D01*
X150521372Y-107422405D01*
X150810932Y-107560291D02*
X150810932Y-107270731D01*
X151003972Y-107270731D02*
X151059126Y-107270731D01*
X151086703Y-107284520D01*
X151114281Y-107312097D01*
X151128069Y-107367251D01*
X151128069Y-107463771D01*
X151114281Y-107518925D01*
X151086703Y-107546502D01*
X151059126Y-107560291D01*
X151003972Y-107560291D01*
X150976395Y-107546502D01*
X150948818Y-107518925D01*
X150935029Y-107463771D01*
X150935029Y-107367251D01*
X150948818Y-107312097D01*
X150976395Y-107284520D01*
X151003972Y-107270731D01*
X151403841Y-107560291D02*
X151238378Y-107560291D01*
X151321109Y-107560291D02*
X151321109Y-107270731D01*
X151293532Y-107312097D01*
X151265955Y-107339674D01*
X151238378Y-107353462D01*
X150278983Y-108849522D02*
X150320349Y-108863311D01*
X150389292Y-108863311D01*
X150416869Y-108849522D01*
X150430658Y-108835734D01*
X150444446Y-108808157D01*
X150444446Y-108780580D01*
X150430658Y-108753002D01*
X150416869Y-108739214D01*
X150389292Y-108725425D01*
X150334138Y-108711637D01*
X150306561Y-108697848D01*
X150292772Y-108684060D01*
X150278983Y-108656482D01*
X150278983Y-108628905D01*
X150292772Y-108601328D01*
X150306561Y-108587540D01*
X150334138Y-108573751D01*
X150403081Y-108573751D01*
X150444446Y-108587540D01*
X150734006Y-108835734D02*
X150720218Y-108849522D01*
X150678852Y-108863311D01*
X150651275Y-108863311D01*
X150609909Y-108849522D01*
X150582332Y-108821945D01*
X150568543Y-108794368D01*
X150554755Y-108739214D01*
X150554755Y-108697848D01*
X150568543Y-108642694D01*
X150582332Y-108615117D01*
X150609909Y-108587540D01*
X150651275Y-108573751D01*
X150678852Y-108573751D01*
X150720218Y-108587540D01*
X150734006Y-108601328D01*
X150995989Y-108863311D02*
X150858103Y-108863311D01*
X150858103Y-108573751D01*
X151147663Y-108573751D02*
X151175241Y-108573751D01*
X151202818Y-108587540D01*
X151216606Y-108601328D01*
X151230395Y-108628905D01*
X151244183Y-108684060D01*
X151244183Y-108753002D01*
X151230395Y-108808157D01*
X151216606Y-108835734D01*
X151202818Y-108849522D01*
X151175241Y-108863311D01*
X151147663Y-108863311D01*
X151120086Y-108849522D01*
X151106298Y-108835734D01*
X151092509Y-108808157D01*
X151078721Y-108753002D01*
X151078721Y-108684060D01*
X151092509Y-108628905D01*
X151106298Y-108601328D01*
X151120086Y-108587540D01*
X151147663Y-108573751D01*
X150258663Y-110114442D02*
X150300029Y-110128231D01*
X150368972Y-110128231D01*
X150396549Y-110114442D01*
X150410338Y-110100654D01*
X150424126Y-110073077D01*
X150424126Y-110045500D01*
X150410338Y-110017922D01*
X150396549Y-110004134D01*
X150368972Y-109990345D01*
X150313818Y-109976557D01*
X150286241Y-109962768D01*
X150272452Y-109948980D01*
X150258663Y-109921402D01*
X150258663Y-109893825D01*
X150272452Y-109866248D01*
X150286241Y-109852460D01*
X150313818Y-109838671D01*
X150382761Y-109838671D01*
X150424126Y-109852460D01*
X150548223Y-110128231D02*
X150548223Y-109838671D01*
X150617166Y-109838671D01*
X150658532Y-109852460D01*
X150686109Y-109880037D01*
X150699898Y-109907614D01*
X150713686Y-109962768D01*
X150713686Y-110004134D01*
X150699898Y-110059288D01*
X150686109Y-110086865D01*
X150658532Y-110114442D01*
X150617166Y-110128231D01*
X150548223Y-110128231D01*
X150823995Y-110045500D02*
X150961881Y-110045500D01*
X150796418Y-110128231D02*
X150892938Y-109838671D01*
X150989458Y-110128231D01*
X151141132Y-109838671D02*
X151168709Y-109838671D01*
X151196286Y-109852460D01*
X151210075Y-109866248D01*
X151223863Y-109893825D01*
X151237652Y-109948980D01*
X151237652Y-110017922D01*
X151223863Y-110073077D01*
X151210075Y-110100654D01*
X151196286Y-110114442D01*
X151168709Y-110128231D01*
X151141132Y-110128231D01*
X151113555Y-110114442D01*
X151099766Y-110100654D01*
X151085978Y-110073077D01*
X151072189Y-110017922D01*
X151072189Y-109948980D01*
X151085978Y-109893825D01*
X151099766Y-109866248D01*
X151113555Y-109852460D01*
X151141132Y-109838671D01*
D12*
G04 #@! TO.C,J1*
X154407269Y-94383305D02*
X154407269Y-96237505D01*
X154407269Y-115414505D02*
X160147669Y-115414505D01*
X160147669Y-115414505D02*
X160147669Y-94383305D01*
X160147669Y-94383305D02*
X154407269Y-94383305D01*
X154407269Y-113560305D02*
X154407269Y-115414505D01*
G04 #@! TO.C,REF\002A\002A*
D13*
X138666666Y-123952380D02*
X138333333Y-123476190D01*
X138095238Y-123952380D02*
X138095238Y-122952380D01*
X138476190Y-122952380D01*
X138571428Y-123000000D01*
X138619047Y-123047619D01*
X138666666Y-123142857D01*
X138666666Y-123285714D01*
X138619047Y-123380952D01*
X138571428Y-123428571D01*
X138476190Y-123476190D01*
X138095238Y-123476190D01*
X139095238Y-123428571D02*
X139428571Y-123428571D01*
X139571428Y-123952380D02*
X139095238Y-123952380D01*
X139095238Y-122952380D01*
X139571428Y-122952380D01*
X140333333Y-123428571D02*
X140000000Y-123428571D01*
X140000000Y-123952380D02*
X140000000Y-122952380D01*
X140476190Y-122952380D01*
X141000000Y-122952380D02*
X141000000Y-123190476D01*
X140761904Y-123095238D02*
X141000000Y-123190476D01*
X141238095Y-123095238D01*
X140857142Y-123380952D02*
X141000000Y-123190476D01*
X141142857Y-123380952D01*
X141761904Y-122952380D02*
X141761904Y-123190476D01*
X141523809Y-123095238D02*
X141761904Y-123190476D01*
X142000000Y-123095238D01*
X141619047Y-123380952D02*
X141761904Y-123190476D01*
X141904761Y-123380952D01*
X156666666Y-123952380D02*
X156333333Y-123476190D01*
X156095238Y-123952380D02*
X156095238Y-122952380D01*
X156476190Y-122952380D01*
X156571428Y-123000000D01*
X156619047Y-123047619D01*
X156666666Y-123142857D01*
X156666666Y-123285714D01*
X156619047Y-123380952D01*
X156571428Y-123428571D01*
X156476190Y-123476190D01*
X156095238Y-123476190D01*
X157095238Y-123428571D02*
X157428571Y-123428571D01*
X157571428Y-123952380D02*
X157095238Y-123952380D01*
X157095238Y-122952380D01*
X157571428Y-122952380D01*
X158333333Y-123428571D02*
X158000000Y-123428571D01*
X158000000Y-123952380D02*
X158000000Y-122952380D01*
X158476190Y-122952380D01*
X159000000Y-122952380D02*
X159000000Y-123190476D01*
X158761904Y-123095238D02*
X159000000Y-123190476D01*
X159238095Y-123095238D01*
X158857142Y-123380952D02*
X159000000Y-123190476D01*
X159142857Y-123380952D01*
X159761904Y-122952380D02*
X159761904Y-123190476D01*
X159523809Y-123095238D02*
X159761904Y-123190476D01*
X160000000Y-123095238D01*
X159619047Y-123380952D02*
X159761904Y-123190476D01*
X159904761Y-123380952D01*
X156666666Y-87952380D02*
X156333333Y-87476190D01*
X156095238Y-87952380D02*
X156095238Y-86952380D01*
X156476190Y-86952380D01*
X156571428Y-87000000D01*
X156619047Y-87047619D01*
X156666666Y-87142857D01*
X156666666Y-87285714D01*
X156619047Y-87380952D01*
X156571428Y-87428571D01*
X156476190Y-87476190D01*
X156095238Y-87476190D01*
X157095238Y-87428571D02*
X157428571Y-87428571D01*
X157571428Y-87952380D02*
X157095238Y-87952380D01*
X157095238Y-86952380D01*
X157571428Y-86952380D01*
X158333333Y-87428571D02*
X158000000Y-87428571D01*
X158000000Y-87952380D02*
X158000000Y-86952380D01*
X158476190Y-86952380D01*
X159000000Y-86952380D02*
X159000000Y-87190476D01*
X158761904Y-87095238D02*
X159000000Y-87190476D01*
X159238095Y-87095238D01*
X158857142Y-87380952D02*
X159000000Y-87190476D01*
X159142857Y-87380952D01*
X159761904Y-86952380D02*
X159761904Y-87190476D01*
X159523809Y-87095238D02*
X159761904Y-87190476D01*
X160000000Y-87095238D01*
X159619047Y-87380952D02*
X159761904Y-87190476D01*
X159904761Y-87380952D01*
G04 #@! TO.C,@HOLE4*
G04 #@! TO.C,@HOLE5*
G04 #@! TO.C,@HOLE6*
G04 #@! TO.C,@HOLE7*
G04 #@! TO.C,@HOLE8*
G04 #@! TO.C,@HOLE9*
G04 #@! TO.C,@HOLE10*
G04 #@! TO.C,@HOLE11*
G04 #@! TO.C,REF\002A\002A*
X138666666Y-87952380D02*
X138333333Y-87476190D01*
X138095238Y-87952380D02*
X138095238Y-86952380D01*
X138476190Y-86952380D01*
X138571428Y-87000000D01*
X138619047Y-87047619D01*
X138666666Y-87142857D01*
X138666666Y-87285714D01*
X138619047Y-87380952D01*
X138571428Y-87428571D01*
X138476190Y-87476190D01*
X138095238Y-87476190D01*
X139095238Y-87428571D02*
X139428571Y-87428571D01*
X139571428Y-87952380D02*
X139095238Y-87952380D01*
X139095238Y-86952380D01*
X139571428Y-86952380D01*
X140333333Y-87428571D02*
X140000000Y-87428571D01*
X140000000Y-87952380D02*
X140000000Y-86952380D01*
X140476190Y-86952380D01*
X141000000Y-86952380D02*
X141000000Y-87190476D01*
X140761904Y-87095238D02*
X141000000Y-87190476D01*
X141238095Y-87095238D01*
X140857142Y-87380952D02*
X141000000Y-87190476D01*
X141142857Y-87380952D01*
X141761904Y-86952380D02*
X141761904Y-87190476D01*
X141523809Y-87095238D02*
X141761904Y-87190476D01*
X142000000Y-87095238D01*
X141619047Y-87380952D02*
X141761904Y-87190476D01*
X141904761Y-87380952D01*
G04 #@! TD*
M02*
